<?xml version="1.0" standalone="no"?>
<!DOCTYPE svg PUBLIC "-//W3C//DTD SVG 1.1//EN" "http://www.w3.org/Graphics/SVG/1.1/DTD/svg11.dtd" >
<svg xmlns="http://www.w3.org/2000/svg" xmlns:xlink="http://www.w3.org/1999/xlink" version="1.1">
<metadata>
Created by FontForge 20170731 at Thu Aug 29 11:05:03 2019
 By Aleksey,,,
Cardenio Modern (c) Nils Cordes. 2019.
</metadata>
<defs>
<font id="CardenioModern-Bold" horiz-adv-x="0" >
  <font-face 
    font-family="Cardenio Modern"
    font-weight="700"
    font-stretch="normal"
    units-per-em="2048"
    panose-1="3 0 7 0 0 0 0 0 0 0"
    ascent="1638"
    descent="-410"
    x-height="1319"
    cap-height="1564"
    bbox="-918 -609 1680 2154.14"
    underline-thickness="50"
    underline-position="-150"
    unicode-range="U+0020-25CA"
  />
<missing-glyph horiz-adv-x="1024" 
d="M114 0q-14 0 -14 14v1397q2 14 14 14h796q14 -2 14 -14v-1397q0 -14 -14 -14h-796zM156 56h712v1313h-712v-1313zM475 428q-37 2 -50.5 7.5t-13.5 22.5q0 135 33.5 233t117.5 207q44 57 44 133q0 75 -15 107.5t-61 32.5h-14q-54 0 -69.5 -7.5t-15.5 -45.5q5 -128 5 -153
q1 -18 -14.5 -26t-32.5 -7q-48 2 -64.5 8t-17.5 25q-2 61 -3 100.5t2 77t8 59t17 41t25.5 28.5t38 16t50.5 8.5t66 1.5q226 0 226 -271q0 -58 -33.5 -125t-102.5 -159q-35 -47 -48.5 -115t-13.5 -171q0 -30 -64 -28zM495 127q-51 0 -70 10t-19 47v71q0 35 74 35
q35 0 49 -13.5t14 -53.5q0 -50 -9.5 -73t-38.5 -23z" />
    <glyph glyph-name=".notdef" horiz-adv-x="1024" 
d="M114 0q-14 0 -14 14v1397q2 14 14 14h796q14 -2 14 -14v-1397q0 -14 -14 -14h-796zM156 56h712v1313h-712v-1313zM475 428q-37 2 -50.5 7.5t-13.5 22.5q0 135 33.5 233t117.5 207q44 57 44 133q0 75 -15 107.5t-61 32.5h-14q-54 0 -69.5 -7.5t-15.5 -45.5q5 -128 5 -153
q1 -18 -14.5 -26t-32.5 -7q-48 2 -64.5 8t-17.5 25q-2 61 -3 100.5t2 77t8 59t17 41t25.5 28.5t38 16t50.5 8.5t66 1.5q226 0 226 -271q0 -58 -33.5 -125t-102.5 -159q-35 -47 -48.5 -115t-13.5 -171q0 -30 -64 -28zM495 127q-51 0 -70 10t-19 47v71q0 35 74 35
q35 0 49 -13.5t14 -53.5q0 -50 -9.5 -73t-38.5 -23z" />
    <glyph glyph-name=".null" 
 />
    <glyph glyph-name="nonmarkingreturn" horiz-adv-x="682" 
 />
    <glyph glyph-name="space" unicode=" " horiz-adv-x="508" 
 />
    <glyph glyph-name="space" unicode="&#xa0;" horiz-adv-x="508" 
 />
    <glyph glyph-name="exclam" unicode="!" horiz-adv-x="457" 
d="M183 323q-25 0 -42.5 11t-17.5 33q4 149 4 236q0 177 7 532.5t11 387.5q5 36 62 36q108 0 108 -32q-4 -724 -4 -1160q0 -44 -44 -44h-84zM219 -97q-92 0 -92 56v88q0 38 20.5 59t52.5 21q77 0 98 -25.5t21 -102.5q0 -51 -24.5 -73.5t-75.5 -22.5z" />
    <glyph glyph-name="quotedbl" unicode="&#x22;" horiz-adv-x="657" 
d="M474 1317q-98 0 -98 72v292q0 47 68 47q25 0 40 -1t32.5 -4.5t26.5 -10.5t15.5 -19.5t6.5 -31.5v-258q0 -86 -91 -86zM181 1313q-50 5 -74 21t-24 51v282q0 35 32 46t93 11q27 0 45.5 -18.5t18.5 -48.5v-258q0 -52 -22 -71.5t-69 -14.5z" />
    <glyph glyph-name="numbersign" unicode="#" horiz-adv-x="1082" 
d="M653 122q-42 0 -62 19.5t-22 60.5l-11 205l-111 -2l12 -221q1 -28 -19.5 -37t-66.5 -9q-53 0 -74.5 15t-21.5 68q0 58 -8 181q-88 -4 -152 -4q-48 0 -48 48q0 104 64 104l128 4q0 264 21 416q-46 0 -137 -8q-48 -2 -48 44q0 79 22.5 100.5t109.5 27.5l68 4q14 184 44 212
q16 16 100 16q35 1 46.5 -11.5t8.5 -36.5q-8 -61 -19 -176h96q16 153 32 222t40 82q24 10 59.5 9.5t64.5 -15t24 -34.5q-24 -107 -32 -272q119 -9 141 -16q38 -12 42 -50q1 -7 1 -15q0 -53 -7.5 -70.5t-36.5 -16.5q-108 6 -168 8q-4 -261 -4 -412h145q53 0 68 -19t15 -93
q0 -24 -15.5 -36.5t-56.5 -11.5h-152q0 -40 12 -248q3 -32 -92 -32zM445 558l108 4q0 330 8 416h-100q-14 -158 -17 -222.5t1 -197.5z" />
    <glyph glyph-name="dollar" unicode="$" horiz-adv-x="950" 
d="M474 -154q-68 3 -68 44v68q-59 11 -96 20q-109 27 -162.5 125t-53.5 227q0 150 22 211t82 61h48q18 0 28 -9.5t8 -26.5q-20 -145 -20 -204q0 -122 27.5 -167.5t112.5 -68.5q-4 147 -36 596q-164 0 -228 97.5t-64 338.5q0 271 68 341q83 83 200 83q4 71 4 102
q1 21 15.5 30.5t36.5 9.5t48 -2q39 -4 55.5 -12.5t16.5 -27.5v-100q77 0 140.5 -29.5t99.5 -86.5q23 -35 27.5 -82.5t4.5 -184.5v-57q0 -64 -96 -64q-72 4 -72 28q-4 116 -4 204q0 75 -23.5 97t-88.5 19q10 -327 24 -531q79 0 135 -16t93 -45.5t58 -79t29.5 -109t8.5 -143.5
q0 -104 -10.5 -180.5t-38.5 -148t-82.5 -120t-136.5 -72.5v-79q0 -60 -112 -56zM354 894q-12 342 -12 532q-62 -10 -90.5 -50.5t-30.5 -107t1 -158.5q5 -122 34 -169t98 -47zM578 146q65 31 90.5 103.5t21.5 212.5q-5 139 -16 177q-16 55 -70 69q-26 6 -62 6z" />
    <glyph glyph-name="percent" unicode="%" horiz-adv-x="1320" 
d="M319 -43q-57 6 -82 24t-17 47q8 31 70 166q60 130 137.5 344.5t218.5 623.5q8 23 12.5 36.5t11.5 34t13 37.5q73 214 134.5 320.5t104.5 101.5q57 -7 89 -34t21 -54q-282 -677 -341 -869q-101 -331 -267 -736q-13 -32 -35.5 -39.5t-69.5 -2.5zM310 923q-109 0 -162.5 93
t-47.5 226q3 74 8.5 126.5t17.5 106.5t32 89t50 63.5t74.5 42t103.5 13.5q87 0 134.5 -61t49.5 -163q4 -131 -7 -226t-40 -166.5t-82 -107.5t-131 -36zM310 1083q53 0 66.5 68t13.5 284v22q0 32 -1 43t-7 17t-20 6q-45 0 -64.5 -74.5t-31.5 -261.5q0 -104 44 -104zM954 7
q-54 2 -95 40t-64 100t-34 133.5t-11 150.5q0 96 10.5 167.5t36.5 131t74.5 90.5t118.5 31q55 0 92 -12.5t62.5 -39t39.5 -76t20 -115.5t6 -165q0 -224 -60.5 -332.5t-195.5 -103.5zM970 171q68 -14 68 292q-4 147 -10.5 191.5t-29.5 44.5q-68 0 -68 -192q4 -234 9 -270
q7 -61 31 -66z" />
    <glyph glyph-name="ampersand" unicode="&#x26;" horiz-adv-x="1068" 
d="M418 -30q-77 0 -134 31t-91 87t-50.5 129.5t-16.5 164.5q0 212 11.5 287t60.5 141q-64 88 -60 192q10 220 46.5 341.5t97.5 166t164 44.5q100 0 182 -88.5t82 -187.5v-13v-52.5t-1.5 -44t-3.5 -40t-6.5 -31t-11.5 -26.5t-17 -17.5t-24 -12.5t-32 -3q-55 0 -73.5 10.5
t-18.5 37.5l12 190q0 46 -36 78t-96 24q-54 -26 -84 -392q0 -29 5.5 -47.5t13 -27.5t25.5 -11.5t32.5 -2t45.5 2.5t54 2q44 0 44 -104q0 -68 -128 -68q-70 0 -84.5 -45.5t-19.5 -246.5q0 -68 5 -116.5t19 -97t44 -73.5t76 -25q144 0 144 240v132q-10 -7 -29.5 -21t-32 -23.5
t-27.5 -19.5t-26 -15t-17 -5q-27 0 -54.5 44.5t-10.5 58.5q72 72 174 150q208 158 242.5 182.5t56.5 24.5q18 0 38 -26.5t26 -55t-7 -47.5q-106 -94 -165 -139q12 -140 12 -260q0 -190 -88 -283t-268 -93z" />
    <glyph glyph-name="quotesingle" unicode="'" horiz-adv-x="355" 
d="M148 1313q-68 2 -68 47v292q0 72 98 72q91 0 91 -86v-258q0 -70 -121 -67z" />
    <glyph glyph-name="parenleft" unicode="(" horiz-adv-x="604" 
d="M378 -136q-57 4 -112 165.5t-85.5 354.5t-30.5 320q0 478 292 864q16 18 51 12q45 -8 70 -37t11 -59q-17 -32 -47.5 -87.5t-45 -81.5t-35 -65.5t-31.5 -61t-21.5 -45t-15.5 -39.5q-64 -199 -64 -432q0 -128 18.5 -245t45.5 -195t53.5 -136t46 -92t20.5 -40q6 -44 -29 -74
t-91 -26z" />
    <glyph glyph-name="parenright" unicode=")" horiz-adv-x="604" 
d="M121 -138q-88 36 -88 92q0 9 19 50t55.5 119t64.5 147q52 127 80.5 293.5t11.5 313.5q-8 67 -20 132t-33 143t-32.5 118.5t-42.5 139t-39 124.5q-10 28 16 55.5t74 28.5q38 1 77.5 -85t82.5 -238q39 -140 64 -293.5t26 -262.5q0 -97 -20.5 -222t-55 -242.5t-75.5 -216
t-85 -153.5t-80 -43z" />
    <glyph glyph-name="asterisk" unicode="*" horiz-adv-x="1003" 
d="M567 849q-39 36 -132 244l-252 -188q-22 -16 -53.5 6.5t-42.5 65.5q-3 11 -3 19.5t3.5 17.5t9 16.5t18 18.5t25.5 21t36.5 26.5t46.5 33t59.5 42.5t72.5 53q-187 201 -204 240q-12 30 18.5 69.5t65.5 18.5q10 -6 25 -19.5t30 -29t48.5 -50t64.5 -65.5q34 -34 44 -41
q89 197 140 269q16 11 43 5.5t50.5 -25.5t18.5 -36q-4 -14 -8.5 -26.5t-8 -22.5t-9 -23.5t-9 -21.5t-10.5 -23.5t-10 -22.5t-12 -26.5t-12.5 -27t-15.5 -32t-17 -34.5q189 -38 284 -70q17 -10 15 -38.5t-23 -58t-44 -25.5q-46 8 -119 21t-109 19q31 -92 88 -224
q7 -22 -17 -45.5t-52 -31t-43 0.5z" />
    <glyph glyph-name="plus" unicode="+" horiz-adv-x="958" 
d="M487 176q-58 0 -84.5 12t-31.5 41q0 5 -4.5 35.5t-8 62.5t-7 90.5t-4.5 122.5q-36 2 -75.5 4t-54.5 3t-33.5 2.5t-28.5 3.5t-23 5q-27 6 -25 62q5 104 33 104q39 0 74 -0.5t58 -1t40 -1t26 -1.5h9q0 230 2.5 305t11.5 123q4 21 74 16q59 -5 83.5 -16.5t24.5 -39.5
q0 -16 -8 -400l232 -8q33 -1 42.5 -15.5t9.5 -64.5q-2 -52 -7 -74t-17 -22q-27 0 -264 8q0 -171 28 -320q7 -36 -72 -36z" />
    <glyph glyph-name="comma" unicode="," horiz-adv-x="449" 
d="M47 -374q-43 0 -67.5 30t-24.5 66q0 26 64 100q44 51 44 148q0 40 -32 209q-4 19 16.5 33t55.5 14q93 0 120 -72q28 -76 28 -208q0 -61 -29.5 -135.5t-78.5 -129.5t-96 -55z" />
    <glyph glyph-name="hyphen" unicode="-" horiz-adv-x="702" 
d="M172 625q-34 0 -57 22t-23 62v32q0 64 92 64h104q167 0 244 8q34 3 50.5 -26.5t21.5 -89.5q0 -32 -30.5 -47t-93.5 -17q-105 -4 -308 -8z" />
    <glyph glyph-name="hyphen" unicode="&#xad;" horiz-adv-x="702" 
d="M172 625q-34 0 -57 22t-23 62v32q0 64 92 64h104q167 0 244 8q34 3 50.5 -26.5t21.5 -89.5q0 -32 -30.5 -47t-93.5 -17q-105 -4 -308 -8z" />
    <glyph glyph-name="period" unicode="." horiz-adv-x="372" 
d="M133 -11q-47 0 -79 32t-32 74q0 41 32 73t79 32q46 0 78 -32t32 -73q0 -42 -32 -74t-78 -32z" />
    <glyph glyph-name="slash" unicode="/" horiz-adv-x="730" 
d="M148 -131q-58 0 -84.5 15t-21.5 45q4 30 52 172q12 36 24.5 75.5t27.5 94.5t25.5 95.5t29.5 117.5t29 118.5t33 140.5t33 140.5t38 163t38 166.5q51 219 101 331.5t93 112.5q57 0 92 -24t26 -52q-212 -712 -248 -900q-64 -332 -188 -760q-10 -33 -31.5 -42.5t-68.5 -9.5z
" />
    <glyph glyph-name="zero" unicode="0" horiz-adv-x="1060" 
d="M485 -60q-98 0 -168 30t-113.5 82t-68 138t-33.5 181.5t-9 228.5q0 150 12 286t42.5 270t77.5 231t123 157t173 60q106 0 157 -19t107 -81q160 -176 160 -488q0 -105 -2.5 -190t-8.5 -178.5t-17 -168t-29 -150t-42.5 -132t-59.5 -106.5t-78 -82t-99.5 -50.5t-123.5 -18.5
zM485 108q59 0 106 36t77.5 101t52 143t32.5 175t15.5 182.5t4.5 178.5q0 229 -18 314t-90 150q-8 7 -20.5 18t-14.5 13.5t-11.5 8.5t-10 6t-12 2t-16.5 1t-23 -1h-32q-57 0 -103 -52.5t-76 -137t-51 -200.5t-30.5 -234.5t-11.5 -247.5q-1 -64 2.5 -118t12 -107t26 -93.5
t43 -72.5t63 -48.5t85.5 -16.5z" />
    <glyph glyph-name="one" unicode="1" horiz-adv-x="652" 
d="M418 -58q-26 0 -47 13t-21 35q0 4 -2 186.5t-4 424.5t-2 381q0 69 2 164.5t2 121.5q-129 -166 -148 -178q-12 -12 -60 1q-45 12 -61.5 41.5t5.5 61.5q32 47 120 163.5t140 192.5q40 60 80 60q39 0 75.5 -32.5t32.5 -59.5q-20 -138 -20 -488q0 -668 4 -1040q0 -30 -21 -39
t-75 -9z" />
    <glyph glyph-name="two" unicode="2" horiz-adv-x="852" 
d="M645 -52q-273 0 -384 10.5t-148 49.5q-4 4 -7 8.5t-4.5 11.5t-2.5 11.5t-1.5 15t-0.5 16v20v21.5q0 310 244 708q87 143 131.5 254t44.5 214q0 64 -28.5 98t-90.5 38t-87.5 -14.5t-25.5 -73.5q0 -44 4 -104q2 -38 -96 -40q-38 -1 -57 31.5t-19 96.5q0 132 65.5 212
t170.5 80q172 0 252 -75.5t80 -244.5q0 -82 -15.5 -159.5t-50.5 -162t-72.5 -156t-101.5 -182.5q-75 -129 -115 -242.5t-44 -226.5q-1 -22 41 -32.5t126 -10.5q110 0 216 10q30 3 42 -6.5t10 -29.5q-3 -36 -5.5 -53t-7.5 -39t-12 -31t-20 -16t-31 -7z" />
    <glyph glyph-name="three" unicode="3" horiz-adv-x="877" 
d="M319 -51q-200 0 -200 248v116q0 100 104 100q60 0 60 -64v-52t1 -48t4 -46.5t7 -35t11 -26.5t17 -8q128 3 204 76q48 47 48 284q0 125 -12.5 189t-47.5 107q-119 -36 -176 -36q-80 0 -80 76q0 45 29.5 67t130.5 53q75 23 101.5 86.5t26.5 181.5q0 139 -23 186.5t-97 41.5
q-67 -5 -108 -23t-40 -49q8 -158 8 -160q4 -40 -21 -54t-83 -14q-72 0 -72 216q0 82 55 140t137 83t180 25q92 0 150.5 -59t73.5 -173q13 -94 12 -192q-2 -177 -60 -304q84 -82 84 -400q0 -364 -160 -460q-120 -72 -264 -72z" />
    <glyph glyph-name="four" unicode="4" horiz-adv-x="910" 
d="M502 -27q-45 4 -59 83.5t-14 272.5q0 93 16 307q-204 -5 -252 -1q-115 9 -116 54q0 28 70.5 242.5t145 429.5t76.5 224q12 48 104 48q64 0 56 -34q-36 -159 -236 -803l164 4q23 212 60 313q19 52 92 52q44 0 44 -64q0 -42 -32 -295q133 2 157 -5q25 -8 27 -39v-13
q0 -67 -39.5 -87.5t-153.5 -20.5q-11 -180 -11 -308q0 -122 12 -332q1 -19 -35.5 -25.5t-75.5 -2.5z" />
    <glyph glyph-name="five" unicode="5" horiz-adv-x="913" 
d="M415 -47q-150 0 -233 74.5t-83 213.5q0 104 18.5 138t81.5 34q24 0 35 -1.5t20 -9.5t9 -25q0 -48 -4 -124q-2 -49 36 -88.5t100 -39.5q113 0 152.5 140.5t39.5 499.5q0 102 -26 151t-98 49q-109 0 -136 -104q-14 -48 -76 -48q-43 0 -63.5 16t-20.5 56q0 331 -8 564
q0 43 21.5 59.5t70.5 16.5q218 0 520 48q40 0 40 -64q0 -52 -22.5 -76.5t-102.5 -41.5q-280 -42 -355 -42l12 -248q86 25 148 23q127 -3 195.5 -106t68.5 -249q0 -103 -2.5 -182t-11 -168t-23.5 -153.5t-40.5 -126.5t-61 -100.5t-86.5 -62t-115 -23.5z" />
    <glyph glyph-name="six" unicode="6" horiz-adv-x="844" 
d="M409 -50q-43 0 -78 9t-62 29t-48.5 44.5t-37 63.5t-26.5 77t-18 94t-11 106t-5.5 121.5t-2.5 132t-1 145.5v22q0 80 0.5 138t4 129.5t10 123t18 109t28.5 96.5t41.5 77.5t56 61t73 36t92.5 13.5q72 0 118 -12.5t82 -48t52 -102.5t16 -173q0 -52 -24.5 -69t-75.5 -15
q-52 3 -52 68q0 60 -6 96t-21.5 54.5t-35 24t-53.5 5.5q-40 0 -66.5 -16t-45 -50t-28 -99.5t-13.5 -152.5t-4 -221q105 69 249 43q70 -13 110 -64t57.5 -153.5t16.5 -278.5q-2 -214 -83 -339t-227 -125zM421 118q66 0 106 94.5t32 265.5q-2 40 -3.5 61.5t-5 54.5t-8.5 50.5
t-14 39t-21.5 32.5t-30.5 18.5t-41 7.5q-152 0 -152 -240q0 -207 30 -295.5t108 -88.5z" />
    <glyph glyph-name="seven" unicode="7" horiz-adv-x="809" 
d="M320 -37q-38 2 -56.5 22t-15.5 48q58 462 124.5 760.5t159.5 585.5h-408q-30 0 -41.5 21t-6.5 71q4 35 22.5 53.5t57.5 22.5q234 0 528 12q40 1 57.5 -16t9.5 -47q-91 -276 -149 -481q-96 -346 -178 -920q-12 -78 -38.5 -105t-65.5 -27z" />
    <glyph glyph-name="eight" unicode="8" horiz-adv-x="856" 
d="M405 -74q-70 0 -121.5 24t-80 65t-46.5 96t-22 117.5t-6 129t1 130.5q1 105 41 205.5t132 161.5q-70 57 -110 146t-40 189v8q0 211 86 315.5t282 104.5q59 0 100 -16.5t65.5 -49t37.5 -79.5t15 -108t-2 -135q-13 -217 -176 -376q152 -98 152 -532q0 -200 -72 -298
t-236 -98zM441 946q59 49 86.5 116t41.5 168q14 103 -4.5 165.5t-75.5 62.5q-45 0 -74.5 -11.5t-53.5 -44.5q-42 -58 -44 -148.5t32 -176t92 -131.5zM413 94q29 0 51 8t36.5 20t24.5 34.5t15.5 42.5t8.5 53.5t3.5 57.5t0.5 64q0 318 -128 380q-51 -39 -76.5 -76
t-40.5 -108.5t-15 -191.5q0 -151 24 -217.5t96 -66.5z" />
    <glyph glyph-name="nine" unicode="9" horiz-adv-x="865" 
d="M377 -47q-133 0 -200.5 85.5t-67.5 230.5v150q0 26 17.5 36t62.5 10q42 0 61 -13.5t19 -43.5v-95q0 -103 27.5 -145.5t96.5 -42.5q36 0 65.5 19t49.5 50.5t34.5 79t22.5 96.5t12.5 111.5t5.5 116.5t0 119q-110 -48 -226 -48q-63 0 -112 37.5t-78 101.5t-43.5 142
t-14.5 167q0 122 33.5 218.5t108.5 157t182 60.5q57 -1 95.5 -5t73.5 -20t55.5 -35.5t38 -63t26 -91t14.5 -130t7.5 -168.5t1.5 -219q0 -123 -2 -202t-9.5 -180.5t-22.5 -164.5t-41.5 -130.5t-65.5 -105t-96 -61.5t-131 -24zM445 844q97 24 128 48q4 93 4 121q0 181 -4 218
q-10 104 -66 135q-33 19 -90 19q-35 0 -63 -25.5t-44.5 -67t-24.5 -87.5t-8 -92q0 -164 40 -227.5t128 -41.5z" />
    <glyph glyph-name="colon" unicode=":" horiz-adv-x="404" 
d="M182 794q-47 0 -79 32t-32 74q0 41 32 73t79 32q46 0 78 -32t32 -73q0 -42 -32 -74t-78 -32zM171 323q-47 0 -79 32t-32 74q0 41 32 73t79 32q46 0 78 -32t32 -73q0 -42 -32 -74t-78 -32z" />
    <glyph glyph-name="semicolon" unicode=";" horiz-adv-x="460" 
d="M234 398q-47 0 -79 32t-32 74q0 41 32 73t79 32q46 0 78 -32t32 -73q0 -42 -32 -74t-78 -32zM141 -342q-85 3 -100.5 33.5t28.5 106.5q60 99 60 292q0 54 6.5 77t25.5 23q79 0 119.5 -27.5t36.5 -80.5q-23 -249 -68 -336q-25 -48 -51 -68.5t-57 -19.5z" />
    <glyph glyph-name="semicolon" unicode="&#x37e;" horiz-adv-x="460" 
d="M234 398q-47 0 -79 32t-32 74q0 41 32 73t79 32q46 0 78 -32t32 -73q0 -42 -32 -74t-78 -32zM141 -342q-85 3 -100.5 33.5t28.5 106.5q60 99 60 292q0 54 6.5 77t25.5 23q79 0 119.5 -27.5t36.5 -80.5q-23 -249 -68 -336q-25 -48 -51 -68.5t-57 -19.5z" />
    <glyph glyph-name="less" unicode="&#x3c;" horiz-adv-x="775" 
d="M498 65q-99 99 -237 292t-138 238q0 52 92 170t192 217t148 133q21 15 58 -4t59.5 -52.5t6.5 -54.5q-316 -370 -340 -405q20 -46 157.5 -235.5t151.5 -211.5q22 -35 -35 -72q-28 -19 -63 -24.5t-52 9.5z" />
    <glyph glyph-name="equal" unicode="=" horiz-adv-x="911" 
d="M135 814q-20 -5 -28 21.5t-8 82.5t112 80q94 20 184 20q171 0 283.5 -25t112.5 -75v-36q0 -64 -40 -64q-217 24 -376 24q-76 0 -240 -28zM135 494q-19 0 -29.5 54.5t1.5 70.5q46 67 356 67q45 0 70 -0.5t68 -2.5t68.5 -6.5t52.5 -12.5t40 -22t13 -32q0 -53 -13.5 -84
t-30.5 -28q-80 12 -240 12q-170 0 -356 -16z" />
    <glyph glyph-name="greater" unicode="&#x3e;" horiz-adv-x="801" 
d="M270 47q-17 -15 -52 -9.5t-63 24.5q-57 37 -35 72q17 26 168.5 228t171.5 247q-8 12 -57.5 69t-131.5 153.5t-151 182.5q-16 21 5.5 52t58 49.5t60.5 9.5q42 -16 146.5 -119.5t195 -225.5t90.5 -175q0 -44 -152.5 -250.5t-253.5 -307.5z" />
    <glyph glyph-name="question" unicode="?" horiz-adv-x="840" 
d="M340 342q-55 3 -73.5 11t-18.5 33q0 193 48 333.5t168 298.5q64 83 64 192q0 106 -22 153t-87 47h-15q-82 0 -105 -11t-23 -65q8 -178 8 -221q1 -25 -20.5 -36t-47.5 -11q-68 3 -92 12t-24 36q-2 71 -2.5 118t1.5 96t5.5 78.5t12 60t18.5 46.5t28.5 32.5t38 23t50 12.5
t62.5 7.5t78 1.5q324 0 324 -388q0 -83 -47.5 -175.5t-148.5 -232.5q-50 -69 -69 -166t-19 -245q0 -41 -92 -41zM368 -90q-74 0 -101 15t-27 69v100q0 27 25 39.5t82 12.5q50 0 70.5 -19.5t20.5 -77.5q0 -72 -14.5 -105.5t-55.5 -33.5z" />
    <glyph glyph-name="at" unicode="@" horiz-adv-x="1399" 
d="M720 -384q-256 0 -464 304q-160 223 -160 620q0 234 12.5 407t41.5 310.5t75 227.5t116 149.5t160 84.5t211 25q262 0 407 -153.5t145 -418.5q-9 -422 -20 -542q-22 -264 -96 -360q-62 -78 -172 -78q-57 0 -106.5 35.5t-73.5 84.5q-94 -38 -160.5 -24t-109 77
t-62.5 149.5t-20 193.5q0 177 45 285.5t143 162.5q83 29 188 12v43q0 24 60 21q44 -3 71.5 -18.5t24.5 -45.5q-40 -647 -40 -692q20 -56 52 -56q98 0 112 728q4 222 -95.5 323t-312.5 101q-68 0 -124 -18t-97.5 -46t-74 -79.5t-54 -100t-36.5 -127t-23.5 -141.5
t-12.5 -162.5t-5 -170.5t-1 -183q0 -125 29.5 -245.5t79 -216.5t119.5 -165t147 -98t165 -6.5t170 101.5q23 23 60 -7q65 -52 36 -116q-41 -74 -137 -124.5t-213 -50.5zM684 456q48 4 84 40q28 448 28 512q-87 12 -128 -30.5t-60 -147.5q-15 -103 7 -240.5t69 -133.5z" />
    <glyph glyph-name="A" unicode="A" horiz-adv-x="1052" 
d="M202 -32q-60 0 -60 16q-4 148 -4 248q0 50 3 120t6.5 122.5t14 203.5t16.5 246q2 32 6.5 104.5t6.5 97.5t6.5 69.5t10.5 71.5t14 52q52 154 176 211.5t352 57.5q124 0 124 -116q-8 -402 3.5 -739t48.5 -697q3 -18 -24.5 -31t-75.5 -13q-75 5 -76 24l-32 564
q-163 0 -400 -16q-5 -67 -7 -156.5t-2 -149.5t0.5 -152t0.5 -110q0 -12 -33 -20t-75 -8zM326 728q39 2 176.5 9.5t211.5 10.5q-8 168 -8 326q0 159 8 341q-103 -1 -175.5 -15t-124.5 -60q-9 -7 -15.5 -16t-12 -22t-9.5 -23.5t-7.5 -30t-5.5 -31t-4 -37.5l-3 -39l-3.5 -45.5
t-3.5 -47.5q0 -4 -8.5 -111.5t-15.5 -208.5z" />
    <glyph glyph-name="B" unicode="B" horiz-adv-x="937" 
d="M329 -6q-124 0 -160 3t-36 17q-17 1328 32 1520q0 21 71.5 32.5t172.5 11.5q173 0 262.5 -95.5t89.5 -268.5q0 -211 -152 -336q106 -61 156 -224q28 -93 28 -320q0 -89 -35.5 -155.5t-99.5 -106.5t-146.5 -59t-182.5 -19zM293 934q130 0 221 77t91 175q0 116 -34 159
t-142 53q-41 4 -120 -3zM293 150q172 -4 258.5 61t81.5 187q-4 84 -13.5 142.5t-31 109t-60 75.5t-95.5 25q-69 0 -148 -12q-4 -121 -4 -176q0 -194 12 -412z" />
    <glyph glyph-name="C" unicode="C" horiz-adv-x="1036" 
d="M619 -35q-263 0 -392 132q-62 63 -89 219t-27 417q0 611 144 748q59 56 152 76t224 20q276 0 276 -224q0 -52 -2.5 -83.5t-10.5 -60t-24 -42.5t-42 -22t-65 -8q-36 0 -36 20q0 60 8 196q0 56 -108 56q-251 0 -288 -96q-56 -149 -56 -424q0 -396 14.5 -524t77.5 -172
q43 -30 99.5 -45.5t87.5 -17t89 -1.5q43 3 59.5 13t16.5 35q0 93 -12 292q0 37 132 44q19 1 27.5 -30.5t12.5 -101.5l6 -84t4.5 -63.5t1.5 -28.5q0 -175 -128 -224q-11 -4 -19.5 -7t-19 -4.5t-16.5 -2.5t-20 -1.5t-20 -0.5h-26.5h-30.5z" />
    <glyph glyph-name="D" unicode="D" horiz-adv-x="905" 
d="M222 -31q-55 0 -66 33.5t-10 150.5v19v19v22q-16 725 -16 1148q0 148 20 168q24 24 82.5 32t197.5 8q76 0 132 -21.5t92 -59t59 -99.5t34.5 -130.5t17.5 -165.5q1 -21 2.5 -89t4.5 -217.5t6 -289.5q0 -241 -155.5 -384.5t-400.5 -143.5zM326 153q132 12 208 119.5
t76 260.5q-8 436 -19 567q-23 248 -93 292q-15 9 -32 11q-52 5 -100 3t-64 -8q14 -1245 24 -1245z" />
    <glyph glyph-name="E" unicode="E" horiz-adv-x="791" 
d="M179 4q-9 0 -14 5.5t-7 17.5t-2.5 20.5t-0.5 25.5v7v544q0 396 -48 884q-3 19 20 29.5t60 10.5h468q11 0 13.5 -22.5t2.5 -85.5q0 -48 -44 -48q-199 0 -344 -8q0 -30 24 -476l280 8q32 0 32 -88q0 -76 -48 -76l-260 -12q7 -371 16 -563q291 16 334 19q26 0 33 -21t7 -83
q0 -37 -15.5 -52.5t-60.5 -19.5q-266 -16 -446 -16z" />
    <glyph glyph-name="F" unicode="F" horiz-adv-x="870" 
d="M204 -42q-60 0 -60 48q0 6 -2 73t-5 195.5t-6.5 298.5t-7.5 427.5t-7 537.5q0 52 64 52q316 -37 584 -44q16 0 16 -72v-7q-4 -63 -13 -72q-8 -9 -49 -9h-10q-64 0 -428 28q5 -441 8 -524l428 -8q24 0 24 -52q0 -54 -15.5 -83t-40.5 -29q-103 0 -388 4q5 -124 9 -389.5
t7 -346.5q1 -9 -5 -14.5t-20.5 -8.5t-34 -4t-48.5 -1z" />
    <glyph glyph-name="G" unicode="G" horiz-adv-x="1052" 
d="M750 -24q-28 0 -87 -0.5t-80 0t-65 2t-63.5 5.5t-53 12t-55.5 19.5t-49.5 29t-54.5 40.5q-128 110 -128 500q0 347 35.5 550.5t120.5 337.5q40 63 133.5 85.5t242.5 22.5q55 0 89 -1t67 -8t50.5 -14.5t33.5 -28t22 -40t11.5 -60t6 -78t0.5 -102.5v-164q0 -40 -24 -50.5
t-104 -13.5q-44 0 -44 24q12 304 12 356q-82 11 -157.5 12t-142 -15.5t-80.5 -52.5q-112 -288 -112 -716q0 -366 112 -448q40 -29 244 -40q40 4 80 4l8 392q-177 20 -214 35q-9 5 -14 14.5t-5 18t0.5 22t0.5 18.5q6 76 36 76q294 -23 331 -34q17 -3 27.5 -55t13 -136.5
t3 -155t-1 -150t-1.5 -81.5q0 -132 -144 -132z" />
    <glyph glyph-name="H" unicode="H" horiz-adv-x="1097" 
d="M275 -41q-43 0 -56.5 14.5t-15.5 53.5q-7 202 -30 778t-30 758q0 17 21.5 30.5t62.5 17.5q88 10 88 -20q36 -559 36 -692q138 -13 372 -26l32 750q0 11 20 18.5t40 5.5q132 -11 132 -72q-1 -23 -8 -136t-11.5 -200.5t-10.5 -224.5t-9 -294.5t-3 -324.5q0 -197 22 -380
q4 -22 -20.5 -33t-75.5 -15q-50 -4 -69 33t-23 119q-16 321 -16 572l-372 24v-4q0 -141 16 -708q0 -20 -24 -32t-68 -12z" />
    <glyph glyph-name="I" unicode="I" horiz-adv-x="404" 
d="M207 0q-32 0 -52 8.5t-20 23.5q-35 826 -52 1480q0 25 13 35t51 13l56 4q23 0 35.5 -27.5t16.5 -100.5q17 -801 44 -1376q0 -32 -19.5 -46t-72.5 -14z" />
    <glyph glyph-name="J" unicode="J" horiz-adv-x="860" 
d="M308 -72q-137 -4 -178.5 36.5t-41.5 176.5v272q0 10 9.5 18.5t36 13.5t67.5 2q51 -3 51 -18q0 -23 8 -332q265 0 308 212q18 84 -8 856q0 285 52 380q10 19 60 19q95 -2 92 -31q-36 -253 -36 -396q0 -112 6 -273t6 -407q0 -265 -98.5 -393.5t-333.5 -135.5z" />
    <glyph glyph-name="K" unicode="K" horiz-adv-x="918" 
d="M732 -40q-11 0 -21 6.5t-23 24.5t-22.5 33t-30 50.5t-34.5 57.5q-16 27 -57 99t-85.5 151.5t-87.5 156.5t-73 126.5t-33 48.5q29 -487 29 -647q0 -38 -32.5 -55.5t-86.5 -14.5q-53 3 -53 41q0 79 -41 1462q0 62 119 62q23 0 36 -6.5t13 -14.5l16 -493q231 237 348 440
q27 47 46 65t37 13q57 -17 75 -44t11 -65q-14 -78 -137 -243.5t-277 -331.5q110 -188 206.5 -357.5t174 -309.5t94.5 -169q12 -22 -26 -54t-85 -32z" />
    <glyph glyph-name="L" unicode="L" horiz-adv-x="893" 
d="M173 -13q-32 -4 -32 108v704q-2 62 -10.5 235.5t-9.5 276.5q-1 0 -1 120l1 120q0 26 92 28q76 0 76 -44v-204q0 -46 11 -260.5t13 -387.5q1 -145 -1.5 -312.5t-2.5 -174.5q219 9 456 3q28 0 28 -84q0 -63 -17.5 -81.5t-78.5 -18.5q-338 0 -524 -28z" />
    <glyph glyph-name="M" unicode="M" horiz-adv-x="1162" 
d="M257 -34q-24 0 -31.5 44t-14.5 177q0 9 -0.5 13.5t-1 12t-0.5 13.5q-17 327 -92 1286q-3 37 16.5 47.5t67.5 10.5q50 0 72.5 -8t37.5 -37q141 -276 246 -451q66 109 124 202.5t88 140t56.5 87.5t29.5 46q11 20 43 24.5t42 -0.5q69 -14 69 -40q-31 -382 -26 -696
q4 -241 14.5 -497t15.5 -307q0 -24 -28 -38t-68 -14q-72 0 -72 64q-36 432 -36 800q0 124 4 288q-45 -89 -141 -224.5t-123 -135.5h-8q-26 0 -96 119q-1 2 -2 3t-2 3t-2 3.5t-2 3.5q-3 6 -39 61t-73 115q60 -848 72 -1076q1 -19 -41 -29.5t-99 -10.5z" />
    <glyph glyph-name="N" unicode="N" horiz-adv-x="926" 
d="M727 -65q-110 4 -123 64q-163 651 -312 1048q5 -161 6.5 -304t1 -227t-3.5 -262t-4 -291q0 -11 -17 -17.5t-35 -6.5q-59 0 -81.5 15t-22.5 58q-4 495 -4 1047q0 67 -2 177t-4 193.5t-2 85.5q0 56 96 56q19 0 33.5 -7.5t25.5 -24t17 -29.5t15 -38q158 -356 325 -949
q16 333 16 796v216q0 32 40 32q61 0 88.5 -14.5t27.5 -52.5q0 -675 -24 -1533q0 -34 -57 -32z" />
    <glyph glyph-name="O" unicode="O" horiz-adv-x="1032" 
d="M528 -49q-102 0 -177 36t-121 96t-74 153t-38 192t-10 227q0 326 35 550t101 278q56 45 101 72t89 37.5t68.5 12.5t73.5 2q77 0 135 -43.5t95 -118t60.5 -183.5t32.5 -229t9 -266q0 -113 -11.5 -222t-39.5 -218.5t-70.5 -191.5t-109 -133t-149.5 -51zM532 129
q50 0 91.5 84.5t66 210.5t37.5 257t13 238q0 95 -21 213.5t-63.5 212.5t-91.5 94q-124 0 -220 -100q-16 -17 -26.5 -57t-18.5 -128t-12 -158t-11 -225q-11 -111 -5.5 -225t22.5 -206.5t78 -151.5t161 -59z" />
    <glyph glyph-name="P" unicode="P" horiz-adv-x="905" 
d="M206 -21q-41 0 -60.5 15.5t-19.5 54.5v926q0 241 -4 536q0 22 21.5 31t74.5 17q90 16 177.5 10.5t159.5 -27.5t128 -74t83 -129q42 -121 46.5 -238t-29 -215t-98 -172.5t-165.5 -114.5t-226 -36v-518q0 -37 -20 -51.5t-64 -14.5h-4zM294 735q121 0 186 31t110 113
q65 120 48 288q-10 104 -62.5 161t-140.5 64q-86 6 -143 0q2 -145 2 -657z" />
    <glyph glyph-name="Q" unicode="Q" horiz-adv-x="1060" 
d="M834 -383q-29 -2 -56.5 12t-53.5 45.5t-41.5 54t-38.5 60.5q-65 108 -87 168h-71q-153 0 -256 144q-128 179 -128 580q0 390 55 576t205 272q83 48 212 48q99 0 145.5 -21.5t86.5 -98.5q63 -120 88.5 -303t25.5 -517q0 -432 -203 -619q77 -160 149 -249q8 -10 21 -24.5
t19 -22t11 -17t5 -16.5q0 -27 -22.5 -47.5t-65.5 -24.5zM502 125q-44 103 -44 152q0 24 12.5 35t36.5 17q18 9 41.5 0t43.5 -47q7 -14 23 -51.5t24 -51.5q115 137 115 390q0 359 -16 507q-37 332 -176 333q-62 0 -107 -18t-78 -63t-53.5 -108t-32.5 -166t-16.5 -223.5
t-4.5 -293.5q0 -109 22 -198.5t76 -151.5t134 -62z" />
    <glyph glyph-name="R" unicode="R" horiz-adv-x="958" 
d="M199 -49q-19 0 -31.5 13t-12.5 35l-2 960v488q0 80 58 91q49 9 146 9q326 0 412 -260q28 -86 28 -216q0 -117 -52.5 -206t-167.5 -174q65 -148 141.5 -343t110.5 -301q6 -20 -9 -40t-39 -31t-48 -14.5t-36 9.5q-15 15 -62 127.5t-118.5 296t-98.5 248.5l-94 -7
q-3 -90 -8.5 -331t-7.5 -305q-1 -49 -57 -49h-52zM317 813q131 -6 223.5 80t92.5 242q0 244 -312 244q-8 -173 -8 -348q0 -89 4 -218z" />
    <glyph glyph-name="S" unicode="S" horiz-adv-x="827" 
d="M355 -53q-112 0 -176 58.5t-64 161.5v28q0 44 0.5 64.5t2.5 51t7 44.5t13.5 29.5t22.5 21t34 5.5h28q21 0 38.5 -7t17.5 -21q0 -6 -4 -63.5t-4 -108.5q0 -35 27 -65.5t61 -30.5q61 0 110.5 29.5t77.5 86.5q28 56 28 256q0 34 -4.5 58t-19.5 44t-31 33t-52.5 28
t-69.5 25.5t-95 28.5q-85 25 -126 74.5t-53.5 143.5t-3.5 271q10 189 78.5 279.5t208.5 90.5q113 0 196.5 -55.5t95.5 -148.5q6 -37 6 -187q0 -61 -24 -81t-82 -20q-25 0 -44.5 9.5t-19.5 26.5q4 97 4 176q0 112 -140 112q-76 0 -100 -108q-7 -37 -12 -252q-3 -62 17 -96.5
t75 -55.5q42 -16 111.5 -31t116 -35t82.5 -62q10 -11 17.5 -23.5t13 -22t10 -24.5t7.5 -24t5 -27.5t3 -26t1.5 -30.5t0.5 -30.5v-35v-36.5q0 -338 -121 -431q-131 -97 -267 -97h-4z" />
    <glyph glyph-name="T" unicode="T" horiz-adv-x="949" 
d="M483 -13q-54 0 -75 11.5t-21 38.5q0 1095 1 1326l-287 -11q-38 0 -38 47q0 32 3 48.5t15.5 32t38.5 22t71 9.5q341 24 448 24q141 0 190.5 -9.5t49.5 -42.5q0 -62 -9 -83t-39 -21q-91 0 -278 -8q0 -8 1 -254t1 -574q0 -259 -8 -528q0 -13 -19 -20.5t-45 -7.5z" />
    <glyph glyph-name="U" unicode="U" horiz-adv-x="979" 
d="M552 -25q-132 0 -230 51.5t-138 160.5q-64 174 -64 456q0 96 16 636q0 67 -4 251q0 25 36 25h66q43 0 56.5 -41t13.5 -139l-16 -668q0 -253 25.5 -370t94.5 -158q57 -34 144 -28q28 2 48.5 15t35 40.5t23.5 57t15 81.5t9 95t7 114q10 209 10 533q0 231 -32 443
q-2 12 4.5 19.5t21 10t24.5 3t27 0.5h7q45 0 60.5 -27.5t27.5 -108.5q13 -87 16 -352q4 -214 0.5 -390.5t-15 -308t-40.5 -221t-76 -130.5q-58 -50 -173 -50z" />
    <glyph glyph-name="V" unicode="V" horiz-adv-x="969" 
d="M452 -10q-30 0 -56 85.5t-54 266.5q-58 374 -115.5 659t-97.5 421q-2 8 -6.5 22.5t-6.5 20t-5 16.5t-4 15.5t-2.5 12.5t-2 13.5t-1 12.5t-0.5 15q0 48 106 48q52 0 95.5 -147.5t92.5 -484.5q17 -117 52.5 -297.5t44.5 -248.5q53 256 101.5 512.5t74.5 401.5t33 172
q12 47 39 61.5t76 14.5q23 0 42 -16t16 -44q-9 -118 -240 -1224q-29 -141 -44.5 -196.5t-31.5 -83.5q-17 -28 -106 -28z" />
    <glyph glyph-name="W" unicode="W" horiz-adv-x="1170" 
d="M747 -42q-34 0 -53 21.5t-32 71.5l-106 356q-67 -293 -108 -384q-11 -22 -28.5 -31t-48.5 -9q-46 0 -70 23.5t-31 72.5q-78 557 -188 1472q-3 28 25.5 42t70.5 10q38 -4 57 -44t27 -128q4 -56 130 -1018l75 252q23 78 41 112t40 34h24q28 0 65.5 -100t96.5 -322l32 196
q49 261 124 929q4 30 25 44t54 12q50 -3 69.5 -26t15.5 -54q-61 -555 -119.5 -940.5t-88.5 -506.5q-13 -52 -31.5 -68.5t-67.5 -16.5z" />
    <glyph glyph-name="X" unicode="X" horiz-adv-x="893" 
d="M698 -58q-13 -7 -44.5 -6t-38.5 17q-14 35 -37 104.5t-42.5 132t-53.5 174t-53 171.5q-14 -51 -51 -189t-60 -216.5t-46 -139.5q-14 -30 -69 -24q-40 4 -60.5 18t-14.5 43q41 194 200 727q-102 365 -136 460q-16 45 -37 101t-30.5 82.5t-17 53.5t-7.5 43q0 36 108 44
q82 0 228 -540q133 431 208 540q15 17 35.5 17.5t55.5 -13.5q33 -12 38 -36t-9 -54q-106 -284 -222 -686l224 -744q8 -25 -10.5 -46t-57.5 -34z" />
    <glyph glyph-name="Y" unicode="Y" horiz-adv-x="840" 
d="M388 -30q-55 0 -73.5 10t-18.5 43q0 14 2.5 131.5t2.5 247.5q0 26 -1.5 83t-4.5 156.5t-5 190.5q-89 257 -248 640q-13 33 17.5 59.5t80.5 26.5q10 0 23 -7t20 -19q58 -105 124 -281q13 -35 35 -91t34 -90q99 218 236 432q28 40 72 40q41 0 71 -40t-1 -81
q-91 -133 -288 -535q4 -91 5.5 -195.5t1.5 -175.5t-0.5 -186t-0.5 -167q0 -85 -10 -127.5t-26 -53.5t-48 -11z" />
    <glyph glyph-name="Z" unicode="Z" horiz-adv-x="873" 
d="M643 -22q-182 0 -255.5 3t-179.5 15q-117 13 -117 82q0 62 13.5 138.5t32.5 148.5t57.5 175.5t69.5 181t88.5 205.5t95 209t107.5 230q-41 0 -156 -0.5t-206 -0.5q-46 0 -46 77q0 48 16.5 65.5t59.5 22.5q83 8 360 8q115 0 150.5 -10t33.5 -42q-4 -54 -83.5 -244
t-172.5 -392.5t-170.5 -406.5t-77.5 -285q162 -20 384 -20q36 0 52 -18t16 -66q0 -46 -18.5 -61t-53.5 -15z" />
    <glyph glyph-name="bracketleft" unicode="[" horiz-adv-x="693" 
d="M218 -198q-76 0 -76 44q0 158 -2 386t-2 318q8 598 36 967q3 27 44.5 40t95.5 13h212q44 0 44 -88t-48 -88q-41 0 -192 -4q-12 -212 -12 -552q0 -682 4 -856q153 4 185 4q31 0 39 -19t8 -81q0 -54 -59 -67.5t-220 -15.5q-37 -1 -57 -1z" />
    <glyph glyph-name="backslash" unicode="\" horiz-adv-x="928" 
d="M737 -162q-18 -1 -41 24.5t-50.5 78t-56 115.5t-62.5 154t-64.5 176t-67.5 198t-66 202.5t-65.5 208.5t-60.5 197t-56 185q-19 62 -34.5 113t-22 71.5t-7.5 23.5q-8 30 14 47t78 21q48 3 71 -5t32 -40q15 -47 57 -178t66.5 -208.5t59 -192t58.5 -206.5
q13 -50 49.5 -156.5t80.5 -229t84.5 -232t72.5 -195.5t33 -88q10 -28 -18 -54t-84 -30z" />
    <glyph glyph-name="bracketright" unicode="]" horiz-adv-x="579" 
d="M382 -198q-20 0 -57 1q-161 2 -220 15.5t-59 67.5q0 62 8 81t39 19q32 0 185 -4q4 174 4 856q0 340 -12 552q-151 4 -192 4q-48 0 -48 88t44 88h212q29 0 48.5 -1.5t42 -6t35 -16t14.5 -29.5q8 -208 20 -751.5t12 -919.5q0 -44 -76 -44z" />
    <glyph glyph-name="asciicircum" unicode="^" horiz-adv-x="983" 
d="M272 1178q-35 16 -54 36t-18.5 37.5t8.5 32.5q221 303 240 319q27 16 61 11q32 -5 163.5 -151.5t135.5 -174.5q5 -37 -28 -70.5t-65 -26.5q-12 3 -40.5 32.5t-81 89t-88.5 96.5q-153 -191 -184 -222q-20 -22 -49 -9z" />
    <glyph glyph-name="underscore" unicode="_" horiz-adv-x="1048" 
d="M387 -285q-25 0 -61 0.5t-55.5 0.5t-47.5 1t-42.5 3t-33.5 6.5t-28.5 11t-19 16t-13 23t-3.5 30.5q0 96 40 96q3 0 36.5 -2t96 -4t135.5 -2q175 0 342.5 2t172.5 2q26 1 35.5 -17t9.5 -43q0 -120 -60 -120h-284q-23 0 -97.5 -2.5t-122.5 -1.5z" />
    <glyph glyph-name="grave" unicode="`" horiz-adv-x="579" 
d="M457 1697q-41 0 -213 94.5t-189 119.5q-9 14 3.5 49.5t37.5 61t46 15.5q80 -38 221 -112.5t143 -75.5q17 -10 18.5 -35.5t-8 -51t-26 -45.5t-33.5 -20z" />
    <glyph glyph-name="a" unicode="a" horiz-adv-x="872" 
d="M148 -62q-33 0 -44 56l-8 1120q0 78 100 148q174 80 352 80h56q152 0 152 -160q24 -160 24 -420q-16 -732 -28 -732q-29 -32 -80 -32h-52q-44 0 -44 36q13 203 24 448l-328 20q0 -91 4 -480q4 -31 4 -44q0 -40 -132 -40zM616 650l8 288q3 114 -21 173t-71 59q-19 4 -40 4
q-102 0 -204 -60q-28 -31 -28 -112l12 -336z" />
    <glyph glyph-name="b" unicode="b" horiz-adv-x="710" 
d="M117 -63q-21 0 -32.5 13.5t-11.5 50.5v620q0 158 16 622q1 43 31 59t117 25q100 11 165.5 -2.5t100.5 -43.5t62 -84q37 -73 42.5 -169.5t-27 -193t-100.5 -155.5q69 -43 105 -113.5t36 -184.5q0 -99 -21.5 -179t-78 -145t-144.5 -88q-121 -32 -260 -32zM229 729
q228 32 228 264q0 94 -26 134.5t-93 45.5q-59 5 -105 -12q-12 -287 -4 -432zM233 105q118 0 177 77.5t59 226.5q0 63 -41 108.5t-103 43.5q-52 -1 -84 -12z" />
    <glyph glyph-name="c" unicode="c" horiz-adv-x="660" 
d="M379 -80q-124 0 -212.5 56.5t-88.5 160.5q-4 396 -4 600q0 423 88 532q38 48 192 48h16q132 0 160.5 -17t43.5 -111q16 -101 16 -272q0 -26 -27 -35.5t-93 -12.5q-41 0 -44 120q-2 87 -16 156h-60q-105 0 -108 -160q-10 -536 -12 -768q0 -54 48 -87t126 -33q19 0 30.5 53
t11.5 139q0 28 11 39t36 13q61 -6 81 -20.5t20 -63.5q6 -171 -41 -254t-174 -83z" />
    <glyph glyph-name="d" unicode="d" horiz-adv-x="783" 
d="M223 -69q-104 0 -104 60v4q0 545 -4 1224q0 33 17.5 55t52 32t70.5 13.5t88 3.5q109 0 177.5 -47.5t106.5 -156.5q70 -202 70 -510q0 -474 -134 -602q-48 -46 -130.5 -61t-209.5 -15zM274 95q61 0 102.5 10t70.5 41t44.5 62t25 102t12.5 128.5t6 172.5q0 128 -5.5 214.5
t-19 152.5t-37 102t-58 53.5t-84.5 17.5q-33 0 -69 -8q12 -381 12 -588v-460z" />
    <glyph glyph-name="e" unicode="e" horiz-adv-x="738" 
d="M196 -37q-49 0 -68.5 8.5t-19.5 35.5q-21 365 -16 624q6 319 15.5 480t35.5 183q22 19 103 24t275 2q48 0 63.5 -16.5t15.5 -73.5q0 -63 -20 -77t-100 -14q-70 0 -192 -12q0 -195 -4 -356l264 20q31 3 37.5 -17.5t6.5 -78.5q0 -43 -11 -57t-49 -19q-18 -3 -256 -20
l8 -448q66 5 324 16q23 0 31.5 -19t8.5 -61q0 -58 -14 -76t-54 -20z" />
    <glyph glyph-name="f" unicode="f" horiz-adv-x="734" 
d="M216 -32q-52 -1 -69.5 19.5t-17.5 68.5q0 440 -5 628t-27 604q0 23 31 37.5t89 14.5q162 0 379 -29q28 -4 34.5 -22.5t6.5 -69.5q0 -83 -41 -83q-9 0 -54 3t-113.5 6t-132.5 3l8 -362q181 2 253 -3q21 -2 28.5 -20t7.5 -69q0 -85 -31 -85l-249 -11q4 -293 4 -542
q0 -58 -17.5 -72t-83.5 -16z" />
    <glyph glyph-name="g" unicode="g" horiz-adv-x="795" 
d="M616 -23q-39 -17 -94 -26t-116.5 -5.5t-117 19t-99.5 52.5t-61 91q-16 52 -21 115.5t-11 297.5q0 326 22 505.5t78 254.5q26 35 71.5 47.5t148.5 12.5q115 0 187.5 -38.5t72.5 -125.5v-232q0 -33 -22.5 -46.5t-69.5 -13.5q-84 0 -84 60q4 161 4 223q-42 8 -109 8
q-54 0 -83.5 -33t-39.5 -102q-14 -104 -16 -397t11 -399q9 -73 27.5 -95t73.5 -29q29 -4 83 2t77 14l12 264q-82 -9 -115 -2.5t-33 46.5v24q0 53 15.5 77t56.5 27q142 11 185 0q42 -12 43 -42v-162q0 -218 -12.5 -297t-63.5 -95z" />
    <glyph glyph-name="h" unicode="h" horiz-adv-x="824" 
d="M160 -81q-30 0 -47 8.5t-17 34.5q-12 749 -12 1257q0 60 16 76.5t80 19.5q63 0 79.5 -10.5t15.5 -49.5q-3 -192 -3 -496l236 12q13 361 22 505q0 32 23 41.5t63 9.5q93 0 93 -57q-2 -56 -7 -165.5t-8 -196t-2 -165.5q2 -201 40 -693q0 -45 -31 -60t-85 -15
q-36 0 -52 17.5t-24 58.5q-20 168 -36 540l-228 -16q0 -484 12 -592q0 -31 -35.5 -47.5t-92.5 -16.5z" />
    <glyph glyph-name="i" unicode="i" horiz-adv-x="440" 
d="M181 -41q-84 0 -84 36q0 56 20 878q0 77 0.5 119t-2.5 91.5t-4.5 68.5t-5 50t-4.5 36q-2 34 15 47.5t53 13.5h52q52 0 67 -90q10 -61 9 -285v-51q0 -21 -8 -306.5t-8 -535.5q0 -60 -100 -72z" />
    <glyph glyph-name="j" unicode="j" horiz-adv-x="733" 
d="M352 -86q-143 0 -208.5 61.5t-65.5 198.5t21 182.5t87 45.5q43 0 65.5 -12t17.5 -41q-15 -98 -17 -135q-4 -65 15 -90.5t73 -25.5q20 0 35.5 10t26.5 33t19 46t13 65t8 73t4 86.5t1.5 90t0.5 96.5q0 619 -4 680q0 56 80 56q70 0 89 -9.5t19 -54.5q0 -128 2 -307.5
t2 -192.5q1 -178 -3 -301t-16 -223t-32 -160t-53 -100.5t-76 -56t-104 -15.5z" />
    <glyph glyph-name="k" unicode="k" horiz-adv-x="889" 
d="M189 -40q-37 0 -56 18t-19 62q-5 69 -12 372q-2 82 5 312.5t6 299.5q-1 45 -4 85t-5 58t-7 49.5t-6 37.5q-7 33 26.5 46t92.5 8q51 -4 69.5 -89t18.5 -231q0 -90 -8 -204q101 167 314 473q23 35 44 50.5t35 14t31 -1.5q62 -7 83 -61q10 -27 -56 -113q-218 -323 -316 -486
q107 -230 224 -403q101 -149 110 -193q7 -32 -23.5 -60t-73.5 -28q-77 0 -218 252q-25 46 -158 320q-4 -128 -2 -212q4 -216 14 -322q3 -34 -21 -44t-88 -10z" />
    <glyph glyph-name="l" unicode="l" horiz-adv-x="723" 
d="M213 -38q-149 0 -144 60q19 257 60 1276q2 26 33.5 37t106.5 11q47 0 44 -44q-6 -100 -21 -494.5t-31 -665.5h290q90 0 96 -34q4 -26 4 -86q0 -34 -22.5 -47t-73.5 -13h-342z" />
    <glyph glyph-name="m" unicode="m" horiz-adv-x="999" 
d="M779 -54q-22 -1 -38.5 12t-27 41t-17 58.5t-9 77t-3.5 82t-1 87.5q0 72 8 590q-20 -41 -46 -100.5t-41.5 -93.5t-34.5 -69.5t-35.5 -51.5t-33.5 -16q-61 0 -100 64t-126 286q12 -207 23.5 -426t17.5 -325.5t10 -154.5q0 -50 -110 -50q-60 0 -65 61q-53 589 -53 1192
q0 50 19.5 78.5t79.5 41.5q20 4 37 -2t35 -28t32.5 -46t36.5 -73t39.5 -90.5t49 -117t57.5 -134.5q48 106 86.5 201.5t66.5 168.5t33 86q7 17 17.5 27.5t27.5 14.5t26 4.5t31 0.5q105 0 105 -73q0 -25 -5 -142.5t-9.5 -310.5t-4.5 -402q0 -53 2.5 -112.5t5.5 -100
t8.5 -108.5t7.5 -102q3 -39 -102 -45z" />
    <glyph glyph-name="n" unicode="n" horiz-adv-x="938" 
d="M213 -52q-92 0 -92 52q-28 1233 -28 1320q0 15 19.5 23.5t48.5 8.5q47 0 65 -2t34 -14t27 -40q10 -27 58 -226q16 -67 49 -146t59.5 -130.5t79.5 -147.5q59 -103 125 -252q-27 291 -9 906q0 32 20 42t72 10q48 0 71.5 -12.5t21.5 -49.5q-21 -496 7 -1262q0 -30 -38 -47
t-89 -17q-62 0 -101 104q-136 294 -256 504l-87 181l33 -753q0 -52 -90 -52z" />
    <glyph glyph-name="o" unicode="o" horiz-adv-x="722" 
d="M296 -56q-163 0 -216 392q-20 168 -20 416q0 106 6.5 185t24.5 154.5t49 124.5t82.5 80.5t121.5 35.5q59 4 105.5 -24.5t77 -82.5t51 -121t31 -150t14 -159.5t1.5 -158.5q-4 -237 -15 -323q-24 -201 -109 -297q-39 -44 -87 -58t-117 -14zM324 120q71 0 98.5 136t37.5 488
q0 65 -6 129.5t-20 128.5t-41.5 104t-64.5 40q-38 0 -64.5 -76t-37 -177t-10.5 -213q0 -180 15 -309.5t39 -190t54 -60.5z" />
    <glyph glyph-name="p" unicode="p" horiz-adv-x="706" 
d="M223 -69q-40 0 -57.5 15.5t-22.5 56.5q-42 433 -60 1012q0 166 7 235.5t29 80.5q54 22 155 4.5t161 -52.5q194 -112 194 -434q0 -51 -11 -98t-31.5 -83.5t-44.5 -68.5t-54 -56.5t-57 -43.5t-56.5 -33.5t-48 -22.5t-36.5 -15l-19 -7q3 -139 40 -446q1 -23 -25 -33.5
t-63 -10.5zM258 610q64 20 105.5 49.5t77.5 80.5q38 61 28.5 168.5t-49.5 161.5q-40 52 -80.5 68.5t-95.5 16.5q-4 -73 -4 -153q0 -146 18 -392z" />
    <glyph glyph-name="q" unicode="q" horiz-adv-x="799" 
d="M671 -277q-26 4 -50.5 21t-42 35.5t-39.5 56t-34 61.5t-36 73q-85 -57 -186.5 -32.5t-131.5 110.5q-84 232 -84 640q0 240 44 386.5t136 229.5q49 45 99.5 62.5t116.5 17.5q65 0 113.5 -48.5t76 -122t44.5 -177t22.5 -195.5t5.5 -197q0 -308 -130 -540q16 -41 92.5 -163
t79.5 -134q6 -27 -29 -58.5t-67 -25.5zM343 118q20 0 41 19q-32 61 -35 82q-5 32 22.5 60t67.5 26q28 -1 64 -41q61 155 61 398q-1 69 -3.5 122.5t-8 119t-16 113t-25.5 89.5t-38.5 64t-53.5 22q-58 0 -99.5 -50t-62.5 -135.5t-29.5 -174.5t-8.5 -192q13 -268 42.5 -395
t81.5 -127z" />
    <glyph glyph-name="r" unicode="r" horiz-adv-x="754" 
d="M201 -75q-39 0 -56.5 10.5t-19.5 37.5q-41 618 -60 1312q0 37 8.5 53t31.5 19q113 12 192 12q103 0 177.5 -55t110.5 -146.5t36 -206.5q0 -225 -156 -352q18 -49 53 -134t89 -211t85 -201q12 -28 -2.5 -53.5t-40 -37t-51.5 -14.5t-38 14q-24 30 -114.5 232t-140.5 333
l-56 -7l36 -562q0 -43 -84 -43zM237 709q108 7 168 73.5t60 194.5q0 122 -58 178.5t-182 41.5q-7 -223 12 -488z" />
    <glyph glyph-name="s" unicode="s" horiz-adv-x="697" 
d="M356 -63q-148 -5 -215.5 95.5t-63.5 329.5q2 66 23 87.5t84 20.5q31 -1 48 -17t18 -42q-1 -56 0.5 -94t9.5 -77.5t22.5 -62.5t41.5 -36.5t65 -12.5q36 1 47 31t13 106q2 112 -33 190t-86 123q-51 44 -78 69.5t-61.5 65t-52 73t-31 79.5t-15.5 99q-4 81 0 142.5t16.5 106
t42.5 74.5t79 47t124 25q48 5 86 -2.5t64.5 -22.5t46.5 -45t32 -58t21.5 -75t14 -81.5t9.5 -91.5q5 -47 -13.5 -72t-55.5 -27q-51 -1 -75 10.5t-29 38.5q-10 134 -17 165q-17 77 -68 77q-9 -1 -20 -3q-99 -23 -90 -132q5 -56 15.5 -94t42 -80.5t60.5 -71.5t99 -95
q61 -57 97.5 -142t46 -158.5t3.5 -142.5q-9 -118 -29 -172q-55 -147 -235 -147h-4z" />
    <glyph glyph-name="t" unicode="t" horiz-adv-x="848" 
d="M411 -46q-59 1 -78.5 10t-19.5 36q0 1 1.5 125t1.5 188q0 41 -3 224t-3 217q0 167 17 407l-232 -17q-40 0 -40 50v75q0 47 34 51q322 24 571 24h44.5t34 -1.5t28.5 -4.5t17 -9t12 -14.5t3 -21.5v-60q0 -51 -43 -51l-243 -12q-15 -280 -15 -450q0 -35 2.5 -184.5
t2.5 -185.5q0 -238 -6 -364q-1 -32 -86 -32z" />
    <glyph glyph-name="u" unicode="u" horiz-adv-x="769" 
d="M346 -27q-149 0 -205 97q-44 77 -53 270q-2 45 -4 149q-2 74 -3 114q-5 173 6.5 385.5t27.5 292.5q3 17 13.5 25t20 10t32.5 3q48 3 80 -10.5t32 -37.5q-28 -413 -28 -536q0 -279 6 -358q18 -213 94 -214q32 0 52.5 6.5t36.5 28.5t24.5 51.5t14 88t7 126t1.5 175.5
q0 68 -8 601q0 28 23 35.5t97 7.5q34 0 49.5 -19.5t18.5 -86.5q8 -445 8 -502v-46q0 -110 -0.5 -160.5t-4.5 -132t-12.5 -116.5t-25 -87.5t-41 -73.5t-61 -45.5t-85.5 -32.5t-113 -8z" />
    <glyph glyph-name="v" unicode="v" horiz-adv-x="816" 
d="M405 8q-23 0 -39 2.5t-31 13t-25 22t-21 38.5t-18 54t-17 77t-18 98t-20 127q-18 118 -42.5 249.5t-61 314.5t-56.5 288q-7 30 31.5 49t100.5 19q8 0 14.5 -1t11.5 -3.5t8 -5.5t6 -9.5t4.5 -12t4 -17t3.5 -20.5t4 -26t5 -31q87 -484 155 -898l163 997q4 27 70 19
q56 -7 78 -21.5t17 -38.5q-132 -788 -228 -1212q-11 -38 -33 -55t-66 -17z" />
    <glyph glyph-name="w" unicode="w" horiz-adv-x="1101" 
d="M753 -51q-12 -3 -28.5 -5t-38 0t-31.5 11q-14 13 -51 123.5t-65 230.5q-20 -54 -47 -133t-44.5 -126t-31.5 -73q-12 -21 -54 -24t-61 2q-34 3 -47 24t-23 78q-101 635 -160 1277q-2 22 14 28.5t74 6.5q31 0 55.5 -16.5t28.5 -47.5q32 -271 63.5 -529t45 -366.5
t13.5 -116.5q83 269 135 404q8 20 47 20q16 0 26.5 -11t14.5 -22t13 -42q21 -68 67.5 -197t54.5 -155q53 218 94 518t51 506q0 31 9 44.5t28 15.5t48 0q15 -1 25 -2t18 -5t13 -6t8.5 -10t5 -13t2.5 -19.5t0.5 -23.5t-0.5 -31.5v-37.5q0 -175 -35.5 -439t-102.5 -534
q-43 -174 -67.5 -234t-66.5 -70z" />
    <glyph glyph-name="x" unicode="x" horiz-adv-x="775" 
d="M225 -62q-6 -13 -32 -14t-53.5 7.5t-49 25.5t-18.5 35q2 15 15.5 60.5t35 120.5t38.5 141q53 192 92 304q-67 276 -114 424l-74 236q-11 38 12.5 63t99.5 25q34 0 71.5 -106.5t120.5 -437.5q23 62 58.5 157t54.5 146.5t41 107t37 87.5q19 41 61 38q39 -3 58.5 -22
t13.5 -42q-21 -71 -88 -240q-76 -211 -148 -428q55 -172 220 -584q10 -20 -17 -48.5t-58.5 -39t-48.5 3.5q-32 41 -100 200q-45 113 -92 272q-78 -333 -136 -492z" />
    <glyph glyph-name="y" unicode="y" horiz-adv-x="730" 
d="M276 -80q-40 0 -61.5 9.5t-20.5 29.5q25 668 25 679q-7 29 -95 336t-93 353q-2 26 21 42t80 20q32 2 45.5 -9t29.5 -55q79 -269 120 -447q177 459 190 487q16 38 43 41.5t73 -28.5q47 -33 34 -77q-78 -238 -248 -657q-33 -661 -33 -664q-4 -42 -22 -51t-73 -9h-15z" />
    <glyph glyph-name="z" unicode="z" horiz-adv-x="759" 
d="M201 -42q-72 0 -102.5 18t-17.5 74q40 185 116 444q44 148 87.5 281t84.5 249.5t48 137.5h-260q-51 0 -71.5 14.5t-20.5 45.5q0 58 14.5 85t50.5 27h355q136 0 136 -96q0 -15 -5 -38t-18 -61.5t-25.5 -74.5t-36.5 -103.5t-43 -122.5q-46 -134 -216 -708q205 16 326 16
q25 1 33.5 -12.5t8.5 -35.5q0 -64 -11.5 -94.5t-37.5 -29.5q-313 -16 -395 -16z" />
    <glyph glyph-name="braceleft" unicode="{" horiz-adv-x="656" 
d="M393 -276q-56 0 -94 29t-66 87q-26 52 -31 140.5t-5 366.5v27v25.5v28.5q0 102 -116 152q-27 14 -27 52q0 17 2.5 27.5t4 13t8.5 11.5q37 31 58.5 50t41 43.5t27.5 40t14.5 45.5t6.5 52.5t-1.5 69t-5.5 87.5t-9 115t-8 145q0 96 50 166t142 78q130 11 171 -5.5t41 -86.5
q0 -46 -22 -59t-98 -13q-49 0 -72.5 -18t-23.5 -62q19 -440 20 -480q1 -89 -96 -208q80 -85 80 -180q-4 -305 -4 -424q0 -144 48 -144h96q48 0 62.5 -17.5t13.5 -74.5q-3 -76 -53 -76q-34 0 -155 -4z" />
    <glyph glyph-name="bar" unicode="|" horiz-adv-x="485" 
d="M242 -243q-60 0 -68 50q-18 138 -26 524q-13 605 -13 1240q0 67 57 67q66 0 84.5 -16t18.5 -69q0 -226 10.5 -645.5t21 -750t10.5 -340.5q0 -32 -20 -46t-75 -14z" />
    <glyph glyph-name="braceright" unicode="}" horiz-adv-x="714" 
d="M341 -265q-83 -12 -130.5 -7.5t-65.5 29t-19 81.5q-1 45 20.5 58.5t97.5 15.5q49 2 71.5 20.5t21.5 61.5q-34 411 -37 469q-4 87 89 208q-85 80 -86 174q-4 246 -11 415q-3 70 -16 105.5t-37 34.5l-96 -4q-46 -1 -62.5 20t-16.5 78q0 76 50 76q10 0 28 1t54.5 3.5
t72.5 4.5q104 5 164 -108q8 -15 13.5 -32.5t10 -34.5t7.5 -48t5.5 -56.5t5 -75.5t4 -89t4.5 -114.5t6 -134.5q4 -88 101 -145q26 -11 29 -50q2 -32 -11 -48q0 -1 -0.5 -1.5l-1.5 -1.5q-28 -25 -46 -42.5t-32.5 -40t-21.5 -38t-11.5 -46.5t-4 -54t3.5 -71.5t7 -88
t11.5 -115.5t12.5 -143q3 -97 -45.5 -176t-138.5 -90z" />
    <glyph glyph-name="asciitilde" unicode="~" horiz-adv-x="1068" 
d="M674 398q-65 -2 -123 39t-126 126q-32 40 -69.5 -1t-80.5 -134q-8 -19 -44 -24.5t-56 -0.5q-79 17 -68 68q103 312 290 302q40 -2 77 -22t64 -47.5t49.5 -54.5t42.5 -46.5t34 -20.5q43 -3 70.5 17t37 48t24.5 64t33 53q22 16 55.5 10.5t64 -29t30.5 -48.5q0 -33 -24 -96
t-59 -104q-38 -44 -104.5 -70.5t-117.5 -28.5z" />
    <glyph glyph-name="exclamdown" unicode="&#xa1;" horiz-adv-x="485" 
d="M230 1092q-32 0 -52.5 21t-20.5 59v88q0 56 92 56q51 0 75.5 -22.5t24.5 -73.5q0 -77 -21 -102.5t-98 -25.5zM237 -340q-57 0 -62 36q-4 32 -11 387.5t-7 532.5q0 87 -4 236q0 22 17.5 33t42.5 11h84q44 0 44 -44q0 -76 2 -462.5t2 -697.5q0 -32 -108 -32z" />
    <glyph glyph-name="cent" unicode="&#xa2;" horiz-adv-x="879" 
d="M391 -232q-54 0 -62.5 32t7.5 106l3 18q-173 21 -219 104q-9 16 -14 31.5t-8.5 42t-4.5 50.5t-0.5 73.5t1.5 93.5t2.5 128t2.5 161q3 249 15.5 369t52.5 167q33 40 228 64q15 172 64 172q47 -4 70 -18.5t22 -41.5q-1 -36 -6.5 -63.5t-5.5 -44.5h104q78 0 104 -91
q16 -56 22 -222q1 -29 2 -43q0 -60 -112 -60q-40 0 -40 72q0 75 -8 193q-34 11 -96 3q-4 -118 -16 -664q-1 -38 -1.5 -152.5t-2.5 -190.5l127 -8q17 184 17 198q4 34 45 34q43 -1 70 -35q17 -20 17 -46q0 -158 -22.5 -227t-89.5 -69q-23 0 -172 8q-12 -82 -31 -113t-65 -31z
M360 72q9 234 15 984q-47 0 -70 -16.5t-36 -72t-18 -171.5q-15 -390 -12 -644q0 -32 30.5 -49.5t90.5 -30.5z" />
    <glyph glyph-name="sterling" unicode="&#xa3;" horiz-adv-x="922" 
d="M228 -15q-57 0 -86.5 23.5t-29.5 80.5q0 90 81 312q39 105 39 180h-139q-28 0 -34 40t7.5 81t33.5 45q3 1 145 10q-53 354 -53 492q0 151 87 239.5t233 88.5q148 0 228 -77t80 -223q0 -159 -26 -219.5t-94 -60.5q-40 0 -61.5 11.5t-18.5 32.5q1 4 6.5 31.5t9.5 51.5
t7 66.5t1 86.5q-2 64 -30.5 94t-94.5 30q-80 0 -110.5 -39.5t-32.5 -140.5q0 -10 6 -65t19 -167.5t23 -219.5q91 0 208 -4q27 0 37.5 -17t10.5 -51q0 -92 -34 -92q-10 0 -226 -8q0 -51 -26 -141.5t-56.5 -179.5t-35.5 -119h434q55 0 52 -44q-9 -128 -64 -128h-496z" />
    <glyph glyph-name="currency" unicode="&#xa4;" horiz-adv-x="1191" 
d="M1020 -88q-74 0 -204 136q-77 -74 -119.5 -91t-140.5 -17q-36 0 -67 5t-53.5 12t-42.5 18.5t-32 21t-23 23t-16 21.5t-11 19t-7 12q-128 -128 -176 -128q-30 0 -53 30t-23 74q0 10 3 19.5t12.5 22t18 23t28 29t34 31.5t44.5 40.5t51 46.5q-21 178 -19.5 337.5t16 274.5
t37.5 180q-125 125 -133 140q-12 18 6.5 50t48 53.5t45.5 12.5q10 -6 21.5 -14.5t21 -17t34 -30.5t47.5 -42q67 112 256 112q97 0 151.5 -27t112.5 -105q105 93 144 108q13 5 31 -11t30 -40t17.5 -47.5t-6.5 -33.5l-164 -148q17 -150 1.5 -395.5t-49.5 -392.5
q42 -39 148 -120q30 -20 39 -33.5t9 -38.5q0 -48 -18 -84t-50 -36zM576 116q107 0 144 144q40 161 40 692q0 40 -4.5 68.5t-16.5 56.5t-38 44t-65 19q-44 3 -80 -16.5t-59 -55.5t-40 -85t-25 -104.5t-13.5 -114t-5 -114t0.5 -103.5q2 -96 6.5 -165t14 -117t21 -77t30.5 -45
t39.5 -21.5t50.5 -5.5z" />
    <glyph glyph-name="yen" unicode="&#xa5;" horiz-adv-x="888" 
d="M429 -19q-71 1 -84 9q-6 4 -7 11q-1 31 -0.5 45t3.5 97.5t5 149.5h-130q-47 0 -66.5 25.5t-19.5 78.5q0 37 20.5 54.5t69.5 17.5h122q-4 105 -4 136q-77 -4 -122 -4q-55 0 -78.5 25.5t-23.5 78.5v4q0 37 21.5 54.5t72.5 17.5h122q0 110 -88 340q-124 351 -124 380
q0 24 26.5 52t49.5 28q26 0 60 -74.5t64 -173.5q80 -240 80 -264q16 24 168 324q41 81 80 122.5t68 41.5q37 -4 50.5 -16t13.5 -44q0 -6 -3.5 -15.5t-11 -23.5t-16 -28t-23 -38.5t-26.5 -46.5q-130 -233 -220 -436q4 -63 12 -124q129 0 140 1q35 0 51.5 -24t16.5 -81
q0 -72 -104 -72h-96q4 -113 4 -140q32 0 81 2t61 2q39 0 52 -23.5t18 -84.5q0 -68 -128 -68h-80v-136q0 -95 -16.5 -137.5t-60.5 -42.5z" />
    <glyph glyph-name="brokenbar" unicode="&#xa6;" horiz-adv-x="469" 
d="M215 783q-45 0 -62 29.5t-22 110.5q-8 128 -8 204q0 209 56 268q10 10 37.5 17t54.5 7q37 0 51 -11t9 -37q-24 -161 -24 -260q0 -108 20 -280q6 -48 -112 -48zM223 11q-47 0 -67.5 19.5t-20.5 68.5v292q0 130 23 185t77 55q49 0 74.5 -13t21.5 -39q-16 -144 -16 -288
v-224q0 -56 -92 -56z" />
    <glyph glyph-name="section" unicode="&#xa7;" horiz-adv-x="1040" 
d="M544 -273q-239 0 -337.5 81t-98.5 255q0 68 25.5 99.5t82.5 32.5q47 1 65.5 -18t18.5 -70q0 -106 48.5 -143t171.5 -37q59 0 88.5 4t50.5 21t27.5 45t9.5 82q6 128 -16 170t-112 50q-99 9 -166.5 21t-133 36t-104 60t-61.5 92.5t-23 134.5q0 109 20.5 164.5t79.5 99.5
q-52 62 -52 160q0 134 23.5 213t84.5 147q112 116 372 116q160 0 232.5 -68t75.5 -220q3 -180 -72 -180q-70 0 -95 8.5t-25 35.5v172q0 76 -136 76q-153 0 -212.5 -62.5t-59.5 -221.5q0 -57 36 -84.5t128 -47.5q59 -13 101 -23.5t90.5 -26.5t82 -33t66.5 -41t52.5 -51.5
t31.5 -64.5t12 -80q0 -165 -72 -252q26 -41 35 -80.5t9 -103.5q0 -104 -9.5 -177t-32 -131t-62 -91.5t-98.5 -51t-142 -17.5zM688 467q44 59 44 140q0 72 -78.5 111.5t-295.5 80.5q-40 -12 -65 -41t-25 -71q0 -32 2 -53t11 -41t20 -32.5t36.5 -25t52 -20t75 -16.5t97 -15.5
t126.5 -16.5z" />
    <glyph glyph-name="dieresis" unicode="&#xa8;" horiz-adv-x="700" 
d="M156 1666q-76 0 -76 44v144q0 65 80 64h48q22 0 39 -16t17 -44q0 -10 -0.5 -28.5t-1.5 -52.5t-2 -67q-1 -24 -20 -33t-68 -11h-16zM532 1654q-104 0 -104 60v128q0 35 19.5 53.5t52.5 18.5h24q41 0 63 -12.5t21 -51.5q0 -66 0.5 -104.5t-9.5 -59t-24 -26.5t-43 -6z" />
    <glyph glyph-name="copyright" unicode="&#xa9;" horiz-adv-x="1257" 
d="M624 -126q-80 0 -146 12.5t-118.5 35t-93.5 59.5t-70.5 80.5t-51 104.5t-35.5 124t-21.5 146.5t-10.5 165t-3 185.5q0 129 7 229t24.5 192.5t46.5 158.5t73.5 121t106.5 88.5t144 51.5t187 18q121 0 205.5 -16t150.5 -59t105 -108t63 -172.5t31.5 -243.5t3.5 -330
q-3 -155 -14.5 -268t-38 -212t-69.5 -163.5t-108.5 -111.5t-156 -67.5t-211.5 -20.5zM633 38q68 0 124 13.5t97.5 34t74 60t54.5 76.5t37 99t23 112.5t12.5 131t5.5 141t1 156.5q0 149 -14 252.5t-44 177.5t-83.5 115t-127 58t-178.5 13q-59 -2 -102 -13.5t-84.5 -39.5
t-70.5 -77t-54 -124.5t-41 -183t-25 -250.5q0 -82 2 -145t7 -131t14 -119t24 -103t36 -89t51 -70t67.5 -52.5t86 -31t107.5 -11.5zM664 195q-182 0 -228 141q-62 192 -62 468q4 116 19.5 200t49.5 152.5t95 103.5t149 35q211 0 211 -227q0 -60 -15.5 -82.5t-68.5 -21.5
q-70 1 -72 120q-4 33 -56 33q-48 0 -82 -47.5t-47.5 -111t-14.5 -132.5q-4 -73 0 -156.5t13 -154.5t42 -114.5t86 -36.5q13 2 25.5 35.5t21 72.5t9.5 41q11 22 43 22q45 0 73 -17t23 -41q-32 -166 -74.5 -224t-139.5 -58z" />
    <glyph glyph-name="ordfeminine" unicode="&#xaa;" horiz-adv-x="852" 
d="M625 674q-50 5 -69.5 15t-19.5 28q10 130 29 316q-37 0 -281 -3q-4 -67 -4 -267q0 -53 -81 -53q-55 0 -72 22t-17 92q0 84 1 142t5 130t11.5 121.5t20.5 105.5t31.5 93t45.5 73t61.5 57t80.5 33.5t102 12.5q87 0 139.5 -16t84 -59.5t42.5 -108.5t11 -175q0 -145 -60 -529
q-4 -20 -18.5 -26.5t-42.5 -3.5zM302 1183q85 3 274 7q10 96 10 146q0 52 -19 73t-66 26q-118 0 -147.5 -39.5t-47.5 -182.5q-3 -20 -4 -30z" />
    <glyph glyph-name="guillemotleft" unicode="&#xab;" horiz-adv-x="1109" 
d="M858 103q-31 9 -108.5 102t-142.5 195.5t-65 136.5q0 54 70 145t256 300q6 6 9 9.5t8 9t9 10.5q24 19 52.5 6.5t52 -40t23.5 -46.5q0 -9 -6 -20t-27.5 -39.5t-48 -62t-83.5 -108t-119 -156.5q19 -35 105 -163.5t103 -146.5q15 -17 8.5 -41t-22.5 -45.5t-37.5 -35.5
t-36.5 -10zM374 115q-30 8 -104.5 101.5t-137.5 199t-63 141.5q0 60 79.5 154t285.5 300q11 12 23.5 14.5t28 -5.5t26 -16.5t30.5 -25.5q10 -9 16.5 -27t-0.5 -36q-6 -17 -136 -176q-37 -46 -75 -90.5t-54.5 -64.5t-22.5 -31q65 -82 119 -157t78.5 -114t26.5 -47
q15 -25 -5.5 -56.5t-55.5 -50.5t-59 -13z" />
    <glyph glyph-name="logicalnot" unicode="&#xac;" horiz-adv-x="992" 
d="M726 398q-34 0 -52.5 6.5t-15.5 25.5l28 172q-84 -4 -140 -4q-212 0 -319 12t-145 44q-15 12 -15 80q1 21 2 30t3.5 20t7.5 14.5t14 3.5q55 -4 140 -11t157.5 -12t151.5 -8q56 -2 158 2.5t113 4.5q33 0 53 -22t15 -62q-3 -24 -7 -62.5t-7 -62t-7.5 -54t-10.5 -48.5
t-14.5 -35.5t-21 -25.5t-28.5 -8h-60z" />
    <glyph glyph-name="registered" unicode="&#xae;" horiz-adv-x="1388" 
d="M708 -146q-129 4 -216.5 21.5t-159.5 58t-109.5 107.5t-66 169t-29.5 243t0 329q5 140 13 236t25 192t45.5 156.5t72.5 115t107.5 83t149.5 45t199 16.5q194 0 295 -58t153 -202q88 -239 88 -652q0 -441 -134.5 -655t-432.5 -205zM745 29q61 0 107.5 15t92 59t77 118
t55.5 197t34 292q0 229 -17.5 379t-74.5 261q-17 32 -39 53.5t-44.5 33t-61.5 17.5t-70 7t-89 1q-82 0 -145 -17.5t-105.5 -47t-72.5 -76.5t-47 -99t-26.5 -121t-14 -136t-8.5 -150q-5 -117 -9 -177q-9 -125 -3 -223.5t33 -171t80.5 -120.5t139 -71t208.5 -23zM543 218
q-50 0 -67 12.5t-17 57.5q0 334 48 953q1 18 21.5 23.5t62.5 5.5q87 0 149 -12t109.5 -40.5t70.5 -79t23 -124.5q0 -68 -15 -114t-57 -102q-51 -47 -76 -53q95 -250 136 -423q7 -28 -20 -56t-64 -28q-27 0 -49.5 52.5t-77.5 230.5q-35 112 -57 181h-44q-12 -235 -12 -444
q0 -40 -64 -40zM625 846q91 0 140.5 40t49.5 112q0 132 -173 132q-14 -182 -17 -284z" />
    <glyph glyph-name="macron" unicode="&#xaf;" horiz-adv-x="632" 
d="M115 1690q-48 2 -41 95q3 40 17 56.5t48 19.5q232 16 368 6q19 -1 28 -14t8.5 -32.5t-1.5 -44.5q-4 -71 -65 -71q-21 0 -148.5 -9t-213.5 -6z" />
    <glyph glyph-name="degree" unicode="&#xb0;" horiz-adv-x="643" 
d="M311 1000q-160 0 -204 236q-27 131 23 222t169 100q126 10 185 -38t69 -172q13 -161 -52.5 -254.5t-189.5 -93.5zM323 1160q96 0 96 136q0 124 -84 124q-96 0 -96 -108q0 -84 21 -118t63 -34z" />
    <glyph glyph-name="plusminus" unicode="&#xb1;" horiz-adv-x="893" 
d="M471 552q-85 2 -108.5 6.5t-23.5 25.5v35v72.5v88.5q-161 0 -221 12q-16 7 -18.5 35t3.5 65q5 37 26 53.5t66 16.5q6 0 144 2v240q0 48 88 48h40q52 0 52 -52q4 -181 4 -236q171 -6 240 -6q24 -2 31 -28t1 -106q-4 -40 -20 -40h-252v-152q0 -80 -52 -80zM139 216
q-32 0 -32 108q0 60 88 60q12 4 528 28q32 0 43 -26.5t5 -105.5q-3 -43 -96 -44q-329 -20 -536 -20z" />
    <glyph glyph-name="uni00B2" unicode="&#xb2;" horiz-adv-x="816" 
d="M286 571q-61 -10 -102 25.5t-58 102.5q-71 286 288 492q64 37 64 164q0 36 -25 60.5t-71 23.5q-31 -1 -56.5 -21.5t-31.5 -58.5q-8 -48 -29.5 -70t-66.5 -22q-61 0 -80.5 19.5t-19.5 72.5q0 148 124 208q66 32 144.5 35t143.5 -19.5t108.5 -74.5t43.5 -121
q0 -159 -52 -247.5t-159 -138.5q-86 -39 -119.5 -99t-21.5 -147q181 28 332 28q56 0 56 -88q0 -47 -25 -67.5t-83 -20.5q-62 0 -304 -36z" />
    <glyph glyph-name="uni00B3" unicode="&#xb3;" horiz-adv-x="701" 
d="M289 602q-107 0 -150.5 32t-43.5 102v97q0 42 17 54.5t59 12.5q47 0 64 -13t18 -51l2 -62q55 -4 100.5 31.5t64 83t6.5 97t-58 70.5q-16 7 -45.5 18.5t-41 17t-22 19.5t-10.5 35q0 32 15.5 47t66.5 39q35 16 44.5 40.5t9.5 77.5q0 54 -17 79.5t-58 25.5q-34 0 -53 -18
t-24.5 -39t-24 -39t-50.5 -18q-53 5 -72.5 18t-19.5 49q0 233 241 233q142 0 202.5 -68t60.5 -228q0 -101 -63 -184q92 -92 92 -185q0 -165 -83.5 -269.5t-226.5 -104.5z" />
    <glyph glyph-name="acute" unicode="&#xb4;" horiz-adv-x="559" 
d="M139 1720q-31 -3 -59.5 25t-28.5 80q0 19 16 35.5t35 27.5t69 36q30 15 91 47.5t94 48t57 21.5q35 10 58 -22t23 -91q0 -21 -31 -42.5t-107 -61.5q-16 -8 -25 -13q-165 -88 -192 -91z" />
    <glyph glyph-name="uni00B5" unicode="&#xb5;" horiz-adv-x="919" 
d="M267 -609q-100 0 -121 245t-17 932q2 333 2 523q0 104 12.5 148t51.5 44h68q52 0 52 -44v-840q0 -86 30 -151t82 -65q47 0 79 32.5t47 91t20.5 117.5t5.5 135q0 258 -8 483.5t-8 232.5q0 48 96 48q44 0 58 -25.5t14 -102.5q20 -429 20 -740q0 -161 4.5 -237t23.5 -182
q8 -35 -18.5 -57.5t-83.5 -23.5q-46 -1 -64.5 19t-25.5 77q-139 -138 -264 -68q-22 -202 40 -540q6 -26 -20 -39t-76 -13z" />
    <glyph glyph-name="paragraph" unicode="&#xb6;" horiz-adv-x="1052" 
d="M888 337q0 -306 16 -566q1 -20 -14.5 -31.5t-45.5 -12.5q-63 -2 -75 40q-33 111 -33 562q0 582 40 1228q0 16 13.5 26t26.5 10q48 0 78 -15.5t30 -44.5q0 -149 -36 -1196zM268 1525q60 38 153 50t166 -12t73 -82q-40 -1099 -40 -1168q0 -149 24 -454q1 -19 -13.5 -26
t-36.5 -7q-61 0 -88.5 27.5t-36.5 92.5q-25 185 -25 455q0 128 6 260q-77 0 -130.5 7t-95.5 26.5t-67 49t-41 79.5t-22 112.5t-6 153.5q0 317 180 436z" />
    <glyph glyph-name="periodcentered" unicode="&#xb7;" horiz-adv-x="643" 
d="M288 517q-81 0 -109 21t-28 73q12 147 85 151q71 4 95.5 -15t24.5 -78q0 -81 -14.5 -116.5t-53.5 -35.5z" />
    <glyph glyph-name="periodcentered" unicode="&#x2219;" horiz-adv-x="643" 
d="M288 517q-81 0 -109 21t-28 73q12 147 85 151q71 4 95.5 -15t24.5 -78q0 -81 -14.5 -116.5t-53.5 -35.5z" />
    <glyph glyph-name="cedilla" unicode="&#xb8;" horiz-adv-x="783" 
d="M436 -392q-36 0 -60 29.5t-24 57.5q0 16 31 19q41 4 61.5 17t14.5 39q-5 18 -13 28t-23 13t-28 3t-39.5 -2t-44.5 -2q-19 0 -29.5 10t-10.5 26q0 40 60 188l120 -28q-22 -46 -32 -88q160 -3 160 -141q0 -69 -42.5 -119t-100.5 -50z" />
    <glyph glyph-name="uni00B9" unicode="&#xb9;" horiz-adv-x="587" 
d="M381 638q-42 1 -65.5 4.5t-37 14t-13.5 29.5q9 373 19 604q-5 -3 -39 -29.5t-56.5 -40.5t-35.5 -14q-49 0 -68 112q0 44 37 84t119 92q96 59 128 76q44 24 84 -25.5t32 -106.5q-36 -279 -36 -760q0 -18 -18 -29.5t-50 -10.5z" />
    <glyph glyph-name="ordmasculine" unicode="&#xba;" horiz-adv-x="697" 
d="M355 688q-77 -4 -129.5 18t-81 65t-43.5 105.5t-16 139.5t1 166q4 132 35 206.5t98 137.5q18 18 34.5 29.5t53.5 22t86 10.5q39 0 69 -13.5t51 -37t36 -63.5t24 -83.5t14 -107.5t6.5 -124t1.5 -145q0 -151 -59.5 -235.5t-180.5 -90.5zM327 854q66 0 89 50t23 162
q0 205 -15 272t-65 56q-73 -16 -100.5 -113t-27.5 -271q0 -67 24.5 -111.5t71.5 -44.5z" />
    <glyph glyph-name="guillemotright" unicode="&#xbb;" horiz-adv-x="1093" 
d="M640 139q-11 -12 -23.5 -14.5t-28 5.5t-26 16.5t-30.5 25.5q-10 9 -16.5 27t0.5 36q6 17 136 176q107 132 152 216q-59 75 -127.5 156t-102.5 121.5t-36 46.5q-15 25 5.5 56.5t55.5 50.5t59 13q30 -7 115 -102.5t158.5 -202.5t73.5 -143q0 -63 -90.5 -181t-274.5 -303z
M220 139q-24 -19 -52.5 -6.5t-52 40t-23.5 46.5q0 8 6.5 19.5t28.5 39t50.5 62.5t85.5 107.5t120 156.5q-17 30 -115.5 159t-119.5 152q-15 17 -8.5 41t22.5 45.5t37.5 35.5t36.5 10q32 -9 116 -102t155.5 -196.5t71.5 -136.5q0 -49 -61.5 -129.5t-218.5 -255.5
q-51 -57 -79 -88z" />
    <glyph glyph-name="onequarter" unicode="&#xbc;" horiz-adv-x="1301" 
d="M242 -45q-56 3 -83 33t-14 58q9 22 239 510.5t270 586.5q96 259 172 408q60 119 124 116q61 -3 90 -21t14 -43q-59 -122 -150 -343t-134 -313q-59 -125 -123.5 -266.5t-103.5 -228t-82 -179t-70 -144.5t-55.5 -96t-50.5 -61.5t-43 -16.5zM407 955q-40 0 -54.5 1.5t-24 9
t-9.5 25.5l20 376l-137 -96q-17 -15 -42.5 -3t-40.5 39q-11 19 -11 43t11 33q262 244 316 244q49 0 71 -20t17 -68q-23 -234 -40 -548q0 -17 -24 -26.5t-52 -9.5zM936 -39q-37 -2 -57.5 10t-16.5 35q15 77 52 284q-158 -12 -205 -4q-74 15 -55 77q142 445 211 572
q9 17 21 22t43 4q40 -1 54 -8t11 -25q-5 -32 -159 -494l102 10q2 8 6 26.5t6 27t5.5 23.5t7.5 22.5t9.5 16.5t12 13.5t14.5 6.5q49 10 72.5 2t21.5 -31l-13 -93q74 7 98.5 -4.5t23.5 -46.5q-1 -20 -4.5 -35t-7.5 -25t-12.5 -17.5t-15 -11.5t-20 -7t-21.5 -4t-25.5 -2.5
t-26.5 -2.5q-7 -61 -28.5 -173t-24.5 -132q-4 -33 -79 -36z" />
    <glyph glyph-name="onehalf" unicode="&#xbd;" horiz-adv-x="1419" 
d="M276 -52q-56 3 -83 33t-14 58q9 22 239 510.5t270 586.5q96 259 172 408q60 119 124 116q61 -3 90 -21t14 -43q-59 -122 -150 -343t-134 -313q-59 -125 -123.5 -266.5t-103.5 -228t-82 -179t-70 -144.5t-55.5 -96t-50.5 -61.5t-43 -16.5zM427 955q-40 0 -54.5 1.5t-24 9
t-9.5 25.5l20 376l-137 -96q-17 -15 -42.5 -3t-40.5 39q-11 19 -11 43t11 33q262 244 316 244q49 0 71 -20t17 -68q-23 -234 -40 -548q0 -17 -24 -26.5t-52 -9.5zM946 -11q-55 -7 -79 28t-31 133q-8 119 43.5 193.5t176.5 148.5q40 24 53 75.5t-8 94.5t-68 43
q-32 0 -56 -19.5t-24 -55.5q0 -64 -68 -66q-35 -1 -50 17t-15 71q0 100 61 158.5t164 58.5q101 0 161 -61.5t60 -166.5q0 -214 -164 -297q-65 -33 -86 -71t-21 -116q134 24 225 26q42 1 57.5 -17.5t15.5 -69.5q0 -64 -84 -76q-7 -1 -39.5 -4.5t-94.5 -10.5t-129 -16z" />
    <glyph glyph-name="threequarters" unicode="&#xbe;" horiz-adv-x="1484" 
d="M340 775q-123 0 -163.5 30.5t-40.5 129.5q0 79 14 101t58 23q16 0 28 -0.5t21 -5.5t15 -7.5t10 -13.5t6 -16t3 -23t1 -25.5v-32.5q160 0 160 168q0 46 -15.5 71.5t-38 33.5t-45 14t-38 24t-15.5 53q0 27 20 46.5t44 29.5t44 31.5t20 52.5q0 71 -13.5 99.5t-50.5 28.5
q-40 0 -62.5 -18t-29 -39t-24 -37t-48.5 -14q-53 4 -72.5 17t-19.5 47q0 105 68 158.5t200 53.5q115 0 163.5 -69t48.5 -203q0 -101 -56 -172q53 -41 68.5 -80t15.5 -120q0 -131 -81.5 -233.5t-194.5 -102.5zM385 -45q-56 3 -83 33t-14 58q9 22 239 510.5t270 586.5
q96 259 172 408q60 119 124 116q61 -3 90 -21t14 -43q-59 -122 -150 -343t-134 -313q-59 -125 -123.5 -266.5t-103.5 -228t-82 -179t-70 -144.5t-55.5 -96t-50.5 -61.5t-43 -16.5zM1106 -23q-37 -2 -57.5 10t-16.5 35q3 11 51 284q-158 -12 -205 -4q-73 15 -55 77
q141 440 212 572q9 16 21 21.5t43 4.5q40 -1 54 -8.5t11 -24.5q-5 -32 -159 -494l102 10q2 9 5.5 26.5t5.5 26.5t6 23.5t7.5 22.5t9 17t12.5 13.5t15 6.5q99 20 93 -29l-13 -93q74 7 99 -4.5t23 -47.5q-1 -22 -4 -38t-11 -27t-14 -17.5t-21.5 -10t-23 -5t-28.5 -3.5t-30 -3
q-8 -60 -29.5 -171.5t-24.5 -133.5q-3 -33 -78 -36z" />
    <glyph glyph-name="questiondown" unicode="&#xbf;" horiz-adv-x="807" 
d="M459 1147q-50 0 -70.5 19.5t-20.5 77.5q0 72 14.5 105.5t55.5 33.5q74 0 101 -15t27 -69v-100q0 -27 -25 -39.5t-82 -12.5zM414 -297q-324 0 -324 388q0 83 47.5 175.5t148.5 232.5q50 69 69 166t19 245q0 47 92 41q56 -4 74 -11.5t18 -32.5q0 -194 -48 -334.5
t-168 -297.5q-64 -83 -64 -192q0 -106 22 -153t87 -47h15q82 0 105 11t23 65q-8 149 -8 221q-1 25 20.5 36.5t47.5 10.5q67 -2 91 -11.5t25 -36.5q2 -90 2.5 -144.5t-3.5 -110t-11 -85t-23.5 -58.5t-36 -41t-53.5 -22.5t-72 -12.5t-95 -2z" />
    <glyph glyph-name="Agrave" unicode="&#xc0;" horiz-adv-x="1052" 
d="M727 1717q-41 0 -213 94.5t-189 119.5q-9 14 3.5 49.5t37.5 61t46 15.5q80 -38 221 -112.5t143 -75.5q17 -10 18.5 -35.5t-8 -51t-26 -45.5t-33.5 -20zM202 -32q-60 0 -60 16q-4 148 -4 248q0 50 3 120t6.5 122.5t14 203.5t16.5 246q2 32 6.5 104.5t6.5 97.5t6.5 69.5
t10.5 71.5t14 52q52 154 176 211.5t352 57.5q124 0 124 -116q-8 -402 3.5 -739t48.5 -697q3 -18 -24.5 -31t-75.5 -13q-75 5 -76 24l-32 564q-163 0 -400 -16q-5 -67 -7 -156.5t-2 -149.5t0.5 -152t0.5 -110q0 -12 -33 -20t-75 -8zM326 728q39 2 176.5 9.5t211.5 10.5
q-8 168 -8 326q0 159 8 341q-103 -1 -175.5 -15t-124.5 -60q-9 -7 -15.5 -16t-12 -22t-9.5 -23.5t-7.5 -30t-5.5 -31t-4 -37.5l-3 -39l-3.5 -45.5t-3.5 -47.5q0 -4 -8.5 -111.5t-15.5 -208.5z" />
    <glyph glyph-name="Aacute" unicode="&#xc1;" horiz-adv-x="1052" 
d="M439 1680q-31 -3 -59.5 25t-28.5 80q0 19 16 35.5t35 27.5t69 36q30 15 91 47.5t94 48t57 21.5q35 10 58 -22t23 -91q0 -21 -31 -42.5t-107 -61.5q-16 -8 -25 -13q-165 -88 -192 -91zM202 -32q-60 0 -60 16q-4 148 -4 248q0 50 3 120t6.5 122.5t14 203.5t16.5 246
q2 32 6.5 104.5t6.5 97.5t6.5 69.5t10.5 71.5t14 52q52 154 176 211.5t352 57.5q124 0 124 -116q-8 -402 3.5 -739t48.5 -697q3 -18 -24.5 -31t-75.5 -13q-75 5 -76 24l-32 564q-163 0 -400 -16q-5 -67 -7 -156.5t-2 -149.5t0.5 -152t0.5 -110q0 -12 -33 -20t-75 -8z
M326 728q39 2 176.5 9.5t211.5 10.5q-8 168 -8 326q0 159 8 341q-103 -1 -175.5 -15t-124.5 -60q-9 -7 -15.5 -16t-12 -22t-9.5 -23.5t-7.5 -30t-5.5 -31t-4 -37.5l-3 -39l-3.5 -45.5t-3.5 -47.5q0 -4 -8.5 -111.5t-15.5 -208.5z" />
    <glyph glyph-name="Acircumflex" unicode="&#xc2;" horiz-adv-x="1052" 
d="M376 1685q-46 23 -60 50.5t2 45.5q182 250 203 268q23 14 56 10q29 -4 142.5 -122.5t117.5 -143.5q5 -33 -25 -63.5t-59 -24.5q-16 4 -53 39t-107 108q-13 14 -20 21q-132 -160 -152 -180q-19 -21 -45 -8zM202 -32q-60 0 -60 16q-4 148 -4 248q0 50 3 120t6.5 122.5
t14 203.5t16.5 246q2 32 6.5 104.5t6.5 97.5t6.5 69.5t10.5 71.5t14 52q52 154 176 211.5t352 57.5q124 0 124 -116q-8 -402 3.5 -739t48.5 -697q3 -18 -24.5 -31t-75.5 -13q-75 5 -76 24l-32 564q-163 0 -400 -16q-5 -67 -7 -156.5t-2 -149.5t0.5 -152t0.5 -110
q0 -12 -33 -20t-75 -8zM326 728q39 2 176.5 9.5t211.5 10.5q-8 168 -8 326q0 159 8 341q-103 -1 -175.5 -15t-124.5 -60q-9 -7 -15.5 -16t-12 -22t-9.5 -23.5t-7.5 -30t-5.5 -31t-4 -37.5l-3 -39l-3.5 -45.5t-3.5 -47.5q0 -4 -8.5 -111.5t-15.5 -208.5z" />
    <glyph glyph-name="Atilde" unicode="&#xc3;" horiz-adv-x="1052" 
d="M323 1698q-35 0 -68.5 26.5t-33.5 59.5q0 91 63.5 174t144.5 86q43 2 78 -11t58 -33t42.5 -40t39.5 -34t41 -14q46 0 93 128q6 22 18.5 28.5t38.5 4.5q89 -7 89 -64q0 -50 -32 -116t-81.5 -114.5t-94.5 -48.5q-53 0 -87.5 12.5t-78.5 52.5q-11 10 -25.5 25.5t-22 22.5
t-20 13t-27.5 6q-23 0 -39 -25.5t-24.5 -56.5t-27 -56.5t-44.5 -25.5zM202 -32q-60 0 -60 16q-4 148 -4 248q0 50 3 120t6.5 122.5t14 203.5t16.5 246q2 32 6.5 104.5t6.5 97.5t6.5 69.5t10.5 71.5t14 52q52 154 176 211.5t352 57.5q124 0 124 -116q-8 -402 3.5 -739
t48.5 -697q3 -18 -24.5 -31t-75.5 -13q-75 5 -76 24l-32 564q-163 0 -400 -16q-5 -67 -7 -156.5t-2 -149.5t0.5 -152t0.5 -110q0 -12 -33 -20t-75 -8zM326 728q39 2 176.5 9.5t211.5 10.5q-8 168 -8 326q0 159 8 341q-103 -1 -175.5 -15t-124.5 -60q-9 -7 -15.5 -16t-12 -22
t-9.5 -23.5t-7.5 -30t-5.5 -31t-4 -37.5l-3 -39l-3.5 -45.5t-3.5 -47.5q0 -4 -8.5 -111.5t-15.5 -208.5z" />
    <glyph glyph-name="Adieresis" unicode="&#xc4;" horiz-adv-x="1052" 
d="M366 1706q-76 0 -76 44v144q0 65 80 64h48q22 0 39 -16t17 -44q0 -10 -0.5 -28.5t-1.5 -52.5t-2 -67q-1 -24 -20 -33t-68 -11h-16zM742 1694q-104 0 -104 60v128q0 35 19.5 53.5t52.5 18.5h24q41 0 63 -12.5t21 -51.5q0 -66 0.5 -104.5t-9.5 -59t-24 -26.5t-43 -6z
M202 -32q-60 0 -60 16q-4 148 -4 248q0 50 3 120t6.5 122.5t14 203.5t16.5 246q2 32 6.5 104.5t6.5 97.5t6.5 69.5t10.5 71.5t14 52q52 154 176 211.5t352 57.5q124 0 124 -116q-8 -402 3.5 -739t48.5 -697q3 -18 -24.5 -31t-75.5 -13q-75 5 -76 24l-32 564q-163 0 -400 -16
q-5 -67 -7 -156.5t-2 -149.5t0.5 -152t0.5 -110q0 -12 -33 -20t-75 -8zM326 728q39 2 176.5 9.5t211.5 10.5q-8 168 -8 326q0 159 8 341q-103 -1 -175.5 -15t-124.5 -60q-9 -7 -15.5 -16t-12 -22t-9.5 -23.5t-7.5 -30t-5.5 -31t-4 -37.5l-3 -39l-3.5 -45.5t-3.5 -47.5
q0 -4 -8.5 -111.5t-15.5 -208.5z" />
    <glyph glyph-name="Aring" unicode="&#xc5;" horiz-adv-x="1052" 
d="M550 1699q-98 0 -155 70.5t-57 173.5q0 127 136 188q57 27 112.5 22.5t99 -29t70 -72.5t26.5 -109q0 -123 -59.5 -183.5t-172.5 -60.5zM570 1839q32 0 54 21t22 59q0 46 -20 74.5t-53 29.5q-36 1 -64 -29t-28 -79q0 -36 23.5 -56t65.5 -20zM202 -32q-60 0 -60 16
q-4 148 -4 248q0 50 3 120t6.5 122.5t14 203.5t16.5 246q2 32 6.5 104.5t6.5 97.5t6.5 69.5t10.5 71.5t14 52q52 154 176 211.5t352 57.5q124 0 124 -116q-8 -402 3.5 -739t48.5 -697q3 -18 -24.5 -31t-75.5 -13q-75 5 -76 24l-32 564q-163 0 -400 -16q-5 -67 -7 -156.5
t-2 -149.5t0.5 -152t0.5 -110q0 -12 -33 -20t-75 -8zM326 728q39 2 176.5 9.5t211.5 10.5q-8 168 -8 326q0 159 8 341q-103 -1 -175.5 -15t-124.5 -60q-9 -7 -15.5 -16t-12 -22t-9.5 -23.5t-7.5 -30t-5.5 -31t-4 -37.5l-3 -39l-3.5 -45.5t-3.5 -47.5q0 -4 -8.5 -111.5
t-15.5 -208.5z" />
    <glyph glyph-name="AE" unicode="&#xc6;" horiz-adv-x="1313" 
d="M142 -32q-60 0 -60 32q-6 120 -1.5 305.5t9 285.5t18.5 333q11 200 27 281q33 176 124 251q35 29 81.5 51t88 36t114 24t116 15t140 7.5t140.5 2.5h161h75q14 0 22.5 -6.5t12 -22t4 -27.5t0.5 -36q0 -102 -50 -102q-195 0 -334 -8v-270q0 -37 1 -89t1.5 -89t0.5 -38
q77 2 151 4t104 3t35 1q23 0 31 -25.5t8 -90.5q0 -24 -11 -35t-41 -13q-57 -4 -272 -12q2 -302 20 -568q158 12 328 12q20 0 25 -18.5t7 -76.5q0 -32 -13 -47t-51 -18q-62 -5 -182 -13.5t-188 -14.5q-90 -8 -94 24l-32 564q-163 0 -400 -16q-8 -272 -8 -553q0 -43 -108 -43z
M266 728q242 10 388 20v274.5v180.5v101v90q-186 0 -300 -94q-15 -12 -25.5 -30t-18.5 -49.5t-13 -59t-9.5 -82.5t-6.5 -94t-6.5 -120t-8.5 -137z" />
    <glyph glyph-name="Ccedilla" unicode="&#xc7;" horiz-adv-x="1036" 
d="M847 513q19 1 27.5 -30.5t12.5 -101.5l6 -84t4.5 -63.5t1.5 -28.5q0 -175 -128 -224q-11 -4 -19.5 -7t-19 -4.5t-16.5 -2.5t-20 -1.5t-20 -0.5h-26.5h-30.5h-22q-9 -24 -18 -57q160 -3 160 -141q0 -69 -42.5 -119t-100.5 -50q-36 0 -60 29.5t-24 57.5q0 16 31 19
q41 4 61.5 17t14.5 39q-5 18 -13 28t-23 13t-28 3t-39.5 -2t-44.5 -2q-19 0 -29.5 10t-10.5 26q0 32 41 141q-155 27 -245 120q-62 63 -89 219t-27 417q0 611 144 748q59 56 152 76t224 20q276 0 276 -224q0 -52 -2.5 -83.5t-10.5 -60t-24 -42.5t-42 -22t-65 -8
q-36 0 -36 20q0 60 8 196q0 56 -108 56q-251 0 -288 -96q-56 -149 -56 -424q0 -396 14.5 -524t77.5 -172q43 -30 99.5 -45.5t87.5 -17t89 -1.5q43 3 59.5 13t16.5 35q0 93 -12 292q0 37 132 44z" />
    <glyph glyph-name="Egrave" unicode="&#xc8;" horiz-adv-x="791" 
d="M527 1667q-41 0 -213 94.5t-189 119.5q-9 14 3.5 49.5t37.5 61t46 15.5q80 -38 221 -112.5t143 -75.5q17 -10 18.5 -35.5t-8 -51t-26 -45.5t-33.5 -20zM179 4q-9 0 -14 5.5t-7 17.5t-2.5 20.5t-0.5 25.5v7v544q0 396 -48 884q-3 19 20 29.5t60 10.5h468q11 0 13.5 -22.5
t2.5 -85.5q0 -48 -44 -48q-199 0 -344 -8q0 -30 24 -476l280 8q32 0 32 -88q0 -76 -48 -76l-260 -12q7 -371 16 -563q291 16 334 19q26 0 33 -21t7 -83q0 -37 -15.5 -52.5t-60.5 -19.5q-266 -16 -446 -16z" />
    <glyph glyph-name="Eacute" unicode="&#xc9;" horiz-adv-x="791" 
d="M259 1680q-31 -3 -59.5 25t-28.5 80q0 19 16 35.5t35 27.5t69 36q30 15 91 47.5t94 48t57 21.5q35 10 58 -22t23 -91q0 -21 -31 -42.5t-107 -61.5q-16 -8 -25 -13q-165 -88 -192 -91zM179 4q-9 0 -14 5.5t-7 17.5t-2.5 20.5t-0.5 25.5v7v544q0 396 -48 884q-3 19 20 29.5
t60 10.5h468q11 0 13.5 -22.5t2.5 -85.5q0 -48 -44 -48q-199 0 -344 -8q0 -30 24 -476l280 8q32 0 32 -88q0 -76 -48 -76l-260 -12q7 -371 16 -563q291 16 334 19q26 0 33 -21t7 -83q0 -37 -15.5 -52.5t-60.5 -19.5q-266 -16 -446 -16z" />
    <glyph glyph-name="Ecircumflex" unicode="&#xca;" horiz-adv-x="791" 
d="M176 1655q-46 23 -60 50.5t2 45.5q182 250 203 268q23 14 56 10q29 -4 142.5 -122.5t117.5 -143.5q5 -33 -25 -63.5t-59 -24.5q-16 4 -53 39t-107 108q-13 14 -20 21q-132 -160 -152 -180q-19 -21 -45 -8zM179 4q-9 0 -14 5.5t-7 17.5t-2.5 20.5t-0.5 25.5v7v544
q0 396 -48 884q-3 19 20 29.5t60 10.5h468q11 0 13.5 -22.5t2.5 -85.5q0 -48 -44 -48q-199 0 -344 -8q0 -30 24 -476l280 8q32 0 32 -88q0 -76 -48 -76l-260 -12q7 -371 16 -563q291 16 334 19q26 0 33 -21t7 -83q0 -37 -15.5 -52.5t-60.5 -19.5q-266 -16 -446 -16z" />
    <glyph glyph-name="Edieresis" unicode="&#xcb;" horiz-adv-x="791" 
d="M186 1666q-76 0 -76 44v144q0 65 80 64h48q22 0 39 -16t17 -44q0 -10 -0.5 -28.5t-1.5 -52.5t-2 -67q-1 -24 -20 -33t-68 -11h-16zM562 1654q-104 0 -104 60v128q0 35 19.5 53.5t52.5 18.5h24q41 0 63 -12.5t21 -51.5q0 -66 0.5 -104.5t-9.5 -59t-24 -26.5t-43 -6zM179 4
q-9 0 -14 5.5t-7 17.5t-2.5 20.5t-0.5 25.5v7v544q0 396 -48 884q-3 19 20 29.5t60 10.5h468q11 0 13.5 -22.5t2.5 -85.5q0 -48 -44 -48q-199 0 -344 -8q0 -30 24 -476l280 8q32 0 32 -88q0 -76 -48 -76l-260 -12q7 -371 16 -563q291 16 334 19q26 0 33 -21t7 -83
q0 -37 -15.5 -52.5t-60.5 -19.5q-266 -16 -446 -16z" />
    <glyph glyph-name="Igrave" unicode="&#xcc;" horiz-adv-x="404" 
d="M327 1697q-41 0 -213 94.5t-189 119.5q-9 14 3.5 49.5t37.5 61t46 15.5q80 -38 221 -112.5t143 -75.5q17 -10 18.5 -35.5t-8 -51t-26 -45.5t-33.5 -20zM207 0q-32 0 -52 8.5t-20 23.5q-35 826 -52 1480q0 25 13 35t51 13l56 4q23 0 35.5 -27.5t16.5 -100.5
q17 -801 44 -1376q0 -32 -19.5 -46t-72.5 -14z" />
    <glyph glyph-name="Iacute" unicode="&#xcd;" horiz-adv-x="404" 
d="M29 1700q-31 -3 -59.5 25t-28.5 80q0 19 16 35.5t35 27.5t69 36q30 15 91 47.5t94 48t57 21.5q35 10 58 -22t23 -91q0 -21 -31 -42.5t-107 -61.5q-16 -8 -25 -13q-165 -88 -192 -91zM207 0q-32 0 -52 8.5t-20 23.5q-35 826 -52 1480q0 25 13 35t51 13l56 4
q23 0 35.5 -27.5t16.5 -100.5q17 -801 44 -1376q0 -32 -19.5 -46t-72.5 -14z" />
    <glyph glyph-name="Icircumflex" unicode="&#xce;" horiz-adv-x="404" 
d="M-44 1675q-46 23 -60 50.5t2 45.5q182 250 203 268q23 14 56 10q29 -4 142.5 -122.5t117.5 -143.5q5 -33 -25 -63.5t-59 -24.5q-16 4 -53 39t-107 108q-13 14 -20 21q-132 -160 -152 -180q-19 -21 -45 -8zM207 0q-32 0 -52 8.5t-20 23.5q-35 826 -52 1480q0 25 13 35
t51 13l56 4q23 0 35.5 -27.5t16.5 -100.5q17 -801 44 -1376q0 -32 -19.5 -46t-72.5 -14z" />
    <glyph glyph-name="Idieresis" unicode="&#xcf;" horiz-adv-x="404" 
d="M-34 1706q-76 0 -76 44v144q0 65 80 64h48q22 0 39 -16t17 -44q0 -10 -0.5 -28.5t-1.5 -52.5t-2 -67q-1 -24 -20 -33t-68 -11h-16zM342 1694q-104 0 -104 60v128q0 35 19.5 53.5t52.5 18.5h24q41 0 63 -12.5t21 -51.5q0 -66 0.5 -104.5t-9.5 -59t-24 -26.5t-43 -6zM207 0
q-32 0 -52 8.5t-20 23.5q-35 826 -52 1480q0 25 13 35t51 13l56 4q23 0 35.5 -27.5t16.5 -100.5q17 -801 44 -1376q0 -32 -19.5 -46t-72.5 -14z" />
    <glyph glyph-name="Eth" unicode="&#xd0;" horiz-adv-x="905" 
d="M765 1093q1 -21 2.5 -89t4.5 -217.5t6 -289.5q0 -241 -155.5 -384.5t-400.5 -143.5q-55 0 -66 33.5t-10 150.5v19v19v22q-9 471 -10 525q-42 -1 -125 -1q-18 0 -26 12t-9 46q-6 113 51 114l106 3q-3 256 -3 449q0 148 20 168q24 24 82.5 32t197.5 8q76 0 132 -21.5
t92 -59t59 -99.5t34.5 -130.5t17.5 -165.5zM326 153q132 12 208 119.5t76 260.5q-8 436 -19 567q-23 248 -93 292q-15 9 -32 11q-52 5 -100 3t-64 -8l6 -479q51 3 119 6q23 0 31 -28.5t8 -95.5q0 -54 -49 -56l-107 -3q8 -589 16 -589z" />
    <glyph glyph-name="Ntilde" unicode="&#xd1;" horiz-adv-x="926" 
d="M232 1678q-35 0 -68.5 26.5t-33.5 59.5q0 91 63.5 174t144.5 86q43 2 78 -11t58 -33t42.5 -40t39.5 -34t41 -14q46 0 93 128q6 22 18.5 28.5t38.5 4.5q89 -7 89 -64q0 -50 -32 -116t-81.5 -114.5t-94.5 -48.5q-53 0 -87.5 12.5t-78.5 52.5q-11 10 -25.5 25.5t-22 22.5
t-20 13t-27.5 6q-23 0 -39 -25.5t-24.5 -56.5t-27 -56.5t-44.5 -25.5zM727 -65q-110 4 -123 64q-163 651 -312 1048q5 -161 6.5 -304t1 -227t-3.5 -262t-4 -291q0 -11 -17 -17.5t-35 -6.5q-59 0 -81.5 15t-22.5 58q-4 495 -4 1047q0 67 -2 177t-4 193.5t-2 85.5q0 56 96 56
q19 0 33.5 -7.5t25.5 -24t17 -29.5t15 -38q158 -356 325 -949q16 333 16 796v216q0 32 40 32q61 0 88.5 -14.5t27.5 -52.5q0 -675 -24 -1533q0 -34 -57 -32z" />
    <glyph glyph-name="Ograve" unicode="&#xd2;" horiz-adv-x="1032" 
d="M677 1697q-41 0 -213 94.5t-189 119.5q-9 14 3.5 49.5t37.5 61t46 15.5q80 -38 221 -112.5t143 -75.5q17 -10 18.5 -35.5t-8 -51t-26 -45.5t-33.5 -20zM528 -49q-102 0 -177 36t-121 96t-74 153t-38 192t-10 227q0 326 35 550t101 278q56 45 101 72t89 37.5t68.5 12.5
t73.5 2q77 0 135 -43.5t95 -118t60.5 -183.5t32.5 -229t9 -266q0 -113 -11.5 -222t-39.5 -218.5t-70.5 -191.5t-109 -133t-149.5 -51zM532 129q50 0 91.5 84.5t66 210.5t37.5 257t13 238q0 95 -21 213.5t-63.5 212.5t-91.5 94q-124 0 -220 -100q-16 -17 -26.5 -57
t-18.5 -128t-12 -158t-11 -225q-11 -111 -5.5 -225t22.5 -206.5t78 -151.5t161 -59z" />
    <glyph glyph-name="Oacute" unicode="&#xd3;" horiz-adv-x="1032" 
d="M349 1700q-31 -3 -59.5 25t-28.5 80q0 19 16 35.5t35 27.5t69 36q30 15 91 47.5t94 48t57 21.5q35 10 58 -22t23 -91q0 -21 -31 -42.5t-107 -61.5q-16 -8 -25 -13q-165 -88 -192 -91zM528 -49q-102 0 -177 36t-121 96t-74 153t-38 192t-10 227q0 326 35 550t101 278
q56 45 101 72t89 37.5t68.5 12.5t73.5 2q77 0 135 -43.5t95 -118t60.5 -183.5t32.5 -229t9 -266q0 -113 -11.5 -222t-39.5 -218.5t-70.5 -191.5t-109 -133t-149.5 -51zM532 129q50 0 91.5 84.5t66 210.5t37.5 257t13 238q0 95 -21 213.5t-63.5 212.5t-91.5 94
q-124 0 -220 -100q-16 -17 -26.5 -57t-18.5 -128t-12 -158t-11 -225q-11 -111 -5.5 -225t22.5 -206.5t78 -151.5t161 -59z" />
    <glyph glyph-name="Ocircumflex" unicode="&#xd4;" horiz-adv-x="1032" 
d="M316 1675q-46 23 -60 50.5t2 45.5q182 250 203 268q23 14 56 10q29 -4 142.5 -122.5t117.5 -143.5q5 -33 -25 -63.5t-59 -24.5q-16 4 -53 39t-107 108q-13 14 -20 21q-132 -160 -152 -180q-19 -21 -45 -8zM528 -49q-102 0 -177 36t-121 96t-74 153t-38 192t-10 227
q0 326 35 550t101 278q56 45 101 72t89 37.5t68.5 12.5t73.5 2q77 0 135 -43.5t95 -118t60.5 -183.5t32.5 -229t9 -266q0 -113 -11.5 -222t-39.5 -218.5t-70.5 -191.5t-109 -133t-149.5 -51zM532 129q50 0 91.5 84.5t66 210.5t37.5 257t13 238q0 95 -21 213.5t-63.5 212.5
t-91.5 94q-124 0 -220 -100q-16 -17 -26.5 -57t-18.5 -128t-12 -158t-11 -225q-11 -111 -5.5 -225t22.5 -206.5t78 -151.5t161 -59z" />
    <glyph glyph-name="Otilde" unicode="&#xd5;" horiz-adv-x="1032" 
d="M262 1638q-35 0 -68.5 26.5t-33.5 59.5q0 91 63.5 174t144.5 86q43 2 78 -11t58 -33t42.5 -40t39.5 -34t41 -14q46 0 93 128q6 22 18.5 28.5t38.5 4.5q89 -7 89 -64q0 -50 -32 -116t-81.5 -114.5t-94.5 -48.5q-53 0 -87.5 12.5t-78.5 52.5q-11 10 -25.5 25.5t-22 22.5
t-20 13t-27.5 6q-23 0 -39 -25.5t-24.5 -56.5t-27 -56.5t-44.5 -25.5zM528 -49q-102 0 -177 36t-121 96t-74 153t-38 192t-10 227q0 326 35 550t101 278q56 45 101 72t89 37.5t68.5 12.5t73.5 2q77 0 135 -43.5t95 -118t60.5 -183.5t32.5 -229t9 -266q0 -113 -11.5 -222
t-39.5 -218.5t-70.5 -191.5t-109 -133t-149.5 -51zM532 129q50 0 91.5 84.5t66 210.5t37.5 257t13 238q0 95 -21 213.5t-63.5 212.5t-91.5 94q-124 0 -220 -100q-16 -17 -26.5 -57t-18.5 -128t-12 -158t-11 -225q-11 -111 -5.5 -225t22.5 -206.5t78 -151.5t161 -59z" />
    <glyph glyph-name="Odieresis" unicode="&#xd6;" horiz-adv-x="1032" 
d="M316 1716q-76 0 -76 44v144q0 65 80 64h48q22 0 39 -16t17 -44q0 -10 -0.5 -28.5t-1.5 -52.5t-2 -67q-1 -24 -20 -33t-68 -11h-16zM692 1704q-104 0 -104 60v128q0 35 19.5 53.5t52.5 18.5h24q41 0 63 -12.5t21 -51.5q0 -66 0.5 -104.5t-9.5 -59t-24 -26.5t-43 -6z
M528 -49q-102 0 -177 36t-121 96t-74 153t-38 192t-10 227q0 326 35 550t101 278q56 45 101 72t89 37.5t68.5 12.5t73.5 2q77 0 135 -43.5t95 -118t60.5 -183.5t32.5 -229t9 -266q0 -113 -11.5 -222t-39.5 -218.5t-70.5 -191.5t-109 -133t-149.5 -51zM532 129
q50 0 91.5 84.5t66 210.5t37.5 257t13 238q0 95 -21 213.5t-63.5 212.5t-91.5 94q-124 0 -220 -100q-16 -17 -26.5 -57t-18.5 -128t-12 -158t-11 -225q-11 -111 -5.5 -225t22.5 -206.5t78 -151.5t161 -59z" />
    <glyph glyph-name="multiply" unicode="&#xd7;" horiz-adv-x="958" 
d="M222 317q-8 -9 -43.5 4.5t-64.5 42.5t-20 57q3 10 52.5 80.5t105 148t62.5 87.5q-69 79 -121.5 143t-76 96t-26.5 41q-10 29 78 79q39 22 59 4q17 -14 203 -219q142 182 220 276q18 21 69 -16t51 -64q0 -7 -1.5 -14t-6 -17t-9.5 -19t-15.5 -26t-20.5 -31.5t-28 -41
t-35 -50t-44 -62.5t-52 -75q165 -159 214.5 -211t49.5 -69q0 -35 -52 -88q-15 -15 -33 -20.5t-30 0.5q-71 36 -273 236q-168 -224 -212 -272z" />
    <glyph glyph-name="Oslash" unicode="&#xd8;" horiz-adv-x="1032" 
d="M836 1679q44 -9 64.5 -25.5t19 -33t-7.5 -34.5q-6 -16 -33.5 -65t-55.5 -113q85 -205 85 -641q0 -113 -11.5 -222t-39.5 -218.5t-70.5 -191.5t-109 -133t-149.5 -51q-129 0 -216 56q-5 -12 -14.5 -36t-14.5 -36q-10 -28 -34 -37.5t-50 -4.5q-57 9 -74.5 28.5t-8.5 48.5
q2 4 11 29t25.5 69t33.5 89q-78 164 -78 498q0 326 35 550t101 278q56 45 101 72t89 37.5t68.5 12.5t73.5 2q82 0 144 -50q72 131 116 122zM276 771q-12 -244 4 -363q248 658 311 842q24 70 48 129q-36 60 -75 60q-124 0 -220 -100q-16 -17 -26.5 -57t-18.5 -128t-12 -158
t-11 -225zM532 129q50 0 91.5 84.5t66 210.5t37.5 257t13 238q0 98 -23 218q-7 -20 -62 -180t-95 -264q-30 -78 -60.5 -164t-67 -190t-55.5 -157q61 -53 155 -53z" />
    <glyph glyph-name="Ugrave" unicode="&#xd9;" horiz-adv-x="979" 
d="M577 1677q-41 0 -213 94.5t-189 119.5q-9 14 3.5 49.5t37.5 61t46 15.5q80 -38 221 -112.5t143 -75.5q17 -10 18.5 -35.5t-8 -51t-26 -45.5t-33.5 -20zM552 -25q-132 0 -230 51.5t-138 160.5q-64 174 -64 456q0 96 16 636q0 67 -4 251q0 25 36 25h66q43 0 56.5 -41
t13.5 -139l-16 -668q0 -253 25.5 -370t94.5 -158q57 -34 144 -28q28 2 48.5 15t35 40.5t23.5 57t15 81.5t9 95t7 114q10 209 10 533q0 231 -32 443q-2 12 4.5 19.5t21 10t24.5 3t27 0.5h7q45 0 60.5 -27.5t27.5 -108.5q13 -87 16 -352q4 -214 0.5 -390.5t-15 -308
t-40.5 -221t-76 -130.5q-58 -50 -173 -50z" />
    <glyph glyph-name="Uacute" unicode="&#xda;" horiz-adv-x="979" 
d="M359 1670q-31 -3 -59.5 25t-28.5 80q0 19 16 35.5t35 27.5t69 36q30 15 91 47.5t94 48t57 21.5q35 10 58 -22t23 -91q0 -21 -31 -42.5t-107 -61.5q-16 -8 -25 -13q-165 -88 -192 -91zM552 -25q-132 0 -230 51.5t-138 160.5q-64 174 -64 456q0 96 16 636q0 67 -4 251
q0 25 36 25h66q43 0 56.5 -41t13.5 -139l-16 -668q0 -253 25.5 -370t94.5 -158q57 -34 144 -28q28 2 48.5 15t35 40.5t23.5 57t15 81.5t9 95t7 114q10 209 10 533q0 231 -32 443q-2 12 4.5 19.5t21 10t24.5 3t27 0.5h7q45 0 60.5 -27.5t27.5 -108.5q13 -87 16 -352
q4 -214 0.5 -390.5t-15 -308t-40.5 -221t-76 -130.5q-58 -50 -173 -50z" />
    <glyph glyph-name="Ucircumflex" unicode="&#xdb;" horiz-adv-x="979" 
d="M266 1675q-46 23 -60 50.5t2 45.5q182 250 203 268q23 14 56 10q29 -4 142.5 -122.5t117.5 -143.5q5 -33 -25 -63.5t-59 -24.5q-16 4 -53 39t-107 108q-13 14 -20 21q-132 -160 -152 -180q-19 -21 -45 -8zM552 -25q-132 0 -230 51.5t-138 160.5q-64 174 -64 456
q0 96 16 636q0 67 -4 251q0 25 36 25h66q43 0 56.5 -41t13.5 -139l-16 -668q0 -253 25.5 -370t94.5 -158q57 -34 144 -28q28 2 48.5 15t35 40.5t23.5 57t15 81.5t9 95t7 114q10 209 10 533q0 231 -32 443q-2 12 4.5 19.5t21 10t24.5 3t27 0.5h7q45 0 60.5 -27.5t27.5 -108.5
q13 -87 16 -352q4 -214 0.5 -390.5t-15 -308t-40.5 -221t-76 -130.5q-58 -50 -173 -50z" />
    <glyph glyph-name="Udieresis" unicode="&#xdc;" horiz-adv-x="979" 
d="M276 1696q-76 0 -76 44v144q0 65 80 64h48q22 0 39 -16t17 -44q0 -10 -0.5 -28.5t-1.5 -52.5t-2 -67q-1 -24 -20 -33t-68 -11h-16zM652 1684q-104 0 -104 60v128q0 35 19.5 53.5t52.5 18.5h24q41 0 63 -12.5t21 -51.5q0 -66 0.5 -104.5t-9.5 -59t-24 -26.5t-43 -6z
M552 -25q-132 0 -230 51.5t-138 160.5q-64 174 -64 456q0 96 16 636q0 67 -4 251q0 25 36 25h66q43 0 56.5 -41t13.5 -139l-16 -668q0 -253 25.5 -370t94.5 -158q57 -34 144 -28q28 2 48.5 15t35 40.5t23.5 57t15 81.5t9 95t7 114q10 209 10 533q0 231 -32 443
q-2 12 4.5 19.5t21 10t24.5 3t27 0.5h7q45 0 60.5 -27.5t27.5 -108.5q13 -87 16 -352q4 -214 0.5 -390.5t-15 -308t-40.5 -221t-76 -130.5q-58 -50 -173 -50z" />
    <glyph glyph-name="Yacute" unicode="&#xdd;" horiz-adv-x="840" 
d="M279 1639q-31 -3 -59.5 25t-28.5 80q0 19 16 35.5t35 27.5t69 36q30 15 91 47.5t94 48t57 21.5q35 10 58 -22t23 -91q0 -21 -31 -42.5t-107 -61.5q-16 -8 -25 -13q-165 -88 -192 -91zM388 -30q-55 0 -73.5 10t-18.5 43q0 14 2.5 131.5t2.5 247.5q0 26 -1.5 83t-4.5 156.5
t-5 190.5q-89 257 -248 640q-13 33 17.5 59.5t80.5 26.5q10 0 23 -7t20 -19q58 -105 124 -281q13 -35 35 -91t34 -90q99 218 236 432q28 40 72 40q41 0 71 -40t-1 -81q-91 -133 -288 -535q4 -91 5.5 -195.5t1.5 -175.5t-0.5 -186t-0.5 -167q0 -85 -10 -127.5t-26 -53.5
t-48 -11z" />
    <glyph glyph-name="Thorn" unicode="&#xde;" horiz-adv-x="783" 
d="M179 -36q-52 3 -52 52q0 308 -28 1506q-1 25 15 40.5t61 15.5q23 0 33 -0.5t26.5 -3t24 -7.5t13.5 -15.5t7 -25.5l7 -151q207 0 322 -101.5t121 -302.5q4 -143 -5 -249t-35.5 -194.5t-74.5 -145.5t-123 -90.5t-179 -40.5l3 -223q0 -43 -31 -56t-105 -8zM308 435
q32 7 56 14.5t49.5 19t43 26.5t36 36.5t28.5 49t21 64.5t13 82.5t5 103t-4 126.5q-7 126 -68 178t-198 52q15 -522 18 -752z" />
    <glyph glyph-name="germandbls" unicode="&#xdf;" horiz-adv-x="896" 
d="M580 -26q-58 0 -118 45t-60 90q0 28 26.5 63t50.5 35q15 0 47.5 -23t48.5 -24q30 -3 47 38t18.5 103.5t-4.5 128.5t-18.5 119t-26.5 69q-19 23 -61 40.5t-79.5 38t-52.5 54.5q-6 13 0 42t19 45q40 59 75 117.5t66 115.5t45 80q-27 35 -64.5 48.5t-121.5 13.5
q-30 0 -60 -18.5t-50 -43.5q-26 -32 -41.5 -225.5t-10 -453t35.5 -444.5q0 -20 -7 -32t-18.5 -15.5t-26.5 -5t-31 0.5q-16 1 -27.5 2.5t-20.5 3t-15 7t-9.5 8t-7 13.5t-5 16t-5 23t-5.5 27q-29 128 -33.5 389t21.5 503t75 303q32 40 102.5 77t156.5 37q82 0 176.5 -28
t155 -79.5t34.5 -105.5q-32 -67 -68.5 -132.5t-58.5 -101t-76 -120.5q52 -16 98 -50.5t67 -69.5q26 -43 47.5 -187t14.5 -221q-11 -126 -78.5 -221t-166.5 -95z" />
    <glyph glyph-name="agrave" unicode="&#xe0;" horiz-adv-x="872" 
d="M588 1477q-41 0 -213 94.5t-189 119.5q-9 14 3.5 49.5t37.5 61t46 15.5q80 -38 221 -112.5t143 -75.5q17 -10 18.5 -35.5t-8 -51t-26 -45.5t-33.5 -20zM148 -62q-33 0 -44 56l-8 1120q0 78 100 148q174 80 352 80h56q152 0 152 -160q24 -160 24 -420q-16 -732 -28 -732
q-29 -32 -80 -32h-52q-44 0 -44 36q13 203 24 448l-328 20q0 -91 4 -480q4 -31 4 -44q0 -40 -132 -40zM616 650l8 288q3 114 -21 173t-71 59q-19 4 -40 4q-102 0 -204 -60q-28 -31 -28 -112l12 -336z" />
    <glyph glyph-name="aacute" unicode="&#xe1;" horiz-adv-x="872" 
d="M299 1453q-31 -3 -59.5 25t-28.5 80q0 19 16 35.5t35 27.5t69 36q30 15 91 47.5t94 48t57 21.5q35 10 58 -22t23 -91q0 -21 -31 -42.5t-107 -61.5q-16 -8 -25 -13q-165 -88 -192 -91zM148 -62q-33 0 -44 56l-8 1120q0 78 100 148q174 80 352 80h56q152 0 152 -160
q24 -160 24 -420q-16 -732 -28 -732q-29 -32 -80 -32h-52q-44 0 -44 36q13 203 24 448l-328 20q0 -91 4 -480q4 -31 4 -44q0 -40 -132 -40zM616 650l8 288q3 114 -21 173t-71 59q-19 4 -40 4q-102 0 -204 -60q-28 -31 -28 -112l12 -336z" />
    <glyph glyph-name="acircumflex" unicode="&#xe2;" horiz-adv-x="872" 
d="M246 1445q-46 23 -60 50.5t2 45.5q182 250 203 268q23 14 56 10q29 -4 142.5 -122.5t117.5 -143.5q5 -33 -25 -63.5t-59 -24.5q-16 4 -53 39t-107 108q-13 14 -20 21q-132 -160 -152 -180q-19 -21 -45 -8zM148 -62q-33 0 -44 56l-8 1120q0 78 100 148q174 80 352 80h56
q152 0 152 -160q24 -160 24 -420q-16 -732 -28 -732q-29 -32 -80 -32h-52q-44 0 -44 36q13 203 24 448l-328 20q0 -91 4 -480q4 -31 4 -44q0 -40 -132 -40zM616 650l8 288q3 114 -21 173t-71 59q-19 4 -40 4q-102 0 -204 -60q-28 -31 -28 -112l12 -336z" />
    <glyph glyph-name="atilde" unicode="&#xe3;" horiz-adv-x="872" 
d="M192 1458q-35 0 -68.5 26.5t-33.5 59.5q0 91 63.5 174t144.5 86q43 2 78 -11t58 -33t42.5 -40t39.5 -34t41 -14q46 0 93 128q6 22 18.5 28.5t38.5 4.5q89 -7 89 -64q0 -50 -32 -116t-81.5 -114.5t-94.5 -48.5q-53 0 -87.5 12.5t-78.5 52.5q-11 10 -25.5 25.5t-22 22.5
t-20 13t-27.5 6q-23 0 -39 -25.5t-24.5 -56.5t-27 -56.5t-44.5 -25.5zM148 -62q-33 0 -44 56l-8 1120q0 78 100 148q174 80 352 80h56q152 0 152 -160q24 -160 24 -420q-16 -732 -28 -732q-29 -32 -80 -32h-52q-44 0 -44 36q13 203 24 448l-328 20q0 -91 4 -480q4 -31 4 -44
q0 -40 -132 -40zM616 650l8 288q3 114 -21 173t-71 59q-19 4 -40 4q-102 0 -204 -60q-28 -31 -28 -112l12 -336z" />
    <glyph glyph-name="adieresis" unicode="&#xe4;" horiz-adv-x="872" 
d="M236 1486q-76 0 -76 44v144q0 65 80 64h48q22 0 39 -16t17 -44q0 -10 -0.5 -28.5t-1.5 -52.5t-2 -67q-1 -24 -20 -33t-68 -11h-16zM612 1474q-104 0 -104 60v128q0 35 19.5 53.5t52.5 18.5h24q41 0 63 -12.5t21 -51.5q0 -66 0.5 -104.5t-9.5 -59t-24 -26.5t-43 -6z
M148 -62q-33 0 -44 56l-8 1120q0 78 100 148q174 80 352 80h56q152 0 152 -160q24 -160 24 -420q-16 -732 -28 -732q-29 -32 -80 -32h-52q-44 0 -44 36q13 203 24 448l-328 20q0 -91 4 -480q4 -31 4 -44q0 -40 -132 -40zM616 650l8 288q3 114 -21 173t-71 59q-19 4 -40 4
q-102 0 -204 -60q-28 -31 -28 -112l12 -336z" />
    <glyph glyph-name="aring" unicode="&#xe5;" horiz-adv-x="872" 
d="M420 1449q-98 0 -155 70.5t-57 173.5q0 127 136 188q57 27 112.5 22.5t99 -29t70 -72.5t26.5 -109q0 -123 -59.5 -183.5t-172.5 -60.5zM440 1589q32 0 54 21t22 59q0 46 -20 74.5t-53 29.5q-36 1 -64 -29t-28 -79q0 -36 23.5 -56t65.5 -20zM148 -62q-33 0 -44 56l-8 1120
q0 78 100 148q174 80 352 80h56q152 0 152 -160q24 -160 24 -420q-16 -732 -28 -732q-29 -32 -80 -32h-52q-44 0 -44 36q13 203 24 448l-328 20q0 -91 4 -480q4 -31 4 -44q0 -40 -132 -40zM616 650l8 288q3 114 -21 173t-71 59q-19 4 -40 4q-102 0 -204 -60
q-28 -31 -28 -112l12 -336z" />
    <glyph glyph-name="ae" unicode="&#xe6;" horiz-adv-x="1219" 
d="M148 -62q-18 0 -31 15t-13 41l-8 1120q0 43 28.5 85t83.5 71q81 42 174.5 54.5t237.5 9.5q24 0 63.5 -0.5t68.5 -0.5t67 -1t66 -3t59 -5t52.5 -8t39.5 -12.5t27 -18t9 -23.5q0 -73 -11.5 -96.5t-52.5 -23.5q-120 0 -248 4q-4 -197 -4 -336h248q60 0 60 -88
q0 -47 -13.5 -63.5t-54.5 -16.5l-248 -8l8 -468q103 5 207.5 10.5t108.5 5.5q24 0 34 -13.5t14 -46.5q0 -63 -11.5 -88.5t-52.5 -27.5l-356 -24q-43 -3 -67 3t-36 28t-14.5 47t-2.5 78q0 213 4 384l-312 20q0 -439 8 -564q1 -16 -14.5 -25t-43 -12t-74.5 -3zM584 694
q4 192 12 472q-89 9 -188.5 -5t-119.5 -55q-11 -23 -15.5 -75t-4 -99.5t2 -122t1.5 -103.5z" />
    <glyph glyph-name="ccedilla" unicode="&#xe7;" horiz-adv-x="660" 
d="M369 -132q160 -3 160 -141q0 -69 -42.5 -119t-100.5 -50q-36 0 -60 29.5t-24 57.5q0 16 31 19q41 4 61.5 17t14.5 39q-5 18 -13 28t-23 13t-28 3t-39.5 -2t-44.5 -2q-19 0 -29.5 10t-10.5 26q0 31 41 139q-83 21 -133.5 73t-50.5 129q-4 396 -4 600q0 423 88 532
q38 48 192 48h16q132 0 160.5 -17t43.5 -111q16 -101 16 -272q0 -26 -27 -35.5t-93 -12.5q-41 0 -44 120q-2 87 -16 156h-60q-105 0 -108 -160q-10 -536 -12 -768q0 -54 48 -87t126 -33q19 0 30.5 53t11.5 139q0 28 11 39t36 13q61 -6 81 -20.5t20 -63.5
q6 -168 -39.5 -251.5t-169.5 -85.5q-11 -27 -16 -52z" />
    <glyph glyph-name="egrave" unicode="&#xe8;" horiz-adv-x="738" 
d="M517 1447q-41 0 -213 94.5t-189 119.5q-9 14 3.5 49.5t37.5 61t46 15.5q80 -38 221 -112.5t143 -75.5q17 -10 18.5 -35.5t-8 -51t-26 -45.5t-33.5 -20zM196 -37q-49 0 -68.5 8.5t-19.5 35.5q-21 365 -16 624q6 319 15.5 480t35.5 183q22 19 103 24t275 2q48 0 63.5 -16.5
t15.5 -73.5q0 -63 -20 -77t-100 -14q-70 0 -192 -12q0 -195 -4 -356l264 20q31 3 37.5 -17.5t6.5 -78.5q0 -43 -11 -57t-49 -19q-18 -3 -256 -20l8 -448q66 5 324 16q23 0 31.5 -19t8.5 -61q0 -58 -14 -76t-54 -20z" />
    <glyph glyph-name="eacute" unicode="&#xe9;" horiz-adv-x="738" 
d="M220 1443q-31 -3 -59.5 25t-28.5 80q0 19 16 35.5t35 27.5t69 36q30 15 91 47.5t94 48t57 21.5q35 10 58 -22t23 -91q0 -21 -31 -42.5t-107 -61.5q-16 -8 -25 -13q-165 -88 -192 -91zM196 -37q-49 0 -68.5 8.5t-19.5 35.5q-21 365 -16 624q6 319 15.5 480t35.5 183
q22 19 103 24t275 2q48 0 63.5 -16.5t15.5 -73.5q0 -63 -20 -77t-100 -14q-70 0 -192 -12q0 -195 -4 -356l264 20q31 3 37.5 -17.5t6.5 -78.5q0 -43 -11 -57t-49 -19q-18 -3 -256 -20l8 -448q66 5 324 16q23 0 31.5 -19t8.5 -61q0 -58 -14 -76t-54 -20z" />
    <glyph glyph-name="ecircumflex" unicode="&#xea;" horiz-adv-x="738" 
d="M176 1465q-46 23 -60 50.5t2 45.5q182 250 203 268q23 14 56 10q29 -4 142.5 -122.5t117.5 -143.5q5 -33 -25 -63.5t-59 -24.5q-16 4 -53 39t-107 108q-13 14 -20 21q-132 -160 -152 -180q-19 -21 -45 -8zM196 -37q-49 0 -68.5 8.5t-19.5 35.5q-21 365 -16 624
q6 319 15.5 480t35.5 183q22 19 103 24t275 2q48 0 63.5 -16.5t15.5 -73.5q0 -63 -20 -77t-100 -14q-70 0 -192 -12q0 -195 -4 -356l264 20q31 3 37.5 -17.5t6.5 -78.5q0 -43 -11 -57t-49 -19q-18 -3 -256 -20l8 -448q66 5 324 16q23 0 31.5 -19t8.5 -61q0 -58 -14 -76
t-54 -20z" />
    <glyph glyph-name="edieresis" unicode="&#xeb;" horiz-adv-x="738" 
d="M176 1486q-76 0 -76 44v144q0 65 80 64h48q22 0 39 -16t17 -44q0 -10 -0.5 -28.5t-1.5 -52.5t-2 -67q-1 -24 -20 -33t-68 -11h-16zM552 1474q-104 0 -104 60v128q0 35 19.5 53.5t52.5 18.5h24q41 0 63 -12.5t21 -51.5q0 -66 0.5 -104.5t-9.5 -59t-24 -26.5t-43 -6z
M196 -37q-49 0 -68.5 8.5t-19.5 35.5q-21 365 -16 624q6 319 15.5 480t35.5 183q22 19 103 24t275 2q48 0 63.5 -16.5t15.5 -73.5q0 -63 -20 -77t-100 -14q-70 0 -192 -12q0 -195 -4 -356l264 20q31 3 37.5 -17.5t6.5 -78.5q0 -43 -11 -57t-49 -19q-18 -3 -256 -20l8 -448
q66 5 324 16q23 0 31.5 -19t8.5 -61q0 -58 -14 -76t-54 -20z" />
    <glyph glyph-name="igrave" unicode="&#xec;" horiz-adv-x="440" 
d="M356 1422q-41 0 -213 94.5t-189 119.5q-9 14 3.5 49.5t37.5 61t46 15.5q80 -38 221 -112.5t143 -75.5q17 -10 18.5 -35.5t-8 -51t-26 -45.5t-33.5 -20zM181 -41q-84 0 -84 36q0 56 20 878q0 77 0.5 119t-2.5 91.5t-4.5 68.5t-5 50t-4.5 36q-2 34 15 47.5t53 13.5h52
q52 0 67 -90q10 -61 9 -285v-51q0 -21 -8 -306.5t-8 -535.5q0 -60 -100 -72z" />
    <glyph glyph-name="iacute" unicode="&#xed;" horiz-adv-x="440" 
d="M29 1420q-31 -3 -59.5 25t-28.5 80q0 19 16 35.5t35 27.5t69 36q30 15 91 47.5t94 48t57 21.5q35 10 58 -22t23 -91q0 -21 -31 -42.5t-107 -61.5q-16 -8 -25 -13q-165 -88 -192 -91zM181 -41q-84 0 -84 36q0 56 20 878q0 77 0.5 119t-2.5 91.5t-4.5 68.5t-5 50t-4.5 36
q-2 34 15 47.5t53 13.5h52q52 0 67 -90q10 -61 9 -285v-51q0 -21 -8 -306.5t-8 -535.5q0 -60 -100 -72z" />
    <glyph glyph-name="icircumflex" unicode="&#xee;" horiz-adv-x="440" 
d="M-12 1395q-46 23 -60 50.5t2 45.5q182 250 203 268q23 14 56 10q29 -4 142.5 -122.5t117.5 -143.5q5 -33 -25 -63.5t-59 -24.5q-16 4 -53 39t-107 108q-13 14 -20 21q-132 -160 -152 -180q-19 -21 -45 -8zM181 -41q-84 0 -84 36q0 56 20 878q0 77 0.5 119t-2.5 91.5
t-4.5 68.5t-5 50t-4.5 36q-2 34 15 47.5t53 13.5h52q52 0 67 -90q10 -61 9 -285v-51q0 -21 -8 -306.5t-8 -535.5q0 -60 -100 -72z" />
    <glyph glyph-name="idieresis" unicode="&#xef;" horiz-adv-x="480" 
d="M36 1426q-76 0 -76 44v144q0 65 80 64h48q22 0 39 -16t17 -44q0 -10 -0.5 -28.5t-1.5 -52.5t-2 -67q-1 -24 -20 -33t-68 -11h-16zM412 1414q-104 0 -104 60v128q0 35 19.5 53.5t52.5 18.5h24q41 0 63 -12.5t21 -51.5q0 -66 0.5 -104.5t-9.5 -59t-24 -26.5t-43 -6z
M221 -41q-84 0 -84 36q0 56 20 878q0 77 0.5 119t-2.5 91.5t-4.5 68.5t-5 50t-4.5 36q-2 34 15 47.5t53 13.5h52q52 0 67 -90q10 -61 9 -285v-51q0 -21 -8 -306.5t-8 -535.5q0 -60 -100 -72z" />
    <glyph glyph-name="eth" unicode="&#xf0;" horiz-adv-x="783" 
d="M627 1119q70 -202 70 -510q0 -474 -134 -602q-48 -46 -130.5 -61t-209.5 -15q-104 0 -104 60v4q0 359 -1 582q-37 -1 -110 -1q-16 0 -23.5 12t-9.5 46q-5 113 48 114l94 3q0 134 -2 468q0 33 17.5 55t52 32t70.5 13.5t88 3.5q109 0 177.5 -47.5t106.5 -156.5zM274 95
q61 0 102.5 10t70.5 41t44.5 62t25 102t12.5 128.5t6 172.5q0 128 -5.5 214.5t-19 152.5t-37 102t-58 53.5t-84.5 17.5q-33 0 -69 -8q6 -194 10 -385l121 6q21 0 28.5 -29t7.5 -95q0 -54 -46 -56q-19 -1 -55 -2.5t-54 -1.5v-25v-460z" />
    <glyph glyph-name="ntilde" unicode="&#xf1;" horiz-adv-x="938" 
d="M205 1462q-35 0 -68.5 26.5t-33.5 59.5q0 91 63.5 174t144.5 86q43 2 78 -11t58 -33t42.5 -40t39.5 -34t41 -14q46 0 93 128q6 22 18.5 28.5t38.5 4.5q89 -7 89 -64q0 -50 -32 -116t-81.5 -114.5t-94.5 -48.5q-53 0 -87.5 12.5t-78.5 52.5q-11 10 -25.5 25.5t-22 22.5
t-20 13t-27.5 6q-23 0 -39 -25.5t-24.5 -56.5t-27 -56.5t-44.5 -25.5zM213 -52q-92 0 -92 52q-28 1233 -28 1320q0 15 19.5 23.5t48.5 8.5q47 0 65 -2t34 -14t27 -40q10 -27 58 -226q16 -67 49 -146t59.5 -130.5t79.5 -147.5q59 -103 125 -252q-27 291 -9 906q0 32 20 42
t72 10q48 0 71.5 -12.5t21.5 -49.5q-21 -496 7 -1262q0 -30 -38 -47t-89 -17q-62 0 -101 104q-136 294 -256 504l-87 181l33 -753q0 -52 -90 -52z" />
    <glyph glyph-name="ograve" unicode="&#xf2;" horiz-adv-x="722" 
d="M517 1437q-41 0 -213 94.5t-189 119.5q-9 14 3.5 49.5t37.5 61t46 15.5q80 -38 221 -112.5t143 -75.5q17 -10 18.5 -35.5t-8 -51t-26 -45.5t-33.5 -20zM296 -56q-163 0 -216 392q-20 168 -20 416q0 106 6.5 185t24.5 154.5t49 124.5t82.5 80.5t121.5 35.5
q59 4 105.5 -24.5t77 -82.5t51 -121t31 -150t14 -159.5t1.5 -158.5q-4 -237 -15 -323q-24 -201 -109 -297q-39 -44 -87 -58t-117 -14zM324 120q71 0 98.5 136t37.5 488q0 65 -6 129.5t-20 128.5t-41.5 104t-64.5 40q-38 0 -64.5 -76t-37 -177t-10.5 -213q0 -180 15 -309.5
t39 -190t54 -60.5z" />
    <glyph glyph-name="oacute" unicode="&#xf3;" horiz-adv-x="722" 
d="M189 1430q-31 -3 -59.5 25t-28.5 80q0 19 16 35.5t35 27.5t69 36q30 15 91 47.5t94 48t57 21.5q35 10 58 -22t23 -91q0 -21 -31 -42.5t-107 -61.5q-16 -8 -25 -13q-165 -88 -192 -91zM296 -56q-163 0 -216 392q-20 168 -20 416q0 106 6.5 185t24.5 154.5t49 124.5
t82.5 80.5t121.5 35.5q59 4 105.5 -24.5t77 -82.5t51 -121t31 -150t14 -159.5t1.5 -158.5q-4 -237 -15 -323q-24 -201 -109 -297q-39 -44 -87 -58t-117 -14zM324 120q71 0 98.5 136t37.5 488q0 65 -6 129.5t-20 128.5t-41.5 104t-64.5 40q-38 0 -64.5 -76t-37 -177
t-10.5 -213q0 -180 15 -309.5t39 -190t54 -60.5z" />
    <glyph glyph-name="ocircumflex" unicode="&#xf4;" horiz-adv-x="722" 
d="M136 1445q-46 23 -60 50.5t2 45.5q182 250 203 268q23 14 56 10q29 -4 142.5 -122.5t117.5 -143.5q5 -33 -25 -63.5t-59 -24.5q-16 4 -53 39t-107 108q-13 14 -20 21q-132 -160 -152 -180q-19 -21 -45 -8zM296 -56q-163 0 -216 392q-20 168 -20 416q0 106 6.5 185
t24.5 154.5t49 124.5t82.5 80.5t121.5 35.5q59 4 105.5 -24.5t77 -82.5t51 -121t31 -150t14 -159.5t1.5 -158.5q-4 -237 -15 -323q-24 -201 -109 -297q-39 -44 -87 -58t-117 -14zM324 120q71 0 98.5 136t37.5 488q0 65 -6 129.5t-20 128.5t-41.5 104t-64.5 40
q-38 0 -64.5 -76t-37 -177t-10.5 -213q0 -180 15 -309.5t39 -190t54 -60.5z" />
    <glyph glyph-name="otilde" unicode="&#xf5;" horiz-adv-x="722" 
d="M122 1458q-35 0 -68.5 26.5t-33.5 59.5q0 91 63.5 174t144.5 86q43 2 78 -11t58 -33t42.5 -40t39.5 -34t41 -14q46 0 93 128q6 22 18.5 28.5t38.5 4.5q89 -7 89 -64q0 -50 -32 -116t-81.5 -114.5t-94.5 -48.5q-53 0 -87.5 12.5t-78.5 52.5q-11 10 -25.5 25.5t-22 22.5
t-20 13t-27.5 6q-23 0 -39 -25.5t-24.5 -56.5t-27 -56.5t-44.5 -25.5zM296 -56q-163 0 -216 392q-20 168 -20 416q0 106 6.5 185t24.5 154.5t49 124.5t82.5 80.5t121.5 35.5q59 4 105.5 -24.5t77 -82.5t51 -121t31 -150t14 -159.5t1.5 -158.5q-4 -237 -15 -323
q-24 -201 -109 -297q-39 -44 -87 -58t-117 -14zM324 120q71 0 98.5 136t37.5 488q0 65 -6 129.5t-20 128.5t-41.5 104t-64.5 40q-38 0 -64.5 -76t-37 -177t-10.5 -213q0 -180 15 -309.5t39 -190t54 -60.5z" />
    <glyph glyph-name="odieresis" unicode="&#xf6;" horiz-adv-x="722" 
d="M153 1466q-76 0 -76 44v144q0 65 80 64h48q22 0 39 -16t17 -44q0 -10 -0.5 -28.5t-1.5 -52.5t-2 -67q-1 -24 -20 -33t-68 -11h-16zM529 1454q-104 0 -104 60v128q0 35 19.5 53.5t52.5 18.5h24q41 0 63 -12.5t21 -51.5q0 -66 0.5 -104.5t-9.5 -59t-24 -26.5t-43 -6z
M296 -56q-163 0 -216 392q-20 168 -20 416q0 106 6.5 185t24.5 154.5t49 124.5t82.5 80.5t121.5 35.5q59 4 105.5 -24.5t77 -82.5t51 -121t31 -150t14 -159.5t1.5 -158.5q-4 -237 -15 -323q-24 -201 -109 -297q-39 -44 -87 -58t-117 -14zM324 120q71 0 98.5 136t37.5 488
q0 65 -6 129.5t-20 128.5t-41.5 104t-64.5 40q-38 0 -64.5 -76t-37 -177t-10.5 -213q0 -180 15 -309.5t39 -190t54 -60.5z" />
    <glyph glyph-name="divide" unicode="&#xf7;" horiz-adv-x="803" 
d="M398 985q-47 0 -79 32t-32 74q0 41 32 73t79 32q46 0 78 -32t32 -73q0 -42 -32 -74t-78 -32zM229 690q-41 -4 -62.5 20.5t-21.5 63.5v32q0 43 38 53.5t158 10.5q179 0 240 8q38 4 57 -26.5t19 -89.5q0 -68 -148 -68q-97 0 -280 -4zM406 377q-47 0 -79 32t-32 74
q0 41 32 73t79 32q46 0 78 -32t32 -73q0 -42 -32 -74t-78 -32z" />
    <glyph glyph-name="oslash" unicode="&#xf8;" horiz-adv-x="849" 
d="M72 -64q-33 7 -45 22.5t-12 41.5q0 61 129 250q-46 197 -46 400q0 520 162 646q45 35 102 39t108 -19.5t93 -71t58 -108.5q7 12 20.5 37t19 35t16 28t16.5 26t15.5 18t18 15t17.5 8q44 12 72 -5t28 -43q0 -14 -16 -48.5t-59.5 -116t-72.5 -138.5q14 -88 17 -217
t-4.5 -256t-29 -237.5t-52.5 -156.5q-107 -157 -263 -141q-42 4 -87.5 30t-71.5 70q-73 -120 -133 -108zM275 493q4 11 27 60t78.5 154.5t121.5 222.5q0 91 -32.5 146t-95.5 50q-38 -3 -66 -81.5t-38 -182.5t-9 -208.5t14 -160.5zM384 124q24 0 44 13t35.5 40t27.5 58t21 77
t15 88t11 99.5t8 101.5t6 104q-198 -388 -241 -489q13 -52 29 -72t44 -20z" />
    <glyph glyph-name="ugrave" unicode="&#xf9;" horiz-adv-x="769" 
d="M544 1457q-41 0 -213 94.5t-189 119.5q-9 14 3.5 49.5t37.5 61t46 15.5q80 -38 221 -112.5t143 -75.5q17 -10 18.5 -35.5t-8 -51t-26 -45.5t-33.5 -20zM346 -27q-149 0 -205 97q-44 77 -53 270q-2 45 -4 149q-2 74 -3 114q-5 173 6.5 385.5t27.5 292.5q3 17 13.5 25
t20 10t32.5 3q48 3 80 -10.5t32 -37.5q-28 -413 -28 -536q0 -279 6 -358q18 -213 94 -214q32 0 52.5 6.5t36.5 28.5t24.5 51.5t14 88t7 126t1.5 175.5q0 68 -8 601q0 28 23 35.5t97 7.5q34 0 49.5 -19.5t18.5 -86.5q8 -445 8 -502v-46q0 -110 -0.5 -160.5t-4.5 -132
t-12.5 -116.5t-25 -87.5t-41 -73.5t-61 -45.5t-85.5 -32.5t-113 -8z" />
    <glyph glyph-name="uacute" unicode="&#xfa;" horiz-adv-x="769" 
d="M275 1419q-31 -3 -59.5 25t-28.5 80q0 19 16 35.5t35 27.5t69 36q30 15 91 47.5t94 48t57 21.5q35 10 58 -22t23 -91q0 -21 -31 -42.5t-107 -61.5q-16 -8 -25 -13q-165 -88 -192 -91zM346 -27q-149 0 -205 97q-44 77 -53 270q-2 45 -4 149q-2 74 -3 114q-5 173 6.5 385.5
t27.5 292.5q3 17 13.5 25t20 10t32.5 3q48 3 80 -10.5t32 -37.5q-28 -413 -28 -536q0 -279 6 -358q18 -213 94 -214q32 0 52.5 6.5t36.5 28.5t24.5 51.5t14 88t7 126t1.5 175.5q0 68 -8 601q0 28 23 35.5t97 7.5q34 0 49.5 -19.5t18.5 -86.5q8 -445 8 -502v-46
q0 -110 -0.5 -160.5t-4.5 -132t-12.5 -116.5t-25 -87.5t-41 -73.5t-61 -45.5t-85.5 -32.5t-113 -8z" />
    <glyph glyph-name="ucircumflex" unicode="&#xfb;" horiz-adv-x="769" 
d="M181 1446q-46 23 -60 50.5t2 45.5q182 250 203 268q23 14 56 10q29 -4 142.5 -122.5t117.5 -143.5q5 -33 -25 -63.5t-59 -24.5q-16 4 -53 39t-107 108q-13 14 -20 21q-132 -160 -152 -180q-19 -21 -45 -8zM346 -27q-149 0 -205 97q-44 77 -53 270q-2 45 -4 149
q-2 74 -3 114q-5 173 6.5 385.5t27.5 292.5q3 17 13.5 25t20 10t32.5 3q48 3 80 -10.5t32 -37.5q-28 -413 -28 -536q0 -279 6 -358q18 -213 94 -214q32 0 52.5 6.5t36.5 28.5t24.5 51.5t14 88t7 126t1.5 175.5q0 68 -8 601q0 28 23 35.5t97 7.5q34 0 49.5 -19.5t18.5 -86.5
q8 -445 8 -502v-46q0 -110 -0.5 -160.5t-4.5 -132t-12.5 -116.5t-25 -87.5t-41 -73.5t-61 -45.5t-85.5 -32.5t-113 -8z" />
    <glyph glyph-name="udieresis" unicode="&#xfc;" horiz-adv-x="769" 
d="M209 1470q-76 0 -76 44v144q0 65 80 64h48q22 0 39 -16t17 -44q0 -10 -0.5 -28.5t-1.5 -52.5t-2 -67q-1 -24 -20 -33t-68 -11h-16zM585 1458q-104 0 -104 60v128q0 35 19.5 53.5t52.5 18.5h24q41 0 63 -12.5t21 -51.5q0 -66 0.5 -104.5t-9.5 -59t-24 -26.5t-43 -6z
M346 -27q-149 0 -205 97q-44 77 -53 270q-2 45 -4 149q-2 74 -3 114q-5 173 6.5 385.5t27.5 292.5q3 17 13.5 25t20 10t32.5 3q48 3 80 -10.5t32 -37.5q-28 -413 -28 -536q0 -279 6 -358q18 -213 94 -214q32 0 52.5 6.5t36.5 28.5t24.5 51.5t14 88t7 126t1.5 175.5
q0 68 -8 601q0 28 23 35.5t97 7.5q34 0 49.5 -19.5t18.5 -86.5q8 -445 8 -502v-46q0 -110 -0.5 -160.5t-4.5 -132t-12.5 -116.5t-25 -87.5t-41 -73.5t-61 -45.5t-85.5 -32.5t-113 -8z" />
    <glyph glyph-name="yacute" unicode="&#xfd;" horiz-adv-x="730" 
d="M205 1502q-31 -3 -59.5 25t-28.5 80q0 19 16 35.5t35 27.5t69 36q30 15 91 47.5t94 48t57 21.5q35 10 58 -22t23 -91q0 -21 -31 -42.5t-107 -61.5q-16 -8 -25 -13q-165 -88 -192 -91zM276 -80q-40 0 -61.5 9.5t-20.5 29.5q25 668 25 679q-7 29 -95 336t-93 353
q-2 26 21 42t80 20q32 2 45.5 -9t29.5 -55q79 -269 120 -447q177 459 190 487q16 38 43 41.5t73 -28.5q47 -33 34 -77q-78 -238 -248 -657q-33 -661 -33 -664q-4 -42 -22 -51t-73 -9h-15z" />
    <glyph glyph-name="thorn" unicode="&#xfe;" horiz-adv-x="776" 
d="M246 -97q-100 0 -100 48q0 208 -14 660t-14 696q0 35 48 40h84q52 -4 52 -40q0 -12 4 -152q92 0 156 -16.5t109 -52t70 -98.5t36 -148t11 -209q0 -233 -91 -352.5t-271 -119.5q4 -148 4 -213q0 -30 -15.5 -36.5t-68.5 -6.5zM318 337q111 0 161.5 77.5t50.5 245.5
q0 179 -54.5 249.5t-171.5 65.5q0 -15 4.5 -249t9.5 -389z" />
    <glyph glyph-name="ydieresis" unicode="&#xff;" horiz-adv-x="730" 
d="M164 1501q-76 0 -76 44v144q0 65 80 64h48q22 0 39 -16t17 -44q0 -10 -0.5 -28.5t-1.5 -52.5t-2 -67q-1 -24 -20 -33t-68 -11h-16zM540 1489q-104 0 -104 60v128q0 35 19.5 53.5t52.5 18.5h24q41 0 63 -12.5t21 -51.5q0 -66 0.5 -104.5t-9.5 -59t-24 -26.5t-43 -6z
M276 -80q-40 0 -61.5 9.5t-20.5 29.5q25 668 25 679q-7 29 -95 336t-93 353q-2 26 21 42t80 20q32 2 45.5 -9t29.5 -55q79 -269 120 -447q177 459 190 487q16 38 43 41.5t73 -28.5q47 -33 34 -77q-78 -238 -248 -657q-33 -661 -33 -664q-4 -42 -22 -51t-73 -9h-15z" />
    <glyph glyph-name="Amacron" unicode="&#x100;" horiz-adv-x="1052" 
d="M375 1710q-48 2 -41 95q3 40 17 56.5t48 19.5q232 16 368 6q19 -1 28 -14t8.5 -32.5t-1.5 -44.5q-4 -71 -65 -71q-21 0 -148.5 -9t-213.5 -6zM202 -32q-60 0 -60 16q-4 148 -4 248q0 50 3 120t6.5 122.5t14 203.5t16.5 246q2 32 6.5 104.5t6.5 97.5t6.5 69.5t10.5 71.5
t14 52q52 154 176 211.5t352 57.5q124 0 124 -116q-8 -402 3.5 -739t48.5 -697q3 -18 -24.5 -31t-75.5 -13q-75 5 -76 24l-32 564q-163 0 -400 -16q-5 -67 -7 -156.5t-2 -149.5t0.5 -152t0.5 -110q0 -12 -33 -20t-75 -8zM326 728q39 2 176.5 9.5t211.5 10.5q-8 168 -8 326
q0 159 8 341q-103 -1 -175.5 -15t-124.5 -60q-9 -7 -15.5 -16t-12 -22t-9.5 -23.5t-7.5 -30t-5.5 -31t-4 -37.5l-3 -39l-3.5 -45.5t-3.5 -47.5q0 -4 -8.5 -111.5t-15.5 -208.5z" />
    <glyph glyph-name="amacron" unicode="&#x101;" horiz-adv-x="872" 
d="M233 1476q-48 2 -41 95q3 40 17 56.5t48 19.5q232 16 368 6q19 -1 28 -14t8.5 -32.5t-1.5 -44.5q-4 -71 -65 -71q-21 0 -148.5 -9t-213.5 -6zM148 -62q-33 0 -44 56l-8 1120q0 78 100 148q174 80 352 80h56q152 0 152 -160q24 -160 24 -420q-16 -732 -28 -732
q-29 -32 -80 -32h-52q-44 0 -44 36q13 203 24 448l-328 20q0 -91 4 -480q4 -31 4 -44q0 -40 -132 -40zM616 650l8 288q3 114 -21 173t-71 59q-19 4 -40 4q-102 0 -204 -60q-28 -31 -28 -112l12 -336z" />
    <glyph glyph-name="Abreve" unicode="&#x102;" horiz-adv-x="1052" 
d="M548 1677q-23 0 -44 3q-159 22 -226 178q-12 32 -12 56q0 43 32 58q12 7 23 7q35 0 78 -56q59 -78 154 -81q104 4 172 78q31 49 64 49q3 0 15 -2q33 -6 44 -47v-4q0 -51 -26 -91q-58 -115 -215 -144q-28 -4 -59 -4zM202 -32q-60 0 -60 16q-4 148 -4 248q0 50 3 120
t6.5 122.5t14 203.5t16.5 246q2 32 6.5 104.5t6.5 97.5t6.5 69.5t10.5 71.5t14 52q52 154 176 211.5t352 57.5q124 0 124 -116q-8 -402 3.5 -739t48.5 -697q3 -18 -24.5 -31t-75.5 -13q-75 5 -76 24l-32 564q-163 0 -400 -16q-5 -67 -7 -156.5t-2 -149.5t0.5 -152t0.5 -110
q0 -12 -33 -20t-75 -8zM326 728q39 2 176.5 9.5t211.5 10.5q-8 168 -8 326q0 159 8 341q-103 -1 -175.5 -15t-124.5 -60q-9 -7 -15.5 -16t-12 -22t-9.5 -23.5t-7.5 -30t-5.5 -31t-4 -37.5l-3 -39l-3.5 -45.5t-3.5 -47.5q0 -4 -8.5 -111.5t-15.5 -208.5z" />
    <glyph glyph-name="abreve" unicode="&#x103;" horiz-adv-x="872" 
d="M410 1460q-23 0 -44 3q-159 22 -226 178q-12 31 -12 56q0 43 32 58q12 7 23 7q35 0 78 -56q59 -78 154 -81q104 4 172 78q31 49 64 49q3 0 15 -2q33 -6 44 -47v-4q0 -51 -26 -91q-58 -115 -215 -144q-28 -4 -59 -4zM148 -62q-33 0 -44 56l-8 1120q0 78 100 148
q174 80 352 80h56q152 0 152 -160q24 -160 24 -420q-16 -732 -28 -732q-29 -32 -80 -32h-52q-44 0 -44 36q13 203 24 448l-328 20q0 -91 4 -480q4 -31 4 -44q0 -40 -132 -40zM616 650l8 288q3 114 -21 173t-71 59q-19 4 -40 4q-102 0 -204 -60q-28 -31 -28 -112l12 -336z
" />
    <glyph glyph-name="Aogonek" unicode="&#x104;" horiz-adv-x="1071" 
d="M916 -231q28 0 29 -26v-19q0 -91 -148 -91q-90 0 -140.5 58.5t-50.5 151.5q0 153 144 169l-32 568q-163 0 -400 -16q-5 -67 -7 -156.5t-2 -149.5t0.5 -152t0.5 -110q0 -12 -33 -20t-75 -8q-60 0 -60 16q-4 148 -4 248q0 50 3 120t6.5 122.5t14 203.5t16.5 246
q2 32 6.5 104.5t6.5 97.5t6.5 69.5t10.5 71.5t14 52q52 154 176 211.5t352 57.5q124 0 124 -116q-8 -392 2.5 -721.5t45.5 -678.5q14 -112 11 -140q-6 -46 -47 -51q-22 -3 -54.5 0t-51 4t-33 -10.5t-14.5 -40.5t20 -58t52 -29q22 0 59.5 11t51.5 11zM714 748q-8 168 -8 326
q0 159 8 341q-103 -1 -175.5 -15t-124.5 -60q-9 -7 -15.5 -16t-12 -22t-9.5 -23.5t-7.5 -30t-5.5 -31t-4 -37.5l-3 -39l-3.5 -45.5t-3.5 -47.5q0 -4 -8.5 -111.5t-15.5 -208.5q39 2 176.5 9.5t211.5 10.5z" />
    <glyph glyph-name="aogonek" unicode="&#x105;" horiz-adv-x="872" 
d="M675 -101q-31 -2 -57.5 -1.5t-46 -0.5t-31 -16t-11.5 -47q0 -31 22 -63t57 -32q23 0 64.5 12t56.5 12q29 0 32 -29v-20q0 -100 -162 -100q-99 0 -154 64t-55 166q0 182 186 187v3q13 203 24 448l-328 20q0 -91 4 -480q4 -31 4 -44q0 -40 -132 -40q-33 0 -44 56l-8 1120
q0 78 100 148q174 80 352 80h56q152 0 152 -160q24 -160 24 -420q-9 -418 -19 -635q-1 -17 -2.5 -43t-2.5 -39l-2.5 -32.5t-3 -29t-5 -23.5t-7.5 -21t-10 -15.5t-13.5 -12.5t-17.5 -7.5t-22 -4.5zM272 666l344 -16l8 288q3 114 -21 173t-71 59q-19 4 -40 4q-102 0 -204 -60
q-28 -31 -28 -112z" />
    <glyph glyph-name="Cacute" unicode="&#x106;" horiz-adv-x="1036" 
d="M440 1686q-31 -3 -59.5 25t-28.5 80q0 19 16 35.5t35 27.5t69 36q30 15 91 47.5t94 48t57 21.5q35 10 58 -22t23 -91q0 -21 -31 -42.5t-107 -61.5q-16 -8 -25 -13q-165 -88 -192 -91zM619 -35q-263 0 -392 132q-62 63 -89 219t-27 417q0 611 144 748q59 56 152 76t224 20
q276 0 276 -224q0 -52 -2.5 -83.5t-10.5 -60t-24 -42.5t-42 -22t-65 -8q-36 0 -36 20q0 60 8 196q0 56 -108 56q-251 0 -288 -96q-56 -149 -56 -424q0 -396 14.5 -524t77.5 -172q43 -30 99.5 -45.5t87.5 -17t89 -1.5q43 3 59.5 13t16.5 35q0 93 -12 292q0 37 132 44
q19 1 27.5 -30.5t12.5 -101.5l6 -84t4.5 -63.5t1.5 -28.5q0 -175 -128 -224q-11 -4 -19.5 -7t-19 -4.5t-16.5 -2.5t-20 -1.5t-20 -0.5h-26.5h-30.5z" />
    <glyph glyph-name="cacute" unicode="&#x107;" horiz-adv-x="660" 
d="M229 1431q-31 -3 -59.5 25t-28.5 80q0 19 16 35.5t35 27.5t69 36q30 15 91 47.5t94 48t57 21.5q35 10 58 -22t23 -91q0 -21 -31 -42.5t-107 -61.5q-16 -8 -25 -13q-165 -88 -192 -91zM379 -80q-124 0 -212.5 56.5t-88.5 160.5q-4 396 -4 600q0 423 88 532q38 48 192 48
h16q132 0 160.5 -17t43.5 -111q16 -101 16 -272q0 -26 -27 -35.5t-93 -12.5q-41 0 -44 120q-2 87 -16 156h-60q-105 0 -108 -160q-10 -536 -12 -768q0 -54 48 -87t126 -33q19 0 30.5 53t11.5 139q0 28 11 39t36 13q61 -6 81 -20.5t20 -63.5q6 -171 -41 -254t-174 -83z" />
    <glyph glyph-name="Cdotaccent" unicode="&#x10a;" horiz-adv-x="1036" 
d="M549 1677q-47 0 -79 32t-32 74q0 41 32 73t79 32q46 0 78 -32t32 -73q0 -42 -32 -74t-78 -32zM619 -35q-263 0 -392 132q-62 63 -89 219t-27 417q0 611 144 748q59 56 152 76t224 20q276 0 276 -224q0 -52 -2.5 -83.5t-10.5 -60t-24 -42.5t-42 -22t-65 -8q-36 0 -36 20
q0 60 8 196q0 56 -108 56q-251 0 -288 -96q-56 -149 -56 -424q0 -396 14.5 -524t77.5 -172q43 -30 99.5 -45.5t87.5 -17t89 -1.5q43 3 59.5 13t16.5 35q0 93 -12 292q0 37 132 44q19 1 27.5 -30.5t12.5 -101.5l6 -84t4.5 -63.5t1.5 -28.5q0 -175 -128 -224q-11 -4 -19.5 -7
t-19 -4.5t-16.5 -2.5t-20 -1.5t-20 -0.5h-26.5h-30.5z" />
    <glyph glyph-name="cdotaccent" unicode="&#x10b;" horiz-adv-x="660" 
d="M334 1445q-47 0 -79 32t-32 74q0 41 32 73t79 32q46 0 78 -32t32 -73q0 -42 -32 -74t-78 -32zM379 -80q-124 0 -212.5 56.5t-88.5 160.5q-4 396 -4 600q0 423 88 532q38 48 192 48h16q132 0 160.5 -17t43.5 -111q16 -101 16 -272q0 -26 -27 -35.5t-93 -12.5
q-41 0 -44 120q-2 87 -16 156h-60q-105 0 -108 -160q-10 -536 -12 -768q0 -54 48 -87t126 -33q19 0 30.5 53t11.5 139q0 28 11 39t36 13q61 -6 81 -20.5t20 -63.5q6 -171 -41 -254t-174 -83z" />
    <glyph glyph-name="Ccaron" unicode="&#x10c;" horiz-adv-x="1036" 
d="M516 1683q-7 3 -14.5 8t-14 9.5t-17.5 15.5t-18.5 18t-24.5 24.5t-28 28.5q-123 124 -123 152q0 36 29 62q28 26 55 26q15 0 54.5 -39t121.5 -129l151 183q29 26 86 -15q20 -14 30.5 -32.5t1.5 -31.5q-38 -54 -119.5 -155t-101.5 -117q-13 -11 -34 -12.5t-34 4.5z
M619 -35q-263 0 -392 132q-62 63 -89 219t-27 417q0 611 144 748q59 56 152 76t224 20q276 0 276 -224q0 -52 -2.5 -83.5t-10.5 -60t-24 -42.5t-42 -22t-65 -8q-36 0 -36 20q0 60 8 196q0 56 -108 56q-251 0 -288 -96q-56 -149 -56 -424q0 -396 14.5 -524t77.5 -172
q43 -30 99.5 -45.5t87.5 -17t89 -1.5q43 3 59.5 13t16.5 35q0 93 -12 292q0 37 132 44q19 1 27.5 -30.5t12.5 -101.5l6 -84t4.5 -63.5t1.5 -28.5q0 -175 -128 -224q-11 -4 -19.5 -7t-19 -4.5t-16.5 -2.5t-20 -1.5t-20 -0.5h-26.5h-30.5z" />
    <glyph glyph-name="ccaron" unicode="&#x10d;" horiz-adv-x="660" 
d="M306 1452q-7 3 -14.5 8t-14 9.5t-17.5 15.5t-18.5 18t-24.5 24.5t-28 28.5q-123 124 -123 152q0 36 29 62q28 26 55 26q15 0 54.5 -39t121.5 -129l151 183q29 26 86 -15q20 -14 30.5 -32.5t1.5 -31.5q-38 -54 -119.5 -155t-101.5 -117q-13 -11 -34 -12.5t-34 4.5z
M379 -80q-124 0 -212.5 56.5t-88.5 160.5q-4 396 -4 600q0 423 88 532q38 48 192 48h16q132 0 160.5 -17t43.5 -111q16 -101 16 -272q0 -26 -27 -35.5t-93 -12.5q-41 0 -44 120q-2 87 -16 156h-60q-105 0 -108 -160q-10 -536 -12 -768q0 -54 48 -87t126 -33q19 0 30.5 53
t11.5 139q0 28 11 39t36 13q61 -6 81 -20.5t20 -63.5q6 -171 -41 -254t-174 -83z" />
    <glyph glyph-name="Dcaron" unicode="&#x10e;" horiz-adv-x="905" 
d="M356 1693q-7 3 -14.5 8t-14 9.5t-17.5 15.5t-18.5 18t-24.5 24.5t-28 28.5q-123 124 -123 152q0 36 29 62q28 26 55 26q15 0 54.5 -39t121.5 -129l151 183q29 26 86 -15q20 -14 30.5 -32.5t1.5 -31.5q-38 -54 -119.5 -155t-101.5 -117q-13 -11 -34 -12.5t-34 4.5z
M222 -31q-55 0 -66 33.5t-10 150.5v19v19v22q-16 725 -16 1148q0 148 20 168q24 24 82.5 32t197.5 8q76 0 132 -21.5t92 -59t59 -99.5t34.5 -130.5t17.5 -165.5q1 -21 2.5 -89t4.5 -217.5t6 -289.5q0 -241 -155.5 -384.5t-400.5 -143.5zM326 153q132 12 208 119.5t76 260.5
q-8 436 -19 567q-23 248 -93 292q-15 9 -32 11q-52 5 -100 3t-64 -8q14 -1245 24 -1245z" />
    <glyph glyph-name="dcaron" unicode="&#x10f;" horiz-adv-x="783" 
d="M336 1463q-7 3 -14.5 8t-14 9.5t-17.5 15.5t-18.5 18t-24.5 24.5t-28 28.5q-123 124 -123 152q0 36 29 62q28 26 55 26q15 0 54.5 -39t121.5 -129l151 183q29 26 86 -15q20 -14 30.5 -32.5t1.5 -31.5q-38 -54 -119.5 -155t-101.5 -117q-13 -11 -34 -12.5t-34 4.5z
M223 -69q-104 0 -104 60v4q0 545 -4 1224q0 33 17.5 55t52 32t70.5 13.5t88 3.5q109 0 177.5 -47.5t106.5 -156.5q70 -202 70 -510q0 -474 -134 -602q-48 -46 -130.5 -61t-209.5 -15zM274 95q61 0 102.5 10t70.5 41t44.5 62t25 102t12.5 128.5t6 172.5q0 128 -5.5 214.5
t-19 152.5t-37 102t-58 53.5t-84.5 17.5q-33 0 -69 -8q12 -381 12 -588v-460z" />
    <glyph glyph-name="Dcroat" unicode="&#x110;" horiz-adv-x="905" 
d="M765 1093q1 -21 2.5 -89t4.5 -217.5t6 -289.5q0 -241 -155.5 -384.5t-400.5 -143.5q-55 0 -66 33.5t-10 150.5v19v19v22q-9 471 -10 525q-42 -1 -125 -1q-18 0 -26 12t-9 46q-6 113 51 114l106 3q-3 256 -3 449q0 148 20 168q24 24 82.5 32t197.5 8q76 0 132 -21.5
t92 -59t59 -99.5t34.5 -130.5t17.5 -165.5zM326 153q132 12 208 119.5t76 260.5q-8 436 -19 567q-23 248 -93 292q-15 9 -32 11q-52 5 -100 3t-64 -8l6 -479q51 3 119 6q23 0 31 -28.5t8 -95.5q0 -54 -49 -56l-107 -3q8 -589 16 -589z" />
    <glyph glyph-name="dcroat" unicode="&#x111;" horiz-adv-x="783" 
d="M627 1119q70 -202 70 -510q0 -474 -134 -602q-48 -46 -130.5 -61t-209.5 -15q-104 0 -104 60v4q0 326 -1 525q-40 -1 -121 -1q-17 0 -24.5 12t-9.5 46q-6 113 50 114l105 3q-2 242 -3 525q0 33 17.5 55t52 32t70.5 13.5t88 3.5q109 0 177.5 -47.5t106.5 -156.5zM274 95
q61 0 102.5 10t70.5 41t44.5 62t25 102t12.5 128.5t6 172.5q0 128 -5.5 214.5t-19 152.5t-37 102t-58 53.5t-84.5 17.5q-33 0 -69 -8q6 -196 11 -442l128 6q22 0 30 -28.5t8 -95.5q0 -54 -48 -56q-19 -1 -58 -2t-59 -2v-428z" />
    <glyph glyph-name="Emacron" unicode="&#x112;" horiz-adv-x="791" 
d="M195 1690q-48 2 -41 95q3 40 17 56.5t48 19.5q232 16 368 6q19 -1 28 -14t8.5 -32.5t-1.5 -44.5q-4 -71 -65 -71q-21 0 -148.5 -9t-213.5 -6zM179 4q-9 0 -14 5.5t-7 17.5t-2.5 20.5t-0.5 25.5v7v544q0 396 -48 884q-3 19 20 29.5t60 10.5h468q11 0 13.5 -22.5t2.5 -85.5
q0 -48 -44 -48q-199 0 -344 -8q0 -30 24 -476l280 8q32 0 32 -88q0 -76 -48 -76l-260 -12q7 -371 16 -563q291 16 334 19q26 0 33 -21t7 -83q0 -37 -15.5 -52.5t-60.5 -19.5q-266 -16 -446 -16z" />
    <glyph glyph-name="emacron" unicode="&#x113;" horiz-adv-x="738" 
d="M168 1500q-48 2 -41 95q3 40 17 56.5t48 19.5q232 16 368 6q19 -1 28 -14t8.5 -32.5t-1.5 -44.5q-4 -71 -65 -71q-21 0 -148.5 -9t-213.5 -6zM196 -37q-49 0 -68.5 8.5t-19.5 35.5q-21 365 -16 624q6 319 15.5 480t35.5 183q22 19 103 24t275 2q48 0 63.5 -16.5
t15.5 -73.5q0 -63 -20 -77t-100 -14q-70 0 -192 -12q0 -195 -4 -356l264 20q31 3 37.5 -17.5t6.5 -78.5q0 -43 -11 -57t-49 -19q-18 -3 -256 -20l8 -448q66 5 324 16q23 0 31.5 -19t8.5 -61q0 -58 -14 -76t-54 -20z" />
    <glyph glyph-name="Edotaccent" unicode="&#x116;" horiz-adv-x="791" 
d="M381 1677q-47 0 -79 32t-32 74q0 41 32 73t79 32q46 0 78 -32t32 -73q0 -42 -32 -74t-78 -32zM179 4q-9 0 -14 5.5t-7 17.5t-2.5 20.5t-0.5 25.5v7v544q0 396 -48 884q-3 19 20 29.5t60 10.5h468q11 0 13.5 -22.5t2.5 -85.5q0 -48 -44 -48q-199 0 -344 -8q0 -30 24 -476
l280 8q32 0 32 -88q0 -76 -48 -76l-260 -12q7 -371 16 -563q291 16 334 19q26 0 33 -21t7 -83q0 -37 -15.5 -52.5t-60.5 -19.5q-266 -16 -446 -16z" />
    <glyph glyph-name="edotaccent" unicode="&#x117;" horiz-adv-x="738" 
d="M361 1502q-47 0 -79 32t-32 74q0 41 32 73t79 32q46 0 78 -32t32 -73q0 -42 -32 -74t-78 -32zM196 -37q-49 0 -68.5 8.5t-19.5 35.5q-21 365 -16 624q6 319 15.5 480t35.5 183q22 19 103 24t275 2q48 0 63.5 -16.5t15.5 -73.5q0 -63 -20 -77t-100 -14q-70 0 -192 -12
q0 -195 -4 -356l264 20q31 3 37.5 -17.5t6.5 -78.5q0 -43 -11 -57t-49 -19q-18 -3 -256 -20l8 -448q66 5 324 16q23 0 31.5 -19t8.5 -61q0 -58 -14 -76t-54 -20z" />
    <glyph glyph-name="Eogonek" unicode="&#x118;" horiz-adv-x="791" 
d="M811 -148q16 -5 22 -22.5t2 -30.5q-26 -100 -206 -45q-66 21 -102.5 98t-12.5 142q1 3 3.5 10t4.5 10q-200 -10 -343 -10q-9 0 -14 5.5t-7 17.5t-2.5 20.5t-0.5 25.5v7v544q0 396 -48 884q-3 19 20 29.5t60 10.5h468q11 0 13.5 -22.5t2.5 -85.5q0 -48 -44 -48
q-199 0 -344 -8q0 -30 24 -476l280 8q32 0 32 -88q0 -76 -48 -76l-260 -12q7 -371 16 -563q291 16 334 19q26 0 33 -21t7 -83q0 -12 -1 -17q0 -7 -3.5 -17t-7 -17t-14 -24.5l-16.5 -27.5q-18 -35 -5 -72t37 -46q25 -10 68.5 -13t51.5 -6z" />
    <glyph glyph-name="eogonek" unicode="&#x119;" horiz-adv-x="738" 
d="M786 -152q16 -3 24 -19.5t6 -30.5q-12 -103 -197 -73q-69 11 -116 82.5t-32 139.5q6 26 9 37l-284 -21q-49 0 -68.5 8.5t-19.5 35.5q-21 365 -16 624q6 319 15.5 480t35.5 183q22 19 103 24t275 2q48 0 63.5 -16.5t15.5 -73.5q0 -63 -20 -77t-100 -14q-70 0 -192 -12
q0 -195 -4 -356l264 20q31 3 37.5 -17.5t6.5 -78.5q0 -43 -11 -57t-49 -19q-18 -3 -256 -20l8 -448q66 5 324 16q23 0 31.5 -19t8.5 -61q0 -40 -7 -60q-2 -7 -6 -17t-10 -23.5t-10 -24.5q-14 -34 4.5 -70.5t43.5 -42.5q24 -7 69.5 -3.5t53.5 2.5z" />
    <glyph glyph-name="Ecaron" unicode="&#x11a;" horiz-adv-x="791" 
d="M356 1693q-7 3 -14.5 8t-14 9.5t-17.5 15.5t-18.5 18t-24.5 24.5t-28 28.5q-123 124 -123 152q0 36 29 62q28 26 55 26q15 0 54.5 -39t121.5 -129l151 183q29 26 86 -15q20 -14 30.5 -32.5t1.5 -31.5q-38 -54 -119.5 -155t-101.5 -117q-13 -11 -34 -12.5t-34 4.5zM179 4
q-9 0 -14 5.5t-7 17.5t-2.5 20.5t-0.5 25.5v7v544q0 396 -48 884q-3 19 20 29.5t60 10.5h468q11 0 13.5 -22.5t2.5 -85.5q0 -48 -44 -48q-199 0 -344 -8q0 -30 24 -476l280 8q32 0 32 -88q0 -76 -48 -76l-260 -12q7 -371 16 -563q291 16 334 19q26 0 33 -21t7 -83
q0 -37 -15.5 -52.5t-60.5 -19.5q-266 -16 -446 -16z" />
    <glyph glyph-name="ecaron" unicode="&#x11b;" horiz-adv-x="738" 
d="M354 1477q-7 3 -14.5 8t-14 9.5t-17.5 15.5t-18.5 18t-24.5 24.5t-28 28.5q-123 124 -123 152q0 36 29 62q28 26 55 26q15 0 54.5 -39t121.5 -129l151 183q29 26 86 -15q20 -14 30.5 -32.5t1.5 -31.5q-38 -54 -119.5 -155t-101.5 -117q-13 -11 -34 -12.5t-34 4.5z
M196 -37q-49 0 -68.5 8.5t-19.5 35.5q-21 365 -16 624q6 319 15.5 480t35.5 183q22 19 103 24t275 2q48 0 63.5 -16.5t15.5 -73.5q0 -63 -20 -77t-100 -14q-70 0 -192 -12q0 -195 -4 -356l264 20q31 3 37.5 -17.5t6.5 -78.5q0 -43 -11 -57t-49 -19q-18 -3 -256 -20l8 -448
q66 5 324 16q23 0 31.5 -19t8.5 -61q0 -58 -14 -76t-54 -20z" />
    <glyph glyph-name="Gbreve" unicode="&#x11e;" horiz-adv-x="1052" 
d="M561 1664q-23 0 -44 3q-159 22 -226 178q-12 31 -12 56q0 43 32 58q12 7 23 7q35 0 78 -56q59 -78 154 -81q104 4 172 78q31 49 64 49q3 0 15 -2q33 -6 44 -47v-4q0 -51 -26 -91q-58 -115 -215 -144q-28 -4 -59 -4zM750 -24q-28 0 -87 -0.5t-80 0t-65 2t-63.5 5.5t-53 12
t-55.5 19.5t-49.5 29t-54.5 40.5q-128 110 -128 500q0 347 35.5 550.5t120.5 337.5q40 63 133.5 85.5t242.5 22.5q55 0 89 -1t67 -8t50.5 -14.5t33.5 -28t22 -40t11.5 -60t6 -78t0.5 -102.5v-164q0 -40 -24 -50.5t-104 -13.5q-44 0 -44 24q12 304 12 356q-82 11 -157.5 12
t-142 -15.5t-80.5 -52.5q-112 -288 -112 -716q0 -366 112 -448q40 -29 244 -40q40 4 80 4l8 392q-177 20 -214 35q-9 5 -14 14.5t-5 18t0.5 22t0.5 18.5q6 76 36 76q294 -23 331 -34q17 -3 27.5 -55t13 -136.5t3 -155t-1 -150t-1.5 -81.5q0 -132 -144 -132z" />
    <glyph glyph-name="gbreve" unicode="&#x11f;" horiz-adv-x="795" 
d="M403 1452q-23 0 -44 3q-159 22 -226 178q-12 31 -12 56q0 43 32 58q12 7 23 7q35 0 78 -56q59 -78 154 -81q104 4 172 78q31 49 64 49q3 0 15 -2q33 -6 44 -47v-4q0 -51 -26 -91q-58 -115 -215 -144q-28 -4 -59 -4zM616 -23q-39 -17 -94 -26t-116.5 -5.5t-117 19
t-99.5 52.5t-61 91q-16 52 -21 115.5t-11 297.5q0 326 22 505.5t78 254.5q26 35 71.5 47.5t148.5 12.5q115 0 187.5 -38.5t72.5 -125.5v-232q0 -33 -22.5 -46.5t-69.5 -13.5q-84 0 -84 60q4 161 4 223q-42 8 -109 8q-54 0 -83.5 -33t-39.5 -102q-14 -104 -16 -397t11 -399
q9 -73 27.5 -95t73.5 -29q29 -4 83 2t77 14l12 264q-82 -9 -115 -2.5t-33 46.5v24q0 53 15.5 77t56.5 27q142 11 185 0q42 -12 43 -42v-162q0 -218 -12.5 -297t-63.5 -95z" />
    <glyph glyph-name="Gdotaccent" unicode="&#x120;" horiz-adv-x="1052" 
d="M565 1677q-47 0 -79 32t-32 74q0 41 32 73t79 32q46 0 78 -32t32 -73q0 -42 -32 -74t-78 -32zM750 -24q-28 0 -87 -0.5t-80 0t-65 2t-63.5 5.5t-53 12t-55.5 19.5t-49.5 29t-54.5 40.5q-128 110 -128 500q0 347 35.5 550.5t120.5 337.5q40 63 133.5 85.5t242.5 22.5
q55 0 89 -1t67 -8t50.5 -14.5t33.5 -28t22 -40t11.5 -60t6 -78t0.5 -102.5v-164q0 -40 -24 -50.5t-104 -13.5q-44 0 -44 24q12 304 12 356q-82 11 -157.5 12t-142 -15.5t-80.5 -52.5q-112 -288 -112 -716q0 -366 112 -448q40 -29 244 -40q40 4 80 4l8 392q-177 20 -214 35
q-9 5 -14 14.5t-5 18t0.5 22t0.5 18.5q6 76 36 76q294 -23 331 -34q17 -3 27.5 -55t13 -136.5t3 -155t-1 -150t-1.5 -81.5q0 -132 -144 -132z" />
    <glyph glyph-name="gdotaccent" unicode="&#x121;" horiz-adv-x="795" 
d="M420 1467q-47 0 -79 32t-32 74q0 41 32 73t79 32q46 0 78 -32t32 -73q0 -42 -32 -74t-78 -32zM616 -23q-39 -17 -94 -26t-116.5 -5.5t-117 19t-99.5 52.5t-61 91q-16 52 -21 115.5t-11 297.5q0 326 22 505.5t78 254.5q26 35 71.5 47.5t148.5 12.5q115 0 187.5 -38.5
t72.5 -125.5v-232q0 -33 -22.5 -46.5t-69.5 -13.5q-84 0 -84 60q4 161 4 223q-42 8 -109 8q-54 0 -83.5 -33t-39.5 -102q-14 -104 -16 -397t11 -399q9 -73 27.5 -95t73.5 -29q29 -4 83 2t77 14l12 264q-82 -9 -115 -2.5t-33 46.5v24q0 53 15.5 77t56.5 27q142 11 185 0
q42 -12 43 -42v-162q0 -218 -12.5 -297t-63.5 -95z" />
    <glyph glyph-name="uni0122" unicode="&#x122;" horiz-adv-x="1052" 
d="M750 -24q-28 0 -87 -0.5t-80 0t-65 2t-63.5 5.5t-53 12t-55.5 19.5t-49.5 29t-54.5 40.5q-128 110 -128 500q0 347 35.5 550.5t120.5 337.5q40 63 133.5 85.5t242.5 22.5q55 0 89 -1t67 -8t50.5 -14.5t33.5 -28t22 -40t11.5 -60t6 -78t0.5 -102.5v-164q0 -40 -24 -50.5
t-104 -13.5q-44 0 -44 24q12 304 12 356q-82 11 -157.5 12t-142 -15.5t-80.5 -52.5q-112 -288 -112 -716q0 -366 112 -448q40 -29 244 -40q40 4 80 4l8 392q-177 20 -214 35q-9 5 -14 14.5t-5 18t0.5 22t0.5 18.5q6 76 36 76q294 -23 331 -34q17 -3 27.5 -55t13 -136.5
t3 -155t-1 -150t-1.5 -81.5q0 -132 -144 -132zM566 -424q-47 -22 -76 -25.5t-45.5 7t-32.5 36.5q-7 9 -3 22.5t19 21.5q46 23 67 37q25 16 38 52.5t-6 70.5q-57 77 -41 108q9 19 35.5 30.5t56.5 7.5q37 -4 59 -32.5t37 -85.5q18 -68 -14 -144.5t-94 -105.5z" />
    <glyph glyph-name="uni0123" unicode="&#x123;" horiz-adv-x="795" 
d="M616 -23q-39 -17 -94 -26t-116.5 -5.5t-117 19t-99.5 52.5t-61 91q-16 52 -21 115.5t-11 297.5q0 326 22 505.5t78 254.5q26 35 71.5 47.5t148.5 12.5q115 0 187.5 -38.5t72.5 -125.5v-232q0 -33 -22.5 -46.5t-69.5 -13.5q-84 0 -84 60q4 161 4 223q-42 8 -109 8
q-54 0 -83.5 -33t-39.5 -102q-14 -104 -16 -397t11 -399q9 -73 27.5 -95t73.5 -29q29 -4 83 2t77 14l12 264q-82 -9 -115 -2.5t-33 46.5v24q0 53 15.5 77t56.5 27q142 11 185 0q42 -12 43 -42v-162q0 -218 -12.5 -297t-63.5 -95zM416 -474q-47 -22 -76 -25.5t-45.5 7
t-32.5 36.5q-7 9 -3 22.5t19 21.5q46 23 67 37q25 16 38 52.5t-6 70.5q-57 77 -41 108q9 19 35.5 30.5t56.5 7.5q37 -4 59 -32.5t37 -85.5q18 -68 -14 -144.5t-94 -105.5z" />
    <glyph glyph-name="Hbar" unicode="&#x126;" horiz-adv-x="1097" 
d="M955 1259q47 -3 40 -99q-3 -41 -16 -56t-50 -14h-9q-15 -354 -15 -695q0 -197 22 -380q4 -22 -20.5 -33t-75.5 -15q-50 -4 -69 33t-23 119q-16 321 -16 572l-372 24v-4q0 -141 16 -708q0 -20 -24 -32t-68 -12q-43 0 -56.5 14.5t-15.5 53.5q-5 150 -21.5 563t-21.5 542
l-56 3q-24 2 -33 18.5t-5 66.5q7 78 70 75q11 0 17 -1q0 13 -10 269q0 17 21.5 30.5t62.5 17.5q88 10 88 -20q3 -46 9.5 -151t9.5 -154q318 -16 406 -19l15 356q0 11 20 18.5t40 5.5q132 -11 132 -72q-2 -44 -9 -157.5t-10 -157.5q10 -1 27 -1zM723 873l10 226
q-205 10 -390 22q8 -170 8 -222q138 -13 372 -26z" />
    <glyph glyph-name="hbar" unicode="&#x127;" horiz-adv-x="824" 
d="M759 966q0 -50 -65 -57q-3 -92 -2 -166q2 -201 40 -693q0 -45 -31 -60t-85 -15q-36 0 -52 17.5t-24 58.5q-20 168 -36 540l-228 -16q0 -484 12 -592q0 -31 -35.5 -47.5t-92.5 -16.5q-30 0 -47 8.5t-17 34.5q-9 552 -11 928h-13q-27 0 -39 11.5t-16 45.5q-11 108 67 115
v157q0 60 16 76.5t80 19.5q63 0 79.5 -10.5t15.5 -49.5q-2 -124 -2 -185q205 8 247 10q7 160 10 196q0 32 23 41.5t63 9.5q93 0 93 -57q-2 -63 -8 -181q33 -1 44.5 -29t13.5 -94zM272 759l236 12q1 20 2.5 64.5t2.5 66.5q-81 -3 -241 -7v-136z" />
    <glyph glyph-name="Imacron" unicode="&#x12a;" horiz-adv-x="404" 
d="M-35 1690q-48 2 -41 95q3 40 17 56.5t48 19.5q232 16 368 6q19 -1 28 -14t8.5 -32.5t-1.5 -44.5q-4 -71 -65 -71q-21 0 -148.5 -9t-213.5 -6zM207 0q-32 0 -52 8.5t-20 23.5q-35 826 -52 1480q0 25 13 35t51 13l56 4q23 0 35.5 -27.5t16.5 -100.5q17 -801 44 -1376
q0 -32 -19.5 -46t-72.5 -14z" />
    <glyph glyph-name="imacron" unicode="&#x12b;" horiz-adv-x="440" 
d="M-3 1489q-48 2 -41 95q3 40 17 56.5t48 19.5q232 16 368 6q19 -1 28 -14t8.5 -32.5t-1.5 -44.5q-4 -71 -65 -71q-21 0 -148.5 -9t-213.5 -6zM181 -41q-84 0 -84 36q0 56 20 878q0 77 0.5 119t-2.5 91.5t-4.5 68.5t-5 50t-4.5 36q-2 34 15 47.5t53 13.5h52q52 0 67 -90
q10 -61 9 -285v-51q0 -21 -8 -306.5t-8 -535.5q0 -60 -100 -72z" />
    <glyph glyph-name="Iogonek" unicode="&#x12e;" horiz-adv-x="404" 
d="M283 -189q27 0 28 -24v-18q0 -86 -140 -86q-85 0 -132.5 55t-47.5 143q0 141 144 151q-35 826 -52 1480q0 25 13 35t51 13l56 4q23 0 35.5 -27.5t16.5 -100.5q17 -801 44 -1376v-1l3.5 -31.5t3 -30.5t0 -24.5t-4 -23t-10 -15.5t-18 -12.5t-28.5 -4.5q-20 -1 -50 2
t-45 3.5t-27 -11t-12 -38.5t18.5 -54.5t49.5 -27.5q20 0 55.5 10t48.5 10z" />
    <glyph glyph-name="iogonek" unicode="&#x12f;" horiz-adv-x="440" 
d="M297 873q0 -21 -8 -306.5t-8 -535.5q2 -29 1 -54t-6.5 -44t-22.5 -31t-45 -13q-17 -1 -39 1.5t-34.5 3.5t-24.5 -1.5t-17.5 -14t-5.5 -33.5q0 -27 18.5 -54.5t49.5 -27.5q20 0 55.5 10t48.5 10q27 0 28 -24v-18q0 -86 -140 -86q-85 0 -132.5 55t-47.5 143q0 136 130 150
q0 60 20 870q0 77 0.5 119t-2.5 91.5t-4.5 68.5t-5 50t-4.5 36q-2 34 15 47.5t53 13.5h52q52 0 67 -90q10 -61 9 -285v-51z" />
    <glyph glyph-name="Idotaccent" unicode="&#x130;" horiz-adv-x="404" 
d="M151 1711q-47 0 -79 32t-32 74q0 41 32 73t79 32q46 0 78 -32t32 -73q0 -42 -32 -74t-78 -32zM207 0q-32 0 -52 8.5t-20 23.5q-35 826 -52 1480q0 25 13 35t51 13l56 4q23 0 35.5 -27.5t16.5 -100.5q17 -801 44 -1376q0 -32 -19.5 -46t-72.5 -14z" />
    <glyph glyph-name="dotlessi" unicode="&#x131;" horiz-adv-x="440" 
d="M181 -41q-84 0 -84 36q0 56 20 878q0 77 0.5 119t-2.5 91.5t-4.5 68.5t-5 50t-4.5 36q-2 34 15 47.5t53 13.5h52q52 0 67 -90q10 -61 9 -285v-51q0 -21 -8 -306.5t-8 -535.5q0 -60 -100 -72z" />
    <glyph glyph-name="IJ" unicode="&#x132;" horiz-adv-x="1184" 
d="M632 -32q-137 -4 -178.5 36.5t-41.5 176.5v272q0 10 9.5 18.5t36 13.5t67.5 2q51 -3 51 -18q0 -23 8 -332q265 0 308 212q18 84 -8 856q0 285 52 380q10 19 60 19q95 -2 92 -31q-36 -254 -36 -396q0 -112 6 -273t6 -407q0 -265 -98.5 -393.5t-333.5 -135.5zM207 0
q-32 0 -52 8.5t-20 23.5q-35 826 -52 1480q0 25 13 35t51 13l56 4q23 0 35.5 -27.5t16.5 -100.5q17 -801 44 -1376q0 -32 -19.5 -46t-72.5 -14z" />
    <glyph glyph-name="ij" unicode="&#x133;" horiz-adv-x="1063" 
d="M689 -86q-143 0 -208.5 61.5t-65.5 198.5t21 182.5t87 45.5q43 0 65.5 -12t17.5 -41q-15 -98 -17 -135q-4 -65 15 -90.5t73 -25.5q20 0 35.5 10t26.5 33t19 46t13 65t8 73t4 86.5t1.5 90t0.5 96.5q0 619 -4 680q0 56 80 56q69 0 88.5 -9.5t19.5 -54.5q0 -128 2 -307.5
t2 -192.5q1 -178 -3 -301t-16 -223t-32 -160t-53 -100.5t-76 -56t-104 -15.5zM181 -41q-84 0 -84 36q0 56 20 878q0 77 0.5 119t-2.5 91.5t-4.5 68.5t-5 50t-4.5 36q-2 34 15 47.5t53 13.5h52q52 0 67 -90q10 -61 9 -285v-51q0 -21 -8 -306.5t-8 -535.5q0 -60 -100 -72z" />
    <glyph glyph-name="uni0136" unicode="&#x136;" horiz-adv-x="918" 
d="M732 -40q-11 0 -21 6.5t-23 24.5t-22.5 33t-30 50.5t-34.5 57.5q-16 27 -57 99t-85.5 151.5t-87.5 156.5t-73 126.5t-33 48.5q29 -487 29 -647q0 -38 -32.5 -55.5t-86.5 -14.5q-53 3 -53 41q0 79 -41 1462q0 62 119 62q23 0 36 -6.5t13 -14.5l16 -493q231 237 348 440
q27 47 46 65t37 13q57 -17 75 -44t11 -65q-14 -78 -137 -243.5t-277 -331.5q110 -188 206.5 -357.5t174 -309.5t94.5 -169q12 -22 -26 -54t-85 -32zM458 -394q-47 -22 -76 -25.5t-45.5 7t-32.5 36.5q-7 9 -3 22.5t19 21.5q46 23 67 37q25 16 38 52.5t-6 70.5q-57 77 -41 108
q9 19 35.5 30.5t56.5 7.5q37 -4 59 -32.5t37 -85.5q18 -68 -14 -144.5t-94 -105.5z" />
    <glyph glyph-name="uni0137" unicode="&#x137;" horiz-adv-x="889" 
d="M189 -40q-37 0 -56 18t-19 62q-5 69 -12 372q-2 82 5 312.5t6 299.5q-1 45 -4 85t-5 58t-7 49.5t-6 37.5q-7 33 26.5 46t92.5 8q51 -4 69.5 -89t18.5 -231q0 -90 -8 -204q101 167 314 473q23 35 44 50.5t35 14t31 -1.5q62 -7 83 -61q10 -27 -56 -113q-218 -323 -316 -486
q107 -230 224 -403q101 -149 110 -193q7 -32 -23.5 -60t-73.5 -28q-77 0 -218 252q-25 46 -158 320q-4 -128 -2 -212q4 -216 14 -322q3 -34 -21 -44t-88 -10zM446 -404q-47 -22 -76 -25.5t-45.5 7t-32.5 36.5q-7 9 -3 22.5t19 21.5q46 23 67 37q25 16 38 52.5t-6 70.5
q-57 77 -41 108q9 19 35.5 30.5t56.5 7.5q37 -4 59 -32.5t37 -85.5q18 -68 -14 -144.5t-94 -105.5z" />
    <glyph glyph-name="Lacute" unicode="&#x139;" horiz-adv-x="893" 
d="M199 1720q-31 -3 -59.5 25t-28.5 80q0 19 16 35.5t35 27.5t69 36q30 15 91 47.5t94 48t57 21.5q35 10 58 -22t23 -91q0 -21 -31 -42.5t-107 -61.5q-16 -8 -25 -13q-165 -88 -192 -91zM173 -13q-32 -4 -32 108v704q-2 62 -10.5 235.5t-9.5 276.5q-1 0 -1 120l1 120
q0 26 92 28q76 0 76 -44v-204q0 -46 11 -260.5t13 -387.5q1 -145 -1.5 -312.5t-2.5 -174.5q219 9 456 3q28 0 28 -84q0 -63 -17.5 -81.5t-78.5 -18.5q-338 0 -524 -28z" />
    <glyph glyph-name="lacute" unicode="&#x13a;" horiz-adv-x="723" 
d="M211 1487q-31 -3 -59.5 25t-28.5 80q0 19 16 35.5t35 27.5t69 36q30 15 91 47.5t94 48t57 21.5q35 10 58 -22t23 -91q0 -21 -31 -42.5t-107 -61.5q-16 -8 -25 -13q-165 -88 -192 -91zM213 -38q-149 0 -144 60q19 257 60 1276q2 26 33.5 37t106.5 11q47 0 44 -44
q-6 -100 -21 -494.5t-31 -665.5h290q90 0 96 -34q4 -26 4 -86q0 -34 -22.5 -47t-73.5 -13h-342z" />
    <glyph glyph-name="uni013B" unicode="&#x13b;" horiz-adv-x="893" 
d="M173 -13q-32 -4 -32 108v704q-2 62 -10.5 235.5t-9.5 276.5q-1 0 -1 120l1 120q0 26 92 28q76 0 76 -44v-204q0 -46 11 -260.5t13 -387.5q1 -145 -1.5 -312.5t-2.5 -174.5q219 9 456 3q28 0 28 -84q0 -63 -17.5 -81.5t-78.5 -18.5q-338 0 -524 -28zM456 -415
q-47 -22 -76 -25.5t-45.5 7t-32.5 36.5q-7 9 -3 22.5t19 21.5q46 23 67 37q25 16 38 52.5t-6 70.5q-57 77 -41 108q9 19 35.5 30.5t56.5 7.5q37 -4 59 -32.5t37 -85.5q18 -68 -14 -144.5t-94 -105.5z" />
    <glyph glyph-name="uni013C" unicode="&#x13c;" horiz-adv-x="723" 
d="M213 -38q-149 0 -144 60q19 257 60 1276q2 26 33.5 37t106.5 11q47 0 44 -44q-6 -100 -21 -494.5t-31 -665.5h290q90 0 96 -34q4 -26 4 -86q0 -34 -22.5 -47t-73.5 -13h-342zM346 -443q-47 -22 -76 -25.5t-45.5 7t-32.5 36.5q-7 9 -3 22.5t19 21.5q46 23 67 37
q25 16 38 52.5t-6 70.5q-57 77 -41 108q9 19 35.5 30.5t56.5 7.5q37 -4 59 -32.5t37 -85.5q18 -68 -14 -144.5t-94 -105.5z" />
    <glyph glyph-name="Lcaron" unicode="&#x13d;" horiz-adv-x="918" 
d="M565 1137q-108 0 -108 55v199q0 108 8 153.5t33 45.5q71 0 93 -10.5t22 -37.5v-350q0 -27 -13.5 -41t-34.5 -14zM173 -13q-32 -4 -32 108v704q-2 62 -10.5 235.5t-9.5 276.5q-1 0 -1 120l1 120q0 26 92 28q76 0 76 -44v-204q0 -46 11 -260.5t13 -387.5
q1 -145 -1.5 -312.5t-2.5 -174.5q219 9 456 3q28 0 28 -84q0 -63 -17.5 -81.5t-78.5 -18.5q-338 0 -524 -28z" />
    <glyph glyph-name="lcaron" unicode="&#x13e;" horiz-adv-x="723" 
d="M213 -38q-149 0 -144 60q19 257 60 1276q2 26 33.5 37t106.5 11q47 0 44 -44q-6 -100 -21 -494.5t-31 -665.5h290q90 0 96 -34q4 -26 4 -86q0 -34 -22.5 -47t-73.5 -13h-342zM538 895q-79 -9 -102 -1t-21 35l18 349q3 50 55 52q118 5 115 -46l-11 -198
q-6 -114 -14.5 -150.5t-39.5 -40.5z" />
    <glyph glyph-name="Lslash" unicode="&#x141;" horiz-adv-x="1008" 
d="M880 199q28 0 28 -84q0 -63 -17.5 -81.5t-78.5 -18.5q-338 0 -524 -28q-32 -4 -32 108v549q-22 -12 -33 -19q-37 -21 -77 19q-22 25 -24.5 51.5t7 42.5t23.5 25l103 66q-1 41 -9.5 211.5t-9.5 270.5q-1 0 0 120v120q0 26 92 28q76 0 76 -44v-204q0 -39 2.5 -95
t7.5 -146.5t8 -154.5q149 92 232.5 126.5t115.5 5.5q28 -26 27 -54t-14.5 -44.5t-29.5 -26.5q-55 -33 -158 -95.5t-168 -100.5q0 -11 0.5 -32t0.5 -31q1 -145 -1.5 -312.5t-2.5 -174.5q219 9 456 3z" />
    <glyph glyph-name="lslash" unicode="&#x142;" horiz-adv-x="673" 
d="M213 -38q-149 0 -144 60q11 152 25 464q-51 -12 -79 50q-39 87 -2 104l90 37q15 325 26 621q0 48 140 48q44 0 44 -44q0 -31 -6.5 -272t-7.5 -273q28 11 75 30t75 31q35 15 61 -27.5t26 -92.5q0 -36 -28 -49l-218 -91q-10 -174 -29 -416h240q66 0 83 -21t17 -87
q0 -72 -96 -72h-292z" />
    <glyph glyph-name="Nacute" unicode="&#x143;" horiz-adv-x="926" 
d="M316 1665q-31 -3 -59.5 25t-28.5 80q0 19 16 35.5t35 27.5t69 36q30 15 91 47.5t94 48t57 21.5q35 10 58 -22t23 -91q0 -21 -31 -42.5t-107 -61.5q-16 -8 -25 -13q-165 -88 -192 -91zM727 -65q-110 4 -123 64q-163 651 -312 1048q5 -161 6.5 -304t1 -227t-3.5 -262
t-4 -291q0 -11 -17 -17.5t-35 -6.5q-59 0 -81.5 15t-22.5 58q-4 495 -4 1047q0 67 -2 177t-4 193.5t-2 85.5q0 56 96 56q19 0 33.5 -7.5t25.5 -24t17 -29.5t15 -38q158 -356 325 -949q16 333 16 796v216q0 32 40 32q61 0 88.5 -14.5t27.5 -52.5q0 -675 -24 -1533
q0 -34 -57 -32z" />
    <glyph glyph-name="nacute" unicode="&#x144;" horiz-adv-x="938" 
d="M296 1500q-31 -3 -59.5 25t-28.5 80q0 19 16 35.5t35 27.5t69 36q30 15 91 47.5t94 48t57 21.5q35 10 58 -22t23 -91q0 -21 -31 -42.5t-107 -61.5q-16 -8 -25 -13q-165 -88 -192 -91zM213 -52q-92 0 -92 52q-28 1233 -28 1320q0 15 19.5 23.5t48.5 8.5q47 0 65 -2t34 -14
t27 -40q10 -27 58 -226q16 -67 49 -146t59.5 -130.5t79.5 -147.5q59 -103 125 -252q-27 291 -9 906q0 32 20 42t72 10q48 0 71.5 -12.5t21.5 -49.5q-21 -496 7 -1262q0 -30 -38 -47t-89 -17q-62 0 -101 104q-136 294 -256 504l-87 181l33 -753q0 -52 -90 -52z" />
    <glyph glyph-name="uni0145" unicode="&#x145;" horiz-adv-x="926" 
d="M727 -65q-110 4 -123 64q-163 651 -312 1048q5 -161 6.5 -304t1 -227t-3.5 -262t-4 -291q0 -11 -17 -17.5t-35 -6.5q-59 0 -81.5 15t-22.5 58q-4 495 -4 1047q0 67 -2 177t-4 193.5t-2 85.5q0 56 96 56q19 0 33.5 -7.5t25.5 -24t17 -29.5t15 -38q158 -356 325 -949
q16 333 16 796v216q0 32 40 32q61 0 88.5 -14.5t27.5 -52.5q0 -675 -24 -1533q0 -34 -57 -32zM446 -431q-47 -22 -76 -25.5t-45.5 7t-32.5 36.5q-7 9 -3 22.5t19 21.5q46 23 67 37q25 16 38 52.5t-6 70.5q-57 77 -41 108q9 19 35.5 30.5t56.5 7.5q37 -4 59 -32.5t37 -85.5
q18 -68 -14 -144.5t-94 -105.5z" />
    <glyph glyph-name="uni0146" unicode="&#x146;" horiz-adv-x="938" 
d="M213 -52q-92 0 -92 52q-28 1233 -28 1320q0 15 19.5 23.5t48.5 8.5q47 0 65 -2t34 -14t27 -40q10 -27 58 -226q16 -67 49 -146t59.5 -130.5t79.5 -147.5q59 -103 125 -252q-27 291 -9 906q0 32 20 42t72 10q48 0 71.5 -12.5t21.5 -49.5q-21 -496 7 -1262q0 -30 -38 -47
t-89 -17q-62 0 -101 104q-136 294 -256 504l-87 181l33 -753q0 -52 -90 -52zM463 -413q-47 -22 -76 -25.5t-45.5 7t-32.5 36.5q-7 9 -3 22.5t19 21.5q46 23 67 37q25 16 38 52.5t-6 70.5q-57 77 -41 108q9 19 35.5 30.5t56.5 7.5q37 -4 59 -32.5t37 -85.5q18 -68 -14 -144.5
t-94 -105.5z" />
    <glyph glyph-name="Ncaron" unicode="&#x147;" horiz-adv-x="926" 
d="M427 1653q-7 3 -14.5 8t-14 9.5t-17.5 15.5t-18.5 18t-24.5 24.5t-28 28.5q-123 124 -123 152q0 36 29 62q28 26 55 26q15 0 54.5 -39t121.5 -129l151 183q29 26 86 -15q20 -14 30.5 -32.5t1.5 -31.5q-38 -54 -119.5 -155t-101.5 -117q-13 -11 -34 -12.5t-34 4.5z
M727 -65q-110 4 -123 64q-163 651 -312 1048q5 -161 6.5 -304t1 -227t-3.5 -262t-4 -291q0 -11 -17 -17.5t-35 -6.5q-59 0 -81.5 15t-22.5 58q-4 495 -4 1047q0 67 -2 177t-4 193.5t-2 85.5q0 56 96 56q19 0 33.5 -7.5t25.5 -24t17 -29.5t15 -38q158 -356 325 -949
q16 333 16 796v216q0 32 40 32q61 0 88.5 -14.5t27.5 -52.5q0 -675 -24 -1533q0 -34 -57 -32z" />
    <glyph glyph-name="ncaron" unicode="&#x148;" horiz-adv-x="938" 
d="M431 1412q-7 3 -14.5 8t-14 9.5t-17.5 15.5t-18.5 18t-24.5 24.5t-28 28.5q-123 124 -123 152q0 36 29 62q28 26 55 26q15 0 54.5 -39t121.5 -129l151 183q29 26 86 -15q20 -14 30.5 -32.5t1.5 -31.5q-38 -54 -119.5 -155t-101.5 -117q-13 -11 -34 -12.5t-34 4.5z
M213 -52q-92 0 -92 52q-28 1233 -28 1320q0 15 19.5 23.5t48.5 8.5q47 0 65 -2t34 -14t27 -40q10 -27 58 -226q16 -67 49 -146t59.5 -130.5t79.5 -147.5q59 -103 125 -252q-27 291 -9 906q0 32 20 42t72 10q48 0 71.5 -12.5t21.5 -49.5q-21 -496 7 -1262q0 -30 -38 -47
t-89 -17q-62 0 -101 104q-136 294 -256 504l-87 181l33 -753q0 -52 -90 -52z" />
    <glyph glyph-name="Eng" unicode="&#x14a;" horiz-adv-x="926" 
d="M784 -30q0 -71 1 -118q0 -38 -12.5 -76t-37.5 -71t-68.5 -52.5t-97.5 -17.5q-102 4 -170 39q-23 12 -24.5 51t5.5 69q2 15 13.5 29.5t28.5 14.5q10 0 63 -14t81 -13q25 1 40.5 37.5t8.5 91.5q-3 24 -8 49l-3 10l-3 12q-1 2 -1 5q-161 642 -308 1031q5 -161 6.5 -304
t1 -227t-3.5 -262t-4 -291q0 -11 -17 -17.5t-35 -6.5q-59 0 -81.5 15t-22.5 58q-4 495 -4 1047q0 67 -2 177t-4 193.5t-2 85.5q0 56 96 56q19 0 33.5 -7.5t25.5 -24t17 -29.5t15 -38q158 -356 325 -949q16 333 16 796v216q0 32 40 32q61 0 88.5 -14.5t27.5 -52.5
q0 -674 -24 -1530z" />
    <glyph glyph-name="eng" unicode="&#x14b;" horiz-adv-x="938" 
d="M840 48q4 -74 4 -173q0 -38 -13.5 -76t-39 -71t-69.5 -52.5t-98 -17.5q-102 4 -170 39q-23 12 -24.5 51t5.5 69q2 15 13.5 29.5t28.5 14.5q10 0 63 -14t81 -13t43 36t-4 93q-5 11 -14 32t-13 29q-11 19 -20 44q-136 294 -256 504l-87 181l33 -753q0 -52 -90 -52
q-92 0 -92 52q-28 1233 -28 1320q0 15 19.5 23.5t48.5 8.5q47 0 65 -2t34 -14t27 -40q10 -27 58 -226q16 -67 49 -146t59.5 -130.5t79.5 -147.5q59 -103 125 -252q-27 291 -9 906q0 32 20 42t72 10q48 0 71.5 -12.5t21.5 -49.5q-21 -482 6 -1242z" />
    <glyph glyph-name="Omacron" unicode="&#x14c;" horiz-adv-x="1032" 
d="M325 1730q-48 2 -41 95q3 40 17 56.5t48 19.5q232 16 368 6q19 -1 28 -14t8.5 -32.5t-1.5 -44.5q-4 -71 -65 -71q-21 0 -148.5 -9t-213.5 -6zM528 -49q-102 0 -177 36t-121 96t-74 153t-38 192t-10 227q0 326 35 550t101 278q56 45 101 72t89 37.5t68.5 12.5t73.5 2
q77 0 135 -43.5t95 -118t60.5 -183.5t32.5 -229t9 -266q0 -113 -11.5 -222t-39.5 -218.5t-70.5 -191.5t-109 -133t-149.5 -51zM532 129q50 0 91.5 84.5t66 210.5t37.5 257t13 238q0 95 -21 213.5t-63.5 212.5t-91.5 94q-124 0 -220 -100q-16 -17 -26.5 -57t-18.5 -128
t-12 -158t-11 -225q-11 -111 -5.5 -225t22.5 -206.5t78 -151.5t161 -59z" />
    <glyph glyph-name="omacron" unicode="&#x14d;" horiz-adv-x="722" 
d="M163 1498q-48 2 -41 95q3 40 17 56.5t48 19.5q232 16 368 6q19 -1 28 -14t8.5 -32.5t-1.5 -44.5q-4 -71 -65 -71q-21 0 -148.5 -9t-213.5 -6zM296 -56q-163 0 -216 392q-20 168 -20 416q0 106 6.5 185t24.5 154.5t49 124.5t82.5 80.5t121.5 35.5q59 4 105.5 -24.5
t77 -82.5t51 -121t31 -150t14 -159.5t1.5 -158.5q-4 -237 -15 -323q-24 -201 -109 -297q-39 -44 -87 -58t-117 -14zM324 120q71 0 98.5 136t37.5 488q0 65 -6 129.5t-20 128.5t-41.5 104t-64.5 40q-38 0 -64.5 -76t-37 -177t-10.5 -213q0 -180 15 -309.5t39 -190t54 -60.5z
" />
    <glyph glyph-name="Ohungarumlaut" unicode="&#x150;" horiz-adv-x="1032" 
d="M341 1736q-13 8 -28.5 17.5t-23 14t-16.5 10t-12.5 9t-7 8t-4.5 9t-1 10.5q0 18 16.5 49.5t69.5 117.5q8 14 13 21q7 11 17 28.5t15 25.5t12 18t12.5 15t11.5 7q39 13 84 -8q34 -16 47 -43t1 -55q-38 -92 -116 -220q-46 -62 -90 -34zM677 1705q-83 24 -106.5 42t-7.5 55
q22 39 48 86.5t38.5 71t26.5 48t23 36.5t16 18q26 23 70 12q52 -15 67 -29t15 -39q0 -17 -20.5 -60.5t-81.5 -160.5q-25 -47 -44 -67.5t-44 -12.5zM528 -49q-102 0 -177 36t-121 96t-74 153t-38 192t-10 227q0 326 35 550t101 278q56 45 101 72t89 37.5t68.5 12.5t73.5 2
q77 0 135 -43.5t95 -118t60.5 -183.5t32.5 -229t9 -266q0 -113 -11.5 -222t-39.5 -218.5t-70.5 -191.5t-109 -133t-149.5 -51zM532 129q50 0 91.5 84.5t66 210.5t37.5 257t13 238q0 95 -21 213.5t-63.5 212.5t-91.5 94q-124 0 -220 -100q-16 -17 -26.5 -57t-18.5 -128
t-12 -158t-11 -225q-11 -111 -5.5 -225t22.5 -206.5t78 -151.5t161 -59z" />
    <glyph glyph-name="ohungarumlaut" unicode="&#x151;" horiz-adv-x="722" 
d="M179 1466q-13 8 -28.5 17.5t-23 14t-16.5 10t-12.5 9t-7 8t-4.5 9t-1 10.5q0 18 16.5 49.5t69.5 117.5q8 14 13 21q7 11 17 28.5t15 25.5t12 18t12.5 15t11.5 7q39 13 84 -8q34 -16 47 -43t1 -55q-38 -92 -116 -220q-46 -62 -90 -34zM515 1435q-83 24 -106.5 42t-7.5 55
q22 39 48 86.5t38.5 71t26.5 48t23 36.5t16 18q26 23 70 12q52 -15 67 -29t15 -39q0 -17 -20.5 -60.5t-81.5 -160.5q-25 -47 -44 -67.5t-44 -12.5zM296 -56q-163 0 -216 392q-20 168 -20 416q0 106 6.5 185t24.5 154.5t49 124.5t82.5 80.5t121.5 35.5q59 4 105.5 -24.5
t77 -82.5t51 -121t31 -150t14 -159.5t1.5 -158.5q-4 -237 -15 -323q-24 -201 -109 -297q-39 -44 -87 -58t-117 -14zM324 120q71 0 98.5 136t37.5 488q0 65 -6 129.5t-20 128.5t-41.5 104t-64.5 40q-38 0 -64.5 -76t-37 -177t-10.5 -213q0 -180 15 -309.5t39 -190t54 -60.5z
" />
    <glyph glyph-name="OE" unicode="&#x152;" horiz-adv-x="1256" 
d="M504 -50q-101 0 -175.5 36.5t-120 97t-73 153t-37.5 191.5t-10 226q0 332 30 536t106 296q58 70 137.5 101.5t170.5 18.5q211 4 582 4q18 0 25.5 -18.5t8.5 -77.5q0 -76 -40 -76q-187 0 -346 -8q2 -72 8.5 -241t9.5 -263q75 2 142.5 5t101.5 4.5t42 1.5q21 0 27.5 -23
t2.5 -96q-2 -31 -11.5 -45t-32.5 -15l-268 -16q5 -144 8 -245t3.5 -133.5t2.5 -83.5t6 -138l304 24q21 1 30.5 -19t9.5 -61q0 -65 -9.5 -85t-46.5 -23q-376 -28 -588 -28zM488 114q36 0 59.5 12t38 40.5t21.5 65.5t7.5 98.5t-2.5 128t-8.5 164.5t-10.5 197.5t-9 238
t-4 275.5q0 54 -31 83t-77 29q-47 0 -91.5 -33t-64.5 -100q-65 -216 -64 -659q0 -69 1.5 -117t7 -109t15 -102t27 -84.5t42 -69t61 -42t82.5 -16.5z" />
    <glyph glyph-name="oe" unicode="&#x153;" horiz-adv-x="1032" 
d="M304 -48q-65 0 -113 68.5t-72.5 181t-35.5 228.5t-11 238q0 289 31.5 430.5t116.5 201.5q12 8 24.5 14t23 10t28.5 7t28 4.5t35.5 2.5t37.5 1t47 0.5t52 0.5q220 0 292.5 -6.5t106.5 -33.5q7 -6 10.5 -18t3.5 -22t-0.5 -27.5t-0.5 -20.5q0 -72 -76 -72q-109 0 -236 4
q0 -56 16 -300q48 0 136 0.5t113 0.5q18 0 27 -12t10.5 -25t1.5 -40q0 -56 -10.5 -76t-45.5 -20l-220 -12q0 -211 -12 -520q36 0 308 16q21 0 27.5 -19.5t8.5 -69.5q0 -84 -36 -87q-178 -18 -287.5 -23t-328.5 -5zM348 132q102 0 102 548q-3 460 -102 460q-42 0 -68.5 -78
t-34.5 -170t-8 -196q0 -564 111 -564z" />
    <glyph glyph-name="Racute" unicode="&#x154;" horiz-adv-x="958" 
d="M317 1658q-31 -3 -59.5 25t-28.5 80q0 19 16 35.5t35 27.5t69 36q30 15 91 47.5t94 48t57 21.5q35 10 58 -22t23 -91q0 -21 -31 -42.5t-107 -61.5q-16 -8 -25 -13q-165 -88 -192 -91zM199 -49q-19 0 -31.5 13t-12.5 35l-2 960v488q0 80 58 91q49 9 146 9q326 0 412 -260
q28 -86 28 -216q0 -117 -52.5 -206t-167.5 -174q65 -148 141.5 -343t110.5 -301q6 -20 -9 -40t-39 -31t-48 -14.5t-36 9.5q-15 15 -62 127.5t-118.5 296t-98.5 248.5l-94 -7q-3 -90 -8.5 -331t-7.5 -305q-1 -49 -57 -49h-52zM317 813q131 -6 223.5 80t92.5 242
q0 244 -312 244q-8 -173 -8 -348q0 -89 4 -218z" />
    <glyph glyph-name="racute" unicode="&#x155;" horiz-adv-x="754" 
d="M142 1497q-31 -3 -59.5 25t-28.5 80q0 19 16 35.5t35 27.5t69 36q30 15 91 47.5t94 48t57 21.5q35 10 58 -22t23 -91q0 -21 -31 -42.5t-107 -61.5q-16 -8 -25 -13q-165 -88 -192 -91zM201 -75q-39 0 -56.5 10.5t-19.5 37.5q-41 618 -60 1312q0 37 8.5 53t31.5 19
q113 12 192 12q103 0 177.5 -55t110.5 -146.5t36 -206.5q0 -225 -156 -352q18 -49 53 -134t89 -211t85 -201q12 -28 -2.5 -53.5t-40 -37t-51.5 -14.5t-38 14q-24 30 -114.5 232t-140.5 333l-56 -7l36 -562q0 -43 -84 -43zM237 709q108 7 168 73.5t60 194.5q0 122 -58 178.5
t-182 41.5q-7 -223 12 -488z" />
    <glyph glyph-name="uni0156" unicode="&#x156;" horiz-adv-x="958" 
d="M199 -49q-19 0 -31.5 13t-12.5 35l-2 960v488q0 80 58 91q49 9 146 9q326 0 412 -260q28 -86 28 -216q0 -117 -52.5 -206t-167.5 -174q65 -148 141.5 -343t110.5 -301q6 -20 -9 -40t-39 -31t-48 -14.5t-36 9.5q-15 15 -62 127.5t-118.5 296t-98.5 248.5l-94 -7
q-3 -90 -8.5 -331t-7.5 -305q-1 -49 -57 -49h-52zM317 813q131 -6 223.5 80t92.5 242q0 244 -312 244q-8 -173 -8 -348q0 -89 4 -218zM476 -360q-47 -22 -76 -25.5t-45.5 7t-32.5 36.5q-7 9 -3 22.5t19 21.5q46 23 67 37q25 16 38 52.5t-6 70.5q-57 77 -41 108
q9 19 35.5 30.5t56.5 7.5q37 -4 59 -32.5t37 -85.5q18 -68 -14 -144.5t-94 -105.5z" />
    <glyph glyph-name="uni0157" unicode="&#x157;" horiz-adv-x="754" 
d="M201 -75q-39 0 -56.5 10.5t-19.5 37.5q-41 618 -60 1312q0 37 8.5 53t31.5 19q113 12 192 12q103 0 177.5 -55t110.5 -146.5t36 -206.5q0 -225 -156 -352q18 -49 53 -134t89 -211t85 -201q12 -28 -2.5 -53.5t-40 -37t-51.5 -14.5t-38 14q-24 30 -114.5 232t-140.5 333
l-56 -7l36 -562q0 -43 -84 -43zM237 709q108 7 168 73.5t60 194.5q0 122 -58 178.5t-182 41.5q-7 -223 12 -488zM419 -420q-47 -22 -76 -25.5t-45.5 7t-32.5 36.5q-7 9 -3 22.5t19 21.5q46 23 67 37q25 16 38 52.5t-6 70.5q-57 77 -41 108q9 19 35.5 30.5t56.5 7.5
q37 -4 59 -32.5t37 -85.5q18 -68 -14 -144.5t-94 -105.5z" />
    <glyph glyph-name="Rcaron" unicode="&#x158;" horiz-adv-x="958" 
d="M415 1659q-7 3 -14.5 8t-14 9.5t-17.5 15.5t-18.5 18t-24.5 24.5t-28 28.5q-123 124 -123 152q0 36 29 62q28 26 55 26q15 0 54.5 -39t121.5 -129l151 183q29 26 86 -15q20 -14 30.5 -32.5t1.5 -31.5q-38 -54 -119.5 -155t-101.5 -117q-13 -11 -34 -12.5t-34 4.5z
M199 -49q-19 0 -31.5 13t-12.5 35l-2 960v488q0 80 58 91q49 9 146 9q326 0 412 -260q28 -86 28 -216q0 -117 -52.5 -206t-167.5 -174q65 -148 141.5 -343t110.5 -301q6 -20 -9 -40t-39 -31t-48 -14.5t-36 9.5q-15 15 -62 127.5t-118.5 296t-98.5 248.5l-94 -7
q-3 -90 -8.5 -331t-7.5 -305q-1 -49 -57 -49h-52zM317 813q131 -6 223.5 80t92.5 242q0 244 -312 244q-8 -173 -8 -348q0 -89 4 -218z" />
    <glyph glyph-name="rcaron" unicode="&#x159;" horiz-adv-x="754" 
d="M261 1478q-7 3 -14.5 8t-14 9.5t-17.5 15.5t-18.5 18t-24.5 24.5t-28 28.5q-123 124 -123 152q0 36 29 62q28 26 55 26q15 0 54.5 -39t121.5 -129l151 183q29 26 86 -15q20 -14 30.5 -32.5t1.5 -31.5q-38 -54 -119.5 -155t-101.5 -117q-13 -11 -34 -12.5t-34 4.5z
M201 -75q-39 0 -56.5 10.5t-19.5 37.5q-41 618 -60 1312q0 37 8.5 53t31.5 19q113 12 192 12q103 0 177.5 -55t110.5 -146.5t36 -206.5q0 -225 -156 -352q18 -49 53 -134t89 -211t85 -201q12 -28 -2.5 -53.5t-40 -37t-51.5 -14.5t-38 14q-24 30 -114.5 232t-140.5 333
l-56 -7l36 -562q0 -43 -84 -43zM237 709q108 7 168 73.5t60 194.5q0 122 -58 178.5t-182 41.5q-7 -223 12 -488z" />
    <glyph glyph-name="Sacute" unicode="&#x15a;" horiz-adv-x="827" 
d="M302 1658q-31 -3 -59.5 25t-28.5 80q0 19 16 35.5t35 27.5t69 36q30 15 91 47.5t94 48t57 21.5q35 10 58 -22t23 -91q0 -21 -31 -42.5t-107 -61.5q-16 -8 -25 -13q-165 -88 -192 -91zM355 -53q-112 0 -176 58.5t-64 161.5v28q0 44 0.5 64.5t2.5 51t7 44.5t13.5 29.5
t22.5 21t34 5.5h28q21 0 38.5 -7t17.5 -21q0 -6 -4 -63.5t-4 -108.5q0 -35 27 -65.5t61 -30.5q61 0 110.5 29.5t77.5 86.5q28 56 28 256q0 34 -4.5 58t-19.5 44t-31 33t-52.5 28t-69.5 25.5t-95 28.5q-85 25 -126 74.5t-53.5 143.5t-3.5 271q10 189 78.5 279.5t208.5 90.5
q113 0 196.5 -55.5t95.5 -148.5q6 -37 6 -187q0 -61 -24 -81t-82 -20q-25 0 -44.5 9.5t-19.5 26.5q4 97 4 176q0 112 -140 112q-76 0 -100 -108q-7 -37 -12 -252q-3 -62 17 -96.5t75 -55.5q42 -16 111.5 -31t116 -35t82.5 -62q10 -11 17.5 -23.5t13 -22t10 -24.5t7.5 -24
t5 -27.5t3 -26t1.5 -30.5t0.5 -30.5v-35v-36.5q0 -338 -121 -431q-131 -97 -267 -97h-4z" />
    <glyph glyph-name="sacute" unicode="&#x15b;" horiz-adv-x="697" 
d="M219 1430q-31 -3 -59.5 25t-28.5 80q0 19 16 35.5t35 27.5t69 36q30 15 91 47.5t94 48t57 21.5q35 10 58 -22t23 -91q0 -21 -31 -42.5t-107 -61.5q-16 -8 -25 -13q-165 -88 -192 -91zM356 -63q-148 -5 -215.5 95.5t-63.5 329.5q2 66 23 87.5t84 20.5q31 -1 48 -17t18 -42
q-1 -56 0.5 -94t9.5 -77.5t22.5 -62.5t41.5 -36.5t65 -12.5q36 1 47 31t13 106q2 112 -33 190t-86 123q-51 44 -78 69.5t-61.5 65t-52 73t-31 79.5t-15.5 99q-4 81 0 142.5t16.5 106t42.5 74.5t79 47t124 25q48 5 86 -2.5t64.5 -22.5t46.5 -45t32 -58t21.5 -75t14 -81.5
t9.5 -91.5q5 -47 -13.5 -72t-55.5 -27q-51 -1 -75 10.5t-29 38.5q-10 134 -17 165q-17 77 -68 77q-9 -1 -20 -3q-99 -23 -90 -132q5 -56 15.5 -94t42 -80.5t60.5 -71.5t99 -95q61 -57 97.5 -142t46 -158.5t3.5 -142.5q-9 -118 -29 -172q-55 -147 -235 -147h-4z" />
    <glyph glyph-name="Scedilla" unicode="&#x15e;" horiz-adv-x="827" 
d="M689 755q10 -11 17.5 -23.5t13 -22t10 -24.5t7.5 -24t5 -27.5t3 -26t1.5 -30.5t0.5 -30.5v-35v-36.5q0 -338 -121 -431q-84 -62 -166 -83q-13 -32 -21 -63q160 -3 160 -141q0 -69 -42.5 -119t-100.5 -50q-36 0 -60 29.5t-24 57.5q0 16 31 19q41 4 61.5 17t14.5 39
q-5 18 -13 28t-23 13t-28 3t-39.5 -2t-44.5 -2q-19 0 -29.5 10t-10.5 26q0 32 34 122q-99 8 -154.5 65.5t-55.5 153.5v28q0 44 0.5 64.5t2.5 51t7 44.5t13.5 29.5t22.5 21t34 5.5h28q21 0 38.5 -7t17.5 -21q0 -6 -4 -63.5t-4 -108.5q0 -35 27 -65.5t61 -30.5
q61 0 110.5 29.5t77.5 86.5q28 56 28 256q0 34 -4.5 58t-19.5 44t-31 33t-52.5 28t-69.5 25.5t-95 28.5q-85 25 -126 74.5t-53.5 143.5t-3.5 271q10 189 78.5 279.5t208.5 90.5q113 0 196.5 -55.5t95.5 -148.5q6 -37 6 -187q0 -61 -24 -81t-82 -20q-25 0 -44.5 9.5
t-19.5 26.5q4 97 4 176q0 112 -140 112q-76 0 -100 -108q-7 -37 -12 -252q-3 -62 17 -96.5t75 -55.5q42 -16 111.5 -31t116 -35t82.5 -62z" />
    <glyph glyph-name="scedilla" unicode="&#x15f;" horiz-adv-x="697" 
d="M477 699q61 -57 97.5 -142t46 -158.5t3.5 -142.5q-9 -120 -30 -175q-47 -120 -178 -140q-12 -28 -17 -53q160 -3 160 -141q0 -69 -42.5 -119t-100.5 -50q-36 0 -60 29.5t-24 57.5q0 16 31 19q41 4 61.5 17t14.5 39q-5 18 -13 28t-23 13t-28 3t-39.5 -2t-44.5 -2
q-19 0 -29.5 10t-10.5 26q0 29 35 125q-111 18 -161.5 119.5t-47.5 301.5q2 66 23 87.5t84 20.5q31 -1 48 -17t18 -42q-1 -56 0.5 -94t9.5 -77.5t22.5 -62.5t41.5 -36.5t65 -12.5q36 1 47 31t13 106q2 112 -33 190t-86 123q-51 44 -78 69.5t-61.5 65t-52 73t-31 79.5
t-15.5 99q-4 81 0 142.5t16.5 106t42.5 74.5t79 47t124 25q48 5 86 -2.5t64.5 -22.5t46.5 -45t32 -58t21.5 -75t14 -81.5t9.5 -91.5q5 -47 -13.5 -72t-55.5 -27q-51 -1 -75 10.5t-29 38.5q-10 134 -17 165q-17 77 -68 77q-9 -1 -20 -3q-99 -23 -90 -132q5 -56 15.5 -94
t42 -80.5t60.5 -71.5t99 -95z" />
    <glyph glyph-name="Scaron" unicode="&#x160;" horiz-adv-x="827" 
d="M356 1693q-7 3 -14.5 8t-14 9.5t-17.5 15.5t-18.5 18t-24.5 24.5t-28 28.5q-123 124 -123 152q0 36 29 62q28 26 55 26q15 0 54.5 -39t121.5 -129l151 183q29 26 86 -15q20 -14 30.5 -32.5t1.5 -31.5q-38 -54 -119.5 -155t-101.5 -117q-13 -11 -34 -12.5t-34 4.5z
M355 -53q-112 0 -176 58.5t-64 161.5v28q0 44 0.5 64.5t2.5 51t7 44.5t13.5 29.5t22.5 21t34 5.5h28q21 0 38.5 -7t17.5 -21q0 -6 -4 -63.5t-4 -108.5q0 -35 27 -65.5t61 -30.5q61 0 110.5 29.5t77.5 86.5q28 56 28 256q0 34 -4.5 58t-19.5 44t-31 33t-52.5 28t-69.5 25.5
t-95 28.5q-85 25 -126 74.5t-53.5 143.5t-3.5 271q10 189 78.5 279.5t208.5 90.5q113 0 196.5 -55.5t95.5 -148.5q6 -37 6 -187q0 -61 -24 -81t-82 -20q-25 0 -44.5 9.5t-19.5 26.5q4 97 4 176q0 112 -140 112q-76 0 -100 -108q-7 -37 -12 -252q-3 -62 17 -96.5t75 -55.5
q42 -16 111.5 -31t116 -35t82.5 -62q10 -11 17.5 -23.5t13 -22t10 -24.5t7.5 -24t5 -27.5t3 -26t1.5 -30.5t0.5 -30.5v-35v-36.5q0 -338 -121 -431q-131 -97 -267 -97h-4z" />
    <glyph glyph-name="scaron" unicode="&#x161;" horiz-adv-x="697" 
d="M333 1468q-7 3 -14.5 8t-14 9.5t-17.5 15.5t-18.5 18t-24.5 24.5t-28 28.5q-123 124 -123 152q0 36 29 62q28 26 55 26q15 0 54.5 -39t121.5 -129l151 183q29 26 86 -15q20 -14 30.5 -32.5t1.5 -31.5q-38 -54 -119.5 -155t-101.5 -117q-13 -11 -34 -12.5t-34 4.5z
M356 -63q-148 -5 -215.5 95.5t-63.5 329.5q2 66 23 87.5t84 20.5q31 -1 48 -17t18 -42q-1 -56 0.5 -94t9.5 -77.5t22.5 -62.5t41.5 -36.5t65 -12.5q36 1 47 31t13 106q2 112 -33 190t-86 123q-51 44 -78 69.5t-61.5 65t-52 73t-31 79.5t-15.5 99q-4 81 0 142.5t16.5 106
t42.5 74.5t79 47t124 25q48 5 86 -2.5t64.5 -22.5t46.5 -45t32 -58t21.5 -75t14 -81.5t9.5 -91.5q5 -47 -13.5 -72t-55.5 -27q-51 -1 -75 10.5t-29 38.5q-10 134 -17 165q-17 77 -68 77q-9 -1 -20 -3q-99 -23 -90 -132q5 -56 15.5 -94t42 -80.5t60.5 -71.5t99 -95
q61 -57 97.5 -142t46 -158.5t3.5 -142.5q-9 -118 -29 -172q-55 -147 -235 -147h-4z" />
    <glyph glyph-name="uni0162" unicode="&#x162;" horiz-adv-x="982" 
d="M639 1535q141 0 190.5 -9.5t49.5 -42.5q0 -62 -9 -83t-39 -21q-91 0 -278 -8q0 -8 1 -254t1 -574q0 -259 -8 -528q0 -24 -56 -28q-2 -58 -1 -69q109 14 159 -26t50 -115q0 -69 -42.5 -119t-100.5 -50q-36 0 -60 29.5t-24 57.5q0 16 31 19q41 4 61.5 17t14.5 39
q-5 18 -13 28t-23 13t-28 3t-39.5 -2t-44.5 -2q-19 0 -29.5 10t-10.5 26q0 9 -1.5 73t-2.5 114v4q0 1095 1 1326l-287 -11q-38 0 -38 47q0 32 3 48.5t15.5 32t38.5 22t71 9.5q341 24 448 24z" />
    <glyph glyph-name="uni0163" unicode="&#x163;" horiz-adv-x="848" 
d="M660 1344h44.5t34 -1.5t28.5 -4.5t17 -9t12 -14.5t3 -21.5v-60q0 -51 -43 -51l-243 -12q-15 -280 -15 -450q0 -35 2.5 -184.5t2.5 -185.5q0 -238 -6 -364q-1 -32 -83 -32q-2 -50 -2 -52q109 11 158 -31t46 -117q-3 -69 -47 -117.5t-102 -46.5q-36 1 -58.5 31t-22.5 59
q0 17 32 18q41 2 61.5 14.5t15.5 38.5q-3 19 -11 29t-23 13.5t-28 3.5t-39 -1t-45 0t-29.5 11.5t-9.5 26.5q0 7 0.5 74.5t2.5 120.5q3 183 3 284q0 41 -3 224t-3 217q0 167 17 407l-232 -17q-40 0 -40 50v75q0 47 34 51q322 24 571 24z" />
    <glyph glyph-name="Tcaron" unicode="&#x164;" horiz-adv-x="949" 
d="M436 1661q-7 3 -14.5 8t-14 9.5t-17.5 15.5t-18.5 18t-24.5 24.5t-28 28.5q-123 124 -123 152q0 36 29 62q28 26 55 26q15 0 54.5 -39t121.5 -129l151 183q29 26 86 -15q20 -14 30.5 -32.5t1.5 -31.5q-38 -54 -119.5 -155t-101.5 -117q-13 -11 -34 -12.5t-34 4.5z
M483 -13q-54 0 -75 11.5t-21 38.5q0 1095 1 1326l-287 -11q-38 0 -38 47q0 32 3 48.5t15.5 32t38.5 22t71 9.5q341 24 448 24q141 0 190.5 -9.5t49.5 -42.5q0 -62 -9 -83t-39 -21q-91 0 -278 -8q0 -8 1 -254t1 -574q0 -259 -8 -528q0 -13 -19 -20.5t-45 -7.5z" />
    <glyph glyph-name="tcaron" unicode="&#x165;" horiz-adv-x="848" 
d="M395 1453q-7 3 -14.5 8t-14 9.5t-17.5 15.5t-18.5 18t-24.5 24.5t-28 28.5q-123 124 -123 152q0 36 29 62q28 26 55 26q15 0 54.5 -39t121.5 -129l151 183q29 26 86 -15q20 -14 30.5 -32.5t1.5 -31.5q-38 -54 -119.5 -155t-101.5 -117q-13 -11 -34 -12.5t-34 4.5z
M411 -46q-59 1 -78.5 10t-19.5 36q0 1 1.5 125t1.5 188q0 41 -3 224t-3 217q0 167 17 407l-232 -17q-40 0 -40 50v75q0 47 34 51q322 24 571 24h44.5t34 -1.5t28.5 -4.5t17 -9t12 -14.5t3 -21.5v-60q0 -51 -43 -51l-243 -12q-15 -280 -15 -450q0 -35 2.5 -184.5t2.5 -185.5
q0 -238 -6 -364q-1 -32 -86 -32z" />
    <glyph glyph-name="Tbar" unicode="&#x166;" horiz-adv-x="949" 
d="M639 1535q141 0 190.5 -9.5t49.5 -42.5q0 -62 -9 -83t-39 -21q-91 0 -278 -8q0 -40 0.5 -100t1 -174.5t0.5 -239.5l84 3.5t93 3.5q29 0 39.5 -28.5t10.5 -95.5q0 -54 -63 -56q-54 -2 -164 -4v-137q0 -259 -8 -528q0 -13 -19 -20.5t-45 -7.5q-54 0 -75 11.5t-21 38.5
q0 32 -0.5 245.5t-0.5 394.5q-61 -1 -181 -1q-22 0 -32 12t-13 46q-6 113 66 114q112 2 161 4q0 322 1 511l-287 -11q-38 0 -38 47q0 32 3 48.5t15.5 32t38.5 22t71 9.5q341 24 448 24z" />
    <glyph glyph-name="tbar" unicode="&#x167;" horiz-adv-x="848" 
d="M660 1344h44.5t34 -1.5t28.5 -4.5t17 -9t12 -14.5t3 -21.5v-60q0 -51 -43 -51l-243 -12q-11 -214 -13 -312l156 6q27 0 37 -29t10 -95q0 -54 -60 -56q-24 0 -72.5 -2t-72.5 -2q0 -40 2.5 -168t2.5 -162q0 -238 -6 -364q-1 -32 -86 -32q-59 1 -78.5 10t-19.5 36
q0 1 1.5 125t1.5 188q0 31 -2.5 169.5t-2.5 194.5q-51 -1 -152 -1q-21 0 -30.5 12t-11.5 46q-6 113 62 114q90 2 132 4q5 151 16 309l-232 -17q-40 0 -40 50v75q0 47 34 51q322 24 571 24z" />
    <glyph glyph-name="Umacron" unicode="&#x16a;" horiz-adv-x="979" 
d="M258 1756q-48 2 -41 95q3 40 17 56.5t48 19.5q232 16 368 6q19 -1 28 -14t8.5 -32.5t-1.5 -44.5q-4 -71 -65 -71q-21 0 -148.5 -9t-213.5 -6zM552 -25q-132 0 -230 51.5t-138 160.5q-64 174 -64 456q0 96 16 636q0 67 -4 251q0 25 36 25h66q43 0 56.5 -41t13.5 -139
l-16 -668q0 -253 25.5 -370t94.5 -158q57 -34 144 -28q28 2 48.5 15t35 40.5t23.5 57t15 81.5t9 95t7 114q10 209 10 533q0 231 -32 443q-2 12 4.5 19.5t21 10t24.5 3t27 0.5h7q45 0 60.5 -27.5t27.5 -108.5q13 -87 16 -352q4 -214 0.5 -390.5t-15 -308t-40.5 -221
t-76 -130.5q-58 -50 -173 -50z" />
    <glyph glyph-name="umacron" unicode="&#x16b;" horiz-adv-x="769" 
d="M204 1453q-48 2 -41 95q3 40 17 56.5t48 19.5q232 16 368 6q19 -1 28 -14t8.5 -32.5t-1.5 -44.5q-4 -71 -65 -71q-21 0 -148.5 -9t-213.5 -6zM346 -27q-149 0 -205 97q-44 77 -53 270q-2 45 -4 149q-2 74 -3 114q-5 173 6.5 385.5t27.5 292.5q3 17 13.5 25t20 10t32.5 3
q48 3 80 -10.5t32 -37.5q-28 -413 -28 -536q0 -279 6 -358q18 -213 94 -214q32 0 52.5 6.5t36.5 28.5t24.5 51.5t14 88t7 126t1.5 175.5q0 68 -8 601q0 28 23 35.5t97 7.5q34 0 49.5 -19.5t18.5 -86.5q8 -445 8 -502v-46q0 -110 -0.5 -160.5t-4.5 -132t-12.5 -116.5
t-25 -87.5t-41 -73.5t-61 -45.5t-85.5 -32.5t-113 -8z" />
    <glyph glyph-name="Uring" unicode="&#x16e;" horiz-adv-x="979" 
d="M457 1666q-98 0 -155 70.5t-57 173.5q0 127 136 188q57 27 112.5 22.5t99 -29t70 -72.5t26.5 -109q0 -123 -59.5 -183.5t-172.5 -60.5zM477 1806q32 0 54 21t22 59q0 46 -20 74.5t-53 29.5q-36 1 -64 -29t-28 -79q0 -36 23.5 -56t65.5 -20zM552 -25q-132 0 -230 51.5
t-138 160.5q-64 174 -64 456q0 96 16 636q0 67 -4 251q0 25 36 25h66q43 0 56.5 -41t13.5 -139l-16 -668q0 -253 25.5 -370t94.5 -158q57 -34 144 -28q28 2 48.5 15t35 40.5t23.5 57t15 81.5t9 95t7 114q10 209 10 533q0 231 -32 443q-2 12 4.5 19.5t21 10t24.5 3t27 0.5h7
q45 0 60.5 -27.5t27.5 -108.5q13 -87 16 -352q4 -214 0.5 -390.5t-15 -308t-40.5 -221t-76 -130.5q-58 -50 -173 -50z" />
    <glyph glyph-name="uring" unicode="&#x16f;" horiz-adv-x="769" 
d="M382 1400q-98 0 -155 70.5t-57 173.5q0 127 136 188q57 27 112.5 22.5t99 -29t70 -72.5t26.5 -109q0 -123 -59.5 -183.5t-172.5 -60.5zM402 1540q32 0 54 21t22 59q0 46 -20 74.5t-53 29.5q-36 1 -64 -29t-28 -79q0 -36 23.5 -56t65.5 -20zM346 -27q-149 0 -205 97
q-44 77 -53 270q-2 45 -4 149q-2 74 -3 114q-5 173 6.5 385.5t27.5 292.5q3 17 13.5 25t20 10t32.5 3q48 3 80 -10.5t32 -37.5q-28 -413 -28 -536q0 -279 6 -358q18 -213 94 -214q32 0 52.5 6.5t36.5 28.5t24.5 51.5t14 88t7 126t1.5 175.5q0 68 -8 601q0 28 23 35.5t97 7.5
q34 0 49.5 -19.5t18.5 -86.5q8 -445 8 -502v-46q0 -110 -0.5 -160.5t-4.5 -132t-12.5 -116.5t-25 -87.5t-41 -73.5t-61 -45.5t-85.5 -32.5t-113 -8z" />
    <glyph glyph-name="Uhungarumlaut" unicode="&#x170;" horiz-adv-x="979" 
d="M276 1731q-13 8 -28.5 17.5t-23 14t-16.5 10t-12.5 9t-7 8t-4.5 9t-1 10.5q0 18 16.5 49.5t69.5 117.5q8 14 13 21q7 11 17 28.5t15 25.5t12 18t12.5 15t11.5 7q39 13 84 -8q34 -16 47 -43t1 -55q-38 -92 -116 -220q-46 -62 -90 -34zM612 1700q-83 24 -106.5 42t-7.5 55
q22 39 48 86.5t38.5 71t26.5 48t23 36.5t16 18q26 23 70 12q52 -15 67 -29t15 -39q0 -17 -20.5 -60.5t-81.5 -160.5q-25 -47 -44 -67.5t-44 -12.5zM552 -25q-132 0 -230 51.5t-138 160.5q-64 174 -64 456q0 96 16 636q0 67 -4 251q0 25 36 25h66q43 0 56.5 -41t13.5 -139
l-16 -668q0 -253 25.5 -370t94.5 -158q57 -34 144 -28q28 2 48.5 15t35 40.5t23.5 57t15 81.5t9 95t7 114q10 209 10 533q0 231 -32 443q-2 12 4.5 19.5t21 10t24.5 3t27 0.5h7q45 0 60.5 -27.5t27.5 -108.5q13 -87 16 -352q4 -214 0.5 -390.5t-15 -308t-40.5 -221
t-76 -130.5q-58 -50 -173 -50z" />
    <glyph glyph-name="uhungarumlaut" unicode="&#x171;" horiz-adv-x="769" 
d="M209 1434q-13 8 -28.5 17.5t-23 14t-16.5 10t-12.5 9t-7 8t-4.5 9t-1 10.5q0 18 16.5 49.5t69.5 117.5q8 14 13 21q7 11 17 28.5t15 25.5t12 18t12.5 15t11.5 7q39 13 84 -8q34 -16 47 -43t1 -55q-38 -92 -116 -220q-46 -62 -90 -34zM545 1403q-83 24 -106.5 42t-7.5 55
q22 39 48 86.5t38.5 71t26.5 48t23 36.5t16 18q26 23 70 12q52 -15 67 -29t15 -39q0 -17 -20.5 -60.5t-81.5 -160.5q-25 -47 -44 -67.5t-44 -12.5zM346 -27q-149 0 -205 97q-44 77 -53 270q-2 45 -4 149q-2 74 -3 114q-5 173 6.5 385.5t27.5 292.5q3 17 13.5 25t20 10
t32.5 3q48 3 80 -10.5t32 -37.5q-28 -413 -28 -536q0 -279 6 -358q18 -213 94 -214q32 0 52.5 6.5t36.5 28.5t24.5 51.5t14 88t7 126t1.5 175.5q0 68 -8 601q0 28 23 35.5t97 7.5q34 0 49.5 -19.5t18.5 -86.5q8 -445 8 -502v-46q0 -110 -0.5 -160.5t-4.5 -132t-12.5 -116.5
t-25 -87.5t-41 -73.5t-61 -45.5t-85.5 -32.5t-113 -8z" />
    <glyph glyph-name="Uogonek" unicode="&#x172;" horiz-adv-x="979" 
d="M856 1075q4 -214 0.5 -390.5t-15 -308t-40.5 -221t-76 -130.5q-56 -47 -158 -50q64 -138 -28 -153q-27 -3 -52.5 -1.5t-46 3.5t-33 -8.5t-12.5 -37.5t18.5 -54.5t49.5 -27.5q20 0 55.5 10t48.5 10q27 0 28 -24v-18q0 -86 -140 -86q-85 0 -132.5 55t-47.5 143q0 34 8 60
t28.5 50t62 34.5t102.5 5.5l-8 45q-219 29 -284 206q-64 174 -64 456q0 96 16 636q0 67 -4 251q0 25 36 25h66q43 0 56.5 -41t13.5 -139l-16 -668q0 -253 25.5 -370t94.5 -158q57 -34 144 -28q28 2 48.5 15t35 40.5t23.5 57t15 81.5t9 95t7 114q10 209 10 533q0 231 -32 443
q-2 12 4.5 19.5t21 10t24.5 3t27 0.5h7q45 0 60.5 -27.5t27.5 -108.5q13 -87 16 -352z" />
    <glyph glyph-name="uogonek" unicode="&#x173;" horiz-adv-x="769" 
d="M689 675q0 -299 -9 -389q-17 -173 -90 -242q-46 -44 -125 -60q78 -156 -20 -172q-27 -3 -52.5 -1.5t-46 3.5t-33 -8.5t-12.5 -37.5t18.5 -54.5t49.5 -27.5q20 0 55.5 10t48.5 10q27 0 28 -24v-18q0 -86 -140 -86q-85 0 -132.5 55t-47.5 143q0 34 8 60t28.5 50t62 34.5
t102.5 5.5l-8 47h-28q-149 0 -205 97q-44 77 -53 270q-2 45 -4 149q-2 74 -3 114q-5 173 6.5 385.5t27.5 292.5q3 17 13.5 25t20 10t32.5 3q48 3 80 -10.5t32 -37.5q-28 -413 -28 -536q0 -279 6 -358q18 -213 94 -214q32 0 52.5 6.5t36.5 28.5t24.5 51.5t14 88t7 126
t1.5 175.5q0 68 -8 601q0 28 23 35.5t97 7.5q34 0 49.5 -19.5t18.5 -86.5q8 -445 8 -502z" />
    <glyph glyph-name="Wcircumflex" unicode="&#x174;" horiz-adv-x="1170" 
d="M366 1665q-46 23 -60 50.5t2 45.5q182 250 203 268q23 14 56 10q29 -4 142.5 -122.5t117.5 -143.5q5 -33 -25 -63.5t-59 -24.5q-16 4 -53 39t-107 108q-13 14 -20 21q-132 -160 -152 -180q-19 -21 -45 -8zM747 -42q-34 0 -53 21.5t-32 71.5l-106 356q-67 -293 -108 -384
q-11 -22 -28.5 -31t-48.5 -9q-46 0 -70 23.5t-31 72.5q-78 557 -188 1472q-3 28 25.5 42t70.5 10q38 -4 57 -44t27 -128q4 -56 130 -1018l75 252q23 78 41 112t40 34h24q28 0 65.5 -100t96.5 -322l32 196q49 261 124 929q4 30 25 44t54 12q50 -3 69.5 -26t15.5 -54
q-61 -555 -119.5 -940.5t-88.5 -506.5q-13 -52 -31.5 -68.5t-67.5 -16.5z" />
    <glyph glyph-name="wcircumflex" unicode="&#x175;" horiz-adv-x="1101" 
d="M336 1485q-46 23 -60 50.5t2 45.5q182 250 203 268q23 14 56 10q29 -4 142.5 -122.5t117.5 -143.5q5 -33 -25 -63.5t-59 -24.5q-16 4 -53 39t-107 108q-13 14 -20 21q-132 -160 -152 -180q-19 -21 -45 -8zM753 -51q-12 -3 -28.5 -5t-38 0t-31.5 11q-14 13 -51 123.5
t-65 230.5q-20 -54 -47 -133t-44.5 -126t-31.5 -73q-12 -21 -54 -24t-61 2q-34 3 -47 24t-23 78q-101 635 -160 1277q-2 22 14 28.5t74 6.5q31 0 55.5 -16.5t28.5 -47.5q32 -271 63.5 -529t45 -366.5t13.5 -116.5q83 269 135 404q8 20 47 20q16 0 26.5 -11t14.5 -22t13 -42
q21 -68 67.5 -197t54.5 -155q53 218 94 518t51 506q0 31 9 44.5t28 15.5t48 0q15 -1 25 -2t18 -5t13 -6t8.5 -10t5 -13t2.5 -19.5t0.5 -23.5t-0.5 -31.5v-37.5q0 -175 -35.5 -439t-102.5 -534q-43 -174 -67.5 -234t-66.5 -70z" />
    <glyph glyph-name="Ycircumflex" unicode="&#x176;" horiz-adv-x="840" 
d="M196 1665q-46 23 -60 50.5t2 45.5q182 250 203 268q23 14 56 10q29 -4 142.5 -122.5t117.5 -143.5q5 -33 -25 -63.5t-59 -24.5q-16 4 -53 39t-107 108q-13 14 -20 21q-132 -160 -152 -180q-19 -21 -45 -8zM388 -30q-55 0 -73.5 10t-18.5 43q0 14 2.5 131.5t2.5 247.5
q0 26 -1.5 83t-4.5 156.5t-5 190.5q-89 257 -248 640q-13 33 17.5 59.5t80.5 26.5q10 0 23 -7t20 -19q58 -105 124 -281q13 -35 35 -91t34 -90q99 218 236 432q28 40 72 40q41 0 71 -40t-1 -81q-91 -133 -288 -535q4 -91 5.5 -195.5t1.5 -175.5t-0.5 -186t-0.5 -167
q0 -85 -10 -127.5t-26 -53.5t-48 -11z" />
    <glyph glyph-name="ycircumflex" unicode="&#x177;" horiz-adv-x="730" 
d="M156 1505q-46 23 -60 50.5t2 45.5q182 250 203 268q23 14 56 10q29 -4 142.5 -122.5t117.5 -143.5q5 -33 -25 -63.5t-59 -24.5q-16 4 -53 39t-107 108q-13 14 -20 21q-132 -160 -152 -180q-19 -21 -45 -8zM276 -80q-40 0 -61.5 9.5t-20.5 29.5q25 668 25 679
q-7 29 -95 336t-93 353q-2 26 21 42t80 20q32 2 45.5 -9t29.5 -55q79 -269 120 -447q177 459 190 487q16 38 43 41.5t73 -28.5q47 -33 34 -77q-78 -238 -248 -657q-33 -661 -33 -664q-4 -42 -22 -51t-73 -9h-15z" />
    <glyph glyph-name="Ydieresis" unicode="&#x178;" horiz-adv-x="840" 
d="M226 1676q-76 0 -76 44v144q0 65 80 64h48q22 0 39 -16t17 -44q0 -10 -0.5 -28.5t-1.5 -52.5t-2 -67q-1 -24 -20 -33t-68 -11h-16zM602 1664q-104 0 -104 60v128q0 35 19.5 53.5t52.5 18.5h24q41 0 63 -12.5t21 -51.5q0 -66 0.5 -104.5t-9.5 -59t-24 -26.5t-43 -6z
M388 -30q-55 0 -73.5 10t-18.5 43q0 14 2.5 131.5t2.5 247.5q0 26 -1.5 83t-4.5 156.5t-5 190.5q-89 257 -248 640q-13 33 17.5 59.5t80.5 26.5q10 0 23 -7t20 -19q58 -105 124 -281q13 -35 35 -91t34 -90q99 218 236 432q28 40 72 40q41 0 71 -40t-1 -81
q-91 -133 -288 -535q4 -91 5.5 -195.5t1.5 -175.5t-0.5 -186t-0.5 -167q0 -85 -10 -127.5t-26 -53.5t-48 -11z" />
    <glyph glyph-name="Zacute" unicode="&#x179;" horiz-adv-x="873" 
d="M325 1658q-31 -3 -59.5 25t-28.5 80q0 19 16 35.5t35 27.5t69 36q30 15 91 47.5t94 48t57 21.5q35 10 58 -22t23 -91q0 -21 -31 -42.5t-107 -61.5q-16 -8 -25 -13q-165 -88 -192 -91zM643 -22q-182 0 -255.5 3t-179.5 15q-117 13 -117 82q0 62 13.5 138.5t32.5 148.5
t57.5 175.5t69.5 181t88.5 205.5t95 209t107.5 230q-41 0 -156 -0.5t-206 -0.5q-46 0 -46 77q0 48 16.5 65.5t59.5 22.5q83 8 360 8q115 0 150.5 -10t33.5 -42q-4 -54 -83.5 -244t-172.5 -392.5t-170.5 -406.5t-77.5 -285q162 -20 384 -20q36 0 52 -18t16 -66
q0 -46 -18.5 -61t-53.5 -15z" />
    <glyph glyph-name="zacute" unicode="&#x17a;" horiz-adv-x="759" 
d="M214 1432q-31 -3 -59.5 25t-28.5 80q0 19 16 35.5t35 27.5t69 36q30 15 91 47.5t94 48t57 21.5q35 10 58 -22t23 -91q0 -21 -31 -42.5t-107 -61.5q-16 -8 -25 -13q-165 -88 -192 -91zM201 -42q-72 0 -102.5 18t-17.5 74q40 185 116 444q44 148 87.5 281t84.5 249.5
t48 137.5h-260q-51 0 -71.5 14.5t-20.5 45.5q0 58 14.5 85t50.5 27h355q136 0 136 -96q0 -15 -5 -38t-18 -61.5t-25.5 -74.5t-36.5 -103.5t-43 -122.5q-46 -134 -216 -708q205 16 326 16q25 1 33.5 -12.5t8.5 -35.5q0 -64 -11.5 -94.5t-37.5 -29.5q-313 -16 -395 -16z" />
    <glyph glyph-name="Zdotaccent" unicode="&#x17b;" horiz-adv-x="873" 
d="M462 1697q-47 0 -79 32t-32 74q0 41 32 73t79 32q46 0 78 -32t32 -73q0 -42 -32 -74t-78 -32zM643 -22q-182 0 -255.5 3t-179.5 15q-117 13 -117 82q0 62 13.5 138.5t32.5 148.5t57.5 175.5t69.5 181t88.5 205.5t95 209t107.5 230q-41 0 -156 -0.5t-206 -0.5
q-46 0 -46 77q0 48 16.5 65.5t59.5 22.5q83 8 360 8q115 0 150.5 -10t33.5 -42q-4 -54 -83.5 -244t-172.5 -392.5t-170.5 -406.5t-77.5 -285q162 -20 384 -20q36 0 52 -18t16 -66q0 -46 -18.5 -61t-53.5 -15z" />
    <glyph glyph-name="zdotaccent" unicode="&#x17c;" horiz-adv-x="759" 
d="M345 1462q-47 0 -79 32t-32 74q0 41 32 73t79 32q46 0 78 -32t32 -73q0 -42 -32 -74t-78 -32zM201 -42q-72 0 -102.5 18t-17.5 74q40 185 116 444q44 148 87.5 281t84.5 249.5t48 137.5h-260q-51 0 -71.5 14.5t-20.5 45.5q0 58 14.5 85t50.5 27h355q136 0 136 -96
q0 -15 -5 -38t-18 -61.5t-25.5 -74.5t-36.5 -103.5t-43 -122.5q-46 -134 -216 -708q205 16 326 16q25 1 33.5 -12.5t8.5 -35.5q0 -64 -11.5 -94.5t-37.5 -29.5q-313 -16 -395 -16z" />
    <glyph glyph-name="Zcaron" unicode="&#x17d;" horiz-adv-x="873" 
d="M356 1693q-7 3 -14.5 8t-14 9.5t-17.5 15.5t-18.5 18t-24.5 24.5t-28 28.5q-123 124 -123 152q0 36 29 62q28 26 55 26q15 0 54.5 -39t121.5 -129l151 183q29 26 86 -15q20 -14 30.5 -32.5t1.5 -31.5q-38 -54 -119.5 -155t-101.5 -117q-13 -11 -34 -12.5t-34 4.5z
M643 -22q-182 0 -255.5 3t-179.5 15q-117 13 -117 82q0 62 13.5 138.5t32.5 148.5t57.5 175.5t69.5 181t88.5 205.5t95 209t107.5 230q-41 0 -156 -0.5t-206 -0.5q-46 0 -46 77q0 48 16.5 65.5t59.5 22.5q83 8 360 8q115 0 150.5 -10t33.5 -42q-4 -54 -83.5 -244
t-172.5 -392.5t-170.5 -406.5t-77.5 -285q162 -20 384 -20q36 0 52 -18t16 -66q0 -46 -18.5 -61t-53.5 -15z" />
    <glyph glyph-name="zcaron" unicode="&#x17e;" horiz-adv-x="759" 
d="M356 1443q-7 3 -14.5 8t-14 9.5t-17.5 15.5t-18.5 18t-24.5 24.5t-28 28.5q-123 124 -123 152q0 36 29 62q28 26 55 26q15 0 54.5 -39t121.5 -129l151 183q29 26 86 -15q20 -14 30.5 -32.5t1.5 -31.5q-38 -54 -119.5 -155t-101.5 -117q-13 -11 -34 -12.5t-34 4.5z
M201 -42q-72 0 -102.5 18t-17.5 74q40 185 116 444q44 148 87.5 281t84.5 249.5t48 137.5h-260q-51 0 -71.5 14.5t-20.5 45.5q0 58 14.5 85t50.5 27h355q136 0 136 -96q0 -15 -5 -38t-18 -61.5t-25.5 -74.5t-36.5 -103.5t-43 -122.5q-46 -134 -216 -708q205 16 326 16
q25 1 33.5 -12.5t8.5 -35.5q0 -64 -11.5 -94.5t-37.5 -29.5q-313 -16 -395 -16z" />
    <glyph glyph-name="uni0218" unicode="&#x218;" horiz-adv-x="827" 
d="M355 -53q-112 0 -176 58.5t-64 161.5v28q0 44 0.5 64.5t2.5 51t7 44.5t13.5 29.5t22.5 21t34 5.5h28q21 0 38.5 -7t17.5 -21q0 -6 -4 -63.5t-4 -108.5q0 -35 27 -65.5t61 -30.5q61 0 110.5 29.5t77.5 86.5q28 56 28 256q0 34 -4.5 58t-19.5 44t-31 33t-52.5 28
t-69.5 25.5t-95 28.5q-85 25 -126 74.5t-53.5 143.5t-3.5 271q10 189 78.5 279.5t208.5 90.5q113 0 196.5 -55.5t95.5 -148.5q6 -37 6 -187q0 -61 -24 -81t-82 -20q-25 0 -44.5 9.5t-19.5 26.5q4 97 4 176q0 112 -140 112q-76 0 -100 -108q-7 -37 -12 -252q-3 -62 17 -96.5
t75 -55.5q42 -16 111.5 -31t116 -35t82.5 -62q10 -11 17.5 -23.5t13 -22t10 -24.5t7.5 -24t5 -27.5t3 -26t1.5 -30.5t0.5 -30.5v-35v-36.5q0 -338 -121 -431q-131 -97 -267 -97h-4zM397 -479q-47 -22 -76 -25.5t-45.5 7t-32.5 36.5q-7 9 -3 22.5t19 21.5q46 23 67 37
q25 16 38 52.5t-6 70.5q-57 77 -41 108q9 19 35.5 30.5t56.5 7.5q37 -4 59 -32.5t37 -85.5q18 -68 -14 -144.5t-94 -105.5z" />
    <glyph glyph-name="uni0219" unicode="&#x219;" horiz-adv-x="697" 
d="M356 -63q-148 -5 -215.5 95.5t-63.5 329.5q2 66 23 87.5t84 20.5q31 -1 48 -17t18 -42q-1 -56 0.5 -94t9.5 -77.5t22.5 -62.5t41.5 -36.5t65 -12.5q36 1 47 31t13 106q2 112 -33 190t-86 123q-51 44 -78 69.5t-61.5 65t-52 73t-31 79.5t-15.5 99q-4 81 0 142.5t16.5 106
t42.5 74.5t79 47t124 25q48 5 86 -2.5t64.5 -22.5t46.5 -45t32 -58t21.5 -75t14 -81.5t9.5 -91.5q5 -47 -13.5 -72t-55.5 -27q-51 -1 -75 10.5t-29 38.5q-10 134 -17 165q-17 77 -68 77q-9 -1 -20 -3q-99 -23 -90 -132q5 -56 15.5 -94t42 -80.5t60.5 -71.5t99 -95
q61 -57 97.5 -142t46 -158.5t3.5 -142.5q-9 -118 -29 -172q-55 -147 -235 -147h-4zM346 -505q-47 -22 -76 -25.5t-45.5 7t-32.5 36.5q-7 9 -3 22.5t19 21.5q46 23 67 37q25 16 38 52.5t-6 70.5q-57 77 -41 108q9 19 35.5 30.5t56.5 7.5q37 -4 59 -32.5t37 -85.5
q18 -68 -14 -144.5t-94 -105.5z" />
    <glyph glyph-name="uni021A" unicode="&#x21a;" horiz-adv-x="949" 
d="M483 -13q-54 0 -75 11.5t-21 38.5q0 1095 1 1326l-287 -11q-38 0 -38 47q0 32 3 48.5t15.5 32t38.5 22t71 9.5q341 24 448 24q141 0 190.5 -9.5t49.5 -42.5q0 -62 -9 -83t-39 -21q-91 0 -278 -8q0 -8 1 -254t1 -574q0 -259 -8 -528q0 -13 -19 -20.5t-45 -7.5zM479 -465
q-47 -22 -76 -25.5t-45.5 7t-32.5 36.5q-7 9 -3 22.5t19 21.5q46 23 67 37q25 16 38 52.5t-6 70.5q-57 77 -41 108q9 19 35.5 30.5t56.5 7.5q37 -4 59 -32.5t37 -85.5q18 -68 -14 -144.5t-94 -105.5z" />
    <glyph glyph-name="uni021B" unicode="&#x21b;" horiz-adv-x="848" 
d="M411 -46q-59 1 -78.5 10t-19.5 36q0 1 1.5 125t1.5 188q0 41 -3 224t-3 217q0 167 17 407l-232 -17q-40 0 -40 50v75q0 47 34 51q322 24 571 24h44.5t34 -1.5t28.5 -4.5t17 -9t12 -14.5t3 -21.5v-60q0 -51 -43 -51l-243 -12q-15 -280 -15 -450q0 -35 2.5 -184.5
t2.5 -185.5q0 -238 -6 -364q-1 -32 -86 -32zM409 -483q-47 -22 -76 -25.5t-45.5 7t-32.5 36.5q-7 9 -3 22.5t19 21.5q46 23 67 37q25 16 38 52.5t-6 70.5q-57 77 -41 108q9 19 35.5 30.5t56.5 7.5q37 -4 59 -32.5t37 -85.5q18 -68 -14 -144.5t-94 -105.5z" />
    <glyph glyph-name="circumflex" unicode="&#x2c6;" horiz-adv-x="791" 
d="M176 1685q-46 23 -60 50.5t2 45.5q182 250 203 268q23 14 56 10q29 -4 142.5 -122.5t117.5 -143.5q5 -33 -25 -63.5t-59 -24.5q-16 4 -53 39t-107 108q-13 14 -20 21q-132 -160 -152 -180q-19 -21 -45 -8z" />
    <glyph glyph-name="caron" unicode="&#x2c7;" horiz-adv-x="779" 
d="M356 1693q-7 3 -14.5 8t-14 9.5t-17.5 15.5t-18.5 18t-24.5 24.5t-28 28.5q-123 124 -123 152q0 36 29 62q28 26 55 26q15 0 54.5 -39t121.5 -129l151 183q29 26 86 -15q20 -14 30.5 -32.5t1.5 -31.5q-38 -54 -119.5 -155t-101.5 -117q-13 -11 -34 -12.5t-34 4.5z" />
    <glyph glyph-name="uni02C9" unicode="&#x2c9;" horiz-adv-x="681" 
d="M106 1646q-40 0 -40 44q0 128 68 128q202 5 440 16q44 0 44 -96v-28q0 -27 -15.5 -41.5t-40.5 -14.5q-248 -8 -456 -8z" />
    <glyph glyph-name="breve" unicode="&#x2d8;" horiz-adv-x="692" 
d="M337 1699q-23 0 -44 3q-159 22 -226 178q-12 32 -12 56q0 43 32 58q12 7 23 7q35 0 78 -56q59 -78 154 -81q104 4 172 78q31 49 64 49q3 0 15 -2q33 -6 44 -47v-4q0 -51 -26 -91q-58 -115 -215 -144q-28 -4 -59 -4z" />
    <glyph glyph-name="dotaccent" unicode="&#x2d9;" horiz-adv-x="445" 
d="M211 1677q-47 0 -79 32t-32 74q0 41 32 73t79 32q46 0 78 -32t32 -73q0 -42 -32 -74t-78 -32z" />
    <glyph glyph-name="ring" unicode="&#x2da;" horiz-adv-x="701" 
d="M330 1669q-98 0 -155 70.5t-57 173.5q0 127 136 188q57 27 112.5 22.5t99 -29t70 -72.5t26.5 -109q0 -123 -59.5 -183.5t-172.5 -60.5zM350 1809q32 0 54 21t22 59q0 46 -20 74.5t-53 29.5q-36 1 -64 -29t-28 -79q0 -36 23.5 -56t65.5 -20z" />
    <glyph glyph-name="ogonek" unicode="&#x2db;" horiz-adv-x="600" 
d="M341 -362q-85 0 -132.5 55t-47.5 143q0 34 8 60t28.5 50t62 34.5t102.5 5.5l-21 122h67q134 -216 17 -236q-27 -3 -52.5 -1.5t-46 3.5t-33 -8.5t-12.5 -37.5t18.5 -54.5t49.5 -27.5q20 0 55.5 10t48.5 10q27 0 28 -24v-18q0 -86 -140 -86z" />
    <glyph glyph-name="tilde" unicode="&#x2dc;" horiz-adv-x="907" 
d="M182 1618q-35 0 -68.5 26.5t-33.5 59.5q0 91 63.5 174t144.5 86q43 2 78 -11t58 -33t42.5 -40t39.5 -34t41 -14q46 0 93 128q6 22 18.5 28.5t38.5 4.5q89 -7 89 -64q0 -50 -32 -116t-81.5 -114.5t-94.5 -48.5q-53 0 -87.5 12.5t-78.5 52.5q-11 10 -25.5 25.5t-22 22.5
t-20 13t-27.5 6q-23 0 -39 -25.5t-24.5 -56.5t-27 -56.5t-44.5 -25.5z" />
    <glyph glyph-name="hungarumlaut" unicode="&#x2dd;" horiz-adv-x="795" 
d="M189 1567q-13 8 -28.5 17.5t-23 14t-16.5 10t-12.5 9t-7 8t-4.5 9t-1 10.5q0 18 16.5 49.5t69.5 117.5q8 14 13 21q7 11 17 28.5t15 25.5t12 18t12.5 15t11.5 7q39 13 84 -8q34 -16 47 -43t1 -55q-38 -92 -116 -220q-46 -62 -90 -34zM525 1536q-83 24 -106.5 42t-7.5 55
q22 39 48 86.5t38.5 71t26.5 48t23 36.5t16 18q26 23 70 12q52 -15 67 -29t15 -39q0 -17 -20.5 -60.5t-81.5 -160.5q-25 -47 -44 -67.5t-44 -12.5z" />
    <glyph glyph-name="gravecomb" unicode="&#x300;" 
d="M-122 1697q-41 0 -213 94.5t-189 119.5q-9 14 3.5 49.5t37.5 61t46 15.5q80 -38 221 -112.5t143 -75.5q17 -10 18.5 -35.5t-8 -51t-26 -45.5t-33.5 -20z" />
    <glyph glyph-name="acutecomb" unicode="&#x301;" 
d="M-420 1720q-31 -3 -59.5 25t-28.5 80q0 19 16 35.5t35 27.5t69 36q30 15 91 47.5t94 48t57 21.5q35 10 58 -22t23 -91q0 -21 -31 -42.5t-107 -61.5q-16 -8 -25 -13q-165 -88 -192 -91z" />
    <glyph glyph-name="uni0302" unicode="&#x302;" 
d="M-615 1685q-46 23 -60 50.5t2 45.5q182 250 203 268q23 14 56 10q29 -4 142.5 -122.5t117.5 -143.5q5 -33 -25 -63.5t-59 -24.5q-16 4 -53 39t-107 108q-13 14 -20 21q-132 -160 -152 -180q-19 -21 -45 -8z" />
    <glyph glyph-name="tildecomb" unicode="&#x303;" 
d="M-725 1618q-35 0 -68.5 26.5t-33.5 59.5q0 91 63.5 174t144.5 86q43 2 78 -11t58 -33t42.5 -40t39.5 -34t41 -14q46 0 93 128q6 22 18.5 28.5t38.5 4.5q89 -7 89 -64q0 -50 -32 -116t-81.5 -114.5t-94.5 -48.5q-53 0 -87.5 12.5t-78.5 52.5q-11 10 -25.5 25.5t-22 22.5
t-20 13t-27.5 6q-23 0 -39 -25.5t-24.5 -56.5t-27 -56.5t-44.5 -25.5z" />
    <glyph glyph-name="uni0304" unicode="&#x304;" 
d="M-517 1690q-48 2 -41 95q3 40 17 56.5t48 19.5q232 16 368 6q19 -1 28 -14t8.5 -32.5t-1.5 -44.5q-4 -71 -65 -71q-21 0 -148.5 -9t-213.5 -6z" />
    <glyph glyph-name="uni0306" unicode="&#x306;" 
d="M-355 1699q-23 0 -44 3q-159 22 -226 178q-12 32 -12 56q0 43 32 58q12 7 23 7q35 0 78 -56q59 -78 154 -81q104 4 172 78q31 49 64 49q3 0 15 -2q33 -6 44 -47v-4q0 -51 -26 -91q-58 -115 -215 -144q-28 -4 -59 -4z" />
    <glyph glyph-name="uni0307" unicode="&#x307;" 
d="M-234 1677q-47 0 -79 32t-32 74q0 41 32 73t79 32q46 0 78 -32t32 -73q0 -42 -32 -74t-78 -32z" />
    <glyph glyph-name="uni0308" unicode="&#x308;" 
d="M-544 1666q-76 0 -76 44v144q0 65 80 64h48q22 0 39 -16t17 -44q0 -10 -0.5 -28.5t-1.5 -52.5t-2 -67q-1 -24 -20 -33t-68 -11h-16zM-168 1654q-104 0 -104 60v128q0 35 19.5 53.5t52.5 18.5h24q41 0 63 -12.5t21 -51.5q0 -66 0.5 -104.5t-9.5 -59t-24 -26.5t-43 -6z" />
    <glyph glyph-name="uni030A" unicode="&#x30a;" 
d="M-371 1669q-98 0 -155 70.5t-57 173.5q0 127 136 188q57 27 112.5 22.5t99 -29t70 -72.5t26.5 -109q0 -123 -59.5 -183.5t-172.5 -60.5zM-351 1809q32 0 54 21t22 59q0 46 -20 74.5t-53 29.5q-36 1 -64 -29t-28 -79q0 -36 23.5 -56t65.5 -20z" />
    <glyph glyph-name="uni030B" unicode="&#x30b;" 
d="M-606 1567q-13 8 -28.5 17.5t-23 14t-16.5 10t-12.5 9t-7 8t-4.5 9t-1 10.5q0 18 16.5 49.5t69.5 117.5q8 14 13 21q7 11 17 28.5t15 25.5t12 18t12.5 15t11.5 7q39 13 84 -8q34 -16 47 -43t1 -55q-38 -92 -116 -220q-46 -62 -90 -34zM-270 1536q-83 24 -106.5 42
t-7.5 55q22 39 48 86.5t38.5 71t26.5 48t23 36.5t16 18q26 23 70 12q52 -15 67 -29t15 -39q0 -17 -20.5 -60.5t-81.5 -160.5q-25 -47 -44 -67.5t-44 -12.5z" />
    <glyph glyph-name="uni030C" unicode="&#x30c;" 
d="M-423 1693q-7 3 -14.5 8t-14 9.5t-17.5 15.5t-18.5 18t-24.5 24.5t-28 28.5q-123 124 -123 152q0 36 29 62q28 26 55 26q15 0 54.5 -39t121.5 -129l151 183q29 26 86 -15q20 -14 30.5 -32.5t1.5 -31.5q-38 -54 -119.5 -155t-101.5 -117q-13 -11 -34 -12.5t-34 4.5z" />
    <glyph glyph-name="uni0326" unicode="&#x326;" 
d="M-254 -354q-47 -22 -76 -25.5t-45.5 7t-32.5 36.5q-7 9 -3 22.5t19 21.5q46 23 67 37q25 16 38 52.5t-6 70.5q-57 77 -41 108q9 19 35.5 30.5t56.5 7.5q37 -4 59 -32.5t37 -85.5q18 -68 -14 -144.5t-94 -105.5z" />
    <glyph glyph-name="uni0327" unicode="&#x327;" 
d="M-347 -392q-36 0 -60 29.5t-24 57.5q0 16 31 19q41 4 61.5 17t14.5 39q-5 18 -13 28t-23 13t-28 3t-39.5 -2t-44.5 -2q-19 0 -29.5 10t-10.5 26q0 40 60 188l120 -28q-22 -46 -32 -88q160 -3 160 -141q0 -69 -42.5 -119t-100.5 -50z" />
    <glyph glyph-name="uni0328" unicode="&#x328;" 
d="M-259 -362q-85 0 -132.5 55t-47.5 143q0 34 8 60t28.5 50t62 34.5t102.5 5.5l-21 122h67q134 -216 17 -236q-27 -3 -52.5 -1.5t-46 3.5t-33 -8.5t-12.5 -37.5t18.5 -54.5t49.5 -27.5q20 0 55.5 10t48.5 10q27 0 28 -24v-18q0 -86 -140 -86z" />
    <glyph glyph-name="uni0335" unicode="&#x335;" 
d="M-556 676q-20 0 -29 12t-11 46q-6 113 58 114q225 6 450 16q26 0 35 -28.5t9 -95.5q0 -54 -56 -56q-248 -8 -456 -8z" />
    <glyph glyph-name="uni0336" unicode="&#x336;" 
d="M-878 686q-21 0 -30.5 16t-9.5 66q0 79 58 80q37 1 196.5 3.5t317.5 5.5t236 7q44 0 44 -96q0 -41 -11 -57t-45 -17q-248 -8 -756 -8z" />
    <glyph glyph-name="uni0337" unicode="&#x337;" 
d="M-434 -12q-58 6 -76.5 22t-11.5 42q23 79 54.5 195t55 204t53 190.5t54.5 175.5t52.5 136.5t54.5 96t52 32.5q45 0 67 -13.5t20.5 -31t-4.5 -33.5q-1 -3 -22 -62t-40 -114.5t-41.5 -125.5t-33.5 -113q-29 -116 -84.5 -318.5t-68.5 -239.5q-16 -49 -81 -43z" />
    <glyph glyph-name="uni0338" unicode="&#x338;" 
d="M-721 8q-58 5 -77 21.5t-11 42.5q5 16 84.5 255t172 519.5t125.5 389.5q59 197 116 299t97 97q64 -8 79 -28.5t4 -49.5q-4 -12 -30.5 -62t-52.5 -118q-52 -134 -111 -334.5t-93 -299.5q-37 -109 -108.5 -341t-113.5 -348q-16 -49 -81 -43z" />
    <glyph glyph-name="Wgrave" unicode="&#x1e80;" horiz-adv-x="1170" 
d="M717 1676q-41 0 -213 94.5t-189 119.5q-9 14 3.5 49.5t37.5 61t46 15.5q80 -38 221 -112.5t143 -75.5q17 -10 18.5 -35.5t-8 -51t-26 -45.5t-33.5 -20zM747 -42q-34 0 -53 21.5t-32 71.5l-106 356q-67 -293 -108 -384q-11 -22 -28.5 -31t-48.5 -9q-46 0 -70 23.5
t-31 72.5q-78 557 -188 1472q-3 28 25.5 42t70.5 10q38 -4 57 -44t27 -128q4 -56 130 -1018l75 252q23 78 41 112t40 34h24q28 0 65.5 -100t96.5 -322l32 196q49 261 124 929q4 30 25 44t54 12q50 -3 69.5 -26t15.5 -54q-61 -555 -119.5 -940.5t-88.5 -506.5
q-13 -52 -31.5 -68.5t-67.5 -16.5z" />
    <glyph glyph-name="wgrave" unicode="&#x1e81;" horiz-adv-x="1101" 
d="M667 1467q-41 0 -213 94.5t-189 119.5q-9 14 3.5 49.5t37.5 61t46 15.5q80 -38 221 -112.5t143 -75.5q17 -10 18.5 -35.5t-8 -51t-26 -45.5t-33.5 -20zM753 -51q-12 -3 -28.5 -5t-38 0t-31.5 11q-14 13 -51 123.5t-65 230.5q-20 -54 -47 -133t-44.5 -126t-31.5 -73
q-12 -21 -54 -24t-61 2q-34 3 -47 24t-23 78q-101 635 -160 1277q-2 22 14 28.5t74 6.5q31 0 55.5 -16.5t28.5 -47.5q32 -271 63.5 -529t45 -366.5t13.5 -116.5q83 269 135 404q8 20 47 20q16 0 26.5 -11t14.5 -22t13 -42q21 -68 67.5 -197t54.5 -155q53 218 94 518t51 506
q0 31 9 44.5t28 15.5t48 0q15 -1 25 -2t18 -5t13 -6t8.5 -10t5 -13t2.5 -19.5t0.5 -23.5t-0.5 -31.5v-37.5q0 -175 -35.5 -439t-102.5 -534q-43 -174 -67.5 -234t-66.5 -70z" />
    <glyph glyph-name="Wacute" unicode="&#x1e82;" horiz-adv-x="1170" 
d="M439 1700q-31 -3 -59.5 25t-28.5 80q0 19 16 35.5t35 27.5t69 36q30 15 91 47.5t94 48t57 21.5q35 10 58 -22t23 -91q0 -21 -31 -42.5t-107 -61.5q-16 -8 -25 -13q-165 -88 -192 -91zM747 -42q-34 0 -53 21.5t-32 71.5l-106 356q-67 -293 -108 -384q-11 -22 -28.5 -31
t-48.5 -9q-46 0 -70 23.5t-31 72.5q-78 557 -188 1472q-3 28 25.5 42t70.5 10q38 -4 57 -44t27 -128q4 -56 130 -1018l75 252q23 78 41 112t40 34h24q28 0 65.5 -100t96.5 -322l32 196q49 261 124 929q4 30 25 44t54 12q50 -3 69.5 -26t15.5 -54q-61 -555 -119.5 -940.5
t-88.5 -506.5q-13 -52 -31.5 -68.5t-67.5 -16.5z" />
    <glyph glyph-name="wacute" unicode="&#x1e83;" horiz-adv-x="1101" 
d="M419 1500q-31 -3 -59.5 25t-28.5 80q0 19 16 35.5t35 27.5t69 36q30 15 91 47.5t94 48t57 21.5q35 10 58 -22t23 -91q0 -21 -31 -42.5t-107 -61.5q-16 -8 -25 -13q-165 -88 -192 -91zM753 -51q-12 -3 -28.5 -5t-38 0t-31.5 11q-14 13 -51 123.5t-65 230.5
q-20 -54 -47 -133t-44.5 -126t-31.5 -73q-12 -21 -54 -24t-61 2q-34 3 -47 24t-23 78q-101 635 -160 1277q-2 22 14 28.5t74 6.5q31 0 55.5 -16.5t28.5 -47.5q32 -271 63.5 -529t45 -366.5t13.5 -116.5q83 269 135 404q8 20 47 20q16 0 26.5 -11t14.5 -22t13 -42
q21 -68 67.5 -197t54.5 -155q53 218 94 518t51 506q0 31 9 44.5t28 15.5t48 0q15 -1 25 -2t18 -5t13 -6t8.5 -10t5 -13t2.5 -19.5t0.5 -23.5t-0.5 -31.5v-37.5q0 -175 -35.5 -439t-102.5 -534q-43 -174 -67.5 -234t-66.5 -70z" />
    <glyph glyph-name="Wdieresis" unicode="&#x1e84;" horiz-adv-x="1170" 
d="M356 1666q-76 0 -76 44v144q0 65 80 64h48q22 0 39 -16t17 -44q0 -10 -0.5 -28.5t-1.5 -52.5t-2 -67q-1 -24 -20 -33t-68 -11h-16zM732 1654q-104 0 -104 60v128q0 35 19.5 53.5t52.5 18.5h24q41 0 63 -12.5t21 -51.5q0 -66 0.5 -104.5t-9.5 -59t-24 -26.5t-43 -6z
M747 -42q-34 0 -53 21.5t-32 71.5l-106 356q-67 -293 -108 -384q-11 -22 -28.5 -31t-48.5 -9q-46 0 -70 23.5t-31 72.5q-78 557 -188 1472q-3 28 25.5 42t70.5 10q38 -4 57 -44t27 -128q4 -56 130 -1018l75 252q23 78 41 112t40 34h24q28 0 65.5 -100t96.5 -322l32 196
q49 261 124 929q4 30 25 44t54 12q50 -3 69.5 -26t15.5 -54q-61 -555 -119.5 -940.5t-88.5 -506.5q-13 -52 -31.5 -68.5t-67.5 -16.5z" />
    <glyph glyph-name="wdieresis" unicode="&#x1e85;" horiz-adv-x="1101" 
d="M336 1486q-76 0 -76 44v144q0 65 80 64h48q22 0 39 -16t17 -44q0 -10 -0.5 -28.5t-1.5 -52.5t-2 -67q-1 -24 -20 -33t-68 -11h-16zM712 1474q-104 0 -104 60v128q0 35 19.5 53.5t52.5 18.5h24q41 0 63 -12.5t21 -51.5q0 -66 0.5 -104.5t-9.5 -59t-24 -26.5t-43 -6z
M753 -51q-12 -3 -28.5 -5t-38 0t-31.5 11q-14 13 -51 123.5t-65 230.5q-20 -54 -47 -133t-44.5 -126t-31.5 -73q-12 -21 -54 -24t-61 2q-34 3 -47 24t-23 78q-101 635 -160 1277q-2 22 14 28.5t74 6.5q31 0 55.5 -16.5t28.5 -47.5q32 -271 63.5 -529t45 -366.5t13.5 -116.5
q83 269 135 404q8 20 47 20q16 0 26.5 -11t14.5 -22t13 -42q21 -68 67.5 -197t54.5 -155q53 218 94 518t51 506q0 31 9 44.5t28 15.5t48 0q15 -1 25 -2t18 -5t13 -6t8.5 -10t5 -13t2.5 -19.5t0.5 -23.5t-0.5 -31.5v-37.5q0 -175 -35.5 -439t-102.5 -534q-43 -174 -67.5 -234
t-66.5 -70z" />
    <glyph glyph-name="uni1E9E" unicode="&#x1e9e;" horiz-adv-x="1031" 
d="M294 -32q-15 1 -26 2t-20 4.5t-14.5 4.5t-11 8.5t-8 10.5t-6 15.5t-4.5 18t-4.5 24.5t-5.5 29q-21 109 -21 438q0 216 1.5 311.5t4 119.5t8 127t10.5 288q0 85 50 154q54 75 276 75q70 0 147.5 -18.5t141.5 -49t95 -76t8 -93.5q-28 -58 -64.5 -122.5t-57.5 -98.5
t-73.5 -115.5t-64.5 -101.5q64 -20 116.5 -54t75.5 -72q31 -51 56 -219t17 -257q-29 -331 -228 -331q-68 0 -132 41.5t-64 92.5q0 33 25 67.5t53 34.5q17 0 55.5 -27t57.5 -28q35 -3 54 46t20.5 123.5t-5.5 152.5t-21.5 141t-29.5 83q-18 22 -57.5 39.5t-76 28.5t-71 33.5
t-47.5 53.5q-14 33 23 77q135 200 265 420q-30 39 -83.5 56t-155.5 17q-74 0 -130 -38q-4 0 -14.5 -191t-10.5 -245q0 -133 -3.5 -287t-4 -222t8 -179t31.5 -251q0 -19 -5 -31t-10 -18t-20 -9t-21.5 -3h-28.5z" />
    <glyph glyph-name="Ygrave" unicode="&#x1ef2;" horiz-adv-x="840" 
d="M537 1667q-41 0 -213 94.5t-189 119.5q-9 14 3.5 49.5t37.5 61t46 15.5q80 -38 221 -112.5t143 -75.5q17 -10 18.5 -35.5t-8 -51t-26 -45.5t-33.5 -20zM388 -30q-55 0 -73.5 10t-18.5 43q0 14 2.5 131.5t2.5 247.5q0 26 -1.5 83t-4.5 156.5t-5 190.5q-89 257 -248 640
q-13 33 17.5 59.5t80.5 26.5q10 0 23 -7t20 -19q58 -105 124 -281q13 -35 35 -91t34 -90q99 218 236 432q28 40 72 40q41 0 71 -40t-1 -81q-91 -133 -288 -535q4 -91 5.5 -195.5t1.5 -175.5t-0.5 -186t-0.5 -167q0 -85 -10 -127.5t-26 -53.5t-48 -11z" />
    <glyph glyph-name="ygrave" unicode="&#x1ef3;" horiz-adv-x="730" 
d="M507 1517q-41 0 -213 94.5t-189 119.5q-9 14 3.5 49.5t37.5 61t46 15.5q80 -38 221 -112.5t143 -75.5q17 -10 18.5 -35.5t-8 -51t-26 -45.5t-33.5 -20zM276 -80q-40 0 -61.5 9.5t-20.5 29.5q25 668 25 679q-7 29 -95 336t-93 353q-2 26 21 42t80 20q32 2 45.5 -9
t29.5 -55q79 -269 120 -447q177 459 190 487q16 38 43 41.5t73 -28.5q47 -33 34 -77q-78 -238 -248 -657q-33 -661 -33 -664q-4 -42 -22 -51t-73 -9h-15z" />
    <glyph glyph-name="endash" unicode="&#x2013;" horiz-adv-x="669" 
d="M145 628q-80 0 -81 86q0 88 87 91h111q80 0 254 8q32 1 48 -20.5t17 -63.5q0 -94 -103 -94q-217 -7 -333 -7z" />
    <glyph glyph-name="emdash" unicode="&#x2014;" horiz-adv-x="1007" 
d="M136 628q-41 0 -56.5 18t-15.5 64q0 94 76 95h253q116 0 454 8q64 0 64 -85q0 -93 -111 -93q-402 -7 -664 -7z" />
    <glyph glyph-name="quoteleft" unicode="&#x2018;" horiz-adv-x="440" 
d="M188 1313q-68 2 -68 47v292q0 72 98 72q91 0 91 -86v-258q0 -70 -121 -67z" />
    <glyph glyph-name="quoteright" unicode="&#x2019;" horiz-adv-x="436" 
d="M223 1313q-60 -1 -84 13t-24 46v279q0 38 25.5 58.5t72.5 13.5t69 -26t22 -60v-258q0 -65 -81 -66z" />
    <glyph glyph-name="quotesinglbase" unicode="&#x201a;" horiz-adv-x="436" 
d="M189 -229q-66 0 -68 47v292q0 72 98 72q91 0 91 -86v-258q0 -62 -78 -67h-43z" />
    <glyph glyph-name="quotedblleft" unicode="&#x201c;" horiz-adv-x="648" 
d="M474 1317q-98 0 -98 72v292q0 47 68 47q25 0 40 -1t32.5 -4.5t26.5 -10.5t15.5 -19.5t6.5 -31.5v-258q0 -86 -91 -86zM181 1313q-50 5 -74 21t-24 51v282q0 35 32 46t93 11q27 0 45.5 -18.5t18.5 -48.5v-258q0 -52 -22 -71.5t-69 -14.5z" />
    <glyph glyph-name="quotedblright" unicode="&#x201d;" horiz-adv-x="677" 
d="M494 1317q-98 0 -98 72v292q0 47 68 47q25 0 40 -1t32.5 -4.5t26.5 -10.5t15.5 -19.5t6.5 -31.5v-258q0 -86 -91 -86zM201 1313q-50 5 -74 21t-24 51v282q0 35 32 46t93 11q27 0 45.5 -18.5t18.5 -48.5v-258q0 -52 -22 -71.5t-69 -14.5z" />
    <glyph glyph-name="quotedblbase" unicode="&#x201e;" horiz-adv-x="701" 
d="M228 -155q-61 0 -93 11t-32 46v282q0 35 24 51t74 21q47 5 69 -14.5t22 -71.5v-258q0 -30 -18.5 -48.5t-45.5 -18.5zM464 -159q-66 0 -68 47v292q0 72 98 72q91 0 91 -86v-258q0 -19 -6.5 -31.5t-15.5 -19.5t-26.5 -10.5t-32.5 -4.5t-40 -1z" />
    <glyph glyph-name="dagger" unicode="&#x2020;" horiz-adv-x="889" 
d="M381 352q-68 0 -68 44q8 121 36 802q-18 1 -255 14q-12 1 -18.5 10t-6.5 18q5 87 13 117.5t28 30.5q5 0 29.5 -1t85 -3t124.5 -4q0 90 -12 302q0 46 104 46q47 0 66.5 -13.5t21.5 -54.5l12 -292q123 -5 207 -12q22 -2 29.5 -18t7.5 -66q0 -88 -72 -88l-176 4
q0 -23 -32 -773q0 -22 -9 -35.5t-28.5 -19t-37 -7t-49.5 -1.5z" />
    <glyph glyph-name="daggerdbl" unicode="&#x2021;" horiz-adv-x="881" 
d="M455 350q-79 0 -102.5 5t-21.5 27q12 144 12 252h-200q-68 0 -68 92q0 44 11 66t45 22h220q0 110 6 376q-33 1 -218 1q-26 0 -38.5 12t-13.5 47q0 67 22 97t82 31l170 2q0 154 -6 295q0 21 10.5 30t41.5 9q112 0 136 -31q17 -22 19 -84.5t-3 -226.5q116 -3 170.5 -15
t57.5 -47q4 -32 4 -62q0 -62 -39 -64q-56 0 -201 6v-376h188q32 0 44 -23.5t12 -76.5q0 -80 -48 -80h-204q0 -151 -20 -217.5t-68 -66.5z" />
    <glyph glyph-name="bullet" unicode="&#x2022;" horiz-adv-x="1194" 
d="M555 589q-66 0 -106 49q-42 50 -42 109t42 109q40 49 106 49q65 0 107 -49q41 -50 41 -109t-41 -109q-42 -49 -107 -49z" />
    <glyph glyph-name="ellipsis" unicode="&#x2026;" horiz-adv-x="1203" 
d="M173 -11q-47 0 -79 32t-32 74q0 41 32 73t79 32q46 0 78 -32t32 -73q0 -42 -32 -74t-78 -32zM837 -11q-47 0 -79 32t-32 74q0 41 32 73t79 32q46 0 78 -32t32 -73q0 -42 -32 -74t-78 -32zM500 -28q-47 0 -79 32t-32 74q0 41 32 73t79 32q46 0 78 -32t32 -73
q0 -42 -32 -74t-78 -32z" />
    <glyph glyph-name="perthousand" unicode="&#x2030;" horiz-adv-x="1780" 
d="M315 923q-109 0 -162.5 93t-47.5 226q3 74 8.5 126.5t17.5 106.5t32 89t50 63.5t74.5 42t103.5 13.5q87 0 134 -61t50 -163q8 -266 -50.5 -401t-209.5 -135zM292 -81q-57 6 -82 24t-17 47q8 31 70 166q60 130 137.5 344.5t218.5 623.5q8 23 12.5 36.5t11.5 34t13 37.5
q73 214 134.5 320.5t104.5 101.5q57 -7 89 -34t21 -54q-282 -677 -341 -869q-101 -331 -267 -736q-13 -32 -35.5 -39.5t-69.5 -2.5zM315 1083q53 0 66.5 68t13.5 284v22q0 32 -1 43t-7 17t-20 6q-96 0 -96 -336q0 -104 44 -104zM904 -13q-54 2 -95 40t-64 100t-34 133.5
t-11 150.5q0 96 10.5 167.5t36.5 131t74.5 90.5t118.5 31q55 0 92 -12.5t62.5 -39t39.5 -76t20 -115.5t6 -165q0 -224 -60.5 -332.5t-195.5 -103.5zM1444 -13q-61 -4 -105.5 32.5t-66.5 102t-32 136.5t-10 153q0 73 3 125t11 102.5t23.5 83.5t39.5 59t59.5 38t83.5 12
q87 0 135.5 -36t71.5 -124t23 -248q0 -226 -50.5 -326.5t-185.5 -109.5zM920 151q20 -4 34.5 18t22 63.5t10.5 94.5t1 116q-4 147 -10.5 191.5t-29.5 44.5q-71 0 -68 -192q4 -234 9 -270q7 -61 31 -66zM1450 151q39 0 50.5 76.5t7.5 215.5q-4 133 -14.5 184.5t-35.5 51.5
q-33 0 -46.5 -46.5t-11.5 -145.5q3 -188 12.5 -262t37.5 -74z" />
    <glyph glyph-name="guilsinglleft" unicode="&#x2039;" horiz-adv-x="726" 
d="M410 129q-47 3 -121 92t-128.5 196.5t-54.5 163.5q0 69 72.5 175.5t246.5 280.5q18 18 48 10t57.5 -27t44 -45t7.5 -42q-2 -4 -70 -79.5t-134 -158t-71 -112.5q32 -67 85.5 -151t81.5 -123.5t44 -59.5q23 -29 -21 -74.5t-87 -45.5z" />
    <glyph glyph-name="guilsinglright" unicode="&#x203a;" horiz-adv-x="750" 
d="M301 129q-18 -18 -46.5 -12t-54 22.5t-40.5 40.5t-6 40q2 3 71 88.5t136 177.5t72 122q-20 42 -51.5 90t-64 89.5t-60.5 74.5t-49 57t-22 25q-23 29 21 75.5t87 44.5q47 -2 129 -91t144.5 -197.5t62.5 -163.5q0 -154 -329 -483z" />
    <glyph glyph-name="fraction" unicode="&#x2044;" horiz-adv-x="1135" 
d="M182 -45q-56 3 -83 33t-14 58q9 22 239 510.5t270 586.5q96 259 172 408q60 119 124 116q61 -3 90 -21t14 -43q-59 -122 -150 -343t-134 -313q-59 -125 -123.5 -266.5t-103.5 -228t-82 -179t-70 -144.5t-55.5 -96t-50.5 -61.5t-43 -16.5z" />
    <glyph glyph-name="fraction" unicode="&#x2215;" horiz-adv-x="1135" 
d="M182 -45q-56 3 -83 33t-14 58q9 22 239 510.5t270 586.5q96 259 172 408q60 119 124 116q61 -3 90 -21t14 -43q-59 -122 -150 -343t-134 -313q-59 -125 -123.5 -266.5t-103.5 -228t-82 -179t-70 -144.5t-55.5 -96t-50.5 -61.5t-43 -16.5z" />
    <glyph glyph-name="uni207F" unicode="&#x207f;" horiz-adv-x="734" 
d="M209 640q-46 -3 -62 8.5t-16 33.5q-23 649 -23 870q0 19 18.5 29t51.5 9q38 -3 57 -38q59 -95 213 -467q13 371 36 484q9 18 42 17t69.5 -21t36.5 -42q-50 -548 -50 -808q0 -35 -34 -41q-47 -9 -78 32q-25 33 -108 198t-101 212q7 -76 19 -404q1 -40 -13 -54.5t-58 -17.5
z" />
    <glyph glyph-name="Euro" unicode="&#x20ac;" horiz-adv-x="1003" 
d="M581 -3q-121 0 -205.5 79.5t-118.5 232.5q-13 60 -21 207q-29 -3 -54.5 -5.5t-37.5 -4t-17 -1.5q-18 -2 -26 22.5t-8 81.5q0 11 1.5 20.5t3.5 16.5t8 13t8.5 9.5t12.5 7t14 5.5t18 4t19.5 2.5t23 2.5t24.5 3l-4 112q-76 -4 -91 -4q-18 0 -30 16t-12 40q0 112 128 112
q0 146 11.5 244.5t37.5 170.5t73 111t112 56.5t162 17.5q276 0 276 -240q0 -144 -24 -156q-23 -12 -96 -12q-68 0 -68 60q0 62 -3.5 93.5t-17.5 49.5t-32.5 21.5t-58.5 3.5q-77 0 -114.5 -33.5t-53.5 -118.5t-16 -256l279 12q17 0 25 -10.5t8 -21.5q-2 -70 -9.5 -89
t-38.5 -23q-24 -6 -261 -24l4 -119q42 3 100 8.5t88.5 8t56.5 2.5q44 0 44 -100q0 -13 -10.5 -24t-33 -19t-45.5 -14t-62 -11.5t-67.5 -8.5t-74.5 -8q0 -175 49.5 -269t139.5 -94q21 0 37 5.5t27 12t19 23.5t12 29.5t7 40t4 45t2 54.5q1 19 19.5 31.5t35.5 12.5
q78 0 103 -9.5t26 -34.5q3 -105 -7.5 -173t-43.5 -119.5t-95.5 -74.5t-161.5 -23z" />
    <glyph glyph-name="uni2116" unicode="&#x2116;" horiz-adv-x="1444" 
d="M676 -65q-110 4 -123 64q-163 651 -312 1048q5 -161 6.5 -304t1 -227t-3.5 -262t-4 -291q0 -11 -17 -17.5t-35 -6.5q-59 0 -81.5 15t-22.5 58q-4 495 -4 1047q0 67 -2 177t-4 193.5t-2 85.5q0 56 96 56q19 0 33.5 -7.5t25.5 -24t17 -29.5t15 -38q158 -356 325 -949
q16 333 16 796v216q0 32 40 32q61 0 88.5 -14.5t27.5 -52.5q0 -675 -24 -1533q0 -34 -57 -32zM1054 375q-192 0 -192 564q0 93 3.5 163.5t13.5 146.5t29.5 129t49 97t75 66t105.5 22q158 0 208 -248q23 -99 7.5 -389.5t-47.5 -378.5q-34 -91 -93.5 -131.5t-158.5 -40.5z
M1090 611q48 0 75 68t41 220q6 50 8.5 101t0 114t-12.5 110t-33.5 79t-58.5 32t-61.5 -131.5t-26.5 -224.5q0 -197 15 -282.5t53 -85.5zM926 67q-43 -7 -59 10t-17 66t24.5 72t79.5 28q281 26 351 -8q12 -6 15.5 -22.5t3.5 -52.5q0 -29 -11.5 -51t-27.5 -22h-111
q-77 0 -248 -20z" />
    <glyph glyph-name="trademark" unicode="&#x2122;" horiz-adv-x="1211" 
d="M1001 614q-18 0 -28 7t-10 17v427q-36 -78 -58 -104t-42 -27q-13 -1 -35 37q-6 10 -47 86v-155q0 -108 4 -256q0 -24 -86 -24q-48 0 -48 44v124q0 270 -12 448q0 84 7 101q11 27 59 22q10 -1 22 -3q20 -3 82.5 -113.5t65.5 -110.5q81 174 106 219q6 12 16 17t24 4.5
t34 -0.5q24 -1 34 -6.5t10 -23.5q0 -38 -1.5 -165.5t-2.5 -227.5q-1 -75 1.5 -178.5t2.5 -126.5q0 -32 -98 -32zM263 626q-22 0 -26 25t0 89q3 59 4 98q2 74 -8 364h-126q-30 0 -30 32v60q0 64 44 64q65 0 412 4q24 1 24 -28q0 -129 -32 -129q-115 0 -144 1q16 -319 16 -372
q0 -132 -10.5 -170t-53.5 -38h-70z" />
    <glyph glyph-name="arrowleft" unicode="&#x2190;" horiz-adv-x="1431" 
d="M1391 610q0 -26 -12 -44t-32 -17q-48 0 -238 -2q-394 -4 -694 -4q78 -49 139 -107q24 -24 8 -56.5t-49.5 -43.5t-64.5 7q-75 59 -165.5 112t-156.5 76q-86 17 -86 81q0 23 9.5 40.5t36 35t48 28t72.5 33.5t83 39q142 70 183 93q31 13 47.5 2.5t34.5 -47.5q9 -17 8 -40
t-16 -29q-37 -29 -120 -72l912 4q53 -1 53 -89z" />
    <glyph glyph-name="arrowup" unicode="&#x2191;" horiz-adv-x="600" 
d="M307 -27q-26 0 -44 12t-17 32q0 48 -2 238q-4 394 -4 694q-49 -78 -107 -139q-24 -24 -56.5 -8t-43.5 49.5t7 64.5q59 75 112 165.5t76 156.5q17 86 81 86q23 0 40.5 -9.5t35 -36t28 -48t33.5 -72.5t39 -83q70 -142 93 -183q13 -31 2.5 -47.5t-47.5 -34.5q-17 -9 -40 -8
t-29 16q-29 37 -72 120l4 -912q-1 -53 -89 -53z" />
    <glyph glyph-name="arrowright" unicode="&#x2192;" horiz-adv-x="1431" 
d="M40 604q0 26 12 44t32 17q48 0 238 2q394 4 694 4q-78 49 -139 107q-24 24 -8 56.5t49.5 43.5t64.5 -7q75 -59 165.5 -112t156.5 -76q86 -17 86 -81q0 -23 -9.5 -40.5t-36 -35t-48 -28t-72.5 -33.5t-83 -39q-142 -70 -183 -93q-31 -13 -47.5 -2.5t-34.5 47.5q-9 17 -8 40
t16 29q37 29 120 72l-912 -4q-53 1 -53 89z" />
    <glyph glyph-name="arrowdown" unicode="&#x2193;" horiz-adv-x="638" 
d="M319 1242q26 0 44 -12t17 -32q0 -48 2 -238q4 -394 4 -694q49 78 107 139q24 24 56.5 8t43.5 -49.5t-7 -64.5q-59 -75 -112 -165.5t-76 -156.5q-17 -86 -81 -86q-23 0 -40.5 9.5t-35 36t-28 48t-33.5 72.5t-39 83q-70 142 -93 183q-13 31 -2.5 47.5t47.5 34.5q17 9 40 8
t29 -16q29 -37 72 -120l-4 912q1 53 89 53z" />
    <glyph glyph-name="arrowboth" unicode="&#x2194;" horiz-adv-x="1468" 
d="M1179 790q23 -11 61.5 -29.5t56 -27.5t44 -23t38.5 -23.5t25.5 -22t18.5 -24.5t5 -26q0 -16 -6.5 -28t-22.5 -23t-25.5 -15.5t-31.5 -14.5q-142 -60 -322 -188q-28 -20 -65 -6t-49.5 43t8.5 56q53 53 139 107v1q-582 -3 -638 -3q78 -49 139 -107q24 -24 8 -56.5
t-49.5 -43.5t-64.5 7q-75 59 -165.5 112t-156.5 76q-86 17 -86 81q0 23 9.5 40.5t36 35t48 28t72.5 33.5t83 39q142 70 183 93q31 13 47.5 2.5t34.5 -47.5q9 -17 8 -40t-16 -29q-37 -29 -120 -72l628 3q-114 57 -132 71q-15 6 -16 29t8 40q12 25 22 37t25.5 16.5t34.5 -8.5
q83 -44 183 -93z" />
    <glyph glyph-name="arrowupdn" unicode="&#x2195;" horiz-adv-x="638" 
d="M516 414q24 24 56 8t43 -49t-6 -65q-131 -187 -188 -322q-10 -22 -14.5 -31.5t-15.5 -25.5t-23 -22.5t-28 -6.5q-14 0 -26 5t-24.5 18.5t-22 25.5t-23.5 38.5t-23 44t-27.5 56t-29.5 61.5q-49 100 -93 183q-13 19 -8.5 34.5t16.5 25.5t37 22q17 9 40 8t29 -16
q9 -12 20 -31t28 -53.5t23 -46.5q-4 394 -4 674q-49 -78 -107 -139q-24 -24 -56.5 -8t-43.5 49.5t7 64.5q59 75 112 165.5t76 156.5q17 86 81 86q23 0 40.5 -9.5t35 -36t28 -48t33.5 -72.5t39 -83q70 -142 93 -183q13 -31 2.5 -47.5t-47.5 -34.5q-17 -9 -40 -8t-29 16
q-29 37 -72 120l3 -663h2q54 86 107 139z" />
    <glyph glyph-name="uni2196" unicode="&#x2196;" horiz-adv-x="1095" 
d="M1015 161q-18 -18 -39 -22t-35 10q-34 34 -170 167q-350 345 -493 488q20 -91 22 -174q0 -34 -33 -45.5t-68 4.5t-39 50q-12 94 -38 196t-57 165q-49 72 -4 118q16 16 35 22t50 -0.5t54 -14t75.5 -27.5t86.5 -32q154 -52 195 -64q31 -9 35.5 -31.5t-9.5 -57.5
q-7 -20 -23 -35t-31 -8q-50 6 -136 33l648 -642q37 -38 -26 -100z" />
    <glyph glyph-name="uni2197" unicode="&#x2197;" horiz-adv-x="1084" 
d="M63 157q-18 18 -22 39t10 35q34 34 167 170q345 350 488 493q-91 -20 -174 -22q-34 0 -45.5 33t4.5 68t50 39q94 12 196 38t165 57q72 49 118 4q16 -16 22 -35t-0.5 -50t-14 -54t-27.5 -75.5t-32 -86.5q-52 -154 -64 -195q-9 -31 -31.5 -35.5t-57.5 9.5q-20 7 -35 23
t-8 31q6 50 33 136l-642 -648q-38 -37 -100 26z" />
    <glyph glyph-name="uni2198" unicode="&#x2198;" horiz-adv-x="1095" 
d="M80 1054q18 18 39 22t35 -10q34 -34 170 -167q350 -345 493 -488q-20 91 -22 174q0 34 33 45.5t68 -4.5t39 -50q12 -94 38 -196t57 -165q49 -72 4 -118q-16 -16 -35 -22t-50 0.5t-54 14t-75.5 27.5t-86.5 32q-154 52 -195 64q-31 9 -35.5 31.5t9.5 57.5q7 20 23 35t31 8
q50 -6 136 -33l-648 642q-37 38 26 100z" />
    <glyph glyph-name="uni2199" unicode="&#x2199;" horiz-adv-x="1084" 
d="M1021 1058q18 -18 22 -39t-10 -35q-34 -34 -167 -170q-345 -350 -488 -493q91 20 174 22q34 0 45.5 -33t-4.5 -68t-50 -39q-94 -12 -196 -38t-165 -57q-72 -49 -118 -4q-16 16 -22 35t0.5 50t14 54t27.5 75.5t32 86.5q52 154 64 195q9 31 31.5 35.5t57.5 -9.5
q20 -7 35 -23t8 -31q-6 -50 -33 -136l642 648q38 37 100 -26z" />
    <glyph glyph-name="partialdiff" unicode="&#x2202;" horiz-adv-x="688" 
d="M495 -25q-146 0 -234 23t-134 77q-40 47 -56 173t-16 391q0 141 57 243.5t157 141.5q82 31 180 48q-9 158 -71 410q-29 88 23 124q45 31 71.5 34.5t39 -11.5t24.5 -53q64 -232 94.5 -684t11.5 -791q-4 -70 -39.5 -98t-107.5 -28zM478 139q0 354 -22 752
q-134 -21 -184 -62q-27 -23 -41.5 -72t-15.5 -125t2 -140.5t10 -161.5q3 -35 4 -52q6 -82 66 -113t181 -26z" />
    <glyph glyph-name="emptyset" unicode="&#x2205;" horiz-adv-x="1000" 
d="M827 1141q61 -120 61 -296q0 -112 -3 -199.5t-13 -183t-27 -166.5t-45.5 -137t-67.5 -107.5t-95.5 -66.5t-126.5 -25q-126 0 -213 58q-25 -49 -34 -62q-13 -19 -29 -26t-27 -6.5t-28 5.5q-42 11 -55 25t-6 37q5 18 64 126l11 20q-72 134 -72 366q0 118 16.5 234.5
t51.5 223.5t83.5 189t117.5 130.5t149 48.5t120 -12t79 -51q37 55 59 67q37 20 68 -10t21 -54zM278 476q-2 -68 15 -130q9 21 105 235.5t162 355.5q45 95 80 162q-39 28 -100 28q-70 0 -131 -100t-94.5 -248.5t-36.5 -302.5zM511 135q52 0 92 40t62.5 101t36.5 146.5
t18.5 161.5t4.5 161q0 103 -6 162q-183 -397 -338 -720q55 -52 130 -52z" />
    <glyph glyph-name="product" unicode="&#x220f;" horiz-adv-x="958" 
d="M899 1489q11 -72 -8 -98t-77 -28q-62 -2 -102 -2q-2 -112 -3.5 -399.5t-2.5 -328.5q-7 -263 5 -585q-1 -43 -29.5 -56.5t-92.5 -4.5q-48 7 -48 71q0 4 -2 103.5t-3.5 234t-0.5 235.5q4 557 7 727q-21 0 -64 -0.5t-66 -0.5q-1 -71 -1.5 -242.5t-1.5 -304t-3 -177.5
q-4 -109 -4 -324t-1 -279q-1 -44 -16 -59t-70 -16q-49 -1 -66.5 13t-17.5 50q0 372 4 612q0 23 1 168.5t2.5 304.5t3.5 253h-131q-38 0 -48 19.5t-8 65.5q2 49 17 71.5t59 22.5h307q14 0 159 3.5t202 3.5q36 0 52.5 -2.5t30 -14t17.5 -36.5z" />
    <glyph glyph-name="summation" unicode="&#x2211;" horiz-adv-x="897" 
d="M793 1456q6 -87 -34 -96q-43 2 -221.5 4.5t-220.5 1.5q40 -86 83.5 -179t67 -143t45 -97t30 -70.5t8.5 -34.5q0 -9 -15 -40t-52.5 -103.5t-68.5 -138.5q-104 -218 -104 -416h234q29 0 167 8q19 0 28 -16.5t9 -59.5q0 -63 -16 -89.5t-60 -26.5l-522 8q-30 0 -42.5 32
t-11.5 120q0 141 61.5 322.5t166.5 405.5q-12 32 -87.5 189.5t-128.5 290.5q-26 66 -16.5 125t52.5 91q34 26 194.5 26t409.5 -10q37 0 44 -104zM759 1360h-6h6z" />
    <glyph glyph-name="minus" unicode="&#x2212;" horiz-adv-x="828" 
d="M161 628q-13 0 -20.5 20t-7.5 48v48q0 60 40 60q172 0 479 8q16 1 27.5 -28.5t9.5 -63.5q-6 -84 -52 -84q-262 -8 -404 -8h-72z" />
    <glyph glyph-name="radical" unicode="&#x221a;" horiz-adv-x="875" 
d="M430 -84q-46 0 -79 90q-19 54 -69 272q-6 29 -36.5 189t-52.5 224q-8 -3 -22 -7.5t-19.5 -6.5t-15 -4.5t-14 -2.5t-11.5 1t-12 4t-11 8q-67 58 -20 124q15 21 95 51t113 30q27 0 52 -79t59.5 -251t46.5 -220q38 230 124.5 723t123.5 673q8 39 12.5 56t13.5 40t22 32.5
t32 10.5q53 4 246 10.5t207 7.5q45 2 64 -10t27 -64q14 -88 -44 -94q-40 -4 -195 -13.5t-221 -11.5q-38 -238 -128.5 -742t-135.5 -695q-9 -36 -18.5 -78t-15 -68t-12.5 -55.5t-12 -46.5t-11.5 -36t-12 -28.5t-13.5 -18t-16.5 -11.5t-19.5 -3h-21z" />
    <glyph glyph-name="infinity" unicode="&#x221e;" horiz-adv-x="1282" 
d="M844 463q-164 1 -237 121q-78 -97 -201 -105q-111 -7 -196 35t-115 102q-42 84 -44 171t28.5 152.5t92 107.5t140.5 42q219 0 314 -157q6 7 21 25t23.5 27.5t23.5 22t30 19.5q104 48 198.5 50.5t162 -35.5t107.5 -115.5t40 -183.5q0 -148 -93.5 -214.5t-294.5 -64.5z
M391 613q107 0 170 167q-38 75 -79 113t-77 47.5t-96 10.5q-35 1 -67.5 -36.5t-35.5 -95.5q-11 -206 185 -206zM869 605q98 -4 157 30t59 112q0 57 -33 109t-72 62q-98 25 -165 -13t-131 -140q14 -50 35 -83t47.5 -48.5t49.5 -21.5t53 -7z" />
    <glyph glyph-name="integral" unicode="&#x222b;" horiz-adv-x="663" 
d="M59 -194q-7 19 -3 41t19.5 41t33.5 31.5t38 12t33 -17.5q66 -83 110 55q25 90 17.5 216.5t-49.5 387.5q-58 366 -70 474q-40 369 34 571q17 48 41 89q8 13 14.5 23t17 22.5t21.5 21t27 16.5t34 11.5t41.5 3t50.5 -6.5q103 -22 138.5 -71t6.5 -111q-18 -39 -53.5 -44
t-59.5 6t-70 38q-3 1 -4.5 2t-3.5 2.5t-4 2.5l-4 2q-20 -35 -33.5 -68t-21.5 -74.5t-12.5 -74.5t-2 -90.5t5 -98t12.5 -120.5t17.5 -134.5t23 -164.5t26.5 -188q53 -375 58 -531q2 -76 -15.5 -144.5t-49 -117t-75.5 -78.5t-91.5 -35.5t-99.5 19.5t-98 81z" />
    <glyph glyph-name="approxequal" unicode="&#x2248;" horiz-adv-x="1124" 
d="M186 682q-48 15 -72.5 38.5t-24.5 64.5q0 119 164 236q24 17 68 27.5t84 6.5q46 -4 93 -44t83 -87.5t40 -50.5q41 -32 192 152q12 20 50 20q31 0 63 -27.5t27 -52.5q-23 -107 -113.5 -190t-197.5 -79q-52 2 -108 41.5t-129 123.5q-28 36 -71 -7.5t-87 -137.5
q-21 -47 -61 -34zM664 288q-65 -2 -123 39t-126 126q-32 40 -69.5 -1t-80.5 -134q-8 -19 -44 -24.5t-56 -0.5q-79 17 -68 68q103 312 290 302q40 -2 77 -22t64 -47.5t49.5 -54.5t42.5 -46.5t34 -20.5q18 -1 34 6.5t26 17t34.5 37t41.5 44.5q59 71 78 71q41 0 80.5 -33.5
t26.5 -67.5q-25 -82 -126.5 -169t-184.5 -90z" />
    <glyph glyph-name="notequal" unicode="&#x2260;" horiz-adv-x="911" 
d="M599 1007q192 -24 192 -89v-36q0 -64 -40 -64q-130 15 -206 19q-31 -97 -42 -146q0 -1 -0.5 -2.5t-0.5 -2.5q37 0 64 -1t61.5 -3.5t58.5 -8t45.5 -13.5t32.5 -20.5t11 -29.5q0 -53 -13.5 -84t-30.5 -28q-80 12 -240 12h-34q-49 -181 -115 -375q-9 -23 -27 -30.5t-58 -7.5
q-100 0 -91 44q3 20 44 126q34 85 80 238q-109 -7 -155 -11q-19 0 -29.5 54.5t1.5 70.5q37 54 234 64q9 34 43 159h-9q-76 0 -240 -28q-20 -5 -28 21.5t-8 82.5t112 80q94 20 184 20h37q10 40 16 61q88 325 166 325q49 0 78.5 -17.5t22.5 -38.5q-18 -44 -116 -341z" />
    <glyph glyph-name="lessequal" unicode="&#x2264;" horiz-adv-x="759" 
d="M582 636q-197 60 -452 204q-14 8 -17 21t-3 43q0 42 64 70q215 113 316 158.5t136 37.5q16 -4 34 -29.5t23.5 -49.5t-5.5 -35l-342 -162q228 -106 313 -146q11 -8 8.5 -28.5t-11.5 -34.5q-33 -58 -64 -49zM132 385q-27 0 -27 75q-2 89 42 89q421 0 480 1q39 0 38 -88
q-3 -76 -51 -77q-131 -1 -482 0z" />
    <glyph glyph-name="greaterequal" unicode="&#x2265;" horiz-adv-x="795" 
d="M187 636q-31 -9 -64 49q-9 14 -11.5 34.5t8.5 28.5q85 40 313 146l-342 162q-11 11 -5.5 35t23.5 49.5t34 29.5q35 8 136 -37.5t316 -158.5q64 -28 64 -70q0 -21 -0.5 -30t-5 -18.5t-14.5 -15.5q-255 -144 -452 -204zM159 380q-49 0 -52 76q-4 88 36 88q42 0 480 8
q44 0 44 -88q0 -76 -26 -76q-382 -8 -482 -8z" />
    <glyph glyph-name="lozenge" unicode="&#x25ca;" horiz-adv-x="669" 
d="M623 738q1 -5 1 -16q0 -33 -22 -76q-103 -205 -183 -333q-46 -72 -78 -72t-80 57t-91 134t-76.5 149t-43.5 107q-9 18 -3 38q3 21 18 35q133 206 183 347q28 80 82 80q57 0 119 -90.5t143 -286.5l24 -50q5 -10 7 -23zM415 648q32 58 37 65v1q-68 145 -106 213l-130 -234
q7 -12 20 -38l16 -32q44 -88 72 -137q17 32 49.5 89t41.5 73z" />
    <glyph glyph-name="CR" horiz-adv-x="508" 
 />
    <glyph glyph-name="i.loclTRK" horiz-adv-x="440" 
d="M172 1464q-47 0 -79 32t-32 74q0 41 32 73t79 32q46 0 78 -32t32 -73q0 -42 -32 -74t-78 -32zM181 -41q-84 0 -84 36q0 56 20 878q0 77 0.5 119t-2.5 91.5t-4.5 68.5t-5 50t-4.5 36q-2 34 15 47.5t53 13.5h52q52 0 67 -90q10 -61 9 -285v-51q0 -21 -8 -306.5t-8 -535.5
q0 -60 -100 -72z" />
    <glyph glyph-name="_cedilla" horiz-adv-x="600" 
d="M372 -372q-169 -80 -210 16q-6 10 -2 29t18 27q8 4 51 13t66 22t30 51t-15 71q-6 8 -15.5 19.5t-14 17t-10.5 14t-8 13.5t-3.5 11.5t-0.5 12t4 11.5q10 19 33 30.5t53 7.5q48 -7 105 -112q33 -61 7.5 -142.5t-88.5 -111.5z" />
    </font>
</defs>
</svg>
