<?xml version="1.0" standalone="no"?>
<!DOCTYPE svg PUBLIC "-//W3C//DTD SVG 1.1//EN" "http://www.w3.org/Graphics/SVG/1.1/DTD/svg11.dtd" >
<svg xmlns="http://www.w3.org/2000/svg" xmlns:xlink="http://www.w3.org/1999/xlink" version="1.1">
<metadata>
Created by FontForge 20170731 at Tue Jan  3 11:33:18 2023
 By Aleksey,,,
Copyright [c] 1997, 2004 Luc(as) de Groot, published by LucasFonts.
</metadata>
<defs>
<font id="Corpid-Light" horiz-adv-x="1126" >
  <font-face 
    font-family="Corpid Light"
    font-weight="300"
    font-stretch="normal"
    units-per-em="2048"
    panose-1="2 11 3 3 4 5 2 6 2 4"
    ascent="1638"
    descent="-410"
    x-height="1036"
    cap-height="1430"
    bbox="-180 -453 2304 1915"
    underline-thickness="102"
    underline-position="-503"
    unicode-range="U+000D-FB04"
  />
<missing-glyph 
d="M614 307h-307v512h103v-409h204v-103zM1024 102h-922v922h922v-922zM717 717h-205v102h307v-512h-102v205h-205v102h205v103zM205 205h717v717h-717v-717z" />
    <glyph glyph-name="fi" unicode="fi" horiz-adv-x="1175" 
d="M1016 1376q0 -43 -30 -72.5t-73 -29.5t-72.5 29.5t-29.5 72.5t29.5 73t72.5 30t73 -30t30 -73zM979 0h-131v934h-488v-934h-131v934h-172v102h172v103q0 102 14 174t49 129.5t100.5 85.5t162.5 28q73 0 119 -10v-100h-94q-45 0 -79.5 -8.5t-57.5 -21.5t-39 -36t-24.5 -44
t-13 -55.5t-5.5 -59.5t-1 -66v-119h619v-1036z" />
    <glyph glyph-name="fl" unicode="fl" horiz-adv-x="1212" 
d="M1157 0q-42 -10 -98 -10q-211 0 -211 200v1242q-120 14 -219 14q-64 0 -112.5 -16t-78 -42.5t-47.5 -67t-24.5 -83t-6.5 -96.5v-105h269v-102h-269v-934h-131v934h-172v102h172v99q0 204 95.5 314t316.5 110q141 0 338 -27v-1311q0 -58 20 -88.5t70 -30.5h88v-102z" />
    <glyph glyph-name="ff" unicode="ff" horiz-adv-x="1296" 
d="M848 934h-488v-934h-131v934h-172v102h172v103q0 102 14 174t49 129.5t100.5 85.5t162.5 28q73 0 119 -10v-100h-94q-45 0 -79.5 -8.5t-57.5 -21.5t-39 -36t-24.5 -44t-13 -55.5t-5.5 -59.5t-1 -66v-119h488v103q0 102 14 174t49 129.5t100.5 85.5t162.5 28q72 0 118 -10
v-100h-94q-39 0 -70.5 -5.5t-53.5 -18.5t-38.5 -26.5t-27 -37t-16.5 -42.5t-9 -50t-3.5 -53t-0.5 -58v-119h272v-102h-272v-934h-131v934z" />
    <glyph glyph-name="ffi" unicode="ffi" horiz-adv-x="1792" 
d="M1634 1376q0 -43 -29.5 -72.5t-72.5 -29.5t-72.5 29.5t-29.5 72.5t29.5 73t72.5 30t72.5 -30t29.5 -73zM979 934v-934h-131v934h-488v-934h-131v934h-172v102h172v103q0 102 14 174t49 129.5t100.5 85.5t162.5 28q73 0 119 -10v-100h-94q-45 0 -79.5 -8.5t-57.5 -21.5
t-39 -36t-24.5 -44t-13 -55.5t-5.5 -59.5t-1 -66v-119h488v103q0 102 14 174t49 129.5t100.5 85.5t162.5 28q72 0 118 -10v-100h-94q-39 0 -70.5 -5.5t-53.5 -18.5t-38.5 -26.5t-27 -37t-16.5 -42.5t-9 -50t-3.5 -53t-0.5 -58v-119h618v-1036h-131v934h-487z" />
    <glyph glyph-name="ffl" unicode="ffl" horiz-adv-x="1830" 
d="M360 1036h488v99q0 204 95.5 314t316.5 110q140 0 337 -27v-1311q0 -58 20.5 -88.5t70.5 -30.5h88v-102q-42 -10 -99 -10q-211 0 -211 200v1242q-120 14 -219 14q-64 0 -112.5 -16t-77.5 -42.5t-47 -67t-24.5 -83t-6.5 -96.5v-105h268v-102h-268v-934h-131v934h-488v-934
h-131v934h-172v102h172v103q0 102 14 174t49 129.5t100.5 85.5t162.5 28q73 0 119 -10v-100h-94q-45 0 -79.5 -8.5t-57.5 -21.5t-39 -36t-24.5 -44t-13 -55.5t-5.5 -59.5t-1 -66v-119z" />
    <glyph glyph-name="f_b" unicode="fb" horiz-adv-x="1873" 
d="M848 1432q-120 14 -219 14q-64 0 -112.5 -16t-78 -42.5t-47.5 -67t-24.5 -83t-6.5 -96.5v-105h269v-102h-269v-934h-131v934h-172v102h172v99q0 204 95.5 314t316.5 110q141 0 338 -27v-653q81 87 170 133.5t213 46.5q100 0 176.5 -40t123 -110.5t70 -160.5t23.5 -195
q0 -115 -30.5 -214.5t-91.5 -178.5t-162 -124.5t-232 -45.5q-204 0 -391 55v1387zM1614 547q0 60 -8.5 115t-28.5 108.5t-50.5 92.5t-78 63t-107.5 24q-98 0 -183 -51t-179 -164v-596q126 -47 272 -47q180 0 271.5 119t91.5 336z" />
    <glyph glyph-name="f_h" unicode="fh" horiz-adv-x="1878" 
d="M848 1432q-120 14 -219 14q-64 0 -112.5 -16t-78 -42.5t-47.5 -67t-24.5 -83t-6.5 -96.5v-105h269v-102h-269v-934h-131v934h-172v102h172v99q0 204 95.5 314t316.5 110q141 0 338 -27v-655q90 95 173.5 138.5t193.5 43.5q97 0 167.5 -33.5t109.5 -93t57 -130.5t18 -157
v-645h-131v621q0 325 -236 325q-102 0 -176 -46t-176 -155v-745h-131v1432z" />
    <glyph glyph-name="f_j" unicode="fj" horiz-adv-x="1175" 
d="M1016 1376q0 -43 -30 -72.5t-73 -29.5t-72.5 29.5t-29.5 72.5t29.5 73t72.5 30t73 -30t30 -73zM979 1036v-1079q0 -103 -16 -178.5t-40.5 -119t-62.5 -69.5t-74.5 -34.5t-83.5 -8.5q-65 0 -118 17l4 102h100q83 0 121.5 62t38.5 198v1008h-488v-934h-131v934h-172v102
h172v103q0 102 14 174t49 129.5t100.5 85.5t162.5 28q73 0 119 -10v-100h-94q-45 0 -79.5 -8.5t-57.5 -21.5t-39 -36t-24.5 -44t-13 -55.5t-5.5 -59.5t-1 -66v-119h619z" />
    <glyph glyph-name="f_k" unicode="fk" horiz-adv-x="1728" 
d="M848 1432q-120 14 -219 14q-64 0 -112.5 -16t-78 -42.5t-47.5 -67t-24.5 -83t-6.5 -96.5v-105h269v-102h-269v-934h-131v934h-172v102h172v99q0 204 95.5 314t316.5 110q141 0 338 -27v-905l444 409h195l-473 -409l536 -627h-192l-440 547l-70 -62v-485h-131v1432z" />
    <glyph glyph-name=".notdef" 
d="M614 307h-307v512h103v-409h204v-103zM1024 102h-922v922h922v-922zM717 717h-205v102h307v-512h-102v205h-205v102h205v103zM205 205h717v717h-717v-717z" />
    <glyph glyph-name=".null" horiz-adv-x="0" 
 />
    <glyph glyph-name=".null" horiz-adv-x="0" 
 />
    <glyph glyph-name="nonmarkingreturn" horiz-adv-x="682" 
 />
    <glyph glyph-name="CR" unicode="&#xd;" horiz-adv-x="1024" 
 />
    <glyph glyph-name="space" unicode=" " horiz-adv-x="552" 
 />
    <glyph glyph-name="space" unicode="&#xa0;" horiz-adv-x="552" 
 />
    <glyph glyph-name="exclam" unicode="!" horiz-adv-x="737" 
d="M485 1536l-20 -1178h-111l-20 1178h151zM518 88q0 -46 -31.5 -78.5t-76.5 -32.5q-46 0 -77.5 32.5t-31.5 78.5q0 45 32 77t77 32t76.5 -32t31.5 -77z" />
    <glyph glyph-name="quotedbl" unicode="&#x22;" horiz-adv-x="860" 
d="M696 1536l-26 -567h-103l-26 567h155zM319 1536l-26 -567h-103l-26 567h155z" />
    <glyph glyph-name="numbersign" unicode="#" 
d="M1055 922h-193l-49 -394h172v-114h-186l-51 -414h-123l51 414h-299l-51 -414h-123l51 414h-174v114h188l49 394h-176v114h191l49 394h123l-49 -394h299l49 394h123l-49 -394h178v-114zM739 922h-299l-49 -394h299z" />
    <glyph glyph-name="dollar" unicode="$" 
d="M983 379q0 -141 -101.5 -238.5t-252.5 -126.5v-252h-113v240q-172 0 -354 68l33 123q177 -70 342 -70q129 0 214 67.5t85 171.5q0 62 -23.5 108.5t-63 74.5t-90.5 49t-107.5 37t-113 33t-107.5 42.5t-90.5 60.5t-63 91.5t-23.5 130.5q0 127 99 225.5t263 116.5v215h113
v-211q142 -6 256 -53l-33 -117q-130 49 -274 49q-134 0 -205.5 -60.5t-71.5 -149.5q0 -56 23.5 -97.5t63 -67t90.5 -44.5t107.5 -35t113 -33.5t107.5 -45t90.5 -65t63 -98t23.5 -139.5z" />
    <glyph glyph-name="percent" unicode="%" horiz-adv-x="1726" 
d="M1417 1430l-1014 -1487l-94 57l1014 1489zM721 1073q0 -184 -80.5 -281.5t-232.5 -97.5q-306 0 -306 377q0 184 81 281.5t233 97.5q305 0 305 -377zM596 1073q0 281 -186 281q-183 0 -183 -283q0 -280 187 -280q182 0 182 282zM1624 358q0 -184 -80.5 -281t-232.5 -97
q-305 0 -305 376q0 184 80.5 281.5t232.5 97.5q305 0 305 -377zM1499 358q0 281 -186 281q-183 0 -183 -283q0 -280 187 -280q182 0 182 282z" />
    <glyph glyph-name="ampersand" unicode="&#x26;" horiz-adv-x="1470" 
d="M1405 80l-74 -103q-219 156 -284 207q-185 -204 -457 -204q-207 0 -326 101.5t-119 262.5q0 126 67.5 224.5t201.5 191.5q-78 94 -123 187t-45 169q0 147 96 240.5t248 93.5q145 0 236.5 -80.5t91.5 -210.5q0 -106 -68.5 -194.5t-257.5 -212.5q147 -170 428 -396
q108 187 108 441h140q-6 -300 -148 -516q132 -99 285 -201zM780 1141q0 86 -49.5 144t-148.5 58q-94 0 -145.5 -61.5t-51.5 -155.5q0 -114 137 -292q144 95 201 161t57 146zM948 260q-302 238 -463 418q-188 -145 -188 -313q0 -127 83 -198t232 -71q197 0 336 164z" />
    <glyph glyph-name="quotesingle" unicode="'" horiz-adv-x="483" 
d="M319 1536l-26 -567h-103l-26 567h155z" />
    <glyph glyph-name="parenleft" unicode="(" horiz-adv-x="675" 
d="M526 -350l-98 -39q-264 471 -264 981q0 514 264 985l98 -39q-221 -459 -221 -942q0 -484 221 -946z" />
    <glyph glyph-name="parenright" unicode=")" horiz-adv-x="675" 
d="M512 596q0 -514 -264 -985l-98 39q221 459 221 942q0 484 -221 946l98 39q264 -471 264 -981z" />
    <glyph glyph-name="asterisk" unicode="*" 
d="M942 1026l-76 -127l-252 178l23 -315h-148l21 315l-250 -178l-76 127l287 129l-287 137l76 127l250 -178l-21 315h148l-21 -315l250 178l76 -127l-287 -131z" />
    <glyph glyph-name="plus" unicode="+" 
d="M1028 573h-401v-440h-127v440h-402v125h402v443h127v-443h401v-125z" />
    <glyph glyph-name="comma" unicode="," horiz-adv-x="552" 
d="M279 217q56 0 87 -53q49 -83 -18 -223q-60 -125 -205 -269l-71 60q131 160 131 245q0 27 -18.5 64t-18.5 61q0 49 29.5 82t83.5 33z" />
    <glyph glyph-name="hyphen" unicode="-" horiz-adv-x="600" 
d="M600 500h-518v102h518v-102z" />
    <glyph glyph-name="hyphen" unicode="&#xad;" horiz-adv-x="600" 
d="M600 500h-518v102h518v-102z" />
    <glyph glyph-name="period" unicode="." horiz-adv-x="552" 
d="M393 106q0 -50 -34 -84t-83 -34t-82.5 34t-33.5 84q0 48 33.5 82.5t82.5 34.5t83 -34.5t34 -82.5z" />
    <glyph glyph-name="slash" unicode="/" horiz-adv-x="819" 
d="M819 1587l-698 -1884l-121 35l698 1884z" />
    <glyph glyph-name="zero.sc" unicode="0" 
d="M1049 692q0 -118 -16.5 -221t-54 -193.5t-93.5 -155t-139.5 -101.5t-186.5 -37q-253 0 -368 177t-115 527q0 107 15.5 204.5t52.5 188t92 156.5t140 105.5t191 39.5q94 0 170 -28t127.5 -78.5t88.5 -115t57.5 -144.5t29.5 -158.5t9 -165.5zM909 678q0 600 -348 600
q-74 0 -133.5 -31t-99 -84.5t-66 -128t-38 -158t-11.5 -178.5q0 -316 86.5 -462t271.5 -146q62 0 111.5 18.5t84.5 48.5t61 76t41 95t24.5 111t12.5 117.5t3 121.5z" />
    <glyph glyph-name="one.sc" unicode="1" 
d="M993 0h-778v113h358v1099l-333 -186l-47 86l393 254h121v-1253h286v-113z" />
    <glyph glyph-name="two.sc" unicode="2" 
d="M1010 0h-897v109l301 282q218 204 292 323t74 263q0 141 -71.5 217t-214.5 76q-145 0 -314 -66l-26 109q168 69 356 69q204 0 308 -104.5t104 -288.5q0 -161 -92.5 -305t-299.5 -332l-258 -235h738v-117z" />
    <glyph glyph-name="three.sc" unicode="3" 
d="M954 385q0 -182 -146.5 -291.5t-404.5 -109.5q-167 0 -303 30v103q149 -19 320 -19q188 0 291.5 76t103.5 203q0 63 -25.5 112.5t-66 79.5t-96.5 49.5t-111 27t-115 7.5h-114v117h96q186 0 292.5 76t106.5 196q0 110 -73.5 169t-214.5 59q-171 0 -328 -62l-19 107
q161 67 365 67q192 0 300 -86t108 -241q0 -117 -86.5 -208.5t-219.5 -119.5v-4q155 -12 247.5 -106t92.5 -232z" />
    <glyph glyph-name="four.sc" unicode="4" 
d="M1053 338h-213v-338h-133v338h-652v113l586 915h199v-913h213v-115zM707 453v794h-5l-512 -794h517z" />
    <glyph glyph-name="five.sc" unicode="5" 
d="M987 444q0 -217 -149.5 -338.5t-413.5 -121.5q-173 0 -309 30v103q141 -19 313 -19q199 0 308.5 83t109.5 249q0 143 -99 212t-303 69q-45 0 -87.5 -2.5t-96 -7.5t-74.5 -7l15 672h678v-117h-551l-11 -430q60 8 175 8q239 0 367 -108t128 -275z" />
    <glyph glyph-name="six.sc" unicode="6" 
d="M1028 440q0 -90 -31 -171.5t-88.5 -145.5t-147 -101.5t-198.5 -37.5q-121 0 -207 44t-136 130t-72.5 200.5t-22.5 268.5q0 755 575 755q70 0 147 -13t122 -32l-17 -102q-112 41 -268 41q-108 0 -190 -42t-131 -118t-74.5 -173t-28.5 -216h2q164 113 352 113
q94 0 168 -24.5t119 -63t74.5 -92.5t41 -107.5t11.5 -112.5zM891 428q0 137 -71 215t-226 78q-78 0 -171.5 -28t-160.5 -72q0 -191 38.5 -309.5t107.5 -168t174 -49.5q148 0 228.5 92t80.5 242z" />
    <glyph glyph-name="seven.sc" unicode="7" 
d="M1014 1239l-412 -920q-91 -208 -203 -356l-84 49q65 103 207 428l357 809h-779v117h914v-127z" />
    <glyph glyph-name="eight.sc" unicode="8" 
d="M1030 352q0 -163 -130 -265.5t-347 -102.5q-214 0 -337.5 89.5t-123.5 250.5q0 63 24 117.5t71.5 99.5t105.5 81.5t139 75.5q-158 77 -221.5 155t-63.5 196q0 64 27 122.5t78.5 106t135 76t187.5 28.5q187 0 293.5 -92t106.5 -217q0 -113 -77 -196t-226 -160
q85 -38 146 -74t111 -80t75.5 -97t25.5 -114zM838 1057q0 99 -76 160t-201 61q-137 0 -206.5 -64t-69.5 -161q0 -90 56.5 -150t221.5 -135q61 30 104 56.5t85 62.5t64 79t22 91zM891 334q0 96 -80 161t-270 152q-71 -35 -120 -64.5t-96 -67.5t-70.5 -82t-23.5 -93
q0 -123 88 -186.5t256 -63.5q143 0 229.5 71t86.5 173z" />
    <glyph glyph-name="nine.sc" unicode="9" 
d="M995 739q0 -136 -19 -248t-62 -207.5t-109 -161t-164 -102t-223 -36.5q-159 0 -281 39l17 106q123 -35 280 -35q208 0 305.5 133.5t120.5 411.5h-4q-161 -113 -350 -113q-90 0 -161 21t-118 57t-77.5 87.5t-44 110t-13.5 126.5q0 62 17 124.5t54.5 122t90.5 105.5
t131.5 74t171.5 28q121 0 207 -44t136 -130t72.5 -200.5t22.5 -268.5zM858 745q0 277 -80.5 402t-238.5 125q-79 0 -141 -33t-97.5 -85t-53.5 -109.5t-18 -114.5q0 -285 295 -285q78 0 171.5 28t162.5 72z" />
    <glyph glyph-name="colon" unicode=":" horiz-adv-x="593" 
d="M434 891q0 -50 -34 -84.5t-83 -34.5t-82.5 34.5t-33.5 84.5q0 48 33.5 82.5t82.5 34.5t83 -34.5t34 -82.5zM434 106q0 -50 -34 -84t-83 -34t-82.5 34t-33.5 84q0 48 33.5 82.5t82.5 34.5t83 -34.5t34 -82.5z" />
    <glyph glyph-name="semicolon" unicode=";" horiz-adv-x="593" 
d="M434 891q0 -50 -34 -84.5t-83 -34.5t-82.5 34.5t-33.5 84.5q0 48 33.5 82.5t82.5 34.5t83 -34.5t34 -82.5zM319 217q56 0 87 -53q49 -83 -17 -222q-59 -126 -205 -270l-71 60q131 160 131 245q0 27 -18.5 64t-18.5 61q0 49 29 82t83 33z" />
    <glyph glyph-name="semicolon" unicode="&#x37e;" horiz-adv-x="593" 
d="M434 891q0 -50 -34 -84.5t-83 -34.5t-82.5 34.5t-33.5 84.5q0 48 33.5 82.5t82.5 34.5t83 -34.5t34 -82.5zM319 217q56 0 87 -53q49 -83 -17 -222q-59 -126 -205 -270l-71 60q131 160 131 245q0 27 -18.5 64t-18.5 61q0 49 29 82t83 33z" />
    <glyph glyph-name="less" unicode="&#x3c;" 
d="M1008 109l-922 466v121l922 467v-141l-781 -389l781 -385v-139z" />
    <glyph glyph-name="equal" unicode="=" 
d="M1008 784h-889v125h889v-125zM1008 365h-889v124h889v-124z" />
    <glyph glyph-name="greater" unicode="&#x3e;" 
d="M1040 575l-921 -466v139l780 385l-780 389v141l921 -467v-121z" />
    <glyph glyph-name="question" unicode="?" horiz-adv-x="942" 
d="M813 1182q0 -63 -21.5 -124.5t-54.5 -112t-73 -102t-78 -104.5t-68 -109t-44.5 -126t-6.5 -146h-119q-12 111 16.5 210t77.5 172t99.5 139.5t87.5 140.5t37 147q0 131 -65 198t-214 67q-113 0 -237 -15v111q120 24 239 24q222 0 323 -98.5t101 -271.5zM512 88
q0 -46 -31.5 -78.5t-77.5 -32.5q-45 0 -76.5 32.5t-31.5 78.5q0 45 31.5 77t76.5 32t77 -32t32 -77z" />
    <glyph glyph-name="at" unicode="@" horiz-adv-x="1789" 
d="M1565 -133q-124 -61 -244 -88t-283 -27q-184 0 -341 62.5t-266 171t-170.5 260.5t-61.5 327q0 201 66 366t183 275t276 170t345 60q208 0 334.5 -100t126.5 -265v-729h-88l-19 119q-45 -39 -84 -65.5t-110 -51t-148 -24.5q-169 0 -259.5 78t-90.5 221q0 103 61 175
t161.5 105t232.5 33h213v102q0 135 -87.5 211t-275.5 76q-114 0 -217 -30.5t-188.5 -92.5t-148 -149.5t-97.5 -207t-35 -259.5q0 -152 47 -281.5t135.5 -226t225.5 -151t307 -54.5q273 0 467 103zM1399 567v267h-209q-154 0 -233.5 -52t-79.5 -145q0 -92 55.5 -144.5
t157.5 -52.5q88 0 159 31.5t150 95.5z" />
    <glyph glyph-name="A" unicode="A" horiz-adv-x="1325" 
d="M1260 0h-158q-91 290 -129 403h-631q-75 -222 -129 -403h-147q243 768 522 1430h135q266 -620 537 -1430zM930 516q-77 220 -281 760l-2 -4q-183 -497 -272 -756h555z" />
    <glyph glyph-name="B" unicode="B" horiz-adv-x="1171" 
d="M1063 410q0 -192 -123.5 -301t-325.5 -109h-405v1430h352q204 0 307 -93.5t103 -259.5q0 -105 -50 -186.5t-137 -126.5q117 -22 198 -120.5t81 -233.5zM827 1061q0 248 -284 248h-199v-512h238q245 0 245 264zM920 389q0 141 -88.5 215t-256.5 74h-231v-557h285
q123 0 207 70.5t84 197.5z" />
    <glyph glyph-name="C" unicode="C" horiz-adv-x="1214" 
d="M1155 70q-192 -84 -381 -84q-297 0 -473 187.5t-176 524.5q0 339 177.5 542.5t471.5 203.5q106 0 191.5 -17t181.5 -61l-49 -111q-158 68 -336 68q-222 0 -356 -167.5t-134 -442.5q0 -289 139.5 -446.5t383.5 -157.5q158 0 321 71z" />
    <glyph glyph-name="D" unicode="D" horiz-adv-x="1423" 
d="M1303 735q0 -358 -180 -546.5t-519 -188.5h-395v1430h420q324 0 499 -187.5t175 -507.5zM1155 729q0 128 -32 232t-95.5 182.5t-167 122t-239.5 43.5h-277v-1188h272q272 0 405.5 148t133.5 460z" />
    <glyph glyph-name="E" unicode="E" horiz-adv-x="1114" 
d="M965 0h-756v1430h745v-121h-610v-504h537v-121h-537v-563h621v-121z" />
    <glyph glyph-name="F" unicode="F" horiz-adv-x="1030" 
d="M936 1309h-592v-537h533v-121h-533v-651h-135v1430h727v-121z" />
    <glyph glyph-name="G" unicode="G" horiz-adv-x="1392" 
d="M1229 1327l-55 -115q-84 51 -184.5 80t-198.5 29q-128 0 -228.5 -46t-165 -128.5t-98 -192.5t-33.5 -241q0 -287 144 -447t391 -160q137 0 270 37v592h135v-680q-194 -73 -411 -73q-163 0 -291.5 52.5t-212 147.5t-127 226.5t-43.5 291.5q0 337 184 540.5t498 203.5
q112 0 223.5 -31t202.5 -86z" />
    <glyph glyph-name="H" unicode="H" horiz-adv-x="1400" 
d="M1192 0h-135v688h-713v-688h-135v1430h135v-621h713v621h135v-1430z" />
    <glyph glyph-name="I" unicode="I" horiz-adv-x="552" 
d="M344 0h-135v1430h135v-1430z" />
    <glyph glyph-name="J" unicode="J" horiz-adv-x="669" 
d="M461 416q0 -46 -0.5 -76.5t-3.5 -71.5t-8.5 -68.5t-15.5 -60t-24.5 -54t-35.5 -43.5t-48.5 -34t-64 -20t-80.5 -8q-82 0 -131 12v100h78q121 0 160 59.5t39 227.5v1051h135v-1014z" />
    <glyph glyph-name="K" unicode="K" horiz-adv-x="1214" 
d="M1157 0h-192l-537 739l-84 -82v-657h-135v1430h135v-625l614 625h199l-631 -607z" />
    <glyph glyph-name="L" unicode="L" horiz-adv-x="948" 
d="M918 0h-709v1430h135v-1309h574v-121z" />
    <glyph glyph-name="M" unicode="M" horiz-adv-x="1853" 
d="M1665 0h-141q-13 695 -94 1260h-3l-444 -1260h-127l-440 1260h-4q-76 -648 -84 -1260h-135q9 732 120 1430h195l420 -1213h6l420 1213h192q104 -683 119 -1430z" />
    <glyph glyph-name="N" unicode="N" horiz-adv-x="1435" 
d="M1227 0h-176l-707 1264h-4v-1264h-131v1430h197l686 -1225h4v1225h131v-1430z" />
    <glyph glyph-name="O" unicode="O" horiz-adv-x="1574" 
d="M1448 729q0 -223 -74.5 -390t-227.5 -263t-368 -96q-163 0 -288.5 53.5t-204 151t-118.5 227.5t-40 288q0 221 75.5 388.5t228 264.5t364.5 97q159 0 284.5 -55t205.5 -153t121.5 -228t41.5 -285zM1300 700q0 108 -17 200t-56.5 172.5t-100 136.5t-151 88t-205.5 32
q-130 0 -228 -48t-155 -132t-85 -189.5t-28 -230.5q0 -110 17 -202t56 -172t99 -135.5t150.5 -87.5t206.5 -32q108 0 193.5 32.5t141.5 87.5t93 133t53 163.5t16 183.5z" />
    <glyph glyph-name="P" unicode="P" horiz-adv-x="1148" 
d="M1034 1014q0 -201 -125 -323t-340 -122h-225v-569h-135v1430h356q94 0 166 -17q141 -34 222 -140t81 -259zM887 1001q0 115 -55 192.5t-156 102.5q-53 13 -125 13h-207v-621h238q144 0 224.5 85.5t80.5 227.5z" />
    <glyph glyph-name="Q" unicode="Q" horiz-adv-x="1574" 
d="M1538 -35l-84 -96l-254 244q-165 -133 -422 -133q-163 0 -288.5 53.5t-204 151t-118.5 227.5t-40 288q0 221 75.5 388.5t228 264.5t364.5 97q159 0 284.5 -55t205.5 -153t121.5 -228t41.5 -285q0 -328 -160 -526zM1300 700q0 108 -17 200t-56.5 172.5t-100 136.5t-151 88
t-205.5 32q-130 0 -228 -48t-155 -132t-85 -189.5t-28 -230.5q0 -110 17 -202t56 -172t99 -135.5t150.5 -87.5t206.5 -32q181 0 309 97l-285 270l84 96l285 -272q50 69 77 178t27 231z" />
    <glyph glyph-name="R" unicode="R" horiz-adv-x="1183" 
d="M1081 0h-170l-379 666h-188v-666h-135v1430h332q223 0 337.5 -101t114.5 -268q0 -149 -88 -245t-227 -134zM846 1047q0 53 -16.5 97.5t-52 82.5t-100 60t-151.5 22h-182v-527h184q158 0 238 74t80 191z" />
    <glyph glyph-name="S" unicode="S" horiz-adv-x="995" 
d="M895 387q0 -189 -131.5 -298t-351.5 -109q-156 0 -301 40l24 130q162 -48 311 -48q137 0 218 72.5t81 200.5q0 30 -5.5 56.5t-19 49.5t-26 41.5t-37 38t-41 32t-49 30.5t-50 27t-55.5 28q-11 5 -16 8q-78 39 -130 72.5t-99 80.5t-69.5 107t-22.5 135q0 165 118 267
t312 102q61 0 133.5 -10t116.5 -27l-27 -117q-116 33 -237 33q-134 0 -202.5 -65t-68.5 -168q0 -35 9.5 -66.5t20.5 -54.5t38 -48.5t43 -39t56.5 -37t57 -32t64.5 -32.5q66 -33 111.5 -59.5t91 -63t72.5 -75t44 -89.5t17 -112z" />
    <glyph glyph-name="T" unicode="T" horiz-adv-x="1093" 
d="M1067 1315h-453v-1315h-135v1315h-452v115h1040v-115z" />
    <glyph glyph-name="U" unicode="U" horiz-adv-x="1433" 
d="M1229 535q0 -264 -138 -408.5t-376 -144.5q-232 0 -371 138t-139 390v920h135v-906q0 -205 100 -315.5t279 -110.5q181 0 281 108.5t100 317.5v906h129v-895z" />
    <glyph glyph-name="V" unicode="V" horiz-adv-x="1286" 
d="M1249 1430q-248 -779 -528 -1430h-133q-305 677 -543 1430h166q160 -576 451 -1276l2 2q227 575 434 1274h151z" />
    <glyph glyph-name="W" unicode="W" horiz-adv-x="2054" 
d="M1985 1430q-180 -676 -455 -1430h-166l-340 1241h-4l-326 -1241h-166q-271 734 -454 1430h162q133 -556 376 -1262h2l326 1262h176l348 -1262h2q255 767 361 1262h158z" />
    <glyph glyph-name="X" unicode="X" horiz-adv-x="1234" 
d="M1198 0h-184l-406 633l-411 -633h-168l508 737l-465 693h176l370 -576l375 576h162l-465 -682z" />
    <glyph glyph-name="Y" unicode="Y" horiz-adv-x="1179" 
d="M1157 1430q-245 -469 -493 -812v-618h-136v618q-248 334 -505 812h163q187 -398 420 -707q208 308 379 707h172z" />
    <glyph glyph-name="Z" unicode="Z" horiz-adv-x="1048" 
d="M979 0h-909v121l761 1194h-739v115h877v-132l-764 -1181h774v-117z" />
    <glyph glyph-name="bracketleft" unicode="[" horiz-adv-x="671" 
d="M565 -344h-334v1880h334v-100h-209v-1680h209v-100z" />
    <glyph glyph-name="backslash" unicode="\" horiz-adv-x="819" 
d="M819 -262l-121 -35l-698 1884l121 35z" />
    <glyph glyph-name="bracketright" unicode="]" horiz-adv-x="671" 
d="M440 -344h-331v100h206v1680h-206v100h331v-1880z" />
    <glyph glyph-name="asciicircum" unicode="^" 
d="M1020 721h-150l-303 604l-272 -604h-143l337 709h173z" />
    <glyph glyph-name="underscore" unicode="_" 
d="M1126 -453h-1126v103h1126v-103z" />
    <glyph glyph-name="grave" unicode="`" horiz-adv-x="512" 
d="M319 1282l-86 -78l-233 252l106 84z" />
    <glyph glyph-name="a" unicode="a" horiz-adv-x="1085" 
d="M905 0h-102l-15 111q-85 -72 -162 -103t-175 -31q-165 0 -255 78t-90 221q0 103 60 175t160 105.5t231 33.5h217v78q0 145 -60 211.5t-206 66.5q-152 0 -299 -59l-29 110q167 62 357 62q83 0 148 -19.5t105.5 -52t67 -78t37 -93t10.5 -101.5v-715zM774 217v266h-213
q-153 0 -231 -51.5t-78 -148.5q0 -92 54 -144.5t157 -52.5q89 0 159.5 32.5t151.5 98.5z" />
    <glyph glyph-name="b" unicode="b" horiz-adv-x="1206" 
d="M1092 553q0 -115 -31 -214.5t-92 -178.5t-162 -124.5t-232 -45.5q-204 0 -391 55v1491h131v-657q81 87 170 133.5t213 46.5q80 0 146 -26.5t111.5 -72.5t76.5 -110.5t45.5 -138.5t14.5 -158zM950 547q0 76 -14 144t-44 128t-85 95.5t-129 35.5q-98 0 -183.5 -51
t-179.5 -164v-596q126 -47 273 -47q180 0 271 119t91 336z" />
    <glyph glyph-name="c" unicode="c" horiz-adv-x="950" 
d="M868 37q-134 -53 -284 -53q-243 0 -358 136.5t-115 381.5q0 257 134 403t353 146q147 0 268 -56l-35 -98q-120 47 -231 47q-175 0 -260.5 -116t-85.5 -314q0 -420 348 -420q129 0 242 45z" />
    <glyph glyph-name="d" unicode="d" horiz-adv-x="1206" 
d="M1022 0h-102l-15 172q-91 -99 -181.5 -147t-215.5 -48q-100 0 -176.5 40t-123 110.5t-70 160.5t-23.5 195q0 91 19 173.5t59.5 154t100 124t146 82.5t191.5 30q125 0 260 -27v516h131v-1536zM891 301v596q-126 47 -273 47q-180 0 -271 -119t-91 -336q0 -76 14 -144
t44 -128t85 -95.5t129 -35.5q98 0 183.5 51t179.5 164z" />
    <glyph glyph-name="e" unicode="e" horiz-adv-x="1112" 
d="M993 604q0 -7 -1 -42t-1 -52h-735q0 -207 81.5 -314.5t280.5 -107.5q157 0 326 49l21 -104q-173 -56 -373 -56q-477 0 -477 539q0 247 124.5 395t348.5 148q100 0 178.5 -36t127 -99.5t74 -144.5t25.5 -175zM858 616q6 153 -69.5 243.5t-210.5 90.5q-77 0 -140 -31
t-101.5 -80.5t-59 -107t-21.5 -115.5h602z" />
    <glyph glyph-name="f" unicode="f" horiz-adv-x="679" 
d="M674 1446h-103q-34 0 -61.5 -5t-48 -13t-36.5 -23t-26.5 -29t-18 -36t-11.5 -40t-6 -46t-2.5 -48t-0.5 -51v-119h269v-102h-269v-934h-131v934h-172v102h172v115q0 98 14 167.5t49 125.5t100.5 84t162.5 28q73 0 119 -10v-100z" />
    <glyph glyph-name="g" unicode="g" horiz-adv-x="1206" 
d="M1022 16q0 -125 -24 -210.5t-81 -145t-150.5 -86.5t-231.5 -27q-139 0 -283 25l4 98q129 -6 272 -6q101 0 167 15.5t111.5 55.5t65 108t19.5 173v154q-93 -96 -180.5 -138t-200.5 -42q-100 0 -177.5 39.5t-124 108.5t-70 157.5t-23.5 193.5q0 90 19 171.5t60 152.5
t100.5 122.5t145.5 81.5t191 30q201 0 391 -56v-975zM891 313v584q-126 47 -273 47q-178 0 -270 -118.5t-92 -329.5q0 -76 13.5 -142.5t43.5 -126t85 -94.5t130 -35q99 0 183.5 50.5t179.5 164.5z" />
    <glyph glyph-name="h" unicode="h" horiz-adv-x="1214" 
d="M1034 0h-131v621q0 325 -235 325q-102 0 -176.5 -46t-176.5 -155v-745h-131v1536h131v-659q90 95 173.5 138.5t193.5 43.5q97 0 167.5 -33.5t109.5 -93t57 -130.5t18 -157v-645z" />
    <glyph glyph-name="i" unicode="i" horiz-adv-x="548" 
d="M389 1376q0 -43 -29.5 -72.5t-72.5 -29.5t-73 29.5t-30 72.5t30 73t73 30t72.5 -30t29.5 -73zM365 0h-132v934h-190v102h322v-1036z" />
    <glyph glyph-name="j" unicode="j" horiz-adv-x="534" 
d="M385 1376q0 -43 -29.5 -72.5t-72.5 -29.5t-73 29.5t-30 72.5t30 73t73 30t72.5 -30t29.5 -73zM350 -43q0 -103 -15.5 -178.5t-40.5 -119t-62.5 -69.5t-74 -34.5t-83.5 -8.5q-66 0 -119 17l4 102h100q83 0 121.5 62t38.5 198v1110h131v-1079z" />
    <glyph glyph-name="k" unicode="k" horiz-adv-x="1064" 
d="M1018 0h-193l-440 547l-70 -62v-485h-131v1536h131v-909l445 409h194l-473 -409z" />
    <glyph glyph-name="l" unicode="l" horiz-adv-x="548" 
d="M494 0q-42 -10 -99 -10q-211 0 -211 200v1346h131v-1315q0 -58 20.5 -88.5t70.5 -30.5h88v-102z" />
    <glyph glyph-name="m" unicode="m" horiz-adv-x="1802" 
d="M1622 0h-131v618q0 63 -4 108t-16.5 89t-34 71t-59 43.5t-89.5 16.5q-43 0 -79 -9.5t-63 -22.5t-59.5 -42.5t-55 -54t-62.5 -72.5v-745h-131v621q0 62 -4 106.5t-16.5 88.5t-34 70.5t-59 43t-89.5 16.5q-53 0 -94 -11.5t-80.5 -41.5t-67.5 -59.5t-78 -88.5v-745h-131
v1036h103l22 -168q81 101 156 146t184 45q120 0 192.5 -52t104.5 -161q87 116 166.5 164.5t190.5 48.5q78 0 136 -23t92.5 -60t55.5 -92.5t28 -111.5t7 -127v-645z" />
    <glyph glyph-name="n" unicode="n" horiz-adv-x="1214" 
d="M1034 0h-131v621q0 325 -235 325q-102 0 -176.5 -46t-176.5 -155v-745h-131v1036h103l22 -166q95 102 178.5 145.5t194.5 43.5q97 0 167.5 -33.5t109.5 -93t57 -130.5t18 -157v-645z" />
    <glyph glyph-name="o" unicode="o" horiz-adv-x="1236" 
d="M1126 532q0 -153 -63.5 -278.5t-183 -201t-273.5 -75.5q-125 0 -221 41t-155 114t-89 168t-30 208q0 159 60 282.5t178.5 196t279.5 72.5q229 0 363 -145t134 -382zM983 504q0 89 -21 166.5t-63 141t-114 100t-167 36.5q-176 0 -270 -115.5t-94 -302.5q0 -97 20 -174.5
t63 -138.5t116.5 -94t173.5 -33q169 0 262.5 118.5t93.5 295.5z" />
    <glyph glyph-name="p" unicode="p" horiz-adv-x="1206" 
d="M1092 553q0 -115 -31 -214.5t-92 -178.5t-162 -124.5t-232 -45.5q-123 0 -260 26v-446h-131v1466h103l14 -172q90 98 181 146.5t216 48.5q80 0 146 -26.5t111.5 -72.5t76.5 -110.5t45.5 -138.5t14.5 -158zM950 547q0 76 -14 144t-44 128t-85 95.5t-129 35.5
q-98 0 -183.5 -51t-179.5 -164v-596q126 -47 273 -47q180 0 271 119t91 336z" />
    <glyph glyph-name="q" unicode="q" horiz-adv-x="1206" 
d="M1022 -430h-131v586q-94 -95 -181.5 -137t-201.5 -42q-100 0 -176.5 40t-123 110.5t-70 160.5t-23.5 195q0 91 19 173.5t59.5 154t100 124t146 82.5t191.5 30q201 0 391 -56v-1421zM891 301v596q-126 47 -273 47q-180 0 -271 -119t-91 -336q0 -76 14 -144t44 -128
t85 -95.5t129 -35.5q98 0 183.5 51t179.5 164z" />
    <glyph glyph-name="r" unicode="r" horiz-adv-x="780" 
d="M739 1038l-26 -120q-61 18 -113 18q-55 0 -111.5 -51t-173.5 -193v-692h-131v1036h103l16 -209q98 128 160 180t133 52t143 -21z" />
    <glyph glyph-name="s" unicode="s" horiz-adv-x="874" 
d="M772 289q0 -145 -106 -228.5t-283 -83.5q-132 0 -266 43l22 119q136 -47 269 -47q102 0 164.5 46.5t62.5 137.5q0 69 -52 109.5t-175 85.5q-139 49 -207 112t-68 173q0 139 95 221t261 82q114 0 220 -39l-21 -109q-104 37 -215 37q-101 0 -152 -53.5t-51 -124.5t52 -112
t180 -87q65 -23 109 -45t83.5 -54.5t58.5 -78t19 -104.5z" />
    <glyph glyph-name="t" unicode="t" horiz-adv-x="714" 
d="M625 2q-65 -14 -138 -14q-127 0 -194.5 61.5t-67.5 204.5v680h-172v102h170l31 305h102v-305h269v-102h-269v-676q0 -53 10.5 -86t36 -48.5t53.5 -20.5t76 -5h93v-96z" />
    <glyph glyph-name="u" unicode="u" horiz-adv-x="1214" 
d="M1030 0h-102l-23 166q-95 -102 -178.5 -145.5t-194.5 -43.5q-97 0 -167.5 33.5t-109.5 93t-57 130.5t-18 157v645h131v-620q0 -326 236 -326q102 0 176 46t176 155v745h131v-1036z" />
    <glyph glyph-name="v" unicode="v" horiz-adv-x="995" 
d="M938 1036q-140 -472 -381 -1036h-117q-227 534 -379 1036h142q115 -416 301 -878h4q205 500 305 878h125z" />
    <glyph glyph-name="w" unicode="w" horiz-adv-x="1622" 
d="M1556 1036q-144 -516 -342 -1036h-133l-272 870h-4l-260 -870h-150q-185 490 -325 1036h139q105 -443 260 -899h4l272 899h140l276 -899h4q177 539 265 899h126z" />
    <glyph glyph-name="x" unicode="x" horiz-adv-x="1040" 
d="M973 0h-162l-295 442l-297 -442h-151l389 528l-359 508h158l272 -409l275 409h147l-362 -493z" />
    <glyph glyph-name="y" unicode="y" horiz-adv-x="999" 
d="M942 1036q-190 -679 -362 -1036q-121 -257 -208 -355t-192 -98q-36 0 -114 19l6 98h104q60 0 124 73.5t159 262.5q-274 632 -389 1036h141q100 -351 313 -891h4q180 452 287 891h127z" />
    <glyph glyph-name="z" unicode="z" horiz-adv-x="968" 
d="M879 0h-764v115l585 809h-553v112h695v-112l-590 -811h627v-113z" />
    <glyph glyph-name="braceleft" unicode="{" horiz-adv-x="675" 
d="M604 -342q-50 -4 -80 -4q-66 0 -108.5 21t-66 68t-32 108.5t-8.5 156.5v291q0 132 -46.5 205.5t-141.5 73.5v86q95 0 141.5 73t46.5 205v242q0 188 45 271t170 83q30 0 80 -4v-98h-76q-37 0 -57.5 -19.5t-31.5 -77t-11 -165.5v-220q0 -299 -178 -333q178 -34 178 -334
v-269q0 -108 11 -165.5t31.5 -77t57.5 -19.5h76v-98z" />
    <glyph glyph-name="bar" unicode="|" horiz-adv-x="1024" 
d="M573 -430h-122v1966h122v-1966z" />
    <glyph glyph-name="braceright" unicode="}" horiz-adv-x="675" 
d="M629 578q-95 0 -142 -73.5t-47 -205.5v-291q0 -188 -45 -271t-170 -83q-30 0 -80 4v98h76q37 0 57.5 19.5t32 77t11.5 165.5v269q0 300 178 334q-178 34 -178 333v220q0 108 -11.5 165.5t-32 77t-57.5 19.5h-76v98q50 4 80 4q66 0 108.5 -21t66 -68t32 -108.5t8.5 -156.5
v-242q0 -132 47 -205t142 -73v-86z" />
    <glyph glyph-name="asciitilde" unicode="~" 
d="M1057 1178q0 -148 -75 -240t-204 -92q-50 0 -90.5 12t-71.5 37t-50 46t-44 56q-24 33 -38 49t-37.5 38t-50 31t-58.5 9q-153 0 -156 -229h-108v8q0 145 75 236.5t203 91.5q50 0 89.5 -11.5t71 -36.5t50.5 -45t45 -55q21 -29 30 -40t29.5 -33t35.5 -31t39 -17t51 -8
q151 0 155 232h109v-8z" />
    <glyph glyph-name="exclamdown" unicode="&#xa1;" horiz-adv-x="737" 
d="M436 1112q0 -45 -31.5 -76.5t-76.5 -31.5q-46 0 -77.5 32t-31.5 76q0 46 31.5 78.5t77.5 32.5q45 0 76.5 -32.5t31.5 -78.5zM403 -336h-151l20 1178h111z" />
    <glyph glyph-name="cent" unicode="&#xa2;" 
d="M979 262q-145 -54 -272 -63v-199h-113v199q-215 17 -325.5 153t-110.5 363t120 365.5t316 156.5v193h113v-187q137 -7 270 -67l-43 -103q-140 64 -262 64q-180 0 -275.5 -109.5t-95.5 -300.5q0 -209 96.5 -315.5t272.5 -106.5q137 0 282 57z" />
    <glyph glyph-name="sterling" unicode="&#xa3;" 
d="M1006 0h-854v115q25 30 41.5 52t38 56t34.5 65t26 74t18.5 87.5t5 101t-8.5 119.5h-198v102h184q-3 25 -9.5 74.5t-10 79t-6.5 68t-3 67.5q0 189 108.5 283t299.5 94q113 0 254 -27v-113q-164 21 -248 21q-149 0 -215 -60.5t-66 -183.5q0 -107 25 -303h444v-102h-428
q35 -365 -164 -555h732v-115z" />
    <glyph glyph-name="currency" unicode="&#xa4;" 
d="M1012 106l-103 -73l-161 237q-90 -49 -199 -49q-107 0 -182 37l-152 -225l-100 71l155 222q-108 108 -108 311q0 188 104 307l-153 215l102 74l145 -213q90 49 207 49q118 0 203 -49l143 211l101 -70l-152 -215q94 -111 94 -291q0 -188 -114 -311zM831 635
q0 67 -15 124.5t-46.5 104.5t-85.5 74t-125 27q-131 0 -201.5 -85.5t-70.5 -224.5q0 -150 66 -238.5t212 -88.5q126 0 196 88t70 219z" />
    <glyph glyph-name="yen" unicode="&#xa5;" 
d="M1071 1430q-215 -396 -436 -703v-65h344v-103h-344v-211h344v-102h-344v-246h-135v246h-344v102h344v211h-344v103h344v65q-242 328 -445 703h156q159 -320 367 -599q169 248 329 599h164z" />
    <glyph glyph-name="brokenbar" unicode="&#xa6;" 
d="M623 811h-123v784h123v-784zM623 -430h-123v799h123v-799z" />
    <glyph glyph-name="section" unicode="&#xa7;" 
d="M940 236q0 -128 -54 -270t-147 -232q-120 -117 -301 -117q-76 0 -151 16l4 105q63 -14 170 -14q104 0 159.5 49t55.5 135q0 55 -27.5 113.5t-71.5 112t-97.5 111t-107 121t-97.5 130.5t-71.5 150.5t-27.5 170.5q0 127 55 268t146 236q117 123 293 123q64 0 155 -14
l-8 -101q-93 14 -164 14q-112 0 -164.5 -52.5t-52.5 -155.5q0 -53 28 -108t72 -106t98 -105.5t108 -116.5t98 -129.5t72 -154t28 -179.5zM823 209q0 84 -25 161t-66 137.5t-91 117.5t-101 110.5t-94.5 105.5t-74 113.5t-37.5 124.5q-41 -118 -41 -221q0 -84 24 -161
t63.5 -137t88 -116.5t98.5 -110.5t93 -107t74 -117.5t40 -131.5q49 120 49 232z" />
    <glyph glyph-name="dieresis" unicode="&#xa8;" horiz-adv-x="716" 
d="M553 1384q0 -35 -24.5 -60.5t-59.5 -25.5q-36 0 -61 25t-25 61t25 61t61 25q35 0 59.5 -25.5t24.5 -60.5zM170 1384q0 -36 -25 -61t-61 -25t-60 25t-24 61t24 61t60 25t61 -25t25 -61z" />
    <glyph glyph-name="copyright" unicode="&#xa9;" horiz-adv-x="1546" 
d="M1456 688q0 -186 -92 -344t-250 -250t-344 -92q-143 0 -271 53.5t-219.5 145t-144.5 217.5t-53 266q0 187 92 344.5t250 248.5t346 91t345.5 -90t249 -246.5t91.5 -343.5zM1350 684q0 159 -77 294t-211 214.5t-292 79.5t-292 -78t-212 -212.5t-78 -293.5t77.5 -294
t212 -214.5t292.5 -79.5t292 78.5t211 212.5t77 293zM985 360q-91 -36 -205 -36q-156 0 -242.5 86.5t-86.5 265.5q0 183 97.5 280t254.5 97q74 0 176 -37l-37 -105q-77 31 -149 31q-106 0 -159.5 -67.5t-53.5 -186.5q0 -254 213 -254q60 0 172 33z" />
    <glyph glyph-name="ordfeminine" unicode="&#xaa;" horiz-adv-x="892" 
d="M711 696h-95l-16 86l-18 -16q-17 -15 -21 -18t-21.5 -16.5t-26.5 -17.5t-28 -13.5t-35 -12.5t-38 -6.5t-45 -3.5q-114 0 -180 56.5t-66 160.5q0 227 336 227h127v52q0 80 -45.5 120.5t-130.5 40.5q-126 0 -209 -41l-19 101q110 47 248 47q132 0 207.5 -63t75.5 -183v-500
zM711 393h-572v109h572v-109zM584 881v145h-131q-100 0 -146.5 -29.5t-46.5 -91.5q0 -56 34.5 -90.5t92.5 -34.5q54 0 100 26t97 75z" />
    <glyph glyph-name="guillemotleft" unicode="&#xab;" 
d="M911 186l-108 -49l-289 436l289 437l108 -49l-247 -388zM526 166l-104 -49l-289 456l289 457l104 -49l-243 -408z" />
    <glyph glyph-name="logicalnot" unicode="&#xac;" 
d="M1012 356h-129v205h-797v125h926v-330z" />
    <glyph glyph-name="registered" unicode="&#xae;" horiz-adv-x="1150" 
d="M989 1085q0 -169 -123 -293t-293 -124q-176 0 -296.5 121t-120.5 296q0 172 122 295t295 123q177 0 296.5 -120.5t119.5 -297.5zM899 1079q0 146 -97 243t-229 97q-142 0 -233.5 -99t-91.5 -233q0 -143 98.5 -241t226.5 -98q142 0 234 98.5t92 232.5zM741 1202
q0 -48 -26.5 -84.5t-67.5 -50.5l121 -211h-109l-102 197h-39v-197h-88v469h156q73 0 114 -33.5t41 -89.5zM647 1196q0 59 -84 59h-45v-133h39q90 0 90 74z" />
    <glyph glyph-name="macron" unicode="&#xaf;" horiz-adv-x="552" 
d="M553 1327h-553v98h553v-98z" />
    <glyph glyph-name="macron" unicode="&#x2c9;" horiz-adv-x="552" 
d="M553 1327h-553v98h553v-98z" />
    <glyph glyph-name="degree" unicode="&#xb0;" horiz-adv-x="761" 
d="M631 1255q0 -102 -73.5 -172.5t-180.5 -70.5q-106 0 -176 65.5t-70 169.5q0 106 73.5 175t180.5 69q106 0 176 -66t70 -170zM520 1251q0 64 -40.5 107t-100.5 43q-58 0 -98.5 -43t-40.5 -105q0 -67 41 -109t102 -42q57 0 97 43t40 106z" />
    <glyph glyph-name="plusminus" unicode="&#xb1;" 
d="M1030 711h-403v-441h-127v441h-404v125h404v442h127v-442h403v-125zM1024 0h-922v125h922v-125z" />
    <glyph glyph-name="twosuperior" unicode="&#xb2;" horiz-adv-x="757" 
d="M625 715h-541v86l221 184q90 74 123 129t33 113q0 125 -156 125q-95 0 -182 -37l-23 92q100 43 222 43q133 0 198.5 -58.5t65.5 -156.5q0 -84 -44 -155.5t-182 -176.5l-110 -86h375v-102z" />
    <glyph glyph-name="threesuperior" unicode="&#xb3;" horiz-adv-x="757" 
d="M604 913q0 -78 -47.5 -129t-115 -70.5t-150.5 -19.5q-111 0 -195 19v90q62 -10 191 -10q192 0 192 116q0 74 -54 100.5t-159 26.5h-90v97h98q83 0 131 33t48 89q0 47 -35 73t-101 26q-111 0 -198 -35l-23 92q119 39 238 39q114 0 177.5 -49t63.5 -137q0 -66 -40.5 -111.5
t-112.5 -58.5q92 -6 137 -57.5t45 -123.5z" />
    <glyph glyph-name="acute" unicode="&#xb4;" horiz-adv-x="577" 
d="M332 1460l-250 -256l-82 66l219 270z" />
    <glyph glyph-name="mu" unicode="&#xb5;" horiz-adv-x="1273" 
d="M1212 0q-42 -10 -98 -10q-193 0 -209 172q-96 -99 -174 -142t-190 -43q-154 0 -226 93v-500h-131v1466h131v-620q0 -326 236 -326q102 0 176 46t176 155v745h131v-815q0 -58 20 -88.5t70 -30.5h88v-102z" />
    <glyph glyph-name="mu" unicode="&#x3bc;" horiz-adv-x="1273" 
d="M1212 0q-42 -10 -98 -10q-193 0 -209 172q-96 -99 -174 -142t-190 -43q-154 0 -226 93v-500h-131v1466h131v-620q0 -326 236 -326q102 0 176 46t176 155v745h131v-815q0 -58 20 -88.5t70 -30.5h88v-102z" />
    <glyph glyph-name="paragraph" unicode="&#xb6;" horiz-adv-x="1198" 
d="M1012 -240h-138v1543h-225v-1543h-139v846q-130 -10 -238 44.5t-168.5 153.5t-60.5 218q0 165 121.5 286.5t290.5 121.5h557v-1670z" />
    <glyph glyph-name="periodcentered" unicode="&#xb7;" horiz-adv-x="552" 
d="M393 635q0 -49 -33.5 -83t-83.5 -34q-49 0 -82.5 33.5t-33.5 83.5t33.5 84.5t82.5 34.5t83 -34.5t34 -84.5z" />
    <glyph glyph-name="periodcentered" unicode="&#x2219;" horiz-adv-x="552" 
d="M393 635q0 -49 -33.5 -83t-83.5 -34q-49 0 -82.5 33.5t-33.5 83.5t33.5 84.5t82.5 34.5t83 -34.5t34 -84.5z" />
    <glyph glyph-name="cedilla" unicode="&#xb8;" horiz-adv-x="569" 
d="M487 -217q0 -46 -50.5 -78.5t-164.5 -32.5q-107 0 -184 23v86h205q65 0 65 26q0 23 -12 50l-63 143h118l54 -111q32 -63 32 -106z" />
    <glyph glyph-name="onesuperior" unicode="&#xb9;" horiz-adv-x="757" 
d="M403 715h-122v592l-183 -95l-35 84l228 136h112v-717z" />
    <glyph glyph-name="ordmasculine" unicode="&#xba;" horiz-adv-x="940" 
d="M827 1071q0 -169 -101 -282t-265 -113q-173 0 -264 105t-91 272q0 176 97 284.5t270 108.5q167 0 260.5 -103t93.5 -272zM784 393h-606v109h606v-109zM692 1053q0 125 -56 205.5t-169 80.5q-111 0 -168 -74t-57 -196q0 -283 229 -283q103 0 162 78.5t59 188.5z" />
    <glyph glyph-name="guillemotright" unicode="&#xbb;" 
d="M993 573l-288 -456l-105 49l244 407l-244 408l105 49zM612 573l-288 -436l-109 49l248 387l-248 388l109 49z" />
    <glyph glyph-name="onequarter" unicode="&#xbc;" horiz-adv-x="1505" 
d="M367 715h-123v592l-183 -95l-34 84l227 136h113v-717zM1241 1430l-1014 -1487l-94 57l1014 1489zM1452 150h-147v-150h-123v150h-394v83l332 482h185v-469h147v-96zM1182 246v379h-2l-260 -379h262z" />
    <glyph glyph-name="onehalf" unicode="&#xbd;" horiz-adv-x="1583" 
d="M403 715h-122v592l-183 -95l-35 84l228 136h112v-717zM1241 1430l-1014 -1487l-94 57l1014 1489zM1489 0h-541v86l221 184q90 74 123 129t33 113q0 125 -156 125q-95 0 -182 -37l-22 92q100 43 221 43q133 0 198.5 -58.5t65.5 -156.5q0 -56 -14.5 -98.5t-65 -102
t-145.5 -131.5l-111 -86h375v-102z" />
    <glyph glyph-name="threequarters" unicode="&#xbe;" horiz-adv-x="1650" 
d="M604 913q0 -78 -47.5 -129t-115 -70.5t-150.5 -19.5q-111 0 -195 19v90q62 -10 191 -10q192 0 192 116q0 74 -54 100.5t-159 26.5h-90v97h98q83 0 131 33t48 89q0 47 -35 73t-101 26q-111 0 -198 -35l-23 92q119 39 238 39q114 0 177.5 -49t63.5 -137q0 -66 -40.5 -111.5
t-112.5 -58.5q92 -6 137 -57.5t45 -123.5zM1386 1430l-1013 -1487l-94 57l1013 1489zM1597 150h-147v-150h-123v150h-393v83l332 482h184v-469h147v-96zM1327 246v379h-2l-260 -379h262z" />
    <glyph glyph-name="questiondown" unicode="&#xbf;" horiz-adv-x="942" 
d="M647 1112q0 -45 -31.5 -76.5t-76.5 -31.5t-77 32t-32 76q0 46 31.5 78.5t77.5 32.5q45 0 76.5 -32.5t31.5 -78.5zM793 -328q-120 -24 -240 -24q-222 0 -323 98.5t-101 271.5q0 63 21.5 124.5t54.5 112t73 102t78 104.5t68 109t44.5 126t6.5 146h119q12 -111 -16.5 -210
t-77.5 -172t-99.5 -139.5t-87.5 -140.5t-37 -147q0 -130 65 -197t214 -67q123 0 238 14v-111z" />
    <glyph glyph-name="Agrave" unicode="&#xc0;" horiz-adv-x="1325" 
d="M1260 0h-158q-91 290 -129 403h-631q-75 -222 -129 -403h-147q243 768 522 1430h135q266 -620 537 -1430zM930 516q-77 220 -281 760l-2 -4q-183 -497 -272 -756h555zM721 1632l-64 -88l-352 174l78 113z" />
    <glyph glyph-name="Aacute" unicode="&#xc1;" horiz-adv-x="1325" 
d="M1260 0h-158q-91 290 -129 403h-631q-75 -222 -129 -403h-147q243 768 522 1430h135q266 -620 537 -1430zM930 516q-77 220 -281 760l-2 -4q-183 -497 -272 -756h555zM961 1718l-353 -174l-63 88l338 199z" />
    <glyph glyph-name="Acircumflex" unicode="&#xc2;" horiz-adv-x="1325" 
d="M1260 0h-158q-91 290 -129 403h-631q-75 -222 -129 -403h-147q243 768 522 1430h135q266 -620 537 -1430zM930 516q-77 220 -281 760l-2 -4q-183 -497 -272 -756h555zM922 1632l-64 -80l-213 138l-209 -138l-57 74l268 197z" />
    <glyph glyph-name="Atilde" unicode="&#xc3;" horiz-adv-x="1325" 
d="M1260 0h-158q-91 290 -129 403h-631q-75 -222 -129 -403h-147q243 768 522 1430h135q266 -620 537 -1430zM930 516q-77 220 -281 760l-2 -4q-183 -497 -272 -756h555zM983 1706q-33 -70 -94.5 -111t-128.5 -41q-45 0 -83 14t-59.5 30t-51 30t-60.5 14q-38 0 -73 -27.5
t-58 -76.5l-84 61q35 70 95.5 111t127.5 41q45 0 82.5 -13.5t59 -30.5t51 -30.5t59.5 -13.5q39 0 74.5 27t58.5 75z" />
    <glyph glyph-name="Adieresis" unicode="&#xc4;" horiz-adv-x="1325" 
d="M1260 0h-158q-91 290 -129 403h-631q-75 -222 -129 -403h-147q243 768 522 1430h135q266 -620 537 -1430zM930 516q-77 220 -281 760l-2 -4q-183 -497 -272 -756h555zM956 1649q0 -36 -26 -62t-62 -26q-35 0 -61.5 26.5t-26.5 61.5q0 37 26.5 63.5t61.5 26.5
q37 0 62.5 -26.5t25.5 -63.5zM514 1649q0 -36 -26 -62t-62 -26q-35 0 -61.5 26.5t-26.5 61.5q0 37 26.5 63.5t61.5 26.5q37 0 62.5 -26.5t25.5 -63.5z" />
    <glyph glyph-name="Aring" unicode="&#xc5;" horiz-adv-x="1325" 
d="M854 1546q0 -58 -28 -104.5t-78 -71.5q245 -574 512 -1370h-158q-91 290 -129 403h-631q-75 -222 -129 -403h-147q228 723 495 1368q-96 45 -96 170q0 85 53 139t146 54q88 0 139 -50.5t51 -134.5zM930 516q-77 220 -281 760l-2 -4q-183 -497 -272 -756h555zM764 1538
q0 50 -26.5 82.5t-78.5 32.5q-49 0 -76.5 -30t-27.5 -77q0 -55 26 -86t81 -30q48 -1 76 30t26 78z" />
    <glyph glyph-name="AE" unicode="&#xc6;" horiz-adv-x="1777" 
d="M1628 0h-756v350h-563q-132 -258 -178 -350h-137q359 704 823 1430h785v-121h-594v-504h536v-121h-536v-563h620v-121zM872 463v844h-6q-193 -313 -485 -844h491z" />
    <glyph glyph-name="Ccedilla" unicode="&#xc7;" horiz-adv-x="1214" 
d="M922 -217q0 -46 -50.5 -78.5t-164.5 -32.5q-108 0 -185 23v86h205q66 0 66 26q0 21 -13 50l-59 131q-274 18 -435 203.5t-161 506.5q0 339 177.5 542.5t471.5 203.5q106 0 191.5 -17t181.5 -61l-49 -111q-158 68 -336 68q-222 0 -356 -167.5t-134 -442.5
q0 -289 139.5 -446.5t383.5 -157.5q158 0 321 71l39 -110q-152 -68 -315 -80l49 -101q33 -65 33 -106z" />
    <glyph glyph-name="Egrave" unicode="&#xc8;" horiz-adv-x="1114" 
d="M965 0h-756v1430h745v-121h-610v-504h537v-121h-537v-563h621v-121zM690 1632l-63 -88l-353 174l78 113z" />
    <glyph glyph-name="Eacute" unicode="&#xc9;" horiz-adv-x="1114" 
d="M965 0h-756v1430h745v-121h-610v-504h537v-121h-537v-563h621v-121zM836 1718l-353 -174l-63 88l338 199z" />
    <glyph glyph-name="Ecircumflex" unicode="&#xca;" horiz-adv-x="1114" 
d="M965 0h-756v1430h745v-121h-610v-504h537v-121h-537v-563h621v-121zM846 1632l-64 -80l-213 138l-209 -138l-57 74l268 197z" />
    <glyph glyph-name="Edieresis" unicode="&#xcb;" horiz-adv-x="1114" 
d="M965 0h-756v1430h745v-121h-610v-504h537v-121h-537v-563h621v-121zM893 1649q0 -36 -26 -62t-62 -26q-35 0 -61.5 26.5t-26.5 61.5q0 37 26.5 63.5t61.5 26.5q37 0 62.5 -26.5t25.5 -63.5zM451 1649q0 -35 -26.5 -61.5t-62.5 -26.5q-35 0 -61.5 26.5t-26.5 61.5
q0 37 26.5 63.5t61.5 26.5q37 0 63 -26.5t26 -63.5z" />
    <glyph glyph-name="Igrave" unicode="&#xcc;" horiz-adv-x="552" 
d="M344 0h-135v1430h135v-1430zM416 1632l-64 -88l-352 174l78 113z" />
    <glyph glyph-name="Iacute" unicode="&#xcd;" horiz-adv-x="552" 
d="M344 0h-135v1430h135v-1430zM561 1718l-352 -174l-64 88l338 199z" />
    <glyph glyph-name="Icircumflex" unicode="&#xce;" horiz-adv-x="552" 
d="M344 0h-135v1430h135v-1430zM549 1632l-64 -80l-213 138l-209 -138l-57 74l268 197z" />
    <glyph glyph-name="Idieresis" unicode="&#xcf;" horiz-adv-x="552" 
d="M344 0h-135v1430h135v-1430zM553 1649q0 -36 -26 -62t-62 -26q-35 0 -61.5 26.5t-26.5 61.5q0 37 26.5 63.5t61.5 26.5q37 0 62.5 -26.5t25.5 -63.5zM176 1649q0 -36 -26 -62t-62 -26q-35 0 -61.5 26.5t-26.5 61.5q0 37 26.5 63.5t61.5 26.5q37 0 62.5 -26.5t25.5 -63.5z
" />
    <glyph glyph-name="Eth" unicode="&#xd0;" horiz-adv-x="1443" 
d="M1323 735q0 -358 -179.5 -546.5t-518.5 -188.5h-396v659h-186v115h186v656h420q324 0 499 -187.5t175 -507.5zM1176 729q0 128 -32 232t-96 182.5t-167.5 122t-239.5 43.5h-276v-535h311v-115h-311v-538h272q272 0 405.5 148t133.5 460z" />
    <glyph glyph-name="Ntilde" unicode="&#xd1;" horiz-adv-x="1435" 
d="M1227 0h-176l-707 1264h-4v-1264h-131v1430h197l686 -1225h4v1225h131v-1430zM1061 1706q-33 -70 -94.5 -111t-128.5 -41q-45 0 -83 14t-59.5 30t-51 30t-60.5 14q-38 0 -73 -27.5t-58 -76.5l-84 61q35 70 95.5 111t127.5 41q45 0 82.5 -13.5t59 -30.5t51 -30.5
t59.5 -13.5q39 0 74.5 27t58.5 75z" />
    <glyph glyph-name="Ograve" unicode="&#xd2;" horiz-adv-x="1574" 
d="M1448 729q0 -223 -74.5 -390t-227.5 -263t-368 -96q-163 0 -288.5 53.5t-204 151t-118.5 227.5t-40 288q0 221 75.5 388.5t228 264.5t364.5 97q159 0 284.5 -55t205.5 -153t121.5 -228t41.5 -285zM1300 700q0 108 -17 200t-56.5 172.5t-100 136.5t-151 88t-205.5 32
q-130 0 -228 -48t-155 -132t-85 -189.5t-28 -230.5q0 -110 17 -202t56 -172t99 -135.5t150.5 -87.5t206.5 -32q108 0 193.5 32.5t141.5 87.5t93 133t53 163.5t16 183.5zM889 1632l-64 -88l-352 174l78 113z" />
    <glyph glyph-name="Oacute" unicode="&#xd3;" horiz-adv-x="1574" 
d="M1448 729q0 -223 -74.5 -390t-227.5 -263t-368 -96q-163 0 -288.5 53.5t-204 151t-118.5 227.5t-40 288q0 221 75.5 388.5t228 264.5t364.5 97q159 0 284.5 -55t205.5 -153t121.5 -228t41.5 -285zM1300 700q0 108 -17 200t-56.5 172.5t-100 136.5t-151 88t-205.5 32
q-130 0 -228 -48t-155 -132t-85 -189.5t-28 -230.5q0 -110 17 -202t56 -172t99 -135.5t150.5 -87.5t206.5 -32q108 0 193.5 32.5t141.5 87.5t93 133t53 163.5t16 183.5zM1104 1718l-352 -174l-64 88l338 199z" />
    <glyph glyph-name="Ocircumflex" unicode="&#xd4;" horiz-adv-x="1574" 
d="M1448 729q0 -223 -74.5 -390t-227.5 -263t-368 -96q-163 0 -288.5 53.5t-204 151t-118.5 227.5t-40 288q0 221 75.5 388.5t228 264.5t364.5 97q159 0 284.5 -55t205.5 -153t121.5 -228t41.5 -285zM1300 700q0 108 -17 200t-56.5 172.5t-100 136.5t-151 88t-205.5 32
q-130 0 -228 -48t-155 -132t-85 -189.5t-28 -230.5q0 -110 17 -202t56 -172t99 -135.5t150.5 -87.5t206.5 -32q108 0 193.5 32.5t141.5 87.5t93 133t53 163.5t16 183.5zM1057 1632l-64 -80l-213 138l-209 -138l-57 74l268 197z" />
    <glyph glyph-name="Otilde" unicode="&#xd5;" horiz-adv-x="1574" 
d="M1448 729q0 -223 -74.5 -390t-227.5 -263t-368 -96q-163 0 -288.5 53.5t-204 151t-118.5 227.5t-40 288q0 221 75.5 388.5t228 264.5t364.5 97q159 0 284.5 -55t205.5 -153t121.5 -228t41.5 -285zM1300 700q0 108 -17 200t-56.5 172.5t-100 136.5t-151 88t-205.5 32
q-130 0 -228 -48t-155 -132t-85 -189.5t-28 -230.5q0 -110 17 -202t56 -172t99 -135.5t150.5 -87.5t206.5 -32q108 0 193.5 32.5t141.5 87.5t93 133t53 163.5t16 183.5zM1110 1706q-33 -70 -94.5 -111t-128.5 -41q-45 0 -83 14t-59.5 30t-51 30t-60.5 14q-38 0 -73 -27.5
t-58 -76.5l-84 61q35 70 95.5 111t127.5 41q45 0 82.5 -13.5t59 -30.5t51 -30.5t59.5 -13.5q39 0 74.5 27t58.5 75z" />
    <glyph glyph-name="Odieresis" unicode="&#xd6;" horiz-adv-x="1574" 
d="M1448 729q0 -223 -74.5 -390t-227.5 -263t-368 -96q-163 0 -288.5 53.5t-204 151t-118.5 227.5t-40 288q0 221 75.5 388.5t228 264.5t364.5 97q159 0 284.5 -55t205.5 -153t121.5 -228t41.5 -285zM1300 700q0 108 -17 200t-56.5 172.5t-100 136.5t-151 88t-205.5 32
q-130 0 -228 -48t-155 -132t-85 -189.5t-28 -230.5q0 -110 17 -202t56 -172t99 -135.5t150.5 -87.5t206.5 -32q108 0 193.5 32.5t141.5 87.5t93 133t53 163.5t16 183.5zM1092 1649q0 -36 -26 -62t-62 -26q-35 0 -62 26.5t-27 61.5q0 37 26.5 63.5t62.5 26.5q37 0 62.5 -26.5
t25.5 -63.5zM649 1649q0 -36 -26 -62t-62 -26q-35 0 -61.5 26.5t-26.5 61.5q0 37 26.5 63.5t61.5 26.5q37 0 62.5 -26.5t25.5 -63.5z" />
    <glyph glyph-name="multiply" unicode="&#xd7;" 
d="M1024 262l-90 -90l-373 373l-371 -373l-88 88l373 371l-373 373l91 90l372 -373l371 371l88 -86l-373 -371z" />
    <glyph glyph-name="Oslash" unicode="&#xd8;" horiz-adv-x="1574" 
d="M1448 729q0 -167 -43.5 -304t-126.5 -236.5t-212 -154t-292 -54.5q-168 0 -297 57l-129 -223l-100 57l129 225q-125 92 -187.5 246t-62.5 352q0 162 44.5 299.5t127.5 239.5t210.5 159.5t285.5 57.5q179 0 321 -74l103 183l100 -60l-107 -186q116 -96 176 -247.5
t60 -336.5zM1300 698q0 330 -161 488l-590 -1026q105 -51 254 -51q107 0 193 32.5t142 87t93 131t53 160t16 178.5zM1047 1255q-116 64 -277 64q-122 0 -218 -47.5t-156 -129t-91 -187t-31 -226.5q0 -347 179 -504z" />
    <glyph glyph-name="Ugrave" unicode="&#xd9;" horiz-adv-x="1433" 
d="M1229 535q0 -264 -138 -408.5t-376 -144.5q-232 0 -371 138t-139 390v920h135v-906q0 -205 100 -315.5t279 -110.5q181 0 281 108.5t100 317.5v906h129v-895zM825 1632l-63 -88l-352 174l77 113z" />
    <glyph glyph-name="Uacute" unicode="&#xda;" horiz-adv-x="1433" 
d="M1229 535q0 -264 -138 -408.5t-376 -144.5q-232 0 -371 138t-139 390v920h135v-906q0 -205 100 -315.5t279 -110.5q181 0 281 108.5t100 317.5v906h129v-895zM1059 1718l-352 -174l-64 88l338 199z" />
    <glyph glyph-name="Ucircumflex" unicode="&#xdb;" horiz-adv-x="1433" 
d="M1229 535q0 -264 -138 -408.5t-376 -144.5q-232 0 -371 138t-139 390v920h135v-906q0 -205 100 -315.5t279 -110.5q181 0 281 108.5t100 317.5v906h129v-895zM1004 1632l-64 -80l-213 138l-209 -138l-57 74l268 197z" />
    <glyph glyph-name="Udieresis" unicode="&#xdc;" horiz-adv-x="1433" 
d="M1229 535q0 -264 -138 -408.5t-376 -144.5q-232 0 -371 138t-139 390v920h135v-906q0 -205 100 -315.5t279 -110.5q181 0 281 108.5t100 317.5v906h129v-895zM1032 1649q0 -36 -26 -62t-62 -26q-35 0 -61.5 26.5t-26.5 61.5q0 37 26.5 63.5t61.5 26.5q37 0 62.5 -26.5
t25.5 -63.5zM590 1649q0 -36 -26 -62t-62 -26q-35 0 -61.5 26.5t-26.5 61.5q0 37 26.5 63.5t61.5 26.5q37 0 62.5 -26.5t25.5 -63.5z" />
    <glyph glyph-name="Yacute" unicode="&#xdd;" horiz-adv-x="1179" 
d="M1157 1430q-245 -469 -493 -812v-618h-136v618q-248 334 -505 812h163q187 -398 420 -707q208 308 379 707h172zM924 1718l-353 -174l-63 88l338 199z" />
    <glyph glyph-name="Thorn" unicode="&#xde;" horiz-adv-x="1148" 
d="M1034 766q0 -201 -125 -322.5t-340 -121.5h-225v-322h-135v1430h135v-248h197q118 0 190 -17q141 -34 222 -140t81 -259zM887 754q0 115 -55 192.5t-156 102.5q-49 12 -125 12h-207v-621h238q144 0 224.5 86t80.5 228z" />
    <glyph glyph-name="germandbls" unicode="&#xdf;" horiz-adv-x="1159" 
d="M1090 283q0 -132 -96.5 -217.5t-254.5 -85.5q-109 0 -190 32l22 115q88 -35 181 -35q97 0 148.5 49.5t51.5 124.5q0 46 -13.5 81.5t-44 64.5t-56 46.5t-70.5 43.5q-43 24 -67 38.5t-58.5 42.5t-52.5 55.5t-31.5 69t-13.5 91.5q0 53 16 95.5t41.5 71t56.5 52.5t62.5 45.5
t57 44t41.5 54.5t16 71q0 90 -59 149.5t-177 59.5q-63 0 -112.5 -20.5t-81.5 -55.5t-53 -84.5t-29.5 -103.5t-8.5 -117v-1061h-131v1030q0 114 26 208t77.5 164t133.5 109t189 39q76 0 138.5 -19.5t102 -51t66 -72t37.5 -80.5t11 -80q0 -56 -15.5 -100.5t-41 -72.5
t-56 -51.5t-60.5 -44t-55.5 -42t-41 -53t-15.5 -70.5q0 -27 5.5 -50t20 -43.5t26 -34.5t37.5 -32t39.5 -27t46.5 -28t46 -27q42 -25 71.5 -48t58.5 -57t44 -80t15 -103z" />
    <glyph glyph-name="agrave" unicode="&#xe0;" horiz-adv-x="1085" 
d="M905 0h-102l-15 111q-85 -72 -162 -103t-175 -31q-165 0 -255 78t-90 221q0 103 60 175t160 105.5t231 33.5h217v78q0 145 -60 211.5t-206 66.5q-152 0 -299 -59l-29 110q167 62 357 62q83 0 148 -19.5t105.5 -52t67 -78t37 -93t10.5 -101.5v-715zM774 217v266h-213
q-153 0 -231 -51.5t-78 -148.5q0 -92 54 -144.5t157 -52.5q89 0 159.5 32.5t151.5 98.5zM602 1282l-86 -78l-233 252l106 84z" />
    <glyph glyph-name="aacute" unicode="&#xe1;" horiz-adv-x="1085" 
d="M905 0h-102l-15 111q-85 -72 -162 -103t-175 -31q-165 0 -255 78t-90 221q0 103 60 175t160 105.5t231 33.5h217v78q0 145 -60 211.5t-206 66.5q-152 0 -299 -59l-29 110q167 62 357 62q83 0 148 -19.5t105.5 -52t67 -78t37 -93t10.5 -101.5v-715zM774 217v266h-213
q-153 0 -231 -51.5t-78 -148.5q0 -92 54 -144.5t157 -52.5q89 0 159.5 32.5t151.5 98.5zM782 1460l-250 -256l-81 66l219 270z" />
    <glyph glyph-name="acircumflex" unicode="&#xe2;" horiz-adv-x="1085" 
d="M905 0h-102l-15 111q-85 -72 -162 -103t-175 -31q-165 0 -255 78t-90 221q0 103 60 175t160 105.5t231 33.5h217v78q0 145 -60 211.5t-206 66.5q-152 0 -299 -59l-29 110q167 62 357 62q83 0 148 -19.5t105.5 -52t67 -78t37 -93t10.5 -101.5v-715zM774 217v266h-213
q-153 0 -231 -51.5t-78 -148.5q0 -92 54 -144.5t157 -52.5q89 0 159.5 32.5t151.5 98.5zM803 1280l-72 -72l-207 191l-202 -191l-62 70l268 270z" />
    <glyph glyph-name="atilde" unicode="&#xe3;" horiz-adv-x="1085" 
d="M905 0h-102l-15 111q-85 -72 -162 -103t-175 -31q-165 0 -255 78t-90 221q0 103 60 175t160 105.5t231 33.5h217v78q0 145 -60 211.5t-206 66.5q-152 0 -299 -59l-29 110q167 62 357 62q83 0 148 -19.5t105.5 -52t67 -78t37 -93t10.5 -101.5v-715zM774 217v266h-213
q-153 0 -231 -51.5t-78 -148.5q0 -92 54 -144.5t157 -52.5q89 0 159.5 32.5t151.5 98.5zM870 1427q-34 -71 -90.5 -111t-122.5 -40q-45 0 -83 14t-59.5 30t-51 30t-60.5 14q-38 0 -73 -27.5t-58 -76.5l-73 61q36 71 92 111.5t121 40.5q45 0 82.5 -14t59 -30.5t51 -30.5
t59.5 -14q39 0 74 27.5t59 75.5z" />
    <glyph glyph-name="adieresis" unicode="&#xe4;" horiz-adv-x="1085" 
d="M905 0h-102l-15 111q-85 -72 -162 -103t-175 -31q-165 0 -255 78t-90 221q0 103 60 175t160 105.5t231 33.5h217v78q0 145 -60 211.5t-206 66.5q-152 0 -299 -59l-29 110q167 62 357 62q83 0 148 -19.5t105.5 -52t67 -78t37 -93t10.5 -101.5v-715zM774 217v266h-213
q-153 0 -231 -51.5t-78 -148.5q0 -92 54 -144.5t157 -52.5q89 0 159.5 32.5t151.5 98.5zM819 1384q0 -35 -24.5 -60.5t-59.5 -25.5q-36 0 -61 25t-25 61t25 61t61 25q35 0 59.5 -25.5t24.5 -60.5zM436 1384q0 -36 -25 -61t-61 -25t-60 25t-24 61t24 61t60 25t61 -25t25 -61z
" />
    <glyph glyph-name="aring" unicode="&#xe5;" horiz-adv-x="1085" 
d="M905 0h-102l-15 111q-85 -72 -162 -103t-175 -31q-165 0 -255 78t-90 221q0 103 60 175t160 105.5t231 33.5h217v78q0 145 -60 211.5t-206 66.5q-152 0 -299 -59l-29 110q167 62 357 62q83 0 148 -19.5t105.5 -52t67 -78t37 -93t10.5 -101.5v-715zM774 217v266h-213
q-153 0 -231 -51.5t-78 -148.5q0 -92 54 -144.5t157 -52.5q89 0 159.5 32.5t151.5 98.5zM731 1364q0 -83 -55 -139t-144 -56q-94 0 -142 52t-48 135q0 85 53 138.5t146 53.5q88 0 139 -50t51 -134zM641 1356q0 50 -26 82t-78 32q-50 0 -77.5 -29.5t-27.5 -76.5
q0 -117 107 -117q49 0 75.5 31t26.5 78z" />
    <glyph glyph-name="ae" unicode="&#xe6;" horiz-adv-x="1763" 
d="M1645 604q0 -12 -1.5 -50t-1.5 -56h-735q0 -96 18 -168.5t58.5 -128t112.5 -84.5t174 -29q156 0 325 49l21 -104q-173 -56 -373 -56q-142 0 -238.5 46.5t-146.5 128.5q-111 -94 -200.5 -134.5t-206.5 -40.5q-165 0 -255 78t-90 221q0 155 126 241.5t325 86.5h217v64
q0 145 -60 211.5t-206 66.5q-152 0 -299 -59l-29 110q167 62 357 62q257 0 331 -180q122 180 371 180q100 0 178.5 -36t127.5 -99.5t74.5 -144.5t25.5 -175zM1509 604q7 160 -68.5 253t-211.5 93q-77 0 -140.5 -31t-102 -81.5t-59 -111t-20.5 -122.5h602zM774 217v281h-213
q-150 0 -229.5 -59t-79.5 -154q0 -93 55.5 -146t155.5 -53q89 0 159.5 32.5t151.5 98.5z" />
    <glyph glyph-name="ccedilla" unicode="&#xe7;" horiz-adv-x="950" 
d="M725 -217q0 -46 -50.5 -78.5t-164.5 -32.5q-107 0 -184 23v86h204q66 0 66 26q0 23 -12 50l-58 129q-214 17 -314.5 151t-100.5 365q0 257 134 403t353 146q147 0 268 -56l-35 -98q-120 47 -231 47q-175 0 -260.5 -116t-85.5 -314q0 -420 348 -420q129 0 242 45l24 -102
q-99 -40 -223 -51l47 -97q33 -65 33 -106z" />
    <glyph glyph-name="egrave" unicode="&#xe8;" horiz-adv-x="1112" 
d="M993 604q0 -7 -1 -42t-1 -52h-735q0 -207 81.5 -314.5t280.5 -107.5q157 0 326 49l21 -104q-173 -56 -373 -56q-477 0 -477 539q0 247 124.5 395t348.5 148q100 0 178.5 -36t127 -99.5t74 -144.5t25.5 -175zM858 616q6 153 -69.5 243.5t-210.5 90.5q-77 0 -140 -31
t-101.5 -80.5t-59 -107t-21.5 -115.5h602zM666 1282l-86 -78l-234 252l107 84z" />
    <glyph glyph-name="eacute" unicode="&#xe9;" horiz-adv-x="1112" 
d="M993 604q0 -7 -1 -42t-1 -52h-735q0 -207 81.5 -314.5t280.5 -107.5q157 0 326 49l21 -104q-173 -56 -373 -56q-477 0 -477 539q0 247 124.5 395t348.5 148q100 0 178.5 -36t127 -99.5t74 -144.5t25.5 -175zM858 616q6 153 -69.5 243.5t-210.5 90.5q-77 0 -140 -31
t-101.5 -80.5t-59 -107t-21.5 -115.5h602zM831 1460l-249 -256l-82 66l219 270z" />
    <glyph glyph-name="ecircumflex" unicode="&#xea;" horiz-adv-x="1112" 
d="M993 604q0 -7 -1 -42t-1 -52h-735q0 -207 81.5 -314.5t280.5 -107.5q157 0 326 49l21 -104q-173 -56 -373 -56q-477 0 -477 539q0 247 124.5 395t348.5 148q100 0 178.5 -36t127 -99.5t74 -144.5t25.5 -175zM858 616q6 153 -69.5 243.5t-210.5 90.5q-77 0 -140 -31
t-101.5 -80.5t-59 -107t-21.5 -115.5h602zM850 1280l-72 -72l-207 191l-202 -191l-62 70l268 270z" />
    <glyph glyph-name="edieresis" unicode="&#xeb;" horiz-adv-x="1112" 
d="M993 604q0 -7 -1 -42t-1 -52h-735q0 -207 81.5 -314.5t280.5 -107.5q157 0 326 49l21 -104q-173 -56 -373 -56q-477 0 -477 539q0 247 124.5 395t348.5 148q100 0 178.5 -36t127 -99.5t74 -144.5t25.5 -175zM858 616q6 153 -69.5 243.5t-210.5 90.5q-77 0 -140 -31
t-101.5 -80.5t-59 -107t-21.5 -115.5h602zM858 1384q0 -35 -24.5 -60.5t-59.5 -25.5q-36 0 -61 25t-25 61t25 61t61 25q35 0 59.5 -25.5t24.5 -60.5zM475 1384q0 -36 -25 -61t-61 -25t-60 25t-24 61t24 61t60 25t61 -25t25 -61z" />
    <glyph glyph-name="igrave" unicode="&#xec;" horiz-adv-x="548" 
d="M365 0h-132v934h-190v102h322v-1036zM319 1282l-86 -78l-233 252l106 84z" />
    <glyph glyph-name="iacute" unicode="&#xed;" horiz-adv-x="548" 
d="M365 0h-132v934h-190v102h322v-1036zM463 1460l-250 -256l-82 66l219 270z" />
    <glyph glyph-name="icircumflex" unicode="&#xee;" horiz-adv-x="548" 
d="M365 0h-132v934h-190v102h322v-1036zM543 1280l-72 -72l-207 191l-203 -191l-61 70l268 270z" />
    <glyph glyph-name="idieresis" unicode="&#xef;" horiz-adv-x="548" 
d="M365 0h-132v934h-190v102h322v-1036zM537 1384q0 -35 -24.5 -60.5t-59.5 -25.5q-36 0 -61 25t-25 61t25 61t61 25q35 0 59.5 -25.5t24.5 -60.5zM193 1384q0 -36 -24 -61t-60 -25t-61 25t-25 61t25 61t61 25t60 -25t24 -61z" />
    <glyph glyph-name="eth" unicode="&#xf0;" horiz-adv-x="1249" 
d="M1098 559q0 -280 -136 -431t-370 -151q-223 0 -347 147t-124 384q0 240 136 390.5t366 150.5q121 0 217 -52q-68 139 -166 260l-234 -92l-61 86l225 88q-84 90 -184 168l151 52q84 -67 170 -166l254 98l62 -86l-248 -96q148 -203 218.5 -395t70.5 -355zM956 547
q0 145 -53 299q-145 86 -297 86q-85 0 -152.5 -33.5t-107.5 -90.5t-61 -127.5t-21 -150.5q0 -133 34 -229t111.5 -153.5t194.5 -57.5q166 0 259 109.5t93 347.5z" />
    <glyph glyph-name="ntilde" unicode="&#xf1;" horiz-adv-x="1214" 
d="M1034 0h-131v621q0 325 -235 325q-102 0 -176.5 -46t-176.5 -155v-745h-131v1036h103l22 -166q95 102 178.5 145.5t194.5 43.5q97 0 167.5 -33.5t109.5 -93t57 -130.5t18 -157v-645zM940 1427q-34 -71 -90.5 -111t-122.5 -40q-45 0 -83 14t-59.5 30t-51 30t-60.5 14
q-38 0 -73 -27.5t-58 -76.5l-74 61q36 71 92 111.5t121 40.5q45 0 82.5 -14t59 -30.5t51 -30.5t59.5 -14q39 0 74 27.5t59 75.5z" />
    <glyph glyph-name="ograve" unicode="&#xf2;" horiz-adv-x="1236" 
d="M1126 532q0 -153 -63.5 -278.5t-183 -201t-273.5 -75.5q-125 0 -221 41t-155 114t-89 168t-30 208q0 159 60 282.5t178.5 196t279.5 72.5q229 0 363 -145t134 -382zM983 504q0 89 -21 166.5t-63 141t-114 100t-167 36.5q-176 0 -270 -115.5t-94 -302.5q0 -97 20 -174.5
t63 -138.5t116.5 -94t173.5 -33q169 0 262.5 118.5t93.5 295.5zM705 1282l-87 -78l-233 252l107 84z" />
    <glyph glyph-name="oacute" unicode="&#xf3;" horiz-adv-x="1236" 
d="M1126 532q0 -153 -63.5 -278.5t-183 -201t-273.5 -75.5q-125 0 -221 41t-155 114t-89 168t-30 208q0 159 60 282.5t178.5 196t279.5 72.5q229 0 363 -145t134 -382zM983 504q0 89 -21 166.5t-63 141t-114 100t-167 36.5q-176 0 -270 -115.5t-94 -302.5q0 -97 20 -174.5
t63 -138.5t116.5 -94t173.5 -33q169 0 262.5 118.5t93.5 295.5zM866 1460l-250 -256l-81 66l219 270z" />
    <glyph glyph-name="ocircumflex" unicode="&#xf4;" horiz-adv-x="1236" 
d="M1126 532q0 -153 -63.5 -278.5t-183 -201t-273.5 -75.5q-125 0 -221 41t-155 114t-89 168t-30 208q0 159 60 282.5t178.5 196t279.5 72.5q229 0 363 -145t134 -382zM983 504q0 89 -21 166.5t-63 141t-114 100t-167 36.5q-176 0 -270 -115.5t-94 -302.5q0 -97 20 -174.5
t63 -138.5t116.5 -94t173.5 -33q169 0 262.5 118.5t93.5 295.5zM893 1280l-72 -72l-207 191l-202 -191l-62 70l268 270z" />
    <glyph glyph-name="otilde" unicode="&#xf5;" horiz-adv-x="1236" 
d="M1126 532q0 -153 -63.5 -278.5t-183 -201t-273.5 -75.5q-125 0 -221 41t-155 114t-89 168t-30 208q0 159 60 282.5t178.5 196t279.5 72.5q229 0 363 -145t134 -382zM983 504q0 89 -21 166.5t-63 141t-114 100t-167 36.5q-176 0 -270 -115.5t-94 -302.5q0 -97 20 -174.5
t63 -138.5t116.5 -94t173.5 -33q169 0 262.5 118.5t93.5 295.5zM958 1427q-34 -71 -90.5 -111t-122.5 -40q-45 0 -83 14t-59 30t-50.5 30t-60.5 14q-39 0 -74 -27.5t-58 -76.5l-73 61q36 71 92 111.5t121 40.5q45 0 82.5 -14t59 -30.5t51 -30.5t59.5 -14q39 0 74 27.5
t59 75.5z" />
    <glyph glyph-name="odieresis" unicode="&#xf6;" horiz-adv-x="1236" 
d="M1126 532q0 -153 -63.5 -278.5t-183 -201t-273.5 -75.5q-125 0 -221 41t-155 114t-89 168t-30 208q0 159 60 282.5t178.5 196t279.5 72.5q229 0 363 -145t134 -382zM983 504q0 89 -21 166.5t-63 141t-114 100t-167 36.5q-176 0 -270 -115.5t-94 -302.5q0 -97 20 -174.5
t63 -138.5t116.5 -94t173.5 -33q169 0 262.5 118.5t93.5 295.5zM899 1384q0 -35 -24.5 -60.5t-59.5 -25.5q-36 0 -61 25t-25 61t25 61t61 25q35 0 59.5 -25.5t24.5 -60.5zM516 1384q0 -36 -25 -61t-61 -25t-60 25t-24 61t24 61t60 25t61 -25t25 -61z" />
    <glyph glyph-name="divide" unicode="&#xf7;" 
d="M670 1038q0 -50 -34 -84t-83 -34t-83 34t-34 84q0 48 34 82.5t83 34.5t83 -34.5t34 -82.5zM1034 573h-962v125h962v-125zM670 236q0 -50 -34 -84.5t-83 -34.5t-83 34.5t-34 84.5q0 48 34 82t83 34t83 -34t34 -82z" />
    <glyph glyph-name="oslash" unicode="&#xf8;" horiz-adv-x="1236" 
d="M1126 535q0 -153 -63.5 -278.5t-183 -201t-273.5 -75.5q-128 0 -221 40l-119 -202l-84 45l121 205q-96 69 -144 183.5t-48 258.5q0 159 60 282t178.5 195t279.5 72q129 0 229 -47l127 217l84 -45l-129 -221q90 -68 138 -178.5t48 -249.5zM983 506q0 223 -113 342
l-421 -721q75 -35 178 -35q169 0 262.5 118.5t93.5 295.5zM795 907q-71 41 -177 41q-176 0 -270 -114.5t-94 -301.5q0 -239 117 -350z" />
    <glyph glyph-name="ugrave" unicode="&#xf9;" horiz-adv-x="1214" 
d="M1030 0h-102l-23 166q-95 -102 -178.5 -145.5t-194.5 -43.5q-97 0 -167.5 33.5t-109.5 93t-57 130.5t-18 157v645h131v-620q0 -326 236 -326q102 0 176 46t176 155v745h131v-1036zM682 1282l-86 -78l-234 252l107 84z" />
    <glyph glyph-name="uacute" unicode="&#xfa;" horiz-adv-x="1214" 
d="M1030 0h-102l-23 166q-95 -102 -178.5 -145.5t-194.5 -43.5q-97 0 -167.5 33.5t-109.5 93t-57 130.5t-18 157v645h131v-620q0 -326 236 -326q102 0 176 46t176 155v745h131v-1036zM864 1460l-250 -256l-82 66l220 270z" />
    <glyph glyph-name="ucircumflex" unicode="&#xfb;" horiz-adv-x="1214" 
d="M1030 0h-102l-23 166q-95 -102 -178.5 -145.5t-194.5 -43.5q-97 0 -167.5 33.5t-109.5 93t-57 130.5t-18 157v645h131v-620q0 -326 236 -326q102 0 176 46t176 155v745h131v-1036zM868 1280l-71 -72l-207 191l-203 -191l-61 70l268 270z" />
    <glyph glyph-name="udieresis" unicode="&#xfc;" horiz-adv-x="1214" 
d="M1030 0h-102l-23 166q-95 -102 -178.5 -145.5t-194.5 -43.5q-97 0 -167.5 33.5t-109.5 93t-57 130.5t-18 157v645h131v-620q0 -326 236 -326q102 0 176 46t176 155v745h131v-1036zM874 1384q0 -36 -24 -61t-59 -25q-36 0 -61 25t-25 61t25 61t61 25q35 0 59 -25t24 -61z
M492 1384q0 -36 -25 -61t-61 -25t-60 25t-24 61t24 61t60 25t61 -25t25 -61z" />
    <glyph glyph-name="yacute" unicode="&#xfd;" horiz-adv-x="999" 
d="M942 1036q-190 -679 -362 -1036q-121 -257 -208 -355t-192 -98q-36 0 -114 19l6 98h104q60 0 124 73.5t159 262.5q-274 632 -389 1036h141q100 -351 313 -891h4q180 452 287 891h127zM778 1460l-250 -256l-82 66l220 270z" />
    <glyph glyph-name="thorn" unicode="&#xfe;" horiz-adv-x="1206" 
d="M1092 553q0 -115 -31 -214.5t-92 -178.5t-162 -124.5t-232 -45.5t-260 24v-444h-131v1966h131v-657q81 87 170 133.5t213 46.5q80 0 146 -26.5t111.5 -72.5t76.5 -110.5t45.5 -138.5t14.5 -158zM950 547q0 76 -14 144t-44 128t-85 95.5t-129 35.5q-98 0 -183.5 -51
t-179.5 -164v-596q126 -47 273 -47q180 0 271 119t91 336z" />
    <glyph glyph-name="ydieresis" unicode="&#xff;" horiz-adv-x="999" 
d="M942 1036q-190 -679 -362 -1036q-121 -257 -208 -355t-192 -98q-36 0 -114 19l6 98h104q60 0 124 73.5t159 262.5q-274 632 -389 1036h141q100 -351 313 -891h4q180 452 287 891h127zM799 1384q0 -35 -24.5 -60.5t-59.5 -25.5q-36 0 -61 25t-25 61t25 61t61 25
q35 0 59.5 -25.5t24.5 -60.5zM416 1384q0 -36 -25 -61t-61 -25t-60 25t-24 61t24 61t60 25t61 -25t25 -61z" />
    <glyph glyph-name="Lslash" unicode="&#x141;" horiz-adv-x="968" 
d="M938 0h-709v772l-163 -102l-41 96l204 127v537h136v-453l272 170l41 -96l-313 -195v-735h573v-121z" />
    <glyph glyph-name="lslash" unicode="&#x142;" horiz-adv-x="581" 
d="M516 1112l-180 -113v-778q0 -58 20 -88.5t70 -30.5h88v-102q-42 -10 -98 -10q-211 0 -211 200v728l-139 -89l-41 97l180 112v498h131v-416l139 88z" />
    <glyph glyph-name="OE" unicode="&#x152;" horiz-adv-x="1904" 
d="M1755 0h-768q-126 -18 -211 -18q-213 0 -360.5 90.5t-218 250t-70.5 377.5q0 165 43.5 301.5t126 236.5t210.5 155t290 55q86 0 174 -18h774v-121h-610v-504h536v-121h-536v-563h620v-121zM999 133v1157q-107 39 -227 39q-105 0 -189.5 -31.5t-141.5 -86.5t-95 -132
t-55 -164t-17 -186q0 -139 28 -249.5t89 -197.5t166 -134.5t250 -47.5q91 0 192 33z" />
    <glyph glyph-name="oe" unicode="&#x153;" horiz-adv-x="1980" 
d="M1862 604q0 -7 -1 -42t-1 -52h-736q0 -207 82 -314.5t281 -107.5q156 0 325 49l21 -104q-173 -56 -373 -56q-162 0 -262.5 57t-159.5 177q-70 -110 -182 -172t-250 -62q-125 0 -221 41t-155 114t-89 168t-30 208q0 159 60 282.5t178.5 196t279.5 72.5q146 0 255.5 -61
t170.5 -171q54 108 155 170t246 62q100 0 178.5 -36t127.5 -99.5t74.5 -144.5t25.5 -175zM1726 616q6 153 -69.5 243.5t-210.5 90.5q-77 0 -140 -31t-101.5 -80.5t-59 -107t-21.5 -115.5h602zM983 506q0 89 -21 166t-63 140t-114 99.5t-167 36.5q-176 0 -270 -115.5
t-94 -302.5q0 -97 20 -174.5t63 -138.5t116.5 -94t173.5 -33q114 0 196 58t121 150.5t39 207.5z" />
    <glyph glyph-name="Scaron" unicode="&#x160;" horiz-adv-x="995" 
d="M895 387q0 -189 -131.5 -298t-351.5 -109q-156 0 -301 40l24 130q162 -48 311 -48q137 0 218 72.5t81 200.5q0 30 -5.5 56.5t-19 49.5t-26 41.5t-37 38t-41 32t-49 30.5t-50 27t-55.5 28q-11 5 -16 8q-78 39 -130 72.5t-99 80.5t-69.5 107t-22.5 135q0 165 118 267
t312 102q61 0 133.5 -10t116.5 -27l-27 -117q-116 33 -237 33q-134 0 -202.5 -65t-68.5 -168q0 -35 9.5 -66.5t20.5 -54.5t38 -48.5t43 -39t56.5 -37t57 -32t64.5 -32.5q66 -33 111.5 -59.5t91 -63t72.5 -75t44 -89.5t17 -112zM768 1749l-268 -197l-275 191l64 80l213 -137
l209 137z" />
    <glyph glyph-name="scaron" unicode="&#x161;" horiz-adv-x="874" 
d="M772 289q0 -145 -106 -228.5t-283 -83.5q-132 0 -266 43l22 119q136 -47 269 -47q102 0 164.5 46.5t62.5 137.5q0 69 -52 109.5t-175 85.5q-139 49 -207 112t-68 173q0 139 95 221t261 82q114 0 220 -39l-21 -109q-104 37 -215 37q-101 0 -152 -53.5t-51 -124.5t52 -112
t180 -87q65 -23 109 -45t83.5 -54.5t58.5 -78t19 -104.5zM713 1487l-273 -277l-274 273l72 73l208 -192l203 192z" />
    <glyph glyph-name="Ydieresis" unicode="&#x178;" horiz-adv-x="1179" 
d="M1157 1430q-245 -469 -493 -812v-618h-136v618q-248 334 -505 812h163q187 -398 420 -707q208 308 379 707h172zM897 1649q0 -36 -26 -62t-62 -26q-35 0 -61.5 26.5t-26.5 61.5q0 37 26.5 63.5t61.5 26.5q37 0 62.5 -26.5t25.5 -63.5zM455 1649q0 -36 -26 -62t-62 -26
q-35 0 -61.5 26.5t-26.5 61.5q0 37 26.5 63.5t61.5 26.5q37 0 62.5 -26.5t25.5 -63.5z" />
    <glyph glyph-name="Zcaron" unicode="&#x17d;" horiz-adv-x="1048" 
d="M979 0h-909v121l761 1194h-739v115h877v-132l-764 -1181h774v-117zM813 1749l-268 -197l-275 191l64 80l213 -137l209 137z" />
    <glyph glyph-name="zcaron" unicode="&#x17e;" horiz-adv-x="968" 
d="M879 0h-764v115l585 809h-553v112h695v-112l-590 -811h627v-113zM768 1487l-272 -277l-275 273l72 73l209 -192l203 192z" />
    <glyph glyph-name="florin" unicode="&#x192;" 
d="M1032 1444l-10 -103h-107q-63 0 -109.5 -16.5t-73.5 -42t-45 -68t-26 -81t-14 -95.5l-29 -252h334v-102h-342l-49 -487q-6 -58 -12 -98.5t-20 -92t-33.5 -86.5t-52.5 -71t-76 -58t-105 -35.5t-139 -13.5q-28 0 -84 6l8 107h107q78 0 130.5 22t80.5 66.5t40 91t19 117.5
l53 532h-291v102h301l25 218q7 57 13.5 97.5t20.5 91t32.5 85t49 70t70 56.5t96 34.5t126.5 13.5q30 0 112 -8z" />
    <glyph glyph-name="circumflex" unicode="&#x2c6;" horiz-adv-x="716" 
d="M543 1280l-72 -72l-207 191l-203 -191l-61 70l268 270z" />
    <glyph glyph-name="caron" unicode="&#x2c7;" horiz-adv-x="716" 
d="M547 1487l-273 -277l-274 273l72 73l209 -192l202 192z" />
    <glyph glyph-name="breve" unicode="&#x2d8;" horiz-adv-x="528" 
d="M528 1536q0 -44 -6 -83t-24 -80t-46.5 -70t-77 -47.5t-112.5 -18.5q-262 0 -262 299h100q0 -83 42.5 -139t123.5 -56q78 0 120 50.5t42 144.5h100z" />
    <glyph glyph-name="dotaccent" unicode="&#x2d9;" horiz-adv-x="552" 
d="M379 1378q0 -43 -30 -72.5t-73 -29.5t-72.5 29.5t-29.5 72.5t29.5 73t72.5 30t73 -30t30 -73z" />
    <glyph glyph-name="ring" unicode="&#x2da;" horiz-adv-x="512" 
d="M389 1364q0 -83 -55 -139t-144 -56q-94 0 -142 52t-48 135q0 85 53 138.5t146 53.5q88 0 139 -50t51 -134zM299 1356q0 50 -26 82t-78 32q-50 0 -77.5 -29.5t-27.5 -76.5q0 -117 107 -117q49 0 75.5 31t26.5 78z" />
    <glyph glyph-name="ogonek" unicode="&#x2db;" horiz-adv-x="569" 
d="M475 -305l17 -88q-85 -29 -154 -29q-211 0 -211 168q0 62 40 129t112 125h114q-143 -123 -143 -231q0 -51 24.5 -74t87.5 -23q49 0 113 23z" />
    <glyph glyph-name="tilde" unicode="&#x2dc;" horiz-adv-x="819" 
d="M672 1427q-34 -71 -90.5 -111t-122.5 -40q-45 0 -83 14t-59.5 30t-51 30t-60.5 14q-38 0 -73 -27.5t-58 -76.5l-74 61q36 71 92 111.5t121 40.5q45 0 82.5 -14t59 -30.5t51 -30.5t59.5 -14q39 0 74 27.5t59 75.5z" />
    <glyph glyph-name="hungarumlaut" unicode="&#x2dd;" horiz-adv-x="737" 
d="M721 1456l-246 -252l-84 76l217 260zM330 1456l-246 -252l-84 76l215 260z" />
    <glyph glyph-name="uni0312" unicode="&#x312;" horiz-adv-x="925" 
d="M741 1489v-78q-69 0 -114 -11t-66.5 -30.5t-32.5 -38.5t-22 -43.5t-25 -38.5q-30 -30 -65 -30q-34 0 -58 22t-24 57q0 84 106 137.5t267 53.5h34z" />
    <glyph glyph-name="uni0315" unicode="&#x315;" horiz-adv-x="716" 
d="M551 1528l-137 -369l-107 19l109 378z" />
    <glyph glyph-name="uni0326" unicode="&#x326;" horiz-adv-x="925" 
d="M129 -436v78q69 0 114 11t66.5 30t32.5 38t22 43.5t25 38.5q31 31 66 31q34 0 58 -22.5t24 -57.5q0 -84 -106 -137t-267 -53h-35z" />
    <glyph glyph-name="Delta" unicode="&#x394;" horiz-adv-x="1490" 
d="M1382 0h-1273l573 1430h113zM1198 125l-465 1151l-450 -1151h915z" />
    <glyph glyph-name="Delta" unicode="&#x2206;" horiz-adv-x="1490" 
d="M1382 0h-1273l573 1430h113zM1198 125l-465 1151l-450 -1151h915z" />
    <glyph glyph-name="Omega" unicode="&#x3a9;" horiz-adv-x="1564" 
d="M1466 0h-546v117q166 92 259 261t93 388q0 123 -28 224t-85 179.5t-151.5 122t-219.5 43.5q-161 0 -273.5 -75t-165 -201t-52.5 -293q0 -451 348 -649v-117h-547v117h389q-132 82 -224.5 258t-92.5 393q0 197 74 350.5t217 241.5t334 88q278 0 443 -171.5t165 -488.5
q0 -202 -96.5 -394.5t-237.5 -276.5h397v-117z" />
    <glyph glyph-name="Omega" unicode="&#x2126;" horiz-adv-x="1564" 
d="M1466 0h-546v117q166 92 259 261t93 388q0 123 -28 224t-85 179.5t-151.5 122t-219.5 43.5q-161 0 -273.5 -75t-165 -201t-52.5 -293q0 -451 348 -649v-117h-547v117h389q-132 82 -224.5 258t-92.5 393q0 197 74 350.5t217 241.5t334 88q278 0 443 -171.5t165 -488.5
q0 -202 -96.5 -394.5t-237.5 -276.5h397v-117z" />
    <glyph glyph-name="pi" unicode="&#x3c0;" horiz-adv-x="1247" 
d="M1114 0q-36 -12 -137 -12q-110 0 -165.5 71.5t-55.5 221.5v653h-402v-934h-129v934h-174v102h1063v-102h-229v-645q0 -110 31 -155.5t124 -45.5h74v-88z" />
    <glyph glyph-name="endash" unicode="&#x2013;" 
d="M1126 561h-1126v123h1126v-123z" />
    <glyph glyph-name="emdash" unicode="&#x2014;" horiz-adv-x="2048" 
d="M1864 561h-1680v125h1680v-125z" />
    <glyph glyph-name="quoteleft" unicode="&#x2018;" horiz-adv-x="552" 
d="M479 1487q-131 -160 -131 -246q0 -27 18.5 -64t18.5 -61q0 -49 -29.5 -82t-83.5 -33q-56 0 -87 53q-49 83 18 223q60 126 205 269z" />
    <glyph glyph-name="quoteright" unicode="&#x2019;" horiz-adv-x="552" 
d="M279 1479q56 0 87 -53q49 -83 -18 -223q-60 -126 -205 -269l-71 59q131 160 131 246q0 27 -18.5 64t-18.5 61q0 49 29.5 82t83.5 33z" />
    <glyph glyph-name="quotesinglbase" unicode="&#x201a;" horiz-adv-x="552" 
d="M279 217q56 0 87 -53q49 -83 -18 -223q-60 -125 -205 -269l-71 60q131 160 131 245q0 27 -18.5 64t-18.5 61q0 49 29.5 82t83.5 33z" />
    <glyph glyph-name="quotedblleft" unicode="&#x201c;" horiz-adv-x="925" 
d="M846 1477q-61 -74 -92 -129t-33 -88t5 -54.5t18.5 -45t11.5 -42.5q0 -48 -29 -80t-82 -32q-56 0 -86 51q-48 82 18 219q59 122 199 260zM475 1485q-62 -76 -93.5 -132.5t-34.5 -90.5t4 -56t18.5 -45.5t11.5 -42.5q0 -48 -29 -80t-82 -32q-56 0 -86 52q-48 83 20 224
q58 121 199 262z" />
    <glyph glyph-name="quotedblright" unicode="&#x201d;" horiz-adv-x="925" 
d="M653 1479q56 0 86 -52q48 -83 -19 -224q-60 -123 -200 -263l-71 59q62 76 93.5 132.5t34.5 90.5t-4 56t-18.5 45.5t-11.5 42.5q0 49 28.5 81t81.5 32zM279 1479q55 0 86 -52q47 -81 -18 -218q-58 -122 -200 -261l-69 60q61 74 91.5 129t33 88t-4.5 54t-18.5 44.5
t-11.5 42.5q0 48 29 80.5t82 32.5z" />
    <glyph glyph-name="quotedblbase" unicode="&#x201e;" horiz-adv-x="925" 
d="M653 215q56 0 86 -52q48 -83 -19 -224q-59 -122 -200 -263l-71 60q62 76 93.5 132.5t34.5 90.5t-4 55.5t-18.5 45t-11.5 42.5q0 49 28.5 81t81.5 32zM279 215q56 0 86 -51q48 -83 -19 -220q-58 -121 -199 -259l-69 59q61 74 91.5 129t33 88t-4.5 54t-18.5 44.5
t-11.5 42.5q0 48 29 80.5t82 32.5z" />
    <glyph glyph-name="dagger" unicode="&#x2020;" 
d="M977 1059h-365l25 -281q0 -186 -41 -559h-68q-2 22 -8 86t-8.5 88.5t-7 77.5t-6.5 82.5t-4.5 72.5t-3.5 79.5t-1 72.5l29 281h-368v94h368q-19 178 -29 383h148q-6 -178 -25 -383h365v-94z" />
    <glyph glyph-name="daggerdbl" unicode="&#x2021;" 
d="M977 383h-367q19 -205 25 -383h-148q10 205 29 383h-366v94h366q-27 118 -27 295q0 162 25 287h-364v94h366q-19 178 -29 383h148q-6 -178 -25 -383h367v-94h-365q25 -125 25 -287q0 -177 -27 -295h367v-94z" />
    <glyph glyph-name="bullet" unicode="&#x2022;" 
d="M887 711q0 -133 -95.5 -228.5t-228.5 -95.5t-228 95t-95 229q0 133 95 228t228 95q134 0 229 -95t95 -228z" />
    <glyph glyph-name="ellipsis" unicode="&#x2026;" horiz-adv-x="1552" 
d="M1382 96q0 -49 -34.5 -84t-81.5 -35q-49 0 -83 34.5t-34 84.5q0 48 34 82.5t83 34.5q47 0 81.5 -35t34.5 -82zM893 96q0 -50 -34 -84.5t-83 -34.5t-83 34.5t-34 84.5q0 48 34 82.5t83 34.5t83 -34.5t34 -82.5zM403 96q0 -50 -33.5 -84.5t-82.5 -34.5q-48 0 -82.5 35
t-34.5 84q0 47 35 82t82 35q49 0 82.5 -34.5t33.5 -82.5z" />
    <glyph glyph-name="perthousand" unicode="&#x2030;" horiz-adv-x="2406" 
d="M2304 362q0 -185 -78.5 -283.5t-236.5 -98.5q-85 0 -145 27t-94 79t-49 119t-15 157q0 185 78.5 285.5t234.5 100.5q162 0 233.5 -99t71.5 -287zM1559 362q0 -185 -78.5 -283.5t-237.5 -98.5q-85 0 -145 27t-94 79t-49 119t-15 157q0 185 78.5 285.5t234.5 100.5
q162 0 234 -99t72 -287zM1380 1430l-1013 -1487l-95 57l1014 1489zM721 1067q0 -185 -78.5 -284t-236.5 -99q-85 0 -145.5 27t-94.5 79.5t-49 119.5t-15 157q0 185 79 285t235 100q162 0 233.5 -98.5t71.5 -286.5zM2173 362q0 80 -12 134.5t-36.5 85.5t-56 44t-75.5 13
q-97 0 -136.5 -70.5t-39.5 -206.5q0 -146 42.5 -210t137.5 -64q52 0 88 21.5t54.5 61.5t26 85.5t7.5 105.5zM1427 362q0 80 -12 134.5t-36.5 85.5t-56 44t-75.5 13q-97 0 -136.5 -70.5t-39.5 -206.5q0 -146 42.5 -210t137.5 -64q52 0 88 21.5t54.5 61.5t26 85.5t7.5 105.5z
M590 1067q0 154 -45 215t-135 61q-97 0 -137 -70.5t-40 -205.5q0 -146 43 -210t138 -64q52 0 88 21.5t54.5 61.5t26 85.5t7.5 105.5z" />
    <glyph glyph-name="guilsinglleft" unicode="&#x2039;" horiz-adv-x="759" 
d="M526 166l-104 -49l-289 456l289 457l104 -49l-243 -408z" />
    <glyph glyph-name="guilsinglright" unicode="&#x203a;" horiz-adv-x="759" 
d="M627 573l-289 -456l-105 49l244 407l-244 408l105 49z" />
    <glyph glyph-name="fraction" unicode="&#x2044;" horiz-adv-x="737" 
d="M928 1430l-1014 -1487l-94 57l1014 1489z" />
    <glyph glyph-name="fraction" unicode="&#x2215;" horiz-adv-x="737" 
d="M928 1430l-1014 -1487l-94 57l1014 1489z" />
    <glyph glyph-name="zerosuperior" unicode="&#x2070;" horiz-adv-x="757" 
d="M709 1073q0 -184 -81 -281.5t-233 -97.5q-305 0 -305 377q0 184 80.5 281.5t232.5 97.5q306 0 306 -377zM584 1073q0 281 -187 281q-182 0 -182 -283q0 -280 186 -280q183 0 183 282z" />
    <glyph glyph-name="foursuperior" unicode="&#x2074;" horiz-adv-x="757" 
d="M705 864h-148v-149h-123v149h-393v84l332 482h184v-469h148v-97zM434 961v378h-2l-260 -378h262z" />
    <glyph glyph-name="fivesuperior" unicode="&#x2075;" horiz-adv-x="757" 
d="M264 1139q40 4 111 4q119 0 192.5 -58.5t73.5 -148.5q0 -116 -88 -179t-240 -63q-95 0 -186 25v88q90 -16 174 -16q106 0 160.5 36t54.5 105q0 55 -48 85t-140 30q-101 0 -174 -13l12 396h430v-101h-324z" />
    <glyph glyph-name="sixsuperior" unicode="&#x2076;" horiz-adv-x="757" 
d="M645 944q0 -114 -71 -182t-197 -68q-277 0 -277 367q0 188 87.5 288.5t242.5 100.5q99 0 191 -39l-31 -90q-82 35 -168 35q-87 0 -140.5 -60t-56.5 -180q84 41 168 41q112 0 182 -58t70 -155zM522 940q0 57 -38.5 90t-110.5 33q-71 0 -148 -45q0 -124 40.5 -177
t117.5 -53q61 0 100 40.5t39 111.5z" />
    <glyph glyph-name="sevensuperior" unicode="&#x2077;" horiz-adv-x="757" 
d="M600 1331l-211 -436q-59 -120 -117 -201l-96 39q52 88 121 230l170 366h-410v101h543v-99z" />
    <glyph glyph-name="eightsuperior" unicode="&#x2078;" horiz-adv-x="757" 
d="M647 901q0 -96 -76 -151.5t-196 -55.5q-122 0 -194 52.5t-72 148.5q0 60 44 108.5t117 81.5q-147 60 -147 185q0 79 68.5 129.5t187.5 50.5q117 0 183.5 -44.5t66.5 -125.5q0 -119 -148 -188q166 -57 166 -191zM504 1257q0 44 -33.5 72.5t-93.5 28.5q-61 0 -95 -27
t-34 -71q0 -75 137 -127q119 49 119 124zM522 905q0 45 -36 76t-119 59q-134 -53 -134 -139q0 -52 42 -82.5t102 -30.5q61 0 103 31t42 86z" />
    <glyph glyph-name="ninesuperior" unicode="&#x2079;" horiz-adv-x="757" 
d="M303 694q-82 0 -174 21l10 100q99 -24 170 -24q102 0 157.5 56t59.5 181q-92 -45 -170 -45q-116 0 -183 57t-67 158q0 113 72.5 182.5t194.5 69.5q278 0 278 -369q0 -189 -90.5 -288t-257.5 -99zM229 1206q0 -129 148 -129q68 0 149 47q0 126 -40 179t-115 53
q-61 0 -101.5 -39t-40.5 -111z" />
    <glyph glyph-name="minussuperior" unicode="&#x207b;" horiz-adv-x="778" 
d="M707 1057h-635v106h635v-106z" />
    <glyph glyph-name="zeroinferior" unicode="&#x2080;" horiz-adv-x="798" 
d="M709 358q0 -184 -80.5 -281t-233.5 -97q-305 0 -305 376q0 184 80.5 281.5t232.5 97.5q306 0 306 -377zM584 358q0 281 -187 281q-182 0 -182 -283q0 -280 186 -280q183 0 183 282z" />
    <glyph glyph-name="oneinferior" unicode="&#x2081;" horiz-adv-x="598" 
d="M403 0h-122v592l-183 -94l-35 84l228 135h112v-717z" />
    <glyph glyph-name="twoinferior" unicode="&#x2082;" horiz-adv-x="731" 
d="M625 0h-541v86l221 184q90 74 123 129t33 113q0 125 -156 125q-95 0 -182 -37l-23 92q100 43 222 43q133 0 198.5 -58.5t65.5 -156.5q0 -84 -44 -155.5t-182 -176.5l-110 -86h375v-102z" />
    <glyph glyph-name="threeinferior" unicode="&#x2083;" horiz-adv-x="704" 
d="M604 199q0 -78 -47.5 -129t-115 -70.5t-150.5 -19.5q-115 0 -195 18v90q62 -10 191 -10q192 0 192 117q0 74 -54 100.5t-159 26.5h-90v96h98q83 0 131 33.5t48 89.5q0 47 -35 72.5t-101 25.5q-111 0 -198 -35l-23 92q119 39 238 39q114 0 177.5 -49t63.5 -137
q0 -66 -40.5 -111.5t-112.5 -58.5q92 -6 137 -57.5t45 -122.5z" />
    <glyph glyph-name="fourinferior" unicode="&#x2084;" horiz-adv-x="757" 
d="M705 150h-148v-150h-123v150h-393v83l332 482h184v-469h148v-96zM434 246v379h-2l-260 -379h262z" />
    <glyph glyph-name="fiveinferior" unicode="&#x2085;" horiz-adv-x="720" 
d="M264 424q40 4 111 4q119 0 192.5 -58.5t73.5 -148.5q0 -116 -88 -178.5t-240 -62.5q-99 0 -186 24v88q90 -16 174 -16q106 0 160.5 36t54.5 105q0 55 -48 85t-140 30q-101 0 -174 -13l12 396h430v-101h-324z" />
    <glyph glyph-name="sixinferior" unicode="&#x2086;" horiz-adv-x="757" 
d="M645 229q0 -114 -71 -181.5t-197 -67.5q-277 0 -277 366q0 188 87.5 288.5t242.5 100.5q99 0 191 -39l-31 -90q-82 35 -168 35q-87 0 -140.5 -60t-56.5 -180q84 41 168 41q112 0 182 -58t70 -155zM522 225q0 57 -38.5 90t-110.5 33q-71 0 -148 -45q0 -124 40.5 -176.5
t117.5 -52.5q62 0 100.5 40.5t38.5 110.5z" />
    <glyph glyph-name="seveninferior" unicode="&#x2087;" horiz-adv-x="675" 
d="M600 616l-211 -436q-57 -116 -117 -200l-96 38q52 88 121 230l170 366h-410v101h543v-99z" />
    <glyph glyph-name="eightinferior" unicode="&#x2088;" horiz-adv-x="757" 
d="M647 186q0 -96 -76 -151t-196 -55q-123 0 -194.5 52t-71.5 148q0 60 44 109t117 82q-147 60 -147 184q0 79 68.5 129.5t187.5 50.5q117 0 183.5 -44.5t66.5 -125.5q0 -119 -148 -188q166 -57 166 -191zM504 543q0 44 -33.5 72t-93.5 28q-61 0 -95 -27t-34 -71
q0 -75 137 -127q119 49 119 125zM522 190q0 45 -36 76.5t-119 59.5q-134 -53 -134 -140q0 -52 42 -82t102 -30q62 0 103.5 30.5t41.5 85.5z" />
    <glyph glyph-name="nineinferior" unicode="&#x2089;" horiz-adv-x="757" 
d="M303 -20q-87 0 -174 20l10 100q99 -24 170 -24q102 0 157.5 56t59.5 181q-92 -45 -170 -45q-116 0 -183 57t-67 158q0 113 72.5 182.5t194.5 69.5q278 0 278 -368q0 -189 -90.5 -288t-257.5 -99zM229 492q0 -62 36.5 -96t111.5 -34q66 0 149 48q0 126 -40 178.5
t-115 52.5q-61 0 -101.5 -38.5t-40.5 -110.5z" />
    <glyph glyph-name="Euro" unicode="&#x20ac;" 
d="M1022 53q-117 -71 -313 -71q-414 0 -496 464h-170v103h156q-6 70 -6 149q0 75 6 148h-156v102h170q22 131 70 228.5t116.5 156t149.5 87t176 28.5q144 0 274 -72l-45 -100q-120 53 -239 53q-134 0 -227 -93.5t-130 -287.5h428v-102h-440q-6 -58 -6 -133q0 -99 8 -164h438
v-103h-421q73 -342 376 -342q137 0 240 54z" />
    <glyph glyph-name="trademark" unicode="&#x2122;" horiz-adv-x="1433" 
d="M1280 831h-104q0 171 -9 488l-166 -488h-116l-168 490q-10 -357 -10 -490h-99q0 282 25 599h158l159 -482l156 482h158q19 -318 16 -599zM524 1343h-174v-512h-96v512h-174v87h444v-87z" />
    <glyph glyph-name="onethird" unicode="&#x2153;" horiz-adv-x="1572" 
d="M367 715h-123v592l-183 -95l-34 84l227 136h113v-717zM1241 1430l-1014 -1487l-94 57l1014 1489zM1470 199q0 -78 -47.5 -129t-115 -70.5t-150.5 -19.5q-115 0 -194 18v90q62 -10 190 -10q193 0 193 117q0 74 -54 100.5t-159 26.5h-91v96h99q83 0 130.5 33.5t47.5 89.5
q0 47 -34.5 72.5t-100.5 25.5q-112 0 -199 -35l-22 92q119 39 237 39q114 0 178 -49t64 -137q0 -66 -41 -111t-113 -59q92 -6 137 -57.5t45 -122.5z" />
    <glyph glyph-name="twothirds" unicode="&#x2154;" horiz-adv-x="1748" 
d="M625 715h-541v86l221 184q90 74 123 129t33 113q0 125 -156 125q-95 0 -182 -37l-23 92q100 43 222 43q133 0 198.5 -58.5t65.5 -156.5q0 -84 -44 -155.5t-182 -176.5l-110 -86h375v-102zM1438 1430l-1014 -1487l-94 57l1013 1489zM1647 199q0 -59 -27 -103t-73 -68.5
t-99.5 -36t-114.5 -11.5q-115 0 -194 18v90q62 -10 190 -10q193 0 193 117q0 74 -54 100.5t-159 26.5h-90v96h98q83 0 130.5 33.5t47.5 89.5q0 47 -34.5 72.5t-100.5 25.5q-112 0 -199 -35l-22 92q119 39 237 39q114 0 178 -49t64 -137q0 -66 -41 -111t-113 -59
q92 -6 137.5 -57.5t45.5 -122.5z" />
    <glyph glyph-name="onefifth" unicode="&#x2155;" horiz-adv-x="1544" 
d="M367 715h-123v592l-183 -95l-34 84l227 136h113v-717zM1241 1430l-1014 -1487l-94 57l1014 1489zM1081 424q40 4 111 4q119 0 192.5 -58.5t73.5 -148.5q0 -116 -88 -178.5t-240 -62.5q-99 0 -186 24v88q90 -16 174 -16q106 0 160.5 36t54.5 105q0 55 -48 85t-140 30
q-101 0 -174 -13l12 396h430v-101h-323z" />
    <glyph glyph-name="twofifths" unicode="&#x2156;" horiz-adv-x="1740" 
d="M625 715h-541v86l221 184q90 74 123 129t33 113q0 125 -156 125q-95 0 -182 -37l-23 92q100 43 222 43q133 0 198.5 -58.5t65.5 -156.5q0 -84 -44 -155.5t-182 -176.5l-110 -86h375v-102zM1438 1430l-1014 -1487l-94 57l1013 1489zM1278 424q40 4 111 4
q119 0 192.5 -58.5t73.5 -148.5q0 -116 -88 -178.5t-240 -62.5q-99 0 -186 24v88q90 -16 174 -16q106 0 160.5 36t54.5 105q0 55 -48 85t-141 30q-101 0 -174 -13l13 396h430v-101h-324z" />
    <glyph glyph-name="threefifths" unicode="&#x2157;" horiz-adv-x="1689" 
d="M604 913q0 -78 -47.5 -129t-115 -70.5t-150.5 -19.5q-111 0 -195 19v90q62 -10 191 -10q192 0 192 116q0 74 -54 100.5t-159 26.5h-90v97h98q83 0 131 33t48 89q0 47 -35 73t-101 26q-111 0 -198 -35l-23 92q119 39 238 39q114 0 177.5 -49t63.5 -137q0 -66 -40.5 -111.5
t-112.5 -58.5q92 -6 137 -57.5t45 -123.5zM1386 1430l-1013 -1487l-94 57l1013 1489zM1227 424q40 4 110 4q119 0 193 -58.5t74 -148.5q0 -116 -88 -178.5t-240 -62.5q-99 0 -186 24v88q90 -16 174 -16q106 0 160.5 36t54.5 105q0 55 -48 85t-141 30q-101 0 -174 -13l12 396
h431v-101h-324z" />
    <glyph glyph-name="fourfifths" unicode="&#x2158;" horiz-adv-x="1769" 
d="M705 864h-148v-149h-123v149h-393v84l332 482h184v-469h148v-97zM434 961v378h-2l-260 -378h262zM1466 1430l-1013 -1487l-95 57l1014 1489zM1307 424q40 4 110 4q119 0 192.5 -58.5t73.5 -148.5q0 -116 -87.5 -178.5t-239.5 -62.5q-100 0 -187 24v88q90 -16 174 -16
q106 0 161 36t55 105q0 55 -48 85t-141 30q-101 0 -174 -13l12 396h430v-101h-323z" />
    <glyph glyph-name="onesixth" unicode="&#x2159;" horiz-adv-x="1536" 
d="M367 715h-123v592l-183 -95l-34 84l227 136h113v-717zM1241 1430l-1014 -1487l-94 57l1014 1489zM1434 229q0 -114 -71.5 -181.5t-197.5 -67.5q-276 0 -276 366q0 188 87.5 288.5t242.5 100.5q98 0 190 -39l-31 -90q-82 35 -168 35q-87 0 -140 -60t-56 -180q84 41 168 41
q112 0 182 -58t70 -155zM1311 225q0 57 -39 90t-111 33q-70 0 -147 -45q0 -124 40 -176.5t117 -52.5q62 0 101 40.5t39 110.5z" />
    <glyph glyph-name="fivesixths" unicode="&#x215a;" horiz-adv-x="1710" 
d="M264 1139q40 4 111 4q119 0 192.5 -58.5t73.5 -148.5q0 -116 -88 -179t-240 -63q-95 0 -186 25v88q90 -16 174 -16q106 0 160.5 36t54.5 105q0 55 -48 85t-140 30q-101 0 -174 -13l12 396h430v-101h-324zM1415 1430l-1014 -1487l-94 57l1014 1489zM1608 229
q0 -114 -71.5 -181.5t-197.5 -67.5q-276 0 -276 366q0 188 87.5 288.5t242.5 100.5q98 0 190 -39l-31 -90q-82 35 -168 35q-87 0 -140 -60t-56 -180q84 41 168 41q112 0 182 -58t70 -155zM1485 225q0 57 -39 90t-111 33q-70 0 -147 -45q0 -124 40.5 -176.5t117.5 -52.5
q62 0 100.5 40.5t38.5 110.5z" />
    <glyph glyph-name="oneeighth" unicode="&#x215b;" horiz-adv-x="1576" 
d="M367 715h-123v592l-183 -95l-34 84l227 136h113v-717zM1241 1430l-1014 -1487l-94 57l1014 1489zM1466 186q0 -96 -76 -151t-196 -55q-123 0 -194.5 52t-71.5 148q0 60 44.5 109t117.5 82q-148 60 -148 184q0 79 68.5 129.5t187.5 50.5q117 0 183.5 -44.5t66.5 -125.5
q0 -119 -148 -188q166 -57 166 -191zM1323 543q0 44 -33.5 72t-93.5 28q-61 0 -95 -27t-34 -71q0 -75 137 -127q119 49 119 125zM1341 190q0 45 -36 76.5t-119 59.5q-133 -52 -133 -140q0 -52 41.5 -82t101.5 -30q62 0 103.5 30.5t41.5 85.5z" />
    <glyph glyph-name="threeeights" unicode="&#x215c;" horiz-adv-x="1722" 
d="M604 913q0 -78 -47.5 -129t-115 -70.5t-150.5 -19.5q-111 0 -195 19v90q62 -10 191 -10q192 0 192 116q0 74 -54 100.5t-159 26.5h-90v97h98q83 0 131 33t48 89q0 47 -35 73t-101 26q-111 0 -198 -35l-23 92q119 39 238 39q114 0 177.5 -49t63.5 -137q0 -66 -40.5 -111.5
t-112.5 -58.5q92 -6 137 -57.5t45 -123.5zM1386 1430l-1013 -1487l-94 57l1013 1489zM1612 186q0 -96 -76.5 -151t-196.5 -55q-123 0 -194.5 52t-71.5 148q0 60 44.5 109t117.5 82q-148 60 -148 184q0 79 68.5 129.5t187.5 50.5q117 0 183.5 -44.5t66.5 -125.5
q0 -119 -147 -188q166 -57 166 -191zM1468 543q0 44 -33.5 72t-93.5 28q-61 0 -95 -27t-34 -71q0 -42 36.5 -72t101.5 -55q118 49 118 125zM1487 190q0 45 -36.5 76.5t-119.5 59.5q-133 -52 -133 -140q0 -52 41.5 -82t101.5 -30q62 0 104 30.5t42 85.5z" />
    <glyph glyph-name="fiveeights" unicode="&#x215d;" horiz-adv-x="1751" 
d="M264 1139q40 4 111 4q119 0 192.5 -58.5t73.5 -148.5q0 -116 -88 -179t-240 -63q-95 0 -186 25v88q90 -16 174 -16q106 0 160.5 36t54.5 105q0 55 -48 85t-140 30q-101 0 -174 -13l12 396h430v-101h-324zM1415 1430l-1014 -1487l-94 57l1014 1489zM1640 186
q0 -96 -76 -151t-196 -55q-123 0 -194.5 52t-71.5 148q0 60 44.5 109t117.5 82q-148 60 -148 184q0 79 68.5 129.5t187.5 50.5q117 0 183.5 -44.5t66.5 -125.5q0 -119 -147 -188q165 -57 165 -191zM1497 543q0 44 -33.5 72t-93.5 28q-61 0 -95 -27t-34 -71q0 -75 137 -127
q119 49 119 125zM1516 190q0 45 -36.5 76.5t-119.5 59.5q-133 -52 -133 -140q0 -52 41.5 -82t101.5 -30q62 0 104 30.5t42 85.5z" />
    <glyph glyph-name="seveneights" unicode="&#x215e;" horiz-adv-x="1593" 
d="M594 1331l-211 -436q-59 -120 -117 -201l-96 39q52 88 121 230l170 366h-410v101h543v-99zM1257 1430l-1013 -1487l-94 57l1013 1489zM1483 186q0 -96 -76.5 -151t-196.5 -55q-123 0 -194.5 52t-71.5 148q0 60 44.5 109t117.5 82q-148 60 -148 184q0 79 68.5 129.5
t187.5 50.5q117 0 183.5 -44.5t66.5 -125.5q0 -119 -147 -188q166 -57 166 -191zM1339 543q0 44 -33.5 72t-93.5 28q-61 0 -95 -27t-34 -71q0 -42 36.5 -72t101.5 -55q118 49 118 125zM1358 190q0 45 -36.5 76.5t-119.5 59.5q-133 -52 -133 -140q0 -52 41.5 -82t101.5 -30
q62 0 104 30.5t42 85.5z" />
    <glyph glyph-name="partialdiff" unicode="&#x2202;" horiz-adv-x="1171" 
d="M1059 680q0 -700 -486 -700q-116 0 -207 40.5t-146.5 110.5t-84.5 157.5t-29 186.5q0 266 140 426t370 160q148 0 277 -68q-40 242 -147.5 342.5t-305.5 100.5l13 116q159 0 275 -58t188.5 -171.5t107.5 -273t35 -369.5zM913 657q0 116 -6 215q-159 72 -289 72
q-90 0 -161 -36t-114.5 -100t-66 -147.5t-22.5 -181.5q0 -83 18.5 -153t56.5 -125t101.5 -86t147.5 -31q169 0 252 136.5t83 436.5z" />
    <glyph glyph-name="product" unicode="&#x220f;" horiz-adv-x="1828" 
d="M1651 1307h-246v-1737h-139v1737h-744v-1737h-139v1737h-250v123h1518v-123z" />
    <glyph glyph-name="summation" unicode="&#x2211;" horiz-adv-x="1212" 
d="M1130 -430h-1046v88l664 858l-623 823v91h975v-123h-807l606 -787l-649 -827h880v-123z" />
    <glyph glyph-name="minus" unicode="&#x2212;" 
d="M1028 573h-930v125h930v-125z" />
    <glyph glyph-name="radical" unicode="&#x221a;" 
d="M1057 1430l-404 -1430h-172l-303 915h-151v121h258l217 -686q50 -150 65 -229l2 2q10 53 52 209l290 1098h146z" />
    <glyph glyph-name="infinity" unicode="&#x221e;" horiz-adv-x="1947" 
d="M1823 719q0 -133 -93 -224.5t-247 -91.5q-113 0 -235.5 62.5t-282.5 177.5q-79 -57 -131 -90.5t-121.5 -73t-131 -58t-118.5 -18.5q-166 0 -252 87t-86 219q0 130 92 220.5t246 90.5q104 0 225 -61.5t283 -174.5q158 112 280.5 174t235.5 62q164 0 250 -85.5t86 -215.5z
M1688 711q0 99 -58 150.5t-155 51.5q-80 0 -172 -48.5t-234 -147.5q79 -54 118 -79t101 -60t109.5 -49.5t91.5 -14.5q92 0 145.5 54.5t53.5 142.5zM868 713q-63 44 -90.5 62.5t-81 51.5t-86 47t-75 26.5t-78.5 12.5q-91 0 -145 -54t-54 -140q0 -98 55 -151.5t158 -53.5
q41 0 86 14.5t101.5 47t97.5 60t112 77.5z" />
    <glyph glyph-name="integral" unicode="&#x222b;" horiz-adv-x="815" 
d="M758 1339h-94q-45 0 -79.5 -8.5t-57.5 -21.5t-39 -37t-24.5 -45t-13 -55.5t-5.5 -59.5t-1 -65v-1080q0 -103 -14 -174.5t-51 -130t-106.5 -87t-174.5 -28.5q-47 0 -98 11v102h94q39 0 70.5 5.5t53.5 18.5t38.5 26.5t27 37t16.5 42.5t9 50t3.5 53t0.5 58v1079
q0 81 8.5 141.5t31 115.5t60.5 89t100 54t146 20q50 0 99 -8v-103z" />
    <glyph glyph-name="approxequal" unicode="&#x2248;" 
d="M1036 807q-136 -119 -245 -119q-55 0 -104.5 15t-87 37t-73.5 44t-81 37t-93 15t-90 -21t-100 -70l-51 105q141 106 254 106q58 0 105 -14t80.5 -34t66.5 -40.5t77.5 -34.5t98.5 -14q34 0 64.5 9t57 27t39.5 28.5t33 29.5zM1038 424q-30 -27 -48 -41t-53.5 -37.5t-73 -35
t-77.5 -11.5q-65 0 -126.5 23t-101.5 50.5t-94.5 50.5t-107.5 23q-50 0 -92.5 -24.5t-97.5 -77.5l-47 111q123 114 250 114q56 0 104 -14.5t82.5 -34.5t68 -40.5t75.5 -35t89 -14.5q22 0 45 6t40 13t36.5 20t29.5 20.5t26 21t18 15.5z" />
    <glyph glyph-name="notequal" unicode="&#x2260;" 
d="M1008 365h-535l-166 -293l-94 47l137 246h-231v124h303l168 295h-471v125h536l166 291l92 -47l-135 -244h230v-125h-301l-164 -295h465v-124z" />
    <glyph glyph-name="lessequal" unicode="&#x2264;" 
d="M1024 233l-922 467v121l922 467v-141l-780 -389l780 -385v-140zM1024 0h-922v125h922v-125z" />
    <glyph glyph-name="greaterequal" unicode="&#x2265;" 
d="M1024 700l-922 -467v140l781 385l-781 389v141l922 -467v-121zM1024 0h-922v125h922v-125z" />
    <glyph glyph-name="diamondrhombsolid" unicode="&#x25c6;" 
d="M907 711l-344 -344l-344 344l344 344z" />
    <glyph glyph-name="diamondrhombsolid" unicode="&#xe0a5;" 
d="M907 711l-344 -344l-344 344l344 344z" />
    <glyph glyph-name="lozenge" unicode="&#x25ca;" 
d="M1026 709l-410 -709h-120l-416 721l409 709h121zM883 705l-336 587l-324 -567l336 -588z" />
    <glyph glyph-name="Eth.cap" unicode="&#xe001;" horiz-adv-x="1505" 
d="M1323 735q0 -358 -179.5 -546.5t-518.5 -188.5h-396v659h-186v115h186v656h420q324 0 499 -187.5t175 -507.5zM1176 729q0 128 -32 232t-96 182.5t-167.5 122t-239.5 43.5h-276v-535h311v-115h-311v-538h272q272 0 405.5 148t133.5 460z" />
    <glyph glyph-name="Lslash.cap" unicode="&#xe003;" horiz-adv-x="1030" 
d="M938 0h-709v772l-163 -102l-41 96l204 127v537h136v-453l272 170l41 -96l-313 -195v-735h573v-121z" />
    <glyph glyph-name="Scaron.cap" unicode="&#xe005;" horiz-adv-x="1056" 
d="M895 387q0 -189 -131.5 -298t-351.5 -109q-156 0 -301 40l24 130q162 -48 311 -48q137 0 218 72.5t81 200.5q0 30 -5.5 56.5t-19 49.5t-26 41.5t-37 38t-41 32t-49 30.5t-50 27t-55.5 28q-11 5 -16 8q-78 39 -130 72.5t-99 80.5t-69.5 107t-22.5 135q0 165 118 267
t312 102q61 0 133.5 -10t116.5 -27l-27 -117q-116 33 -237 33q-134 0 -202.5 -65t-68.5 -168q0 -35 9.5 -66.5t20.5 -54.5t38 -48.5t43 -39t56.5 -37t57 -32t64.5 -32.5q66 -33 111.5 -59.5t91 -63t72.5 -75t44 -89.5t17 -112zM768 1749l-268 -197l-275 191l64 80l213 -137
l209 137z" />
    <glyph glyph-name="Yacute.cap" unicode="&#xe007;" horiz-adv-x="1241" 
d="M1157 1430q-245 -469 -493 -812v-618h-136v618q-248 334 -505 812h163q187 -398 420 -707q208 308 379 707h172zM924 1718l-353 -174l-63 88l338 199z" />
    <glyph glyph-name="Thorn.cap" unicode="&#xe00b;" horiz-adv-x="1210" 
d="M1034 766q0 -201 -125 -322.5t-340 -121.5h-225v-322h-135v1430h135v-248h197q118 0 190 -17q141 -34 222 -140t81 -259zM887 754q0 115 -55 192.5t-156 102.5q-49 12 -125 12h-207v-621h238q144 0 224.5 86t80.5 228z" />
    <glyph glyph-name="Zcaron.cap" unicode="&#xe00e;" horiz-adv-x="1110" 
d="M979 0h-909v121l761 1194h-739v115h877v-132l-764 -1181h774v-117zM813 1749l-268 -197l-275 191l64 80l213 -137l209 137z" />
    <glyph glyph-name="circumflex.cap" unicode="&#xe013;" horiz-adv-x="921" 
d="M543 1632l-64 -80l-213 138l-209 -138l-57 74l268 197z" />
    <glyph glyph-name="tilde.cap" unicode="&#xe014;" horiz-adv-x="1024" 
d="M692 1706q-33 -70 -94.5 -111t-128.5 -41q-45 0 -83 14t-59.5 30t-51 30t-60.5 14q-38 0 -73 -27.5t-58 -76.5l-84 61q35 70 95.5 111t127.5 41q45 0 82.5 -13.5t59 -30.5t51 -30.5t59.5 -13.5q39 0 74.5 27t58.5 75z" />
    <glyph glyph-name="brokenbar.cap" unicode="&#xe01b;" 
d="M623 872h-123v785h123v-785zM623 -369h-123v799h123v-799z" />
    <glyph glyph-name="dollar.sc" unicode="&#xe024;" 
d="M983 391q0 -141 -101.5 -238t-252.5 -126v-265h-113v252q-172 0 -354 68l33 123q177 -70 342 -70q129 0 214 68t85 172q0 62 -23.5 108.5t-63 74.5t-90.5 48.5t-107.5 36.5t-113 33t-107.5 42.5t-90.5 60.5t-63 91.5t-23.5 130.5q0 127 99 225.5t263 116.5v203h113v-198
q139 -6 256 -54l-33 -116q-130 49 -274 49q-134 0 -205.5 -61t-71.5 -150q0 -56 23.5 -97.5t63 -67t90.5 -44.5t107.5 -35t113 -33.5t107.5 -45t90.5 -65t63 -98t23.5 -139.5z" />
    <glyph glyph-name="parenleft.cap" unicode="&#xe028;" horiz-adv-x="675" 
d="M526 -289l-98 -39q-264 471 -264 981q0 514 264 985l98 -39q-221 -459 -221 -942q0 -484 221 -946z" />
    <glyph glyph-name="parenright.cap" unicode="&#xe029;" horiz-adv-x="675" 
d="M512 657q0 -514 -264 -985l-98 39q221 459 221 942q0 484 -221 946l98 39q264 -471 264 -981z" />
    <glyph glyph-name="hyphen.cap" unicode="&#xe02d;" horiz-adv-x="681" 
d="M600 569h-518v113h518v-113z" />
    <glyph glyph-name="at.cap" unicode="&#xe040;" horiz-adv-x="2048" 
d="M1024 1040q-81 -208 -213 -594h434q-73 204 -221 594zM1161 1456q-139 0 -270 -60.5t-236.5 -170.5t-186 -255t-124 -323.5t-43.5 -365.5q0 -123 21 -281h-144q-18 126 -18 272q0 214 52.5 414.5t147.5 360t220 279t277.5 184.5t313.5 65q206 0 353.5 -100t221 -274.5
t73.5 -405.5q0 -386 -244 -795h-182q-66 215 -107 334h-512q-38 -112 -104 -334h-146q217 678 439 1200h135q221 -512 409 -1077h2q76 139 122 308.5t46 348.5q0 200 -58.5 351.5t-176.5 238t-281 86.5z" />
    <glyph glyph-name="A.cap" unicode="&#xe041;" horiz-adv-x="1386" 
d="M1260 0h-158q-91 290 -129 403h-631q-75 -222 -129 -403h-147q243 768 522 1430h135q266 -620 537 -1430zM930 516q-77 220 -281 760l-2 -4q-183 -497 -272 -756h555z" />
    <glyph glyph-name="B.cap" unicode="&#xe042;" horiz-adv-x="1232" 
d="M1063 410q0 -192 -123.5 -301t-325.5 -109h-405v1430h352q204 0 307 -93.5t103 -259.5q0 -105 -50 -186.5t-137 -126.5q117 -22 198 -120.5t81 -233.5zM827 1061q0 248 -284 248h-199v-512h238q245 0 245 264zM920 389q0 141 -88.5 215t-256.5 74h-231v-557h285
q123 0 207 70.5t84 197.5z" />
    <glyph glyph-name="C.cap" unicode="&#xe043;" horiz-adv-x="1275" 
d="M1155 70q-192 -84 -381 -84q-297 0 -473 187.5t-176 524.5q0 339 177.5 542.5t471.5 203.5q106 0 191.5 -17t181.5 -61l-49 -111q-158 68 -336 68q-222 0 -356 -167.5t-134 -442.5q0 -289 139.5 -446.5t383.5 -157.5q158 0 321 71z" />
    <glyph glyph-name="D.cap" unicode="&#xe044;" horiz-adv-x="1484" 
d="M1303 735q0 -358 -180 -546.5t-519 -188.5h-395v1430h420q324 0 499 -187.5t175 -507.5zM1155 729q0 128 -32 232t-95.5 182.5t-167 122t-239.5 43.5h-277v-1188h272q272 0 405.5 148t133.5 460z" />
    <glyph glyph-name="E.cap" unicode="&#xe045;" horiz-adv-x="1175" 
d="M965 0h-756v1430h745v-121h-610v-504h537v-121h-537v-563h621v-121z" />
    <glyph glyph-name="F.cap" unicode="&#xe046;" horiz-adv-x="1091" 
d="M936 1309h-592v-537h533v-121h-533v-651h-135v1430h727v-121z" />
    <glyph glyph-name="G.cap" unicode="&#xe047;" horiz-adv-x="1454" 
d="M1229 1327l-55 -115q-84 51 -184.5 80t-198.5 29q-128 0 -228.5 -46t-165 -128.5t-98 -192.5t-33.5 -241q0 -287 144 -447t391 -160q137 0 270 37v592h135v-680q-194 -73 -411 -73q-163 0 -291.5 52.5t-212 147.5t-127 226.5t-43.5 291.5q0 337 184 540.5t498 203.5
q112 0 223.5 -31t202.5 -86z" />
    <glyph glyph-name="H.cap" unicode="&#xe048;" horiz-adv-x="1462" 
d="M1192 0h-135v688h-713v-688h-135v1430h135v-621h713v621h135v-1430z" />
    <glyph glyph-name="I.cap" unicode="&#xe049;" horiz-adv-x="614" 
d="M344 0h-135v1430h135v-1430z" />
    <glyph glyph-name="J.cap" unicode="&#xe04a;" horiz-adv-x="731" 
d="M461 416q0 -46 -0.5 -76.5t-3.5 -71.5t-8.5 -68.5t-15.5 -60t-24.5 -54t-35.5 -43.5t-48.5 -34t-64 -20t-80.5 -8q-82 0 -131 12v100h78q121 0 160 59.5t39 227.5v1051h135v-1014z" />
    <glyph glyph-name="K.cap" unicode="&#xe04b;" horiz-adv-x="1275" 
d="M1157 0h-192l-537 739l-84 -82v-657h-135v1430h135v-625l614 625h199l-631 -607z" />
    <glyph glyph-name="L.cap" unicode="&#xe04c;" horiz-adv-x="1009" 
d="M918 0h-709v1430h135v-1309h574v-121z" />
    <glyph glyph-name="M.cap" unicode="&#xe04d;" horiz-adv-x="1914" 
d="M1665 0h-141q-13 695 -94 1260h-3l-444 -1260h-127l-440 1260h-4q-76 -648 -84 -1260h-135q9 732 120 1430h195l420 -1213h6l420 1213h192q104 -683 119 -1430z" />
    <glyph glyph-name="N.cap" unicode="&#xe04e;" horiz-adv-x="1497" 
d="M1227 0h-176l-707 1264h-4v-1264h-131v1430h197l686 -1225h4v1225h131v-1430z" />
    <glyph glyph-name="O.cap" unicode="&#xe04f;" horiz-adv-x="1636" 
d="M1448 729q0 -223 -74.5 -390t-227.5 -263t-368 -96q-163 0 -288.5 53.5t-204 151t-118.5 227.5t-40 288q0 221 75.5 388.5t228 264.5t364.5 97q159 0 284.5 -55t205.5 -153t121.5 -228t41.5 -285zM1300 700q0 108 -17 200t-56.5 172.5t-100 136.5t-151 88t-205.5 32
q-130 0 -228 -48t-155 -132t-85 -189.5t-28 -230.5q0 -110 17 -202t56 -172t99 -135.5t150.5 -87.5t206.5 -32q108 0 193.5 32.5t141.5 87.5t93 133t53 163.5t16 183.5z" />
    <glyph glyph-name="P.cap" unicode="&#xe050;" horiz-adv-x="1210" 
d="M1034 1014q0 -201 -125 -323t-340 -122h-225v-569h-135v1430h356q94 0 166 -17q141 -34 222 -140t81 -259zM887 1001q0 115 -55 192.5t-156 102.5q-53 13 -125 13h-207v-621h238q144 0 224.5 85.5t80.5 227.5z" />
    <glyph glyph-name="Q.cap" unicode="&#xe051;" horiz-adv-x="1636" 
d="M1538 -35l-84 -96l-254 244q-165 -133 -422 -133q-163 0 -288.5 53.5t-204 151t-118.5 227.5t-40 288q0 221 75.5 388.5t228 264.5t364.5 97q159 0 284.5 -55t205.5 -153t121.5 -228t41.5 -285q0 -328 -160 -526zM1300 700q0 108 -17 200t-56.5 172.5t-100 136.5t-151 88
t-205.5 32q-130 0 -228 -48t-155 -132t-85 -189.5t-28 -230.5q0 -110 17 -202t56 -172t99 -135.5t150.5 -87.5t206.5 -32q181 0 309 97l-285 270l84 96l285 -272q50 69 77 178t27 231z" />
    <glyph glyph-name="R.cap" unicode="&#xe052;" horiz-adv-x="1245" 
d="M1081 0h-170l-379 666h-188v-666h-135v1430h332q223 0 337.5 -101t114.5 -268q0 -149 -88 -245t-227 -134zM846 1047q0 53 -16.5 97.5t-52 82.5t-100 60t-151.5 22h-182v-527h184q158 0 238 74t80 191z" />
    <glyph glyph-name="S.cap" unicode="&#xe053;" horiz-adv-x="1056" 
d="M895 387q0 -189 -131.5 -298t-351.5 -109q-156 0 -301 40l24 130q162 -48 311 -48q137 0 218 72.5t81 200.5q0 30 -5.5 56.5t-19 49.5t-26 41.5t-37 38t-41 32t-49 30.5t-50 27t-55.5 28q-11 5 -16 8q-78 39 -130 72.5t-99 80.5t-69.5 107t-22.5 135q0 165 118 267
t312 102q61 0 133.5 -10t116.5 -27l-27 -117q-116 33 -237 33q-134 0 -202.5 -65t-68.5 -168q0 -35 9.5 -66.5t20.5 -54.5t38 -48.5t43 -39t56.5 -37t57 -32t64.5 -32.5q66 -33 111.5 -59.5t91 -63t72.5 -75t44 -89.5t17 -112z" />
    <glyph glyph-name="T.cap" unicode="&#xe054;" horiz-adv-x="1155" 
d="M1067 1315h-453v-1315h-135v1315h-452v115h1040v-115z" />
    <glyph glyph-name="U.cap" unicode="&#xe055;" horiz-adv-x="1495" 
d="M1229 535q0 -264 -138 -408.5t-376 -144.5q-232 0 -371 138t-139 390v920h135v-906q0 -205 100 -315.5t279 -110.5q181 0 281 108.5t100 317.5v906h129v-895z" />
    <glyph glyph-name="V.cap" unicode="&#xe056;" horiz-adv-x="1347" 
d="M1249 1430q-248 -779 -528 -1430h-133q-305 677 -543 1430h166q160 -576 451 -1276l2 2q227 575 434 1274h151z" />
    <glyph glyph-name="W.cap" unicode="&#xe057;" horiz-adv-x="2115" 
d="M1985 1430q-180 -676 -455 -1430h-166l-340 1241h-4l-326 -1241h-166q-271 734 -454 1430h162q133 -556 376 -1262h2l326 1262h176l348 -1262h2q255 767 361 1262h158z" />
    <glyph glyph-name="X.cap" unicode="&#xe058;" horiz-adv-x="1296" 
d="M1198 0h-184l-406 633l-411 -633h-168l508 737l-465 693h176l370 -576l375 576h162l-465 -682z" />
    <glyph glyph-name="Y.cap" unicode="&#xe059;" horiz-adv-x="1241" 
d="M1157 1430q-245 -469 -493 -812v-618h-136v618q-248 334 -505 812h163q187 -398 420 -707q208 308 379 707h172z" />
    <glyph glyph-name="Z.cap" unicode="&#xe05a;" horiz-adv-x="1110" 
d="M979 0h-909v121l761 1194h-739v115h877v-132l-764 -1181h774v-117z" />
    <glyph glyph-name="bracketleft.cap" unicode="&#xe05b;" horiz-adv-x="671" 
d="M565 -283h-334v1880h334v-100h-209v-1679h209v-101z" />
    <glyph glyph-name="bracketright.cap" unicode="&#xe05d;" horiz-adv-x="671" 
d="M440 -283h-331v101h206v1679h-206v100h331v-1880z" />
    <glyph glyph-name="braceleft.cap" unicode="&#xe07b;" horiz-adv-x="675" 
d="M604 -281q-50 -4 -80 -4q-53 0 -90.5 14.5t-62 41.5t-38 72t-19 98t-5.5 129v290q0 132 -46.5 205.5t-141.5 73.5v86q95 0 141.5 73.5t46.5 205.5v241q0 188 45 271t170 83q30 0 80 -4v-98h-76q-37 0 -57.5 -19.5t-31.5 -77t-11 -165.5v-219q0 -300 -178 -334
q178 -34 178 -334v-268q0 -108 11 -165.5t31.5 -77t57.5 -19.5h76v-99z" />
    <glyph glyph-name="bar.cap" unicode="&#xe07c;" horiz-adv-x="1024" 
d="M573 -369h-122v1966h122v-1966z" />
    <glyph glyph-name="braceright.cap" unicode="&#xe07d;" horiz-adv-x="675" 
d="M629 639q-95 0 -142 -73.5t-47 -205.5v-290q0 -188 -45 -271.5t-170 -83.5q-30 0 -80 4v99h76q37 0 57.5 19.5t32 77t11.5 165.5v268q0 300 178 334q-178 34 -178 334v219q0 108 -11.5 165.5t-32 77t-57.5 19.5h-76v98q50 4 80 4q66 0 108.5 -21t66 -68t32 -108.5
t8.5 -156.5v-241q0 -132 47 -205.5t142 -73.5v-86z" />
    <glyph glyph-name="Adieresis.cap" unicode="&#xe080;" horiz-adv-x="1386" 
d="M1260 0h-158q-91 290 -129 403h-631q-75 -222 -129 -403h-147q243 768 522 1430h135q266 -620 537 -1430zM930 516q-77 220 -281 760l-2 -4q-183 -497 -272 -756h555zM956 1649q0 -36 -26 -62t-62 -26q-35 0 -61.5 26.5t-26.5 61.5q0 37 26.5 63.5t61.5 26.5
q37 0 62.5 -26.5t25.5 -63.5zM514 1649q0 -36 -26 -62t-62 -26q-35 0 -61.5 26.5t-26.5 61.5q0 37 26.5 63.5t61.5 26.5q37 0 62.5 -26.5t25.5 -63.5z" />
    <glyph glyph-name="Aring.cap" unicode="&#xe081;" horiz-adv-x="1386" 
d="M854 1546q0 -58 -28 -104.5t-78 -71.5q245 -574 512 -1370h-158q-91 290 -129 403h-631q-75 -222 -129 -403h-147q228 723 495 1368q-96 45 -96 170q0 85 53 139t146 54q88 0 139 -50.5t51 -134.5zM930 516q-77 220 -281 760l-2 -4q-183 -497 -272 -756h555zM764 1538
q0 50 -26.5 82.5t-78.5 32.5q-49 0 -76.5 -30t-27.5 -77q0 -55 26 -86t81 -30q48 -1 76 30t26 78z" />
    <glyph glyph-name="Ccedilla.cap" unicode="&#xe082;" horiz-adv-x="1275" 
d="M922 -217q0 -46 -50.5 -78.5t-164.5 -32.5q-108 0 -185 23v86h205q66 0 66 26q0 21 -13 50l-59 131q-274 18 -435 203.5t-161 506.5q0 339 177.5 542.5t471.5 203.5q106 0 191.5 -17t181.5 -61l-49 -111q-158 68 -336 68q-222 0 -356 -167.5t-134 -442.5
q0 -289 139.5 -446.5t383.5 -157.5q158 0 321 71l39 -110q-152 -68 -315 -80l49 -101q33 -65 33 -106z" />
    <glyph glyph-name="Eacute.cap" unicode="&#xe083;" horiz-adv-x="1175" 
d="M965 0h-756v1430h745v-121h-610v-504h537v-121h-537v-563h621v-121zM836 1718l-353 -174l-63 88l338 199z" />
    <glyph glyph-name="Ntilde.cap" unicode="&#xe084;" horiz-adv-x="1497" 
d="M1227 0h-176l-707 1264h-4v-1264h-131v1430h197l686 -1225h4v1225h131v-1430zM1061 1706q-33 -70 -94.5 -111t-128.5 -41q-45 0 -83 14t-59.5 30t-51 30t-60.5 14q-38 0 -73 -27.5t-58 -76.5l-84 61q35 70 95.5 111t127.5 41q45 0 82.5 -13.5t59 -30.5t51 -30.5
t59.5 -13.5q39 0 74.5 27t58.5 75z" />
    <glyph glyph-name="Odieresis.cap" unicode="&#xe085;" horiz-adv-x="1636" 
d="M1448 729q0 -223 -74.5 -390t-227.5 -263t-368 -96q-163 0 -288.5 53.5t-204 151t-118.5 227.5t-40 288q0 221 75.5 388.5t228 264.5t364.5 97q159 0 284.5 -55t205.5 -153t121.5 -228t41.5 -285zM1300 700q0 108 -17 200t-56.5 172.5t-100 136.5t-151 88t-205.5 32
q-130 0 -228 -48t-155 -132t-85 -189.5t-28 -230.5q0 -110 17 -202t56 -172t99 -135.5t150.5 -87.5t206.5 -32q108 0 193.5 32.5t141.5 87.5t93 133t53 163.5t16 183.5zM1092 1649q0 -36 -26 -62t-62 -26q-35 0 -62 26.5t-27 61.5q0 37 26.5 63.5t62.5 26.5q37 0 62.5 -26.5
t25.5 -63.5zM649 1649q0 -36 -26 -62t-62 -26q-35 0 -61.5 26.5t-26.5 61.5q0 37 26.5 63.5t61.5 26.5q37 0 62.5 -26.5t25.5 -63.5z" />
    <glyph glyph-name="Udieresis.cap" unicode="&#xe086;" horiz-adv-x="1495" 
d="M1229 535q0 -264 -138 -408.5t-376 -144.5q-232 0 -371 138t-139 390v920h135v-906q0 -205 100 -315.5t279 -110.5q181 0 281 108.5t100 317.5v906h129v-895zM1032 1649q0 -36 -26 -62t-62 -26q-35 0 -61.5 26.5t-26.5 61.5q0 37 26.5 63.5t61.5 26.5q37 0 62.5 -26.5
t25.5 -63.5zM590 1649q0 -36 -26 -62t-62 -26q-35 0 -61.5 26.5t-26.5 61.5q0 37 26.5 63.5t61.5 26.5q37 0 62.5 -26.5t25.5 -63.5z" />
    <glyph glyph-name="cent.sc" unicode="&#xe0a2;" 
d="M985 289q-137 -80 -291 -90v-199h-112v199q-204 20 -314 152t-110 333q0 206 117.5 341t306.5 157v184h112v-182q154 -6 289 -92l-57 -103q-125 82 -291 82q-141 0 -237.5 -110t-96.5 -269q0 -174 100 -279.5t267 -105.5q136 0 272 80z" />
    <glyph glyph-name="sterling.sc" unicode="&#xe0a3;" 
d="M1006 0h-854v115q24 30 41 52t38 55.5t34.5 63.5t26.5 70.5t18.5 82t5 93.5t-8.5 109h-198v102h184q-3 20 -12 84.5t-13 104t-4 76.5q0 189 108 281.5t300 92.5q118 0 254 -26v-113q-164 21 -248 21q-149 0 -215 -59.5t-66 -182.5q0 -100 25 -279h444v-102h-428
q36 -334 -164 -526h732v-115z" />
    <glyph glyph-name="germandbls.sc" unicode="&#xe0a7;" horiz-adv-x="1851" 
d="M803 330q0 -161 -112.5 -254.5t-297.5 -93.5q-142 0 -246 36l25 129q116 -43 250 -43q107 0 169 57.5t62 157.5q0 74 -49.5 126.5t-193.5 121.5q-147 71 -208 145t-61 175q0 151 101 240.5t266 89.5q123 0 219 -35l-27 -115q-99 29 -204 29t-157 -53.5t-52 -141.5
q0 -66 45 -114.5t182 -114.5q156 -75 222.5 -154t66.5 -188zM1729 330q0 -161 -112.5 -254.5t-297.5 -93.5q-142 0 -246 36l25 129q116 -43 250 -43q107 0 169 57.5t62 157.5q0 74 -50 126.5t-194 121.5q-147 71 -207.5 145t-60.5 175q0 151 101 240.5t266 89.5
q123 0 219 -35l-27 -115q-99 29 -205 29q-105 0 -157 -53.5t-52 -141.5q0 -66 45.5 -114.5t182.5 -114.5q156 -75 222.5 -154t66.5 -188z" />
    <glyph glyph-name="AE.cap" unicode="&#xe0ae;" horiz-adv-x="1839" 
d="M1628 0h-756v350h-563q-132 -258 -178 -350h-137q359 704 823 1430h785v-121h-594v-504h536v-121h-536v-563h620v-121zM872 463v844h-6q-193 -313 -485 -844h491z" />
    <glyph glyph-name="Oslash.cap" unicode="&#xe0af;" horiz-adv-x="1636" 
d="M1448 729q0 -167 -43.5 -304t-126.5 -236.5t-212 -154t-292 -54.5q-168 0 -297 57l-129 -223l-100 57l129 225q-125 92 -187.5 246t-62.5 352q0 162 44.5 299.5t127.5 239.5t210.5 159.5t285.5 57.5q179 0 321 -74l103 183l100 -60l-107 -186q116 -96 176 -247.5
t60 -336.5zM1300 698q0 330 -161 488l-590 -1026q105 -51 254 -51q107 0 193 32.5t142 87t93 131t53 160t16 178.5zM1047 1255q-116 64 -277 64q-122 0 -218 -47.5t-156 -129t-91 -187t-31 -226.5q0 -347 179 -504z" />
    <glyph glyph-name="yen.sc" unicode="&#xe0b4;" 
d="M1063 1366q-203 -374 -428 -688v-49h344v-103h-344v-202h344v-103h-344v-221h-135v221h-344v103h344v202h-344v103h344v49q-240 324 -437 688h154q166 -324 361 -584q170 254 323 584h162z" />
    <glyph glyph-name="ordfeminine.cap" unicode="&#xe0bb;" horiz-adv-x="940" 
d="M786 373h-632v108h632v-108zM834 659h-134q-62 195 -63 197h-346q-51 -163 -62 -197h-125q141 445 283 779h154q134 -307 293 -779zM600 952q-30 88 -139 383q-53 -136 -137 -383h276z" />
    <glyph glyph-name="ordmasculine.cap" unicode="&#xe0bc;" horiz-adv-x="966" 
d="M803 373h-639v108h639v-108zM860 1057q0 -187 -99.5 -299.5t-283.5 -112.5t-277.5 107.5t-93.5 285.5q0 183 101 298.5t280 115.5q178 0 275.5 -110.5t97.5 -284.5zM727 1040q0 66 -13.5 120t-42.5 96.5t-79.5 66t-118.5 23.5q-112 0 -172.5 -82t-60.5 -207
q0 -305 252 -305q122 0 178.5 80.5t56.5 207.5z" />
    <glyph glyph-name="nbspace" unicode="&#xe0ca;" horiz-adv-x="552" 
 />
    <glyph glyph-name="Agrave.cap" unicode="&#xe0cb;" horiz-adv-x="1386" 
d="M1260 0h-158q-91 290 -129 403h-631q-75 -222 -129 -403h-147q243 768 522 1430h135q266 -620 537 -1430zM930 516q-77 220 -281 760l-2 -4q-183 -497 -272 -756h555zM721 1632l-64 -88l-352 174l78 113z" />
    <glyph glyph-name="Atilde.cap" unicode="&#xe0cc;" horiz-adv-x="1386" 
d="M1260 0h-158q-91 290 -129 403h-631q-75 -222 -129 -403h-147q243 768 522 1430h135q266 -620 537 -1430zM930 516q-77 220 -281 760l-2 -4q-183 -497 -272 -756h555zM983 1706q-33 -70 -94.5 -111t-128.5 -41q-45 0 -83 14t-59.5 30t-51 30t-60.5 14q-38 0 -73 -27.5
t-58 -76.5l-84 61q35 70 95.5 111t127.5 41q45 0 82.5 -13.5t59 -30.5t51 -30.5t59.5 -13.5q39 0 74.5 27t58.5 75z" />
    <glyph glyph-name="Otilde.cap" unicode="&#xe0cd;" horiz-adv-x="1636" 
d="M1448 729q0 -223 -74.5 -390t-227.5 -263t-368 -96q-163 0 -288.5 53.5t-204 151t-118.5 227.5t-40 288q0 221 75.5 388.5t228 264.5t364.5 97q159 0 284.5 -55t205.5 -153t121.5 -228t41.5 -285zM1300 700q0 108 -17 200t-56.5 172.5t-100 136.5t-151 88t-205.5 32
q-130 0 -228 -48t-155 -132t-85 -189.5t-28 -230.5q0 -110 17 -202t56 -172t99 -135.5t150.5 -87.5t206.5 -32q108 0 193.5 32.5t141.5 87.5t93 133t53 163.5t16 183.5zM1110 1706q-33 -70 -94.5 -111t-128.5 -41q-45 0 -83 14t-59.5 30t-51 30t-60.5 14q-38 0 -73 -27.5
t-58 -76.5l-84 61q35 70 95.5 111t127.5 41q45 0 82.5 -13.5t59 -30.5t51 -30.5t59.5 -13.5q39 0 74.5 27t58.5 75z" />
    <glyph glyph-name="OE.cap" unicode="&#xe0ce;" horiz-adv-x="1966" 
d="M1755 0h-768q-126 -18 -211 -18q-213 0 -360.5 90.5t-218 250t-70.5 377.5q0 165 43.5 301.5t126 236.5t210.5 155t290 55q86 0 174 -18h774v-121h-610v-504h536v-121h-536v-563h620v-121zM999 133v1157q-107 39 -227 39q-105 0 -189.5 -31.5t-141.5 -86.5t-95 -132
t-55 -164t-17 -186q0 -139 28 -249.5t89 -197.5t166 -134.5t250 -47.5q91 0 192 33z" />
    <glyph glyph-name="quotedblleft.cap" unicode="&#xe0d2;" horiz-adv-x="925" 
d="M846 1579q-61 -74 -91.5 -129t-33 -88t4.5 -54t18.5 -44.5t11.5 -42.5q0 -48 -29 -80.5t-82 -32.5q-56 0 -86 51q-48 82 18 219q59 122 199 260zM475 1587q-62 -76 -93.5 -132.5t-34.5 -90.5t4 -55.5t18.5 -45t11.5 -42.5q0 -48 -29 -80.5t-82 -32.5q-56 0 -86 52
q-48 83 19 224q60 123 200 263z" />
    <glyph glyph-name="quotedblright.cap" unicode="&#xe0d3;" horiz-adv-x="925" 
d="M653 1581q56 0 86 -52q48 -83 -19 -224q-60 -123 -200 -263l-71 60q62 76 93.5 132.5t34.5 90.5t-4 55.5t-18.5 45t-11.5 42.5q0 49 28.5 81t81.5 32zM279 1581q56 0 86 -51q48 -83 -19 -220q-58 -121 -199 -259l-69 59q61 74 91.5 129t33 88t-4.5 54t-18.5 44.5
t-11.5 42.5q0 48 29 80.5t82 32.5z" />
    <glyph glyph-name="quoteleft.cap" unicode="&#xe0d4;" horiz-adv-x="552" 
d="M479 1589q-131 -160 -131 -246q0 -27 18.5 -63.5t18.5 -60.5q0 -49 -29.5 -82t-83.5 -33q-56 0 -87 53q-49 83 18 223q60 126 205 269z" />
    <glyph glyph-name="quoteright.cap" unicode="&#xe0d5;" horiz-adv-x="552" 
d="M279 1581q56 0 87 -53q49 -83 -18 -223q-60 -126 -205 -269l-71 60q131 160 131 245q0 27 -18.5 64t-18.5 61q0 49 29.5 82t83.5 33z" />
    <glyph glyph-name="Ydieresis.cap" unicode="&#xe0d9;" horiz-adv-x="1241" 
d="M1157 1430q-245 -469 -493 -812v-618h-136v618q-248 334 -505 812h163q187 -398 420 -707q208 308 379 707h172zM897 1649q0 -36 -26 -62t-62 -26q-35 0 -61.5 26.5t-26.5 61.5q0 37 26.5 63.5t61.5 26.5q37 0 62.5 -26.5t25.5 -63.5zM455 1649q0 -36 -26 -62t-62 -26
q-35 0 -61.5 26.5t-26.5 61.5q0 37 26.5 63.5t61.5 26.5q37 0 62.5 -26.5t25.5 -63.5z" />
    <glyph glyph-name="Euro.sc" unicode="&#xe0db;" 
d="M1032 57q-117 -71 -313 -71q-416 0 -496 444h-170v102h156q-6 68 -6 136q0 66 6 133h-156v102h170q21 127 69 221t117 149.5t150 82t176 26.5q147 0 275 -71l-45 -101q-122 54 -240 54q-134 0 -227 -89t-129 -272h428v-102h-441q-6 -68 -6 -119q0 -77 8 -150h439v-102
h-422q38 -172 134 -246.5t243 -74.5q138 0 239 53z" />
    <glyph glyph-name="Fsmall_Ismall" unicode="&#xe0de;" horiz-adv-x="1560" 
d="M852 1079h-487v-420h438v-122h-438v-537h-136v1200h623v-121zM1331 0h-135v1200h135v-1200z" />
    <glyph glyph-name="Fsmall_Lsmall" unicode="&#xe0df;" horiz-adv-x="1873" 
d="M852 1079h-487v-420h438v-122h-438v-537h-136v1200h623v-121zM1823 0h-627v1200h135v-1079h492v-121z" />
    <glyph glyph-name="Acircumflex.cap" unicode="&#xe0e5;" horiz-adv-x="1386" 
d="M1260 0h-158q-91 290 -129 403h-631q-75 -222 -129 -403h-147q243 768 522 1430h135q266 -620 537 -1430zM930 516q-77 220 -281 760l-2 -4q-183 -497 -272 -756h555zM922 1632l-64 -80l-213 138l-209 -138l-57 74l268 197z" />
    <glyph glyph-name="Ecircumflex.cap" unicode="&#xe0e6;" horiz-adv-x="1175" 
d="M965 0h-756v1430h745v-121h-610v-504h537v-121h-537v-563h621v-121zM846 1632l-64 -80l-213 138l-209 -138l-57 74l268 197z" />
    <glyph glyph-name="Aacute.cap" unicode="&#xe0e7;" horiz-adv-x="1386" 
d="M1260 0h-158q-91 290 -129 403h-631q-75 -222 -129 -403h-147q243 768 522 1430h135q266 -620 537 -1430zM930 516q-77 220 -281 760l-2 -4q-183 -497 -272 -756h555zM961 1718l-353 -174l-63 88l338 199z" />
    <glyph glyph-name="Edieresis.cap" unicode="&#xe0e8;" horiz-adv-x="1175" 
d="M965 0h-756v1430h745v-121h-610v-504h537v-121h-537v-563h621v-121zM893 1649q0 -36 -26 -62t-62 -26q-35 0 -61.5 26.5t-26.5 61.5q0 37 26.5 63.5t61.5 26.5q37 0 62.5 -26.5t25.5 -63.5zM451 1649q0 -35 -26.5 -61.5t-62.5 -26.5q-35 0 -61.5 26.5t-26.5 61.5
q0 37 26.5 63.5t61.5 26.5q37 0 63 -26.5t26 -63.5z" />
    <glyph glyph-name="Egrave.cap" unicode="&#xe0e9;" horiz-adv-x="1175" 
d="M965 0h-756v1430h745v-121h-610v-504h537v-121h-537v-563h621v-121zM690 1632l-63 -88l-353 174l78 113z" />
    <glyph glyph-name="Iacute.cap" unicode="&#xe0ea;" horiz-adv-x="614" 
d="M344 0h-135v1430h135v-1430zM561 1718l-352 -174l-64 88l338 199z" />
    <glyph glyph-name="Icircumflex.cap" unicode="&#xe0eb;" horiz-adv-x="614" 
d="M344 0h-135v1430h135v-1430zM549 1632l-64 -80l-213 138l-209 -138l-57 74l268 197z" />
    <glyph glyph-name="Idieresis.cap" unicode="&#xe0ec;" horiz-adv-x="614" 
d="M344 0h-135v1430h135v-1430zM553 1649q0 -36 -26 -62t-62 -26q-35 0 -61.5 26.5t-26.5 61.5q0 37 26.5 63.5t61.5 26.5q37 0 62.5 -26.5t25.5 -63.5zM176 1649q0 -36 -26 -62t-62 -26q-35 0 -61.5 26.5t-26.5 61.5q0 37 26.5 63.5t61.5 26.5q37 0 62.5 -26.5t25.5 -63.5z
" />
    <glyph glyph-name="Igrave.cap" unicode="&#xe0ed;" horiz-adv-x="614" 
d="M344 0h-135v1430h135v-1430zM416 1632l-64 -88l-352 174l78 113z" />
    <glyph glyph-name="Oacute.cap" unicode="&#xe0ee;" horiz-adv-x="1636" 
d="M1448 729q0 -223 -74.5 -390t-227.5 -263t-368 -96q-163 0 -288.5 53.5t-204 151t-118.5 227.5t-40 288q0 221 75.5 388.5t228 264.5t364.5 97q159 0 284.5 -55t205.5 -153t121.5 -228t41.5 -285zM1300 700q0 108 -17 200t-56.5 172.5t-100 136.5t-151 88t-205.5 32
q-130 0 -228 -48t-155 -132t-85 -189.5t-28 -230.5q0 -110 17 -202t56 -172t99 -135.5t150.5 -87.5t206.5 -32q108 0 193.5 32.5t141.5 87.5t93 133t53 163.5t16 183.5zM1104 1718l-352 -174l-64 88l338 199z" />
    <glyph glyph-name="Ocircumflex.cap" unicode="&#xe0ef;" horiz-adv-x="1636" 
d="M1448 729q0 -223 -74.5 -390t-227.5 -263t-368 -96q-163 0 -288.5 53.5t-204 151t-118.5 227.5t-40 288q0 221 75.5 388.5t228 264.5t364.5 97q159 0 284.5 -55t205.5 -153t121.5 -228t41.5 -285zM1300 700q0 108 -17 200t-56.5 172.5t-100 136.5t-151 88t-205.5 32
q-130 0 -228 -48t-155 -132t-85 -189.5t-28 -230.5q0 -110 17 -202t56 -172t99 -135.5t150.5 -87.5t206.5 -32q108 0 193.5 32.5t141.5 87.5t93 133t53 163.5t16 183.5zM1057 1632l-64 -80l-213 138l-209 -138l-57 74l268 197z" />
    <glyph glyph-name="apple" unicode="&#xe0f0;" horiz-adv-x="1966" 
d="M1802 1169q0 -8 -4 -8q-21 1 -28.5 1t-28.5 -2t-29 -3q-137 -6 -184 -14q-11 -10 -14.5 -35.5t-6.5 -32.5q0 -7 4 -17.5t5 -13.5q7 -10 28 -14q35 4 47 27q0 13 -14 24q-5 4 -20.5 5.5t-20.5 9.5q4 6 10.5 7.5t18.5 0t16 -1.5q21 -6 31 -33q-3 -31 -37 -55
q-7 -2 -21.5 -5t-21.5 -5q-72 17 -92 49q-4 21 -3.5 31t4.5 29.5t5 29.5q-3 5 -8 7t-11 1t-12 0l-67 -2q0 2 -2.5 4t-2.5 4q5 4 16.5 5t12.5 1q11 -2 24.5 -2t29.5 1t24 1q10 8 10 35q3 6 7 30t12 32q9 2 12 1t8.5 -7.5t7.5 -8.5q7 -11 7 -35.5t4 -38.5q4 -7 13 -8.5
t16.5 0.5t15.5 0q4 0 86.5 3t144.5 10q6 -3 8 -7zM1333 1032l-6 -4q-71 0 -104 -10q-2 1 -7 2.5t-8 2.5t-6.5 4t-5.5 7q12 77 2 115q-2 2 -4.5 2.5t-6 -1t-6.5 -3t-6.5 -3.5t-5.5 -3q-80 -49 -84 -99q-19 -19 -38 -10q-8 10 -6.5 31t-0.5 33l-2 63q-4 4 -16 3.5t-21 0.5
q-2 1 -8 1.5t-10 2.5t-4 7q14 -1 52.5 2.5t53.5 -0.5q7 -6 6 -30t13 -26q17 7 51.5 29t54.5 29q5 -3 26 -3t24 -16q4 -17 4 -48.5v-39.5q1 -3 2 -12t6 -12q19 -4 26 0q5 0 16.5 -2.5t18.5 -2.5q5 -5 0 -10zM915 1145q6 -41 -14 -64q-10 -6 -26 -20t-30 -22.5t-30 -10.5
q-8 3 -14 -6t-13 -4q-2 6 -24.5 4t-26.5 -2q-29 0 -43 6q-33 30 -38 47q-3 14 1 27q13 42 50 61q4 2 17.5 9t18 9t19 7t20.5 3.5t21 -1.5q91 -4 112 -43zM926 1360q-10 -12 -27.5 -17t-32.5 0q-26 35 -28 50q-12 19 -33 32.5t-37 18.5t-47.5 12t-42.5 10l-64 4
q-3 -3 -12 -2.5t-14 -1.5q-63 -19 -113 -43q-2 -3 -27.5 -23t-27.5 -38q-19 -49 -23 -143q5 -4 13 -5t17.5 0t14.5 0q48 5 176 5q8 -4 3 -15q-10 -10 -32 -1t-32 5q-13 1 -42 -1t-42 -1q-7 -1 -24 -2.5t-29 -4t-21 -7.5l-6 -8q-4 -50 2 -129q1 -4 0.5 -29t7.5 -29
q39 -2 77.5 2t64.5 5q3 2 6.5 2t6.5 -0.5t7 -2t6 -2.5q1 -1 1 -4t1 -4l-8 -4q-25 7 -80 0t-94 -4q-75 -5 -94 -4q-91 -4 -131 6l-4 6q7 7 18 11q7 -4 17.5 -6.5t18.5 -3.5t22.5 -2.5t21.5 -2.5q5 1 17.5 1t21 1.5t14.5 5.5q-1 39 10 101.5t13 89.5q-2 4 -6 8q-12 1 -37.5 0
t-43 1t-34.5 9q-1 4 1 7.5t5 3.5q41 -11 115 -7l4 7q12 92 31 135v6q95 112 243 127q62 8 144 -27q5 -2 19.5 -3.5t21.5 -4.5q86 -18 127 -72q4 -4 0 -18zM1579 -119l-8 -8q-27 2 -98 -5t-101 -3q-64 3 -213 -7t-231 -1q-19 -3 -39 -4t-42 0t-36.5 2t-41.5 4t-38 4
q-36 3 -75.5 3.5t-94.5 -0.5t-78 -1q-135 0 -204 -17q-24 -5 -31 9q0 9 -1.5 40.5t0 52.5t7.5 40q2 20 2 77t4 87q-5 30 -1 91t-1 91q0 51 6.5 146t7.5 122q3 52 1.5 146.5t0.5 146.5q6 14 24 13.5t30 0.5q5 -8 37.5 -5t37.5 3q25 24 27 2q1 -2 0.5 -12t5.5 -12
q-3 -72 -2 -112t8 -151.5t9 -148.5q45 14 121 57.5t116 57.5q6 2 19.5 11.5t23.5 12.5q1 0 5 4t7 4.5t9 -1.5q5 -2 7 -6.5t1.5 -8.5t-1.5 -10.5t-1 -9.5q-19 -60 -10 -125q3 -5 7.5 -5.5t11.5 1.5t9 2q13 10 37 24.5t33 20.5q57 34 84 43q5 4 19 13.5t20.5 14t17.5 11.5
t21 12t20 8l41 33q3 8 12 14q7 0 23 -12q0 -19 6 -58t6 -59q1 -4 6 -4.5t6 -3.5q4 -5 4 -11t-1 -10t-3.5 -11t-3.5 -9l4 -4q47 10 125 65t123 66q6 6 22 13t23 14q10 1 25 13.5t24 16.5t29 -6q11 0 14 -8q-1 -5 0 -8.5t4.5 -8.5t4.5 -7q-3 -9 -0.5 -29.5t-3.5 -26.5
q1 -10 0 -32.5t1 -37.5t9 -28q-2 -8 5 -25t-1 -22q1 -11 0 -19.5t1 -18.5t7 -17q5 -29 -2 -37q2 -10 5 -43.5t9 -51.5q-3 -4 -3 -9.5t1.5 -12.5t1.5 -10q0 -53 12 -152t13 -149l3 -9q2 -9 -1 -10zM870 1104q-13 63 -53 70q-2 -6 -7 -7.5t-12 0t-10 0.5q-14 6 -29 2.5
t-24 -14.5q-5 -7 -8 -13.5t-3 -14t-0.5 -12.5t2.5 -13.5t4 -12.5t7 -13t7.5 -11.5t8 -13t7.5 -11.5q2 -4 6 -5.5t8.5 -0.5t9.5 0q13 -1 18 0t17.5 7.5t16.5 7.5q2 2 16.5 13t18.5 20t-1 22zM1513 -20q-21 48 -36 65q-5 9 -17 26.5t-19 31.5t-9 30q-2 3 -5.5 9t-5 8.5t-3 8.5
t0.5 9q10 12 35 28t33 25l-19 35q-15 -1 -38 -10t-25 -10t-8 -6t-10 -7.5t-10 -2.5t-11 5q4 108 2 160l-4 6q-10 0 -55 15q-9 -72 -6 -99q-4 -11 -2 -40t-3 -40q2 -38 -2.5 -106.5t0.5 -104.5l-2 -14h49q3 1 13.5 -2t11.5 2q0 37 -2 57q1 6 -3 21t-2 24t15 13
q8 -3 12.5 -15.5t6.5 -15.5q-1 -10 9 -25.5t11 -21.5q14 -8 31 -34t29 -34q3 1 11 -2.5t15 -1.5q4 0 8 4t4 9zM1245 367q-8 23 -24 30q-5 5 -11.5 5.5t-9.5 -5.5q-10 -13 -13 -30.5t5 -30.5q3 -10 16 -11.5t23 3.5q18 12 14 39zM1249 31q0 27 -2 79t-2 76q0 6 1 17.5t1 20.5
t-2 16q-12 6 -18.5 5.5t-19 -3.5t-19.5 -2q-8 -14 -9.5 -33t0 -35t-0.5 -35q-2 -3 -7 -53q1 -6 1.5 -40t11.5 -50q31 0 61 10q4 8 4 27zM1147 252q-1 0 -7.5 -0.5t-9 -1t-8 -1.5t-8.5 -2t-8 -3t-8 -4.5t-6.5 -6t-6.5 -8.5q-3 -3 -6 -14t-8 -17.5t-16 -3.5q-4 13 -4 60
q-5 3 -15.5 0t-15.5 0q-15 -8 -23 -27q0 -139 9 -227l6 -8q7 -6 24.5 -2.5t22.5 0.5q-4 15 -1.5 43t-2.5 41q12 63 32 90q7 6 26.5 12.5t27.5 13.5q1 8 4 22.5t3.5 21.5t-1.5 22zM938 61q6 11 9 24.5t4.5 22.5t-0.5 26.5t-3 24t-5 27.5t-5 25q2 7 -9 15t-25 14.5t-17 9.5
q-3 4 -9.5 4t-7.5 -6q-23 3 -39 -8q-8 -4 -16 -16t-12 -15q-10 -7 -19 6q10 49 -6 152l-4 14h-16q-11 -4 -14.5 -12.5t-3 -21t-1.5 -17.5q-4 -23 -4 -70t-4 -70q2 -23 0 -67t0 -64q0 -10 -2.5 -34t-1.5 -39q18 -10 64 10q16 3 21.5 0t14 -14.5t13.5 -14.5q16 0 26 2
q25 14 49 41.5t23 50.5zM682 70q-8 25 -5.5 90t-14.5 84q-17 11 -48 24l-16 11q-13 -2 -23.5 -1t-23 -1t-21.5 -9q-6 -4 -9.5 -10.5t-4.5 -11.5t-1.5 -16t-0.5 -15q16 -6 32 -2t33.5 1.5t26.5 -17.5q-1 -4 3 -12.5t-1 -12.5q-6 -11 2 -16q3 -4 1.5 -11t-7.5 -8
q-10 -3 -29 -3.5t-28 -2.5q-38 -15 -51 -76q-4 -7 -1.5 -22.5t-2.5 -20.5q0 -22 30 -35q11 11 17 5q10 -3 19.5 2t21.5 15.5t18 14.5q13 3 14.5 -5t-1 -18.5t4.5 -17.5q4 -5 16.5 -0.5t16.5 4.5q3 1 10 3t12 4t9 6zM508 371q-26 5 -107 0q-36 -4 -55 -17q-1 -25 -7 -72.5
t-7 -60.5q3 -39 2.5 -112t1.5 -113q3 0 15.5 2.5t13.5 -0.5q7 2 23.5 -1.5t23.5 1.5q1 22 2 65t2 64q5 11 33 25q4 2 15.5 0.5t14.5 5.5l-2 57q-4 4 -9.5 6t-9.5 2.5t-12.5 0t-11.5 -0.5q-8 -8 -14 -8q-9 2 -12 9.5t-4 19t-3 16.5q-4 8 9 21q29 9 79 16l13 8q-2 14 2 35.5
t4 30.5zM881 158q13 -30 7.5 -60.5t-26.5 -52.5q-2 -3 -5 -5.5t-6 -3.5t-7 -2.5t-6 -2.5q-12 1 -19.5 9t-9.5 15.5t-4.5 22.5t-3.5 20q1 5 5 30t11 36q7 4 18.5 20.5t24.5 16.5l6 -6q-3 -10 5.5 -21t9.5 -16zM604 86q0 -22 -29 -47l-13 -7q-13 -6 -21 -1q-8 2 -9.5 7.5t2 17
t3.5 12.5q0 13 18 20q12 0 20 8q2 0 9 -0.5t12 -2.5t8 -7z" />
    <glyph glyph-name="apple" unicode="&#xf000;" horiz-adv-x="1966" 
d="M1802 1169q0 -8 -4 -8q-21 1 -28.5 1t-28.5 -2t-29 -3q-137 -6 -184 -14q-11 -10 -14.5 -35.5t-6.5 -32.5q0 -7 4 -17.5t5 -13.5q7 -10 28 -14q35 4 47 27q0 13 -14 24q-5 4 -20.5 5.5t-20.5 9.5q4 6 10.5 7.5t18.5 0t16 -1.5q21 -6 31 -33q-3 -31 -37 -55
q-7 -2 -21.5 -5t-21.5 -5q-72 17 -92 49q-4 21 -3.5 31t4.5 29.5t5 29.5q-3 5 -8 7t-11 1t-12 0l-67 -2q0 2 -2.5 4t-2.5 4q5 4 16.5 5t12.5 1q11 -2 24.5 -2t29.5 1t24 1q10 8 10 35q3 6 7 30t12 32q9 2 12 1t8.5 -7.5t7.5 -8.5q7 -11 7 -35.5t4 -38.5q4 -7 13 -8.5
t16.5 0.5t15.5 0q4 0 86.5 3t144.5 10q6 -3 8 -7zM1333 1032l-6 -4q-71 0 -104 -10q-2 1 -7 2.5t-8 2.5t-6.5 4t-5.5 7q12 77 2 115q-2 2 -4.5 2.5t-6 -1t-6.5 -3t-6.5 -3.5t-5.5 -3q-80 -49 -84 -99q-19 -19 -38 -10q-8 10 -6.5 31t-0.5 33l-2 63q-4 4 -16 3.5t-21 0.5
q-2 1 -8 1.5t-10 2.5t-4 7q14 -1 52.5 2.5t53.5 -0.5q7 -6 6 -30t13 -26q17 7 51.5 29t54.5 29q5 -3 26 -3t24 -16q4 -17 4 -48.5v-39.5q1 -3 2 -12t6 -12q19 -4 26 0q5 0 16.5 -2.5t18.5 -2.5q5 -5 0 -10zM915 1145q6 -41 -14 -64q-10 -6 -26 -20t-30 -22.5t-30 -10.5
q-8 3 -14 -6t-13 -4q-2 6 -24.5 4t-26.5 -2q-29 0 -43 6q-33 30 -38 47q-3 14 1 27q13 42 50 61q4 2 17.5 9t18 9t19 7t20.5 3.5t21 -1.5q91 -4 112 -43zM926 1360q-10 -12 -27.5 -17t-32.5 0q-26 35 -28 50q-12 19 -33 32.5t-37 18.5t-47.5 12t-42.5 10l-64 4
q-3 -3 -12 -2.5t-14 -1.5q-63 -19 -113 -43q-2 -3 -27.5 -23t-27.5 -38q-19 -49 -23 -143q5 -4 13 -5t17.5 0t14.5 0q48 5 176 5q8 -4 3 -15q-10 -10 -32 -1t-32 5q-13 1 -42 -1t-42 -1q-7 -1 -24 -2.5t-29 -4t-21 -7.5l-6 -8q-4 -50 2 -129q1 -4 0.5 -29t7.5 -29
q39 -2 77.5 2t64.5 5q3 2 6.5 2t6.5 -0.5t7 -2t6 -2.5q1 -1 1 -4t1 -4l-8 -4q-25 7 -80 0t-94 -4q-75 -5 -94 -4q-91 -4 -131 6l-4 6q7 7 18 11q7 -4 17.5 -6.5t18.5 -3.5t22.5 -2.5t21.5 -2.5q5 1 17.5 1t21 1.5t14.5 5.5q-1 39 10 101.5t13 89.5q-2 4 -6 8q-12 1 -37.5 0
t-43 1t-34.5 9q-1 4 1 7.5t5 3.5q41 -11 115 -7l4 7q12 92 31 135v6q95 112 243 127q62 8 144 -27q5 -2 19.5 -3.5t21.5 -4.5q86 -18 127 -72q4 -4 0 -18zM1579 -119l-8 -8q-27 2 -98 -5t-101 -3q-64 3 -213 -7t-231 -1q-19 -3 -39 -4t-42 0t-36.5 2t-41.5 4t-38 4
q-36 3 -75.5 3.5t-94.5 -0.5t-78 -1q-135 0 -204 -17q-24 -5 -31 9q0 9 -1.5 40.5t0 52.5t7.5 40q2 20 2 77t4 87q-5 30 -1 91t-1 91q0 51 6.5 146t7.5 122q3 52 1.5 146.5t0.5 146.5q6 14 24 13.5t30 0.5q5 -8 37.5 -5t37.5 3q25 24 27 2q1 -2 0.5 -12t5.5 -12
q-3 -72 -2 -112t8 -151.5t9 -148.5q45 14 121 57.5t116 57.5q6 2 19.5 11.5t23.5 12.5q1 0 5 4t7 4.5t9 -1.5q5 -2 7 -6.5t1.5 -8.5t-1.5 -10.5t-1 -9.5q-19 -60 -10 -125q3 -5 7.5 -5.5t11.5 1.5t9 2q13 10 37 24.5t33 20.5q57 34 84 43q5 4 19 13.5t20.5 14t17.5 11.5
t21 12t20 8l41 33q3 8 12 14q7 0 23 -12q0 -19 6 -58t6 -59q1 -4 6 -4.5t6 -3.5q4 -5 4 -11t-1 -10t-3.5 -11t-3.5 -9l4 -4q47 10 125 65t123 66q6 6 22 13t23 14q10 1 25 13.5t24 16.5t29 -6q11 0 14 -8q-1 -5 0 -8.5t4.5 -8.5t4.5 -7q-3 -9 -0.5 -29.5t-3.5 -26.5
q1 -10 0 -32.5t1 -37.5t9 -28q-2 -8 5 -25t-1 -22q1 -11 0 -19.5t1 -18.5t7 -17q5 -29 -2 -37q2 -10 5 -43.5t9 -51.5q-3 -4 -3 -9.5t1.5 -12.5t1.5 -10q0 -53 12 -152t13 -149l3 -9q2 -9 -1 -10zM870 1104q-13 63 -53 70q-2 -6 -7 -7.5t-12 0t-10 0.5q-14 6 -29 2.5
t-24 -14.5q-5 -7 -8 -13.5t-3 -14t-0.5 -12.5t2.5 -13.5t4 -12.5t7 -13t7.5 -11.5t8 -13t7.5 -11.5q2 -4 6 -5.5t8.5 -0.5t9.5 0q13 -1 18 0t17.5 7.5t16.5 7.5q2 2 16.5 13t18.5 20t-1 22zM1513 -20q-21 48 -36 65q-5 9 -17 26.5t-19 31.5t-9 30q-2 3 -5.5 9t-5 8.5t-3 8.5
t0.5 9q10 12 35 28t33 25l-19 35q-15 -1 -38 -10t-25 -10t-8 -6t-10 -7.5t-10 -2.5t-11 5q4 108 2 160l-4 6q-10 0 -55 15q-9 -72 -6 -99q-4 -11 -2 -40t-3 -40q2 -38 -2.5 -106.5t0.5 -104.5l-2 -14h49q3 1 13.5 -2t11.5 2q0 37 -2 57q1 6 -3 21t-2 24t15 13
q8 -3 12.5 -15.5t6.5 -15.5q-1 -10 9 -25.5t11 -21.5q14 -8 31 -34t29 -34q3 1 11 -2.5t15 -1.5q4 0 8 4t4 9zM1245 367q-8 23 -24 30q-5 5 -11.5 5.5t-9.5 -5.5q-10 -13 -13 -30.5t5 -30.5q3 -10 16 -11.5t23 3.5q18 12 14 39zM1249 31q0 27 -2 79t-2 76q0 6 1 17.5t1 20.5
t-2 16q-12 6 -18.5 5.5t-19 -3.5t-19.5 -2q-8 -14 -9.5 -33t0 -35t-0.5 -35q-2 -3 -7 -53q1 -6 1.5 -40t11.5 -50q31 0 61 10q4 8 4 27zM1147 252q-1 0 -7.5 -0.5t-9 -1t-8 -1.5t-8.5 -2t-8 -3t-8 -4.5t-6.5 -6t-6.5 -8.5q-3 -3 -6 -14t-8 -17.5t-16 -3.5q-4 13 -4 60
q-5 3 -15.5 0t-15.5 0q-15 -8 -23 -27q0 -139 9 -227l6 -8q7 -6 24.5 -2.5t22.5 0.5q-4 15 -1.5 43t-2.5 41q12 63 32 90q7 6 26.5 12.5t27.5 13.5q1 8 4 22.5t3.5 21.5t-1.5 22zM938 61q6 11 9 24.5t4.5 22.5t-0.5 26.5t-3 24t-5 27.5t-5 25q2 7 -9 15t-25 14.5t-17 9.5
q-3 4 -9.5 4t-7.5 -6q-23 3 -39 -8q-8 -4 -16 -16t-12 -15q-10 -7 -19 6q10 49 -6 152l-4 14h-16q-11 -4 -14.5 -12.5t-3 -21t-1.5 -17.5q-4 -23 -4 -70t-4 -70q2 -23 0 -67t0 -64q0 -10 -2.5 -34t-1.5 -39q18 -10 64 10q16 3 21.5 0t14 -14.5t13.5 -14.5q16 0 26 2
q25 14 49 41.5t23 50.5zM682 70q-8 25 -5.5 90t-14.5 84q-17 11 -48 24l-16 11q-13 -2 -23.5 -1t-23 -1t-21.5 -9q-6 -4 -9.5 -10.5t-4.5 -11.5t-1.5 -16t-0.5 -15q16 -6 32 -2t33.5 1.5t26.5 -17.5q-1 -4 3 -12.5t-1 -12.5q-6 -11 2 -16q3 -4 1.5 -11t-7.5 -8
q-10 -3 -29 -3.5t-28 -2.5q-38 -15 -51 -76q-4 -7 -1.5 -22.5t-2.5 -20.5q0 -22 30 -35q11 11 17 5q10 -3 19.5 2t21.5 15.5t18 14.5q13 3 14.5 -5t-1 -18.5t4.5 -17.5q4 -5 16.5 -0.5t16.5 4.5q3 1 10 3t12 4t9 6zM508 371q-26 5 -107 0q-36 -4 -55 -17q-1 -25 -7 -72.5
t-7 -60.5q3 -39 2.5 -112t1.5 -113q3 0 15.5 2.5t13.5 -0.5q7 2 23.5 -1.5t23.5 1.5q1 22 2 65t2 64q5 11 33 25q4 2 15.5 0.5t14.5 5.5l-2 57q-4 4 -9.5 6t-9.5 2.5t-12.5 0t-11.5 -0.5q-8 -8 -14 -8q-9 2 -12 9.5t-4 19t-3 16.5q-4 8 9 21q29 9 79 16l13 8q-2 14 2 35.5
t4 30.5zM881 158q13 -30 7.5 -60.5t-26.5 -52.5q-2 -3 -5 -5.5t-6 -3.5t-7 -2.5t-6 -2.5q-12 1 -19.5 9t-9.5 15.5t-4.5 22.5t-3.5 20q1 5 5 30t11 36q7 4 18.5 20.5t24.5 16.5l6 -6q-3 -10 5.5 -21t9.5 -16zM604 86q0 -22 -29 -47l-13 -7q-13 -6 -21 -1q-8 2 -9.5 7.5t2 17
t3.5 12.5q0 13 18 20q12 0 20 8q2 0 9 -0.5t12 -2.5t8 -7z" />
    <glyph glyph-name="Ograve.cap" unicode="&#xe0f1;" horiz-adv-x="1636" 
d="M1448 729q0 -223 -74.5 -390t-227.5 -263t-368 -96q-163 0 -288.5 53.5t-204 151t-118.5 227.5t-40 288q0 221 75.5 388.5t228 264.5t364.5 97q159 0 284.5 -55t205.5 -153t121.5 -228t41.5 -285zM1300 700q0 108 -17 200t-56.5 172.5t-100 136.5t-151 88t-205.5 32
q-130 0 -228 -48t-155 -132t-85 -189.5t-28 -230.5q0 -110 17 -202t56 -172t99 -135.5t150.5 -87.5t206.5 -32q108 0 193.5 32.5t141.5 87.5t93 133t53 163.5t16 183.5zM889 1632l-64 -88l-352 174l78 113z" />
    <glyph glyph-name="Uacute.cap" unicode="&#xe0f2;" horiz-adv-x="1495" 
d="M1229 535q0 -264 -138 -408.5t-376 -144.5q-232 0 -371 138t-139 390v920h135v-906q0 -205 100 -315.5t279 -110.5q181 0 281 108.5t100 317.5v906h129v-895zM1059 1718l-352 -174l-64 88l338 199z" />
    <glyph glyph-name="Ucircumflex.cap" unicode="&#xe0f3;" horiz-adv-x="1495" 
d="M1229 535q0 -264 -138 -408.5t-376 -144.5q-232 0 -371 138t-139 390v920h135v-906q0 -205 100 -315.5t279 -110.5q181 0 281 108.5t100 317.5v906h129v-895zM1004 1632l-64 -80l-213 138l-209 -138l-57 74l268 197z" />
    <glyph glyph-name="Ugrave.cap" unicode="&#xe0f4;" horiz-adv-x="1495" 
d="M1229 535q0 -264 -138 -408.5t-376 -144.5q-232 0 -371 138t-139 390v920h135v-906q0 -205 100 -315.5t279 -110.5q181 0 281 108.5t100 317.5v906h129v-895zM825 1632l-63 -88l-352 174l77 113z" />
    <glyph glyph-name="dotlessi.sc" unicode="&#xe0f5;" horiz-adv-x="593" 
d="M365 0h-136v1200h136v-1200z" />
    <glyph glyph-name="acute.cap" unicode="&#xf6c9;" horiz-adv-x="716" 
d="M416 1718l-353 -174l-63 88l338 199z" />
    <glyph glyph-name="caron.cap" unicode="&#xf6ca;" horiz-adv-x="921" 
d="M543 1749l-269 -197l-274 191l63 80l213 -137l209 137z" />
    <glyph glyph-name="dieresis.cap" unicode="&#xf6cb;" horiz-adv-x="921" 
d="M618 1649q0 -36 -26 -62t-62 -26q-35 0 -61.5 26.5t-26.5 61.5q0 37 26.5 63.5t61.5 26.5q37 0 62.5 -26.5t25.5 -63.5zM176 1649q0 -36 -26 -62t-62 -26q-35 0 -61.5 26.5t-26.5 61.5q0 37 26.5 63.5t61.5 26.5q37 0 62.5 -26.5t25.5 -63.5z" />
    <glyph glyph-name="grave.cap" unicode="&#xf6ce;" horiz-adv-x="716" 
d="M416 1632l-64 -88l-352 174l78 113z" />
    <glyph glyph-name="hungarumlaut.cap" unicode="&#xf6cf;" horiz-adv-x="737" 
d="M721 1763l-246 -252l-84 76l217 260zM330 1763l-246 -252l-84 76l215 260z" />
    <glyph glyph-name="macron.cap" unicode="&#xf6d0;" horiz-adv-x="552" 
d="M553 1559h-553v98h553v-98z" />
    <glyph glyph-name="commainferior" unicode="&#xf6e1;" horiz-adv-x="479" 
d="M242 195q38 0 66 -30.5t28 -84.5q0 -148 -209 -354l-61 51q112 139 112 211q0 24 -16.5 55.5t-16.5 52.5q0 42 26 70.5t71 28.5z" />
    <glyph glyph-name="commasuperior" unicode="&#xf6e2;" horiz-adv-x="479" 
d="M242 909q38 0 66 -30t28 -84q0 -149 -209 -355l-61 52q112 139 112 210q0 24 -16.5 56t-16.5 53q0 42 26 70t71 28z" />
    <glyph glyph-name="periodinferior" unicode="&#xf6e7;" horiz-adv-x="479" 
d="M240 195q43 0 72.5 -30t29.5 -73t-29.5 -72.5t-72.5 -29.5t-73 29.5t-30 72.5t30 73t73 30z" />
    <glyph glyph-name="periodsuperior" unicode="&#xf6e8;" horiz-adv-x="479" 
d="M240 909q43 0 72.5 -29.5t29.5 -72.5t-29.5 -72.5t-72.5 -29.5t-73 29.5t-30 72.5t30 72.5t73 29.5z" />
    <glyph glyph-name="breve.sc" unicode="&#xf6f4;" horiz-adv-x="528" 
d="M528 1651q0 -44 -6 -83t-24 -80t-46.5 -70t-77 -47.5t-112.5 -18.5q-262 0 -262 299h100q0 -83 42.5 -139t123.5 -56q78 0 120 50.5t42 144.5h100z" />
    <glyph glyph-name="caron.sc" unicode="&#xf6f5;" horiz-adv-x="737" 
d="M545 1591l-271 -243l-274 239l68 76l211 -170l204 170z" />
    <glyph glyph-name="circumflex.sc" unicode="&#xf6f6;" horiz-adv-x="798" 
d="M543 1421l-68 -75l-211 170l-205 -170l-59 71l268 242z" />
    <glyph glyph-name="dotaccent.sc" unicode="&#xf6f7;" horiz-adv-x="552" 
d="M379 1495q0 -43 -30 -72.5t-73 -29.5t-72.5 29.5t-29.5 72.5t29.5 72.5t72.5 29.5t73 -29.5t30 -72.5z" />
    <glyph glyph-name="hungarumlaut.sc" unicode="&#xf6f8;" horiz-adv-x="880" 
d="M758 1563l-291 -224l-74 76l266 242zM365 1563l-291 -224l-74 76l266 242z" />
    <glyph glyph-name="Lslash.sc" unicode="&#xf6f9;" horiz-adv-x="980" 
d="M885 0h-627v621l-137 -86l-39 94l176 110v461h135v-375l228 144l38 -95l-266 -167v-586h492v-121z" />
    <glyph glyph-name="OE.sc" unicode="&#xf6fa;" horiz-adv-x="1691" 
d="M1522 0h-660q-82 -18 -170 -18q-136 0 -241.5 45.5t-171 127.5t-99 190.5t-33.5 238.5q0 181 64 323t193 226t305 84q71 0 161 -17h643v-121h-501v-393h440v-121h-440v-444h510v-121zM877 127v940q-92 29 -189 29q-128 0 -218.5 -66.5t-132.5 -174t-42 -243.5
q0 -85 12.5 -157.5t42.5 -139t77 -112.5t120.5 -73.5t167.5 -27.5q82 0 162 25z" />
    <glyph glyph-name="ogonek.sc" unicode="&#xf6fb;" horiz-adv-x="569" 
d="M545 -381q-81 -35 -164 -35q-209 0 -209 162q0 124 107 254h114q-104 -112 -104 -231q0 -52 26 -76.5t88 -24.5q56 0 117 25z" />
    <glyph glyph-name="ring.sc" unicode="&#xf6fc;" horiz-adv-x="512" 
d="M389 1446q0 -83 -55 -139t-144 -56q-94 0 -142 52t-48 135q0 85 53 138.5t146 53.5q88 0 139 -50t51 -134zM299 1438q0 50 -26 82t-78 32q-50 0 -77.5 -29.5t-27.5 -76.5q0 -117 107 -117q49 0 75.5 31t26.5 78z" />
    <glyph glyph-name="Scaron.sc" unicode="&#xf6fd;" horiz-adv-x="925" 
d="M803 330q0 -161 -112.5 -254.5t-297.5 -93.5q-142 0 -246 36l25 129q116 -43 250 -43q107 0 169 57.5t62 157.5q0 74 -49.5 126.5t-193.5 121.5q-147 71 -208 145t-61 175q0 151 101 240.5t266 89.5q123 0 219 -35l-27 -115q-99 29 -204 29t-157 -53.5t-52 -141.5
q0 -66 45 -114.5t182 -114.5q156 -75 222.5 -154t66.5 -188zM727 1591l-270 -243l-275 239l68 76l211 -170l205 170z" />
    <glyph glyph-name="tilde.sc" unicode="&#xf6fe;" horiz-adv-x="901" 
d="M680 1538q-34 -70 -92.5 -111t-124.5 -41q-45 0 -83 14t-59.5 30.5t-51 30.5t-60.5 14q-38 0 -73 -28t-58 -77l-78 62q35 70 93 110.5t124 40.5q45 0 82.5 -13.5t59 -30.5t51 -30.5t59.5 -13.5q39 0 74.5 27t58.5 75z" />
    <glyph glyph-name="Zcaron.sc" unicode="&#xf6ff;" horiz-adv-x="1021" 
d="M928 0h-834v115l678 966h-659v119h807v-125l-680 -954h688v-121zM786 1591l-270 -243l-274 239l67 76l211 -170l205 170z" />
    <glyph glyph-name="zero" unicode="&#xf730;" 
d="M1049 608q0 -104 -16.5 -195.5t-54 -172.5t-93.5 -138.5t-139.5 -91t-186.5 -33.5q-252 0 -367.5 160t-115.5 469q0 95 15.5 181t52.5 167t92 139.5t140 94t191 35.5q94 0 170 -25t127.5 -70.5t88.5 -102.5t57.5 -128.5t29.5 -141.5t9 -147zM909 596q0 85 -9.5 157.5
t-34 141.5t-62.5 117t-100 77t-142 29q-92 0 -161 -41t-109 -112.5t-59 -159.5t-19 -191q0 -272 87 -401t271 -129q85 0 148 31t98.5 78.5t57 118.5t28 136.5t6.5 147.5z" />
    <glyph glyph-name="one" unicode="&#xf731;" 
d="M993 0h-778v113h358v934l-333 -187l-47 86l393 254h121v-1087h286v-113z" />
    <glyph glyph-name="two" unicode="&#xf732;" 
d="M1001 0h-878v106l301 248q146 120 224 205.5t105 148.5t27 138q0 113 -73.5 188.5t-212.5 75.5q-146 0 -320 -59l-14 108q195 64 342 64q202 0 311 -104.5t109 -260.5q0 -135 -84.5 -256t-284.5 -280l-262 -207h710v-115z" />
    <glyph glyph-name="three" unicode="&#xf733;" 
d="M956 160q0 -192 -146.5 -305t-406.5 -113q-152 0 -303 29v102q150 -16 320 -16q190 0 292.5 78.5t102.5 216.5q0 84 -37.5 145t-101 92.5t-131.5 45.5t-144 14h-114v116h96q188 0 293.5 79t105.5 210q0 118 -70.5 187t-215.5 69q-163 0 -320 -59l-16 108q180 64 344 64
q200 0 308 -97t108 -258q0 -125 -86.5 -221.5t-219.5 -124.5v-4q157 -6 249.5 -106t92.5 -252z" />
    <glyph glyph-name="four" unicode="&#xf734;" 
d="M1053 117h-213v-355h-133v355h-652v112l586 971h199v-969h213v-114zM707 231v850h-5l-512 -850h517z" />
    <glyph glyph-name="five" unicode="&#xf735;" 
d="M987 227q0 -229 -149.5 -357t-413.5 -128q-158 0 -309 29v102q148 -16 313 -16q199 0 308.5 88.5t109.5 267.5q0 155 -99 230t-303 75q-45 0 -86.5 -2.5t-98.5 -7.5t-73 -6l15 698h678v-117h-551l-11 -456q60 8 175 8q239 0 367 -114.5t128 -293.5z" />
    <glyph glyph-name="six" unicode="&#xf736;" 
d="M1028 457q0 -84 -29 -166t-84 -152.5t-146.5 -114.5t-205.5 -44q-438 0 -438 684q0 123 15 229t54.5 210.5t102.5 178t166 119t237 45.5q70 0 147 -13t122 -32l-27 -103q-112 41 -258 41q-108 0 -189.5 -46t-130.5 -127t-74 -181.5t-28 -220.5h2q164 113 350 113
q94 0 168 -26.5t119 -68t74.5 -98.5t41 -112.5t11.5 -114.5zM889 444q0 141 -71 227.5t-224 86.5q-78 0 -170 -28.5t-160 -72.5q0 -300 80 -433.5t238 -133.5q75 0 135.5 33.5t97 86.5t55.5 113.5t19 120.5z" />
    <glyph glyph-name="seven" unicode="&#xf737;" 
d="M1014 1073l-410 -975q-83 -196 -203 -358l-84 49q90 146 207 430l359 864h-762v117h893v-127z" />
    <glyph glyph-name="eight" unicode="&#xf738;" 
d="M1030 358q0 -175 -128.5 -278t-348.5 -103q-217 0 -339 89.5t-122 261.5q0 132 87 226.5t253 178.5q-285 144 -285 367q0 70 27 132t78 112t134 79t187 29q188 0 295 -94.5t107 -227.5q0 -219 -303 -382q85 -40 146 -78t111.5 -85.5t75.5 -104t25 -122.5zM838 1112
q0 107 -75.5 171.5t-201.5 64.5q-134 0 -205 -67.5t-71 -170.5q0 -91 65 -163t213 -146q275 144 275 311zM891 338q0 45 -15.5 83.5t-41.5 70t-72.5 64t-96 59.5t-124.5 63q-70 -36 -119.5 -68t-96 -73t-70.5 -89t-24 -102q0 -262 344 -262q144 0 230 72t86 182z" />
    <glyph glyph-name="nine" unicode="&#xf739;" 
d="M995 535q0 -136 -19 -252t-62 -217t-108.5 -172t-164 -111.5t-223.5 -40.5q-146 0 -301 29l8 106q169 -24 309 -24q106 0 183 39.5t126 117t76.5 181t38.5 243.5h-4q-160 -112 -348 -112q-111 0 -193.5 36t-129 98t-69 135.5t-22.5 158.5q0 89 28.5 172t83.5 151t145 109
t202 41q444 0 444 -688zM856 541q0 299 -80 435t-237 136q-64 0 -117 -22t-87.5 -57t-58.5 -80.5t-34.5 -91t-10.5 -89.5q0 -71 15.5 -129t48.5 -104.5t91 -72.5t138 -26q78 0 170.5 28.5t161.5 72.5z" />
    <glyph glyph-name="grave.sc" unicode="&#xf760;" horiz-adv-x="593" 
d="M358 1421l-77 -82l-281 222l94 96z" />
    <glyph glyph-name="A.sc" unicode="&#xf761;" horiz-adv-x="1196" 
d="M1110 0h-156q-77 248 -106 334h-512q-46 -135 -105 -334h-145q220 687 438 1200h135q227 -527 451 -1200zM805 446q-69 200 -219 594q-81 -208 -213 -594h432z" />
    <glyph glyph-name="B.sc" unicode="&#xf762;" 
d="M1008 348q0 -163 -105 -255.5t-276 -92.5h-398v1200h353q173 0 261.5 -80.5t88.5 -222.5q0 -81 -36 -146t-99 -106q91 -29 151 -110t60 -187zM788 885q0 194 -221 194h-202v-401h233q190 0 190 207zM864 332q0 110 -69 168.5t-201 58.5h-229v-438h272q96 0 161.5 56
t65.5 155z" />
    <glyph glyph-name="C.sc" unicode="&#xf763;" horiz-adv-x="1148" 
d="M1049 61q-170 -75 -330 -75q-251 0 -406 155q-81 81 -124.5 195t-43.5 250q0 139 43.5 256.5t119.5 198.5t182 126t229 45q90 0 162.5 -15t160.5 -56l-53 -111q-135 62 -280 62q-180 0 -298 -135.5t-118 -358.5q0 -231 122.5 -360t319.5 -129q131 0 273 63z" />
    <glyph glyph-name="D.sc" unicode="&#xf764;" horiz-adv-x="1325" 
d="M1184 616q0 -297 -156.5 -456.5t-441.5 -159.5h-357v1200h377q273 0 425.5 -158.5t152.5 -425.5zM1036 610q0 103 -27 187.5t-79.5 148t-136.5 98.5t-193 35h-235v-958h231q220 0 330 119t110 370z" />
    <glyph glyph-name="E.sc" unicode="&#xf765;" horiz-adv-x="1044" 
d="M874 0h-645v1200h637v-121h-501v-393h440v-121h-440v-444h509v-121z" />
    <glyph glyph-name="F.sc" unicode="&#xf766;" horiz-adv-x="966" 
d="M852 1079h-487v-420h438v-122h-438v-537h-136v1200h623v-121z" />
    <glyph glyph-name="G.sc" unicode="&#xf767;" horiz-adv-x="1310" 
d="M1126 1110l-55 -113q-72 44 -164.5 68.5t-173.5 24.5q-203 0 -324.5 -138.5t-121.5 -353.5q0 -229 127.5 -360.5t328.5 -131.5q117 0 242 37v482h135v-576q-173 -67 -393 -67q-268 0 -427 168.5t-159 437.5q0 184 76.5 326.5t213.5 220t312 77.5q97 0 200 -26.5
t183 -75.5z" />
    <glyph glyph-name="H.sc" unicode="&#xf768;" horiz-adv-x="1372" 
d="M1143 0h-135v567h-643v-567h-136v1200h136v-512h643v512h135v-1200z" />
    <glyph glyph-name="I.sc" unicode="&#xf769;" horiz-adv-x="593" 
d="M365 0h-136v1200h136v-1200z" />
    <glyph glyph-name="J.sc" unicode="&#xf76a;" horiz-adv-x="679" 
d="M451 338q0 -105 -20.5 -177.5t-59 -109.5t-82 -52t-101.5 -15q-66 0 -118 10v102h75q91 0 130.5 50t39.5 178v876h136v-862z" />
    <glyph glyph-name="K.sc" unicode="&#xf76b;" horiz-adv-x="1159" 
d="M1081 0h-190l-442 612l-84 -82v-530h-136v1200h136v-522l514 522h192l-524 -504z" />
    <glyph glyph-name="L.sc" unicode="&#xf76c;" horiz-adv-x="907" 
d="M856 0h-627v1200h136v-1079h491v-121z" />
    <glyph glyph-name="M.sc" unicode="&#xf76d;" horiz-adv-x="1775" 
d="M1563 0h-142q-7 412 -92 1020l-381 -1020h-133l-379 1024q-4 -30 -16 -134.5t-17 -148.5t-15.5 -138.5t-15.5 -154.5t-11 -143t-9 -157.5t-4 -147.5h-135q4 273 35.5 555.5t87.5 644.5h184l361 -991l381 991h184q7 -53 26.5 -203.5t27 -210t22 -185t20.5 -204.5
t12.5 -187.5t8.5 -209.5z" />
    <glyph glyph-name="N.sc" unicode="&#xf76e;" horiz-adv-x="1390" 
d="M1161 0h-155l-646 1020v-1020h-131v1200h179l622 -987v987h131v-1200z" />
    <glyph glyph-name="O.sc" unicode="&#xf76f;" horiz-adv-x="1404" 
d="M1257 612q0 -286 -146 -458t-419 -172q-136 0 -241.5 45.5t-171 127.5t-99 190.5t-33.5 238.5q0 181 64 323t193 226t305 84q132 0 237 -46.5t172.5 -128t103 -191.5t35.5 -239zM1110 588q0 88 -13.5 162.5t-45 139t-79.5 110t-120 71t-164 25.5q-128 0 -218.5 -66.5
t-132.5 -174t-42 -243.5q0 -85 12.5 -157.5t42.5 -139t77 -112.5t120.5 -73.5t167.5 -27.5q85 0 153 26t113 71t74.5 107.5t42 132t12.5 149.5z" />
    <glyph glyph-name="P.sc" unicode="&#xf770;" horiz-adv-x="1064" 
d="M938 846q0 -165 -114.5 -271t-293.5 -106h-165v-469h-136v1200h334q174 0 274.5 -99.5t100.5 -254.5zM791 836q0 110 -62 176.5t-178 66.5h-186v-491h186q112 0 176 68t64 180z" />
    <glyph glyph-name="Q.sc" unicode="&#xf771;" horiz-adv-x="1404" 
d="M1337 -16l-86 -97l-211 201q-137 -106 -348 -106q-136 0 -241.5 45.5t-171 127.5t-99 190.5t-33.5 238.5q0 181 64 323t193 226t305 84q132 0 237 -46.5t172.5 -128t103 -191.5t35.5 -239q0 -268 -127 -432zM1110 588q0 88 -13.5 162.5t-45 139t-79.5 110t-120 71
t-164 25.5q-128 0 -218.5 -66.5t-132.5 -174t-42 -243.5q0 -85 12.5 -157.5t42.5 -139t77 -112.5t120.5 -73.5t167.5 -27.5q138 0 237 72l-233 221l86 99l231 -224q74 124 74 318z" />
    <glyph glyph-name="R.sc" unicode="&#xf772;" horiz-adv-x="1112" 
d="M981 0h-170l-311 549h-135v-549h-136v1200h281q194 0 292.5 -85.5t98.5 -229.5q0 -123 -72 -204t-184 -116zM754 872q0 88 -59.5 147.5t-192.5 59.5h-137v-413h139q125 0 187.5 57.5t62.5 148.5z" />
    <glyph glyph-name="S.sc" unicode="&#xf773;" horiz-adv-x="925" 
d="M803 330q0 -161 -112.5 -254.5t-297.5 -93.5q-142 0 -246 36l25 129q116 -43 250 -43q107 0 169 57.5t62 157.5q0 74 -49.5 126.5t-193.5 121.5q-147 71 -208 145t-61 175q0 151 101 240.5t266 89.5q123 0 219 -35l-27 -115q-99 29 -204 29t-157 -53.5t-52 -141.5
q0 -66 45 -114.5t182 -114.5q156 -75 222.5 -154t66.5 -188z" />
    <glyph glyph-name="T.sc" unicode="&#xf774;" horiz-adv-x="1003" 
d="M956 1085h-387v-1085h-135v1085h-387v115h909v-115z" />
    <glyph glyph-name="U.sc" unicode="&#xf775;" horiz-adv-x="1359" 
d="M1135 508q0 -254 -122.5 -390t-342.5 -136q-214 0 -329.5 133.5t-115.5 390.5v694h135v-694q0 -408 320 -408q169 0 244 105t75 309v688h136v-692z" />
    <glyph glyph-name="V.sc" unicode="&#xf776;" horiz-adv-x="1155" 
d="M1094 1200q-195 -621 -445 -1200h-125q-249 553 -454 1200h161q138 -492 363 -1030q227 582 354 1030h146z" />
    <glyph glyph-name="W.sc" unicode="&#xf777;" horiz-adv-x="1794" 
d="M1700 1200q-144 -539 -383 -1200h-154l-272 991l-260 -991h-152q-235 642 -381 1200h158q115 -476 299 -1010l262 1010h162l278 -1010q199 604 287 1010h156z" />
    <glyph glyph-name="X.sc" unicode="&#xf778;" horiz-adv-x="1114" 
d="M1057 0h-180l-328 510l-332 -510h-168l426 618l-389 582h174l297 -463l301 463h164l-391 -573z" />
    <glyph glyph-name="Y.sc" unicode="&#xf779;" horiz-adv-x="1101" 
d="M1059 1200q-238 -411 -436 -684v-516h-136v516q-218 293 -444 684h166q189 -355 356 -573q187 279 320 573h174z" />
    <glyph glyph-name="Z.sc" unicode="&#xf77a;" horiz-adv-x="1021" 
d="M928 0h-834v115l678 966h-659v119h807v-125l-680 -954h688v-121z" />
    <glyph glyph-name="dieresis.sc" unicode="&#xf7a8;" horiz-adv-x="798" 
d="M84 1577q37 0 62.5 -25.5t25.5 -60.5q0 -36 -26 -62t-62 -26q-35 0 -59.5 26t-24.5 62q0 35 24.5 60.5t59.5 25.5zM494 1577q35 0 59.5 -25.5t24.5 -60.5q0 -36 -24.5 -62t-59.5 -26q-36 0 -62 26t-26 62q0 35 25.5 60.5t62.5 25.5z" />
    <glyph glyph-name="macron.sc" unicode="&#xf7af;" horiz-adv-x="696" 
d="M553 1444h-553v98h553v-98z" />
    <glyph glyph-name="acute.sc" unicode="&#xf7b4;" horiz-adv-x="632" 
d="M365 1563l-291 -224l-74 76l266 242z" />
    <glyph glyph-name="cedilla.sc" unicode="&#xf7b8;" horiz-adv-x="569" 
d="M487 -217q0 -46 -50.5 -78.5t-164.5 -32.5q-107 0 -184 23v86h205q65 0 65 26q0 23 -12 50l-63 143h118l54 -111q32 -63 32 -106z" />
    <glyph glyph-name="Agrave.sc" unicode="&#xf7e0;" horiz-adv-x="1196" 
d="M1110 0h-156q-77 248 -106 334h-512q-46 -135 -105 -334h-145q220 687 438 1200h135q227 -527 451 -1200zM805 446q-69 200 -219 594q-81 -208 -213 -594h432zM651 1421l-78 -82l-280 222l94 96z" />
    <glyph glyph-name="Aacute.sc" unicode="&#xf7e1;" horiz-adv-x="1196" 
d="M1110 0h-156q-77 248 -106 334h-512q-46 -135 -105 -334h-145q220 687 438 1200h135q227 -527 451 -1200zM805 446q-69 200 -219 594q-81 -208 -213 -594h432zM864 1563l-291 -224l-73 76l266 242z" />
    <glyph glyph-name="Acircumflex.sc" unicode="&#xf7e2;" horiz-adv-x="1196" 
d="M1110 0h-156q-77 248 -106 334h-512q-46 -135 -105 -334h-145q220 687 438 1200h135q227 -527 451 -1200zM805 446q-69 200 -219 594q-81 -208 -213 -594h432zM866 1421l-67 -75l-211 170l-205 -170l-59 71l268 242z" />
    <glyph glyph-name="Atilde.sc" unicode="&#xf7e3;" horiz-adv-x="1196" 
d="M1110 0h-156q-77 248 -106 334h-512q-46 -135 -105 -334h-145q220 687 438 1200h135q227 -527 451 -1200zM805 446q-69 200 -219 594q-81 -208 -213 -594h432zM930 1538q-34 -70 -92.5 -111t-124.5 -41q-45 0 -83 14t-59.5 30.5t-51 30.5t-60.5 14q-38 0 -73 -28t-58 -77
l-78 62q35 70 93 110.5t124 40.5q45 0 82.5 -13.5t59 -30.5t51 -30.5t59.5 -13.5q39 0 74.5 27t58.5 75z" />
    <glyph glyph-name="Adieresis.sc" unicode="&#xf7e4;" horiz-adv-x="1196" 
d="M1110 0h-156q-77 248 -106 334h-512q-46 -135 -105 -334h-145q220 687 438 1200h135q227 -527 451 -1200zM805 446q-69 200 -219 594q-81 -208 -213 -594h432zM381 1577q37 0 62.5 -25.5t25.5 -60.5q0 -36 -26 -62t-62 -26q-35 0 -59.5 26t-24.5 62q0 35 24.5 60.5
t59.5 25.5zM791 1577q35 0 59 -25t24 -61t-24 -62t-59 -26q-37 0 -63 26.5t-26 61.5t26 60.5t63 25.5z" />
    <glyph glyph-name="Aring.sc" unicode="&#xf7e5;" horiz-adv-x="1196" 
d="M1110 0h-156q-77 248 -106 334h-512q-46 -135 -105 -334h-145q220 687 438 1200h135q227 -527 451 -1200zM805 446q-69 200 -219 594q-81 -208 -213 -594h432zM784 1446q0 -84 -54.5 -139.5t-143.5 -55.5q-94 0 -142.5 52t-48.5 135q0 85 53 138.5t146 53.5q88 0 139 -50
t51 -134zM694 1438q0 50 -26 82t-78 32q-50 0 -77.5 -29.5t-27.5 -76.5q0 -117 107 -117q49 0 75.5 31t26.5 78z" />
    <glyph glyph-name="AE.sc" unicode="&#xf7e6;" horiz-adv-x="1574" 
d="M1405 0h-645v289h-459q-132 -260 -147 -289h-140q303 595 691 1200h679v-125h-489v-389h442v-123h-442v-440h510v-123zM760 406v663h-4q-180 -291 -383 -663h387z" />
    <glyph glyph-name="Ccedilla.sc" unicode="&#xf7e7;" horiz-adv-x="1148" 
d="M864 -217q0 -46 -50.5 -78.5t-164.5 -32.5q-107 0 -184 23v86h205q65 0 65 26q0 23 -12 50l-59 131q-219 18 -351 153q-81 81 -124.5 195t-43.5 250q0 139 43.5 256.5t119.5 198.5t182 126t229 45q90 0 162.5 -15t160.5 -56l-53 -111q-135 62 -280 62q-180 0 -298 -135.5
t-118 -358.5q0 -231 122.5 -360t319.5 -129q131 0 273 63l41 -111q-129 -59 -267 -71l49 -101q33 -65 33 -106z" />
    <glyph glyph-name="Egrave.sc" unicode="&#xf7e8;" horiz-adv-x="1044" 
d="M874 0h-645v1200h637v-121h-501v-393h440v-121h-440v-444h509v-121zM633 1421l-78 -82l-281 222l95 96z" />
    <glyph glyph-name="Eacute.sc" unicode="&#xf7e9;" horiz-adv-x="1044" 
d="M874 0h-645v1200h637v-121h-501v-393h440v-121h-440v-444h509v-121zM803 1563l-291 -224l-74 76l267 242z" />
    <glyph glyph-name="Ecircumflex.sc" unicode="&#xf7ea;" horiz-adv-x="1044" 
d="M874 0h-645v1200h637v-121h-501v-393h440v-121h-440v-444h509v-121zM815 1421l-67 -75l-211 170l-205 -170l-60 71l269 242z" />
    <glyph glyph-name="Edieresis.sc" unicode="&#xf7eb;" horiz-adv-x="1044" 
d="M874 0h-645v1200h637v-121h-501v-393h440v-121h-440v-444h509v-121zM336 1577q37 0 62.5 -25.5t25.5 -60.5q0 -36 -26 -62t-62 -26q-35 0 -59.5 26t-24.5 62q0 35 24.5 60.5t59.5 25.5zM745 1577q35 0 59.5 -25.5t24.5 -60.5q0 -36 -24.5 -62t-59.5 -26q-36 0 -62 26
t-26 62q0 35 25.5 60.5t62.5 25.5z" />
    <glyph glyph-name="Igrave.sc" unicode="&#xf7ec;" horiz-adv-x="593" 
d="M365 0h-136v1200h136v-1200zM434 1421l-78 -82l-280 222l94 96z" />
    <glyph glyph-name="Iacute.sc" unicode="&#xf7ed;" horiz-adv-x="593" 
d="M365 0h-136v1200h136v-1200zM524 1563l-291 -224l-73 76l266 242z" />
    <glyph glyph-name="Icircumflex.sc" unicode="&#xf7ee;" horiz-adv-x="593" 
d="M365 0h-136v1200h136v-1200zM569 1421l-67 -75l-211 170l-205 -170l-59 71l268 242z" />
    <glyph glyph-name="Idieresis.sc" unicode="&#xf7ef;" horiz-adv-x="593" 
d="M365 0h-136v1200h136v-1200zM571 1491q0 -36 -24.5 -62t-59.5 -26q-36 0 -62 26t-26 62q0 35 25.5 60.5t62.5 25.5q35 0 59.5 -25.5t24.5 -60.5zM195 1491q0 -35 -26.5 -61.5t-62.5 -26.5q-35 0 -59 26t-24 62t24 61t59 25q37 0 63 -25.5t26 -60.5z" />
    <glyph glyph-name="Eth.sc" unicode="&#xf7f0;" horiz-adv-x="1404" 
d="M1208 616q0 -297 -156.5 -456.5t-441.5 -159.5h-356v545h-176v114h176v541h377q273 0 425 -158.5t152 -425.5zM1061 610q0 103 -27 187.5t-79.5 148t-136.5 98.5t-193 35h-236v-420h268v-114h-268v-424h232q220 0 330 119t110 370z" />
    <glyph glyph-name="Ntilde.sc" unicode="&#xf7f1;" horiz-adv-x="1390" 
d="M1161 0h-155l-646 1020v-1020h-131v1200h179l622 -987v987h131v-1200zM1030 1538q-34 -70 -92.5 -111t-124.5 -41q-45 0 -83 14t-59.5 30.5t-51 30.5t-60.5 14q-38 0 -73 -28t-58 -77l-78 62q35 70 93 110.5t124 40.5q45 0 82.5 -13.5t59 -30.5t51 -30.5t59.5 -13.5
q39 0 74.5 27t58.5 75z" />
    <glyph glyph-name="Ograve.sc" unicode="&#xf7f2;" horiz-adv-x="1404" 
d="M1257 612q0 -286 -146 -458t-419 -172q-136 0 -241.5 45.5t-171 127.5t-99 190.5t-33.5 238.5q0 181 64 323t193 226t305 84q132 0 237 -46.5t172.5 -128t103 -191.5t35.5 -239zM1110 588q0 88 -13.5 162.5t-45 139t-79.5 110t-120 71t-164 25.5q-128 0 -218.5 -66.5
t-132.5 -174t-42 -243.5q0 -85 12.5 -157.5t42.5 -139t77 -112.5t120.5 -73.5t167.5 -27.5q85 0 153 26t113 71t74.5 107.5t42 132t12.5 149.5zM809 1421l-78 -82l-280 222l94 96z" />
    <glyph glyph-name="Oacute.sc" unicode="&#xf7f3;" horiz-adv-x="1404" 
d="M1257 612q0 -286 -146 -458t-419 -172q-136 0 -241.5 45.5t-171 127.5t-99 190.5t-33.5 238.5q0 181 64 323t193 226t305 84q132 0 237 -46.5t172.5 -128t103 -191.5t35.5 -239zM1110 588q0 88 -13.5 162.5t-45 139t-79.5 110t-120 71t-164 25.5q-128 0 -218.5 -66.5
t-132.5 -174t-42 -243.5q0 -85 12.5 -157.5t42.5 -139t77 -112.5t120.5 -73.5t167.5 -27.5q85 0 153 26t113 71t74.5 107.5t42 132t12.5 149.5zM956 1563l-290 -224l-74 76l266 242z" />
    <glyph glyph-name="Ocircumflex.sc" unicode="&#xf7f4;" horiz-adv-x="1404" 
d="M1257 612q0 -286 -146 -458t-419 -172q-136 0 -241.5 45.5t-171 127.5t-99 190.5t-33.5 238.5q0 181 64 323t193 226t305 84q132 0 237 -46.5t172.5 -128t103 -191.5t35.5 -239zM1110 588q0 88 -13.5 162.5t-45 139t-79.5 110t-120 71t-164 25.5q-128 0 -218.5 -66.5
t-132.5 -174t-42 -243.5q0 -85 12.5 -157.5t42.5 -139t77 -112.5t120.5 -73.5t167.5 -27.5q85 0 153 26t113 71t74.5 107.5t42 132t12.5 149.5zM973 1421l-68 -75l-211 170l-205 -170l-59 71l268 242z" />
    <glyph glyph-name="Otilde.sc" unicode="&#xf7f5;" horiz-adv-x="1404" 
d="M1257 612q0 -286 -146 -458t-419 -172q-136 0 -241.5 45.5t-171 127.5t-99 190.5t-33.5 238.5q0 181 64 323t193 226t305 84q132 0 237 -46.5t172.5 -128t103 -191.5t35.5 -239zM1110 588q0 88 -13.5 162.5t-45 139t-79.5 110t-120 71t-164 25.5q-128 0 -218.5 -66.5
t-132.5 -174t-42 -243.5q0 -85 12.5 -157.5t42.5 -139t77 -112.5t120.5 -73.5t167.5 -27.5q85 0 153 26t113 71t74.5 107.5t42 132t12.5 149.5zM1040 1538q-34 -70 -92.5 -111t-124.5 -41q-45 0 -83 14t-59.5 30.5t-51 30.5t-60.5 14q-38 0 -73 -28t-58 -77l-78 62
q35 70 93.5 110.5t124.5 40.5q45 0 82.5 -13.5t58.5 -30.5t50.5 -30.5t59.5 -13.5q40 0 75.5 27t58.5 75z" />
    <glyph glyph-name="Odieresis.sc" unicode="&#xf7f6;" horiz-adv-x="1404" 
d="M1257 612q0 -286 -146 -458t-419 -172q-136 0 -241.5 45.5t-171 127.5t-99 190.5t-33.5 238.5q0 181 64 323t193 226t305 84q132 0 237 -46.5t172.5 -128t103 -191.5t35.5 -239zM1110 588q0 88 -13.5 162.5t-45 139t-79.5 110t-120 71t-164 25.5q-128 0 -218.5 -66.5
t-132.5 -174t-42 -243.5q0 -85 12.5 -157.5t42.5 -139t77 -112.5t120.5 -73.5t167.5 -27.5q85 0 153 26t113 71t74.5 107.5t42 132t12.5 149.5zM500 1577q37 0 62.5 -25.5t25.5 -60.5q0 -36 -26 -62t-62 -26q-35 0 -59.5 26t-24.5 62q0 35 24.5 60.5t59.5 25.5zM909 1577
q35 0 59.5 -25.5t24.5 -60.5q0 -36 -24.5 -62t-59.5 -26q-36 0 -62 26t-26 62q0 35 25.5 60.5t62.5 25.5z" />
    <glyph glyph-name="Oslash.sc" unicode="&#xf7f8;" horiz-adv-x="1404" 
d="M1257 612q0 -187 -62 -326.5t-191 -220.5t-312 -81q-138 0 -239 43l-107 -185l-104 60l108 186q-101 78 -152 206t-51 290q0 181 64 323t193 226t305 84q144 0 260 -58l84 152l104 -62l-90 -155q94 -80 142 -205t48 -277zM1112 586q0 250 -119 381l-469 -817
q78 -35 191 -35q85 0 153.5 25.5t113.5 69t74.5 104t42.5 128t13 144.5zM899 1040q-85 43 -211 43q-128 0 -219 -65t-133.5 -169.5t-42.5 -236.5q0 -269 131 -395z" />
    <glyph glyph-name="Ugrave.sc" unicode="&#xf7f9;" horiz-adv-x="1359" 
d="M1135 508q0 -254 -122.5 -390t-342.5 -136q-214 0 -329.5 133.5t-115.5 390.5v694h135v-694q0 -408 320 -408q169 0 244 105t75 309v688h136v-692zM776 1421l-78 -82l-280 222l94 96z" />
    <glyph glyph-name="Uacute.sc" unicode="&#xf7fa;" horiz-adv-x="1359" 
d="M1135 508q0 -254 -122.5 -390t-342.5 -136q-214 0 -329.5 133.5t-115.5 390.5v694h135v-694q0 -408 320 -408q169 0 244 105t75 309v688h136v-692zM950 1563l-291 -224l-73 76l266 242z" />
    <glyph glyph-name="Ucircumflex.sc" unicode="&#xf7fb;" horiz-adv-x="1359" 
d="M1135 508q0 -254 -122.5 -390t-342.5 -136q-214 0 -329.5 133.5t-115.5 390.5v694h135v-694q0 -408 320 -408q169 0 244 105t75 309v688h136v-692zM952 1421l-67 -75l-211 170l-205 -170l-59 71l268 242z" />
    <glyph glyph-name="Udieresis.sc" unicode="&#xf7fc;" horiz-adv-x="1359" 
d="M1135 508q0 -254 -122.5 -390t-342.5 -136q-214 0 -329.5 133.5t-115.5 390.5v694h135v-694q0 -408 320 -408q169 0 244 105t75 309v688h136v-692zM479 1577q37 0 62.5 -25.5t25.5 -60.5q0 -36 -26 -62t-62 -26q-35 0 -59.5 26t-24.5 62q0 35 24.5 60.5t59.5 25.5z
M889 1577q35 0 59.5 -25.5t24.5 -60.5q0 -36 -24.5 -62t-59.5 -26q-36 0 -62 26t-26 62q0 35 25.5 60.5t62.5 25.5z" />
    <glyph glyph-name="Yacute.sc" unicode="&#xf7fd;" horiz-adv-x="1101" 
d="M1059 1200q-238 -411 -436 -684v-516h-136v516q-218 293 -444 684h166q189 -355 356 -573q187 279 320 573h174zM829 1563l-290 -224l-74 76l266 242z" />
    <glyph glyph-name="Thorn.sc" unicode="&#xf7fe;" horiz-adv-x="1064" 
d="M938 633q0 -165 -114.5 -271t-293.5 -106h-165v-256h-136v1200h136v-213h198q174 0 274.5 -99.5t100.5 -254.5zM791 623q0 110 -62 176.5t-178 66.5h-186v-491h186q112 0 176 68t64 180z" />
    <glyph glyph-name="Ydieresis.sc" unicode="&#xf7ff;" horiz-adv-x="1101" 
d="M1059 1200q-238 -411 -436 -684v-516h-136v516q-218 293 -444 684h166q189 -355 356 -573q187 279 320 573h174zM346 1577q37 0 62.5 -25.5t25.5 -60.5q0 -36 -26 -62t-62 -26q-35 0 -59.5 26t-24.5 62q0 35 24.5 60.5t59.5 25.5zM756 1577q35 0 59.5 -25.5t24.5 -60.5
q0 -36 -24.5 -62t-59.5 -26q-36 0 -62 26t-26 62q0 35 25.5 60.5t62.5 25.5z" />
    <glyph glyph-name="ff.alt1" horiz-adv-x="1296" 
d="M952 1491q82 65 222 65q74 0 118 -10v-100h-78q-48 0 -85.5 -8.5t-62 -21t-41.5 -36.5t-26 -44.5t-13.5 -56t-5.5 -59.5t-1 -67v-117h268v-102h-268v-934h-131v934h-488v-934h-131v934h-172v102h172v86q0 193 117.5 306.5t321.5 113.5q136 0 284 -51zM883 1389
q-125 41 -228 41q-81 0 -140 -23t-92 -64.5t-48 -92t-15 -111.5v-103h488v99q0 145 35 254z" />
    <glyph glyph-name="ffi.alt1" horiz-adv-x="1792" 
d="M979 1036h623v-1036h-132v934h-491v-934h-131v934h-488v-934h-131v934h-172v102h172v86q0 193 117.5 306.5t321.5 113.5q136 0 284 -51q82 65 222 65q74 0 118 -10v-100h-78q-48 0 -85.5 -8.5t-62 -21t-41.5 -36.5t-26 -44.5t-13.5 -56t-5.5 -59.5t-1 -67v-117zM883 1389
q-125 41 -228 41q-81 0 -140 -23t-92 -64.5t-48 -92t-15 -111.5v-103h488v99q0 145 35 254zM1638 1376q0 -43 -29.5 -72.5t-72.5 -29.5t-72.5 29.5t-29.5 72.5t29.5 73t72.5 30t72.5 -30t29.5 -73z" />
    <glyph glyph-name="ffl.alt1" horiz-adv-x="1830" 
d="M993 1489q103 70 275 70q132 0 329 -27v-1311q0 -58 20.5 -88.5t70.5 -30.5h88v-102q-42 -10 -99 -10q-211 0 -211 200v1242q-120 14 -211 14q-80 0 -136 -23.5t-85.5 -67t-42 -95t-12.5 -119.5v-105h268v-102h-268v-934h-131v934h-488v-934h-131v934h-172v102h172v86
q0 193 117.5 306.5t321.5 113.5q147 0 325 -53zM901 1389q-125 41 -246 41q-81 0 -140 -23t-92 -64.5t-48 -92t-15 -111.5v-103h488v99q0 83 11 142t42 112z" />
    <glyph glyph-name="dieresis.narrow" horiz-adv-x="716" 
d="M514 1384q0 -35 -24.5 -60.5t-59.5 -25.5q-36 0 -61 25t-25 61t25 61t61 25q35 0 59.5 -25.5t24.5 -60.5zM170 1384q0 -36 -24 -61t-60 -25t-61 25t-25 61t25 61t61 25t60 -25t24 -61z" />
    <glyph glyph-name="dieresis.sc.narrow" horiz-adv-x="798" 
d="M549 1491q0 -36 -24.5 -62t-59.5 -26q-36 0 -62 26t-26 62q0 35 25.5 60.5t62.5 25.5q35 0 59.5 -25.5t24.5 -60.5zM172 1491q0 -36 -26 -62t-62 -26q-35 0 -59.5 26t-24.5 62q0 35 24.5 60.5t59.5 25.5q37 0 62.5 -25.5t25.5 -60.5z" />
    <glyph glyph-name="dieresis.cap.narrow" horiz-adv-x="921" 
d="M553 1649q0 -36 -26 -62t-62 -26q-35 0 -61.5 26.5t-26.5 61.5q0 37 26.5 63.5t61.5 26.5q37 0 62.5 -26.5t25.5 -63.5zM176 1649q0 -36 -26 -62t-62 -26q-35 0 -61.5 26.5t-26.5 61.5q0 37 26.5 63.5t61.5 26.5q37 0 62.5 -26.5t25.5 -63.5z" />
    <glyph glyph-name="breve.cap" horiz-adv-x="528" 
d="M528 1835q0 -44 -6 -83t-24 -80t-46.5 -70t-77 -47.5t-112.5 -18.5q-262 0 -262 299h100q0 -83 42.5 -139t123.5 -56q78 0 120 50.5t42 144.5h100z" />
    <glyph glyph-name="ring.cap" horiz-adv-x="512" 
d="M389 1731q0 -83 -55 -139t-144 -56q-94 0 -142 51.5t-48 134.5q0 85 53 139t146 54q88 0 139 -50t51 -134zM299 1722q0 50 -26 82.5t-78 32.5q-50 0 -77.5 -29.5t-27.5 -76.5q0 -117 107 -117q49 0 75.5 30.5t26.5 77.5z" />
    <glyph glyph-name="dotaccent.cap" horiz-adv-x="552" 
d="M375 1642q0 -41 -29 -69.5t-70 -28.5t-69.5 28.5t-28.5 69.5t28.5 70t69.5 29t70 -29t29 -70z" />
    <glyph glyph-name="at.alt2" horiz-adv-x="1611" 
d="M1102 156q73 153 110 313.5t37 300.5q0 584 -456 584q-56 0 -121 -14t-107 -35l-26 110q105 51 282 51q150 0 262 -53t178 -147.5t98 -214t32 -263.5q0 -357 -236 -788h-154q-22 71 -92 279h-526q-41 -86 -102 -279h-150q207 556 471 1110h141q189 -452 357 -954h2z
M664 958q-157 -358 -240 -567h444q-135 390 -204 567z" />
    <glyph glyph-name="zero.oldstyle" horiz-adv-x="1275" 
d="M1165 561q0 -120 -32.5 -224t-96 -185t-167 -128t-236.5 -47q-113 0 -202.5 29.5t-149 81.5t-98 126.5t-55.5 159.5t-17 185q0 119 32.5 222.5t96 184.5t167 128t236.5 47q141 0 244 -44.5t162.5 -125.5t87.5 -182.5t28 -227.5zM1022 547q0 226 -94.5 354.5t-294.5 128.5
q-82 0 -147.5 -25.5t-108.5 -68t-71 -102.5t-40 -125.5t-12 -139.5q0 -109 22 -195t67.5 -150.5t121.5 -99t178 -34.5q82 0 147.5 25t108.5 67.5t71 102t40 124t12 138.5z" />
    <glyph glyph-name="one.oldstyle" horiz-adv-x="745" 
d="M549 0h-133v981l-326 -158l-39 99l400 196h98v-1118z" />
    <glyph glyph-name="two.oldstyle" horiz-adv-x="1021" 
d="M942 0h-879l-2 102l328 258q184 145 247.5 234t63.5 197q0 237 -274 237q-131 0 -305 -59l-15 108q195 64 328 64q201 0 304.5 -88.5t103.5 -245.5q0 -129 -76.5 -236.5t-269.5 -255.5l-263 -200h709v-115z" />
    <glyph glyph-name="three.oldstyle" horiz-adv-x="1013" 
d="M887 49q0 -104 -35.5 -191.5t-104 -153.5t-176 -103t-243.5 -37q-157 0 -303 28v103q160 -17 319 -17q198 0 299.5 101t101.5 262q0 74 -26.5 130.5t-67 89.5t-98 53.5t-112 28t-115.5 7.5h-115v113h96q184 0 287.5 87.5t103.5 221.5q0 119 -67 187.5t-211 68.5
q-155 0 -307 -57l-17 108q174 62 332 62q200 0 304 -96.5t104 -258.5q0 -127 -87.5 -231.5t-218.5 -132.5v-4q161 -6 259 -107.5t98 -261.5z" />
    <glyph glyph-name="four.oldstyle" horiz-adv-x="1153" 
d="M1139 0h-295v-430h-133v430h-693v113l635 985h191v-983h295v-115zM711 115v870h-4l-562 -870h566z" />
    <glyph glyph-name="five.oldstyle" horiz-adv-x="1007" 
d="M926 80q0 -239 -149.5 -377.5t-405.5 -138.5q-133 0 -279 28v103q157 -17 283 -17q190 0 299.5 100t109.5 288q0 156 -96 235.5t-285 79.5q-36 0 -74 -2.5t-89 -7t-74 -6.5l31 753h634v-117h-507l-27 -512q68 9 154 9q113 0 204.5 -33t150 -91t89.5 -133t31 -161z" />
    <glyph glyph-name="six.oldstyle" horiz-adv-x="1212" 
d="M1073 477q0 -78 -18 -150t-56 -135.5t-93 -110.5t-134.5 -74t-175.5 -27q-124 0 -212 50t-138 145t-72 216.5t-22 280.5q0 137 18.5 260t64 238.5t113.5 199t175 134t241 50.5q73 0 152.5 -14t125.5 -33l-26 -102q-118 43 -268 43q-87 0 -161 -33.5t-127 -92.5t-91 -140
t-58 -176.5t-22 -200.5h2q164 113 356 113q97 0 173 -26.5t122.5 -69t77 -102t42 -118.5t11.5 -125zM934 465q0 75 -16.5 135t-51.5 107.5t-95.5 73.5t-143.5 26q-170 0 -336 -109q0 -317 72.5 -462.5t250.5 -145.5q79 0 141.5 31t101 84t58 119t19.5 141z" />
    <glyph glyph-name="seven.oldstyle" horiz-adv-x="1019" 
d="M958 991l-505 -1063q-96 -208 -215 -368l-84 34q75 121 221 437l452 970h-782v117h913v-127z" />
    <glyph glyph-name="eight.oldstyle" horiz-adv-x="1140" 
d="M1020 379q0 -179 -121 -290.5t-336 -111.5q-208 0 -324 102t-116 269q0 138 78 242t245 203q-278 151 -278 397q0 70 26.5 135t76.5 117.5t131 84.5t182 32q95 0 171.5 -29t123.5 -78t71.5 -108t24.5 -123q0 -241 -299 -410q178 -97 261 -202.5t83 -229.5zM838 1202
q0 110 -71.5 179t-195.5 69q-125 0 -195.5 -73t-70.5 -177q0 -105 57 -179.5t205 -156.5q137 76 204 157t67 181zM881 358q0 115 -73 200t-257 181q-156 -96 -222.5 -179t-66.5 -193q0 -126 81.5 -202.5t242.5 -76.5q141 0 218 78t77 192z" />
    <glyph glyph-name="nine.oldstyle" horiz-adv-x="1193" 
d="M1038 453q0 -145 -19.5 -272.5t-65 -242t-113.5 -196t-171.5 -129t-232.5 -47.5q-134 0 -299 31l8 106q191 -27 308 -27q111 0 195 48.5t136 137t80 201t35 252.5h-2q-72 -51 -165 -81.5t-183 -30.5q-113 0 -197 37.5t-131 102t-69.5 139.5t-22.5 161q0 98 30 186
t86.5 158.5t147 112t203.5 41.5q99 0 175 -34t126 -93.5t82 -147.5t45.5 -189t13.5 -224zM899 422q0 227 -37.5 363t-104.5 190.5t-173 54.5q-79 0 -142 -33.5t-99.5 -88.5t-55.5 -119.5t-19 -133.5q0 -55 9.5 -103.5t31.5 -93t56 -76t86 -50.5t118 -19q71 0 163.5 30.5
t166.5 78.5z" />
    <glyph glyph-name="one.oldstyle.alt" horiz-adv-x="983" 
d="M860 0h-739v113h303v895h-303v110h739v-110h-303v-895h303v-113z" />
    <glyph glyph-name="zero.LP" horiz-adv-x="1337" 
d="M1227 725q0 -124 -19 -232.5t-62 -204.5t-107 -164t-159 -107.5t-214 -39.5q-290 0 -422.5 188t-132.5 556q0 113 18 215.5t60.5 198t105.5 165t160.5 111t218.5 41.5q128 0 227.5 -43.5t159.5 -113t98.5 -167t53 -195t14.5 -208.5zM1067 709q0 632 -399 632
q-105 0 -184.5 -49t-125.5 -135.5t-68 -193t-22 -232.5q0 -332 99.5 -486.5t310.5 -154.5q82 0 146.5 24.5t106 71t69.5 102.5t42 130.5t19.5 141.5t5.5 149z" />
    <glyph glyph-name="one.LP" horiz-adv-x="745" 
d="M549 0h-133v1292l-326 -157l-39 98l400 197h98v-1430z" />
    <glyph glyph-name="two.LP" horiz-adv-x="1036" 
d="M958 0h-897v109l301 305q210 213 288.5 349.5t78.5 280.5q0 141 -71.5 217t-215.5 76q-147 0 -313 -65l-27 108q170 70 357 70q204 0 307.5 -104.5t103.5 -288.5q0 -160 -98 -321.5t-297 -360.5l-260 -258h743v-117z" />
    <glyph glyph-name="three.LP" horiz-adv-x="1001" 
d="M874 412q0 -188 -145.5 -307t-413.5 -119q-136 0 -282 28v105q149 -19 299 -19q198 0 299.5 84.5t101.5 218.5q0 68 -26.5 120.5t-67.5 83.5t-98.5 51t-112 27t-115.5 7h-114v113h96q182 0 286.5 84t104.5 205q0 112 -67.5 178.5t-210.5 66.5q-165 0 -314 -63l-16 108
q174 68 338 68q199 0 303 -94.5t104 -249.5q0 -116 -87.5 -216.5t-217.5 -127.5v-4q160 -6 258 -104t98 -244z" />
    <glyph glyph-name="four.LP" horiz-adv-x="1153" 
d="M1139 332h-295v-332h-133v332h-693v112l635 986h191v-984h295v-114zM711 446v871h-4l-562 -871h566z" />
    <glyph glyph-name="five.LP" horiz-adv-x="1007" 
d="M934 465q0 -223 -149.5 -351t-405.5 -128q-133 0 -279 28v103q157 -17 283 -17q191 0 300.5 89t109.5 262q0 147 -96.5 223t-284.5 76q-36 0 -75 -2.5t-88.5 -7.5t-74.5 -7l23 697h634v-117h-512l-18 -455q60 8 158 8q115 0 206.5 -32t149.5 -88t88.5 -127.5t30.5 -153.5
z" />
    <glyph glyph-name="six.LP" horiz-adv-x="1212" 
d="M1073 465q0 -98 -29 -184t-86 -154t-150 -107.5t-212 -39.5q-124 0 -212 50t-138 145t-72 216.5t-22 280.5q0 119 16.5 225.5t58.5 210t107.5 177.5t170 119.5t238.5 45.5q73 0 153.5 -14t125.5 -33l-27 -103q-118 43 -268 43q-108 0 -192 -44t-136 -123t-79.5 -182.5
t-30.5 -229.5h2q164 113 356 113q97 0 173 -23.5t122.5 -62t77 -93t42 -111.5t11.5 -122zM934 453q0 152 -72 232.5t-235 80.5q-170 0 -336 -109q0 -285 73.5 -426t249.5 -141q156 0 238 103.5t82 259.5z" />
    <glyph glyph-name="seven.LP" horiz-adv-x="1019" 
d="M958 1303l-452 -957q-97 -211 -215 -369l-84 35q75 121 221 437l399 864h-782v117h913v-127z" />
    <glyph glyph-name="eight.LP" horiz-adv-x="1140" 
d="M1030 352q0 -168 -123 -271.5t-344 -103.5q-213 0 -331.5 95.5t-118.5 251.5q0 129 78.5 224.5t250.5 188.5q-284 143 -284 371q0 65 27 125.5t78 110t134 79t187 29.5q98 0 176.5 -27t126.5 -72t73 -100.5t25 -115.5q0 -225 -305 -383q182 -89 266 -187.5t84 -214.5z
M848 1120q0 101 -75 163.5t-202 62.5q-129 0 -202.5 -66.5t-73.5 -161.5q0 -99 60 -168t214 -147q141 74 210 149t69 168zM891 332q0 107 -75 186t-263 168q-166 -90 -233.5 -166.5t-67.5 -179.5q0 -117 84 -185.5t250 -68.5q146 0 225.5 70t79.5 176z" />
    <glyph glyph-name="nine.LP" horiz-adv-x="1196" 
d="M1051 764q0 -132 -20.5 -246t-66.5 -213.5t-116 -169.5t-174 -110.5t-234 -40.5q-143 0 -303 30l8 107q191 -27 312 -27q222 0 331 147t123 427h-2q-161 -113 -356 -113q-114 0 -198 31.5t-132 87.5t-71 125.5t-23 154.5q0 103 29 191.5t85 157.5t148 109t209 40
q103 0 181.5 -34.5t129 -94.5t82.5 -148.5t45 -188t13 -222.5zM911 774q0 297 -77.5 432t-245.5 135q-158 0 -239 -104.5t-81 -269.5q0 -301 305 -301q170 0 338 108z" />
    <glyph glyph-name="minusinferior" horiz-adv-x="778" 
d="M707 342h-635v107h635v-107z" />
    <glyph glyph-name="zeroinferior.mono" horiz-adv-x="757" 
d="M688 354q0 -183 -80.5 -280t-234.5 -97q-160 0 -231.5 98t-71.5 279q0 183 81 284t232 101q305 0 305 -385zM563 354q0 289 -186 289q-94 0 -138 -77.5t-44 -211.5q0 -145 46.5 -212.5t139.5 -67.5q50 0 86.5 22.5t57 63t29.5 88.5t9 106z" />
    <glyph glyph-name="oneinferior.mono" horiz-adv-x="757" 
d="M643 0h-500v102h199v502l-172 -86l-39 84l221 117h113v-617h178v-102z" />
    <glyph glyph-name="twoinferior.mono" horiz-adv-x="757" 
d="M664 0h-566v86l232 184q93 73 127.5 129.5t34.5 116.5q0 125 -162 125q-101 0 -191 -37l-24 92q108 43 231 43q139 0 204.5 -58t65.5 -157q0 -42 -8 -74.5t-31.5 -73.5t-71 -87t-122.5 -101l-115 -86h396v-102z" />
    <glyph glyph-name="threeinferior.mono" horiz-adv-x="757" 
d="M643 199q0 -59 -27 -103.5t-73.5 -69.5t-101.5 -37t-117 -12q-114 0 -201 19v90q65 -10 196 -10q95 0 146 30.5t51 88.5q0 74 -55.5 101.5t-163.5 27.5h-92v96h100q85 0 134.5 33.5t49.5 89.5q0 48 -36 74t-103 26q-115 0 -205 -35l-22 92q122 39 244 39q117 0 182 -50
t65 -138q0 -66 -42 -111.5t-117 -58.5q95 -6 141.5 -58t46.5 -124z" />
    <glyph glyph-name="fourinferior.mono" horiz-adv-x="757" 
d="M705 150h-148v-150h-123v150h-395v83l336 484h182v-471h148v-96zM434 246v377h-2l-262 -377h264z" />
    <glyph glyph-name="fiveinferior.mono" horiz-adv-x="757" 
d="M289 424q40 4 110 4q119 0 193 -58.5t74 -148.5q0 -117 -88 -180.5t-240 -63.5q-95 0 -186 25v88q90 -16 174 -16q105 0 160 37t55 106q0 55 -48 85t-141 30q-101 0 -174 -13l12 398h431v-101h-324z" />
    <glyph glyph-name="sixinferior.mono" horiz-adv-x="757" 
d="M655 229q0 -114 -71 -183t-197 -69q-45 0 -83 10t-74.5 36t-62 66.5t-41 106t-15.5 150.5q0 188 87.5 290.5t241.5 102.5q99 0 191 -39l-31 -90q-82 35 -168 35q-87 0 -140 -62t-56 -182q84 41 167 41q112 0 182 -58t70 -155zM532 225q0 57 -38.5 90t-110.5 33
q-70 0 -147 -45q0 -125 40.5 -178t116.5 -53q61 0 100 41t39 112z" />
    <glyph glyph-name="seveninferior.mono" horiz-adv-x="757" 
d="M641 618l-211 -438q-56 -113 -117 -203l-96 39q54 94 121 232l170 368h-410v101h543v-99z" />
    <glyph glyph-name="eightinferior.mono" horiz-adv-x="757" 
d="M647 186q0 -96 -76 -152.5t-196 -56.5q-122 0 -194 53t-72 150q0 60 44 109t117 82q-147 60 -147 184q0 79 69 131.5t187 52.5q116 0 183 -46.5t67 -127.5q0 -119 -148 -188q166 -57 166 -191zM504 543q0 44 -33.5 73t-93.5 29q-61 0 -95 -28t-34 -72q0 -75 137 -127
q119 49 119 125zM522 190q0 45 -36 76.5t-119 59.5q-134 -53 -134 -140q0 -52 42 -83t102 -31q61 0 103 31.5t42 86.5z" />
    <glyph glyph-name="nineinferior.mono" horiz-adv-x="757" 
d="M305 -23q-83 0 -174 21l10 100q99 -24 170 -24q90 0 148 59t65 182q-92 -45 -166 -45q-115 0 -180 57t-65 158q0 114 69.5 184t188.5 70q45 0 84 -10t75.5 -36t62 -67t41 -106.5t15.5 -150.5q0 -185 -93 -288.5t-251 -103.5zM236 498q0 -136 143 -136q62 0 145 48
q0 237 -151 237q-59 0 -98 -39.5t-39 -109.5z" />
    </font>
</defs>
</svg>
