<?xml version="1.0" standalone="no"?>
<!DOCTYPE svg PUBLIC "-//W3C//DTD SVG 1.1//EN" "http://www.w3.org/Graphics/SVG/1.1/DTD/svg11.dtd" >
<svg xmlns="http://www.w3.org/2000/svg" xmlns:xlink="http://www.w3.org/1999/xlink" version="1.1">
<metadata>
Created by FontForge 20170731 at Tue Jan  3 11:33:24 2023
 By Aleksey,,,
Copyright [c] 1997, 2002 Luc(as) de Groot, published by LucasFonts.
</metadata>
<defs>
<font id="CorpidSemiCd-Light" horiz-adv-x="1024" >
  <font-face 
    font-family="Corpid SemiCd Light"
    font-weight="300"
    font-stretch="normal"
    units-per-em="2048"
    panose-1="2 11 0 0 4 5 2 6 2 4"
    ascent="1638"
    descent="-410"
    x-height="1036"
    cap-height="1430"
    bbox="-164 -453 2089 1868"
    underline-thickness="102"
    underline-position="-503"
    unicode-range="U+000D-FB02"
  />
<missing-glyph horiz-adv-x="1126" 
 />
    <glyph glyph-name="fi" unicode="fi" horiz-adv-x="1050" 
d="M911 1376q0 -40 -27 -67t-67 -27q-38 0 -65 27t-27 67t27 68.5t65 28.5q39 0 66.5 -28.5t27.5 -68.5zM879 0h-117v946h-436v-946h-119v946h-158v90h158v111q0 79 7.5 138t27 111t52 85t84 52t122.5 19q54 0 98 -8v-86h-80q-39 0 -69.5 -9t-51 -22t-34 -37.5t-21 -45.5
t-11.5 -57t-4.5 -61.5t-0.5 -68.5v-121h553v-1036z" />
    <glyph glyph-name="fl" unicode="fl" horiz-adv-x="1087" 
d="M1040 0q-46 -8 -88 -8q-190 0 -190 192v1258q-101 16 -195 16q-59 0 -103 -16.5t-70 -43.5t-41.5 -69t-21 -85.5t-5.5 -100.5v-107h239v-90h-239v-946h-119v946h-158v90h158v103q0 98 19 171.5t61 129.5t115 85t176 29q130 0 301 -26v-1319q0 -121 82 -121h79v-88z" />
    <glyph glyph-name=".notdef" horiz-adv-x="1126" 
 />
    <glyph glyph-name=".null" horiz-adv-x="0" 
 />
    <glyph glyph-name=".null" horiz-adv-x="0" 
 />
    <glyph glyph-name="nonmarkingreturn" horiz-adv-x="682" 
 />
    <glyph glyph-name="CR" unicode="&#xd;" 
 />
    <glyph glyph-name="space" unicode=" " horiz-adv-x="497" 
 />
    <glyph glyph-name="space" unicode="&#xa0;" horiz-adv-x="497" 
 />
    <glyph glyph-name="exclam" unicode="!" horiz-adv-x="663" 
d="M436 1536l-20 -1184h-94l-21 1184h135zM467 80q0 -42 -28.5 -72.5t-69.5 -30.5t-71 31t-30 72q0 42 30 72t71 30t69.5 -29.5t28.5 -72.5z" />
    <glyph glyph-name="quotedbl" unicode="&#x22;" horiz-adv-x="774" 
d="M627 1536l-25 -567h-90l-27 567h142zM287 1536l-25 -567h-90l-25 567h140z" />
    <glyph glyph-name="numbersign" unicode="#" 
d="M950 938h-170l-47 -424h160v-96h-172l-47 -418h-111l47 418h-264l-47 -418h-111l48 418h-160v96h170l49 424h-164v98h174l45 394h111l-45 -394h266l43 394h111l-45 -394h159v-98zM670 938h-264l-50 -424h267z" />
    <glyph glyph-name="dollar" unicode="$" 
d="M889 371q0 -142 -90.5 -235.5t-227.5 -121.5v-252h-100v242q-162 0 -319 66l26 108q157 -72 309 -72q118 0 195.5 69t77.5 177q0 39 -8 71.5t-19 57t-35.5 47t-44.5 37t-60.5 33t-67.5 29t-81 30.5q-71 25 -119.5 51.5t-92.5 65.5t-65.5 95t-21.5 130q0 124 89 220
t237 114v213h100v-211q132 -7 232 -51l-29 -100q-117 49 -248 49q-124 0 -189 -62.5t-65 -156.5q0 -46 14 -82.5t34.5 -61.5t63 -49.5t79 -40t102.5 -39.5q60 -21 101 -38.5t86.5 -48.5t73 -67t45.5 -91.5t18 -124.5z" />
    <glyph glyph-name="percent" unicode="%" horiz-adv-x="1533" 
d="M651 1077q0 -177 -73 -276t-211 -99q-277 0 -277 371q0 179 73.5 277t213.5 98q274 0 274 -371zM1444 356q0 -178 -73.5 -276t-211.5 -98q-147 0 -211.5 96t-64.5 274q0 177 73.5 276t212.5 99q275 0 275 -371zM537 1075q0 155 -43.5 222t-124.5 67q-164 0 -164 -289
q0 -152 42 -220.5t126 -68.5q164 0 164 289zM1329 354q0 154 -43.5 221.5t-124.5 67.5q-162 0 -162 -289q0 -152 41 -220t125 -68q164 0 164 288zM1266 1438l-924 -1495l-84 47l924 1499z" />
    <glyph glyph-name="ampersand" unicode="&#x26;" horiz-adv-x="1323" 
d="M1266 70l-68 -90q-29 24 -118.5 94t-135.5 110q-168 -202 -414 -202q-186 0 -292.5 100.5t-106.5 257.5q0 128 61 226.5t183 191.5q-154 207 -154 366q0 141 85.5 232.5t223.5 91.5q132 0 213.5 -79.5t81.5 -205.5q0 -109 -63 -199t-236 -210q149 -192 398 -410
q97 193 94 453h123q-3 -303 -133 -523q36 -31 75.5 -62t99 -77.5t83.5 -64.5zM702 1147q0 89 -45 149t-135 60q-84 0 -131 -63t-47 -156q0 -121 127 -310q127 90 179 162.5t52 157.5zM864 252q-279 240 -430 430q-172 -143 -172 -322q0 -130 77.5 -205t211.5 -75
q181 0 313 172z" />
    <glyph glyph-name="quotesingle" unicode="'" horiz-adv-x="434" 
d="M287 1536l-25 -567h-90l-25 567h140z" />
    <glyph glyph-name="parenleft" unicode="(" horiz-adv-x="608" 
d="M475 -352l-88 -35q-240 469 -240 979q0 514 240 983l88 -35q-205 -459 -205 -944q0 -489 205 -948z" />
    <glyph glyph-name="parenright" unicode=")" horiz-adv-x="608" 
d="M461 596q0 -514 -240 -983l-88 35q205 463 205 944q0 479 -205 948l88 35q240 -469 240 -979z" />
    <glyph glyph-name="asterisk" unicode="*" 
d="M866 1028l-71 -115l-242 185l27 -320h-136l25 320l-242 -185l-69 115l276 131l-276 137l69 115l242 -184l-25 319h136l-25 -319l240 184l71 -115l-278 -133z" />
    <glyph glyph-name="plus" unicode="+" 
d="M928 582h-357v-414h-118v414h-359v108h359v418h118v-418h357v-108z" />
    <glyph glyph-name="comma" unicode="," horiz-adv-x="497" 
d="M250 205q55 0 82 -52q46 -87 -32 -240q-56 -110 -171 -237l-66 50q117 160 117 251q0 28 -16.5 63.5t-16.5 55.5q0 46 27 77.5t76 31.5z" />
    <glyph glyph-name="hyphen" unicode="-" horiz-adv-x="538" 
d="M539 516h-465v92h465v-92z" />
    <glyph glyph-name="hyphen" unicode="&#x2010;" horiz-adv-x="538" 
d="M539 516h-465v92h465v-92z" />
    <glyph glyph-name="hyphen" unicode="&#xad;" horiz-adv-x="538" 
d="M539 516h-465v92h465v-92z" />
    <glyph glyph-name="period" unicode="." horiz-adv-x="497" 
d="M354 98q0 -46 -30.5 -78t-75.5 -32q-44 0 -74.5 32t-30.5 78q0 45 30.5 77t74.5 32q45 0 75.5 -32t30.5 -77z" />
    <glyph glyph-name="slash" unicode="/" horiz-adv-x="737" 
d="M737 1589l-628 -1882l-109 31l629 1880z" />
    <glyph glyph-name="zero" unicode="0" 
d="M950 608q0 -131 -25 -241t-76 -198.5t-138 -138.5t-203 -50q-228 0 -331 157.5t-103 470.5q0 93 14 178.5t47.5 166t83 139t126 94t171.5 35.5q101 0 178.5 -36.5t125 -95.5t77.5 -141t41.5 -164.5t11.5 -175.5zM823 596q0 85 -8.5 158t-30 143.5t-56 120t-90 80
t-128.5 30.5q-66 0 -119.5 -28.5t-88.5 -76.5t-58.5 -114.5t-34 -139.5t-10.5 -155q0 -276 78 -408t243 -132q55 0 100 16.5t76 44.5t54 69.5t37 85t22 98.5t11 103.5t3 104.5z" />
    <glyph glyph-name="one" unicode="1" 
d="M899 0h-700v96h321v969l-301 -193l-41 74l354 254h109v-1104h258v-96z" />
    <glyph glyph-name="two" unicode="2" 
d="M905 0h-790v92l272 252q192 179 257 287.5t65 226.5q0 115 -66 191.5t-194 76.5q-129 0 -287 -59l-15 92q173 62 314 62q183 0 279 -100.5t96 -254.5q0 -139 -77 -261.5t-257 -285.5l-240 -217h643v-102z" />
    <glyph glyph-name="three" unicode="3" 
d="M866 156q0 -189 -132.5 -301.5t-364.5 -112.5q-140 0 -273 29v86q143 -17 287 -17q170 0 262 82t92 225q0 71 -22.5 126.5t-59 89.5t-86 55.5t-99 30t-103.5 8.5h-105v100h88q168 0 263.5 82t95.5 219q0 123 -64 195.5t-194 72.5q-149 0 -287 -59l-17 94q175 60 312 60
q180 0 276 -96t96 -257q0 -127 -76.5 -222.5t-197.5 -123.5v-4q141 -12 225 -111t84 -251z" />
    <glyph glyph-name="four" unicode="4" 
d="M952 123h-192v-363h-119v363h-586v94l529 983h176v-975h192v-102zM641 225v875h-4l-463 -875h467z" />
    <glyph glyph-name="five" unicode="5" 
d="M895 227q0 -229 -136 -357t-372 -128q-142 0 -278 29v86q144 -17 280 -17q179 0 278 93.5t99 279.5q0 160 -89.5 237.5t-273.5 77.5q-40 0 -76.5 -2.5t-86.5 -7.5t-66 -6l12 688h609v-104h-500l-10 -473q72 10 166 10q108 0 194 -32t140 -87.5t82 -128.5t28 -158z" />
    <glyph glyph-name="six" unicode="6" 
d="M932 455q0 -67 -16 -133.5t-50 -128t-82 -108.5t-118 -75t-152 -28q-110 0 -188 48.5t-123 141.5t-65.5 214t-20.5 280q0 122 13.5 227.5t49.5 209.5t92.5 177t149.5 118.5t213 45.5q62 0 131.5 -12.5t110.5 -30.5l-23 -88q-103 41 -233 41q-96 0 -170 -48t-118 -132.5
t-67 -189t-26 -228.5h4q137 114 315 114q84 0 151 -26.5t107.5 -68t67 -98t37 -111t10.5 -111.5zM805 442q0 145 -64 236.5t-202 91.5q-70 0 -152.5 -30.5t-142.5 -77.5q0 -314 71 -450t213 -136q67 0 122 34t87.5 88t50 117t17.5 127z" />
    <glyph glyph-name="seven" unicode="7" 
d="M918 1094l-369 -994q-69 -187 -184 -360l-72 43q85 151 186 428l318 885h-682v104h803v-106z" />
    <glyph glyph-name="eight" unicode="8" 
d="M932 352q0 -171 -116 -271.5t-314 -100.5q-193 0 -303.5 87.5t-110.5 254.5q0 72 22 132t67 109t96.5 87.5t125.5 80.5q-132 74 -197 164.5t-65 206.5q0 145 100 246.5t283 101.5q171 0 267 -92.5t96 -224.5q0 -118 -71.5 -211t-209.5 -174q162 -83 246 -174.5t84 -221.5
zM760 1116q0 112 -68 179t-182 67q-120 0 -185 -71t-65 -177q0 -94 58.5 -168t193.5 -149q117 68 182.5 143.5t65.5 175.5zM807 332q0 58 -19 105t-63 89t-96 76t-137 80q-65 -39 -108.5 -70.5t-86 -74t-63.5 -91.5t-21 -106q0 -134 79 -202t228 -68q130 0 208.5 75.5
t78.5 186.5z" />
    <glyph glyph-name="nine" unicode="9" 
d="M901 532q0 -136 -17 -251.5t-56 -216.5t-98 -171t-148 -110.5t-201 -40.5q-131 0 -270 29l6 90q147 -23 278 -23q185 0 273 153.5t108 452.5l-2 -2q-63 -52 -146 -83t-167 -31q-80 0 -144.5 24t-106.5 64.5t-70 96t-40 115t-12 124.5q0 86 26 167.5t75 150t130.5 110
t182.5 41.5q90 0 158.5 -34t113.5 -93.5t74 -147.5t41 -189t12 -225zM774 537q0 311 -69.5 449t-212.5 138q-57 0 -104.5 -22t-79 -58t-53.5 -83t-32 -95t-10 -96q0 -72 13.5 -130.5t43.5 -106.5t82.5 -74.5t124.5 -26.5q70 0 152.5 29.5t144.5 75.5z" />
    <glyph glyph-name="colon" unicode=":" horiz-adv-x="534" 
d="M391 895q0 -46 -30.5 -78.5t-75.5 -32.5q-44 0 -74.5 32.5t-30.5 78.5q0 45 30.5 77t74.5 32q45 0 75.5 -32t30.5 -77zM391 98q0 -46 -30.5 -78t-75.5 -32q-44 0 -74.5 32t-30.5 78q0 45 30.5 77t74.5 32q45 0 75.5 -32t30.5 -77z" />
    <glyph glyph-name="semicolon" unicode=";" horiz-adv-x="534" 
d="M391 895q0 -46 -30.5 -78.5t-75.5 -32.5q-44 0 -74.5 32.5t-30.5 78.5q0 45 30.5 77t74.5 32q45 0 75.5 -32t30.5 -77zM287 205q56 0 84 -53q45 -87 -34 -241q-56 -109 -169 -235l-68 50q119 159 119 251q0 28 -17.5 63.5t-17.5 55.5q0 46 27 77.5t76 31.5z" />
    <glyph glyph-name="less" unicode="&#x3c;" 
d="M913 111l-829 471v108l829 471v-129l-708 -397l708 -395v-129z" />
    <glyph glyph-name="equal" unicode="=" 
d="M913 791h-802v106h802v-106zM913 377h-802v106h802v-106z" />
    <glyph glyph-name="greater" unicode="&#x3e;" 
d="M940 582l-829 -471v127l710 395l-710 399v129l829 -471v-108z" />
    <glyph glyph-name="question" unicode="?" horiz-adv-x="847" 
d="M731 1192q0 -64 -19 -126.5t-49.5 -115t-66.5 -105.5t-70.5 -107.5t-61.5 -112t-40.5 -128.5t-5.5 -147h-103q-8 81 3 155.5t35.5 133.5t56 114.5t64.5 107t60.5 101t45.5 106.5t18 114q0 129 -59 196.5t-199 67.5q-100 0 -207 -14v96q102 22 213 22q202 0 293.5 -96
t91.5 -262zM465 80q0 -42 -28.5 -72.5t-69.5 -30.5t-71 31t-30 72q0 42 30 72t71 30t69.5 -29.5t28.5 -72.5z" />
    <glyph glyph-name="at" unicode="@" horiz-adv-x="1611" 
d="M1407 -127q-111 -60 -218.5 -86.5t-252.5 -26.5q-166 0 -308 61.5t-240 169.5t-153 258.5t-55 323.5q0 200 59.5 365t164.5 274.5t248 169.5t309 60q188 0 301.5 -97t113.5 -262v-729h-86l-14 125q-63 -65 -136 -105t-171 -40q-148 0 -229 77.5t-81 213.5
q0 154 115 233.5t303 79.5h180v106q0 140 -76.5 219.5t-244.5 79.5q-129 0 -242 -50.5t-198.5 -144t-135 -238t-49.5 -320.5q0 -153 42.5 -284.5t122.5 -230t204 -154.5t278 -56q239 0 416 100zM1260 575v271h-191q-137 0 -209 -57t-72 -156q0 -94 50 -148.5t143 -54.5
q77 0 140 36.5t139 108.5z" />
    <glyph glyph-name="A" unicode="A" horiz-adv-x="1191" 
d="M1133 0h-142q-62 227 -119 414h-565q-57 -187 -114 -414h-134q228 809 471 1430h119q258 -669 484 -1430zM336 512h504q-94 302 -256 776l-2 -2q-139 -415 -246 -774z" />
    <glyph glyph-name="B" unicode="B" horiz-adv-x="1054" 
d="M956 410q0 -190 -112.5 -300t-298.5 -110h-357v1430h308q189 0 282.5 -93.5t93.5 -257.5q0 -225 -172 -315q109 -22 182.5 -121.5t73.5 -232.5zM743 1065q0 264 -264 264h-170v-536h205q229 0 229 272zM827 391q0 144 -80.5 222.5t-234.5 78.5h-203v-590h244
q121 0 197.5 75.5t76.5 213.5z" />
    <glyph glyph-name="C" unicode="C" horiz-adv-x="1079" 
d="M1026 68q-167 -82 -334 -82q-268 0 -423.5 187t-155.5 525q0 340 156 543t427 203q170 0 322 -76l-41 -92q-143 65 -291 65q-207 0 -323.5 -171t-116.5 -457q0 -296 122.5 -459.5t342.5 -163.5q138 0 282 72z" />
    <glyph glyph-name="D" unicode="D" horiz-adv-x="1273" 
d="M1165 735q0 -358 -160.5 -546.5t-465.5 -188.5h-351v1430h375q289 0 445.5 -189t156.5 -506zM1036 731q0 131 -29 238.5t-86.5 188.5t-151.5 126t-216 45h-244v-1227h242q245 0 365 153t120 476z" />
    <glyph glyph-name="E" unicode="E" horiz-adv-x="1001" 
d="M868 0h-680v1430h670v-101h-549v-532h484v-101h-484v-594h559v-102z" />
    <glyph glyph-name="F" unicode="F" horiz-adv-x="925" 
d="M844 1329h-535v-565h479v-102h-479v-662h-121v1430h656v-101z" />
    <glyph glyph-name="G" unicode="G" horiz-adv-x="1247" 
d="M1096 1329l-49 -98q-156 108 -340 108q-152 0 -259 -84t-157.5 -223t-50.5 -319q0 -294 127.5 -459.5t347.5 -165.5q127 0 243 39v602h121v-674q-178 -71 -370 -71q-146 0 -260.5 52.5t-188 148t-111.5 226t-38 289.5q0 222 72 389t210 260t326 93q201 0 377 -113z" />
    <glyph glyph-name="H" unicode="H" horiz-adv-x="1259" 
d="M1071 0h-121v698h-641v-698h-121v1430h121v-631h641v631h121v-1430z" />
    <glyph glyph-name="I" unicode="I" horiz-adv-x="497" 
d="M309 0h-121v1430h121v-1430z" />
    <glyph glyph-name="J" unicode="J" horiz-adv-x="604" 
d="M418 397q0 -80 -5.5 -138t-22 -112t-44.5 -87.5t-74 -53.5t-110 -20q-67 0 -119 10v90h92q94 0 128 62.5t34 232.5v1049h121v-1033z" />
    <glyph glyph-name="K" unicode="K" horiz-adv-x="1089" 
d="M1038 0h-166l-487 745l-76 -81v-664h-121v1430h121v-635q288 320 557 635h170l-567 -603z" />
    <glyph glyph-name="L" unicode="L" horiz-adv-x="851" 
d="M825 0h-637v1430h121v-1328h516v-102z" />
    <glyph glyph-name="M" unicode="M" horiz-adv-x="1662" 
d="M1495 0h-125q-13 723 -86 1280h-2l-399 -1280h-117l-401 1280h-3q-64 -616 -73 -1280h-119q9 724 109 1430h170l385 -1235h4l383 1235h168q91 -672 106 -1430z" />
    <glyph glyph-name="N" unicode="N" horiz-adv-x="1288" 
d="M1100 0h-154l-641 1280h-4v-1280h-113v1430h174l621 -1233h4v1233h113v-1430z" />
    <glyph glyph-name="O" unicode="O" horiz-adv-x="1400" 
d="M1288 725q0 -221 -66.5 -387t-202.5 -261t-327 -95q-116 0 -211 35.5t-162.5 99.5t-113.5 154t-68 198t-22 233q0 221 66.5 387.5t202 262.5t325.5 96q142 0 254 -55t182 -153t106.5 -228.5t36.5 -286.5zM1155 702q0 142 -26.5 257t-81 203.5t-145.5 137t-212 48.5
q-93 0 -168.5 -33.5t-126 -91t-84.5 -137.5t-49.5 -170t-15.5 -191q0 -142 26 -256.5t80.5 -202.5t145.5 -136t213 -48q95 0 171 33.5t126.5 91t84 137.5t48 169t14.5 189z" />
    <glyph glyph-name="P" unicode="P" horiz-adv-x="1032" 
d="M930 1022q0 -199 -113.5 -318.5t-312.5 -119.5h-195v-584h-121v1430h310q83 0 161 -19q125 -34 198 -138.5t73 -250.5zM799 1012q0 115 -50.5 196.5t-138.5 106.5q-55 14 -127 14h-174v-645h207q135 0 209 88.5t74 239.5z" />
    <glyph glyph-name="Q" unicode="Q" horiz-adv-x="1400" 
d="M1366 -47l-80 -84l-225 240q-146 -127 -369 -127q-116 0 -211 35.5t-162.5 99.5t-113.5 154t-68 198t-22 233q0 221 66.5 387.5t202 262.5t325.5 96q142 0 254 -55t182 -153t106.5 -228.5t36.5 -286.5q0 -333 -149 -532zM1155 702q0 142 -26.5 257t-81 203.5t-145.5 137
t-212 48.5q-93 0 -168.5 -33.5t-126 -91t-84.5 -137.5t-49.5 -170t-15.5 -191q0 -142 26 -256.5t80.5 -202.5t145.5 -136t213 -48q166 0 276 104l-266 281l78 84l260 -275q96 154 96 426z" />
    <glyph glyph-name="R" unicode="R" horiz-adv-x="1046" 
d="M971 0h-148l-342 678h-172v-678h-121v1430h297q201 0 304.5 -101.5t103.5 -265.5q0 -148 -81 -240t-208 -129zM760 1051q0 54 -15 101.5t-46.5 88.5t-89 64.5t-134.5 23.5h-166v-551h166q142 0 213.5 76.5t71.5 196.5z" />
    <glyph glyph-name="S" unicode="S" horiz-adv-x="894" 
d="M805 373q0 -180 -119 -285.5t-324 -105.5q-131 0 -262 38l23 111q133 -45 268 -45q133 0 209 74.5t76 199.5q0 49 -14.5 90t-34 70t-62 63t-74 54.5t-94.5 58.5q-147 88 -215.5 175.5t-68.5 218.5q0 159 109 258.5t290 99.5q116 0 211 -31l-23 -102q-105 31 -202 31
q-125 0 -191.5 -69t-66.5 -173q0 -47 14 -88t34.5 -70.5t60 -62.5t72.5 -54.5t91 -56.5q155 -93 224 -181.5t69 -217.5z" />
    <glyph glyph-name="T" unicode="T" horiz-adv-x="974" 
d="M952 1331h-403v-1331h-123v1331h-401v99h927v-99z" />
    <glyph glyph-name="U" unicode="U" horiz-adv-x="1290" 
d="M1106 524q0 -266 -123.5 -403t-341.5 -137q-210 0 -333.5 132.5t-123.5 383.5v930h121v-920q0 -211 90 -319.5t252 -108.5t252 108t90 322v918h117v-906z" />
    <glyph glyph-name="V" unicode="V" horiz-adv-x="1157" 
d="M1124 1430q-226 -789 -475 -1430h-121q-284 702 -487 1430h147q140 -563 408 -1297l2 2q188 523 389 1295h137z" />
    <glyph glyph-name="W" unicode="W" horiz-adv-x="1847" 
d="M1786 1430q-173 -720 -410 -1430h-147l-309 1264h-5l-292 -1264h-148q-244 734 -409 1430h145q108 -516 340 -1283h2l295 1283h153l318 -1283h2q216 712 324 1283h141z" />
    <glyph glyph-name="X" unicode="X" horiz-adv-x="1105" 
d="M1075 0h-162l-368 647l-369 -647h-149l458 735l-419 695h155l336 -590l336 590h143l-420 -680z" />
    <glyph glyph-name="Y" unicode="Y" horiz-adv-x="1054" 
d="M1036 1430q-230 -474 -444 -805v-625h-121v625q-233 345 -455 805h148q152 -372 379 -715q177 295 340 715h153z" />
    <glyph glyph-name="Z" unicode="Z" horiz-adv-x="944" 
d="M881 0h-818v102l680 1229h-661v99h788v-107l-686 -1223h697v-100z" />
    <glyph glyph-name="bracketleft" unicode="[" horiz-adv-x="604" 
d="M510 -340h-303v1874h303v-86h-193v-1702h193v-86z" />
    <glyph glyph-name="backslash" unicode="\" horiz-adv-x="737" 
d="M737 -262l-108 -31l-629 1880l109 33z" />
    <glyph glyph-name="bracketright" unicode="]" horiz-adv-x="604" 
d="M395 -340h-299v86h189v1702h-189v86h299v-1874z" />
    <glyph glyph-name="asciicircum" unicode="^" 
d="M922 719h-134l-272 620l-246 -620h-129l303 711h156z" />
    <glyph glyph-name="underscore" unicode="_" 
d="M1024 -453h-1024v93h1024v-93z" />
    <glyph glyph-name="grave" unicode="`" horiz-adv-x="460" 
d="M295 1266l-72 -60l-223 252l98 78z" />
    <glyph glyph-name="a" unicode="a" horiz-adv-x="976" 
d="M815 0h-94l-12 121q-71 -69 -143 -105t-163 -36q-147 0 -227 76.5t-80 213.5q0 153 115 233.5t301 80.5h184v98q0 144 -54 210t-183 66q-135 0 -271 -59l-26 92q154 64 321 64q93 0 160.5 -28.5t103.5 -77.5t52 -103.5t16 -118.5v-727zM696 221v271h-190
q-137 0 -209 -57.5t-72 -160.5q0 -94 49.5 -147t143.5 -53q78 0 141.5 37t136.5 110z" />
    <glyph glyph-name="b" unicode="b" horiz-adv-x="1073" 
d="M971 551q0 -90 -16.5 -171t-52.5 -153.5t-88.5 -125t-130 -83t-171.5 -30.5q-176 0 -346 53v1495h117v-664q75 95 152.5 139t182.5 44q93 0 162.5 -40t110.5 -110.5t60.5 -159t19.5 -194.5zM844 547q0 79 -11 147.5t-37 132t-75.5 100t-118.5 36.5q-83 0 -154 -47.5
t-165 -170.5v-620q106 -47 239 -47q161 0 241.5 123.5t80.5 345.5z" />
    <glyph glyph-name="c" unicode="c" horiz-adv-x="847" 
d="M776 37q-116 -53 -254 -53q-216 0 -319 137t-103 381q0 259 118.5 404t316.5 145q133 0 239 -56l-29 -86q-115 49 -210 49q-156 0 -232 -119t-76 -323q0 -436 312 -436q115 0 217 45z" />
    <glyph glyph-name="d" unicode="d" horiz-adv-x="1073" 
d="M907 0h-94l-12 174q-81 -102 -161 -148t-185 -46q-92 0 -161.5 40t-110.5 110.5t-61 159.5t-20 195q0 90 16.5 171t52.5 153t88.5 124.5t130.5 83t173 30.5q109 0 228 -25v514h116v-1536zM791 291v620q-106 47 -240 47q-161 0 -241.5 -123.5t-80.5 -347.5
q0 -78 11.5 -146t37.5 -130.5t76 -99.5t119 -37q82 0 154.5 48t163.5 169z" />
    <glyph glyph-name="e" unicode="e" horiz-adv-x="999" 
d="M893 606q0 -7 -1 -39t-1 -47h-662q0 -218 73 -331t251 -113q137 0 295 51l18 -92q-153 -55 -336 -55q-428 0 -428 536q0 249 111 394t315 145q93 0 164 -34.5t114.5 -96.5t65 -142t21.5 -176zM770 612q5 161 -62.5 256t-189.5 95q-71 0 -127 -32t-89.5 -84t-52 -112
t-20.5 -123h541z" />
    <glyph glyph-name="f" unicode="f" horiz-adv-x="612" 
d="M606 1458h-92q-39 0 -68.5 -9t-49.5 -22t-33.5 -37.5t-20.5 -45.5t-11 -57t-4.5 -61.5t-0.5 -68.5v-121h241v-90h-241v-946h-119v946h-158v90h158v117q0 77 7.5 135t27 109.5t52 84t84 51.5t122.5 19q62 0 106 -8v-86z" />
    <glyph glyph-name="g" unicode="g" horiz-adv-x="1073" 
d="M907 14q0 -125 -20.5 -209.5t-70 -143t-132 -84.5t-207.5 -26q-129 0 -250 21l2 84q117 -6 242 -6q121 0 188 31t99.5 110.5t32.5 226.5v156q-82 -99 -159 -141.5t-175 -42.5q-93 0 -163 39t-111 109t-61 158t-20 193q0 89 16.5 170t52.5 152t89 123.5t131 82.5t172 30
q187 0 344 -54v-979zM791 301v610q-106 47 -240 47q-160 0 -241 -122.5t-81 -343.5q0 -77 11.5 -144.5t37 -130t75.5 -99t120 -36.5q83 0 153.5 48t164.5 171z" />
    <glyph glyph-name="h" unicode="h" horiz-adv-x="1087" 
d="M926 0h-117v639q0 322 -211 322q-87 0 -153.5 -47.5t-161.5 -163.5v-750h-117v1536h117v-666q78 96 153.5 140.5t173.5 44.5q87 0 150.5 -32t98.5 -89t51 -124t16 -148v-662z" />
    <glyph glyph-name="i" unicode="i" horiz-adv-x="493" 
d="M348 1376q0 -40 -26 -67t-66 -27t-67 27t-27 67t27.5 68.5t66.5 28.5t65.5 -28.5t26.5 -68.5zM328 0h-119v946h-166v90h285v-1036z" />
    <glyph glyph-name="j" unicode="j" horiz-adv-x="471" 
d="M340 1376q0 -40 -27 -67t-67 -27t-67 27t-27 67t27.5 68.5t66.5 28.5t66.5 -28.5t27.5 -68.5zM305 -57q0 -99 -13.5 -171t-35 -114t-55.5 -66.5t-67.5 -32.5t-78.5 -8q-55 0 -106 15l4 86h96q73 0 105 62t32 206v1116h119v-1093z" />
    <glyph glyph-name="k" unicode="k" horiz-adv-x="946" 
d="M911 0h-163l-402 553l-63 -59v-494h-117v1536h117v-920q252 256 407 420h168l-426 -405z" />
    <glyph glyph-name="l" unicode="l" horiz-adv-x="491" 
d="M444 -2q-46 -8 -90 -8q-188 0 -188 194v1352h117v-1327q0 -123 82 -123h79v-88z" />
    <glyph glyph-name="m" unicode="m" horiz-adv-x="1624" 
d="M1462 0h-119v639q0 76 -7 129t-26 99.5t-56 70t-93 23.5q-83 0 -140.5 -45.5t-148.5 -165.5v-750h-116v639q0 75 -7.5 129t-26.5 100t-56.5 69.5t-94.5 23.5q-82 0 -138.5 -45.5t-149.5 -165.5v-750h-117v1036h94l19 -170q74 99 143 144t162 45q215 0 268 -209
q81 112 154 160.5t168 48.5q69 0 121 -22t83.5 -57.5t50.5 -88t26 -106t7 -119.5v-662z" />
    <glyph glyph-name="n" unicode="n" horiz-adv-x="1087" 
d="M926 0h-117v639q0 322 -211 322q-88 0 -154.5 -47.5t-160.5 -163.5v-750h-117v1036h94l19 -170q82 100 157.5 144.5t175.5 44.5q70 0 125 -21.5t90 -58t58 -88t32 -106.5t9 -119v-662z" />
    <glyph glyph-name="o" unicode="o" horiz-adv-x="1089" 
d="M989 528q0 -245 -123.5 -396.5t-330.5 -151.5q-211 0 -323 143t-112 385q0 250 120.5 398.5t332.5 148.5q203 0 319.5 -141.5t116.5 -385.5zM862 504q0 132 -32.5 232t-105.5 162.5t-181 62.5q-152 0 -234 -118.5t-82 -312.5q0 -137 32 -236t106 -158.5t186 -59.5
q100 0 171 57t105.5 152.5t34.5 218.5z" />
    <glyph glyph-name="p" unicode="p" horiz-adv-x="1073" 
d="M971 551q0 -114 -27 -213t-80.5 -178.5t-144 -125.5t-207.5 -46q-106 0 -229 28v-448h-117v1468h94l14 -176q80 102 159.5 148.5t184.5 46.5q92 0 161.5 -39.5t110.5 -110t61 -159.5t20 -195zM844 547q0 79 -11 147.5t-37 132t-75.5 100t-118.5 36.5q-83 0 -154 -48
t-165 -172v-618q106 -47 239 -47q161 0 241.5 122.5t80.5 346.5z" />
    <glyph glyph-name="q" unicode="q" horiz-adv-x="1073" 
d="M907 -432h-116v594q-82 -98 -159.5 -140t-176.5 -42q-92 0 -161.5 40t-110.5 110.5t-61 159.5t-20 195q0 90 16.5 171t52.5 153t88.5 124.5t130.5 83t173 30.5q187 0 344 -54v-1425zM791 291v620q-106 47 -240 47q-161 0 -241.5 -123t-80.5 -348q0 -61 6.5 -116
t23.5 -111t43.5 -96t70.5 -65t100 -25q82 0 153.5 47.5t164.5 169.5z" />
    <glyph glyph-name="r" unicode="r" horiz-adv-x="696" 
d="M662 1034l-27 -106q-48 20 -98 20t-100 -51t-154 -195v-702h-117v1036h94l14 -209q86 127 142 177.5t121 50.5q63 0 125 -21z" />
    <glyph glyph-name="s" unicode="s" horiz-adv-x="788" 
d="M696 270q0 -135 -94.5 -212.5t-251.5 -77.5q-125 0 -246 43l21 104q120 -49 240 -49q97 0 152.5 46.5t55.5 131.5q0 70 -46.5 117.5t-166.5 109.5q-124 60 -181.5 126.5t-57.5 166.5q0 126 85.5 202.5t233.5 76.5q104 0 197 -35l-16 -94q-90 35 -191 35q-92 0 -140 -49.5
t-48 -118.5q0 -71 43.5 -118.5t158.5 -103.5q89 -44 140 -82.5t81.5 -92.5t30.5 -126z" />
    <glyph glyph-name="t" unicode="t" horiz-adv-x="643" 
d="M565 2q-74 -12 -127 -12q-115 0 -175 56t-60 198v702h-154v90h152l32 303h86v-303h246v-90h-246v-694q0 -46 7.5 -77.5t19 -49t33.5 -27t43.5 -12t56.5 -2.5h86v-82z" />
    <glyph glyph-name="u" unicode="u" horiz-adv-x="1087" 
d="M922 0h-95l-16 170q-82 -100 -158.5 -145t-175.5 -45q-87 0 -150.5 32.5t-98 90t-50.5 124.5t-16 148v661h117v-639q0 -321 210 -321q88 0 156.5 48t159.5 163v749h117v-1036z" />
    <glyph glyph-name="v" unicode="v" horiz-adv-x="897" 
d="M844 1036q-129 -497 -342 -1036h-107q-206 531 -340 1036h127q99 -399 275 -893h4q161 435 266 893h117z" />
    <glyph glyph-name="w" unicode="w" horiz-adv-x="1464" 
d="M1401 1036q-129 -542 -303 -1036h-125l-246 891h-2l-236 -891h-131q-163 471 -295 1036h127q82 -404 236 -913h2l246 913h127l250 -913h2q145 477 231 913h117z" />
    <glyph glyph-name="x" unicode="x" horiz-adv-x="935" 
d="M874 0h-143l-268 451l-264 -451h-140l353 524l-328 512h143l248 -420l246 420h131l-326 -493z" />
    <glyph glyph-name="y" unicode="y" horiz-adv-x="899" 
d="M846 1036q-166 -661 -328 -1036q-114 -266 -186.5 -357.5t-169.5 -91.5q-41 0 -107 15l6 84h95q38 0 72.5 27t80 104t103.5 213q-253 653 -353 1042h127q83 -329 287 -899h2q151 421 252 899h119z" />
    <glyph glyph-name="z" unicode="z" horiz-adv-x="851" 
d="M772 0h-678v96l520 844h-489v96h614v-96l-520 -844h553v-96z" />
    <glyph glyph-name="braceleft" unicode="{" horiz-adv-x="608" 
d="M543 -338q-20 -2 -72 -2q-115 0 -155 80t-40 264v301q0 141 -39.5 210t-127.5 69v78q87 0 127 69t40 209v252q0 181 41.5 262.5t153.5 81.5q32 0 72 -4v-84h-68q-34 0 -52 -19.5t-28 -78.5t-10 -170v-226q0 -298 -164 -329q164 -31 164 -334v-275q0 -112 10 -171t28 -79
t52 -20h68v-84z" />
    <glyph glyph-name="bar" unicode="|" horiz-adv-x="931" 
d="M520 -432h-110v1997h110v-1997z" />
    <glyph glyph-name="braceright" unicode="}" horiz-adv-x="608" 
d="M567 584q-170 0 -170 -279v-301q0 -182 -41 -263t-153 -81q-52 0 -72 2v84h68q34 0 52 20t28 79t10 171v275q0 298 164 330q-46 9 -79.5 40.5t-51 79t-25.5 100t-8 113.5v226q0 111 -10 170t-28 78.5t-52 19.5h-68v84q40 4 72 4q114 0 154 -80t40 -264v-252
q0 -139 41 -208.5t129 -69.5v-78z" />
    <glyph glyph-name="asciitilde" unicode="~" 
d="M956 1171q0 -144 -66 -234.5t-181 -90.5q-45 0 -82.5 13t-65.5 38.5t-46.5 48.5t-39.5 58q-26 36 -35.5 48.5t-32.5 36t-46 32.5t-52 9q-137 0 -141 -233h-96v6q0 143 65.5 232.5t181.5 89.5q45 0 81 -12t65 -37.5t46.5 -46.5t41.5 -56q48 -71 70 -91q42 -38 96 -38
q135 0 139 236h98v-9z" />
    <glyph glyph-name="exclamdown" unicode="&#xa1;" horiz-adv-x="663" 
d="M393 1118q0 -41 -28.5 -70.5t-69.5 -29.5t-70.5 29.5t-29.5 70.5q0 43 29.5 73t70.5 30t69.5 -30t28.5 -73zM362 -336h-135l19 1184h98z" />
    <glyph glyph-name="cent" unicode="&#xa2;" 
d="M885 260q-132 -53 -244 -59v-201h-102v201q-192 15 -292 152t-100 364t108.5 366t283.5 154v193h102v-189q120 -3 244 -67l-39 -89q-128 64 -238 64q-161 0 -246.5 -112.5t-85.5 -309.5q0 -216 86.5 -326t245.5 -110q123 0 254 57z" />
    <glyph glyph-name="sterling" unicode="&#xa3;" 
d="M909 0h-768v102q86 115 125 245t15 329h-179v90h166q-24 208 -24 299q0 190 96.5 282.5t267.5 92.5q103 0 232 -27v-98q-144 20 -224 20q-133 0 -193.5 -64t-60.5 -192q0 -113 25 -313h397v-90h-385q35 -382 -147 -576h657v-100z" />
    <glyph glyph-name="currency" unicode="&#xa4;" 
d="M918 111l-87 -62l-143 227q-82 -51 -186 -51q-99 0 -174 43l-138 -219l-86 57l146 224q-96 108 -96 309q0 186 94 309l-144 223l86 60l138 -215q79 51 188 51q105 0 184 -51l134 215l86 -57l-144 -222q88 -111 88 -297q0 -196 -98 -311zM754 637q0 151 -61.5 244.5
t-184.5 93.5q-117 0 -179.5 -87.5t-62.5 -232.5q0 -156 60 -247t186 -91q116 0 179 89t63 231z" />
    <glyph glyph-name="yen" unicode="&#xa5;" 
d="M967 1430q-198 -401 -394 -705v-70h310v-92h-310v-217h310v-92h-310v-254h-120v254h-310v92h310v217h-310v92h310v70q-206 311 -396 705h140q154 -352 325 -617q151 251 297 617h148z" />
    <glyph glyph-name="brokenbar" unicode="&#xa6;" 
d="M565 811h-110v784h110v-784zM565 -432h-110v801h110v-801z" />
    <glyph glyph-name="section" unicode="&#xa7;" horiz-adv-x="1013" 
d="M846 223q0 -128 -49 -268t-133 -229q-104 -107 -271 -107q-67 0 -135 19l4 88q59 -15 152 -15q94 0 144 51t50 142q0 57 -25 117.5t-64.5 116t-87.5 114.5t-96 123.5t-87.5 132t-64.5 150.5t-25 169q0 126 49.5 265t130.5 233q103 115 266 115q54 0 137 -15l-6 -84
q-106 13 -147 13q-101 0 -148 -54.5t-47 -162.5q0 -55 25 -112.5t65 -110t88.5 -109t96.5 -119.5t88 -131t65 -154t25 -178zM741 199q0 85 -22.5 164.5t-59.5 142.5t-82 122t-91 114.5t-85 109t-66.5 116.5t-33.5 126q-39 -125 -39 -228q0 -86 22 -165t58 -141.5
t79.5 -121.5t88.5 -115t84 -110.5t67.5 -120t36.5 -133.5q43 118 43 240z" />
    <glyph glyph-name="dieresis" unicode="&#xa8;" horiz-adv-x="645" 
d="M502 1380q0 -35 -23 -58.5t-57 -23.5t-57 23.5t-23 58.5t23 58.5t57 23.5t57 -23.5t23 -58.5zM162 1380q0 -35 -24 -58.5t-58 -23.5t-57 23.5t-23 58.5t23 58.5t57 23.5t58 -23.5t24 -58.5z" />
    <glyph glyph-name="copyright" unicode="&#xa9;" horiz-adv-x="1390" 
d="M1311 686q0 -187 -81.5 -344t-223.5 -248.5t-312 -91.5q-175 0 -317.5 91t-222.5 247t-80 344t81.5 344.5t224 247t314.5 90.5q171 0 313 -89.5t223 -245.5t81 -345zM1214 684q0 162 -68.5 299.5t-188 218t-263.5 80.5q-146 0 -266.5 -79.5t-189 -216t-68.5 -300.5
q0 -162 68.5 -299.5t189 -218t266.5 -80.5q144 0 263.5 79.5t188 216.5t68.5 300zM887 362q-87 -38 -185 -38q-141 0 -218.5 86t-77.5 266q0 181 87.5 278t229.5 97q76 0 158 -35l-33 -90q-61 30 -135 30q-95 0 -143 -72.5t-48 -195.5q0 -268 191 -268q60 0 155 31z" />
    <glyph glyph-name="ordfeminine" unicode="&#xaa;" horiz-adv-x="802" 
d="M639 698h-86l-12 86q-48 -51 -96 -77.5t-117 -26.5q-102 0 -162 56.5t-60 158.5q0 114 83 168.5t225 54.5h114v62q0 86 -39.5 127t-121.5 41q-104 0 -191 -41l-18 88q102 45 229 45q124 0 188 -64.5t64 -173.5v-504zM639 399h-514v95h514v-95zM528 879v151h-120
q-92 0 -136.5 -31.5t-44.5 -97.5q0 -59 32 -94t87 -35q52 0 92.5 26t89.5 81z" />
    <glyph glyph-name="guillemotleft" unicode="&#xab;" horiz-adv-x="1013" 
d="M819 195l-94 -45l-262 423l262 422l94 -45l-223 -377zM473 176l-92 -45l-260 442l260 443l92 -45l-219 -398z" />
    <glyph glyph-name="logicalnot" unicode="&#xac;" 
d="M915 377h-118v198h-713v109h831v-307z" />
    <glyph glyph-name="registered" unicode="&#xae;" horiz-adv-x="1056" 
d="M913 1092q0 -165 -113 -283.5t-274 -118.5q-165 0 -277 116.5t-112 287.5q0 166 114 283.5t275 117.5q164 0 275.5 -116.5t111.5 -286.5zM831 1087q0 142 -91 237t-214 95q-132 0 -218.5 -97t-86.5 -226q0 -139 92 -235.5t213 -96.5q132 0 218.5 97t86.5 226zM678 1212
q0 -49 -24.5 -86t-61.5 -49l108 -213h-96l-92 201h-35v-201h-82v467h142q66 0 103.5 -32.5t37.5 -86.5zM592 1206q0 60 -76 60h-39v-138h35q80 0 80 78z" />
    <glyph glyph-name="macron" unicode="&#xaf;" horiz-adv-x="532" 
d="M498 1329h-498v90h498v-90z" />
    <glyph glyph-name="macron" unicode="&#x2c9;" horiz-adv-x="532" 
d="M498 1329h-498v90h498v-90z" />
    <glyph glyph-name="degree" unicode="&#xb0;" horiz-adv-x="686" 
d="M569 1257q0 -98 -66.5 -163.5t-164.5 -65.5q-97 0 -160 61t-63 160q0 100 66.5 165t164.5 65t160.5 -61.5t62.5 -160.5zM471 1253q0 63 -37.5 104.5t-91.5 41.5t-91.5 -41.5t-37.5 -102.5q0 -65 37.5 -106t93.5 -41q53 0 90 41.5t37 103.5z" />
    <glyph glyph-name="plusminus" unicode="&#xb1;" 
d="M930 711h-359v-416h-118v416h-359v106h359v418h118v-418h359v-106zM926 0h-830v109h830v-109z" />
    <glyph glyph-name="twosuperior" unicode="&#xb2;" horiz-adv-x="677" 
d="M584 721h-498v78l205 194q82 77 110.5 130.5t28.5 111.5q0 125 -139 125q-91 0 -168 -39l-21 84q91 43 203 43q121 0 181.5 -56.5t60.5 -150.5q0 -80 -39.5 -149t-161.5 -177l-110 -100h348v-94z" />
    <glyph glyph-name="threesuperior" unicode="&#xb3;" horiz-adv-x="659" 
d="M549 915q0 -58 -24.5 -101t-66.5 -67t-90.5 -35.5t-103.5 -11.5q-77 0 -170 19v82q47 -8 166 -8q84 0 129 30t45 88q0 77 -48 104t-142 27h-68v93h76q75 0 118.5 33t43.5 89q0 101 -119 101q-100 0 -174 -35l-21 86q109 39 209 39q104 0 160.5 -48.5t56.5 -135.5
q0 -65 -37.5 -109.5t-103.5 -56.5q81 -6 122.5 -59t41.5 -124z" />
    <glyph glyph-name="acute" unicode="&#xb4;" horiz-adv-x="520" 
d="M301 1462l-227 -256l-74 58l199 272z" />
    <glyph glyph-name="mu" unicode="&#xb5;" horiz-adv-x="1142" 
d="M1087 0q-46 -8 -90 -8q-87 0 -132.5 46t-51.5 128q-83 -98 -156.5 -142t-173.5 -44q-68 0 -116.5 22.5t-83.5 75.5v-510h-117v1468h117v-641q0 -319 211 -319q88 0 155.5 48t159.5 163v749h117v-827q0 -121 82 -121h79v-88z" />
    <glyph glyph-name="mu" unicode="&#x3bc;" horiz-adv-x="1142" 
d="M1087 0q-46 -8 -90 -8q-87 0 -132.5 46t-51.5 128q-83 -98 -156.5 -142t-173.5 -44q-68 0 -116.5 22.5t-83.5 75.5v-510h-117v1468h117v-641q0 -319 211 -319q88 0 155.5 48t159.5 163v749h117v-827q0 -121 82 -121h79v-88z" />
    <glyph glyph-name="paragraph" unicode="&#xb6;" horiz-adv-x="1077" 
d="M909 -242h-121v1555h-204v-1555h-125v856q-182 -10 -301 107t-119 301q0 168 115.5 288t294.5 120h460v-1672z" />
    <glyph glyph-name="periodcentered" unicode="&#xb7;" horiz-adv-x="497" 
d="M354 635q0 -46 -30.5 -77.5t-75.5 -31.5q-44 0 -74.5 31.5t-30.5 77.5t30.5 77t74.5 31q46 0 76 -31t30 -77z" />
    <glyph glyph-name="periodcentered" unicode="&#x2219;" horiz-adv-x="497" 
d="M354 635q0 -46 -30.5 -77.5t-75.5 -31.5q-44 0 -74.5 31.5t-30.5 77.5t30.5 77t74.5 31q46 0 76 -31t30 -77z" />
    <glyph glyph-name="cedilla" unicode="&#xb8;" horiz-adv-x="512" 
d="M438 -215q0 -43 -45.5 -75t-146.5 -32q-94 0 -166 21v78h182q33 0 46.5 5.5t13.5 22.5q0 23 -11 50l-57 145h108l48 -115q28 -62 28 -100z" />
    <glyph glyph-name="onesuperior" unicode="&#xb9;" horiz-adv-x="561" 
d="M377 721h-113v590l-170 -97l-37 72l217 144h103v-709z" />
    <glyph glyph-name="ordmasculine" unicode="&#xba;" horiz-adv-x="845" 
d="M743 1071q0 -178 -87.5 -284.5t-241.5 -106.5q-158 0 -238 100t-80 273q0 181 85.5 285t244.5 104q151 0 234 -99.5t83 -271.5zM698 399h-544v95h544v-95zM623 1051q0 133 -50 216t-153 83q-101 0 -152 -75.5t-51 -205.5q0 -295 207 -295q95 0 147 79t52 198z" />
    <glyph glyph-name="guillemotright" unicode="&#xbb;" horiz-adv-x="1013" 
d="M893 573l-260 -442l-92 45l219 397l-219 398l92 45zM551 573l-260 -423l-96 45l223 378l-223 377l96 45z" />
    <glyph glyph-name="onequarter" unicode="&#xbc;" horiz-adv-x="1341" 
d="M375 721h-113v590l-170 -97l-37 72l217 144h103v-709zM1298 150h-137v-150h-114v150h-369v83l311 476h172v-463h137v-96zM1047 246v375h-3l-243 -375h246zM1126 1440l-913 -1497l-86 47l913 1499z" />
    <glyph glyph-name="onehalf" unicode="&#xbd;" horiz-adv-x="1406" 
d="M377 721h-113v590l-170 -97l-37 72l217 144h103v-709zM1313 0h-498v78l205 194q82 77 110.5 130.5t28.5 111.5q0 125 -139 125q-91 0 -168 -39l-21 84q91 43 203 43q121 0 181.5 -56.5t60.5 -150.5q0 -80 -39.5 -148.5t-161.5 -176.5l-110 -101h348v-94zM1126 1440
l-913 -1497l-86 47l913 1499z" />
    <glyph glyph-name="threequarters" unicode="&#xbe;" horiz-adv-x="1447" 
d="M547 915q0 -58 -24.5 -101t-66.5 -67t-90.5 -35.5t-103.5 -11.5q-77 0 -170 19v82q47 -8 166 -8q84 0 129 30t45 88q0 77 -48 104t-142 27h-68v93h76q75 0 118.5 33t43.5 89q0 101 -119 101q-100 0 -174 -35l-21 86q109 39 209 39q104 0 160.5 -48.5t56.5 -135.5
q0 -65 -37.5 -109.5t-103.5 -56.5q81 -6 122.5 -59t41.5 -124zM1405 150h-137v-150h-115v150h-369v83l312 476h172v-463h137v-96zM1153 246v375h-2l-244 -375h246zM1221 1440l-914 -1497l-86 47l914 1499z" />
    <glyph glyph-name="questiondown" unicode="&#xbf;" horiz-adv-x="847" 
d="M582 1118q0 -41 -30 -70.5t-71 -29.5t-69.5 29.5t-28.5 70.5q0 43 28.5 73t69.5 30t71 -30t30 -73zM713 -328q-108 -24 -211 -24q-202 0 -294.5 97t-92.5 261q0 75 25.5 148.5t63.5 130t81 123t78.5 127.5t54.5 143t10 170h107q11 -110 -14.5 -209.5t-70 -174.5t-90 -144
t-79 -147t-33.5 -155q0 -127 60 -194.5t198 -67.5q96 0 207 15v-99z" />
    <glyph glyph-name="Agrave" unicode="&#xc0;" horiz-adv-x="1191" 
d="M668 1630l-56 -80l-313 174l70 103zM1133 0h-142q-62 227 -119 414h-565q-57 -187 -114 -414h-134q228 809 471 1430h119q258 -669 484 -1430zM336 512h504q-94 302 -256 776l-2 -2q-139 -415 -246 -774z" />
    <glyph glyph-name="Aacute" unicode="&#xc1;" horiz-adv-x="1191" 
d="M852 1724l-313 -174l-56 80l299 197zM1133 0h-142q-62 227 -119 414h-565q-57 -187 -114 -414h-134q228 809 471 1430h119q258 -669 484 -1430zM336 512h504q-94 302 -256 776l-2 -2q-139 -415 -246 -774z" />
    <glyph glyph-name="Acircumflex" unicode="&#xc2;" horiz-adv-x="1191" 
d="M831 1630l-57 -76l-190 140l-189 -140l-53 72l246 195zM1133 0h-142q-62 227 -119 414h-565q-57 -187 -114 -414h-134q228 809 471 1430h119q258 -669 484 -1430zM336 512h504q-94 302 -256 776l-2 -2q-139 -415 -246 -774z" />
    <glyph glyph-name="Atilde" unicode="&#xc3;" horiz-adv-x="1191" 
d="M889 1698q-31 -64 -84.5 -101.5t-114.5 -37.5q-52 0 -92 22t-73 44t-68 22q-33 0 -65.5 -28t-53.5 -73l-72 60q31 64 84 101.5t115 37.5q41 0 76 -13.5t54.5 -29.5t46 -29.5t54.5 -13.5q35 0 67 26t54 70zM1133 0h-142q-62 227 -119 414h-565q-57 -187 -114 -414h-134
q228 809 471 1430h119q258 -669 484 -1430zM336 512h504q-94 302 -256 776l-2 -2q-139 -415 -246 -774z" />
    <glyph glyph-name="Adieresis" unicode="&#xc4;" horiz-adv-x="1191" 
d="M862 1647q0 -34 -25 -58t-59 -24q-32 0 -56 24t-24 58q0 35 24 60.5t56 25.5q34 0 59 -25.5t25 -60.5zM469 1647q0 -34 -24 -58t-58 -24t-58 24t-24 58q0 35 24 60.5t58 25.5t58 -25.5t24 -60.5zM1133 0h-142q-62 227 -119 414h-565q-57 -187 -114 -414h-134
q228 809 471 1430h119q258 -669 484 -1430zM336 512h504q-94 302 -256 776l-2 -2q-139 -415 -246 -774z" />
    <glyph glyph-name="Aring" unicode="&#xc5;" horiz-adv-x="1191" 
d="M774 1690q0 -81 -50 -136t-130 -55q-86 0 -130 50.5t-44 131.5q0 84 48 135.5t132 51.5q79 0 126.5 -49t47.5 -129zM688 1681q0 48 -23.5 80.5t-68.5 32.5q-41 0 -65.5 -29t-24.5 -77q0 -113 92 -113q42 0 66 29.5t24 76.5zM1133 0h-142q-62 227 -119 414h-565
q-57 -187 -114 -414h-134q228 809 471 1430h119q258 -669 484 -1430zM336 512h504q-94 302 -256 776l-2 -2q-139 -415 -246 -774z" />
    <glyph glyph-name="AE" unicode="&#xc6;" horiz-adv-x="1599" 
d="M1464 0h-678v356h-503q-32 -72 -87 -192t-75 -164h-127q320 699 743 1430h705v-101h-537v-532h486v-101h-486v-594h559v-102zM786 455v870h-6q-254 -471 -444 -870h450z" />
    <glyph glyph-name="Ccedilla" unicode="&#xc7;" horiz-adv-x="1079" 
d="M735 -12l43 -99q31 -66 31 -106q0 -42 -45.5 -73.5t-147.5 -31.5q-90 0 -165 21v78h182q33 0 47 6t14 24q0 24 -12 54l-53 129q-235 21 -375.5 203t-140.5 505q0 340 156 543t427 203q170 0 322 -76l-41 -92q-143 65 -291 65q-207 0 -323.5 -171t-116.5 -457
q0 -296 122.5 -459.5t342.5 -163.5q138 0 282 72l33 -94q-143 -72 -291 -80z" />
    <glyph glyph-name="Egrave" unicode="&#xc8;" horiz-adv-x="1001" 
d="M598 1630l-55 -80l-314 174l70 103zM868 0h-680v1430h670v-101h-549v-532h484v-101h-484v-594h559v-102z" />
    <glyph glyph-name="Eacute" unicode="&#xc9;" horiz-adv-x="1001" 
d="M752 1724l-314 -174l-55 80l299 197zM868 0h-680v1430h670v-101h-549v-532h484v-101h-484v-594h559v-102z" />
    <glyph glyph-name="Ecircumflex" unicode="&#xca;" horiz-adv-x="1001" 
d="M762 1630l-57 -76l-191 140l-188 -140l-54 72l246 195zM868 0h-680v1430h670v-101h-549v-532h484v-101h-484v-594h559v-102z" />
    <glyph glyph-name="Edieresis" unicode="&#xcb;" horiz-adv-x="1001" 
d="M801 1647q0 -34 -25 -58t-59 -24q-32 0 -56 24t-24 58q0 35 24 60.5t56 25.5q34 0 59 -25.5t25 -60.5zM408 1647q0 -34 -24 -58t-58 -24t-58 24t-24 58q0 35 24 60.5t58 25.5t58 -25.5t24 -60.5zM868 0h-680v1430h670v-101h-549v-532h484v-101h-484v-594h559v-102z" />
    <glyph glyph-name="Igrave" unicode="&#xcc;" horiz-adv-x="497" 
d="M369 1630l-56 -80l-313 174l70 103zM309 0h-121v1430h121v-1430z" />
    <glyph glyph-name="Iacute" unicode="&#xcd;" horiz-adv-x="497" 
d="M498 1724l-314 -174l-55 80l299 197zM309 0h-121v1430h121v-1430z" />
    <glyph glyph-name="Icircumflex" unicode="&#xce;" horiz-adv-x="497" 
d="M494 1630l-58 -76l-190 140l-189 -140l-53 72l246 195zM309 0h-121v1430h121v-1430z" />
    <glyph glyph-name="Idieresis" unicode="&#xcf;" horiz-adv-x="497" 
d="M510 1647q0 -34 -23.5 -58t-58.5 -24q-33 0 -57.5 24.5t-24.5 57.5q0 35 24.5 60.5t57.5 25.5q35 0 58.5 -25t23.5 -61zM152 1647q0 -34 -24 -58t-58 -24t-58 24t-24 58q0 35 24 60.5t58 25.5t58 -25.5t24 -60.5zM309 0h-121v1430h121v-1430z" />
    <glyph glyph-name="Eth" unicode="&#xd0;" horiz-adv-x="1294" 
d="M1186 735q0 -358 -161 -546.5t-466 -188.5h-350v686h-170v98h170v646h375q289 0 445.5 -189t156.5 -506zM1057 731q0 131 -29 238.5t-87 188.5t-152 126t-216 45h-243v-545h278v-98h-278v-584h241q245 0 365.5 153t120.5 476z" />
    <glyph glyph-name="Ntilde" unicode="&#xd1;" horiz-adv-x="1288" 
d="M946 1698q-31 -64 -84 -101.5t-114 -37.5q-41 0 -76 13.5t-55 30.5t-47.5 30.5t-55.5 13.5q-33 0 -65.5 -28t-53.5 -73l-71 60q31 65 84 102t114 37q41 0 76 -13.5t55 -29.5t46.5 -29.5t54.5 -13.5q34 0 66 26t54 70zM1100 0h-154l-641 1280h-4v-1280h-113v1430h174
l621 -1233h4v1233h113v-1430z" />
    <glyph glyph-name="Ograve" unicode="&#xd2;" horiz-adv-x="1400" 
d="M778 1630l-55 -80l-313 174l69 103zM1288 725q0 -221 -66.5 -387t-202.5 -261t-327 -95q-116 0 -211 35.5t-162.5 99.5t-113.5 154t-68 198t-22 233q0 221 66.5 387.5t202 262.5t325.5 96q142 0 254 -55t182 -153t106.5 -228.5t36.5 -286.5zM1155 702q0 142 -26.5 257
t-81 203.5t-145.5 137t-212 48.5q-93 0 -168.5 -33.5t-126 -91t-84.5 -137.5t-49.5 -170t-15.5 -191q0 -142 26 -256.5t80.5 -202.5t145.5 -136t213 -48q95 0 171 33.5t126.5 91t84 137.5t48 169t14.5 189z" />
    <glyph glyph-name="Oacute" unicode="&#xd3;" horiz-adv-x="1400" 
d="M989 1724l-313 -174l-55 80l299 197zM1288 725q0 -221 -66.5 -387t-202.5 -261t-327 -95q-116 0 -211 35.5t-162.5 99.5t-113.5 154t-68 198t-22 233q0 221 66.5 387.5t202 262.5t325.5 96q142 0 254 -55t182 -153t106.5 -228.5t36.5 -286.5zM1155 702q0 142 -26.5 257
t-81 203.5t-145.5 137t-212 48.5q-93 0 -168.5 -33.5t-126 -91t-84.5 -137.5t-49.5 -170t-15.5 -191q0 -142 26 -256.5t80.5 -202.5t145.5 -136t213 -48q95 0 171 33.5t126.5 91t84 137.5t48 169t14.5 189z" />
    <glyph glyph-name="Ocircumflex" unicode="&#xd4;" horiz-adv-x="1400" 
d="M944 1630l-57 -76l-191 140l-188 -140l-53 72l245 195zM1288 725q0 -221 -66.5 -387t-202.5 -261t-327 -95q-116 0 -211 35.5t-162.5 99.5t-113.5 154t-68 198t-22 233q0 221 66.5 387.5t202 262.5t325.5 96q142 0 254 -55t182 -153t106.5 -228.5t36.5 -286.5zM1155 702
q0 142 -26.5 257t-81 203.5t-145.5 137t-212 48.5q-93 0 -168.5 -33.5t-126 -91t-84.5 -137.5t-49.5 -170t-15.5 -191q0 -142 26 -256.5t80.5 -202.5t145.5 -136t213 -48q95 0 171 33.5t126.5 91t84 137.5t48 169t14.5 189z" />
    <glyph glyph-name="Otilde" unicode="&#xd5;" horiz-adv-x="1400" 
d="M999 1698q-31 -64 -84 -101.5t-114 -37.5q-41 0 -76 13.5t-55 30.5t-47.5 30.5t-55.5 13.5q-33 0 -65 -28t-53 -73l-72 60q31 65 84 102t114 37q41 0 76 -13.5t55 -29.5t46.5 -29.5t54.5 -13.5q35 0 67 26t54 70zM1288 725q0 -221 -66.5 -387t-202.5 -261t-327 -95
q-116 0 -211 35.5t-162.5 99.5t-113.5 154t-68 198t-22 233q0 221 66.5 387.5t202 262.5t325.5 96q142 0 254 -55t182 -153t106.5 -228.5t36.5 -286.5zM1155 702q0 142 -26.5 257t-81 203.5t-145.5 137t-212 48.5q-93 0 -168.5 -33.5t-126 -91t-84.5 -137.5t-49.5 -170
t-15.5 -191q0 -142 26 -256.5t80.5 -202.5t145.5 -136t213 -48q95 0 171 33.5t126.5 91t84 137.5t48 169t14.5 189z" />
    <glyph glyph-name="Odieresis" unicode="&#xd6;" horiz-adv-x="1400" 
d="M981 1647q0 -34 -25 -58t-59 -24q-32 0 -56 24t-24 58q0 35 24 60.5t56 25.5q34 0 59 -25.5t25 -60.5zM588 1647q0 -34 -24 -58t-58 -24t-58 24t-24 58q0 35 24 60.5t58 25.5t58 -25.5t24 -60.5zM1288 725q0 -221 -66.5 -387t-202.5 -261t-327 -95q-116 0 -211 35.5
t-162.5 99.5t-113.5 154t-68 198t-22 233q0 221 66.5 387.5t202 262.5t325.5 96q142 0 254 -55t182 -153t106.5 -228.5t36.5 -286.5zM1155 702q0 142 -26.5 257t-81 203.5t-145.5 137t-212 48.5q-93 0 -168.5 -33.5t-126 -91t-84.5 -137.5t-49.5 -170t-15.5 -191
q0 -142 26 -256.5t80.5 -202.5t145.5 -136t213 -48q95 0 171 33.5t126.5 91t84 137.5t48 169t14.5 189z" />
    <glyph glyph-name="multiply" unicode="&#xd7;" 
d="M924 274l-80 -79l-334 360l-332 -360l-78 77l336 361l-336 364l80 80l334 -360l332 358l78 -76l-336 -362z" />
    <glyph glyph-name="Oslash" unicode="&#xd8;" horiz-adv-x="1400" 
d="M1288 735q0 -347 -155 -550t-447 -203q-146 0 -262 55l-109 -213l-88 45l111 223q-113 91 -168 247t-55 355q0 227 66 395t202.5 263.5t329.5 95.5q152 0 274 -64l94 193l88 -45l-100 -203q111 -91 165 -247t54 -347zM1155 711q0 355 -141 508l-539 -1080q94 -57 232 -57
q96 0 173 34t127.5 92t84.5 139t48.5 171.5t14.5 192.5zM395 205l539 1081q-100 62 -240 62q-118 0 -206.5 -50.5t-140 -139.5t-76.5 -199t-25 -242q0 -363 149 -512z" />
    <glyph glyph-name="Ugrave" unicode="&#xd9;" horiz-adv-x="1290" 
d="M727 1630l-55 -80l-314 174l70 103zM1106 524q0 -266 -123.5 -403t-341.5 -137q-210 0 -333.5 132.5t-123.5 383.5v930h121v-920q0 -211 90 -319.5t252 -108.5t252 108t90 322v918h117v-906z" />
    <glyph glyph-name="Uacute" unicode="&#xda;" horiz-adv-x="1290" 
d="M961 1724l-314 -174l-55 80l299 197zM1106 524q0 -266 -123.5 -403t-341.5 -137q-210 0 -333.5 132.5t-123.5 383.5v930h121v-920q0 -211 90 -319.5t252 -108.5t252 108t90 322v918h117v-906z" />
    <glyph glyph-name="Ucircumflex" unicode="&#xdb;" horiz-adv-x="1290" 
d="M897 1630l-57 -76l-191 140l-188 -140l-53 72l245 195zM1106 524q0 -266 -123.5 -403t-341.5 -137q-210 0 -333.5 132.5t-123.5 383.5v930h121v-920q0 -211 90 -319.5t252 -108.5t252 108t90 322v918h117v-906z" />
    <glyph glyph-name="Udieresis" unicode="&#xdc;" horiz-adv-x="1290" 
d="M928 1647q0 -34 -25 -58t-59 -24q-32 0 -56 24t-24 58q0 35 24 60.5t56 25.5q34 0 59 -25.5t25 -60.5zM535 1647q0 -34 -24 -58t-58 -24t-58 24t-24 58q0 35 24 60.5t58 25.5t58 -25.5t24 -60.5zM1106 524q0 -266 -123.5 -403t-341.5 -137q-210 0 -333.5 132.5
t-123.5 383.5v930h121v-920q0 -211 90 -319.5t252 -108.5t252 108t90 322v918h117v-906z" />
    <glyph glyph-name="Yacute" unicode="&#xdd;" horiz-adv-x="1054" 
d="M817 1724l-313 -174l-55 80l299 197zM1036 1430q-230 -474 -444 -805v-625h-121v625q-233 345 -455 805h148q152 -372 379 -715q177 295 340 715h153z" />
    <glyph glyph-name="Thorn" unicode="&#xde;" horiz-adv-x="1032" 
d="M930 768q0 -198 -113.5 -317t-312.5 -119h-195v-332h-121v1430h121v-252h178q94 0 172 -19q125 -34 198 -139t73 -252zM799 760q0 115 -50.5 196.5t-138.5 106.5q-55 14 -127 14h-174v-645h207q135 0 209 88.5t74 239.5z" />
    <glyph glyph-name="germandbls" unicode="&#xdf;" horiz-adv-x="1042" 
d="M981 274q0 -129 -87 -210.5t-230 -81.5q-93 0 -170 28l20 99q74 -31 160 -31q89 0 136.5 50.5t47.5 131.5q0 54 -20 97t-52.5 72.5t-71.5 56t-78 54.5t-71.5 60.5t-52.5 82.5t-20 112q0 68 27 121t65 87t76 66t65 76.5t27 101.5q0 87 -54 148t-159 61q-130 0 -193 -105
t-63 -288v-1063h-117v1061q0 223 99.5 356t283.5 133q84 0 148.5 -27t100 -71t53 -92.5t17.5 -97.5q0 -53 -14 -96.5t-37 -73t-50.5 -55t-55 -48.5t-50.5 -47.5t-37 -58t-14 -74.5q0 -49 20.5 -89t53 -68t72.5 -54t79.5 -55.5t72 -64t53 -87t20.5 -117.5z" />
    <glyph glyph-name="agrave" unicode="&#xe0;" horiz-adv-x="976" 
d="M815 0h-94l-12 121q-71 -69 -143 -105t-163 -36q-147 0 -227 76.5t-80 213.5q0 153 115 233.5t301 80.5h184v98q0 144 -54 210t-183 66q-135 0 -271 -59l-26 92q154 64 321 64q93 0 160.5 -28.5t103.5 -77.5t52 -103.5t16 -118.5v-727zM696 221v271h-190
q-137 0 -209 -57.5t-72 -160.5q0 -94 49.5 -147t143.5 -53q78 0 141.5 37t136.5 110zM549 1266l-72 -60l-223 252l98 78z" />
    <glyph glyph-name="aacute" unicode="&#xe1;" horiz-adv-x="976" 
d="M815 0h-94l-12 121q-71 -69 -143 -105t-163 -36q-147 0 -227 76.5t-80 213.5q0 153 115 233.5t301 80.5h184v98q0 144 -54 210t-183 66q-135 0 -271 -59l-26 92q154 64 321 64q93 0 160.5 -28.5t103.5 -77.5t52 -103.5t16 -118.5v-727zM696 221v271h-190
q-137 0 -209 -57.5t-72 -160.5q0 -94 49.5 -147t143.5 -53q78 0 141.5 37t136.5 110zM700 1462l-227 -256l-74 58l199 272z" />
    <glyph glyph-name="acircumflex" unicode="&#xe2;" horiz-adv-x="976" 
d="M815 0h-94l-12 121q-71 -69 -143 -105t-163 -36q-147 0 -227 76.5t-80 213.5q0 153 115 233.5t301 80.5h184v98q0 144 -54 210t-183 66q-135 0 -271 -59l-26 92q154 64 321 64q93 0 160.5 -28.5t103.5 -77.5t52 -103.5t16 -118.5v-727zM696 221v271h-190
q-137 0 -209 -57.5t-72 -160.5q0 -94 49.5 -147t143.5 -53q78 0 141.5 37t136.5 110zM723 1274l-64 -66l-186 185l-182 -185l-58 66l246 268z" />
    <glyph glyph-name="atilde" unicode="&#xe3;" horiz-adv-x="976" 
d="M815 0h-94l-12 121q-71 -69 -143 -105t-163 -36q-147 0 -227 76.5t-80 213.5q0 153 115 233.5t301 80.5h184v98q0 144 -54 210t-183 66q-135 0 -271 -59l-26 92q154 64 321 64q93 0 160.5 -28.5t103.5 -77.5t52 -103.5t16 -118.5v-727zM696 221v271h-190
q-137 0 -209 -57.5t-72 -160.5q0 -94 49.5 -147t143.5 -53q78 0 141.5 37t136.5 110zM778 1419q-30 -64 -81.5 -101.5t-110.5 -37.5q-41 0 -75 14t-53 30t-45.5 30t-54.5 14q-35 0 -66 -26.5t-52 -71.5l-66 57q31 64 82 101.5t111 37.5q40 0 73.5 -14t53 -30t45.5 -30
t53 -14q34 0 66 27.5t55 71.5z" />
    <glyph glyph-name="adieresis" unicode="&#xe4;" horiz-adv-x="976" 
d="M815 0h-94l-12 121q-71 -69 -143 -105t-163 -36q-147 0 -227 76.5t-80 213.5q0 153 115 233.5t301 80.5h184v98q0 144 -54 210t-183 66q-135 0 -271 -59l-26 92q154 64 321 64q93 0 160.5 -28.5t103.5 -77.5t52 -103.5t16 -118.5v-727zM696 221v271h-190
q-137 0 -209 -57.5t-72 -160.5q0 -94 49.5 -147t143.5 -53q78 0 141.5 37t136.5 110zM735 1380q0 -35 -23 -58.5t-57 -23.5t-57 23.5t-23 58.5t23 58.5t57 23.5t57 -23.5t23 -58.5zM395 1380q0 -35 -24 -58.5t-58 -23.5t-57 23.5t-23 58.5t23 58.5t57 23.5t58 -23.5
t24 -58.5z" />
    <glyph glyph-name="aring" unicode="&#xe5;" horiz-adv-x="976" 
d="M815 0h-94l-12 121q-71 -69 -143 -105t-163 -36q-147 0 -227 76.5t-80 213.5q0 153 115 233.5t301 80.5h184v98q0 144 -54 210t-183 66q-135 0 -271 -59l-26 92q154 64 321 64q93 0 160.5 -28.5t103.5 -77.5t52 -103.5t16 -118.5v-727zM696 221v271h-190
q-137 0 -209 -57.5t-72 -160.5q0 -94 49.5 -147t143.5 -53q78 0 141.5 37t136.5 110zM653 1366q0 -80 -49 -135t-129 -55q-85 0 -128.5 51.5t-43.5 132.5t47 133.5t131 52.5q79 0 125.5 -50t46.5 -130zM569 1358q0 49 -23.5 82t-68.5 33q-42 0 -65 -30t-23 -77
q0 -117 90 -117q42 0 66 31t24 78z" />
    <glyph glyph-name="ae" unicode="&#xe6;" horiz-adv-x="1585" 
d="M1479 606q0 -67 -2 -100h-662q0 -80 10 -144t33 -118.5t60 -90.5t93 -56.5t130 -20.5q135 0 293 51l20 -92q-153 -55 -336 -55q-131 0 -221 50.5t-131 141.5q-89 -100 -173 -146t-187 -46q-149 0 -229.5 76.5t-80.5 219.5q0 154 114.5 238t295.5 84h190v84q0 144 -54 210
t-183 66q-135 0 -271 -59l-26 92q154 64 321 64q233 0 299 -178q104 178 332 178q93 0 164.5 -34.5t114.5 -96.5t64.5 -142t21.5 -176zM1356 598q7 170 -60 267.5t-190 97.5q-58 0 -106.5 -21.5t-81.5 -57t-56.5 -83t-34.5 -99t-12 -104.5h541zM696 233v273h-192
q-135 0 -207 -60.5t-72 -162.5q0 -99 49.5 -154t141.5 -55q82 0 146.5 39t133.5 120z" />
    <glyph glyph-name="ccedilla" unicode="&#xe7;" horiz-adv-x="847" 
d="M573 -14l41 -95q33 -67 33 -108q0 -42 -45 -73.5t-147 -31.5q-95 0 -166 23v74h180q35 0 49 7t14 25q0 26 -14 58l-47 121q-189 17 -280 150.5t-91 365.5q0 259 118.5 404t316.5 145q133 0 239 -56l-29 -86q-115 49 -210 49q-156 0 -232 -119t-76 -323q0 -436 312 -436
q115 0 217 45l20 -88q-95 -44 -203 -51z" />
    <glyph glyph-name="egrave" unicode="&#xe8;" horiz-adv-x="999" 
d="M893 606q0 -7 -1 -39t-1 -47h-662q0 -218 73 -331t251 -113q137 0 295 51l18 -92q-153 -55 -336 -55q-428 0 -428 536q0 249 111 394t315 145q93 0 164 -34.5t114.5 -96.5t65 -142t21.5 -176zM770 612q5 161 -62.5 256t-189.5 95q-71 0 -127 -32t-89.5 -84t-52 -112
t-20.5 -123h541zM600 1266l-72 -60l-223 252l98 78z" />
    <glyph glyph-name="eacute" unicode="&#xe9;" horiz-adv-x="999" 
d="M893 606q0 -7 -1 -39t-1 -47h-662q0 -218 73 -331t251 -113q137 0 295 51l18 -92q-153 -55 -336 -55q-428 0 -428 536q0 249 111 394t315 145q93 0 164 -34.5t114.5 -96.5t65 -142t21.5 -176zM770 612q5 161 -62.5 256t-189.5 95q-71 0 -127 -32t-89.5 -84t-52 -112
t-20.5 -123h541zM752 1462l-228 -256l-73 58l198 272z" />
    <glyph glyph-name="ecircumflex" unicode="&#xea;" horiz-adv-x="999" 
d="M893 606q0 -7 -1 -39t-1 -47h-662q0 -218 73 -331t251 -113q137 0 295 51l18 -92q-153 -55 -336 -55q-428 0 -428 536q0 249 111 394t315 145q93 0 164 -34.5t114.5 -96.5t65 -142t21.5 -176zM770 612q5 161 -62.5 256t-189.5 95q-71 0 -127 -32t-89.5 -84t-52 -112
t-20.5 -123h541zM766 1274l-64 -66l-186 185l-182 -185l-58 66l246 268z" />
    <glyph glyph-name="edieresis" unicode="&#xeb;" horiz-adv-x="999" 
d="M893 606q0 -7 -1 -39t-1 -47h-662q0 -218 73 -331t251 -113q137 0 295 51l18 -92q-153 -55 -336 -55q-428 0 -428 536q0 249 111 394t315 145q93 0 164 -34.5t114.5 -96.5t65 -142t21.5 -176zM770 612q5 161 -62.5 256t-189.5 95q-71 0 -127 -32t-89.5 -84t-52 -112
t-20.5 -123h541zM772 1380q0 -35 -23 -58.5t-57 -23.5t-57 23.5t-23 58.5t23 58.5t57 23.5t57 -23.5t23 -58.5zM432 1380q0 -35 -24 -58.5t-58 -23.5t-57 23.5t-23 58.5t23 58.5t57 23.5t58 -23.5t24 -58.5z" />
    <glyph glyph-name="igrave" unicode="&#xec;" horiz-adv-x="493" 
d="M328 0h-119v946h-166v90h285v-1036zM315 1266l-71 -60l-224 252l99 78z" />
    <glyph glyph-name="iacute" unicode="&#xed;" horiz-adv-x="493" 
d="M328 0h-119v946h-166v90h285v-1036zM434 1462l-227 -256l-74 58l199 272z" />
    <glyph glyph-name="icircumflex" unicode="&#xee;" horiz-adv-x="493" 
d="M328 0h-119v946h-166v90h285v-1036zM489 1274l-63 -66l-186 185l-183 -185l-57 66l246 268z" />
    <glyph glyph-name="idieresis" unicode="&#xef;" horiz-adv-x="493" 
d="M494 1380q0 -35 -23 -58.5t-57 -23.5t-58 23.5t-24 58.5t24 58.5t58 23.5t57 -23.5t23 -58.5zM172 1380q0 -35 -23 -58.5t-57 -23.5q-35 0 -58.5 23.5t-23.5 58.5t23.5 58.5t58.5 23.5q34 0 57 -23.5t23 -58.5zM328 0h-119v946h-166v90h285v-1036z" />
    <glyph glyph-name="eth" unicode="&#xf0;" horiz-adv-x="1105" 
d="M979 557q0 -281 -120 -429t-331 -148q-201 0 -312.5 145t-111.5 381q0 242 120.5 391.5t326.5 149.5q121 0 213 -62q-54 126 -168 279l-221 -95l-49 78l213 92q-77 89 -162 174l121 43q101 -105 153 -172l242 105l47 -80l-231 -98q270 -361 270 -754zM854 549
q0 154 -43 305q-140 100 -272 100q-102 0 -173.5 -63t-103 -156.5t-31.5 -206.5q0 -100 18 -181.5t55 -143t96.5 -95.5t138.5 -34q149 0 232 114.5t83 360.5z" />
    <glyph glyph-name="ntilde" unicode="&#xf1;" horiz-adv-x="1087" 
d="M926 0h-117v639q0 322 -211 322q-88 0 -154.5 -47.5t-160.5 -163.5v-750h-117v1036h94l19 -170q82 100 157.5 144.5t175.5 44.5q70 0 125 -21.5t90 -58t58 -88t32 -106.5t9 -119v-662zM850 1419q-29 -63 -81 -101t-112 -38q-41 0 -74.5 14t-53 30t-45.5 30t-54 14
q-35 0 -66.5 -26.5t-52.5 -71.5l-65 57q31 64 81.5 101.5t110.5 37.5q40 0 74 -14t53 -30t45.5 -30t53.5 -14q34 0 65.5 27t54.5 72z" />
    <glyph glyph-name="ograve" unicode="&#xf2;" horiz-adv-x="1089" 
d="M989 528q0 -245 -123.5 -396.5t-330.5 -151.5q-211 0 -323 143t-112 385q0 250 120.5 398.5t332.5 148.5q203 0 319.5 -141.5t116.5 -385.5zM862 504q0 132 -32.5 232t-105.5 162.5t-181 62.5q-152 0 -234 -118.5t-82 -312.5q0 -137 32 -236t106 -158.5t186 -59.5
q100 0 171 57t105.5 152.5t34.5 218.5zM623 1266l-72 -60l-223 252l98 78z" />
    <glyph glyph-name="oacute" unicode="&#xf3;" horiz-adv-x="1089" 
d="M989 528q0 -245 -123.5 -396.5t-330.5 -151.5q-211 0 -323 143t-112 385q0 250 120.5 398.5t332.5 148.5q203 0 319.5 -141.5t116.5 -385.5zM862 504q0 132 -32.5 232t-105.5 162.5t-181 62.5q-152 0 -234 -118.5t-82 -312.5q0 -137 32 -236t106 -158.5t186 -59.5
q100 0 171 57t105.5 152.5t34.5 218.5zM762 1462l-227 -256l-74 58l198 272z" />
    <glyph glyph-name="ocircumflex" unicode="&#xf4;" horiz-adv-x="1089" 
d="M989 528q0 -245 -123.5 -396.5t-330.5 -151.5q-211 0 -323 143t-112 385q0 250 120.5 398.5t332.5 148.5q203 0 319.5 -141.5t116.5 -385.5zM862 504q0 132 -32.5 232t-105.5 162.5t-181 62.5q-152 0 -234 -118.5t-82 -312.5q0 -137 32 -236t106 -158.5t186 -59.5
q100 0 171 57t105.5 152.5t34.5 218.5zM791 1274l-64 -66l-186 185l-183 -185l-57 66l246 268z" />
    <glyph glyph-name="otilde" unicode="&#xf5;" horiz-adv-x="1089" 
d="M989 528q0 -245 -123.5 -396.5t-330.5 -151.5q-211 0 -323 143t-112 385q0 250 120.5 398.5t332.5 148.5q203 0 319.5 -141.5t116.5 -385.5zM862 504q0 132 -32.5 232t-105.5 162.5t-181 62.5q-152 0 -234 -118.5t-82 -312.5q0 -137 32 -236t106 -158.5t186 -59.5
q100 0 171 57t105.5 152.5t34.5 218.5zM850 1419q-29 -63 -81 -101t-112 -38q-41 0 -74.5 14t-53 30t-45.5 30t-54 14q-35 0 -66.5 -26.5t-52.5 -71.5l-65 57q31 64 81.5 101.5t110.5 37.5q40 0 74 -14t53 -30t45.5 -30t53.5 -14q34 0 65.5 27t54.5 72z" />
    <glyph glyph-name="odieresis" unicode="&#xf6;" horiz-adv-x="1089" 
d="M989 528q0 -245 -123.5 -396.5t-330.5 -151.5q-211 0 -323 143t-112 385q0 250 120.5 398.5t332.5 148.5q203 0 319.5 -141.5t116.5 -385.5zM862 504q0 132 -32.5 232t-105.5 162.5t-181 62.5q-152 0 -234 -118.5t-82 -312.5q0 -137 32 -236t106 -158.5t186 -59.5
q100 0 171 57t105.5 152.5t34.5 218.5zM797 1380q0 -35 -23 -58.5t-57 -23.5t-57 23.5t-23 58.5t23 58.5t57 23.5t57 -23.5t23 -58.5zM457 1380q0 -35 -24 -58.5t-58 -23.5t-57 23.5t-23 58.5t23 58.5t57 23.5t58 -23.5t24 -58.5z" />
    <glyph glyph-name="divide" unicode="&#xf7;" 
d="M610 1038q0 -44 -30.5 -75t-73.5 -31q-42 0 -72.5 31t-30.5 75q0 43 31 74t72 31q43 0 73.5 -31t30.5 -74zM932 580h-850v112h850v-112zM610 238q0 -44 -30.5 -75.5t-73.5 -31.5q-42 0 -72.5 31.5t-30.5 75.5t30.5 74t72.5 30q43 0 73.5 -30t30.5 -74z" />
    <glyph glyph-name="oslash" unicode="&#xf8;" horiz-adv-x="1089" 
d="M989 530q0 -245 -123.5 -396.5t-330.5 -151.5q-109 0 -183 32l-92 -196l-78 35l94 200q-176 125 -176 457q0 249 120.5 397t332.5 148q111 0 184 -33l97 201l79 -35l-100 -207q176 -127 176 -451zM862 506q0 248 -102 368l-361 -765q60 -31 152 -31q149 0 230 119t81 309
zM330 160l360 766q-59 35 -147 35q-152 0 -234 -118t-82 -313q0 -259 103 -370z" />
    <glyph glyph-name="ugrave" unicode="&#xf9;" horiz-adv-x="1087" 
d="M922 0h-95l-16 170q-82 -100 -158.5 -145t-175.5 -45q-87 0 -150.5 32.5t-98 90t-50.5 124.5t-16 148v661h117v-639q0 -321 210 -321q88 0 156.5 48t159.5 163v749h117v-1036zM606 1266l-71 -60l-224 252l99 78z" />
    <glyph glyph-name="uacute" unicode="&#xfa;" horiz-adv-x="1087" 
d="M922 0h-95l-16 170q-82 -100 -158.5 -145t-175.5 -45q-87 0 -150.5 32.5t-98 90t-50.5 124.5t-16 148v661h117v-639q0 -321 210 -321q88 0 156.5 48t159.5 163v749h117v-1036zM768 1462l-227 -256l-74 58l199 272z" />
    <glyph glyph-name="ucircumflex" unicode="&#xfb;" horiz-adv-x="1087" 
d="M922 0h-95l-16 170q-82 -100 -158.5 -145t-175.5 -45q-87 0 -150.5 32.5t-98 90t-50.5 124.5t-16 148v661h117v-639q0 -321 210 -321q88 0 156.5 48t159.5 163v749h117v-1036zM782 1274l-63 -66l-187 185l-182 -185l-57 66l246 268z" />
    <glyph glyph-name="udieresis" unicode="&#xfc;" horiz-adv-x="1087" 
d="M922 0h-95l-16 170q-82 -100 -158.5 -145t-175.5 -45q-87 0 -150.5 32.5t-98 90t-50.5 124.5t-16 148v661h117v-639q0 -321 210 -321q88 0 156.5 48t159.5 163v749h117v-1036zM788 1380q0 -35 -22.5 -58.5t-56.5 -23.5t-57 23.5t-23 58.5t23 58.5t57 23.5t56.5 -23.5
t22.5 -58.5zM449 1380q0 -35 -24 -58.5t-58 -23.5t-57 23.5t-23 58.5t23 58.5t57 23.5t58 -23.5t24 -58.5z" />
    <glyph glyph-name="yacute" unicode="&#xfd;" horiz-adv-x="899" 
d="M846 1036q-166 -661 -328 -1036q-114 -266 -186.5 -357.5t-169.5 -91.5q-41 0 -107 15l6 84h95q38 0 72.5 27t80 104t103.5 213q-253 653 -353 1042h127q83 -329 287 -899h2q151 421 252 899h119zM698 1462l-227 -256l-74 58l199 272z" />
    <glyph glyph-name="thorn" unicode="&#xfe;" horiz-adv-x="1073" 
d="M971 551q0 -114 -27 -213t-80.5 -178.5t-144 -125.5t-207.5 -46q-106 0 -229 26v-446h-117v1968h117v-664q75 94 153 138.5t182 44.5q92 0 161.5 -39.5t110.5 -110t61 -159.5t20 -195zM844 547q0 79 -11 147.5t-37 132t-75.5 100t-118.5 36.5q-83 0 -154 -48t-165 -172
v-618q106 -47 239 -47q161 0 241.5 122.5t80.5 346.5z" />
    <glyph glyph-name="ydieresis" unicode="&#xff;" horiz-adv-x="899" 
d="M846 1036q-166 -661 -328 -1036q-114 -266 -186.5 -357.5t-169.5 -91.5q-41 0 -107 15l6 84h95q38 0 72.5 27t80 104t103.5 213q-253 653 -353 1042h127q83 -329 287 -899h2q151 421 252 899h119zM713 1380q0 -35 -23 -58.5t-57 -23.5t-57 23.5t-23 58.5t23 58.5t57 23.5
t57 -23.5t23 -58.5zM373 1380q0 -35 -24 -58.5t-58 -23.5t-57 23.5t-23 58.5t23 58.5t57 23.5t58 -23.5t24 -58.5z" />
    <glyph glyph-name="dotlessi" unicode="&#x131;" horiz-adv-x="493" 
d="M328 0h-119v946h-166v90h285v-1036z" />
    <glyph glyph-name="Lslash" unicode="&#x141;" horiz-adv-x="870" 
d="M844 0h-637v784l-146 -102l-43 78l189 131v539h121v-461l243 170l41 -78l-284 -199v-758h516v-104z" />
    <glyph glyph-name="lslash" unicode="&#x142;" horiz-adv-x="522" 
d="M469 1092l-168 -115v-768q0 -121 82 -121h80v-90q-46 -8 -90 -8q-189 0 -189 194v711l-121 -84l-40 80l161 110v535h117v-453l129 88z" />
    <glyph glyph-name="OE" unicode="&#x152;" horiz-adv-x="1699" 
d="M1567 0h-680q-99 -18 -195 -18q-143 0 -254.5 53.5t-181.5 150t-105.5 227t-35.5 289.5q0 222 66 388t201.5 262t326.5 96q83 0 178 -18h672v-101h-551v-532h483v-101h-483v-594h559v-102zM887 111v1204q-94 33 -197 33q-93 0 -168.5 -33.5t-126 -91t-84.5 -137.5
t-49.5 -170t-15.5 -191q0 -142 26.5 -256.5t81 -202.5t146 -136t213.5 -48q85 0 174 29z" />
    <glyph glyph-name="oe" unicode="&#x153;" horiz-adv-x="1759" 
d="M1651 606q0 -7 -1 -39t-1 -47h-662q0 -107 16 -185t52.5 -138t100.5 -90.5t157 -30.5q135 0 293 51l20 -92q-153 -55 -336 -55q-281 0 -375 229q-59 -111 -156.5 -170t-223.5 -59q-211 0 -323 143t-112 385q0 250 120.5 398.5t332.5 148.5q127 0 223.5 -58.5
t149.5 -167.5q47 107 139 166.5t221 59.5q93 0 164 -34.5t114.5 -96.5t65 -142t21.5 -176zM987 612h541q5 161 -61.5 256t-188.5 95q-71 0 -128 -32t-90.5 -84t-52 -112t-20.5 -123zM862 506q0 131 -32.5 231t-105.5 162t-181 62q-152 0 -234 -118.5t-82 -312.5
q0 -137 32 -236t106 -158.5t186 -59.5q149 0 230 120t81 310z" />
    <glyph glyph-name="Scaron" unicode="&#x160;" horiz-adv-x="894" 
d="M696 1749l-243 -195l-246 191l57 76l191 -140l188 140zM805 373q0 -180 -119 -285.5t-324 -105.5q-131 0 -262 38l23 111q133 -45 268 -45q133 0 209 74.5t76 199.5q0 49 -14.5 90t-34 70t-62 63t-74 54.5t-94.5 58.5q-147 88 -215.5 175.5t-68.5 218.5q0 159 109 258.5
t290 99.5q116 0 211 -31l-23 -102q-105 31 -202 31q-125 0 -191.5 -69t-66.5 -173q0 -47 14 -88t34.5 -70.5t60 -62.5t72.5 -54.5t91 -56.5q155 -93 224 -181.5t69 -217.5z" />
    <glyph glyph-name="scaron" unicode="&#x161;" horiz-adv-x="788" 
d="M696 270q0 -135 -94.5 -212.5t-251.5 -77.5q-125 0 -246 43l21 104q120 -49 240 -49q97 0 152.5 46.5t55.5 131.5q0 70 -46.5 117.5t-166.5 109.5q-124 60 -181.5 126.5t-57.5 166.5q0 126 85.5 202.5t233.5 76.5q104 0 197 -35l-16 -94q-90 35 -191 35q-92 0 -140 -49.5
t-48 -118.5q0 -71 43.5 -118.5t158.5 -103.5q89 -44 140 -82.5t81.5 -92.5t30.5 -126zM645 1481l-246 -273l-245 271l63 67l186 -186l185 186z" />
    <glyph glyph-name="Ydieresis" unicode="&#x178;" horiz-adv-x="1054" 
d="M807 1647q0 -34 -25 -58t-59 -24q-32 0 -56 24t-24 58q0 35 24 60.5t56 25.5q34 0 59 -25.5t25 -60.5zM414 1647q0 -34 -24 -58t-58 -24t-58 24t-24 58q0 35 24 60.5t58 25.5t58 -25.5t24 -60.5zM1036 1430q-230 -474 -444 -805v-625h-121v625q-233 345 -455 805h148
q152 -372 379 -715q177 295 340 715h153z" />
    <glyph glyph-name="Zcaron" unicode="&#x17d;" horiz-adv-x="944" 
d="M729 1749l-244 -195l-245 191l57 76l190 -140l189 140zM881 0h-818v102l680 1229h-661v99h788v-107l-686 -1223h697v-100z" />
    <glyph glyph-name="zcaron" unicode="&#x17e;" horiz-adv-x="851" 
d="M772 0h-678v96l520 844h-489v96h614v-96l-520 -844h553v-96zM678 1481l-246 -273l-246 271l64 67l186 -186l185 186z" />
    <glyph glyph-name="florin" unicode="&#x192;" 
d="M924 1444l-11 -88h-94q-57 0 -99 -17.5t-67 -44t-41 -71t-22.5 -84t-11.5 -97.5l-27 -260h301v-90h-307l-45 -497q-5 -57 -11 -99t-18.5 -92.5t-30 -86t-46 -71t-66 -57.5t-91.5 -35.5t-120 -13.5q-20 0 -86 8l6 90h96q57 0 99 17t67 42.5t41.5 69t24 83t12.5 97.5
l49 545h-262v90h270l23 236q6 62 13.5 107.5t23 99.5t41 91.5t63 70t94 49t129.5 16.5q29 0 103 -8z" />
    <glyph glyph-name="circumflex" unicode="&#x2c6;" horiz-adv-x="645" 
d="M489 1274l-63 -66l-186 185l-183 -185l-57 66l246 268z" />
    <glyph glyph-name="caron" unicode="&#x2c7;" horiz-adv-x="645" 
d="M492 1481l-246 -273l-246 271l63 67l187 -186l184 186z" />
    <glyph glyph-name="breve" unicode="&#x2d8;" horiz-adv-x="499" 
d="M475 1528q0 -39 -5.5 -74.5t-21.5 -74t-41.5 -66.5t-69.5 -46t-101 -18q-59 0 -103 19t-69 47t-40 67.5t-19.5 73.5t-4.5 72h90q0 -79 39 -134t111 -55q70 0 107.5 49t37.5 140h90z" />
    <glyph glyph-name="dotaccent" unicode="&#x2d9;" horiz-adv-x="497" 
d="M342 1376q0 -40 -27 -67t-67 -27q-38 0 -65 27t-27 67q0 41 27 69t65 28q40 0 67 -28t27 -69z" />
    <glyph glyph-name="ring" unicode="&#x2da;" horiz-adv-x="460" 
d="M350 1366q0 -80 -49 -135t-129 -55q-85 0 -128.5 51.5t-43.5 132.5t47 133.5t131 52.5q79 0 125.5 -50t46.5 -130zM266 1358q0 49 -23.5 82t-68.5 33q-42 0 -65 -30t-23 -77q0 -117 90 -117q42 0 66 31t24 78z" />
    <glyph glyph-name="ogonek" unicode="&#x2db;" horiz-adv-x="512" 
d="M465 -369q-66 -49 -150 -49q-96 0 -140 46t-44 116q0 124 129 256h102q-122 -122 -122 -236q0 -50 22.5 -74t71.5 -24q50 0 104 33z" />
    <glyph glyph-name="tilde" unicode="&#x2dc;" horiz-adv-x="737" 
d="M604 1419q-30 -64 -81.5 -101.5t-110.5 -37.5q-41 0 -75 14t-53 30t-45.5 30t-54.5 14q-35 0 -66 -26.5t-52 -71.5l-66 57q31 64 82 101.5t111 37.5q40 0 73.5 -14t53 -30t45.5 -30t53 -14q34 0 66 27.5t55 71.5z" />
    <glyph glyph-name="hungarumlaut" unicode="&#x2dd;" horiz-adv-x="663" 
d="M649 1458l-225 -252l-76 62l201 268zM297 1458l-223 -252l-74 62l195 268z" />
    <glyph glyph-name="Delta" unicode="&#x394;" horiz-adv-x="1191" 
d="M1133 0h-1074q222 789 469 1430h121q258 -669 484 -1430zM961 111q-179 610 -377 1171q-186 -535 -363 -1171h740z" />
    <glyph glyph-name="Delta" unicode="&#x2206;" horiz-adv-x="1191" 
d="M1133 0h-1074q222 789 469 1430h121q258 -669 484 -1430zM961 111q-179 610 -377 1171q-186 -535 -363 -1171h740z" />
    <glyph glyph-name="Omega" unicode="&#x3a9;" horiz-adv-x="1406" 
d="M1321 0h-485v100q146 93 232.5 270t86.5 398q0 123 -26.5 226t-79.5 184t-140 126.5t-200 45.5q-91 0 -166.5 -31.5t-127 -85.5t-87 -128.5t-52 -159.5t-16.5 -179q0 -218 84 -394t231 -272v-100h-483v100h346q-127 91 -214 270.5t-87 395.5q0 194 66 346.5t199.5 244
t314.5 91.5q262 0 411.5 -182t149.5 -478q0 -210 -89.5 -404.5t-221.5 -283.5h354v-100z" />
    <glyph glyph-name="Omega" unicode="&#x2126;" horiz-adv-x="1406" 
d="M1321 0h-485v100q146 93 232.5 270t86.5 398q0 123 -26.5 226t-79.5 184t-140 126.5t-200 45.5q-91 0 -166.5 -31.5t-127 -85.5t-87 -128.5t-52 -159.5t-16.5 -179q0 -218 84 -394t231 -272v-100h-483v100h346q-127 91 -214 270.5t-87 395.5q0 194 66 346.5t199.5 244
t314.5 91.5q262 0 411.5 -182t149.5 -478q0 -210 -89.5 -404.5t-221.5 -283.5h354v-100z" />
    <glyph glyph-name="pi" unicode="&#x3c0;" horiz-adv-x="1153" 
d="M1034 0q-40 -10 -119 -10q-100 0 -152 61.5t-52 206.5v688h-392v-946h-116v946h-156v90h987v-90h-205v-678q0 -112 29.5 -151t108.5 -39h67v-78z" />
    <glyph glyph-name="endash" unicode="&#x2013;" 
d="M1024 569h-1024v105h1024v-105z" />
    <glyph glyph-name="emdash" unicode="&#x2014;" horiz-adv-x="1945" 
d="M1759 569h-1573v107h1573v-107z" />
    <glyph glyph-name="quoteleft" unicode="&#x2018;" horiz-adv-x="497" 
d="M434 1483q-119 -157 -119 -252q0 -27 16.5 -62t16.5 -55q0 -47 -26.5 -77.5t-75.5 -30.5q-55 0 -83 52q-45 87 34 241q56 109 170 235z" />
    <glyph glyph-name="quoteright" unicode="&#x2019;" horiz-adv-x="497" 
d="M250 1475q55 0 83 -52q45 -87 -33 -241q-55 -109 -169 -236l-68 51q119 160 119 250q0 28 -17.5 63.5t-17.5 55.5q0 46 27 77.5t76 31.5z" />
    <glyph glyph-name="quotesinglbase" unicode="&#x201a;" horiz-adv-x="497" 
d="M250 205q55 0 83 -52q45 -87 -33 -241q-55 -109 -169 -236l-70 52q119 160 119 249q0 28 -16.5 63.5t-16.5 55.5q0 46 27 77.5t76 31.5z" />
    <glyph glyph-name="quotedblleft" unicode="&#x201c;" horiz-adv-x="833" 
d="M766 1470q-117 -159 -117 -241q0 -28 16.5 -63t16.5 -54q0 -45 -25.5 -74.5t-74.5 -29.5q-40 0 -68.5 32t-28.5 90q0 158 215 394zM436 1483q-125 -167 -125 -254q0 -27 17.5 -62.5t17.5 -54.5q0 -45 -26.5 -74.5t-75.5 -29.5q-40 0 -68.5 32t-28.5 90q0 158 222 404z
" />
    <glyph glyph-name="quotedblright" unicode="&#x201d;" horiz-adv-x="833" 
d="M684 1352q0 -162 -221 -404l-68 51q125 164 125 252q0 28 -16.5 64t-16.5 55q0 45 26.5 75t74.5 30q40 0 68 -32.5t28 -90.5zM346 1352q0 -160 -215 -394l-65 52q116 158 116 241q0 28 -16 64t-16 55q0 45 26.5 75t73.5 30q39 0 67.5 -33t28.5 -90z" />
    <glyph glyph-name="quotedblbase" unicode="&#x201e;" horiz-adv-x="833" 
d="M684 80q0 -160 -221 -402l-68 52q125 164 125 252q0 27 -16.5 62t-16.5 54q0 45 26.5 75t74.5 30q40 0 68 -32t28 -91zM346 80q0 -157 -215 -391l-65 51q116 158 116 242q0 28 -16 62.5t-16 53.5q0 45 26.5 75t73.5 30q40 0 68 -32.5t28 -90.5z" />
    <glyph glyph-name="dagger" unicode="&#x2020;" 
d="M885 1067h-330l23 -287q0 -222 -37 -561h-60q-2 25 -8.5 101t-9 103.5t-7 88t-6.5 95.5t-4 83t-2 90l27 287h-332v82h332q-19 210 -25 387h132q-5 -157 -23 -387h330v-82z" />
    <glyph glyph-name="daggerdbl" unicode="&#x2021;" 
d="M885 387h-332q15 -158 22 -387h-131q11 236 25 387h-330v82h330q-25 125 -25 303q0 166 25 295h-330v82h330q-14 151 -25 387h131q-7 -229 -22 -387h332v-82h-330q23 -138 23 -295q0 -194 -25 -303h332v-82z" />
    <glyph glyph-name="bullet" unicode="&#x2022;" 
d="M809 711q0 -126 -87 -214.5t-210 -88.5t-211 88.5t-88 214.5t88 214.5t211 88.5t210 -88.5t87 -214.5z" />
    <glyph glyph-name="ellipsis" unicode="&#x2026;" horiz-adv-x="1396" 
d="M1243 94q0 -46 -30 -78t-74 -32q-45 0 -76 32t-31 78q0 44 31 76.5t76 32.5q43 0 73.5 -32.5t30.5 -76.5zM803 94q0 -46 -31.5 -78t-75.5 -32t-75 32t-31 78q0 43 31 76t75 33t75.5 -33t31.5 -76zM358 94q0 -46 -30 -78t-74 -32t-75.5 32t-31.5 78q0 43 31.5 76t75.5 33
q43 0 73.5 -32.5t30.5 -76.5z" />
    <glyph glyph-name="perthousand" unicode="&#x2030;" horiz-adv-x="2181" 
d="M2089 358q0 -179 -72 -277.5t-215 -98.5q-148 0 -210 96.5t-62 275.5t71.5 279t213.5 100q145 0 209.5 -96.5t64.5 -278.5zM1405 358q0 -179 -72 -277.5t-215 -98.5q-148 0 -210 96.5t-62 275.5t71.5 279t212.5 100q145 0 210 -96.5t65 -278.5zM1970 356
q0 158 -41.5 220.5t-122.5 62.5q-87 0 -122 -72t-35 -209q0 -152 38 -218t123 -66q47 0 79 21t49.5 61t24.5 88t7 112zM1288 356q0 158 -42.5 220.5t-123.5 62.5q-87 0 -123 -72.5t-36 -208.5q0 -150 39.5 -217t123.5 -67q90 0 126 74.5t36 207.5zM649 1075
q0 -179 -71.5 -279t-212.5 -100q-77 0 -131.5 27t-85.5 78.5t-44.5 117t-13.5 152.5q0 178 72.5 278.5t212.5 100.5q145 0 209.5 -96.5t64.5 -278.5zM532 1071q0 158 -41.5 221.5t-121.5 63.5q-87 0 -123.5 -73t-36.5 -210q0 -151 39 -216.5t125 -65.5q47 0 79 21t49 60.5
t24 87t7 111.5zM1245 1438l-923 -1495l-86 47l923 1499z" />
    <glyph glyph-name="guilsinglleft" unicode="&#x2039;" horiz-adv-x="684" 
d="M473 176l-92 -45l-260 442l260 443l92 -45l-219 -398z" />
    <glyph glyph-name="guilsinglright" unicode="&#x203a;" horiz-adv-x="684" 
d="M565 573l-262 -442l-92 45l219 397l-219 398l92 45z" />
    <glyph glyph-name="fraction" unicode="&#x2044;" horiz-adv-x="663" 
d="M836 1440l-914 -1497l-86 47l914 1499z" />
    <glyph glyph-name="fraction" unicode="&#x2215;" horiz-adv-x="663" 
d="M836 1440l-914 -1497l-86 47l914 1499z" />
    <glyph glyph-name="Euro" unicode="&#x20ac;" 
d="M924 55q-104 -71 -281 -71q-373 0 -446 465h-152v94h139q-6 73 -6 155q0 75 6 154h-139v92h152q38 260 160 381t300 121q135 0 246 -72l-39 -86q-108 55 -217 55q-120 0 -203 -97.5t-116 -301.5h385v-92h-398q-4 -82 -4 -139q0 -93 6 -170h396v-94h-381q68 -357 340 -357
q123 0 215 53z" />
    <glyph glyph-name="trademark" unicode="&#x2122;" horiz-adv-x="1290" 
d="M1151 831h-94q0 285 -6 500l-150 -500h-104l-152 502q-10 -363 -10 -502h-88q0 277 22 599h142l143 -498l141 498h144q14 -364 12 -599zM471 1352h-156v-521h-86v521h-157v78h399v-78z" />
    <glyph glyph-name="partialdiff" unicode="&#x2202;" horiz-adv-x="1054" 
d="M952 682q0 -702 -436 -702q-85 0 -155 27t-118 73t-81.5 108.5t-48.5 133.5t-15 149q0 266 125.5 425t331.5 159q139 0 248 -70q-36 252 -133 357.5t-275 105.5l13 102q544 0 544 -868zM823 662q0 128 -8 221q-141 75 -258 75q-163 0 -245.5 -131.5t-82.5 -349.5
q0 -86 16.5 -157t50 -127.5t91 -88.5t133.5 -32q152 0 227.5 140.5t75.5 449.5z" />
    <glyph glyph-name="product" unicode="&#x220f;" horiz-adv-x="1611" 
d="M1470 1323h-223v-1755h-123v1755h-657v-1755h-123v1755h-223v104h1349v-104z" />
    <glyph glyph-name="summation" unicode="&#x2211;" horiz-adv-x="1091" 
d="M1018 -432h-934v82l588 864l-553 832v81h870v-102h-727l543 -809l-580 -844h793v-104z" />
    <glyph glyph-name="minus" unicode="&#x2212;" 
d="M928 582h-834v108h834v-108z" />
    <glyph glyph-name="radical" unicode="&#x221a;" 
d="M956 1430l-364 -1430h-152l-278 936h-133v98h231l205 -712q41 -143 53 -222h4q5 56 41 203l262 1127h131z" />
    <glyph glyph-name="infinity" unicode="&#x221e;" horiz-adv-x="1753" 
d="M1640 717q0 -132 -83.5 -221.5t-221.5 -89.5q-54 0 -111 18.5t-121 57.5t-111.5 73.5t-119.5 91.5q-71 -55 -119 -90t-111 -74t-118.5 -58t-105.5 -19q-150 0 -227.5 86t-77.5 217q0 130 82.5 220.5t222.5 90.5q92 0 199 -62t260 -180q145 115 254 178.5t208 63.5
q146 0 223.5 -86.5t77.5 -216.5zM1520 709q0 104 -52.5 158.5t-138.5 54.5q-74 0 -156 -51t-212 -156q71 -55 107.5 -81.5t91.5 -62t98 -50.5t83 -15q82 0 130.5 56.5t48.5 146.5zM788 711q-72 56 -106 81.5t-90 62.5t-98.5 52t-81.5 15q-82 0 -131.5 -57t-49.5 -146
q0 -103 50.5 -158t142.5 -55q68 0 152 51.5t212 153.5z" />
    <glyph glyph-name="integral" unicode="&#x222b;" horiz-adv-x="733" 
d="M680 1403h-88q-35 0 -62.5 -6t-47 -19t-34 -27.5t-23.5 -38.5t-14.5 -44t-8 -52.5t-3 -55.5t-0.5 -60v-1139q0 -101 -12.5 -171t-45 -127.5t-93.5 -85.5t-152 -28q-51 0 -96 11v88h88q39 0 69.5 9t51 22t34.5 37.5t21.5 46t11 57.5t4.5 62t1 69v1139q0 100 12.5 169.5
t45 126.5t93.5 85t152 28q65 0 96 -8v-88z" />
    <glyph glyph-name="approxequal" unicode="&#x2248;" 
d="M936 821q-112 -112 -225 -112q-51 0 -96 14.5t-78.5 35.5t-65.5 42.5t-72 36t-84 14.5q-74 0 -165 -88l-50 82q45 45 105 76.5t123 31.5q52 0 95.5 -14.5t75 -35t62 -40.5t70.5 -34.5t86 -14.5q85 0 168 92zM936 428q-115 -119 -227 -119q-61 0 -117 23t-91.5 50
t-84.5 50t-99 23q-43 0 -81.5 -24t-83.5 -73l-50 88q107 111 226 111q52 0 96.5 -14.5t77 -34.5t63 -40.5t69 -35t81.5 -14.5q34 0 69 17t54 33t45 42z" />
    <glyph glyph-name="notequal" unicode="&#x2260;" 
d="M913 373h-481l-151 -299l-86 41l131 258h-215v112h272l154 303h-426v113h483l151 297l84 -41l-127 -256h211v-113h-272l-149 -303h421v-112z" />
    <glyph glyph-name="lessequal" unicode="&#x2264;" 
d="M926 233l-830 472v106l830 471v-125l-707 -401l707 -398v-125zM926 0h-830v109h830v-109z" />
    <glyph glyph-name="greaterequal" unicode="&#x2265;" 
d="M926 705l-830 -472v123l711 400l-711 399v127l830 -471v-106zM926 0h-830v109h830v-109z" />
    <glyph glyph-name="lozenge" unicode="&#x25ca;" horiz-adv-x="1013" 
d="M924 709l-369 -709h-109l-374 719l368 708h109zM801 705l-309 602l-297 -584l309 -602z" />
    <glyph glyph-name="apple" unicode="&#xf8ff;" horiz-adv-x="1966" 
d="M1802 1169q0 -8 -4 -8q-21 1 -28.5 1t-28.5 -2t-29 -3q-137 -6 -184 -14q-11 -10 -14.5 -35.5t-6.5 -32.5q0 -7 4 -17.5t5 -13.5q7 -10 28 -14q35 4 47 27q0 13 -14 24q-5 4 -20.5 5.5t-20.5 9.5q4 6 10.5 7.5t18.5 0t16 -1.5q21 -6 31 -33q-3 -31 -37 -55
q-7 -2 -21.5 -5t-21.5 -5q-72 17 -92 49q-4 21 -3.5 31t4.5 29.5t5 29.5q-3 5 -8 7t-11 1t-12 0l-67 -2q0 2 -2.5 4t-2.5 4q5 4 16.5 5t12.5 1q11 -2 24.5 -2t29.5 1t24 1q10 8 10 35q3 6 7 30t12 32q9 2 12 1t8.5 -7.5t7.5 -8.5q7 -11 7 -35.5t4 -38.5q4 -7 13 -8.5
t16.5 0.5t15.5 0q4 0 86.5 3t144.5 10q6 -3 8 -7zM1333 1032l-6 -4q-71 0 -104 -10q-2 1 -7 2.5t-8 2.5t-6.5 4t-5.5 7q12 77 2 115q-2 2 -4.5 2.5t-6 -1t-6.5 -3t-6.5 -3.5t-5.5 -3q-80 -49 -84 -99q-19 -19 -38 -10q-8 10 -6.5 31t-0.5 33l-2 63q-4 4 -16 3.5t-21 0.5
q-2 1 -8 1.5t-10 2.5t-4 7q14 -1 52.5 2.5t53.5 -0.5q7 -6 6 -30t13 -26q17 7 51.5 29t54.5 29q5 -3 26 -3t24 -16q4 -17 4 -48.5v-39.5q1 -3 2 -12t6 -12q19 -4 26 0q5 0 16.5 -2.5t18.5 -2.5q5 -5 0 -10zM915 1145q6 -41 -14 -64q-10 -6 -26 -20t-30 -22.5t-30 -10.5
q-8 3 -14 -6t-13 -4q-2 6 -24.5 4t-26.5 -2q-29 0 -43 6q-33 30 -38 47q-3 14 1 27q13 42 50 61q4 2 17.5 9t18 9t19 7t20.5 3.5t21 -1.5q91 -4 112 -43zM926 1360q-10 -12 -27.5 -17t-32.5 0q-26 35 -28 50q-12 19 -33 32.5t-37 18.5t-47.5 12t-42.5 10l-64 4
q-3 -3 -12 -2.5t-14 -1.5q-63 -19 -113 -43q-2 -3 -27.5 -23t-27.5 -38q-19 -49 -23 -143q5 -4 13 -5t17.5 0t14.5 0q48 5 176 5q8 -4 3 -15q-10 -10 -32 -1t-32 5q-13 1 -42 -1t-42 -1q-7 -1 -24 -2.5t-29 -4t-21 -7.5l-6 -8q-4 -50 2 -129q1 -4 0.5 -29t7.5 -29
q39 -2 77.5 2t64.5 5q3 2 6.5 2t6.5 -0.5t7 -2t6 -2.5q1 -1 1 -4t1 -4l-8 -4q-25 7 -80 0t-94 -4q-75 -5 -94 -4q-91 -4 -131 6l-4 6q7 7 18 11q7 -4 17.5 -6.5t18.5 -3.5t22.5 -2.5t21.5 -2.5q5 1 17.5 1t21 1.5t14.5 5.5q-1 39 10 101.5t13 89.5q-2 4 -6 8q-12 1 -37.5 0
t-43 1t-34.5 9q-1 4 1 7.5t5 3.5q41 -11 115 -7l4 7q12 92 31 135v6q95 112 243 127q62 8 144 -27q5 -2 19.5 -3.5t21.5 -4.5q86 -18 127 -72q4 -4 0 -18zM1579 -119l-8 -8q-27 2 -98 -5t-101 -3q-64 3 -213 -7t-231 -1q-19 -3 -39 -4t-42 0t-36.5 2t-41.5 4t-38 4
q-36 3 -75.5 3.5t-94.5 -0.5t-78 -1q-135 0 -204 -17q-24 -5 -31 9q0 9 -1.5 40.5t0 52.5t7.5 40q2 20 2 77t4 87q-5 30 -1 91t-1 91q0 51 6.5 146t7.5 122q3 52 1.5 146.5t0.5 146.5q6 14 24 13.5t30 0.5q5 -8 37.5 -5t37.5 3q25 24 27 2q1 -2 0.5 -12t5.5 -12
q-3 -72 -2 -112t8 -151.5t9 -148.5q45 14 121 57.5t116 57.5q6 2 19.5 11.5t23.5 12.5q1 0 5 4t7 4.5t9 -1.5q5 -2 7 -6.5t1.5 -8.5t-1.5 -10.5t-1 -9.5q-19 -60 -10 -125q3 -5 7.5 -5.5t11.5 1.5t9 2q13 10 37 24.5t33 20.5q57 34 84 43q5 4 19 13.5t20.5 14t17.5 11.5
t21 12t20 8l41 33q3 8 12 14q7 0 23 -12q0 -19 6 -58t6 -59q1 -4 6 -4.5t6 -3.5q4 -5 4 -11t-1 -10t-3.5 -11t-3.5 -9l4 -4q47 10 125 65t123 66q6 6 22 13t23 14q10 1 25 13.5t24 16.5t29 -6q11 0 14 -8q-1 -5 0 -8.5t4.5 -8.5t4.5 -7q-3 -9 -0.5 -29.5t-3.5 -26.5
q1 -10 0 -32.5t1 -37.5t9 -28q-2 -8 5 -25t-1 -22q1 -11 0 -19.5t1 -18.5t7 -17q5 -29 -2 -37q2 -10 5 -43.5t9 -51.5q-3 -4 -3 -9.5t1.5 -12.5t1.5 -10q0 -53 12 -152t13 -149l3 -9q2 -9 -1 -10zM870 1104q-13 63 -53 70q-2 -6 -7 -7.5t-12 0t-10 0.5q-14 6 -29 2.5
t-24 -14.5q-5 -7 -8 -13.5t-3 -14t-0.5 -12.5t2.5 -13.5t4 -12.5t7 -13t7.5 -11.5t8 -13t7.5 -11.5q2 -4 6 -5.5t8.5 -0.5t9.5 0q13 -1 18 0t17.5 7.5t16.5 7.5q2 2 16.5 13t18.5 20t-1 22zM1513 -20q-21 48 -36 65q-5 9 -17 26.5t-19 31.5t-9 30q-2 3 -5.5 9t-5 8.5t-3 8.5
t0.5 9q10 12 35 28t33 25l-19 35q-15 -1 -38 -10t-25 -10t-8 -6t-10 -7.5t-10 -2.5t-11 5q4 108 2 160l-4 6q-10 0 -55 15q-9 -72 -6 -99q-4 -11 -2 -40t-3 -40q2 -38 -2.5 -106.5t0.5 -104.5l-2 -14h49q3 1 13.5 -2t11.5 2q0 37 -2 57q1 6 -3 21t-2 24t15 13
q8 -3 12.5 -15.5t6.5 -15.5q-1 -10 9 -25.5t11 -21.5q14 -8 31 -34t29 -34q3 1 11 -2.5t15 -1.5q4 0 8 4t4 9zM1245 367q-8 23 -24 30q-5 5 -11.5 5.5t-9.5 -5.5q-10 -13 -13 -30.5t5 -30.5q3 -10 16 -11.5t23 3.5q18 12 14 39zM1249 31q0 27 -2 79t-2 76q0 6 1 17.5t1 20.5
t-2 16q-12 6 -18.5 5.5t-19 -3.5t-19.5 -2q-8 -14 -9.5 -33t0 -35t-0.5 -35q-2 -3 -7 -53q1 -6 1.5 -40t11.5 -50q31 0 61 10q4 8 4 27zM1147 252q-1 0 -7.5 -0.5t-9 -1t-8 -1.5t-8.5 -2t-8 -3t-8 -4.5t-6.5 -6t-6.5 -8.5q-3 -3 -6 -14t-8 -17.5t-16 -3.5q-4 13 -4 60
q-5 3 -15.5 0t-15.5 0q-15 -8 -23 -27q0 -139 9 -227l6 -8q7 -6 24.5 -2.5t22.5 0.5q-4 15 -1.5 43t-2.5 41q12 63 32 90q7 6 26.5 12.5t27.5 13.5q1 8 4 22.5t3.5 21.5t-1.5 22zM938 61q6 11 9 24.5t4.5 22.5t-0.5 26.5t-3 24t-5 27.5t-5 25q2 7 -9 15t-25 14.5t-17 9.5
q-3 4 -9.5 4t-7.5 -6q-23 3 -39 -8q-8 -4 -16 -16t-12 -15q-10 -7 -19 6q10 49 -6 152l-4 14h-16q-11 -4 -14.5 -12.5t-3 -21t-1.5 -17.5q-4 -23 -4 -70t-4 -70q2 -23 0 -67t0 -64q0 -10 -2.5 -34t-1.5 -39q18 -10 64 10q16 3 21.5 0t14 -14.5t13.5 -14.5q16 0 26 2
q25 14 49 41.5t23 50.5zM682 70q-8 25 -5.5 90t-14.5 84q-17 11 -48 24l-16 11q-13 -2 -23.5 -1t-23 -1t-21.5 -9q-6 -4 -9.5 -10.5t-4.5 -11.5t-1.5 -16t-0.5 -15q16 -6 32 -2t33.5 1.5t26.5 -17.5q-1 -4 3 -12.5t-1 -12.5q-6 -11 2 -16q3 -4 1.5 -11t-7.5 -8
q-10 -3 -29 -3.5t-28 -2.5q-38 -15 -51 -76q-4 -7 -1.5 -22.5t-2.5 -20.5q0 -22 30 -35q11 11 17 5q10 -3 19.5 2t21.5 15.5t18 14.5q13 3 14.5 -5t-1 -18.5t4.5 -17.5q4 -5 16.5 -0.5t16.5 4.5q3 1 10 3t12 4t9 6zM508 371q-26 5 -107 0q-36 -4 -55 -17q-1 -25 -7 -72.5
t-7 -60.5q3 -39 2.5 -112t1.5 -113q3 0 15.5 2.5t13.5 -0.5q7 2 23.5 -1.5t23.5 1.5q1 22 2 65t2 64q5 11 33 25q4 2 15.5 0.5t14.5 5.5l-2 57q-4 4 -9.5 6t-9.5 2.5t-12.5 0t-11.5 -0.5q-8 -8 -14 -8q-9 2 -12 9.5t-4 19t-3 16.5q-4 8 9 21q29 9 79 16l13 8q-2 14 2 35.5
t4 30.5zM881 158q13 -30 7.5 -60.5t-26.5 -52.5q-2 -3 -5 -5.5t-6 -3.5t-7 -2.5t-6 -2.5q-12 1 -19.5 9t-9.5 15.5t-4.5 22.5t-3.5 20q1 5 5 30t11 36q7 4 18.5 20.5t24.5 16.5l6 -6q-3 -10 5.5 -21t9.5 -16zM604 86q0 -22 -29 -47l-13 -7q-13 -6 -21 -1q-8 2 -9.5 7.5t2 17
t3.5 12.5q0 13 18 20q12 0 20 8q2 0 9 -0.5t12 -2.5t8 -7z" />
    <glyph glyph-name="nbspace" horiz-adv-x="497" 
 />
    </font>
</defs>
</svg>
