<?xml version="1.0" standalone="no"?>
<!DOCTYPE svg PUBLIC "-//W3C//DTD SVG 1.1//EN" "http://www.w3.org/Graphics/SVG/1.1/DTD/svg11.dtd" >
<svg xmlns="http://www.w3.org/2000/svg" xmlns:xlink="http://www.w3.org/1999/xlink" version="1.1">
<metadata>
Created by FontForge 20170731 at Tue Jan  3 11:33:17 2023
 By Aleksey,,,
Copyright [c] 1997, 2004 Luc(as) de Groot, published by LucasFonts.
</metadata>
<defs>
<font id="Corpid-Bold" horiz-adv-x="1126" >
  <font-face 
    font-family="Corpid"
    font-weight="700"
    font-stretch="normal"
    units-per-em="2048"
    panose-1="2 11 8 3 4 5 2 6 2 4"
    ascent="1638"
    descent="-410"
    x-height="1053"
    cap-height="1430"
    bbox="-197 -453 2335 1968"
    underline-thickness="192"
    underline-position="-550"
    unicode-range="U+000D-FB04"
  />
<missing-glyph 
d="M614 307h-307v512h103v-409h204v-103zM1024 102h-922v922h922v-922zM717 717h-205v102h307v-512h-102v205h-205v102h205v103zM205 205h717v717h-717v-717z" />
    <glyph glyph-name="fi" unicode="fi" horiz-adv-x="1271" 
d="M1151 1366q0 -70 -45.5 -114t-116.5 -44t-116.5 44t-45.5 114t45.5 114t116.5 44t116.5 -44t45.5 -114zM1120 0h-262v854h-399v-854h-262v854h-156v199h156v90q0 101 17 174.5t56 130t108 85t169 28.5q84 0 164 -17v-186h-95q-50 0 -82.5 -14.5t-48 -44t-21 -61.5
t-5.5 -79v-106h661v-1053z" />
    <glyph glyph-name="fl" unicode="fl" horiz-adv-x="1300" 
d="M1264 0q-90 -23 -164 -23q-118 0 -185 57t-67 191v1123q-85 10 -184 10q-120 0 -162.5 -56t-42.5 -169v-80h209v-199h-209v-854h-262v854h-156v199h156v71q0 110 21.5 187t73.5 135.5t144.5 86.5t229.5 28q186 0 444 -31v-1237q0 -54 18.5 -79.5t63.5 -25.5h72v-188z" />
    <glyph glyph-name="ff" unicode="ff" horiz-adv-x="1374" 
d="M856 854h-397v-854h-262v854h-156v199h156v90q0 101 17 174.5t56 130t108 85t169 28.5q84 0 164 -17v-186h-95q-50 0 -82.5 -14.5t-48 -44t-21 -61.5t-5.5 -79v-106h397v90q0 206 79 312t271 106q87 0 164 -17v-186h-94q-50 0 -83 -14.5t-48.5 -44t-21 -61.5t-5.5 -79
v-106h221v-199h-221v-854h-262v854z" />
    <glyph glyph-name="ffi" unicode="ffi" horiz-adv-x="1931" 
d="M1810 1366q0 -70 -45 -114t-116 -44t-116.5 44t-45.5 114t45.5 114t116.5 44t116 -44t45 -114zM1118 854v-854h-262v854h-397v-854h-262v854h-156v199h156v90q0 101 17 174.5t56 130t108 85t169 28.5q84 0 164 -17v-186h-95q-50 0 -82.5 -14.5t-48 -44t-21 -61.5
t-5.5 -79v-106h397v90q0 206 79 312t271 106q87 0 164 -17v-186h-94q-50 0 -83 -14.5t-48.5 -44t-21 -61.5t-5.5 -79v-106h662v-1053h-262v854h-400z" />
    <glyph glyph-name="ffl" unicode="ffl" horiz-adv-x="1970" 
d="M459 1053h397v71q0 110 22 187t75 135.5t146.5 86.5t231.5 28q184 0 449 -31v-1237q0 -55 18 -80t64 -25h69v-188q-85 -23 -164 -23q-118 0 -183.5 57t-65.5 191v1123q-92 10 -191 10q-120 0 -164.5 -57t-44.5 -168v-80h211v-199h-211v-854h-262v854h-397v-854h-262v854
h-156v199h156v90q0 101 17 174.5t56 130t108 85t169 28.5q84 0 164 -17v-186h-95q-50 0 -82.5 -14.5t-48 -44t-21 -61.5t-5.5 -79v-106z" />
    <glyph glyph-name="f_b" unicode="fb" horiz-adv-x="1951" 
d="M856 1348q-90 10 -188 10q-121 0 -165 -56.5t-44 -168.5v-80h209v-199h-209v-854h-262v854h-156v199h156v71q0 110 22 187t75 135.5t146 86.5t230 28q183 0 448 -31v-584q69 65 146 100t178 35q106 0 188 -40t132.5 -110.5t76 -162t25.5 -199.5q0 -131 -34 -236.5
t-102.5 -185t-178.5 -122.5t-255 -43q-211 0 -438 69v1297zM1589 539q0 329 -203 329q-71 0 -135.5 -37.5t-132.5 -117.5v-484q94 -41 195 -41q136 0 206 90.5t70 260.5z" />
    <glyph glyph-name="f_h" unicode="fh" horiz-adv-x="1951" 
d="M856 1348q-90 10 -188 10q-121 0 -165 -56.5t-44 -168.5v-80h209v-199h-209v-854h-262v854h-156v199h156v71q0 110 22 187t75 135.5t146 86.5t230 28q183 0 448 -31v-592q74 72 150 107.5t178 35.5q185 0 275.5 -110.5t90.5 -306.5v-664h-262v610q0 125 -39.5 190.5
t-132.5 65.5q-76 0 -130.5 -33.5t-129.5 -113.5v-719h-262v1348z" />
    <glyph glyph-name="f_j" unicode="fj" horiz-adv-x="1271" 
d="M1151 1366q0 -70 -45.5 -114t-116.5 -44t-116.5 44t-45.5 114t45.5 114t116.5 44t116.5 -44t45.5 -114zM1120 1053v-1069q0 -228 -86 -329t-250 -101q-78 0 -147 16l8 205h78q69 0 102 43.5t33 142.5v893h-399v-854h-262v854h-156v199h156v90q0 101 17 174.5t56 130
t108 85t169 28.5q84 0 164 -17v-186h-95q-50 0 -82.5 -14.5t-48 -44t-21 -61.5t-5.5 -79v-106h661z" />
    <glyph glyph-name="f_k" unicode="fk" horiz-adv-x="1845" 
d="M856 1348q-90 10 -188 10q-121 0 -165 -56.5t-44 -168.5v-80h209v-199h-209v-854h-262v854h-156v199h156v71q0 110 22 187t75 135.5t146 86.5t230 28q183 0 448 -31v-838l330 361h330l-389 -377l430 -676h-324l-299 500l-78 -78v-422h-262v1348z" />
    <glyph glyph-name=".notdef" 
d="M614 307h-307v512h103v-409h204v-103zM1024 102h-922v922h922v-922zM717 717h-205v102h307v-512h-102v205h-205v102h205v103zM205 205h717v717h-717v-717z" />
    <glyph glyph-name=".null" horiz-adv-x="0" 
 />
    <glyph glyph-name=".null" horiz-adv-x="0" 
 />
    <glyph glyph-name="nonmarkingreturn" horiz-adv-x="682" 
 />
    <glyph glyph-name="CR" unicode="&#xd;" horiz-adv-x="1024" 
 />
    <glyph glyph-name="space" unicode=" " horiz-adv-x="552" 
 />
    <glyph glyph-name="space" unicode="&#xa0;" horiz-adv-x="552" 
 />
    <glyph glyph-name="exclam" unicode="!" horiz-adv-x="737" 
d="M553 1536l-31 -1110h-225l-31 1110h287zM571 139q0 -69 -46 -115.5t-115 -46.5t-115.5 46.5t-46.5 115.5t46.5 116.5t115.5 47.5t115 -47.5t46 -116.5z" />
    <glyph glyph-name="quotedbl" unicode="&#x22;" horiz-adv-x="978" 
d="M797 1536l-29 -567h-186l-29 567h244zM381 1536l-29 -567h-186l-29 567h244z" />
    <glyph glyph-name="numbersign" unicode="#" 
d="M1071 870h-168l-35 -290h148v-183h-168l-47 -397h-205l47 397h-233l-48 -397h-204l47 397h-146v183h166l35 290h-149v183h172l45 377h204l-45 -377h234l45 377h205l-45 -377h145v-183zM698 870h-233l-35 -290h234z" />
    <glyph glyph-name="dollar" unicode="$" 
d="M1014 420q0 -84 -28 -154t-77.5 -119t-110.5 -82.5t-132 -50.5v-252h-201v234q-176 3 -354 65l47 213q167 -63 344 -63q109 0 172 47.5t63 126.5q0 51 -27 88t-70.5 56t-99.5 37.5t-115 32.5t-115 41t-99.5 62.5t-70.5 98.5t-27 147q0 147 96.5 249.5t255.5 127.5v221
h201v-215q125 -9 258 -57l-54 -197q-128 49 -278 49q-102 0 -151.5 -41.5t-49.5 -109.5q0 -51 34.5 -85.5t89.5 -54t121 -37t132.5 -43t121.5 -63t89.5 -107t34.5 -165.5z" />
    <glyph glyph-name="percent" unicode="%" horiz-adv-x="1744" 
d="M1470 1386l-1046 -1441l-150 100l1049 1444zM754 1075q0 -188 -93 -285.5t-255 -97.5q-336 0 -336 381q0 189 92 287t254 98q338 0 338 -383zM545 1075q0 121 -34 173t-101 52q-69 0 -101.5 -55.5t-32.5 -171.5q0 -121 34 -172t102 -51q69 0 101 55t32 170zM1677 358
q0 -188 -93 -285.5t-255 -97.5q-336 0 -336 381q0 188 92.5 285.5t255.5 97.5q336 0 336 -381zM1468 358q0 122 -33 173t-100 51q-70 0 -101.5 -55.5t-31.5 -170.5q0 -122 33 -172.5t100 -50.5q70 0 101.5 55t31.5 170z" />
    <glyph glyph-name="ampersand" unicode="&#x26;" horiz-adv-x="1507" 
d="M1458 158l-135 -195q-161 116 -250 182q-187 -174 -455 -174q-236 0 -367.5 105.5t-131.5 294.5q0 121 61.5 216t186.5 181q-150 188 -150 338q0 159 106.5 255.5t286.5 96.5q74 0 140 -19t119.5 -56t84.5 -98t31 -138q0 -117 -65.5 -203t-225.5 -190q128 -131 340 -297
q70 146 70 340h233q-6 -270 -120 -471q145 -106 241 -168zM752 1126q0 68 -38 110t-114 42q-70 0 -109.5 -46t-39.5 -114q0 -94 110 -229q105 70 148 122.5t43 114.5zM897 276q-252 199 -395 347q-123 -99 -123 -222q0 -108 69.5 -168.5t198.5 -60.5q146 0 250 104z" />
    <glyph glyph-name="quotesingle" unicode="'" horiz-adv-x="524" 
d="M387 1536l-29 -567h-192l-29 567h250z" />
    <glyph glyph-name="parenleft" unicode="(" horiz-adv-x="700" 
d="M586 -328l-203 -78q-260 484 -260 1000q0 517 260 1001l203 -77q-193 -449 -193 -922q0 -472 193 -924z" />
    <glyph glyph-name="parenright" unicode=")" horiz-adv-x="700" 
d="M578 596q0 -522 -261 -1002l-202 78q192 440 192 922q0 481 -192 924l202 77q261 -480 261 -999z" />
    <glyph glyph-name="asterisk" unicode="*" 
d="M981 1026l-113 -192l-237 184l39 -299h-224l41 297l-239 -182l-113 192l281 115l-281 114l113 193l239 -182l-41 299h224l-39 -299l237 182l113 -193l-279 -112z" />
    <glyph glyph-name="plus" unicode="+" 
d="M1053 532h-379v-413h-221v413h-379v205h379v414h221v-414h379v-205z" />
    <glyph glyph-name="comma" unicode="," horiz-adv-x="579" 
d="M291 313q87 0 134 -74q57 -91 14 -228q-58 -184 -275 -361l-111 102q137 149 137 221q0 24 -29.5 75t-29.5 104q0 71 43.5 116t116.5 45z" />
    <glyph glyph-name="hyphen" unicode="-" horiz-adv-x="622" 
d="M614 444h-536v213h536v-213z" />
    <glyph glyph-name="hyphen" unicode="&#xad;" horiz-adv-x="622" 
d="M614 444h-536v213h536v-213z" />
    <glyph glyph-name="period" unicode="." horiz-adv-x="579" 
d="M457 150q0 -71 -48 -119.5t-118 -48.5q-72 0 -120 48.5t-48 119.5t48 119t120 48q70 0 118 -48t48 -119z" />
    <glyph glyph-name="slash" unicode="/" horiz-adv-x="956" 
d="M930 1579l-684 -1913l-238 72l682 1913z" />
    <glyph glyph-name="zero.sc" unicode="0" 
d="M1069 688q0 -122 -17.5 -226.5t-56.5 -195t-98 -154.5t-146.5 -100.5t-197.5 -36.5q-498 0 -498 697q0 121 16.5 225t55 196.5t96.5 157.5t146.5 102.5t199.5 37.5q500 0 500 -703zM795 676q0 251 -53 382.5t-181 131.5q-120 0 -175.5 -126t-55.5 -374q0 -275 57 -394.5
t182 -119.5q67 0 112.5 34.5t70 104t34 155t9.5 206.5z" />
    <glyph glyph-name="one.sc" unicode="1" 
d="M1026 0h-866v213h340v879l-281 -146l-94 166l405 254h240v-1153h256v-213z" />
    <glyph glyph-name="two.sc" unicode="2" 
d="M1036 0h-952v213l285 260q168 155 232.5 260t64.5 219q0 213 -215 213q-131 0 -287 -73l-51 219q193 80 401 80q224 0 342.5 -99t118.5 -293q0 -167 -87.5 -303.5t-295.5 -310.5l-174 -156h618v-229z" />
    <glyph glyph-name="three.sc" unicode="3" 
d="M1004 397q0 -138 -72.5 -234.5t-194.5 -142t-284 -45.5q-221 0 -371 31v193q153 -15 321 -15q145 0 221 53.5t76 151.5q0 110 -90 160.5t-237 50.5h-131v201h129q152 0 232.5 56.5t80.5 146.5q0 85 -57 130.5t-172 45.5q-147 0 -305 -64l-44 197q186 78 414 78
q211 0 329 -92t118 -259q0 -113 -75.5 -200t-203.5 -119v-4q141 -12 228.5 -101.5t87.5 -218.5z" />
    <glyph glyph-name="four.sc" unicode="4" 
d="M1075 287h-178v-287h-266v287h-586v215l447 864h405v-852h178v-227zM631 514v678h-2l-365 -678h367z" />
    <glyph glyph-name="five.sc" unicode="5" 
d="M1024 444q0 -223 -153 -346t-422 -123q-177 0 -349 31v195q133 -17 320 -17q319 0 319 236q0 108 -74.5 162.5t-236.5 54.5q-102 0 -274 -21l12 750h764v-219h-535l-6 -311q71 6 156 6q229 0 354 -102.5t125 -295.5z" />
    <glyph glyph-name="six.sc" unicode="6" 
d="M1059 451q0 -209 -133.5 -342.5t-354.5 -133.5q-259 0 -370 156t-111 487q0 773 602 773q161 0 295 -52l-39 -182q-122 39 -260 39q-89 0 -156 -32t-106.5 -89t-59.5 -129.5t-22 -159.5v-4q148 92 305 92q410 0 410 -423zM795 432q0 120 -47.5 177t-155.5 57
q-60 0 -125.5 -20t-116.5 -54q0 -225 55.5 -319.5t169.5 -94.5q107 0 163.5 65t56.5 189z" />
    <glyph glyph-name="seven.sc" unicode="7" 
d="M1026 1153l-358 -823q-92 -218 -234 -391l-182 104q84 146 203 428l284 672h-651v223h938v-213z" />
    <glyph glyph-name="eight.sc" unicode="8" 
d="M1059 373q0 -181 -139 -289.5t-367 -108.5q-221 0 -354 93t-133 268q0 113 71 197.5t213 156.5q-129 68 -188.5 144t-59.5 194q0 159 125.5 261t343.5 102q216 0 333.5 -95.5t117.5 -244.5q0 -104 -64.5 -182t-187.5 -144q142 -70 215.5 -154.5t73.5 -197.5zM758 1030
q0 77 -52 123.5t-145 46.5q-96 0 -145 -47.5t-49 -118.5q0 -70 44 -118.5t164 -104.5q86 50 134.5 101.5t48.5 117.5zM788 350q0 74 -57 127t-190 119q-205 -114 -205 -244q0 -88 59.5 -135t175.5 -47q100 0 158.5 50.5t58.5 129.5z" />
    <glyph glyph-name="nine.sc" unicode="9" 
d="M1034 748q0 -773 -608 -773q-157 0 -315 37l20 193q143 -33 299 -33q174 0 255.5 104.5t92.5 303.5l-2 4q-139 -92 -303 -92q-215 0 -311 110.5t-96 315.5q0 96 32.5 181t93 150.5t153.5 103.5t206 38q259 0 371 -156.5t112 -486.5zM774 774q0 220 -57 317t-170 97
q-109 0 -164 -73.5t-55 -184.5q0 -120 46 -175t156 -55q60 0 125.5 20t118.5 54z" />
    <glyph glyph-name="colon" unicode=":" horiz-adv-x="620" 
d="M498 877q0 -71 -48 -119.5t-118 -48.5q-72 0 -120 48.5t-48 119.5t48 118t120 47q71 0 118.5 -47.5t47.5 -117.5zM498 150q0 -71 -48 -119.5t-118 -48.5q-72 0 -120 48.5t-48 119.5t48 119t120 48q70 0 118 -48t48 -119z" />
    <glyph glyph-name="semicolon" unicode=";" horiz-adv-x="620" 
d="M498 877q0 -71 -48 -119.5t-118 -48.5q-72 0 -120 48.5t-48 119.5t48 118t120 47q71 0 118.5 -47.5t47.5 -117.5zM332 313q87 0 134 -74q57 -91 14 -228q-58 -184 -275 -361l-111 102q137 149 137 221q0 24 -29.5 75t-29.5 104q0 71 43.5 116t116.5 45z" />
    <glyph glyph-name="semicolon" unicode="&#x37e;" horiz-adv-x="620" 
d="M498 877q0 -71 -48 -119.5t-118 -48.5q-72 0 -120 48.5t-48 119.5t48 118t120 47q71 0 118.5 -47.5t47.5 -117.5zM332 313q87 0 134 -74q57 -91 14 -228q-58 -184 -275 -361l-111 102q137 149 137 221q0 24 -29.5 75t-29.5 104q0 71 43.5 116t116.5 45z" />
    <glyph glyph-name="less" unicode="&#x3c;" 
d="M997 78l-911 454v211l911 453v-240l-673 -319l673 -315v-244z" />
    <glyph glyph-name="equal" unicode="=" 
d="M1020 758h-914v203h914v-203zM1020 313h-914v203h914v-203z" />
    <glyph glyph-name="greater" unicode="&#x3e;" 
d="M1040 532l-911 -454v239l674 316l-674 319v244l911 -453v-211z" />
    <glyph glyph-name="question" unicode="?" horiz-adv-x="960" 
d="M866 1190q0 -70 -20.5 -131.5t-52 -108t-70 -91t-75 -89t-65.5 -93t-43.5 -113t-7.5 -138.5h-231q-17 99 -2 181t47 137t74 107.5t79 93.5t63 93.5t26 108.5q0 199 -236 199q-109 0 -223 -15v195q139 33 264 33q244 0 358.5 -97t114.5 -272zM582 139q0 -69 -46.5 -115.5
t-115.5 -46.5q-70 0 -117 46.5t-47 115.5t47 116.5t117 47.5q69 0 115.5 -47.5t46.5 -116.5z" />
    <glyph glyph-name="at" unicode="@" horiz-adv-x="1798" 
d="M1606 -158q-254 -121 -562 -121q-199 0 -365.5 63t-280.5 175.5t-177 270.5t-63 345q0 206 70 374.5t192.5 280t289.5 172t361 60.5q138 0 241 -32t163.5 -88.5t90 -128.5t29.5 -158v-733h-190l-25 124q-124 -151 -331 -151q-164 0 -261.5 84t-97.5 225q0 184 132.5 267
t391.5 83h127v78q0 116 -69.5 175t-231.5 59q-137 0 -254.5 -45.5t-204 -130t-135.5 -212.5t-49 -284q0 -194 78 -344t233 -237t367 -87q262 0 477 105zM1341 600v188h-129q-134 0 -198 -38.5t-64 -118.5q0 -67 40.5 -106.5t115.5 -39.5q68 0 123 29t112 86z" />
    <glyph glyph-name="A" unicode="A" horiz-adv-x="1398" 
d="M1362 0h-311q-16 52 -48.5 165.5t-48.5 168.5h-544q-65 -211 -99 -334h-274q210 701 493 1430h328q286 -721 504 -1430zM893 545q-71 221 -211 616l-2 -2q-126 -351 -211 -614h424z" />
    <glyph glyph-name="B" unicode="B" horiz-adv-x="1241" 
d="M1161 432q0 -112 -43.5 -196.5t-120 -135t-173 -75.5t-210.5 -25h-452v1430h432q234 0 357.5 -90t123.5 -269q0 -105 -53 -183t-143 -116q122 -21 202 -112.5t80 -227.5zM801 1034q0 187 -223 187h-148v-385h172q101 0 150 53.5t49 144.5zM874 416q0 105 -67.5 161
t-204.5 56h-172v-422h211q103 0 168 54t65 151z" />
    <glyph glyph-name="C" unicode="C" horiz-adv-x="1198" 
d="M1155 59q-80 -39 -180.5 -61.5t-194.5 -22.5q-324 0 -505 184.5t-181 534.5q0 356 185.5 558t494.5 202q205 0 375 -80l-82 -213q-136 62 -287 62q-182 0 -287.5 -140.5t-105.5 -367.5q0 -252 113 -379t311 -127q141 0 276 61z" />
    <glyph glyph-name="D" unicode="D" horiz-adv-x="1447" 
d="M1360 735q0 -364 -195.5 -549.5t-546.5 -185.5h-456v1430h485q343 0 528 -179t185 -516zM1073 721q0 109 -25.5 196.5t-77.5 154.5t-138.5 103.5t-202.5 36.5h-195v-993h193q446 0 446 502z" />
    <glyph glyph-name="E" unicode="E" horiz-adv-x="1120" 
d="M1001 0h-839v1430h831v-218h-559v-366h484v-213h-484v-416h567v-217z" />
    <glyph glyph-name="F" unicode="F" horiz-adv-x="1032" 
d="M948 1212h-512v-393h457v-215h-457v-604h-274v1430h786v-218z" />
    <glyph glyph-name="G" unicode="G" horiz-adv-x="1425" 
d="M1290 1335l-84 -209q-185 101 -381 101q-211 0 -331.5 -140t-120.5 -372q0 -246 119 -378t329 -132q95 0 180 24v539h275v-717q-214 -78 -469 -78q-342 0 -530.5 192.5t-188.5 532.5q0 350 197.5 553t537.5 203q252 0 467 -119z" />
    <glyph glyph-name="H" unicode="H" horiz-adv-x="1437" 
d="M1276 0h-275v623h-565v-623h-274v1430h274v-572h565v572h275v-1430z" />
    <glyph glyph-name="I" unicode="I" horiz-adv-x="598" 
d="M436 0h-274v1430h274v-1430z" />
    <glyph glyph-name="J" unicode="J" horiz-adv-x="724" 
d="M563 430q0 -86 -8 -150.5t-30.5 -125t-61 -99t-102 -61.5t-150.5 -23q-83 0 -176 21v215h94q88 0 123 44.5t35 156.5v1022h276v-1000z" />
    <glyph glyph-name="K" unicode="K" horiz-adv-x="1296" 
d="M1268 0h-340l-404 670l-88 -103v-567h-274v1430h274v-560l477 560h342l-532 -572z" />
    <glyph glyph-name="L" unicode="L" horiz-adv-x="956" 
d="M930 0h-768v1430h274v-1207h494v-223z" />
    <glyph glyph-name="M" unicode="M" horiz-adv-x="1931" 
d="M1788 0h-279q-7 650 -61 1141h-2l-367 -1141h-258l-360 1141h-4q-55 -581 -58 -1141h-254q6 691 99 1430h397l324 -1024h4l327 1024h398q85 -702 94 -1430z" />
    <glyph glyph-name="N" unicode="N" horiz-adv-x="1480" 
d="M1319 0h-350l-559 1061h-4v-1061h-244v1430h362l547 -1039h4v1039h244v-1430z" />
    <glyph glyph-name="O" unicode="O" horiz-adv-x="1576" 
d="M1483 729q0 -356 -180.5 -557t-522.5 -201q-340 0 -513 185.5t-173 550.5q0 228 80 396.5t239 261.5t382 93q332 0 510 -188.5t178 -540.5zM1192 705q0 120 -21.5 213t-68.5 165t-128.5 110t-195.5 38q-86 0 -154 -26.5t-112 -72t-73 -110t-41.5 -136.5t-12.5 -155
q0 -126 21.5 -220.5t68.5 -166t128.5 -108.5t195.5 -37q87 0 155 26.5t112 72.5t73 111t41 138t12 158z" />
    <glyph glyph-name="P" unicode="P" horiz-adv-x="1198" 
d="M1124 995q0 -237 -140.5 -364t-399.5 -127h-148v-504h-274v1430h428q104 0 188 -17q164 -33 255 -140.5t91 -277.5zM836 975q0 87 -39 146t-113 81q-53 15 -115 15h-133v-500h162q118 0 178 70t60 188z" />
    <glyph glyph-name="Q" unicode="Q" horiz-adv-x="1585" 
d="M1567 -10l-146 -148l-245 232q-159 -103 -396 -103q-340 0 -513 185.5t-173 550.5q0 228 80 396.5t239 261.5t382 93q332 0 510 -188.5t178 -540.5q0 -323 -148 -518zM1192 705q0 120 -21.5 213t-68.5 165t-128.5 110t-195.5 38q-86 0 -154 -26.5t-112 -72t-73 -110
t-41.5 -136.5t-12.5 -155q0 -126 21.5 -220.5t68.5 -166t128.5 -108.5t195.5 -37q113 0 190 55l-219 207l145 149l213 -204q64 116 64 299z" />
    <glyph glyph-name="R" unicode="R" horiz-adv-x="1255" 
d="M1198 0h-319l-308 592h-135v-592h-274v1430h461q233 0 364 -99.5t131 -288.5q0 -149 -74 -246t-202 -139zM829 1016q0 88 -56.5 144.5t-178.5 56.5h-158v-418h135q126 0 192 59.5t66 157.5z" />
    <glyph glyph-name="S" unicode="S" horiz-adv-x="1069" 
d="M993 430q0 -149 -72.5 -254.5t-194.5 -155t-282 -49.5q-166 0 -352 52l31 227q161 -53 319 -53q130 0 195 50.5t65 145.5q0 36 -12.5 65.5t-31.5 51t-56 43.5t-71.5 37.5t-92.5 38.5q-83 34 -141 69t-105 84t-70.5 114t-23.5 148q0 193 138.5 303.5t355.5 110.5
q176 0 315 -51l-41 -213q-124 45 -272 45q-99 0 -152 -43.5t-53 -118.5q0 -36 11.5 -65.5t29 -50.5t50 -41.5t61 -34.5t75.5 -33q52 -22 83 -36t76 -38t72 -45.5t58 -53.5t48 -67t28.5 -81.5t11.5 -100.5z" />
    <glyph glyph-name="T" unicode="T" horiz-adv-x="1118" 
d="M1096 1208h-400v-1208h-274v1208h-399v222h1073v-222z" />
    <glyph glyph-name="U" unicode="U" horiz-adv-x="1470" 
d="M1311 537q0 -267 -151 -415.5t-429 -148.5q-272 0 -421.5 138.5t-149.5 406.5v912h274v-889q0 -167 82 -255.5t223 -88.5q142 0 222.5 87t80.5 244v902h269v-893z" />
    <glyph glyph-name="V" unicode="V" horiz-adv-x="1357" 
d="M1337 1430q-200 -691 -485 -1430h-336q-279 692 -489 1430h315q136 -543 358 -1147l2 2q210 606 353 1145h282z" />
    <glyph glyph-name="W" unicode="W" horiz-adv-x="2086" 
d="M2028 1430q-123 -632 -359 -1430h-362l-265 1047h-4l-254 -1047h-368q-228 762 -353 1430h306q99 -589 252 -1133h2l274 1133h313l287 -1133h2q174 667 250 1133h279z" />
    <glyph glyph-name="X" unicode="X" horiz-adv-x="1308" 
d="M1288 0h-342l-299 543l-301 -543h-330l447 741l-404 689h330l270 -486l267 486h319l-403 -682z" />
    <glyph glyph-name="Y" unicode="Y" horiz-adv-x="1224" 
d="M1212 1430q-199 -480 -458 -855v-575h-275v575q-260 386 -467 855h316q124 -326 303 -615q170 282 280 615h301z" />
    <glyph glyph-name="Z" unicode="Z" horiz-adv-x="1077" 
d="M1012 0h-955v213l635 999h-608v218h915v-220l-630 -993h643v-217z" />
    <glyph glyph-name="bracketleft" unicode="[" horiz-adv-x="729" 
d="M623 -369h-445v1930h445v-189h-197v-1552h197v-189z" />
    <glyph glyph-name="backslash" unicode="\" horiz-adv-x="956" 
d="M948 -262l-237 -72l-684 1913l237 72z" />
    <glyph glyph-name="bracketright" unicode="]" horiz-adv-x="729" 
d="M549 -369h-443v189h197v1552h-197v189h443v-1930z" />
    <glyph glyph-name="asciicircum" unicode="^" 
d="M1059 727h-266l-228 506l-211 -506h-260l318 703h317z" />
    <glyph glyph-name="underscore" unicode="_" 
d="M1126 -453h-1126v191h1126v-191z" />
    <glyph glyph-name="grave" unicode="`" horiz-adv-x="602" 
d="M432 1280l-137 -94l-295 278l188 119z" />
    <glyph glyph-name="a" unicode="a" horiz-adv-x="1132" 
d="M989 0h-198l-21 100q-141 -129 -332 -129q-166 0 -263 83t-97 239q0 342 526 342h127v55q0 102 -48 148.5t-171 46.5q-155 0 -309 -62l-45 191q182 67 391 67q229 0 334.5 -93.5t105.5 -272.5v-715zM731 266v199h-131q-260 0 -260 -158q0 -68 41 -106.5t119 -38.5
q115 0 231 104z" />
    <glyph glyph-name="b" unicode="b" horiz-adv-x="1236" 
d="M1151 569q0 -131 -34 -236.5t-102 -185t-178 -122.5t-255 -43q-212 0 -439 69v1485h263v-590q69 65 145.5 100t177.5 35q106 0 188 -40t132.5 -110.5t76 -162t25.5 -199.5zM877 539q0 329 -203 329q-71 0 -135.5 -37.5t-132.5 -117.5v-484q94 -41 194 -41
q136 0 206.5 90.5t70.5 260.5z" />
    <glyph glyph-name="c" unicode="c" horiz-adv-x="931" 
d="M879 39q-152 -64 -306 -64q-245 0 -368 140t-123 391q0 271 141.5 420t378.5 149q152 0 270 -55l-57 -195q-93 41 -192 41q-134 0 -200.5 -89.5t-66.5 -248.5q0 -335 271 -335q109 0 207 43z" />
    <glyph glyph-name="d" unicode="d" horiz-adv-x="1236" 
d="M1092 0h-199l-21 137q-78 -83 -163 -124.5t-195 -41.5q-108 0 -192 39.5t-135 110t-77 162t-26 200.5q0 125 33 230.5t98 186t170.5 126t241.5 45.5q108 0 202 -20v485h263v-1536zM829 340v481q-84 43 -198 43q-133 0 -202 -90t-69 -260q0 -330 205 -330q71 0 133 37.5
t131 118.5z" />
    <glyph glyph-name="e" unicode="e" horiz-adv-x="1146" 
d="M1055 592q0 -41 -4 -123h-697q0 -145 68 -219t225 -74q177 0 346 45l27 -190q-199 -60 -414 -60q-265 0 -393.5 134t-128.5 411q0 264 135 414.5t383 150.5q229 0 341 -128t112 -361zM795 639q5 120 -48 188t-159 68q-111 0 -171 -75.5t-63 -180.5h441z" />
    <glyph glyph-name="f" unicode="f" horiz-adv-x="712" 
d="M711 1358h-99q-49 0 -80.5 -14.5t-47 -44t-20.5 -61.5t-5 -79v-106h217v-199h-217v-854h-262v854h-156v199h156v96q0 98 17 170.5t56 128.5t108 84.5t169 28.5q84 0 164 -17v-186z" />
    <glyph glyph-name="g" unicode="g" horiz-adv-x="1236" 
d="M1092 35q0 -249 -132 -364t-405 -115q-173 0 -326 30l9 195q149 -19 307 -19q154 0 219 51t65 185v123q-135 -129 -311 -129q-110 0 -194.5 39.5t-136 109.5t-77.5 160.5t-26 198.5q0 125 35 228.5t103.5 181.5t179 121.5t253.5 43.5q207 0 437 -69v-971zM829 344v485
q-80 41 -194 41q-132 0 -203.5 -90.5t-71.5 -253.5q0 -321 213 -321q135 0 256 139z" />
    <glyph glyph-name="h" unicode="h" horiz-adv-x="1239" 
d="M1100 0h-262v610q0 125 -39.5 190.5t-132.5 65.5q-76 0 -130.5 -33.5t-129.5 -113.5v-719h-263v1536h263v-598q74 72 149.5 107.5t177.5 35.5q186 0 276.5 -111t90.5 -306v-664z" />
    <glyph glyph-name="i" unicode="i" horiz-adv-x="606" 
d="M485 1366q0 -70 -45 -114t-116 -44t-116.5 44t-45.5 114t45.5 114t116.5 44t116 -44t45 -114zM461 0h-262v854h-166v199h428v-1053z" />
    <glyph glyph-name="j" unicode="j" horiz-adv-x="579" 
d="M467 1366q0 -70 -45.5 -114t-116.5 -44q-72 0 -117 44t-45 114t45 114t117 44q71 0 116.5 -44t45.5 -114zM436 -16q0 -228 -86 -329t-250 -101q-81 0 -147 16l8 205h78q69 0 102 43.5t33 142.5v1092h262v-1069z" />
    <glyph glyph-name="k" unicode="k" horiz-adv-x="1130" 
d="M1106 0h-324l-299 500l-77 -78v-422h-263v1536h263v-844l329 361h330l-389 -377z" />
    <glyph glyph-name="l" unicode="l" horiz-adv-x="595" 
d="M559 0q-90 -23 -164 -23q-118 0 -185 57t-67 191v1311h263v-1243q0 -54 18.5 -79.5t62.5 -25.5h72v-188z" />
    <glyph glyph-name="m" unicode="m" horiz-adv-x="1855" 
d="M1716 0h-262v608q0 65 -6 108.5t-22 79.5t-47 53t-79 17q-39 0 -69 -8.5t-59.5 -30.5t-51.5 -43.5t-59 -64.5v-719h-262v610q0 65 -6 108t-22 78.5t-47 52.5t-79 17q-39 0 -69 -8.5t-59.5 -30.5t-51.5 -43.5t-59 -64.5v-719h-263v1053h201l25 -135q78 87 153.5 125
t184.5 38q232 0 307 -176q81 95 159.5 135.5t188.5 40.5q190 0 272 -108.5t82 -308.5v-664z" />
    <glyph glyph-name="n" unicode="n" horiz-adv-x="1239" 
d="M1100 0h-262v610q0 125 -39.5 190.5t-132.5 65.5q-76 0 -130.5 -33.5t-129.5 -113.5v-719h-263v1053h201l25 -133q87 87 166.5 124t189.5 37q192 0 283.5 -110.5t91.5 -306.5v-664z" />
    <glyph glyph-name="o" unicode="o" horiz-adv-x="1251" 
d="M1169 539q0 -254 -148 -411t-407 -157q-135 0 -237.5 39t-166.5 111t-96 169t-32 218q0 264 145.5 418.5t409.5 154.5q257 0 394.5 -144.5t137.5 -397.5zM895 514q0 171 -66 265.5t-206 94.5q-132 0 -199.5 -92.5t-67.5 -246.5q0 -177 65.5 -266t211.5 -89
q129 0 195.5 92.5t66.5 241.5z" />
    <glyph glyph-name="p" unicode="p" horiz-adv-x="1236" 
d="M1151 569q0 -100 -20 -187t-63 -161t-106.5 -127t-153.5 -82.5t-200 -29.5q-97 0 -202 20v-420h-263v1471h201l21 -138q77 82 162 124t196 42q108 0 191.5 -39.5t134.5 -110t76.5 -162t25.5 -200.5zM877 539q0 329 -207 329q-71 0 -132 -37t-132 -118v-482
q88 -43 198 -43q134 0 203.5 90.5t69.5 260.5z" />
    <glyph glyph-name="q" unicode="q" horiz-adv-x="1236" 
d="M1092 -418h-263v522q-73 -69 -149.5 -101t-171.5 -32q-106 0 -188.5 40t-133 110.5t-76.5 162t-26 199.5q0 130 34 236.5t102.5 185.5t179 122.5t255.5 43.5q207 0 437 -70v-1419zM829 340v483q-91 41 -194 41q-134 0 -204.5 -90t-70.5 -260q0 -330 201 -330q73 0 137 38
t131 118z" />
    <glyph glyph-name="r" unicode="r" horiz-adv-x="796" 
d="M772 1067l-31 -248q-57 15 -108 15q-49 0 -99.5 -42t-127.5 -141v-651h-263v1053h205l25 -176q82 113 139 158.5t135 45.5q70 0 125 -14z" />
    <glyph glyph-name="s" unicode="s" horiz-adv-x="899" 
d="M827 319q0 -158 -116.5 -253t-315.5 -95q-157 0 -309 41l37 209q136 -47 264 -47q77 0 121.5 31t44.5 90q0 50 -40 80.5t-138 62.5q-95 29 -154 65t-94 97t-35 148q0 153 108.5 243t301.5 90q139 0 264 -37l-31 -198q-112 39 -223 39q-78 0 -114 -34.5t-36 -82.5
q0 -49 39 -77t142 -62q150 -47 217 -117t67 -193z" />
    <glyph glyph-name="t" unicode="t" horiz-adv-x="761" 
d="M684 2q-73 -25 -205 -25q-138 0 -213.5 69t-75.5 228v580h-151v199h151l62 305h201v-305h231v-199h-231v-500q0 -101 32 -134.5t115 -33.5h84v-184z" />
    <glyph glyph-name="u" unicode="u" horiz-adv-x="1239" 
d="M1094 0h-199l-25 133q-87 -87 -167.5 -124.5t-190.5 -37.5q-192 0 -282.5 110.5t-90.5 307.5v664h262v-611q0 -125 39.5 -190.5t132.5 -65.5q74 0 128.5 34t129.5 114v719h263v-1053z" />
    <glyph glyph-name="v" unicode="v" horiz-adv-x="1052" 
d="M1020 1053q-137 -537 -344 -1053h-297q-214 518 -344 1053h274q87 -380 232 -781h2q139 388 223 781h254z" />
    <glyph glyph-name="w" unicode="w" horiz-adv-x="1685" 
d="M1645 1053q-117 -517 -314 -1053h-293l-200 717h-2l-191 -717h-301q-196 557 -301 1053h270q73 -371 195 -787h2l207 787h266l215 -787h2q126 439 191 787h254z" />
    <glyph glyph-name="x" unicode="x" horiz-adv-x="1097" 
d="M1061 0h-307l-205 381l-213 -381h-299l328 541l-302 512h302l192 -353l195 353h280l-291 -500z" />
    <glyph glyph-name="y" unicode="y" horiz-adv-x="1052" 
d="M1020 1053q-171 -703 -340 -1053q-81 -170 -161 -269.5t-155 -137t-167 -37.5q-60 0 -142 24l6 193h123q57 0 104.5 49t112.5 178q-104 231 -200.5 508.5t-161.5 544.5h274q90 -375 238 -787h4q135 384 211 787h254z" />
    <glyph glyph-name="z" unicode="z" horiz-adv-x="974" 
d="M901 0h-813v201l473 641h-446v211h755v-203l-471 -639h502v-211z" />
    <glyph glyph-name="braceleft" unicode="{" horiz-adv-x="765" 
d="M682 -365q-59 -16 -129 -16q-162 0 -225.5 100.5t-63.5 315.5v239q0 116 -48 180.5t-140 67.5v195q91 3 139.5 68t48.5 180v192q0 214 64 315t225 101q66 0 129 -17v-184h-72q-59 0 -80.5 -43.5t-21.5 -173.5v-184q0 -136 -53 -230t-170 -120q60 -13 104.5 -46.5
t69.5 -81.5t37 -103.5t12 -119.5v-233q0 -130 21.5 -173.5t80.5 -43.5h72v-185z" />
    <glyph glyph-name="bar" unicode="|" horiz-adv-x="1069" 
d="M657 -418h-245v1979h245v-1979z" />
    <glyph glyph-name="braceright" unicode="}" horiz-adv-x="765" 
d="M731 522q-91 -3 -138.5 -67t-47.5 -181v-239q0 -214 -64.5 -315t-226.5 -101q-71 0 -127 16v185h70q60 0 82 43.5t22 173.5v233q0 64 12 119.5t37 103.5t69.5 81.5t104.5 46.5q-117 26 -170 120t-53 230v184q0 130 -22 173.5t-82 43.5h-70v184q59 17 127 17
q163 0 227 -100.5t64 -315.5v-192q0 -115 47.5 -180t138.5 -68v-195z" />
    <glyph glyph-name="asciitilde" unicode="~" 
d="M1065 1206q0 -175 -82 -271.5t-217 -96.5q-86 0 -140 29.5t-104 84.5q-13 14 -39 43t-37.5 39.5t-33 21.5t-45.5 11q-56 0 -81.5 -47.5t-27.5 -140.5h-192v39q0 171 82 267.5t217 96.5q85 0 139 -29t104 -82q12 -13 32 -36.5t30 -34t25.5 -23t32 -17.5t36.5 -5
q56 0 81 47.5t27 142.5h193v-39z" />
    <glyph glyph-name="exclamdown" unicode="&#xa1;" horiz-adv-x="737" 
d="M489 1065q0 -68 -46 -115t-115 -47t-115.5 47t-46.5 115q0 69 46.5 116.5t115.5 47.5t115 -47.5t46 -116.5zM471 -330h-287l31 1110h225z" />
    <glyph glyph-name="cent" unicode="&#xa2;" 
d="M1016 268q-130 -62 -252 -78v-190h-199v190q-199 24 -309.5 157t-110.5 362q0 224 115 362.5t305 167.5v191h199v-181q130 -15 237 -65l-63 -199q-114 57 -229 57q-133 0 -213 -83t-80 -234q0 -160 76.5 -245t214.5 -85q130 0 254 66z" />
    <glyph glyph-name="sterling" unicode="&#xa3;" 
d="M1030 0h-913v190q103 101 141.5 198t24.5 241h-191v190h150q-25 167 -25 236q0 185 118.5 290t346.5 105q150 0 281 -27v-202q-130 26 -252 26q-124 0 -177 -46.5t-53 -141.5q0 -78 29 -240h373v-190h-338q21 -264 -133 -412h618v-217z" />
    <glyph glyph-name="currency" unicode="&#xa4;" 
d="M1055 109l-207 -107l-131 227q-62 -32 -166 -32q-101 0 -150 24l-125 -219l-204 104l147 218q-98 112 -98 303q0 195 100 313l-151 219l206 107l123 -213q59 32 172 32q111 0 158 -30l121 209l207 -103l-146 -215q88 -112 88 -299q0 -186 -102 -309zM764 633
q0 122 -50.5 194t-154.5 72q-97 0 -149 -70t-52 -180q0 -264 209 -264q96 0 146.5 69t50.5 179z" />
    <glyph glyph-name="yen" unicode="&#xa5;" 
d="M1085 1430q-153 -356 -387 -695v-39h297v-161h-297v-177h297v-161h-297v-197h-266v197h-295v161h295v177h-295v161h295v39q-232 350 -393 695h274q106 -240 265 -488q130 200 241 488h266z" />
    <glyph glyph-name="brokenbar" unicode="&#xa6;" 
d="M686 811h-248v784h248v-784zM686 -418h-248v791h248v-791z" />
    <glyph glyph-name="section" unicode="&#xa7;" horiz-adv-x="1198" 
d="M1063 315q0 -124 -56 -274t-143 -244q-82 -101 -181.5 -150.5t-236.5 -49.5q-84 0 -163 12l10 213q84 -19 180 -19q168 0 168 131q0 45 -28 92t-73 91t-99.5 93t-109 107.5t-99.5 124t-73 153.5t-28 185q0 123 58.5 273t144.5 250q165 196 393 196q79 0 168 -14l-10 -201
q-88 16 -166 16q-91 0 -130.5 -36t-39.5 -109q0 -42 28.5 -85.5t73.5 -85.5t100 -89t110 -105.5t100 -125t73.5 -157t28.5 -192.5zM842 268q0 75 -23 141t-60 115.5t-83 95t-94 89t-89.5 87.5t-73 100.5t-42.5 119.5q-27 -98 -27 -180q0 -73 22.5 -137.5t59 -113t81 -94
t92 -89.5t88.5 -89.5t73 -104.5t43 -124q33 101 33 184z" />
    <glyph glyph-name="dieresis" unicode="&#xa8;" horiz-adv-x="843" 
d="M692 1382q0 -60 -36.5 -97.5t-96.5 -37.5q-61 0 -98 37.5t-37 97.5q0 59 37 96.5t98 37.5q60 0 96.5 -37.5t36.5 -96.5zM268 1382q0 -60 -37 -97.5t-98 -37.5q-60 0 -96.5 37.5t-36.5 97.5q0 59 36.5 96.5t96.5 37.5q61 0 98 -37.5t37 -96.5z" />
    <glyph glyph-name="copyright" unicode="&#xa9;" horiz-adv-x="1595" 
d="M1507 702q0 -146 -55.5 -278t-150.5 -228.5t-227 -153t-279 -56.5q-199 0 -363 94.5t-257 257.5t-93 358t94.5 359t259 260t361.5 96t360.5 -94.5t256.5 -257t93 -357.5zM1323 696q0 148 -69.5 272t-191 196.5t-267.5 72.5q-147 0 -268.5 -70.5t-191 -193.5t-69.5 -271
t70 -272.5t192 -197t269 -72.5t268 71t189.5 193.5t68.5 271.5zM1026 367q-104 -43 -221 -43q-167 0 -257.5 91t-90.5 269q0 188 102 287.5t272 99.5q95 0 187 -37l-47 -164q-67 25 -125 25q-81 0 -122.5 -51.5t-41.5 -145.5q0 -196 166 -196q62 0 141 28z" />
    <glyph glyph-name="ordfeminine" unicode="&#xaa;" horiz-adv-x="935" 
d="M786 688h-161l-21 90q-92 -110 -239 -110q-121 0 -191 57.5t-70 171.5q0 130 98 188t294 58h75v37q0 61 -34.5 89.5t-114.5 28.5q-122 0 -223 -43l-31 148q132 49 283 49q168 0 251.5 -62.5t83.5 -207.5v-494zM788 362h-657v183h657v-183zM571 903v107h-82
q-93 0 -131.5 -23t-38.5 -76q0 -42 27 -69t72 -27q82 0 153 88z" />
    <glyph glyph-name="guillemotleft" unicode="&#xab;" horiz-adv-x="1208" 
d="M1014 186l-187 -71l-288 458l288 459l187 -71l-213 -388zM575 158l-188 -70l-297 485l297 486l188 -70l-219 -416z" />
    <glyph glyph-name="logicalnot" unicode="&#xac;" 
d="M1030 279h-215v266h-749v205h964v-471z" />
    <glyph glyph-name="registered" unicode="&#xae;" horiz-adv-x="1167" 
d="M1059 1092q0 -129 -63 -240t-173.5 -176.5t-240.5 -65.5q-99 0 -188 37.5t-152.5 101.5t-100.5 153t-37 188q0 130 63 240t173.5 174.5t243.5 64.5q202 0 338.5 -137.5t136.5 -339.5zM915 1085q0 149 -97 249t-236 100q-145 0 -239.5 -99.5t-94.5 -240.5
q0 -148 99 -248.5t237 -100.5q145 0 238 99t93 241zM782 1198q0 -101 -80 -137l95 -207h-152l-70 174h-40v-174h-132v479h199q80 0 130 -34t50 -101zM647 1188q0 51 -69 51h-43v-113h36q76 0 76 62z" />
    <glyph glyph-name="macron" unicode="&#xaf;" horiz-adv-x="626" 
d="M586 1290h-586v174h586v-174z" />
    <glyph glyph-name="macron" unicode="&#x2c9;" horiz-adv-x="626" 
d="M586 1290h-586v174h586v-174z" />
    <glyph glyph-name="degree" unicode="&#xb0;" horiz-adv-x="772" 
d="M686 1245q0 -122 -86 -204.5t-217 -82.5q-134 0 -215.5 77.5t-81.5 201.5q0 122 87 204.5t218 82.5t213 -78.5t82 -200.5zM504 1239q0 55 -34 92t-85 37q-49 0 -83 -36t-34 -89q0 -56 34.5 -92.5t86.5 -36.5q47 0 81 36.5t34 88.5z" />
    <glyph glyph-name="plusminus" unicode="&#xb1;" 
d="M1038 727h-368v-405h-213v405h-369v203h369v405h213v-405h368v-203zM1024 0h-922v205h922v-205z" />
    <glyph glyph-name="twosuperior" unicode="&#xb2;" horiz-adv-x="757" 
d="M668 715h-600v155l172 136q80 62 108.5 104.5t28.5 85.5q0 86 -113 86q-84 0 -151 -33l-39 154q117 51 264 51q154 0 225.5 -58t71.5 -159q0 -77 -41.5 -141.5t-155.5 -145.5l-76 -55h306v-180z" />
    <glyph glyph-name="threesuperior" unicode="&#xb3;" horiz-adv-x="757" 
d="M629 922q0 -64 -26.5 -111t-73.5 -72.5t-103.5 -37t-124.5 -11.5q-121 0 -229 23v137q82 -10 174 -10q141 0 141 84q0 51 -38.5 69.5t-115.5 18.5h-81v139h86q137 0 137 88q0 32 -25.5 50t-75.5 18q-92 0 -174 -29l-32 139q118 37 258 37q134 0 207 -50.5t73 -143.5
q0 -129 -137 -166q81 -8 120.5 -56.5t39.5 -115.5z" />
    <glyph glyph-name="acute" unicode="&#xb4;" horiz-adv-x="638" 
d="M438 1466l-305 -280l-133 86l246 311z" />
    <glyph glyph-name="mu" unicode="&#xb5;" horiz-adv-x="1314" 
d="M1262 0q-85 -23 -146 -23q-202 0 -244 146q-82 -79 -155 -114.5t-168 -35.5q-92 0 -135 54v-457h-260v1483h262v-611q0 -125 40.5 -190.5t133.5 -65.5q74 0 128.5 34t129.5 114v719h262v-760q0 -55 18 -80t64 -25h70v-188z" />
    <glyph glyph-name="mu" unicode="&#x3bc;" horiz-adv-x="1314" 
d="M1262 0q-85 -23 -146 -23q-202 0 -244 146q-82 -79 -155 -114.5t-168 -35.5q-92 0 -135 54v-457h-260v1483h262v-611q0 -125 40.5 -190.5t133.5 -65.5q74 0 128.5 34t129.5 114v719h262v-760q0 -55 18 -80t64 -25h70v-188z" />
    <glyph glyph-name="paragraph" unicode="&#xb6;" horiz-adv-x="1271" 
d="M1110 -231h-205v1468h-194v-1468h-205v796q-202 -13 -333.5 110.5t-131.5 319.5q0 186 125.5 310.5t320.5 124.5h623v-1661z" />
    <glyph glyph-name="periodcentered" unicode="&#xb7;" horiz-adv-x="579" 
d="M457 637q0 -71 -48 -119.5t-118 -48.5q-72 0 -120 48.5t-48 119.5t48 119.5t120 48.5q70 0 118 -48.5t48 -119.5z" />
    <glyph glyph-name="periodcentered" unicode="&#x2219;" horiz-adv-x="579" 
d="M457 637q0 -71 -48 -119.5t-118 -48.5q-72 0 -120 48.5t-48 119.5t48 119.5t120 48.5q70 0 118 -48.5t48 -119.5z" />
    <glyph glyph-name="cedilla" unicode="&#xb8;" horiz-adv-x="634" 
d="M539 -227q0 -73 -60.5 -111.5t-173.5 -38.5q-121 0 -217 35v147h184q50 0 50 19q0 14 -11 43l-61 133h194l45 -86q50 -85 50 -141z" />
    <glyph glyph-name="onesuperior" unicode="&#xb9;" horiz-adv-x="757" 
d="M461 715h-230v514l-151 -66l-39 154l246 117h174v-719z" />
    <glyph glyph-name="ordmasculine" unicode="&#xba;" horiz-adv-x="978" 
d="M881 1069q0 -181 -107.5 -291t-296.5 -110q-193 0 -292 102t-99 277q0 189 104.5 298t298.5 109q191 0 291.5 -103t100.5 -282zM829 362h-675v183h675v-183zM657 1053q0 112 -44 175.5t-132 63.5q-86 0 -129 -61.5t-43 -163.5q0 -236 178 -236q82 0 126 63t44 159z" />
    <glyph glyph-name="guillemotright" unicode="&#xbb;" horiz-adv-x="1208" 
d="M1118 573l-297 -485l-188 70l219 415l-219 416l188 70zM670 573l-289 -458l-186 71l213 387l-213 388l186 71z" />
    <glyph glyph-name="onequarter" unicode="&#xbc;" horiz-adv-x="1527" 
d="M434 715h-227v514l-154 -66l-37 154l244 117h174v-719zM1307 1386l-1047 -1441l-149 100l1046 1444zM1489 125h-113v-125h-205v125h-380v154l282 436h303v-434h113v-156zM1171 281v303h-2l-196 -303h198z" />
    <glyph glyph-name="onehalf" unicode="&#xbd;" horiz-adv-x="1601" 
d="M461 715h-230v514l-151 -66l-39 154l246 117h174v-719zM1307 1386l-1047 -1441l-149 100l1046 1444zM1532 0h-600v156l172 135q80 62 108.5 104.5t28.5 85.5q0 86 -113 86q-86 0 -151 -32l-39 153q117 51 264 51q154 0 225.5 -58t71.5 -159q0 -77 -41 -141.5t-155 -144.5
l-76 -56h305v-180z" />
    <glyph glyph-name="threequarters" unicode="&#xbe;" horiz-adv-x="1644" 
d="M629 922q0 -64 -26.5 -111t-73.5 -72.5t-103.5 -37t-124.5 -11.5q-121 0 -229 23v137q82 -10 174 -10q141 0 141 84q0 51 -38.5 69.5t-115.5 18.5h-81v139h86q137 0 137 88q0 32 -25.5 50t-75.5 18q-92 0 -174 -29l-32 139q118 37 258 37q134 0 207 -50.5t73 -143.5
q0 -129 -137 -166q81 -8 120.5 -56.5t39.5 -115.5zM1423 1386l-1048 -1441l-148 100l1047 1444zM1606 125h-115v-125h-203v125h-381v154l283 436h301v-434h115v-156zM1288 281v303h-2l-196 -303h198z" />
    <glyph glyph-name="questiondown" unicode="&#xbf;" horiz-adv-x="960" 
d="M705 1065q0 -68 -47.5 -115t-116.5 -47t-115.5 47t-46.5 115q0 69 46.5 116.5t115.5 47.5t116.5 -47.5t47.5 -116.5zM831 -319q-125 -33 -264 -33q-244 0 -358.5 96t-114.5 270q0 70 20.5 131.5t52 108.5t70 91.5t75 89.5t65.5 93.5t43.5 113t7.5 138.5h231
q13 -92 5 -158.5t-33 -124.5t-57 -99.5t-67.5 -84.5t-65 -79t-49 -82t-19.5 -95q0 -96 55 -146t180 -50q113 0 223 14v-194z" />
    <glyph glyph-name="Agrave" unicode="&#xc0;" horiz-adv-x="1398" 
d="M1362 0h-311q-16 52 -48.5 165.5t-48.5 168.5h-544q-65 -211 -99 -334h-274q210 701 493 1430h328q286 -721 504 -1430zM893 545q-71 221 -211 616l-2 -2q-126 -351 -211 -614h424zM811 1653l-72 -131l-409 139l94 176z" />
    <glyph glyph-name="Aacute" unicode="&#xc1;" horiz-adv-x="1398" 
d="M1362 0h-311q-16 52 -48.5 165.5t-48.5 168.5h-544q-65 -211 -99 -334h-274q210 701 493 1430h328q286 -721 504 -1430zM893 545q-71 221 -211 616l-2 -2q-126 -351 -211 -614h424zM1024 1661l-408 -139l-73 131l387 184z" />
    <glyph glyph-name="Acircumflex" unicode="&#xc2;" horiz-adv-x="1398" 
d="M1362 0h-311q-16 52 -48.5 165.5t-48.5 168.5h-544q-65 -211 -99 -334h-274q210 701 493 1430h328q286 -721 504 -1430zM893 545q-71 221 -211 616l-2 -2q-126 -351 -211 -614h424zM1004 1653l-68 -127l-248 116l-244 -116l-65 125l311 180z" />
    <glyph glyph-name="Atilde" unicode="&#xc3;" horiz-adv-x="1398" 
d="M1362 0h-311q-16 52 -48.5 165.5t-48.5 168.5h-544q-65 -211 -99 -334h-274q210 701 493 1430h328q286 -721 504 -1430zM893 545q-71 221 -211 616l-2 -2q-126 -351 -211 -614h424zM1067 1724q-31 -89 -96.5 -137.5t-153.5 -48.5q-49 0 -91.5 13t-66.5 29t-56.5 29
t-65.5 13q-72 0 -117 -96l-125 76q31 90 96 139t152 49q50 0 92 -13t66.5 -29t57 -29t64.5 -13q73 0 119 94z" />
    <glyph glyph-name="Adieresis" unicode="&#xc4;" horiz-adv-x="1398" 
d="M1362 0h-311q-16 52 -48.5 165.5t-48.5 168.5h-544q-65 -211 -99 -334h-274q210 701 493 1430h328q286 -721 504 -1430zM893 545q-71 221 -211 616l-2 -2q-126 -351 -211 -614h424zM1042 1657q0 -56 -36 -91.5t-93 -35.5q-55 0 -91 36t-36 91q0 57 35.5 93t91.5 36
q57 0 93 -36t36 -93zM594 1657q0 -56 -36 -91.5t-93 -35.5q-55 0 -91 36t-36 91q0 57 35.5 93t91.5 36q57 0 93 -36t36 -93z" />
    <glyph glyph-name="Aring" unicode="&#xc5;" horiz-adv-x="1398" 
d="M944 1554q0 -102 -74 -157q276 -693 492 -1397h-311q-16 52 -48.5 165.5t-48.5 168.5h-544q-65 -211 -99 -334h-274q213 712 479 1395q-63 48 -63 147q0 104 64.5 163.5t184.5 59.5q117 0 179.5 -55.5t62.5 -155.5zM893 545q-71 221 -211 616l-2 -2q-126 -351 -211 -614
h424zM791 1546q0 109 -95 109q-45 0 -68.5 -28.5t-23.5 -74.5q0 -111 96 -108q44 -1 67.5 26.5t23.5 75.5z" />
    <glyph glyph-name="AE" unicode="&#xc6;" horiz-adv-x="1800" 
d="M1681 0h-839v305h-463q-71 -157 -135 -305h-269q303 680 711 1430h977v-218h-549v-366h483v-213h-483v-416h567v-217zM842 516v703h-11q-230 -443 -360 -703h371z" />
    <glyph glyph-name="Ccedilla" unicode="&#xc7;" horiz-adv-x="1198" 
d="M934 -227q0 -73 -60.5 -111.5t-173.5 -38.5q-117 0 -217 35v147h185q51 0 51 19t-12 43l-56 119q-264 31 -410.5 213t-146.5 495q0 356 185.5 558t494.5 202q205 0 375 -80l-82 -213q-136 62 -287 62q-182 0 -287.5 -140.5t-105.5 -367.5q0 -252 113 -379t311 -127
q141 0 276 61l68 -211q-128 -62 -303 -79l35 -66q47 -84 47 -141z" />
    <glyph glyph-name="Egrave" unicode="&#xc8;" horiz-adv-x="1120" 
d="M1001 0h-839v1430h831v-218h-559v-366h484v-213h-484v-416h567v-217zM715 1653l-72 -131l-410 139l95 176z" />
    <glyph glyph-name="Eacute" unicode="&#xc9;" horiz-adv-x="1120" 
d="M1001 0h-839v1430h831v-218h-559v-366h484v-213h-484v-416h567v-217zM870 1661l-407 -139l-74 131l387 184z" />
    <glyph glyph-name="Ecircumflex" unicode="&#xca;" horiz-adv-x="1120" 
d="M1001 0h-839v1430h831v-218h-559v-366h484v-213h-484v-416h567v-217zM883 1653l-68 -127l-248 116l-243 -116l-66 125l311 180z" />
    <glyph glyph-name="Edieresis" unicode="&#xcb;" horiz-adv-x="1120" 
d="M1001 0h-839v1430h831v-218h-559v-366h484v-213h-484v-416h567v-217zM930 1657q0 -56 -36 -91.5t-93 -35.5q-55 0 -91 36t-36 91q0 57 35.5 93t91.5 36q57 0 93 -36t36 -93zM481 1657q0 -56 -36 -91.5t-93 -35.5q-56 0 -91.5 36t-35.5 91q0 57 35.5 93t91.5 36
q57 0 93 -36t36 -93z" />
    <glyph glyph-name="Igrave" unicode="&#xcc;" horiz-adv-x="598" 
d="M436 0h-274v1430h274v-1430zM481 1653l-71 -131l-410 139l94 176z" />
    <glyph glyph-name="Iacute" unicode="&#xcd;" horiz-adv-x="598" 
d="M436 0h-274v1430h274v-1430zM584 1661l-408 -139l-74 131l387 184z" />
    <glyph glyph-name="Icircumflex" unicode="&#xce;" horiz-adv-x="598" 
d="M436 0h-274v1430h274v-1430zM612 1653l-67 -127l-248 116l-244 -116l-65 125l311 180z" />
    <glyph glyph-name="Idieresis" unicode="&#xcf;" horiz-adv-x="598" 
d="M436 0h-274v1430h274v-1430zM627 1657q0 -56 -36 -91.5t-93 -35.5q-56 0 -91.5 36t-35.5 91q0 57 35.5 93t91.5 36q57 0 93 -36t36 -93zM227 1657q0 -56 -36 -91.5t-93 -35.5q-56 0 -91.5 36t-35.5 91q0 57 35.5 93t91.5 36q57 0 93 -36t36 -93z" />
    <glyph glyph-name="Eth" unicode="&#xd0;" horiz-adv-x="1468" 
d="M1380 735q0 -364 -195 -549.5t-546 -185.5h-457v612h-157v207h157v611h486q343 0 527.5 -179t184.5 -516zM1094 721q0 109 -25.5 196.5t-77.5 154.5t-139 103.5t-203 36.5h-194v-393h264v-207h-264v-393h192q447 0 447 502z" />
    <glyph glyph-name="Ntilde" unicode="&#xd1;" horiz-adv-x="1480" 
d="M1319 0h-350l-559 1061h-4v-1061h-244v1430h362l547 -1039h4v1039h244v-1430zM1124 1724q-31 -89 -96.5 -137.5t-153.5 -48.5q-49 0 -91.5 13t-66.5 29t-56.5 29t-65.5 13q-72 0 -117 -96l-125 76q31 90 96 139t152 49q50 0 92 -13t67 -29t57.5 -29t64.5 -13q72 0 118 94
z" />
    <glyph glyph-name="Ograve" unicode="&#xd2;" horiz-adv-x="1576" 
d="M1483 729q0 -356 -180.5 -557t-522.5 -201q-340 0 -513 185.5t-173 550.5q0 228 80 396.5t239 261.5t382 93q332 0 510 -188.5t178 -540.5zM1192 705q0 120 -21.5 213t-68.5 165t-128.5 110t-195.5 38q-86 0 -154 -26.5t-112 -72t-73 -110t-41.5 -136.5t-12.5 -155
q0 -126 21.5 -220.5t68.5 -166t128.5 -108.5t195.5 -37q87 0 155 26.5t112 72.5t73 111t41 138t12 158zM918 1653l-72 -131l-410 139l94 176z" />
    <glyph glyph-name="Oacute" unicode="&#xd3;" horiz-adv-x="1576" 
d="M1483 729q0 -356 -180.5 -557t-522.5 -201q-340 0 -513 185.5t-173 550.5q0 228 80 396.5t239 261.5t382 93q332 0 510 -188.5t178 -540.5zM1192 705q0 120 -21.5 213t-68.5 165t-128.5 110t-195.5 38q-86 0 -154 -26.5t-112 -72t-73 -110t-41.5 -136.5t-12.5 -155
q0 -126 21.5 -220.5t68.5 -166t128.5 -108.5t195.5 -37q87 0 155 26.5t112 72.5t73 111t41 138t12 158zM1145 1661l-408 -139l-73 131l387 184z" />
    <glyph glyph-name="Ocircumflex" unicode="&#xd4;" horiz-adv-x="1576" 
d="M1483 729q0 -356 -180.5 -557t-522.5 -201q-340 0 -513 185.5t-173 550.5q0 228 80 396.5t239 261.5t382 93q332 0 510 -188.5t178 -540.5zM1192 705q0 120 -21.5 213t-68.5 165t-128.5 110t-195.5 38q-86 0 -154 -26.5t-112 -72t-73 -110t-41.5 -136.5t-12.5 -155
q0 -126 21.5 -220.5t68.5 -166t128.5 -108.5t195.5 -37q87 0 155 26.5t112 72.5t73 111t41 138t12 158zM1102 1653l-68 -127l-248 116l-243 -116l-66 125l311 180z" />
    <glyph glyph-name="Otilde" unicode="&#xd5;" horiz-adv-x="1576" 
d="M1483 729q0 -356 -180.5 -557t-522.5 -201q-340 0 -513 185.5t-173 550.5q0 228 80 396.5t239 261.5t382 93q332 0 510 -188.5t178 -540.5zM1192 705q0 120 -21.5 213t-68.5 165t-128.5 110t-195.5 38q-86 0 -154 -26.5t-112 -72t-73 -110t-41.5 -136.5t-12.5 -155
q0 -126 21.5 -220.5t68.5 -166t128.5 -108.5t195.5 -37q87 0 155 26.5t112 72.5t73 111t41 138t12 158zM1165 1724q-31 -89 -96.5 -137.5t-153.5 -48.5q-49 0 -91.5 13t-66.5 29t-56.5 29t-65.5 13q-72 0 -117 -96l-125 76q31 90 96 139t152 49q50 0 92 -13t67 -29t57.5 -29
t64.5 -13q72 0 118 94z" />
    <glyph glyph-name="Odieresis" unicode="&#xd6;" horiz-adv-x="1576" 
d="M1483 729q0 -356 -180.5 -557t-522.5 -201q-340 0 -513 185.5t-173 550.5q0 228 80 396.5t239 261.5t382 93q332 0 510 -188.5t178 -540.5zM1192 705q0 120 -21.5 213t-68.5 165t-128.5 110t-195.5 38q-86 0 -154 -26.5t-112 -72t-73 -110t-41.5 -136.5t-12.5 -155
q0 -126 21.5 -220.5t68.5 -166t128.5 -108.5t195.5 -37q87 0 155 26.5t112 72.5t73 111t41 138t12 158zM1139 1657q0 -56 -36 -91.5t-93 -35.5q-56 0 -91.5 36t-35.5 91q0 57 35.5 93t91.5 36q57 0 93 -36t36 -93zM690 1657q0 -56 -36 -91.5t-93 -35.5q-55 0 -91 36t-36 91
q0 57 35.5 93t91.5 36q57 0 93 -36t36 -93z" />
    <glyph glyph-name="multiply" unicode="&#xd7;" 
d="M1042 301l-141 -141l-336 338l-336 -338l-143 141l338 336l-336 336l141 141l336 -336l336 336l141 -139l-337 -338z" />
    <glyph glyph-name="Oslash" unicode="&#xd8;" horiz-adv-x="1576" 
d="M1483 729q0 -356 -181 -557t-524 -201q-133 0 -252 39l-129 -248l-166 80l125 238q-262 176 -262 622q0 227 80.5 396t240 264.5t380.5 95.5q144 0 270 -49l113 217l165 -80l-112 -213q252 -183 252 -604zM1206 705q0 249 -102 376l-469 -864q73 -29 164 -29
q90 0 160 27.5t116 74t76 113.5t42.5 141t12.5 161zM958 1202q-73 37 -180 37q-86 0 -154.5 -26.5t-115 -73t-77.5 -111.5t-44.5 -139t-13.5 -158q0 -271 112 -399z" />
    <glyph glyph-name="Ugrave" unicode="&#xd9;" horiz-adv-x="1470" 
d="M1311 537q0 -267 -151 -415.5t-429 -148.5q-272 0 -421.5 138.5t-149.5 406.5v912h274v-889q0 -167 82 -255.5t223 -88.5q142 0 222.5 87t80.5 244v902h269v-893zM836 1653l-72 -131l-410 139l95 176z" />
    <glyph glyph-name="Uacute" unicode="&#xda;" horiz-adv-x="1470" 
d="M1311 537q0 -267 -151 -415.5t-429 -148.5q-272 0 -421.5 138.5t-149.5 406.5v912h274v-889q0 -167 82 -255.5t223 -88.5q142 0 222.5 87t80.5 244v902h269v-893zM1139 1661l-408 -139l-74 131l387 184z" />
    <glyph glyph-name="Ucircumflex" unicode="&#xdb;" horiz-adv-x="1470" 
d="M1311 537q0 -267 -151 -415.5t-429 -148.5q-272 0 -421.5 138.5t-149.5 406.5v912h274v-889q0 -167 82 -255.5t223 -88.5q142 0 222.5 87t80.5 244v902h269v-893zM1059 1653l-68 -127l-248 116l-243 -116l-66 125l311 180z" />
    <glyph glyph-name="Udieresis" unicode="&#xdc;" horiz-adv-x="1470" 
d="M1311 537q0 -267 -151 -415.5t-429 -148.5q-272 0 -421.5 138.5t-149.5 406.5v912h274v-889q0 -167 82 -255.5t223 -88.5q142 0 222.5 87t80.5 244v902h269v-893zM1090 1657q0 -56 -36 -91.5t-93 -35.5q-55 0 -91 36t-36 91q0 57 35.5 93t91.5 36q57 0 93 -36t36 -93z
M641 1657q0 -56 -36 -91.5t-93 -35.5q-56 0 -91.5 36t-35.5 91q0 57 35.5 93t91.5 36q57 0 93 -36t36 -93z" />
    <glyph glyph-name="Yacute" unicode="&#xdd;" horiz-adv-x="1224" 
d="M1212 1430q-199 -480 -458 -855v-575h-275v575q-260 386 -467 855h316q124 -326 303 -615q170 282 280 615h301zM1016 1661l-408 -139l-73 131l387 184z" />
    <glyph glyph-name="Thorn" unicode="&#xde;" horiz-adv-x="1198" 
d="M1124 764q0 -236 -141 -364t-399 -128h-148v-272h-274v1430h274v-232h139q124 0 203 -16q164 -33 255 -140.5t91 -277.5zM836 743q0 89 -39 148.5t-113 81.5q-42 12 -115 12h-133v-498h162q118 0 178 69t60 187z" />
    <glyph glyph-name="germandbls" unicode="&#xdf;" horiz-adv-x="1249" 
d="M1198 334q0 -157 -109 -258t-298 -101q-128 0 -230 31l31 207q90 -33 174 -33q76 0 117 37.5t41 91.5q0 61 -36 99t-120 90q-108 67 -157.5 135.5t-49.5 173.5q0 64 25 115t60.5 83t71 61t60.5 64t25 76q0 64 -44.5 108t-133.5 44q-118 0 -167.5 -79.5t-49.5 -219.5
v-1059h-263v1036q0 247 127 386t369 139q210 0 321 -95.5t111 -238.5q0 -54 -13.5 -96.5t-35.5 -69.5t-48 -49t-52 -40t-48 -36t-35.5 -43.5t-13.5 -56.5q0 -21 4.5 -38.5t17.5 -34.5t22 -27.5t34.5 -27.5t36.5 -24t45 -27q108 -65 159.5 -139t51.5 -184z" />
    <glyph glyph-name="agrave" unicode="&#xe0;" horiz-adv-x="1132" 
d="M989 0h-198l-21 100q-141 -129 -332 -129q-166 0 -263 83t-97 239q0 342 526 342h127v55q0 102 -48 148.5t-171 46.5q-155 0 -309 -62l-45 191q182 67 391 67q229 0 334.5 -93.5t105.5 -272.5v-715zM731 266v199h-131q-260 0 -260 -158q0 -68 41 -106.5t119 -38.5
q115 0 231 104zM680 1280l-137 -94l-295 278l188 119z" />
    <glyph glyph-name="aacute" unicode="&#xe1;" horiz-adv-x="1132" 
d="M989 0h-198l-21 100q-141 -129 -332 -129q-166 0 -263 83t-97 239q0 342 526 342h127v55q0 102 -48 148.5t-171 46.5q-155 0 -309 -62l-45 191q182 67 391 67q229 0 334.5 -93.5t105.5 -272.5v-715zM731 266v199h-131q-260 0 -260 -158q0 -68 41 -106.5t119 -38.5
q115 0 231 104zM852 1466l-305 -280l-133 86l245 311z" />
    <glyph glyph-name="acircumflex" unicode="&#xe2;" horiz-adv-x="1132" 
d="M989 0h-198l-21 100q-141 -129 -332 -129q-166 0 -263 83t-97 239q0 342 526 342h127v55q0 102 -48 148.5t-171 46.5q-155 0 -309 -62l-45 191q182 67 391 67q229 0 334.5 -93.5t105.5 -272.5v-715zM731 266v199h-131q-260 0 -260 -158q0 -68 41 -106.5t119 -38.5
q115 0 231 104zM887 1305l-99 -117l-223 174l-223 -174l-90 117l315 282z" />
    <glyph glyph-name="atilde" unicode="&#xe3;" horiz-adv-x="1132" 
d="M989 0h-198l-21 100q-141 -129 -332 -129q-166 0 -263 83t-97 239q0 342 526 342h127v55q0 102 -48 148.5t-171 46.5q-155 0 -309 -62l-45 191q182 67 391 67q229 0 334.5 -93.5t105.5 -272.5v-715zM731 266v199h-131q-260 0 -260 -158q0 -68 41 -106.5t119 -38.5
q115 0 231 104zM940 1444q-31 -96 -93.5 -148.5t-146.5 -52.5q-49 0 -90.5 13.5t-65.5 30.5t-56.5 30.5t-65.5 13.5q-70 0 -115 -98l-117 80q31 97 92.5 148.5t147.5 51.5q49 0 90.5 -13.5t65.5 -30.5t56.5 -30.5t64.5 -13.5q70 0 116 101z" />
    <glyph glyph-name="adieresis" unicode="&#xe4;" horiz-adv-x="1132" 
d="M989 0h-198l-21 100q-141 -129 -332 -129q-166 0 -263 83t-97 239q0 342 526 342h127v55q0 102 -48 148.5t-171 46.5q-155 0 -309 -62l-45 191q182 67 391 67q229 0 334.5 -93.5t105.5 -272.5v-715zM731 266v199h-131q-260 0 -260 -158q0 -68 41 -106.5t119 -38.5
q115 0 231 104zM922 1382q0 -60 -37 -97.5t-97 -37.5q-61 0 -98 37.5t-37 97.5q0 59 37 96.5t98 37.5q60 0 97 -37.5t37 -96.5zM498 1382q0 -60 -37.5 -97.5t-98.5 -37.5q-60 0 -96.5 37.5t-36.5 97.5q0 59 36.5 96.5t96.5 37.5q61 0 98.5 -37.5t37.5 -96.5z" />
    <glyph glyph-name="aring" unicode="&#xe5;" horiz-adv-x="1132" 
d="M989 0h-198l-21 100q-141 -129 -332 -129q-166 0 -263 83t-97 239q0 342 526 342h127v55q0 102 -48 148.5t-171 46.5q-155 0 -309 -62l-45 191q182 67 391 67q229 0 334.5 -93.5t105.5 -272.5v-715zM731 266v199h-131q-260 0 -260 -158q0 -68 41 -106.5t119 -38.5
q115 0 231 104zM805 1405q0 -101 -65.5 -161t-182.5 -60q-119 0 -179.5 56t-60.5 153q0 104 64.5 163.5t183.5 59.5q117 0 178.5 -55.5t61.5 -155.5zM653 1397q0 108 -94 108q-44 0 -67 -28t-23 -74q0 -56 22 -82.5t72 -26.5q45 0 67.5 28t22.5 75z" />
    <glyph glyph-name="ae" unicode="&#xe6;" horiz-adv-x="1775" 
d="M1681 592q0 -41 -4 -131h-694q0 -139 67.5 -212t223.5 -73q176 0 348 45l27 -190q-199 -60 -416 -60q-282 0 -406 156q-89 -80 -178.5 -118t-218.5 -38q-165 0 -258.5 82.5t-93.5 239.5q0 350 518 350h127v47q0 103 -45.5 149t-169.5 46q-151 0 -305 -62l-45 191
q182 67 387 67q249 0 346 -135q118 135 340 135q228 0 339 -128t111 -361zM1423 631q5 125 -48.5 194.5t-160.5 69.5q-110 0 -169.5 -77t-61.5 -187h440zM723 279v194h-131q-252 0 -252 -164q0 -68 39.5 -107.5t112.5 -39.5q68 0 121.5 30t109.5 87z" />
    <glyph glyph-name="ccedilla" unicode="&#xe7;" horiz-adv-x="931" 
d="M758 -227q0 -73 -60.5 -111.5t-173.5 -38.5q-117 0 -217 35v147h185q49 0 49 19q0 14 -11 43l-53 117q-198 26 -296.5 161.5t-98.5 360.5q0 271 141.5 420t378.5 149q152 0 270 -55l-57 -195q-93 41 -192 41q-134 0 -200.5 -89.5t-66.5 -248.5q0 -335 271 -335
q109 0 207 43l45 -197q-103 -43 -207 -55l37 -70q49 -84 49 -141z" />
    <glyph glyph-name="egrave" unicode="&#xe8;" horiz-adv-x="1146" 
d="M1055 592q0 -41 -4 -123h-697q0 -145 68 -219t225 -74q177 0 346 45l27 -190q-199 -60 -414 -60q-265 0 -393.5 134t-128.5 411q0 264 135 414.5t383 150.5q229 0 341 -128t112 -361zM795 639q5 120 -48 188t-159 68q-111 0 -171 -75.5t-63 -180.5h441zM721 1280
l-137 -94l-295 278l188 119z" />
    <glyph glyph-name="eacute" unicode="&#xe9;" horiz-adv-x="1146" 
d="M1055 592q0 -41 -4 -123h-697q0 -145 68 -219t225 -74q177 0 346 45l27 -190q-199 -60 -414 -60q-265 0 -393.5 134t-128.5 411q0 264 135 414.5t383 150.5q229 0 341 -128t112 -361zM795 639q5 120 -48 188t-159 68q-111 0 -171 -75.5t-63 -180.5h441zM895 1466
l-305 -280l-133 86l245 311z" />
    <glyph glyph-name="ecircumflex" unicode="&#xea;" horiz-adv-x="1146" 
d="M1055 592q0 -41 -4 -123h-697q0 -145 68 -219t225 -74q177 0 346 45l27 -190q-199 -60 -414 -60q-265 0 -393.5 134t-128.5 411q0 264 135 414.5t383 150.5q229 0 341 -128t112 -361zM795 639q5 120 -48 188t-159 68q-111 0 -171 -75.5t-63 -180.5h441zM907 1305
l-98 -117l-223 174l-224 -174l-90 117l316 282z" />
    <glyph glyph-name="edieresis" unicode="&#xeb;" horiz-adv-x="1146" 
d="M1055 592q0 -41 -4 -123h-697q0 -145 68 -219t225 -74q177 0 346 45l27 -190q-199 -60 -414 -60q-265 0 -393.5 134t-128.5 411q0 264 135 414.5t383 150.5q229 0 341 -128t112 -361zM795 639q5 120 -48 188t-159 68q-111 0 -171 -75.5t-63 -180.5h441zM936 1382
q0 -60 -36.5 -97.5t-96.5 -37.5q-61 0 -98 37.5t-37 97.5q0 59 37 96.5t98 37.5q60 0 96.5 -37.5t36.5 -96.5zM512 1382q0 -60 -37 -97.5t-98 -37.5q-60 0 -96.5 37.5t-36.5 97.5q0 59 36.5 96.5t96.5 37.5q61 0 98 -37.5t37 -96.5z" />
    <glyph glyph-name="igrave" unicode="&#xec;" horiz-adv-x="606" 
d="M461 0h-262v854h-166v199h428v-1053zM432 1280l-137 -94l-295 278l188 119z" />
    <glyph glyph-name="iacute" unicode="&#xed;" horiz-adv-x="606" 
d="M461 0h-262v854h-166v199h428v-1053zM559 1466l-305 -280l-133 86l246 311z" />
    <glyph glyph-name="icircumflex" unicode="&#xee;" horiz-adv-x="606" 
d="M461 0h-262v854h-166v199h428v-1053zM635 1305l-98 -117l-224 174l-223 -174l-90 117l315 282z" />
    <glyph glyph-name="idieresis" unicode="&#xef;" horiz-adv-x="606" 
d="M461 0h-262v854h-166v199h428v-1053zM645 1382q0 -60 -37.5 -97.5t-97.5 -37.5t-97.5 37.5t-37.5 97.5q0 59 37.5 96.5t97.5 37.5t97.5 -37.5t37.5 -96.5zM244 1382q0 -61 -36 -98t-97 -37t-98.5 37.5t-37.5 97.5q0 59 37.5 96.5t98.5 37.5t97 -37.5t36 -96.5z" />
    <glyph glyph-name="eth" unicode="&#xf0;" horiz-adv-x="1249" 
d="M1139 567q0 -276 -146 -436t-399 -160q-129 0 -227 40t-158.5 113.5t-90.5 171.5t-30 218q0 247 139 397t365 150q81 0 139 -31q-58 110 -121 189l-198 -70l-88 139l182 64q-50 60 -137 137l268 76q66 -58 129 -133l238 77l88 -137l-220 -76q267 -371 267 -729zM872 537
q0 127 -43 260q-99 55 -219 55q-122 0 -186 -89.5t-64 -223.5q0 -175 65 -268t189 -93q121 0 189.5 90.5t68.5 268.5z" />
    <glyph glyph-name="ntilde" unicode="&#xf1;" horiz-adv-x="1239" 
d="M1100 0h-262v610q0 125 -39.5 190.5t-132.5 65.5q-76 0 -130.5 -33.5t-129.5 -113.5v-719h-263v1053h201l25 -133q87 87 166.5 124t189.5 37q192 0 283.5 -110.5t91.5 -306.5v-664zM995 1444q-31 -96 -93 -148.5t-146 -52.5q-49 0 -90.5 13.5t-66 30.5t-57 30.5
t-65.5 13.5q-70 0 -115 -98l-116 80q31 97 92 148.5t147 51.5q49 0 90.5 -13.5t65.5 -30.5t56.5 -30.5t64.5 -13.5q71 0 117 101z" />
    <glyph glyph-name="ograve" unicode="&#xf2;" horiz-adv-x="1251" 
d="M1169 539q0 -254 -148 -411t-407 -157q-135 0 -237.5 39t-166.5 111t-96 169t-32 218q0 264 145.5 418.5t409.5 154.5q257 0 394.5 -144.5t137.5 -397.5zM895 514q0 171 -66 265.5t-206 94.5q-132 0 -199.5 -92.5t-67.5 -246.5q0 -177 65.5 -266t211.5 -89
q129 0 195.5 92.5t66.5 241.5zM766 1280l-137 -94l-295 278l188 119z" />
    <glyph glyph-name="oacute" unicode="&#xf3;" horiz-adv-x="1251" 
d="M1169 539q0 -254 -148 -411t-407 -157q-135 0 -237.5 39t-166.5 111t-96 169t-32 218q0 264 145.5 418.5t409.5 154.5q257 0 394.5 -144.5t137.5 -397.5zM895 514q0 171 -66 265.5t-206 94.5q-132 0 -199.5 -92.5t-67.5 -246.5q0 -177 65.5 -266t211.5 -89
q129 0 195.5 92.5t66.5 241.5zM922 1466l-306 -280l-133 86l246 311z" />
    <glyph glyph-name="ocircumflex" unicode="&#xf4;" horiz-adv-x="1251" 
d="M1169 539q0 -254 -148 -411t-407 -157q-135 0 -237.5 39t-166.5 111t-96 169t-32 218q0 264 145.5 418.5t409.5 154.5q257 0 394.5 -144.5t137.5 -397.5zM895 514q0 171 -66 265.5t-206 94.5q-132 0 -199.5 -92.5t-67.5 -246.5q0 -177 65.5 -266t211.5 -89
q129 0 195.5 92.5t66.5 241.5zM944 1305l-98 -117l-223 174l-224 -174l-90 117l316 282z" />
    <glyph glyph-name="otilde" unicode="&#xf5;" horiz-adv-x="1251" 
d="M1169 539q0 -254 -148 -411t-407 -157q-135 0 -237.5 39t-166.5 111t-96 169t-32 218q0 264 145.5 418.5t409.5 154.5q257 0 394.5 -144.5t137.5 -397.5zM895 514q0 171 -66 265.5t-206 94.5q-132 0 -199.5 -92.5t-67.5 -246.5q0 -177 65.5 -266t211.5 -89
q129 0 195.5 92.5t66.5 241.5zM1004 1444q-31 -96 -93.5 -148.5t-146.5 -52.5q-49 0 -90.5 13.5t-66 30.5t-57 30.5t-65.5 13.5q-69 0 -114 -98l-117 80q31 97 92.5 148.5t147.5 51.5q62 0 110 -22t87 -44t79 -22q71 0 117 101z" />
    <glyph glyph-name="odieresis" unicode="&#xf6;" horiz-adv-x="1251" 
d="M1169 539q0 -254 -148 -411t-407 -157q-135 0 -237.5 39t-166.5 111t-96 169t-32 218q0 264 145.5 418.5t409.5 154.5q257 0 394.5 -144.5t137.5 -397.5zM895 514q0 171 -66 265.5t-206 94.5q-132 0 -199.5 -92.5t-67.5 -246.5q0 -177 65.5 -266t211.5 -89
q129 0 195.5 92.5t66.5 241.5zM975 1382q0 -60 -36.5 -97.5t-96.5 -37.5q-61 0 -98 37.5t-37 97.5q0 59 37 96.5t98 37.5q60 0 96.5 -37.5t36.5 -96.5zM551 1382q0 -60 -37 -97.5t-98 -37.5q-60 0 -96.5 37.5t-36.5 97.5q0 59 36.5 96.5t96.5 37.5q61 0 98 -37.5t37 -96.5z
" />
    <glyph glyph-name="divide" unicode="&#xf7;" 
d="M721 1055q0 -69 -47 -116.5t-117 -47.5q-69 0 -116.5 47.5t-47.5 116.5t47.5 116.5t116.5 47.5t116.5 -47.5t47.5 -116.5zM1057 532h-1000v205h1000v-205zM721 217q0 -69 -47.5 -116.5t-116.5 -47.5t-116.5 47.5t-47.5 116.5t47.5 116.5t116.5 47.5q70 0 117 -47.5
t47 -116.5z" />
    <glyph glyph-name="oslash" unicode="&#xf8;" horiz-adv-x="1251" 
d="M1169 539q0 -254 -148 -411t-407 -157q-91 0 -184 27l-121 -219l-149 63l121 219q-199 136 -199 449q0 264 145 417.5t410 153.5q103 0 188 -30l121 221l150 -64l-123 -221q196 -140 196 -448zM913 514q0 159 -65 244l-322 -576q44 -18 109 -18q138 0 208 96.5t70 253.5z
M729 866q-45 25 -106 25q-142 0 -213.5 -96.5t-71.5 -257.5q0 -166 68 -246z" />
    <glyph glyph-name="ugrave" unicode="&#xf9;" horiz-adv-x="1239" 
d="M1094 0h-199l-25 133q-87 -87 -167.5 -124.5t-190.5 -37.5q-192 0 -282.5 110.5t-90.5 307.5v664h262v-611q0 -125 39.5 -190.5t132.5 -65.5q74 0 128.5 34t129.5 114v719h263v-1053zM743 1280l-137 -94l-295 278l189 119z" />
    <glyph glyph-name="uacute" unicode="&#xfa;" horiz-adv-x="1239" 
d="M1094 0h-199l-25 133q-87 -87 -167.5 -124.5t-190.5 -37.5q-192 0 -282.5 110.5t-90.5 307.5v664h262v-611q0 -125 39.5 -190.5t132.5 -65.5q74 0 128.5 34t129.5 114v719h263v-1053zM922 1466l-306 -280l-133 86l246 311z" />
    <glyph glyph-name="ucircumflex" unicode="&#xfb;" horiz-adv-x="1239" 
d="M1094 0h-199l-25 133q-87 -87 -167.5 -124.5t-190.5 -37.5q-192 0 -282.5 110.5t-90.5 307.5v664h262v-611q0 -125 39.5 -190.5t132.5 -65.5q74 0 128.5 34t129.5 114v719h263v-1053zM928 1305l-99 -117l-223 174l-223 -174l-90 117l315 282z" />
    <glyph glyph-name="udieresis" unicode="&#xfc;" horiz-adv-x="1239" 
d="M1094 0h-199l-25 133q-87 -87 -167.5 -124.5t-190.5 -37.5q-192 0 -282.5 110.5t-90.5 307.5v664h262v-611q0 -125 39.5 -190.5t132.5 -65.5q74 0 128.5 34t129.5 114v719h263v-1053zM961 1382q0 -60 -37 -97.5t-97 -37.5q-61 0 -98 37.5t-37 97.5q0 59 37 96.5t98 37.5
q60 0 97 -37.5t37 -96.5zM537 1382q0 -60 -37.5 -97.5t-98.5 -37.5q-60 0 -96.5 37.5t-36.5 97.5q0 59 36.5 96.5t96.5 37.5q61 0 98.5 -37.5t37.5 -96.5z" />
    <glyph glyph-name="yacute" unicode="&#xfd;" horiz-adv-x="1052" 
d="M1020 1053q-171 -703 -340 -1053q-81 -170 -161 -269.5t-155 -137t-167 -37.5q-60 0 -142 24l6 193h123q57 0 104.5 49t112.5 178q-104 231 -200.5 508.5t-161.5 544.5h274q90 -375 238 -787h4q135 384 211 787h254zM850 1466l-305 -280l-133 86l245 311z" />
    <glyph glyph-name="thorn" unicode="&#xfe;" horiz-adv-x="1236" 
d="M1151 569q0 -100 -20 -187t-63 -161t-106.5 -127t-153.5 -82.5t-200 -29.5q-108 0 -202 18v-430h-263v1966h263v-584q139 129 313 129q110 0 194 -40t135.5 -110.5t77 -161.5t25.5 -200zM877 539q0 329 -213 329q-138 0 -258 -141v-496q88 -43 198 -43q134 0 203.5 90.5
t69.5 260.5z" />
    <glyph glyph-name="ydieresis" unicode="&#xff;" horiz-adv-x="1052" 
d="M1020 1053q-171 -703 -340 -1053q-81 -170 -161 -269.5t-155 -137t-167 -37.5q-60 0 -142 24l6 193h123q57 0 104.5 49t112.5 178q-104 231 -200.5 508.5t-161.5 544.5h274q90 -375 238 -787h4q135 384 211 787h254zM895 1382q0 -60 -36.5 -97.5t-96.5 -37.5
q-61 0 -98 37.5t-37 97.5q0 59 37 96.5t98 37.5q60 0 96.5 -37.5t36.5 -96.5zM471 1382q0 -60 -37 -97.5t-98 -37.5q-60 0 -96.5 37.5t-36.5 97.5q0 59 36.5 96.5t96.5 37.5q61 0 98 -37.5t37 -96.5z" />
    <glyph glyph-name="Lslash" unicode="&#x141;" horiz-adv-x="976" 
d="M950 0h-768v698l-125 -73l-43 186l168 98v521h277v-371l227 133l43 -186l-270 -158v-625h491v-223z" />
    <glyph glyph-name="lslash" unicode="&#x142;" horiz-adv-x="624" 
d="M573 1079l-149 -88v-721q0 -94 82 -94h74v-176q-74 -18 -140 -18q-135 0 -205.5 47t-70.5 170v653l-107 -66l-43 183l150 88v479h260v-340l106 66z" />
    <glyph glyph-name="OE" unicode="&#x152;" horiz-adv-x="1941" 
d="M1821 0h-817q-150 -25 -224 -25q-686 0 -686 732q0 347 182.5 547t520.5 200q87 0 213 -24h802v-218h-557v-366h482v-213h-482v-416h566v-217zM983 242v944q-103 43 -203 43q-108 0 -186.5 -39.5t-123 -110t-65 -157t-20.5 -191.5q0 -257 96.5 -393.5t319.5 -136.5
q90 0 182 41z" />
    <glyph glyph-name="oe" unicode="&#x153;" horiz-adv-x="1953" 
d="M1860 592q0 -20 -5 -123h-694q0 -145 67 -219t224 -74q176 0 348 45l25 -190q-196 -60 -414 -60q-143 0 -239.5 42t-159.5 134q-138 -176 -398 -176q-135 0 -237.5 39t-166.5 111t-96 169t-32 218q0 264 145.5 418.5t409.5 154.5q269 0 395 -176q124 176 375 176
q230 0 341.5 -128t111.5 -361zM1602 639q5 120 -48.5 188t-160.5 68q-110 0 -170 -76t-62 -180h441zM895 514q0 171 -66 265.5t-206 94.5q-132 0 -199.5 -92.5t-67.5 -246.5q0 -177 65.5 -266t211.5 -89q129 0 195.5 92.5t66.5 241.5z" />
    <glyph glyph-name="Scaron" unicode="&#x160;" horiz-adv-x="1069" 
d="M993 430q0 -149 -72.5 -254.5t-194.5 -155t-282 -49.5q-166 0 -352 52l31 227q161 -53 319 -53q130 0 195 50.5t65 145.5q0 36 -12.5 65.5t-31.5 51t-56 43.5t-71.5 37.5t-92.5 38.5q-83 34 -141 69t-105 84t-70.5 114t-23.5 148q0 193 138.5 303.5t355.5 110.5
q176 0 315 -51l-41 -213q-124 45 -272 45q-99 0 -152 -43.5t-53 -118.5q0 -36 11.5 -65.5t29 -50.5t50 -41.5t61 -34.5t75.5 -33q52 -22 83 -36t76 -38t72 -45.5t58 -53.5t48 -67t28.5 -81.5t11.5 -100.5zM848 1708l-309 -182l-316 178l68 127l248 -117l245 117z" />
    <glyph glyph-name="scaron" unicode="&#x161;" horiz-adv-x="899" 
d="M827 319q0 -158 -116.5 -253t-315.5 -95q-157 0 -309 41l37 209q136 -47 264 -47q77 0 121.5 31t44.5 90q0 50 -40 80.5t-138 62.5q-95 29 -154 65t-94 97t-35 148q0 153 108.5 243t301.5 90q139 0 264 -37l-31 -198q-112 39 -223 39q-78 0 -114 -34.5t-36 -82.5
q0 -49 39 -77t142 -62q150 -47 217 -117t67 -193zM766 1475l-317 -287l-320 285l98 118l224 -176l223 176z" />
    <glyph glyph-name="Ydieresis" unicode="&#x178;" horiz-adv-x="1224" 
d="M1212 1430q-199 -480 -458 -855v-575h-275v575q-260 386 -467 855h316q124 -326 303 -615q170 282 280 615h301zM973 1657q0 -56 -36 -91.5t-93 -35.5q-56 0 -91.5 36t-35.5 91q0 57 35.5 93t91.5 36q57 0 93 -36t36 -93zM524 1657q0 -56 -36 -91.5t-93 -35.5
q-55 0 -91 36t-36 91q0 57 35.5 93t91.5 36q57 0 93 -36t36 -93z" />
    <glyph glyph-name="Zcaron" unicode="&#x17d;" horiz-adv-x="1077" 
d="M1012 0h-955v213l635 999h-608v218h915v-220l-630 -993h643v-217zM858 1708l-309 -182l-316 178l68 127l248 -117l246 117z" />
    <glyph glyph-name="zcaron" unicode="&#x17e;" horiz-adv-x="974" 
d="M901 0h-813v201l473 641h-446v211h755v-203l-471 -639h502v-211zM813 1475l-317 -287l-320 285l98 118l224 -176l223 176z" />
    <glyph glyph-name="florin" unicode="&#x192;" 
d="M1032 1438l-18 -187h-101q-61 0 -101.5 -16t-63 -50.5t-32.5 -73.5t-16 -101l-20 -193h283v-199h-299l-39 -405q-8 -83 -21.5 -144.5t-44 -126t-75.5 -104.5t-120 -66t-174 -26q-57 0 -155 16l18 189h97q61 0 101 15.5t62.5 49t32.5 72.5t16 100l41 430h-239v199h258
l18 172q8 83 21.5 145t43 125.5t73 103.5t114 65.5t164.5 25.5q67 0 176 -16z" />
    <glyph glyph-name="circumflex" unicode="&#x2c6;" horiz-adv-x="753" 
d="M635 1305l-98 -117l-224 174l-223 -174l-90 117l315 282z" />
    <glyph glyph-name="caron" unicode="&#x2c7;" horiz-adv-x="753" 
d="M637 1475l-318 -287l-319 285l98 118l224 -176l223 176z" />
    <glyph glyph-name="breve" unicode="&#x2d8;" horiz-adv-x="645" 
d="M635 1536q0 -160 -81 -250t-239 -90t-236.5 91t-78.5 249h168q0 -75 38 -120.5t111 -45.5q72 0 111 42.5t39 123.5h168z" />
    <glyph glyph-name="dotaccent" unicode="&#x2d9;" horiz-adv-x="602" 
d="M463 1368q0 -70 -45.5 -114t-116.5 -44t-116.5 44t-45.5 114q0 69 45.5 113.5t116.5 44.5t116.5 -44.5t45.5 -113.5z" />
    <glyph glyph-name="ring" unicode="&#x2da;" horiz-adv-x="602" 
d="M487 1405q0 -101 -65 -161t-182 -60q-119 0 -179.5 56t-60.5 153q0 104 64.5 163.5t183.5 59.5q117 0 178 -55.5t61 -155.5zM336 1397q0 108 -94 108q-44 0 -67 -28t-23 -74q0 -56 22 -82.5t72 -26.5q45 0 67.5 28t22.5 75z" />
    <glyph glyph-name="ogonek" unicode="&#x2db;" horiz-adv-x="634" 
d="M506 -248l29 -141q-87 -41 -199 -41q-238 0 -238 182q0 128 144 248h207q-130 -103 -130 -197q0 -39 19.5 -57t64.5 -18q48 0 103 24z" />
    <glyph glyph-name="tilde" unicode="&#x2dc;" horiz-adv-x="864" 
d="M750 1444q-31 -96 -93.5 -148.5t-146.5 -52.5q-49 0 -90.5 13.5t-66 30.5t-57 30.5t-65.5 13.5q-69 0 -114 -98l-117 80q31 97 92.5 148.5t147.5 51.5q62 0 110 -22t87 -44t79 -22q71 0 117 101z" />
    <glyph glyph-name="hungarumlaut" unicode="&#x2dd;" horiz-adv-x="864" 
d="M836 1473l-293 -277l-133 76l241 309zM412 1481l-281 -285l-131 76l229 317z" />
    <glyph glyph-name="uni0312" unicode="&#x312;" horiz-adv-x="976" 
d="M795 1501v-125q-77 0 -125 -15.5t-64 -33t-34 -47t-31 -41.5q-45 -45 -105 -45q-54 0 -86.5 33t-32.5 86q0 84 97.5 139t267.5 55q70 0 113 -6z" />
    <glyph glyph-name="uni0315" unicode="&#x315;" horiz-adv-x="716" 
d="M600 1552l-162 -405l-147 22l108 418z" />
    <glyph glyph-name="uni0326" unicode="&#x326;" horiz-adv-x="985" 
d="M141 -430v125q77 0 125 15.5t64 33t34 47t31 41.5q45 45 105 45q54 0 86 -33t32 -86q0 -85 -97 -139.5t-267 -54.5q-70 0 -113 6z" />
    <glyph glyph-name="Delta" unicode="&#x394;" horiz-adv-x="1572" 
d="M1503 0h-1433l559 1430h307zM1116 242l-344 888l-340 -888h684z" />
    <glyph glyph-name="Delta" unicode="&#x2206;" horiz-adv-x="1572" 
d="M1503 0h-1433l559 1430h307zM1116 242l-344 888l-340 -888h684z" />
    <glyph glyph-name="Omega" unicode="&#x3a9;" horiz-adv-x="1597" 
d="M1509 0h-600v203q273 176 273 555q0 477 -385 477q-99 0 -174 -37t-119 -103t-66 -149t-22 -182q0 -202 64.5 -334.5t207.5 -226.5v-203h-600v203h309q-116 87 -186 238.5t-70 332.5q0 150 45 275.5t128.5 216t210 140.5t282.5 50q309 0 481 -167t172 -498
q0 -182 -73.5 -340.5t-194.5 -247.5h317v-203z" />
    <glyph glyph-name="Omega" unicode="&#x2126;" horiz-adv-x="1597" 
d="M1509 0h-600v203q273 176 273 555q0 477 -385 477q-99 0 -174 -37t-119 -103t-66 -149t-22 -182q0 -202 64.5 -334.5t207.5 -226.5v-203h-600v203h309q-116 87 -186 238.5t-70 332.5q0 150 45 275.5t128.5 216t210 140.5t282.5 50q309 0 481 -167t172 -498
q0 -182 -73.5 -340.5t-194.5 -247.5h317v-203z" />
    <glyph glyph-name="pi" unicode="&#x3c0;" horiz-adv-x="1327" 
d="M1221 0q-77 -23 -181 -23q-264 0 -264 304v573h-311v-854h-262v854h-152v199h1168v-199h-181v-508q0 -93 26.5 -130.5t98.5 -37.5h58v-178z" />
    <glyph glyph-name="endash" unicode="&#x2013;" 
d="M1126 520h-1126v215h1126v-215z" />
    <glyph glyph-name="emdash" unicode="&#x2014;" horiz-adv-x="2048" 
d="M1890 520h-1732v215h1732v-215z" />
    <glyph glyph-name="quoteleft" unicode="&#x2018;" horiz-adv-x="563" 
d="M512 1499q-135 -144 -135 -215q0 -23 28.5 -72t28.5 -100q0 -69 -42 -112.5t-111 -43.5q-84 0 -129 73q-56 89 -12 224q57 176 263 344z" />
    <glyph glyph-name="quoteright" unicode="&#x2019;" horiz-adv-x="563" 
d="M283 1536q84 0 129 -73q55 -90 11 -226q-58 -175 -263 -344l-109 100q135 141 135 213q0 23 -15 47.5t-29.5 56t-14.5 70.5q0 67 43.5 111.5t112.5 44.5z" />
    <glyph glyph-name="quotesinglbase" unicode="&#x201a;" horiz-adv-x="563" 
d="M283 301q84 0 129 -72q55 -89 11 -224q-57 -176 -263 -345l-109 98q135 144 135 215q0 23 -15 47t-29.5 55.5t-14.5 71.5q0 67 43 110.5t113 43.5z" />
    <glyph glyph-name="quotedblleft" unicode="&#x201c;" horiz-adv-x="976" 
d="M915 1481q-66 -62 -95.5 -107t-28 -75.5t13.5 -53.5t27.5 -56.5t15.5 -68.5q0 -60 -42.5 -102.5t-103.5 -42.5q-81 0 -125 70q-54 86 -12 214q55 164 252 318zM496 1489q-67 -64 -98 -110.5t-29.5 -78t13 -55t27 -57t15.5 -68.5q0 -60 -42 -102.5t-103 -42.5
q-81 0 -125 70q-55 87 -12 216q55 166 253 324z" />
    <glyph glyph-name="quotedblright" unicode="&#x201d;" horiz-adv-x="976" 
d="M696 1520q81 0 125 -70q55 -87 13 -216q-55 -167 -254 -325l-101 99q67 64 98 109.5t29.5 77t-13 54.5t-27 56.5t-15.5 68.5q0 60 42 103t103 43zM272 1520q81 0 125 -69q55 -86 14 -213q-54 -165 -253 -320l-99 98q66 61 95.5 105.5t28 75t-13 53t-27 56t-15.5 68.5
q0 60 42 103t103 43z" />
    <glyph glyph-name="quotedblbase" unicode="&#x201e;" horiz-adv-x="985" 
d="M702 295q83 0 128 -71q55 -87 13 -217q-55 -170 -257 -331l-103 101q68 64 99.5 110.5t30.5 78t-13 55t-27.5 57.5t-15.5 69q0 62 42 105t103 43zM276 295q81 0 125 -70q55 -87 13 -215q-54 -168 -254 -325l-101 100q66 62 96.5 106.5t29 75.5t-13.5 54t-27 57t-15 69
q0 62 42 105t105 43z" />
    <glyph glyph-name="dagger" unicode="&#x2020;" 
d="M1008 1004h-344l49 -236q0 -81 -10 -179t-21 -168.5t-33 -201.5h-172q-22 130 -33 202t-20.5 169t-9.5 178l51 236h-346v186h346q-32 161 -51 346h299q-16 -179 -49 -346h344v-186z" />
    <glyph glyph-name="daggerdbl" unicode="&#x2021;" 
d="M1008 346h-346q33 -167 49 -346h-297q16 181 51 346h-346v186h344q-47 92 -47 238q0 139 45 234h-342v186h346q-35 165 -51 346h297q-16 -179 -49 -346h346v-186h-342q45 -95 45 -234q0 -146 -47 -238h344v-186z" />
    <glyph glyph-name="bullet" unicode="&#x2022;" 
d="M952 711q0 -163 -114 -277.5t-277 -114.5t-276 113.5t-113 276.5t114 277t277 114t276 -113t113 -276z" />
    <glyph glyph-name="ellipsis" unicode="&#x2026;" horiz-adv-x="1609" 
d="M1481 145q0 -72 -48.5 -120t-119.5 -48t-118.5 48t-47.5 120q0 69 48 117.5t118 48.5t119 -48.5t49 -117.5zM971 145q0 -72 -47.5 -120t-118.5 -48t-119.5 48t-48.5 120q0 69 49 117.5t119 48.5t118 -48.5t48 -117.5zM463 145q0 -72 -48 -120t-120 -48q-69 0 -117.5 48.5
t-48.5 119.5q0 69 48.5 117.5t117.5 48.5q71 0 119.5 -48.5t48.5 -117.5z" />
    <glyph glyph-name="perthousand" unicode="&#x2030;" horiz-adv-x="2416" 
d="M2335 348q0 -190 -90 -283.5t-250 -93.5q-168 0 -247 95.5t-79 281.5q0 183 88 280t250 97q169 0 248.5 -94t79.5 -283zM1573 348q0 -190 -90 -283.5t-250 -93.5q-168 0 -247 95.5t-79 281.5q0 183 88 280t250 97q169 0 248.5 -94t79.5 -283zM1421 1386l-1046 -1441
l-150 100l1049 1444zM743 1081q0 -190 -90 -282t-252 -92q-168 0 -245.5 94t-77.5 280q0 183 88 280t250 97q169 0 248 -94t79 -283zM2132 348q0 125 -31.5 172t-97.5 47q-72 0 -101.5 -52.5t-29.5 -166.5q0 -120 30.5 -169.5t98.5 -49.5q73 0 102 54.5t29 164.5zM1370 348
q0 125 -31.5 172t-97.5 47q-72 0 -101.5 -52.5t-29.5 -166.5q0 -120 30.5 -169.5t98.5 -49.5q73 0 102 54.5t29 164.5zM541 1081q0 126 -31.5 174t-97.5 48q-72 0 -102.5 -54t-30.5 -168q0 -120 31 -169.5t98 -49.5q73 0 103 55t30 164z" />
    <glyph glyph-name="guilsinglleft" unicode="&#x2039;" horiz-adv-x="776" 
d="M575 158l-188 -70l-297 485l297 486l188 -70l-219 -416z" />
    <glyph glyph-name="guilsinglright" unicode="&#x203a;" horiz-adv-x="776" 
d="M688 573l-299 -485l-188 70l219 415l-219 416l188 70z" />
    <glyph glyph-name="fraction" unicode="&#x2044;" horiz-adv-x="796" 
d="M999 1386l-1046 -1441l-150 100l1047 1444z" />
    <glyph glyph-name="fraction" unicode="&#x2215;" horiz-adv-x="796" 
d="M999 1386l-1046 -1441l-150 100l1047 1444z" />
    <glyph glyph-name="zerosuperior" unicode="&#x2070;" horiz-adv-x="757" 
d="M745 1073q0 -188 -92.5 -285.5t-255.5 -97.5q-336 0 -336 381q0 188 93.5 285.5t255.5 97.5q335 0 335 -381zM537 1073q0 121 -33.5 172t-100.5 51q-70 0 -101.5 -55t-31.5 -170q0 -122 33 -172.5t100 -50.5q70 0 102 55t32 170z" />
    <glyph glyph-name="foursuperior" unicode="&#x2074;" horiz-adv-x="757" 
d="M723 840h-111v-125h-204v125h-381v153l282 437h303v-435h111v-155zM408 995v303h-2l-197 -303h199z" />
    <glyph glyph-name="fivesuperior" unicode="&#x2075;" horiz-adv-x="757" 
d="M319 1139q28 4 87 4q119 0 192.5 -55t73.5 -156q0 -119 -89.5 -180.5t-246.5 -61.5q-115 0 -236 25v131q98 -12 168 -12q76 0 118 24.5t42 71.5q0 84 -145 84q-97 0 -162 -8l10 424h487v-158h-292z" />
    <glyph glyph-name="sixsuperior" unicode="&#x2076;" horiz-adv-x="757" 
d="M692 948q0 -117 -83 -187.5t-224 -70.5q-317 0 -317 363q0 201 99 301t284 100q126 0 217 -39l-37 -135q-85 31 -185 31q-76 0 -125.5 -44t-50.5 -130q76 34 156 34q119 0 192.5 -60t73.5 -163zM489 944q0 43 -29 68.5t-81 25.5q-57 0 -109 -30q0 -94 30 -134t89 -40
q45 0 72.5 30t27.5 80z" />
    <glyph glyph-name="sevensuperior" unicode="&#x2077;" horiz-adv-x="757" 
d="M633 1264l-176 -363q-53 -107 -127 -215l-201 55q66 107 121 226l135 288h-342v175h590v-166z" />
    <glyph glyph-name="eightsuperior" unicode="&#x2078;" horiz-adv-x="757" 
d="M688 909q0 -103 -85.5 -161t-227.5 -58q-147 0 -227 53t-80 156q0 113 151 178q-137 60 -137 180q0 87 81 142t216 55q137 0 215 -47.5t78 -136.5q0 -112 -135 -176q151 -58 151 -185zM477 1247q0 34 -27 54t-73 20q-45 0 -71.5 -20t-26.5 -54q0 -57 106 -98q92 40 92 98
zM489 913q0 35 -28.5 60t-91.5 47q-101 -46 -101 -111q0 -39 32.5 -61.5t78.5 -22.5q47 0 78.5 23.5t31.5 64.5z" />
    <glyph glyph-name="ninesuperior" unicode="&#x2079;" horiz-adv-x="757" 
d="M303 690q-107 0 -213 23l19 147q117 -24 194 -24q176 0 182 174q-83 -37 -153 -37q-126 0 -195 58t-69 165q0 117 82 187.5t221 70.5q321 0 321 -364q0 -198 -101 -299t-288 -101zM268 1202q0 -47 27.5 -73.5t83.5 -26.5q45 0 106 33q0 97 -29.5 136.5t-86.5 39.5
q-44 0 -72.5 -29t-28.5 -80z" />
    <glyph glyph-name="minussuperior" unicode="&#x207b;" horiz-adv-x="778" 
d="M721 1016h-664v188h664v-188z" />
    <glyph glyph-name="zeroinferior" unicode="&#x2080;" horiz-adv-x="806" 
d="M745 358q0 -188 -92.5 -285.5t-255.5 -97.5q-336 0 -336 381q0 188 93.5 285.5t255.5 97.5q335 0 335 -381zM537 358q0 122 -33.5 173t-100.5 51q-70 0 -101.5 -55.5t-31.5 -170.5q0 -122 33 -172.5t100 -50.5q70 0 102 55t32 170z" />
    <glyph glyph-name="oneinferior" unicode="&#x2081;" horiz-adv-x="608" 
d="M461 0h-230v514l-151 -65l-39 153l246 117h174v-719z" />
    <glyph glyph-name="twoinferior" unicode="&#x2082;" horiz-adv-x="743" 
d="M668 0h-600v156l172 135q80 62 108.5 104.5t28.5 85.5q0 86 -113 86q-86 0 -151 -32l-39 153q117 51 264 51q154 0 225.5 -58t71.5 -159q0 -77 -41.5 -141t-155.5 -145l-76 -56h306v-180z" />
    <glyph glyph-name="threeinferior" unicode="&#x2083;" horiz-adv-x="704" 
d="M629 207q0 -64 -26.5 -111t-73.5 -72.5t-103.5 -37t-124.5 -11.5q-121 0 -229 23v137q82 -10 174 -10q141 0 141 84q0 51 -38.5 69.5t-115.5 18.5h-81v139h86q137 0 137 88q0 32 -25.5 50t-75.5 18q-92 0 -174 -29l-32 139q118 37 258 37q134 0 207 -50.5t73 -143.5
q0 -129 -137 -166q81 -8 120.5 -56.5t39.5 -115.5z" />
    <glyph glyph-name="fourinferior" unicode="&#x2084;" horiz-adv-x="757" 
d="M723 125h-111v-125h-204v125h-381v154l282 436h303v-434h111v-156zM408 281v303h-2l-197 -303h199z" />
    <glyph glyph-name="fiveinferior" unicode="&#x2085;" horiz-adv-x="729" 
d="M319 424q28 4 87 4q119 0 192.5 -55t73.5 -156q0 -119 -89.5 -180.5t-246.5 -61.5q-115 0 -236 25v131q98 -12 168 -12q76 0 118 24.5t42 71.5q0 84 -145 84q-97 0 -162 -8l10 424h487v-158h-292z" />
    <glyph glyph-name="sixinferior" unicode="&#x2086;" horiz-adv-x="763" 
d="M692 233q0 -117 -83 -187.5t-224 -70.5q-317 0 -317 363q0 201 99 301t284 100q126 0 217 -39l-37 -135q-85 31 -185 31q-76 0 -125.5 -44t-50.5 -130q79 35 156 35q119 0 192.5 -60.5t73.5 -163.5zM489 229q0 43 -29 69t-81 26q-56 0 -109 -31q0 -94 30 -134t89 -40
q45 0 72.5 30t27.5 80z" />
    <glyph glyph-name="seveninferior" unicode="&#x2087;" horiz-adv-x="690" 
d="M633 549l-176 -363q-53 -107 -127 -215l-201 56q68 110 121 225l135 289h-342v174h590v-166z" />
    <glyph glyph-name="eightinferior" unicode="&#x2088;" horiz-adv-x="757" 
d="M688 195q0 -103 -85.5 -161.5t-227.5 -58.5q-147 0 -227 53t-80 156q0 113 151 178q-137 60 -137 181q0 87 81 141.5t216 54.5q137 0 215 -47.5t78 -136.5q0 -112 -135 -176q151 -58 151 -184zM477 532q0 34 -27 54t-73 20q-45 0 -71.5 -20t-26.5 -54q0 -57 106 -98
q92 40 92 98zM489 199q0 35 -28.5 59.5t-91.5 46.5q-101 -46 -101 -110q0 -39 32.5 -61.5t78.5 -22.5q47 0 78.5 23.5t31.5 64.5z" />
    <glyph glyph-name="nineinferior" unicode="&#x2089;" horiz-adv-x="759" 
d="M303 -25q-107 0 -213 23l19 147q117 -24 194 -24q176 0 182 174q-83 -37 -153 -37q-126 0 -195 58t-69 165q0 117 82 187.5t221 70.5q321 0 321 -364q0 -198 -101 -299t-288 -101zM268 487q0 -47 27.5 -73.5t83.5 -26.5q45 0 106 33q0 97 -29.5 136.5t-86.5 39.5
q-44 0 -72.5 -29t-28.5 -80z" />
    <glyph glyph-name="Euro" unicode="&#x20ac;" 
d="M1040 45q-138 -72 -319 -72q-235 0 -368.5 111.5t-174.5 341.5h-143v162h129q-4 70 -4 110q0 37 4 115h-129v160h147q46 235 184 359t359 124q165 0 303 -76l-72 -186q-106 49 -221 49q-230 0 -284 -270h356v-160h-377q-4 -62 -4 -100q0 -47 4 -125h377v-162h-352
q46 -240 295 -240q125 0 225 54z" />
    <glyph glyph-name="trademark" unicode="&#x2122;" horiz-adv-x="1441" 
d="M1325 831h-154q-2 136 -10 416l-137 -416h-152l-139 418q-4 -274 -4 -418h-141q0 265 24 599h222l122 -386l123 386h217q26 -327 29 -599zM528 1292h-145v-461h-170v461h-147v138h462v-138z" />
    <glyph glyph-name="onethird" unicode="&#x2153;" horiz-adv-x="1585" 
d="M434 715h-227v514l-154 -66l-37 154l244 117h174v-719zM1307 1386l-1047 -1441l-149 100l1046 1444zM1507 207q0 -52 -17.5 -92.5t-47.5 -66.5t-72.5 -42.5t-88.5 -23.5t-99 -7q-124 0 -232 23v137q82 -10 174 -10q142 0 142 84q0 51 -38 69.5t-116 18.5h-80v139h84
q137 0 137 88q0 32 -25 50t-75 18q-89 0 -174 -29l-33 139q118 37 260 37q134 0 206.5 -50t72.5 -144q0 -129 -137 -166q81 -8 120 -56.5t39 -115.5z" />
    <glyph glyph-name="twothirds" unicode="&#x2154;" horiz-adv-x="1767" 
d="M668 715h-600v155l172 136q80 62 108.5 104.5t28.5 85.5q0 86 -113 86q-84 0 -151 -33l-39 154q117 51 264 51q154 0 225.5 -58t71.5 -159q0 -77 -41.5 -141.5t-155.5 -145.5l-76 -55h306v-180zM1501 1386l-1046 -1441l-150 100l1047 1444zM1690 207q0 -52 -17.5 -92.5
t-47.5 -66.5t-72.5 -42.5t-88.5 -23.5t-100 -7q-121 0 -229 23v137q82 -10 172 -10q141 0 141 84q0 51 -38 69.5t-116 18.5h-80v139h86q66 0 102 22.5t36 65.5q0 32 -26 50t-77 18q-90 0 -172 -29l-33 139q118 37 259 37q134 0 207 -50.5t73 -143.5q0 -129 -137 -166
q80 -8 119 -56.5t39 -115.5z" />
    <glyph glyph-name="onefifth" unicode="&#x2155;" horiz-adv-x="1562" 
d="M434 715h-227v514l-154 -66l-37 154l244 117h174v-719zM1307 1386l-1047 -1441l-149 100l1046 1444zM1155 424q28 4 84 4q119 0 192.5 -55t73.5 -156q0 -119 -88.5 -180.5t-247.5 -61.5q-112 0 -233 25v131q94 -12 166 -12q77 0 118.5 24.5t41.5 71.5q0 84 -144 84
q-97 0 -162 -8l9 424h489v-158h-295z" />
    <glyph glyph-name="twofifths" unicode="&#x2156;" horiz-adv-x="1757" 
d="M668 715h-600v155l172 136q80 62 108.5 104.5t28.5 85.5q0 86 -113 86q-84 0 -151 -33l-39 154q117 51 264 51q154 0 225.5 -58t71.5 -159q0 -77 -41.5 -141.5t-155.5 -145.5l-76 -55h306v-180zM1501 1386l-1046 -1441l-150 100l1047 1444zM1350 424q28 4 84 4
q121 0 193.5 -54.5t72.5 -156.5q0 -119 -88.5 -180.5t-247.5 -61.5q-113 0 -234 25v131q94 -12 168 -12q76 0 117 24.5t41 71.5q0 84 -143 84q-97 0 -162 -8l8 424h490v-158h-295z" />
    <glyph glyph-name="threefifths" unicode="&#x2157;" horiz-adv-x="1679" 
d="M629 922q0 -64 -26.5 -111t-73.5 -72.5t-103.5 -37t-124.5 -11.5q-121 0 -229 23v137q82 -10 174 -10q141 0 141 84q0 51 -38.5 69.5t-115.5 18.5h-81v139h86q137 0 137 88q0 32 -25.5 50t-75.5 18q-92 0 -174 -29l-32 139q118 37 258 37q134 0 207 -50.5t73 -143.5
q0 -129 -137 -166q81 -8 120.5 -56.5t39.5 -115.5zM1423 1386l-1048 -1441l-148 100l1047 1444zM1270 424q32 4 86 4q119 0 192.5 -55t73.5 -156q0 -119 -89.5 -180.5t-246.5 -61.5q-114 0 -235 25v131q98 -12 168 -12q159 0 159 96q0 84 -145 84q-97 0 -160 -8l8 424h488
v-158h-293z" />
    <glyph glyph-name="fourfifths" unicode="&#x2158;" horiz-adv-x="1769" 
d="M727 840h-113v-125h-204v125h-381v153l282 437h303v-435h113v-155zM410 995v303h-2l-197 -303h199zM1513 1386l-1046 -1441l-150 100l1047 1444zM1362 424q28 4 84 4q121 0 193.5 -54.5t72.5 -156.5q0 -119 -88.5 -180.5t-247.5 -61.5q-112 0 -233 25v131q94 -12 168 -12
q76 0 116.5 24.5t40.5 71.5q0 84 -143 84q-97 0 -162 -8l8 424h490v-158h-295z" />
    <glyph glyph-name="onesixth" unicode="&#x2159;" horiz-adv-x="1552" 
d="M434 715h-227v514l-154 -66l-37 154l244 117h174v-719zM1307 1386l-1047 -1441l-149 100l1046 1444zM1487 233q0 -118 -82.5 -188t-222.5 -70q-318 0 -318 363q0 201 99 301t284 100q126 0 217 -39l-37 -135q-85 31 -184 31q-77 0 -126 -43.5t-52 -130.5q79 35 156 35
q120 0 193 -60.5t73 -163.5zM1284 229q0 44 -28 69.5t-80 25.5q-54 0 -111 -31q0 -94 30.5 -134t90.5 -40q43 0 70.5 30t27.5 80z" />
    <glyph glyph-name="fivesixths" unicode="&#x215a;" horiz-adv-x="1710" 
d="M322 1139q32 4 86 4q119 0 192.5 -55t73.5 -156q0 -119 -88.5 -180.5t-247.5 -61.5q-115 0 -236 25v131q98 -12 168 -12q77 0 118.5 24.5t41.5 71.5q0 84 -143 84q-97 0 -162 -8l8 424h488v-158h-293zM1464 1386l-1048 -1441l-150 100l1049 1444zM1645 233
q0 -117 -83.5 -187.5t-224.5 -70.5q-317 0 -317 363q0 201 99 301t284 100q126 0 217 -39l-37 -135q-82 31 -182 31q-77 0 -127 -44t-51 -130q79 35 155 35q120 0 193.5 -60.5t73.5 -163.5zM1442 229q0 43 -29.5 69t-81.5 26q-55 0 -108 -31q0 -94 30 -134t88 -40
q45 0 73 30t28 80z" />
    <glyph glyph-name="oneeighth" unicode="&#x215b;" horiz-adv-x="1593" 
d="M434 715h-227v514l-154 -66l-37 154l244 117h174v-719zM1307 1386l-1047 -1441l-149 100l1046 1444zM1524 195q0 -103 -86 -161.5t-228 -58.5q-147 0 -227 53t-80 156q0 112 152 178q-137 60 -137 181q0 87 80.5 141.5t215.5 54.5q137 0 215 -47.5t78 -136.5
q0 -112 -135 -176q152 -58 152 -184zM1313 532q0 34 -27.5 54t-73.5 20q-45 0 -71.5 -20t-26.5 -54q0 -32 28 -55t79 -43q92 40 92 98zM1325 199q0 34 -29 59t-92 47q-100 -46 -100 -110q0 -39 32 -61.5t78 -22.5q47 0 79 23.5t32 64.5z" />
    <glyph glyph-name="threeeights" unicode="&#x215c;" horiz-adv-x="1710" 
d="M629 922q0 -64 -26.5 -111t-73.5 -72.5t-103.5 -37t-124.5 -11.5q-121 0 -229 23v137q82 -10 174 -10q141 0 141 84q0 51 -38.5 69.5t-115.5 18.5h-81v139h86q137 0 137 88q0 32 -25.5 50t-75.5 18q-92 0 -174 -29l-32 139q118 37 258 37q134 0 207 -50.5t73 -143.5
q0 -129 -137 -166q81 -8 120.5 -56.5t39.5 -115.5zM1423 1386l-1048 -1441l-148 100l1047 1444zM1640 195q0 -103 -86 -161.5t-229 -58.5q-147 0 -226 53t-79 156q0 113 151 178q-137 60 -137 181q0 87 81 141.5t216 54.5q137 0 215 -47.5t78 -136.5q0 -112 -137 -176
q153 -57 153 -184zM1427 532q0 34 -26.5 54t-71.5 20q-46 0 -73 -20t-27 -54q0 -32 28.5 -55t79.5 -43q90 39 90 98zM1440 199q0 34 -28.5 59t-90.5 47q-100 -46 -100 -110q0 -39 32 -61.5t78 -22.5q45 0 77 23.5t32 64.5z" />
    <glyph glyph-name="fiveeights" unicode="&#x215d;" horiz-adv-x="1751" 
d="M322 1139q32 4 86 4q119 0 192.5 -55t73.5 -156q0 -119 -88.5 -180.5t-247.5 -61.5q-115 0 -236 25v131q98 -12 168 -12q77 0 118.5 24.5t41.5 71.5q0 84 -143 84q-97 0 -162 -8l8 424h488v-158h-293zM1464 1386l-1048 -1441l-150 100l1049 1444zM1681 195
q0 -103 -86 -161.5t-229 -58.5q-147 0 -226 53t-79 156q0 113 151 178q-137 58 -137 181q0 87 80.5 141.5t216.5 54.5q137 0 214 -47.5t77 -136.5q0 -113 -135 -176q153 -57 153 -184zM1468 532q0 34 -26.5 54t-71.5 20q-46 0 -73 -20t-27 -54q0 -32 28.5 -55t79.5 -43
q90 39 90 98zM1481 199q0 34 -28.5 59t-90.5 47q-102 -45 -102 -110q0 -39 32 -61.5t78 -22.5q47 0 79 23.5t32 64.5z" />
    <glyph glyph-name="seveneights" unicode="&#x215e;" horiz-adv-x="1603" 
d="M627 1264l-176 -363q-53 -107 -127 -215l-201 55q66 107 121 226l135 288h-342v175h590v-166zM1315 1386l-1047 -1441l-149 100l1048 1444zM1532 195q0 -103 -85 -161.5t-228 -58.5q-147 0 -226.5 53t-79.5 156q0 114 152 178q-137 58 -137 181q0 87 80.5 141.5
t216.5 54.5q137 0 214 -47.5t77 -136.5q0 -113 -136 -176q152 -57 152 -184zM1321 532q0 34 -26.5 54t-73.5 20q-44 0 -71.5 -20t-27.5 -54q0 -57 109 -98q90 41 90 98zM1333 199q0 34 -28.5 59t-90.5 47q-102 -45 -102 -110q0 -39 32.5 -61.5t78.5 -22.5q47 0 78.5 23.5
t31.5 64.5z" />
    <glyph glyph-name="partialdiff" unicode="&#x2202;" horiz-adv-x="1230" 
d="M1133 670q0 -344 -142 -521.5t-397 -177.5q-245 0 -374.5 145.5t-129.5 383.5q0 268 143 421.5t388 153.5q94 0 184 -41q-42 175 -151.5 251t-297.5 71l13 203q201 5 348 -52.5t238 -174.5t134.5 -281t43.5 -381zM856 635q0 86 -10 178q-112 47 -203 47q-93 0 -157 -48.5
t-92.5 -128t-28.5 -185.5q0 -144 59 -233t176 -89q134 0 195 107.5t61 351.5z" />
    <glyph glyph-name="product" unicode="&#x220f;" horiz-adv-x="1775" 
d="M1645 1241h-211v-1659h-277v1659h-563v-1659h-277v1659h-213v236h1541v-236z" />
    <glyph glyph-name="summation" unicode="&#x2211;" horiz-adv-x="1241" 
d="M1147 -418h-1055v217l582 752l-557 711v215h999v-228h-672l541 -690l-569 -739h731v-238z" />
    <glyph glyph-name="minus" unicode="&#x2212;" 
d="M1053 532h-979v205h979v-205z" />
    <glyph glyph-name="radical" unicode="&#x221a;" 
d="M1108 1430l-387 -1430h-307l-258 846h-129v207h323l154 -518q47 -169 69 -291h2q23 125 60 272l233 914h240z" />
    <glyph glyph-name="infinity" unicode="&#x221e;" horiz-adv-x="1900" 
d="M1800 723q0 -151 -103 -252.5t-284 -101.5q-110 0 -223 55.5t-250 155.5q-137 -100 -248.5 -155.5t-220.5 -55.5q-174 0 -272.5 95.5t-98.5 244.5t103 250.5t284 101.5q106 0 220 -56t247 -155q133 99 248.5 155t229.5 56q172 0 270 -95.5t98 -242.5zM1577 715
q0 71 -42.5 110t-115.5 39q-60 0 -130.5 -37t-170.5 -110q76 -53 114 -77.5t93.5 -48.5t97.5 -24q72 0 113 41t41 107zM778 715q-104 75 -172 112t-129 37q-72 0 -112.5 -40.5t-40.5 -106.5q0 -70 40 -110t115 -40q59 0 128.5 37.5t170.5 110.5z" />
    <glyph glyph-name="integral" unicode="&#x222b;" horiz-adv-x="845" 
d="M786 1298h-94q-50 0 -82.5 -14.5t-48 -44.5t-21 -62t-5.5 -79v-1125q0 -80 -10.5 -142t-35.5 -115.5t-66 -88t-104 -54t-147 -19.5q-77 0 -152 16v186h95q50 0 82.5 14.5t48 44.5t21 62t5.5 80v1124q0 101 17 174.5t57 130.5t112.5 86t176.5 29q69 0 151 -14v-189z" />
    <glyph glyph-name="approxequal" unicode="&#x2248;" 
d="M1044 825q-143 -139 -286 -139q-47 0 -91 12.5t-77.5 31t-66 36.5t-72 30.5t-80.5 12.5q-91 0 -191 -86l-88 156q144 133 291 133q59 0 111.5 -18.5t85.5 -41t82.5 -41t103.5 -18.5q93 0 192 88zM1047 399q-151 -143 -291 -143q-56 0 -110.5 19t-91 42.5t-85.5 42.5
t-96 19q-91 0 -191 -92l-86 157q141 138 289 138q58 0 111 -18.5t87 -41t82.5 -41t98.5 -18.5q79 0 182 81q9 6 10 7z" />
    <glyph glyph-name="notequal" unicode="&#x2260;" 
d="M1020 313h-535l-145 -258l-160 80l101 178h-175v203h289l135 242h-424v203h539l143 256l158 -80l-98 -176h172v-203h-287l-133 -242h420v-203z" />
    <glyph glyph-name="lessequal" unicode="&#x2264;" 
d="M1024 283l-922 436v211l922 438v-242l-666 -301l666 -299v-243zM1024 0h-922v205h922v-205z" />
    <glyph glyph-name="greaterequal" unicode="&#x2265;" 
d="M1024 719l-922 -436v239l666 299l-666 301v246l922 -438v-211zM1024 0h-922v205h922v-205z" />
    <glyph glyph-name="diamondrhombsolid" unicode="&#x25c6;" 
d="M993 709l-430 -430l-430 430l430 430z" />
    <glyph glyph-name="diamondrhombsolid" unicode="&#xe0a5;" 
d="M993 709l-430 -430l-430 430l430 430z" />
    <glyph glyph-name="lozenge" unicode="&#x25ca;" horiz-adv-x="1200" 
d="M1133 733l-406 -733h-260l-412 745l406 732h260zM868 729l-280 512l-269 -491l281 -514z" />
    <glyph glyph-name="Eth.cap" unicode="&#xe001;" horiz-adv-x="1529" 
d="M1380 735q0 -364 -195 -549.5t-546 -185.5h-457v612h-157v207h157v611h486q343 0 527.5 -179t184.5 -516zM1094 721q0 109 -25.5 196.5t-77.5 154.5t-139 103.5t-203 36.5h-194v-393h264v-207h-264v-393h192q447 0 447 502z" />
    <glyph glyph-name="Lslash.cap" unicode="&#xe003;" horiz-adv-x="1038" 
d="M950 0h-768v698l-125 -73l-43 186l168 98v521h277v-371l227 133l43 -186l-270 -158v-625h491v-223z" />
    <glyph glyph-name="Scaron.cap" unicode="&#xe005;" horiz-adv-x="1130" 
d="M993 430q0 -149 -72.5 -254.5t-194.5 -155t-282 -49.5q-166 0 -352 52l31 227q161 -53 319 -53q130 0 195 50.5t65 145.5q0 36 -12.5 65.5t-31.5 51t-56 43.5t-71.5 37.5t-92.5 38.5q-83 34 -141 69t-105 84t-70.5 114t-23.5 148q0 193 138.5 303.5t355.5 110.5
q176 0 315 -51l-41 -213q-124 45 -272 45q-99 0 -152 -43.5t-53 -118.5q0 -36 11.5 -65.5t29 -50.5t50 -41.5t61 -34.5t75.5 -33q52 -22 83 -36t76 -38t72 -45.5t58 -53.5t48 -67t28.5 -81.5t11.5 -100.5zM848 1708l-309 -182l-316 178l68 127l248 -117l245 117z" />
    <glyph glyph-name="Yacute.cap" unicode="&#xe007;" horiz-adv-x="1286" 
d="M1212 1430q-199 -480 -458 -855v-575h-275v575q-260 386 -467 855h316q124 -326 303 -615q170 282 280 615h301zM1016 1661l-408 -139l-73 131l387 184z" />
    <glyph glyph-name="Thorn.cap" unicode="&#xe00b;" horiz-adv-x="1259" 
d="M1124 764q0 -236 -141 -364t-399 -128h-148v-272h-274v1430h274v-232h139q124 0 203 -16q164 -33 255 -140.5t91 -277.5zM836 743q0 89 -39 148.5t-113 81.5q-42 12 -115 12h-133v-498h162q118 0 178 69t60 187z" />
    <glyph glyph-name="Zcaron.cap" unicode="&#xe00e;" horiz-adv-x="1138" 
d="M1012 0h-955v213l635 999h-608v218h915v-220l-630 -993h643v-217zM858 1708l-309 -182l-316 178l68 127l248 -117l246 117z" />
    <glyph glyph-name="circumflex.cap" unicode="&#xe013;" horiz-adv-x="921" 
d="M625 1653l-68 -127l-248 116l-243 -116l-66 125l311 180z" />
    <glyph glyph-name="tilde.cap" unicode="&#xe014;" horiz-adv-x="1024" 
d="M772 1724q-31 -89 -96.5 -137.5t-153.5 -48.5q-49 0 -91.5 13t-66.5 29t-56.5 29t-65.5 13q-72 0 -117 -96l-125 76q31 90 96 139t152 49q50 0 92 -13t66.5 -29t57 -29t64.5 -13q73 0 119 94z" />
    <glyph glyph-name="brokenbar.cap" unicode="&#xe01b;" 
d="M686 872h-248v785h248v-785zM686 -356h-248v790h248v-790z" />
    <glyph glyph-name="dollar.sc" unicode="&#xe024;" 
d="M1014 432q0 -83 -28 -153t-77.5 -119t-110.5 -81.5t-132 -49.5v-267h-201v246q-177 3 -354 68l47 213q161 -64 344 -64q110 0 172.5 47t62.5 127q0 46 -21.5 79.5t-57.5 54t-83 36t-98.5 29.5t-103 30.5t-98.5 43t-83 62.5t-57.5 94t-21.5 133q0 147 96.5 249.5
t255.5 128.5v207h201v-200q127 -9 258 -60l-54 -194q-138 49 -278 49q-102 0 -151.5 -43t-49.5 -111q0 -51 34.5 -85.5t89.5 -54t121 -36.5t132.5 -42.5t121.5 -63t89.5 -107t34.5 -166.5z" />
    <glyph glyph-name="parenleft.cap" unicode="&#xe028;" horiz-adv-x="700" 
d="M586 -266l-203 -78q-260 484 -260 999q0 518 260 1002l203 -78q-193 -449 -193 -922q0 -471 193 -923z" />
    <glyph glyph-name="parenright.cap" unicode="&#xe029;" horiz-adv-x="700" 
d="M578 657q0 -521 -261 -1001l-202 78q192 440 192 921t-192 924l202 78q261 -480 261 -1000z" />
    <glyph glyph-name="hyphen.cap" unicode="&#xe02d;" horiz-adv-x="690" 
d="M614 510h-536v217h536v-217z" />
    <glyph glyph-name="at.cap" unicode="&#xe040;" horiz-adv-x="2275" 
d="M1139 956q-51 -137 -168 -477h340q-94 273 -172 477zM1268 1419q-138 0 -262.5 -49.5t-219 -135.5t-170.5 -199.5t-125 -242.5t-74.5 -264t-25.5 -266q0 -93 15 -262h-250q-15 150 -15 244q0 222 53.5 430t155.5 380.5t240.5 302t319 201.5t380.5 72q184 0 331 -63
t242 -175.5t145 -265t50 -333.5q0 -397 -246 -793h-352q-69 229 -84 274h-471q-10 -28 -84 -274h-266q190 597 440 1200h301q224 -532 377 -991h2q62 112 97.5 255t35.5 294q0 301 -140.5 481t-399.5 180z" />
    <glyph glyph-name="A.cap" unicode="&#xe041;" horiz-adv-x="1460" 
d="M1362 0h-311q-16 52 -48.5 165.5t-48.5 168.5h-544q-65 -211 -99 -334h-274q210 701 493 1430h328q286 -721 504 -1430zM893 545q-71 221 -211 616l-2 -2q-126 -351 -211 -614h424z" />
    <glyph glyph-name="B.cap" unicode="&#xe042;" horiz-adv-x="1302" 
d="M1161 432q0 -112 -43.5 -196.5t-120 -135t-173 -75.5t-210.5 -25h-452v1430h432q234 0 357.5 -90t123.5 -269q0 -105 -53 -183t-143 -116q122 -21 202 -112.5t80 -227.5zM801 1034q0 187 -223 187h-148v-385h172q101 0 150 53.5t49 144.5zM874 416q0 105 -67.5 161
t-204.5 56h-172v-422h211q103 0 168 54t65 151z" />
    <glyph glyph-name="C.cap" unicode="&#xe043;" horiz-adv-x="1259" 
d="M1155 59q-80 -39 -180.5 -61.5t-194.5 -22.5q-324 0 -505 184.5t-181 534.5q0 356 185.5 558t494.5 202q205 0 375 -80l-82 -213q-136 62 -287 62q-182 0 -287.5 -140.5t-105.5 -367.5q0 -252 113 -379t311 -127q141 0 276 61z" />
    <glyph glyph-name="D.cap" unicode="&#xe044;" horiz-adv-x="1509" 
d="M1360 735q0 -364 -195.5 -549.5t-546.5 -185.5h-456v1430h485q343 0 528 -179t185 -516zM1073 721q0 109 -25.5 196.5t-77.5 154.5t-138.5 103.5t-202.5 36.5h-195v-993h193q446 0 446 502z" />
    <glyph glyph-name="E.cap" unicode="&#xe045;" horiz-adv-x="1181" 
d="M1001 0h-839v1430h831v-218h-559v-366h484v-213h-484v-416h567v-217z" />
    <glyph glyph-name="F.cap" unicode="&#xe046;" horiz-adv-x="1093" 
d="M948 1212h-512v-393h457v-215h-457v-604h-274v1430h786v-218z" />
    <glyph glyph-name="G.cap" unicode="&#xe047;" horiz-adv-x="1486" 
d="M1290 1335l-84 -209q-185 101 -381 101q-211 0 -331.5 -140t-120.5 -372q0 -246 119 -378t329 -132q95 0 180 24v539h275v-717q-214 -78 -469 -78q-342 0 -530.5 192.5t-188.5 532.5q0 350 197.5 553t537.5 203q252 0 467 -119z" />
    <glyph glyph-name="H.cap" unicode="&#xe048;" horiz-adv-x="1499" 
d="M1276 0h-275v623h-565v-623h-274v1430h274v-572h565v572h275v-1430z" />
    <glyph glyph-name="I.cap" unicode="&#xe049;" horiz-adv-x="659" 
d="M436 0h-274v1430h274v-1430z" />
    <glyph glyph-name="J.cap" unicode="&#xe04a;" horiz-adv-x="786" 
d="M563 430q0 -86 -8 -150.5t-30.5 -125t-61 -99t-102 -61.5t-150.5 -23q-83 0 -176 21v215h94q88 0 123 44.5t35 156.5v1022h276v-1000z" />
    <glyph glyph-name="K.cap" unicode="&#xe04b;" horiz-adv-x="1357" 
d="M1268 0h-340l-404 670l-88 -103v-567h-274v1430h274v-560l477 560h342l-532 -572z" />
    <glyph glyph-name="L.cap" unicode="&#xe04c;" horiz-adv-x="1017" 
d="M930 0h-768v1430h274v-1207h494v-223z" />
    <glyph glyph-name="M.cap" unicode="&#xe04d;" horiz-adv-x="1992" 
d="M1788 0h-279q-7 650 -61 1141h-2l-367 -1141h-258l-360 1141h-4q-55 -581 -58 -1141h-254q6 691 99 1430h397l324 -1024h4l327 1024h398q85 -702 94 -1430z" />
    <glyph glyph-name="N.cap" unicode="&#xe04e;" horiz-adv-x="1542" 
d="M1319 0h-350l-559 1061h-4v-1061h-244v1430h362l547 -1039h4v1039h244v-1430z" />
    <glyph glyph-name="O.cap" unicode="&#xe04f;" horiz-adv-x="1638" 
d="M1483 729q0 -356 -180.5 -557t-522.5 -201q-340 0 -513 185.5t-173 550.5q0 228 80 396.5t239 261.5t382 93q332 0 510 -188.5t178 -540.5zM1192 705q0 120 -21.5 213t-68.5 165t-128.5 110t-195.5 38q-86 0 -154 -26.5t-112 -72t-73 -110t-41.5 -136.5t-12.5 -155
q0 -126 21.5 -220.5t68.5 -166t128.5 -108.5t195.5 -37q87 0 155 26.5t112 72.5t73 111t41 138t12 158z" />
    <glyph glyph-name="P.cap" unicode="&#xe050;" horiz-adv-x="1259" 
d="M1124 995q0 -237 -140.5 -364t-399.5 -127h-148v-504h-274v1430h428q104 0 188 -17q164 -33 255 -140.5t91 -277.5zM836 975q0 87 -39 146t-113 81q-53 15 -115 15h-133v-500h162q118 0 178 70t60 188z" />
    <glyph glyph-name="Q.cap" unicode="&#xe051;" horiz-adv-x="1646" 
d="M1567 -10l-146 -148l-245 232q-159 -103 -396 -103q-340 0 -513 185.5t-173 550.5q0 228 80 396.5t239 261.5t382 93q332 0 510 -188.5t178 -540.5q0 -323 -148 -518zM1192 705q0 120 -21.5 213t-68.5 165t-128.5 110t-195.5 38q-86 0 -154 -26.5t-112 -72t-73 -110
t-41.5 -136.5t-12.5 -155q0 -126 21.5 -220.5t68.5 -166t128.5 -108.5t195.5 -37q113 0 190 55l-219 207l145 149l213 -204q64 116 64 299z" />
    <glyph glyph-name="R.cap" unicode="&#xe052;" horiz-adv-x="1316" 
d="M1198 0h-319l-308 592h-135v-592h-274v1430h461q233 0 364 -99.5t131 -288.5q0 -149 -74 -246t-202 -139zM829 1016q0 88 -56.5 144.5t-178.5 56.5h-158v-418h135q126 0 192 59.5t66 157.5z" />
    <glyph glyph-name="S.cap" unicode="&#xe053;" horiz-adv-x="1130" 
d="M993 430q0 -149 -72.5 -254.5t-194.5 -155t-282 -49.5q-166 0 -352 52l31 227q161 -53 319 -53q130 0 195 50.5t65 145.5q0 36 -12.5 65.5t-31.5 51t-56 43.5t-71.5 37.5t-92.5 38.5q-83 34 -141 69t-105 84t-70.5 114t-23.5 148q0 193 138.5 303.5t355.5 110.5
q176 0 315 -51l-41 -213q-124 45 -272 45q-99 0 -152 -43.5t-53 -118.5q0 -36 11.5 -65.5t29 -50.5t50 -41.5t61 -34.5t75.5 -33q52 -22 83 -36t76 -38t72 -45.5t58 -53.5t48 -67t28.5 -81.5t11.5 -100.5z" />
    <glyph glyph-name="T.cap" unicode="&#xe054;" horiz-adv-x="1179" 
d="M1096 1208h-400v-1208h-274v1208h-399v222h1073v-222z" />
    <glyph glyph-name="U.cap" unicode="&#xe055;" horiz-adv-x="1531" 
d="M1311 537q0 -267 -151 -415.5t-429 -148.5q-272 0 -421.5 138.5t-149.5 406.5v912h274v-889q0 -167 82 -255.5t223 -88.5q142 0 222.5 87t80.5 244v902h269v-893z" />
    <glyph glyph-name="V.cap" unicode="&#xe056;" horiz-adv-x="1419" 
d="M1337 1430q-200 -691 -485 -1430h-336q-279 692 -489 1430h315q136 -543 358 -1147l2 2q210 606 353 1145h282z" />
    <glyph glyph-name="W.cap" unicode="&#xe057;" horiz-adv-x="2148" 
d="M2028 1430q-123 -632 -359 -1430h-362l-265 1047h-4l-254 -1047h-368q-228 762 -353 1430h306q99 -589 252 -1133h2l274 1133h313l287 -1133h2q174 667 250 1133h279z" />
    <glyph glyph-name="X.cap" unicode="&#xe058;" horiz-adv-x="1370" 
d="M1288 0h-342l-299 543l-301 -543h-330l447 741l-404 689h330l270 -486l267 486h319l-403 -682z" />
    <glyph glyph-name="Y.cap" unicode="&#xe059;" horiz-adv-x="1286" 
d="M1212 1430q-199 -480 -458 -855v-575h-275v575q-260 386 -467 855h316q124 -326 303 -615q170 282 280 615h301z" />
    <glyph glyph-name="Z.cap" unicode="&#xe05a;" horiz-adv-x="1138" 
d="M1012 0h-955v213l635 999h-608v218h915v-220l-630 -993h643v-217z" />
    <glyph glyph-name="bracketleft.cap" unicode="&#xe05b;" horiz-adv-x="729" 
d="M623 -307h-445v1929h445v-188h-197v-1553h197v-188z" />
    <glyph glyph-name="bracketright.cap" unicode="&#xe05d;" horiz-adv-x="729" 
d="M549 -307h-443v188h197v1553h-197v188h443v-1929z" />
    <glyph glyph-name="braceleft.cap" unicode="&#xe07b;" horiz-adv-x="765" 
d="M682 -303q-59 -16 -129 -16q-162 0 -225.5 100.5t-63.5 314.5v240q0 116 -48 180.5t-140 67.5v194q91 3 139.5 68t48.5 180v193q0 214 64 314.5t225 100.5q70 0 129 -16v-184h-72q-59 0 -80.5 -43.5t-21.5 -173.5v-185q0 -136 -53 -230t-170 -120q80 -18 131 -71.5
t71.5 -122.5t20.5 -156v-234q0 -130 21.5 -173.5t80.5 -43.5h72v-184z" />
    <glyph glyph-name="bar.cap" unicode="&#xe07c;" horiz-adv-x="1069" 
d="M657 -356h-245v1978h245v-1978z" />
    <glyph glyph-name="braceright.cap" unicode="&#xe07d;" horiz-adv-x="765" 
d="M731 584q-91 -3 -138.5 -67t-47.5 -181v-240q0 -214 -64.5 -314.5t-226.5 -100.5q-71 0 -127 16v184h70q60 0 82 43.5t22 173.5v234q0 87 20.5 156t71.5 122.5t131 71.5q-117 26 -170 120t-53 230v185q0 130 -22 173.5t-82 43.5h-70v184q56 16 127 16q164 0 227.5 -100
t63.5 -315v-193q0 -115 47.5 -180t138.5 -68v-194z" />
    <glyph glyph-name="Adieresis.cap" unicode="&#xe080;" horiz-adv-x="1460" 
d="M1362 0h-311q-16 52 -48.5 165.5t-48.5 168.5h-544q-65 -211 -99 -334h-274q210 701 493 1430h328q286 -721 504 -1430zM893 545q-71 221 -211 616l-2 -2q-126 -351 -211 -614h424zM1042 1657q0 -56 -36 -91.5t-93 -35.5q-55 0 -91 36t-36 91q0 57 35.5 93t91.5 36
q57 0 93 -36t36 -93zM594 1657q0 -56 -36 -91.5t-93 -35.5q-55 0 -91 36t-36 91q0 57 35.5 93t91.5 36q57 0 93 -36t36 -93z" />
    <glyph glyph-name="Aring.cap" unicode="&#xe081;" horiz-adv-x="1460" 
d="M944 1554q0 -102 -74 -157q276 -693 492 -1397h-311q-16 52 -48.5 165.5t-48.5 168.5h-544q-65 -211 -99 -334h-274q213 712 479 1395q-63 48 -63 147q0 104 64.5 163.5t184.5 59.5q117 0 179.5 -55.5t62.5 -155.5zM893 545q-71 221 -211 616l-2 -2q-126 -351 -211 -614
h424zM791 1546q0 109 -95 109q-45 0 -68.5 -28.5t-23.5 -74.5q0 -111 96 -108q44 -1 67.5 26.5t23.5 75.5z" />
    <glyph glyph-name="Ccedilla.cap" unicode="&#xe082;" horiz-adv-x="1259" 
d="M934 -227q0 -73 -60.5 -111.5t-173.5 -38.5q-117 0 -217 35v147h185q51 0 51 19t-12 43l-56 119q-264 31 -410.5 213t-146.5 495q0 356 185.5 558t494.5 202q205 0 375 -80l-82 -213q-136 62 -287 62q-182 0 -287.5 -140.5t-105.5 -367.5q0 -252 113 -379t311 -127
q141 0 276 61l68 -211q-128 -62 -303 -79l35 -66q47 -84 47 -141z" />
    <glyph glyph-name="Eacute.cap" unicode="&#xe083;" horiz-adv-x="1181" 
d="M1001 0h-839v1430h831v-218h-559v-366h484v-213h-484v-416h567v-217zM870 1661l-407 -139l-74 131l387 184z" />
    <glyph glyph-name="Ntilde.cap" unicode="&#xe084;" horiz-adv-x="1542" 
d="M1319 0h-350l-559 1061h-4v-1061h-244v1430h362l547 -1039h4v1039h244v-1430zM1124 1724q-31 -89 -96.5 -137.5t-153.5 -48.5q-49 0 -91.5 13t-66.5 29t-56.5 29t-65.5 13q-72 0 -117 -96l-125 76q31 90 96 139t152 49q50 0 92 -13t67 -29t57.5 -29t64.5 -13q72 0 118 94
z" />
    <glyph glyph-name="Odieresis.cap" unicode="&#xe085;" horiz-adv-x="1638" 
d="M1483 729q0 -356 -180.5 -557t-522.5 -201q-340 0 -513 185.5t-173 550.5q0 228 80 396.5t239 261.5t382 93q332 0 510 -188.5t178 -540.5zM1192 705q0 120 -21.5 213t-68.5 165t-128.5 110t-195.5 38q-86 0 -154 -26.5t-112 -72t-73 -110t-41.5 -136.5t-12.5 -155
q0 -126 21.5 -220.5t68.5 -166t128.5 -108.5t195.5 -37q87 0 155 26.5t112 72.5t73 111t41 138t12 158zM1139 1657q0 -56 -36 -91.5t-93 -35.5q-56 0 -91.5 36t-35.5 91q0 57 35.5 93t91.5 36q57 0 93 -36t36 -93zM690 1657q0 -56 -36 -91.5t-93 -35.5q-55 0 -91 36t-36 91
q0 57 35.5 93t91.5 36q57 0 93 -36t36 -93z" />
    <glyph glyph-name="Udieresis.cap" unicode="&#xe086;" horiz-adv-x="1531" 
d="M1311 537q0 -267 -151 -415.5t-429 -148.5q-272 0 -421.5 138.5t-149.5 406.5v912h274v-889q0 -167 82 -255.5t223 -88.5q142 0 222.5 87t80.5 244v902h269v-893zM1090 1657q0 -56 -36 -91.5t-93 -35.5q-55 0 -91 36t-36 91q0 57 35.5 93t91.5 36q57 0 93 -36t36 -93z
M641 1657q0 -56 -36 -91.5t-93 -35.5q-56 0 -91.5 36t-35.5 91q0 57 35.5 93t91.5 36q57 0 93 -36t36 -93z" />
    <glyph glyph-name="cent.sc" unicode="&#xe0a2;" 
d="M1018 281q-132 -80 -260 -93v-188h-199v188q-194 23 -304 151t-110 337t114 343.5t300 162.5v184h199v-176q137 -13 246 -80l-74 -190q-103 67 -242 67q-111 0 -191.5 -82.5t-80.5 -212.5q0 -139 78 -222t211 -83q123 0 245 78z" />
    <glyph glyph-name="sterling.sc" unicode="&#xe0a3;" 
d="M1030 0h-913v190q99 99 139.5 189.5t26.5 220.5h-191v186h150q-25 146 -25 213q0 184 118 288t347 104q150 0 281 -27v-203q-135 27 -252 27q-124 0 -177 -44.5t-53 -139.5q0 -77 29 -218h373v-186h-338q23 -233 -133 -383h618v-217z" />
    <glyph glyph-name="germandbls.sc" unicode="&#xe0a7;" horiz-adv-x="2033" 
d="M913 360q0 -101 -40.5 -177t-110 -119.5t-152.5 -65t-178 -21.5q-160 0 -313 39l33 224q139 -47 284 -47q95 0 143 37.5t48 105.5q0 55 -40 91.5t-161 86.5q-167 63 -238 144.5t-71 207.5q0 116 60 198.5t155 120.5t215 38q174 0 305 -47l-49 -207q-128 45 -254 45
q-74 0 -111 -35.5t-37 -93.5q0 -48 36.5 -81t148.5 -79q170 -65 248.5 -147.5t78.5 -217.5zM1929 360q0 -101 -40.5 -177t-110 -119.5t-152.5 -65t-178 -21.5q-160 0 -313 39l32 224q139 -47 285 -47q95 0 142.5 37.5t47.5 105.5q0 55 -40 91.5t-160 86.5
q-167 63 -238 144.5t-71 207.5q0 116 60 198.5t155 120.5t215 38q174 0 305 -47l-49 -207q-128 45 -254 45q-74 0 -111 -35.5t-37 -93.5q0 -48 36.5 -81t148.5 -79q170 -65 248.5 -147.5t78.5 -217.5z" />
    <glyph glyph-name="AE.cap" unicode="&#xe0ae;" horiz-adv-x="1861" 
d="M1681 0h-839v305h-463q-71 -157 -135 -305h-269q303 680 711 1430h977v-218h-549v-366h483v-213h-483v-416h567v-217zM842 516v703h-11q-230 -443 -360 -703h371z" />
    <glyph glyph-name="Oslash.cap" unicode="&#xe0af;" horiz-adv-x="1638" 
d="M1483 729q0 -356 -181 -557t-524 -201q-133 0 -252 39l-129 -248l-166 80l125 238q-262 176 -262 622q0 227 80.5 396t240 264.5t380.5 95.5q144 0 270 -49l113 217l165 -80l-112 -213q252 -183 252 -604zM1206 705q0 249 -102 376l-469 -864q73 -29 164 -29
q90 0 160 27.5t116 74t76 113.5t42.5 141t12.5 161zM958 1202q-73 37 -180 37q-86 0 -154.5 -26.5t-115 -73t-77.5 -111.5t-44.5 -139t-13.5 -158q0 -271 112 -399z" />
    <glyph glyph-name="yen.sc" unicode="&#xe0b4;" 
d="M1081 1366q-152 -349 -383 -684v-29h297v-157h-297v-164h297v-158h-297v-174h-266v174h-295v158h295v164h-295v157h295v29q-219 329 -389 684h274q111 -247 261 -479q124 192 239 479h264z" />
    <glyph glyph-name="ordfeminine.cap" unicode="&#xe0bb;" horiz-adv-x="1017" 
d="M885 328h-746v182h746v-182zM936 659h-225q-14 51 -49 164h-314q-15 -47 -51 -164h-209q127 395 285 775h274q160 -376 289 -775zM612 969q-39 123 -108 309q-43 -112 -109 -309h217z" />
    <glyph glyph-name="ordmasculine.cap" unicode="&#xe0bc;" horiz-adv-x="1028" 
d="M879 328h-729v182h729v-182zM930 1055q0 -191 -112 -304.5t-308 -113.5q-199 0 -305.5 103.5t-106.5 299.5q0 188 112 301t308 113q202 0 307 -107.5t105 -291.5zM711 1040q0 114 -49 183t-152 69q-94 0 -143.5 -67t-49.5 -170q0 -254 203 -254q95 0 143 67t48 172z" />
    <glyph glyph-name="nbspace" unicode="&#xe0ca;" horiz-adv-x="552" 
 />
    <glyph glyph-name="Agrave.cap" unicode="&#xe0cb;" horiz-adv-x="1460" 
d="M1362 0h-311q-16 52 -48.5 165.5t-48.5 168.5h-544q-65 -211 -99 -334h-274q210 701 493 1430h328q286 -721 504 -1430zM893 545q-71 221 -211 616l-2 -2q-126 -351 -211 -614h424zM811 1653l-72 -131l-409 139l94 176z" />
    <glyph glyph-name="Atilde.cap" unicode="&#xe0cc;" horiz-adv-x="1460" 
d="M1362 0h-311q-16 52 -48.5 165.5t-48.5 168.5h-544q-65 -211 -99 -334h-274q210 701 493 1430h328q286 -721 504 -1430zM893 545q-71 221 -211 616l-2 -2q-126 -351 -211 -614h424zM1067 1724q-31 -89 -96.5 -137.5t-153.5 -48.5q-49 0 -91.5 13t-66.5 29t-56.5 29
t-65.5 13q-72 0 -117 -96l-125 76q31 90 96 139t152 49q50 0 92 -13t66.5 -29t57 -29t64.5 -13q73 0 119 94z" />
    <glyph glyph-name="Otilde.cap" unicode="&#xe0cd;" horiz-adv-x="1638" 
d="M1483 729q0 -356 -180.5 -557t-522.5 -201q-340 0 -513 185.5t-173 550.5q0 228 80 396.5t239 261.5t382 93q332 0 510 -188.5t178 -540.5zM1192 705q0 120 -21.5 213t-68.5 165t-128.5 110t-195.5 38q-86 0 -154 -26.5t-112 -72t-73 -110t-41.5 -136.5t-12.5 -155
q0 -126 21.5 -220.5t68.5 -166t128.5 -108.5t195.5 -37q87 0 155 26.5t112 72.5t73 111t41 138t12 158zM1165 1724q-31 -89 -96.5 -137.5t-153.5 -48.5q-49 0 -91.5 13t-66.5 29t-56.5 29t-65.5 13q-72 0 -117 -96l-125 76q31 90 96 139t152 49q50 0 92 -13t67 -29t57.5 -29
t64.5 -13q72 0 118 94z" />
    <glyph glyph-name="OE.cap" unicode="&#xe0ce;" horiz-adv-x="2002" 
d="M1821 0h-817q-150 -25 -224 -25q-686 0 -686 732q0 347 182.5 547t520.5 200q87 0 213 -24h802v-218h-557v-366h482v-213h-482v-416h566v-217zM983 242v944q-103 43 -203 43q-108 0 -186.5 -39.5t-123 -110t-65 -157t-20.5 -191.5q0 -257 96.5 -393.5t319.5 -136.5
q90 0 182 41z" />
    <glyph glyph-name="quotedblleft.cap" unicode="&#xe0d2;" horiz-adv-x="976" 
d="M915 1583q-66 -62 -95.5 -106.5t-28 -75.5t13.5 -53.5t27.5 -56t15.5 -68.5q0 -60 -42.5 -103t-103.5 -43q-81 0 -125 70q-54 86 -12 214q55 164 252 318zM496 1591q-67 -64 -98 -110.5t-29.5 -78t13 -54.5t27 -56.5t15.5 -68.5q0 -60 -42 -103t-103 -43q-81 0 -125 70
q-55 87 -12 216q55 167 253 325z" />
    <glyph glyph-name="quotedblright.cap" unicode="&#xe0d3;" horiz-adv-x="976" 
d="M696 1622q81 0 125 -70q55 -87 13 -216q-55 -166 -254 -324l-101 98q67 64 98 110t29.5 77.5t-13 54.5t-27 56.5t-15.5 68.5q0 60 42 102.5t103 42.5zM272 1622q81 0 125 -69q55 -86 14 -213q-54 -165 -253 -320l-99 98q66 61 95.5 105.5t28 75.5t-13 53.5t-27 56
t-15.5 68.5q0 60 42 102.5t103 42.5z" />
    <glyph glyph-name="quoteleft.cap" unicode="&#xe0d4;" horiz-adv-x="563" 
d="M512 1602q-135 -144 -135 -216q0 -23 28.5 -72t28.5 -100q0 -68 -41.5 -111.5t-111.5 -43.5q-84 0 -129 73q-56 89 -12 224q57 176 263 344z" />
    <glyph glyph-name="quoteright.cap" unicode="&#xe0d5;" horiz-adv-x="563" 
d="M283 1638q84 0 129 -73q55 -90 11 -226q-58 -175 -263 -344l-109 101q135 141 135 213q0 23 -15 47.5t-29.5 56t-14.5 70.5q0 67 43 111t113 44z" />
    <glyph glyph-name="Ydieresis.cap" unicode="&#xe0d9;" horiz-adv-x="1286" 
d="M1212 1430q-199 -480 -458 -855v-575h-275v575q-260 386 -467 855h316q124 -326 303 -615q170 282 280 615h301zM973 1657q0 -56 -36 -91.5t-93 -35.5q-56 0 -91.5 36t-35.5 91q0 57 35.5 93t91.5 36q57 0 93 -36t36 -93zM524 1657q0 -56 -36 -91.5t-93 -35.5
q-55 0 -91 36t-36 91q0 57 35.5 93t91.5 36q57 0 93 -36t36 -93z" />
    <glyph glyph-name="Euro.sc" unicode="&#xe0db;" 
d="M1047 45q-143 -70 -320 -70q-235 0 -368.5 105.5t-176.5 327.5h-141v157h127q-2 35 -2 103q0 69 2 104h-127v156h147q44 226 182.5 344.5t360.5 118.5q165 0 303 -74l-71 -182q-106 49 -222 49q-233 0 -284 -256h356v-156h-377q-4 -66 -4 -90q0 -35 4 -117h377v-157h-352
q45 -226 293 -226q127 0 227 54z" />
    <glyph glyph-name="Fsmall_Ismall" unicode="&#xe0de;" horiz-adv-x="1603" 
d="M874 995h-421v-311h374v-205h-374v-479h-271v1200h692v-205zM1423 0h-270v1200h270v-1200z" />
    <glyph glyph-name="Fsmall_Lsmall" unicode="&#xe0df;" horiz-adv-x="1902" 
d="M874 995h-421v-311h374v-205h-374v-479h-271v1200h692v-205zM1851 0h-700v1200h270v-989h430v-211z" />
    <glyph glyph-name="Acircumflex.cap" unicode="&#xe0e5;" horiz-adv-x="1460" 
d="M1362 0h-311q-16 52 -48.5 165.5t-48.5 168.5h-544q-65 -211 -99 -334h-274q210 701 493 1430h328q286 -721 504 -1430zM893 545q-71 221 -211 616l-2 -2q-126 -351 -211 -614h424zM1004 1653l-68 -127l-248 116l-244 -116l-65 125l311 180z" />
    <glyph glyph-name="Ecircumflex.cap" unicode="&#xe0e6;" horiz-adv-x="1181" 
d="M1001 0h-839v1430h831v-218h-559v-366h484v-213h-484v-416h567v-217zM883 1653l-68 -127l-248 116l-243 -116l-66 125l311 180z" />
    <glyph glyph-name="Aacute.cap" unicode="&#xe0e7;" horiz-adv-x="1460" 
d="M1362 0h-311q-16 52 -48.5 165.5t-48.5 168.5h-544q-65 -211 -99 -334h-274q210 701 493 1430h328q286 -721 504 -1430zM893 545q-71 221 -211 616l-2 -2q-126 -351 -211 -614h424zM1024 1661l-408 -139l-73 131l387 184z" />
    <glyph glyph-name="Edieresis.cap" unicode="&#xe0e8;" horiz-adv-x="1181" 
d="M1001 0h-839v1430h831v-218h-559v-366h484v-213h-484v-416h567v-217zM930 1657q0 -56 -36 -91.5t-93 -35.5q-55 0 -91 36t-36 91q0 57 35.5 93t91.5 36q57 0 93 -36t36 -93zM481 1657q0 -56 -36 -91.5t-93 -35.5q-56 0 -91.5 36t-35.5 91q0 57 35.5 93t91.5 36
q57 0 93 -36t36 -93z" />
    <glyph glyph-name="Egrave.cap" unicode="&#xe0e9;" horiz-adv-x="1181" 
d="M1001 0h-839v1430h831v-218h-559v-366h484v-213h-484v-416h567v-217zM715 1653l-72 -131l-410 139l95 176z" />
    <glyph glyph-name="Iacute.cap" unicode="&#xe0ea;" horiz-adv-x="659" 
d="M436 0h-274v1430h274v-1430zM584 1661l-408 -139l-74 131l387 184z" />
    <glyph glyph-name="Icircumflex.cap" unicode="&#xe0eb;" horiz-adv-x="659" 
d="M436 0h-274v1430h274v-1430zM612 1653l-67 -127l-248 116l-244 -116l-65 125l311 180z" />
    <glyph glyph-name="Idieresis.cap" unicode="&#xe0ec;" horiz-adv-x="659" 
d="M436 0h-274v1430h274v-1430zM631 1657q0 -56 -36 -91.5t-93 -35.5q-56 0 -91.5 36t-35.5 91q0 57 35.5 93t91.5 36q57 0 93 -36t36 -93zM231 1657q0 -56 -36 -91.5t-93 -35.5q-56 0 -91.5 36t-35.5 91q0 57 35.5 93t91.5 36q57 0 93 -36t36 -93z" />
    <glyph glyph-name="Igrave.cap" unicode="&#xe0ed;" horiz-adv-x="659" 
d="M436 0h-274v1430h274v-1430zM481 1653l-71 -131l-410 139l94 176z" />
    <glyph glyph-name="Oacute.cap" unicode="&#xe0ee;" horiz-adv-x="1638" 
d="M1483 729q0 -356 -180.5 -557t-522.5 -201q-340 0 -513 185.5t-173 550.5q0 228 80 396.5t239 261.5t382 93q332 0 510 -188.5t178 -540.5zM1192 705q0 120 -21.5 213t-68.5 165t-128.5 110t-195.5 38q-86 0 -154 -26.5t-112 -72t-73 -110t-41.5 -136.5t-12.5 -155
q0 -126 21.5 -220.5t68.5 -166t128.5 -108.5t195.5 -37q87 0 155 26.5t112 72.5t73 111t41 138t12 158zM1145 1661l-408 -139l-73 131l387 184z" />
    <glyph glyph-name="Ocircumflex.cap" unicode="&#xe0ef;" horiz-adv-x="1638" 
d="M1483 729q0 -356 -180.5 -557t-522.5 -201q-340 0 -513 185.5t-173 550.5q0 228 80 396.5t239 261.5t382 93q332 0 510 -188.5t178 -540.5zM1192 705q0 120 -21.5 213t-68.5 165t-128.5 110t-195.5 38q-86 0 -154 -26.5t-112 -72t-73 -110t-41.5 -136.5t-12.5 -155
q0 -126 21.5 -220.5t68.5 -166t128.5 -108.5t195.5 -37q87 0 155 26.5t112 72.5t73 111t41 138t12 158zM1102 1653l-68 -127l-248 116l-243 -116l-66 125l311 180z" />
    <glyph glyph-name="apple" unicode="&#xe0f0;" horiz-adv-x="1966" 
d="M1802 1169q0 -8 -4 -8q-21 1 -28.5 1t-28.5 -2t-29 -3q-137 -6 -184 -14q-11 -10 -14.5 -35.5t-6.5 -32.5q0 -7 4 -17.5t5 -13.5q7 -10 28 -14q35 4 47 27q0 13 -14 24q-5 4 -20.5 5.5t-20.5 9.5q4 6 10.5 7.5t18.5 0t16 -1.5q21 -6 31 -33q-3 -31 -37 -55
q-7 -2 -21.5 -5t-21.5 -5q-72 17 -92 49q-4 21 -3.5 31t4.5 29.5t5 29.5q-3 5 -8 7t-11 1t-12 0l-67 -2q0 2 -2.5 4t-2.5 4q5 4 16.5 5t12.5 1q11 -2 24.5 -2t29.5 1t24 1q10 8 10 35q3 6 7 30t12 32q9 2 12 1t8.5 -7.5t7.5 -8.5q7 -11 7 -35.5t4 -38.5q4 -7 13 -8.5
t16.5 0.5t15.5 0q4 0 86.5 3t144.5 10q6 -3 8 -7zM1333 1032l-6 -4q-71 0 -104 -10q-2 1 -7 2.5t-8 2.5t-6.5 4t-5.5 7q12 77 2 115q-2 2 -4.5 2.5t-6 -1t-6.5 -3t-6.5 -3.5t-5.5 -3q-80 -49 -84 -99q-19 -19 -38 -10q-8 10 -6.5 31t-0.5 33l-2 63q-4 4 -16 3.5t-21 0.5
q-2 1 -8 1.5t-10 2.5t-4 7q14 -1 52.5 2.5t53.5 -0.5q7 -6 6 -30t13 -26q17 7 51.5 29t54.5 29q5 -3 26 -3t24 -16q4 -17 4 -48.5v-39.5q1 -3 2 -12t6 -12q19 -4 26 0q5 0 16.5 -2.5t18.5 -2.5q5 -5 0 -10zM915 1145q6 -41 -14 -64q-10 -6 -26 -20t-30 -22.5t-30 -10.5
q-8 3 -14 -6t-13 -4q-2 6 -24.5 4t-26.5 -2q-29 0 -43 6q-33 30 -38 47q-3 14 1 27q13 42 50 61q4 2 17.5 9t18 9t19 7t20.5 3.5t21 -1.5q91 -4 112 -43zM926 1360q-10 -12 -27.5 -17t-32.5 0q-26 35 -28 50q-12 19 -33 32.5t-37 18.5t-47.5 12t-42.5 10l-64 4
q-3 -3 -12 -2.5t-14 -1.5q-63 -19 -113 -43q-2 -3 -27.5 -23t-27.5 -38q-19 -49 -23 -143q5 -4 13 -5t17.5 0t14.5 0q48 5 176 5q8 -4 3 -15q-10 -10 -32 -1t-32 5q-13 1 -42 -1t-42 -1q-7 -1 -24 -2.5t-29 -4t-21 -7.5l-6 -8q-4 -50 2 -129q1 -4 0.5 -29t7.5 -29
q39 -2 77.5 2t64.5 5q3 2 6.5 2t6.5 -0.5t7 -2t6 -2.5q1 -1 1 -4t1 -4l-8 -4q-25 7 -80 0t-94 -4q-75 -5 -94 -4q-91 -4 -131 6l-4 6q7 7 18 11q7 -4 17.5 -6.5t18.5 -3.5t22.5 -2.5t21.5 -2.5q5 1 17.5 1t21 1.5t14.5 5.5q-1 39 10 101.5t13 89.5q-2 4 -6 8q-12 1 -37.5 0
t-43 1t-34.5 9q-1 4 1 7.5t5 3.5q41 -11 115 -7l4 7q12 92 31 135v6q95 112 243 127q62 8 144 -27q5 -2 19.5 -3.5t21.5 -4.5q86 -18 127 -72q4 -4 0 -18zM1579 -119l-8 -8q-27 2 -98 -5t-101 -3q-64 3 -213 -7t-231 -1q-19 -3 -39 -4t-42 0t-36.5 2t-41.5 4t-38 4
q-36 3 -75.5 3.5t-94.5 -0.5t-78 -1q-135 0 -204 -17q-24 -5 -31 9q0 9 -1.5 40.5t0 52.5t7.5 40q2 20 2 77t4 87q-5 30 -1 91t-1 91q0 51 6.5 146t7.5 122q3 52 1.5 146.5t0.5 146.5q6 14 24 13.5t30 0.5q5 -8 37.5 -5t37.5 3q25 24 27 2q1 -2 0.5 -12t5.5 -12
q-3 -72 -2 -112t8 -151.5t9 -148.5q45 14 121 57.5t116 57.5q6 2 19.5 11.5t23.5 12.5q1 0 5 4t7 4.5t9 -1.5q5 -2 7 -6.5t1.5 -8.5t-1.5 -10.5t-1 -9.5q-19 -60 -10 -125q3 -5 7.5 -5.5t11.5 1.5t9 2q13 10 37 24.5t33 20.5q57 34 84 43q5 4 19 13.5t20.5 14t17.5 11.5
t21 12t20 8l41 33q3 8 12 14q7 0 23 -12q0 -19 6 -58t6 -59q1 -4 6 -4.5t6 -3.5q4 -5 4 -11t-1 -10t-3.5 -11t-3.5 -9l4 -4q47 10 125 65t123 66q6 6 22 13t23 14q10 1 25 13.5t24 16.5t29 -6q11 0 14 -8q-1 -5 0 -8.5t4.5 -8.5t4.5 -7q-3 -9 -0.5 -29.5t-3.5 -26.5
q1 -10 0 -32.5t1 -37.5t9 -28q-2 -8 5 -25t-1 -22q1 -11 0 -19.5t1 -18.5t7 -17q5 -29 -2 -37q2 -10 5 -43.5t9 -51.5q-3 -4 -3 -9.5t1.5 -12.5t1.5 -10q0 -53 12 -152t13 -149l3 -9q2 -9 -1 -10zM870 1104q-13 63 -53 70q-2 -6 -7 -7.5t-12 0t-10 0.5q-14 6 -29 2.5
t-24 -14.5q-5 -7 -8 -13.5t-3 -14t-0.5 -12.5t2.5 -13.5t4 -12.5t7 -13t7.5 -11.5t8 -13t7.5 -11.5q2 -4 6 -5.5t8.5 -0.5t9.5 0q13 -1 18 0t17.5 7.5t16.5 7.5q2 2 16.5 13t18.5 20t-1 22zM1513 -20q-21 48 -36 65q-5 9 -17 26.5t-19 31.5t-9 30q-2 3 -5.5 9t-5 8.5t-3 8.5
t0.5 9q10 12 35 28t33 25l-19 35q-15 -1 -38 -10t-25 -10t-8 -6t-10 -7.5t-10 -2.5t-11 5q4 108 2 160l-4 6q-10 0 -55 15q-9 -72 -6 -99q-4 -11 -2 -40t-3 -40q2 -38 -2.5 -106.5t0.5 -104.5l-2 -14h49q3 1 13.5 -2t11.5 2q0 37 -2 57q1 6 -3 21t-2 24t15 13
q8 -3 12.5 -15.5t6.5 -15.5q-1 -10 9 -25.5t11 -21.5q14 -8 31 -34t29 -34q3 1 11 -2.5t15 -1.5q4 0 8 4t4 9zM1245 367q-8 23 -24 30q-5 5 -11.5 5.5t-9.5 -5.5q-10 -13 -13 -30.5t5 -30.5q3 -10 16 -11.5t23 3.5q18 12 14 39zM1249 31q0 27 -2 79t-2 76q0 6 1 17.5t1 20.5
t-2 16q-12 6 -18.5 5.5t-19 -3.5t-19.5 -2q-8 -14 -9.5 -33t0 -35t-0.5 -35q-2 -3 -7 -53q1 -6 1.5 -40t11.5 -50q31 0 61 10q4 8 4 27zM1147 252q-1 0 -7.5 -0.5t-9 -1t-8 -1.5t-8.5 -2t-8 -3t-8 -4.5t-6.5 -6t-6.5 -8.5q-3 -3 -6 -14t-8 -17.5t-16 -3.5q-4 13 -4 60
q-5 3 -15.5 0t-15.5 0q-15 -8 -23 -27q0 -139 9 -227l6 -8q7 -6 24.5 -2.5t22.5 0.5q-4 15 -1.5 43t-2.5 41q12 63 32 90q7 6 26.5 12.5t27.5 13.5q1 8 4 22.5t3.5 21.5t-1.5 22zM938 61q6 11 9 24.5t4.5 22.5t-0.5 26.5t-3 24t-5 27.5t-5 25q2 7 -9 15t-25 14.5t-17 9.5
q-3 4 -9.5 4t-7.5 -6q-23 3 -39 -8q-8 -4 -16 -16t-12 -15q-10 -7 -19 6q10 49 -6 152l-4 14h-16q-11 -4 -14.5 -12.5t-3 -21t-1.5 -17.5q-4 -23 -4 -70t-4 -70q2 -23 0 -67t0 -64q0 -10 -2.5 -34t-1.5 -39q18 -10 64 10q16 3 21.5 0t14 -14.5t13.5 -14.5q16 0 26 2
q25 14 49 41.5t23 50.5zM682 70q-8 25 -5.5 90t-14.5 84q-17 11 -48 24l-16 11q-13 -2 -23.5 -1t-23 -1t-21.5 -9q-6 -4 -9.5 -10.5t-4.5 -11.5t-1.5 -16t-0.5 -15q16 -6 32 -2t33.5 1.5t26.5 -17.5q-1 -4 3 -12.5t-1 -12.5q-6 -11 2 -16q3 -4 1.5 -11t-7.5 -8
q-10 -3 -29 -3.5t-28 -2.5q-38 -15 -51 -76q-4 -7 -1.5 -22.5t-2.5 -20.5q0 -22 30 -35q11 11 17 5q10 -3 19.5 2t21.5 15.5t18 14.5q13 3 14.5 -5t-1 -18.5t4.5 -17.5q4 -5 16.5 -0.5t16.5 4.5q3 1 10 3t12 4t9 6zM508 371q-26 5 -107 0q-36 -4 -55 -17q-1 -25 -7 -72.5
t-7 -60.5q3 -39 2.5 -112t1.5 -113q3 0 15.5 2.5t13.5 -0.5q7 2 23.5 -1.5t23.5 1.5q1 22 2 65t2 64q5 11 33 25q4 2 15.5 0.5t14.5 5.5l-2 57q-4 4 -9.5 6t-9.5 2.5t-12.5 0t-11.5 -0.5q-8 -8 -14 -8q-9 2 -12 9.5t-4 19t-3 16.5q-4 8 9 21q29 9 79 16l13 8q-2 14 2 35.5
t4 30.5zM881 158q13 -30 7.5 -60.5t-26.5 -52.5q-2 -3 -5 -5.5t-6 -3.5t-7 -2.5t-6 -2.5q-12 1 -19.5 9t-9.5 15.5t-4.5 22.5t-3.5 20q1 5 5 30t11 36q7 4 18.5 20.5t24.5 16.5l6 -6q-3 -10 5.5 -21t9.5 -16zM604 86q0 -22 -29 -47l-13 -7q-13 -6 -21 -1q-8 2 -9.5 7.5t2 17
t3.5 12.5q0 13 18 20q12 0 20 8q2 0 9 -0.5t12 -2.5t8 -7z" />
    <glyph glyph-name="apple" unicode="&#xf000;" horiz-adv-x="1966" 
d="M1802 1169q0 -8 -4 -8q-21 1 -28.5 1t-28.5 -2t-29 -3q-137 -6 -184 -14q-11 -10 -14.5 -35.5t-6.5 -32.5q0 -7 4 -17.5t5 -13.5q7 -10 28 -14q35 4 47 27q0 13 -14 24q-5 4 -20.5 5.5t-20.5 9.5q4 6 10.5 7.5t18.5 0t16 -1.5q21 -6 31 -33q-3 -31 -37 -55
q-7 -2 -21.5 -5t-21.5 -5q-72 17 -92 49q-4 21 -3.5 31t4.5 29.5t5 29.5q-3 5 -8 7t-11 1t-12 0l-67 -2q0 2 -2.5 4t-2.5 4q5 4 16.5 5t12.5 1q11 -2 24.5 -2t29.5 1t24 1q10 8 10 35q3 6 7 30t12 32q9 2 12 1t8.5 -7.5t7.5 -8.5q7 -11 7 -35.5t4 -38.5q4 -7 13 -8.5
t16.5 0.5t15.5 0q4 0 86.5 3t144.5 10q6 -3 8 -7zM1333 1032l-6 -4q-71 0 -104 -10q-2 1 -7 2.5t-8 2.5t-6.5 4t-5.5 7q12 77 2 115q-2 2 -4.5 2.5t-6 -1t-6.5 -3t-6.5 -3.5t-5.5 -3q-80 -49 -84 -99q-19 -19 -38 -10q-8 10 -6.5 31t-0.5 33l-2 63q-4 4 -16 3.5t-21 0.5
q-2 1 -8 1.5t-10 2.5t-4 7q14 -1 52.5 2.5t53.5 -0.5q7 -6 6 -30t13 -26q17 7 51.5 29t54.5 29q5 -3 26 -3t24 -16q4 -17 4 -48.5v-39.5q1 -3 2 -12t6 -12q19 -4 26 0q5 0 16.5 -2.5t18.5 -2.5q5 -5 0 -10zM915 1145q6 -41 -14 -64q-10 -6 -26 -20t-30 -22.5t-30 -10.5
q-8 3 -14 -6t-13 -4q-2 6 -24.5 4t-26.5 -2q-29 0 -43 6q-33 30 -38 47q-3 14 1 27q13 42 50 61q4 2 17.5 9t18 9t19 7t20.5 3.5t21 -1.5q91 -4 112 -43zM926 1360q-10 -12 -27.5 -17t-32.5 0q-26 35 -28 50q-12 19 -33 32.5t-37 18.5t-47.5 12t-42.5 10l-64 4
q-3 -3 -12 -2.5t-14 -1.5q-63 -19 -113 -43q-2 -3 -27.5 -23t-27.5 -38q-19 -49 -23 -143q5 -4 13 -5t17.5 0t14.5 0q48 5 176 5q8 -4 3 -15q-10 -10 -32 -1t-32 5q-13 1 -42 -1t-42 -1q-7 -1 -24 -2.5t-29 -4t-21 -7.5l-6 -8q-4 -50 2 -129q1 -4 0.5 -29t7.5 -29
q39 -2 77.5 2t64.5 5q3 2 6.5 2t6.5 -0.5t7 -2t6 -2.5q1 -1 1 -4t1 -4l-8 -4q-25 7 -80 0t-94 -4q-75 -5 -94 -4q-91 -4 -131 6l-4 6q7 7 18 11q7 -4 17.5 -6.5t18.5 -3.5t22.5 -2.5t21.5 -2.5q5 1 17.5 1t21 1.5t14.5 5.5q-1 39 10 101.5t13 89.5q-2 4 -6 8q-12 1 -37.5 0
t-43 1t-34.5 9q-1 4 1 7.5t5 3.5q41 -11 115 -7l4 7q12 92 31 135v6q95 112 243 127q62 8 144 -27q5 -2 19.5 -3.5t21.5 -4.5q86 -18 127 -72q4 -4 0 -18zM1579 -119l-8 -8q-27 2 -98 -5t-101 -3q-64 3 -213 -7t-231 -1q-19 -3 -39 -4t-42 0t-36.5 2t-41.5 4t-38 4
q-36 3 -75.5 3.5t-94.5 -0.5t-78 -1q-135 0 -204 -17q-24 -5 -31 9q0 9 -1.5 40.5t0 52.5t7.5 40q2 20 2 77t4 87q-5 30 -1 91t-1 91q0 51 6.5 146t7.5 122q3 52 1.5 146.5t0.5 146.5q6 14 24 13.5t30 0.5q5 -8 37.5 -5t37.5 3q25 24 27 2q1 -2 0.5 -12t5.5 -12
q-3 -72 -2 -112t8 -151.5t9 -148.5q45 14 121 57.5t116 57.5q6 2 19.5 11.5t23.5 12.5q1 0 5 4t7 4.5t9 -1.5q5 -2 7 -6.5t1.5 -8.5t-1.5 -10.5t-1 -9.5q-19 -60 -10 -125q3 -5 7.5 -5.5t11.5 1.5t9 2q13 10 37 24.5t33 20.5q57 34 84 43q5 4 19 13.5t20.5 14t17.5 11.5
t21 12t20 8l41 33q3 8 12 14q7 0 23 -12q0 -19 6 -58t6 -59q1 -4 6 -4.5t6 -3.5q4 -5 4 -11t-1 -10t-3.5 -11t-3.5 -9l4 -4q47 10 125 65t123 66q6 6 22 13t23 14q10 1 25 13.5t24 16.5t29 -6q11 0 14 -8q-1 -5 0 -8.5t4.5 -8.5t4.5 -7q-3 -9 -0.5 -29.5t-3.5 -26.5
q1 -10 0 -32.5t1 -37.5t9 -28q-2 -8 5 -25t-1 -22q1 -11 0 -19.5t1 -18.5t7 -17q5 -29 -2 -37q2 -10 5 -43.5t9 -51.5q-3 -4 -3 -9.5t1.5 -12.5t1.5 -10q0 -53 12 -152t13 -149l3 -9q2 -9 -1 -10zM870 1104q-13 63 -53 70q-2 -6 -7 -7.5t-12 0t-10 0.5q-14 6 -29 2.5
t-24 -14.5q-5 -7 -8 -13.5t-3 -14t-0.5 -12.5t2.5 -13.5t4 -12.5t7 -13t7.5 -11.5t8 -13t7.5 -11.5q2 -4 6 -5.5t8.5 -0.5t9.5 0q13 -1 18 0t17.5 7.5t16.5 7.5q2 2 16.5 13t18.5 20t-1 22zM1513 -20q-21 48 -36 65q-5 9 -17 26.5t-19 31.5t-9 30q-2 3 -5.5 9t-5 8.5t-3 8.5
t0.5 9q10 12 35 28t33 25l-19 35q-15 -1 -38 -10t-25 -10t-8 -6t-10 -7.5t-10 -2.5t-11 5q4 108 2 160l-4 6q-10 0 -55 15q-9 -72 -6 -99q-4 -11 -2 -40t-3 -40q2 -38 -2.5 -106.5t0.5 -104.5l-2 -14h49q3 1 13.5 -2t11.5 2q0 37 -2 57q1 6 -3 21t-2 24t15 13
q8 -3 12.5 -15.5t6.5 -15.5q-1 -10 9 -25.5t11 -21.5q14 -8 31 -34t29 -34q3 1 11 -2.5t15 -1.5q4 0 8 4t4 9zM1245 367q-8 23 -24 30q-5 5 -11.5 5.5t-9.5 -5.5q-10 -13 -13 -30.5t5 -30.5q3 -10 16 -11.5t23 3.5q18 12 14 39zM1249 31q0 27 -2 79t-2 76q0 6 1 17.5t1 20.5
t-2 16q-12 6 -18.5 5.5t-19 -3.5t-19.5 -2q-8 -14 -9.5 -33t0 -35t-0.5 -35q-2 -3 -7 -53q1 -6 1.5 -40t11.5 -50q31 0 61 10q4 8 4 27zM1147 252q-1 0 -7.5 -0.5t-9 -1t-8 -1.5t-8.5 -2t-8 -3t-8 -4.5t-6.5 -6t-6.5 -8.5q-3 -3 -6 -14t-8 -17.5t-16 -3.5q-4 13 -4 60
q-5 3 -15.5 0t-15.5 0q-15 -8 -23 -27q0 -139 9 -227l6 -8q7 -6 24.5 -2.5t22.5 0.5q-4 15 -1.5 43t-2.5 41q12 63 32 90q7 6 26.5 12.5t27.5 13.5q1 8 4 22.5t3.5 21.5t-1.5 22zM938 61q6 11 9 24.5t4.5 22.5t-0.5 26.5t-3 24t-5 27.5t-5 25q2 7 -9 15t-25 14.5t-17 9.5
q-3 4 -9.5 4t-7.5 -6q-23 3 -39 -8q-8 -4 -16 -16t-12 -15q-10 -7 -19 6q10 49 -6 152l-4 14h-16q-11 -4 -14.5 -12.5t-3 -21t-1.5 -17.5q-4 -23 -4 -70t-4 -70q2 -23 0 -67t0 -64q0 -10 -2.5 -34t-1.5 -39q18 -10 64 10q16 3 21.5 0t14 -14.5t13.5 -14.5q16 0 26 2
q25 14 49 41.5t23 50.5zM682 70q-8 25 -5.5 90t-14.5 84q-17 11 -48 24l-16 11q-13 -2 -23.5 -1t-23 -1t-21.5 -9q-6 -4 -9.5 -10.5t-4.5 -11.5t-1.5 -16t-0.5 -15q16 -6 32 -2t33.5 1.5t26.5 -17.5q-1 -4 3 -12.5t-1 -12.5q-6 -11 2 -16q3 -4 1.5 -11t-7.5 -8
q-10 -3 -29 -3.5t-28 -2.5q-38 -15 -51 -76q-4 -7 -1.5 -22.5t-2.5 -20.5q0 -22 30 -35q11 11 17 5q10 -3 19.5 2t21.5 15.5t18 14.5q13 3 14.5 -5t-1 -18.5t4.5 -17.5q4 -5 16.5 -0.5t16.5 4.5q3 1 10 3t12 4t9 6zM508 371q-26 5 -107 0q-36 -4 -55 -17q-1 -25 -7 -72.5
t-7 -60.5q3 -39 2.5 -112t1.5 -113q3 0 15.5 2.5t13.5 -0.5q7 2 23.5 -1.5t23.5 1.5q1 22 2 65t2 64q5 11 33 25q4 2 15.5 0.5t14.5 5.5l-2 57q-4 4 -9.5 6t-9.5 2.5t-12.5 0t-11.5 -0.5q-8 -8 -14 -8q-9 2 -12 9.5t-4 19t-3 16.5q-4 8 9 21q29 9 79 16l13 8q-2 14 2 35.5
t4 30.5zM881 158q13 -30 7.5 -60.5t-26.5 -52.5q-2 -3 -5 -5.5t-6 -3.5t-7 -2.5t-6 -2.5q-12 1 -19.5 9t-9.5 15.5t-4.5 22.5t-3.5 20q1 5 5 30t11 36q7 4 18.5 20.5t24.5 16.5l6 -6q-3 -10 5.5 -21t9.5 -16zM604 86q0 -22 -29 -47l-13 -7q-13 -6 -21 -1q-8 2 -9.5 7.5t2 17
t3.5 12.5q0 13 18 20q12 0 20 8q2 0 9 -0.5t12 -2.5t8 -7z" />
    <glyph glyph-name="Ograve.cap" unicode="&#xe0f1;" horiz-adv-x="1638" 
d="M1483 729q0 -356 -180.5 -557t-522.5 -201q-340 0 -513 185.5t-173 550.5q0 228 80 396.5t239 261.5t382 93q332 0 510 -188.5t178 -540.5zM1192 705q0 120 -21.5 213t-68.5 165t-128.5 110t-195.5 38q-86 0 -154 -26.5t-112 -72t-73 -110t-41.5 -136.5t-12.5 -155
q0 -126 21.5 -220.5t68.5 -166t128.5 -108.5t195.5 -37q87 0 155 26.5t112 72.5t73 111t41 138t12 158zM918 1653l-72 -131l-410 139l94 176z" />
    <glyph glyph-name="Uacute.cap" unicode="&#xe0f2;" horiz-adv-x="1531" 
d="M1311 537q0 -267 -151 -415.5t-429 -148.5q-272 0 -421.5 138.5t-149.5 406.5v912h274v-889q0 -167 82 -255.5t223 -88.5q142 0 222.5 87t80.5 244v902h269v-893zM1139 1661l-408 -139l-74 131l387 184z" />
    <glyph glyph-name="Ucircumflex.cap" unicode="&#xe0f3;" horiz-adv-x="1531" 
d="M1311 537q0 -267 -151 -415.5t-429 -148.5q-272 0 -421.5 138.5t-149.5 406.5v912h274v-889q0 -167 82 -255.5t223 -88.5q142 0 222.5 87t80.5 244v902h269v-893zM1059 1653l-68 -127l-248 116l-243 -116l-66 125l311 180z" />
    <glyph glyph-name="Ugrave.cap" unicode="&#xe0f4;" horiz-adv-x="1531" 
d="M1311 537q0 -267 -151 -415.5t-429 -148.5q-272 0 -421.5 138.5t-149.5 406.5v912h274v-889q0 -167 82 -255.5t223 -88.5q142 0 222.5 87t80.5 244v902h269v-893zM836 1653l-72 -131l-410 139l95 176z" />
    <glyph glyph-name="dotlessi.sc" unicode="&#xe0f5;" horiz-adv-x="634" 
d="M453 0h-271v1200h271v-1200z" />
    <glyph glyph-name="acute.cap" unicode="&#xf6c9;" horiz-adv-x="716" 
d="M481 1661l-407 -139l-74 131l387 184z" />
    <glyph glyph-name="caron.cap" unicode="&#xf6ca;" horiz-adv-x="921" 
d="M625 1708l-310 -182l-315 178l68 127l247 -117l246 117z" />
    <glyph glyph-name="dieresis.cap" unicode="&#xf6cb;" horiz-adv-x="921" 
d="M705 1657q0 -56 -36.5 -91.5t-93.5 -35.5q-55 0 -90.5 35.5t-35.5 91.5q0 57 35 93t91 36q57 0 93.5 -36t36.5 -93zM256 1657q0 -56 -36 -91.5t-93 -35.5q-55 0 -91 36t-36 91q0 57 35.5 93t91.5 36q57 0 93 -36t36 -93z" />
    <glyph glyph-name="grave.cap" unicode="&#xf6ce;" horiz-adv-x="716" 
d="M481 1653l-71 -131l-410 139l94 176z" />
    <glyph glyph-name="hungarumlaut.cap" unicode="&#xf6cf;" horiz-adv-x="864" 
d="M836 1788l-293 -277l-133 78l241 309zM412 1796l-281 -285l-131 78l229 316z" />
    <glyph glyph-name="macron.cap" unicode="&#xf6d0;" horiz-adv-x="626" 
d="M586 1565h-586v174h586v-174z" />
    <glyph glyph-name="commainferior" unicode="&#xf6e1;" horiz-adv-x="501" 
d="M250 274q61 0 102 -46.5t41 -121.5q0 -89 -61 -193t-191 -210l-96 88q119 127 119 191q0 23 -25.5 67.5t-25.5 87.5q0 60 37.5 98.5t99.5 38.5z" />
    <glyph glyph-name="commasuperior" unicode="&#xf6e2;" horiz-adv-x="501" 
d="M250 989q61 0 102 -46.5t41 -121.5q0 -89 -61 -193t-191 -210l-96 88q119 127 119 190q0 23 -25.5 68t-25.5 88q0 60 37.5 98.5t99.5 38.5z" />
    <glyph glyph-name="periodinferior" unicode="&#xf6e7;" horiz-adv-x="501" 
d="M252 274q60 0 102.5 -42t42.5 -103q0 -60 -42.5 -102.5t-102.5 -42.5q-61 0 -103.5 42.5t-42.5 102.5q0 61 42 103t104 42z" />
    <glyph glyph-name="periodsuperior" unicode="&#xf6e8;" horiz-adv-x="501" 
d="M252 989q60 0 102.5 -42t42.5 -103q0 -60 -42.5 -103t-102.5 -43q-61 0 -103.5 43t-42.5 103q0 61 42 103t104 42z" />
    <glyph glyph-name="breve.sc" unicode="&#xf6f4;" horiz-adv-x="645" 
d="M635 1655q0 -161 -81 -251.5t-239 -90.5t-236.5 91t-78.5 251h168q0 -76 38 -121t111 -45t111.5 42t38.5 124h168z" />
    <glyph glyph-name="caron.sc" unicode="&#xf6f5;" horiz-adv-x="786" 
d="M633 1567l-316 -244l-317 242l86 123l233 -152l232 152z" />
    <glyph glyph-name="circumflex.sc" unicode="&#xf6f6;" horiz-adv-x="821" 
d="M631 1446l-86 -123l-234 152l-231 -152l-80 119l313 244z" />
    <glyph glyph-name="dotaccent.sc" unicode="&#xf6f7;" horiz-adv-x="602" 
d="M463 1481q0 -69 -45.5 -113.5t-116.5 -44.5t-116.5 44.5t-45.5 113.5q0 70 45.5 113.5t116.5 43.5t116.5 -43.5t45.5 -113.5z" />
    <glyph glyph-name="hungarumlaut.sc" unicode="&#xf6f8;" horiz-adv-x="1030" 
d="M930 1542l-346 -223l-109 104l303 260zM455 1542l-346 -223l-109 104l303 260z" />
    <glyph glyph-name="Lslash.sc" unicode="&#xf6f9;" horiz-adv-x="983" 
d="M909 0h-702v549l-115 -68l-43 181l158 92v446h270v-301l182 109l41 -181l-223 -133v-483h432v-211z" />
    <glyph glyph-name="OE.sc" unicode="&#xf6fa;" horiz-adv-x="1761" 
d="M1622 0h-713q-103 -23 -207 -23q-281 0 -433 158.5t-152 456.5q0 286 162.5 458.5t449.5 172.5q99 0 207 -23h680v-205h-457v-278h389v-199h-389v-311h463v-207zM891 233v736q-78 45 -174 45q-158 0 -241 -113t-83 -287q0 -426 338 -426q90 0 160 45z" />
    <glyph glyph-name="ogonek.sc" unicode="&#xf6fb;" horiz-adv-x="634" 
d="M582 -375q-92 -51 -217 -51q-110 0 -171 46t-61 132q0 133 109 248h207q-107 -99 -107 -197q0 -77 86 -77q50 0 109 24z" />
    <glyph glyph-name="ring.sc" unicode="&#xf6fc;" horiz-adv-x="602" 
d="M487 1475q0 -101 -65 -161.5t-182 -60.5q-119 0 -179.5 56t-60.5 153q0 104 64.5 164t183.5 60q117 0 178 -55.5t61 -155.5zM336 1466q0 109 -94 109q-44 0 -67 -28t-23 -74q0 -55 22 -82t72 -27q45 0 67.5 27.5t22.5 74.5z" />
    <glyph glyph-name="Scaron.sc" unicode="&#xf6fd;" horiz-adv-x="1015" 
d="M913 360q0 -101 -40.5 -177t-110 -119.5t-152.5 -65t-178 -21.5q-160 0 -313 39l33 224q139 -47 284 -47q95 0 143 37.5t48 105.5q0 55 -40 91.5t-161 86.5q-167 63 -238 144.5t-71 207.5q0 116 60 198.5t155 120.5t215 38q174 0 305 -47l-49 -207q-128 45 -254 45
q-74 0 -111 -35.5t-37 -93.5q0 -48 36.5 -81t148.5 -79q170 -65 248.5 -147.5t78.5 -217.5zM821 1567l-315 -244l-318 242l86 123l234 -152l231 152z" />
    <glyph glyph-name="tilde.sc" unicode="&#xf6fe;" horiz-adv-x="927" 
d="M758 1542q-31 -93 -94.5 -143.5t-149.5 -50.5q-49 0 -90.5 13.5t-65.5 29.5t-56.5 29.5t-65.5 13.5q-72 0 -117 -99l-119 80q31 94 94.5 144.5t149.5 50.5q62 0 110 -21.5t87 -43t79 -21.5q74 0 119 98z" />
    <glyph glyph-name="Zcaron.sc" unicode="&#xf6ff;" horiz-adv-x="1069" 
d="M975 0h-889v201l557 782h-537v217h852v-205l-557 -778h574v-217zM854 1567l-315 -244l-318 242l86 123l234 -152l231 152z" />
    <glyph glyph-name="zero" unicode="&#xf730;" 
d="M1071 606q0 -109 -17.5 -202t-56.5 -174t-97.5 -137.5t-146 -89t-196.5 -32.5q-141 0 -241 45t-156.5 131.5t-81.5 197.5t-25 257q0 104 17 194t55.5 170.5t97 138t147 91t199.5 33.5q502 0 502 -623zM795 596q0 217 -53.5 324.5t-182.5 107.5q-120 0 -175.5 -105.5
t-55.5 -310.5q0 -241 58 -340.5t185 -99.5q68 0 113 29t69 88t33 131t9 176z" />
    <glyph glyph-name="one" unicode="&#xf731;" 
d="M1026 0h-856v213h313v729l-274 -141l-74 160l381 247h240v-995h270v-213z" />
    <glyph glyph-name="two" unicode="&#xf732;" 
d="M1034 0h-944v205l285 223q174 134 232.5 219t58.5 174q0 84 -55 135.5t-156 51.5q-140 0 -295 -64l-43 213q199 72 395 72q221 0 343 -97.5t122 -265.5q0 -139 -75.5 -252.5t-270.5 -257.5l-176 -135h579v-221z" />
    <glyph glyph-name="three" unicode="&#xf733;" 
d="M1014 184q0 -143 -74.5 -244.5t-199 -149.5t-287.5 -48q-219 0 -369 31v196q178 -14 309 -14q150 0 228.5 59.5t78.5 161.5q0 227 -338 227h-118v203h125q154 0 233.5 58.5t79.5 156.5q0 90 -55.5 141.5t-171.5 51.5q-141 0 -299 -64l-41 203q209 76 401 76
q218 0 339.5 -98t121.5 -265q0 -124 -75.5 -216.5t-203.5 -123.5v-4q142 -9 229 -105.5t87 -232.5z" />
    <glyph glyph-name="four" unicode="&#xf734;" 
d="M1077 66h-166v-295h-264v295h-608v239l500 895h372v-915h166v-219zM647 285v682h-4l-385 -682h389z" />
    <glyph glyph-name="five" unicode="&#xf735;" 
d="M1028 233q0 -231 -155.5 -361t-423.5 -130q-170 0 -349 29v200q156 -16 320 -16q154 0 235.5 64t81.5 190q0 117 -73.5 176t-235.5 59q-110 0 -274 -20l12 776h760v-229h-531l-6 -324q71 6 156 6q233 0 358 -107.5t125 -312.5z" />
    <glyph glyph-name="six" unicode="&#xf736;" 
d="M1057 469q0 -136 -56 -248t-168 -181t-262 -69q-256 0 -369.5 174t-113.5 512q0 131 16.5 242.5t59 216.5t109.5 177.5t173.5 116.5t245.5 44q161 0 293 -49l-43 -184q-122 39 -254 39q-71 0 -128 -24t-95 -64.5t-64 -96.5t-38 -118t-13 -132v-4q137 92 297 92
q113 0 194.5 -34.5t127.5 -97t67 -139.5t21 -173zM788 451q0 126 -45.5 190t-150.5 64q-126 0 -238 -74q0 -245 54 -350t167 -105q103 0 158 77.5t55 197.5z" />
    <glyph glyph-name="seven" unicode="&#xf737;" 
d="M1034 967l-377 -846q-99 -215 -233 -381l-199 98q102 172 215 436l295 697h-639v229h938v-233z" />
    <glyph glyph-name="eight" unicode="&#xf738;" 
d="M1063 379q0 -197 -132 -302.5t-378 -105.5q-238 0 -366 90.5t-128 280.5q0 120 74 213t217 170q-120 66 -184 152t-64 206q0 169 121.5 272t347.5 103q222 0 336.5 -95t114.5 -253q0 -208 -252 -354q142 -73 217.5 -164t75.5 -213zM758 1081q0 85 -51 133t-146 48
q-96 0 -145 -49t-49 -126q0 -70 48.5 -126t159.5 -113q183 110 183 233zM793 358q0 82 -58.5 139.5t-193.5 127.5q-211 -127 -211 -263q0 -97 60 -143.5t181 -46.5q105 0 163.5 50t58.5 136z" />
    <glyph glyph-name="nine" unicode="&#xf739;" 
d="M1036 543q0 -138 -18.5 -254t-63 -219t-112.5 -175t-173 -113.5t-239 -41.5q-140 0 -330 33l19 194q176 -28 313 -28q88 0 153 31.5t104 91.5t60 136.5t27 176.5l-4 4q-58 -42 -135.5 -67t-159.5 -25q-110 0 -190.5 33t-127.5 94t-69 140.5t-22 180.5q0 139 56 250
t167 177.5t260 66.5q106 0 187.5 -30t137.5 -86.5t92 -141.5t52 -190.5t16 -237.5zM770 567q0 245 -54 352t-167 107q-106 0 -158.5 -75t-52.5 -191q0 -132 44 -199t150 -67q119 0 238 73z" />
    <glyph glyph-name="grave.sc" unicode="&#xf760;" horiz-adv-x="649" 
d="M453 1427l-113 -108l-340 223l152 141z" />
    <glyph glyph-name="A.sc" unicode="&#xf761;" horiz-adv-x="1292" 
d="M1239 0h-283q-12 39 -39.5 132t-42.5 142h-473q-20 -64 -84 -274h-264q183 575 439 1200h303q243 -577 444 -1200zM807 479q-53 162 -170 477q-89 -238 -168 -477h338z" />
    <glyph glyph-name="B.sc" unicode="&#xf762;" horiz-adv-x="1206" 
d="M1106 367q0 -180 -122.5 -273.5t-354.5 -93.5h-447v1200h457q178 0 287.5 -77.5t109.5 -227.5q0 -80 -34.5 -142.5t-100.5 -97.5q95 -29 150 -106.5t55 -181.5zM762 860q0 146 -168 146h-156v-299h180q73 0 108.5 42t35.5 111zM823 356q0 79 -50.5 122.5t-147.5 43.5
h-187v-327h201q83 0 133.5 43t50.5 118z" />
    <glyph glyph-name="C.sc" unicode="&#xf763;" horiz-adv-x="1142" 
d="M1065 45q-162 -65 -336 -65q-287 0 -450 163q-164 164 -164 441q0 147 47 268t130.5 201.5t197.5 124t247 43.5q178 0 324 -66l-78 -205q-114 51 -240 51q-155 0 -251.5 -108t-96.5 -291q0 -194 98.5 -299.5t268.5 -105.5q118 0 237 49z" />
    <glyph glyph-name="D.sc" unicode="&#xf764;" horiz-adv-x="1370" 
d="M1260 616q0 -288 -167.5 -452t-465.5 -164h-445v1200h482q275 0 435.5 -153t160.5 -431zM979 602q0 114 -35 199t-116.5 137.5t-204.5 52.5h-170v-780h165q176 0 268.5 98t92.5 293z" />
    <glyph glyph-name="E.sc" unicode="&#xf765;" horiz-adv-x="1052" 
d="M913 0h-731v1200h725v-205h-456v-278h389v-199h-389v-311h462v-207z" />
    <glyph glyph-name="F.sc" unicode="&#xf766;" horiz-adv-x="970" 
d="M874 995h-421v-311h374v-205h-374v-479h-271v1200h692v-205z" />
    <glyph glyph-name="G.sc" unicode="&#xf767;" horiz-adv-x="1339" 
d="M1184 1120l-88 -196q-150 88 -338 88q-170 0 -271.5 -113.5t-101.5 -296.5q0 -195 102 -304.5t269 -109.5q67 0 153 23v453h269v-615q-210 -69 -441 -69q-294 0 -461 163.5t-167 444.5q0 287 182.5 461t474.5 174q231 0 418 -103z" />
    <glyph glyph-name="H.sc" unicode="&#xf768;" horiz-adv-x="1415" 
d="M1233 0h-268v514h-512v-514h-271v1200h271v-471h512v471h268v-1200z" />
    <glyph glyph-name="I.sc" unicode="&#xf769;" horiz-adv-x="634" 
d="M453 0h-271v1200h271v-1200z" />
    <glyph glyph-name="J.sc" unicode="&#xf76a;" horiz-adv-x="729" 
d="M549 358q0 -193 -79.5 -287t-252.5 -94q-77 0 -160 21v205h88q72 0 103 35.5t31 128.5v833h270v-842z" />
    <glyph glyph-name="K.sc" unicode="&#xf76b;" horiz-adv-x="1269" 
d="M1217 0h-334l-346 551l-84 -80v-471h-271v1200h271v-465l428 465h327l-479 -481z" />
    <glyph glyph-name="L.sc" unicode="&#xf76c;" horiz-adv-x="931" 
d="M883 0h-701v1200h271v-989h430v-211z" />
    <glyph glyph-name="M.sc" unicode="&#xf76d;" horiz-adv-x="1882" 
d="M1714 0h-274q-5 395 -62 934l-319 -934h-268l-318 936q-57 -623 -59 -936h-248q5 496 98 1200h379l291 -856l303 856h385q88 -760 92 -1200z" />
    <glyph glyph-name="N.sc" unicode="&#xf76e;" horiz-adv-x="1443" 
d="M1262 0h-324l-516 848v-848h-240v1200h328l512 -842v842h240v-1200z" />
    <glyph glyph-name="O.sc" unicode="&#xf76f;" horiz-adv-x="1445" 
d="M1331 612q0 -290 -162.5 -462.5t-453.5 -172.5q-290 0 -444 158t-154 457q0 286 162.5 458.5t449.5 172.5q149 0 264.5 -44.5t189 -125.5t111 -192.5t37.5 -248.5zM1053 592q0 93 -18.5 167.5t-57.5 133t-105 90t-155 31.5q-158 0 -241 -113t-83 -287q0 -426 338 -426
q82 0 145 31.5t101 88t57 128t19 156.5z" />
    <glyph glyph-name="P.sc" unicode="&#xf770;" horiz-adv-x="1150" 
d="M1061 819q0 -190 -133 -298.5t-353 -108.5h-122v-412h-271v1200h424q211 0 333 -99t122 -282zM774 807q0 86 -48 137t-142 51h-131v-379h135q88 0 137 52.5t49 138.5z" />
    <glyph glyph-name="Q.sc" unicode="&#xf771;" horiz-adv-x="1445" 
d="M1389 12l-140 -147l-207 194q-133 -82 -327 -82q-290 0 -444 158t-154 457q0 286 162.5 458.5t449.5 172.5q149 0 264.5 -44.5t189 -125.5t111 -192.5t37.5 -248.5q0 -259 -129 -422zM1053 594q0 92 -18.5 166.5t-57.5 132.5t-105 89.5t-155 31.5q-158 0 -241 -113
t-83 -287q0 -426 338 -426q80 0 137 41l-166 156l140 145l166 -161q45 83 45 225z" />
    <glyph glyph-name="R.sc" unicode="&#xf772;" horiz-adv-x="1212" 
d="M1133 0h-320l-248 487h-116v-487h-269v1200h438q205 0 321 -87t116 -253q0 -117 -58.5 -198.5t-162.5 -124.5zM770 844q0 71 -46.5 115.5t-148.5 44.5h-126v-322h120q101 0 151 45.5t50 116.5z" />
    <glyph glyph-name="S.sc" unicode="&#xf773;" horiz-adv-x="1015" 
d="M913 360q0 -101 -40.5 -177t-110 -119.5t-152.5 -65t-178 -21.5q-160 0 -313 39l33 224q139 -47 284 -47q95 0 143 37.5t48 105.5q0 55 -40 91.5t-161 86.5q-167 63 -238 144.5t-71 207.5q0 116 60 198.5t155 120.5t215 38q174 0 305 -47l-49 -207q-128 45 -254 45
q-74 0 -111 -35.5t-37 -93.5q0 -48 36.5 -81t148.5 -79q170 -65 248.5 -147.5t78.5 -217.5z" />
    <glyph glyph-name="T.sc" unicode="&#xf774;" horiz-adv-x="1019" 
d="M977 987h-332v-987h-272v987h-330v213h934v-213z" />
    <glyph glyph-name="U.sc" unicode="&#xf775;" horiz-adv-x="1402" 
d="M1225 506q0 -252 -142.5 -388t-388.5 -136t-380 125t-134 374v719h271v-706q0 -152 65.5 -228t188.5 -76q128 0 189.5 79.5t61.5 224.5v706h269v-694z" />
    <glyph glyph-name="V.sc" unicode="&#xf776;" horiz-adv-x="1292" 
d="M1249 1200q-189 -609 -436 -1200h-328q-247 594 -436 1200h311q122 -464 306 -921q183 484 301 921h282z" />
    <glyph glyph-name="W.sc" unicode="&#xf777;" horiz-adv-x="1931" 
d="M1847 1200q-124 -600 -329 -1200h-353l-200 823l-201 -823h-350q-197 578 -334 1200h299q96 -486 223 -897l215 897h324l217 -889q156 512 217 889h272z" />
    <glyph glyph-name="X.sc" unicode="&#xf778;" horiz-adv-x="1243" 
d="M1202 0h-330l-258 428l-256 -428h-321l407 621l-372 579h321l232 -381l231 381h311l-372 -573z" />
    <glyph glyph-name="Y.sc" unicode="&#xf779;" horiz-adv-x="1177" 
d="M1149 1200q-203 -416 -420 -719v-481h-272v481q-212 290 -428 719h305q157 -333 270 -504q119 194 248 504h297z" />
    <glyph glyph-name="Z.sc" unicode="&#xf77a;" horiz-adv-x="1069" 
d="M975 0h-889v201l557 782h-537v217h852v-205l-557 -778h574v-217z" />
    <glyph glyph-name="dieresis.sc" unicode="&#xf7a8;" horiz-adv-x="874" 
d="M131 1624q60 0 96.5 -36.5t36.5 -96.5q0 -59 -36.5 -95t-96.5 -36q-59 0 -95 36t-36 95q0 60 36 96.5t95 36.5zM561 1624q59 0 95 -36.5t36 -96.5q0 -59 -36 -95t-95 -36t-96 36.5t-37 94.5q0 60 37 96.5t96 36.5z" />
    <glyph glyph-name="macron.sc" unicode="&#xf7af;" horiz-adv-x="704" 
d="M586 1401h-586v174h586v-174z" />
    <glyph glyph-name="acute.sc" unicode="&#xf7b4;" horiz-adv-x="669" 
d="M455 1542l-346 -223l-109 104l303 260z" />
    <glyph glyph-name="cedilla.sc" unicode="&#xf7b8;" horiz-adv-x="634" 
d="M539 -227q0 -73 -60.5 -111.5t-173.5 -38.5q-121 0 -217 35v147h184q50 0 50 19q0 14 -11 43l-61 133h194l45 -86q50 -85 50 -141z" />
    <glyph glyph-name="Agrave.sc" unicode="&#xf7e0;" horiz-adv-x="1292" 
d="M1239 0h-283q-12 39 -39.5 132t-42.5 142h-473q-20 -64 -84 -274h-264q183 575 439 1200h303q243 -577 444 -1200zM807 479q-53 162 -170 477q-89 -238 -168 -477h338zM786 1427l-112 -108l-340 223l151 141z" />
    <glyph glyph-name="Aacute.sc" unicode="&#xf7e1;" horiz-adv-x="1292" 
d="M1239 0h-283q-12 39 -39.5 132t-42.5 142h-473q-20 -64 -84 -274h-264q183 575 439 1200h303q243 -577 444 -1200zM807 479q-53 162 -170 477q-89 -238 -168 -477h338zM932 1542l-346 -223l-109 104l303 260z" />
    <glyph glyph-name="Acircumflex.sc" unicode="&#xf7e2;" horiz-adv-x="1292" 
d="M1239 0h-283q-12 39 -39.5 132t-42.5 142h-473q-20 -64 -84 -274h-264q183 575 439 1200h303q243 -577 444 -1200zM807 479q-53 162 -170 477q-89 -238 -168 -477h338zM961 1446l-87 -123l-233 152l-231 -152l-80 119l313 244z" />
    <glyph glyph-name="Atilde.sc" unicode="&#xf7e3;" horiz-adv-x="1292" 
d="M1239 0h-283q-12 39 -39.5 132t-42.5 142h-473q-20 -64 -84 -274h-264q183 575 439 1200h303q243 -577 444 -1200zM807 479q-53 162 -170 477q-89 -238 -168 -477h338zM1008 1542q-31 -93 -94.5 -143.5t-149.5 -50.5q-49 0 -90.5 13.5t-66 29.5t-57 29.5t-65.5 13.5
q-71 0 -116 -99l-119 80q31 94 94.5 144.5t149.5 50.5q62 0 110 -21.5t87 -43t79 -21.5q74 0 119 98z" />
    <glyph glyph-name="Adieresis.sc" unicode="&#xf7e4;" horiz-adv-x="1292" 
d="M1239 0h-283q-12 39 -39.5 132t-42.5 142h-473q-20 -64 -84 -274h-264q183 575 439 1200h303q243 -577 444 -1200zM807 479q-53 162 -170 477q-89 -238 -168 -477h338zM434 1624q60 0 96.5 -36.5t36.5 -96.5q0 -59 -36.5 -95t-96.5 -36q-58 0 -94.5 36t-36.5 95
q0 60 36 96.5t95 36.5zM864 1624q59 0 95 -36.5t36 -96.5q0 -59 -36.5 -95t-94.5 -36q-59 0 -96 36.5t-37 94.5q0 60 37 96.5t96 36.5z" />
    <glyph glyph-name="Aring.sc" unicode="&#xf7e5;" horiz-adv-x="1292" 
d="M1239 0h-283q-12 39 -39.5 132t-42.5 142h-473q-20 -64 -84 -274h-264q183 575 439 1200h303q243 -577 444 -1200zM807 479q-53 162 -170 477q-89 -238 -168 -477h338zM883 1475q0 -101 -65.5 -161.5t-182.5 -60.5q-119 0 -179.5 56t-60.5 153q0 104 64.5 164t183.5 60
q117 0 178.5 -55.5t61.5 -155.5zM731 1466q0 109 -94 109q-44 0 -67 -28t-23 -74q0 -55 22 -82t72 -27q45 0 67.5 27.5t22.5 74.5z" />
    <glyph glyph-name="AE.sc" unicode="&#xf7e6;" horiz-adv-x="1634" 
d="M1497 0h-727v248h-389q-60 -123 -115 -248h-262q259 558 627 1200h852v-207h-449v-276h389v-199h-389v-311h463v-207zM770 457v532h-6q-112 -198 -285 -532h291z" />
    <glyph glyph-name="Ccedilla.sc" unicode="&#xf7e7;" horiz-adv-x="1142" 
d="M899 -227q0 -73 -60 -111.5t-173 -38.5q-117 0 -217 35v147h184q51 0 51 19t-12 43l-56 121q-209 24 -337 155q-164 164 -164 441q0 147 47 268t130.5 201.5t197.5 124t247 43.5q178 0 324 -66l-78 -205q-114 51 -240 51q-155 0 -251.5 -108t-96.5 -291
q0 -194 98.5 -299.5t268.5 -105.5q118 0 237 49l66 -201q-105 -45 -250 -61l37 -70q47 -84 47 -141z" />
    <glyph glyph-name="Egrave.sc" unicode="&#xf7e8;" horiz-adv-x="1052" 
d="M913 0h-731v1200h725v-205h-456v-278h389v-199h-389v-311h462v-207zM678 1427l-113 -108l-340 223l152 141z" />
    <glyph glyph-name="Eacute.sc" unicode="&#xf7e9;" horiz-adv-x="1052" 
d="M913 0h-731v1200h725v-205h-456v-278h389v-199h-389v-311h462v-207zM834 1542l-347 -223l-108 104l303 260z" />
    <glyph glyph-name="Ecircumflex.sc" unicode="&#xf7ea;" horiz-adv-x="1052" 
d="M913 0h-731v1200h725v-205h-456v-278h389v-199h-389v-311h462v-207zM860 1446l-86 -123l-233 152l-232 -152l-80 119l314 244z" />
    <glyph glyph-name="Edieresis.sc" unicode="&#xf7eb;" horiz-adv-x="1052" 
d="M913 0h-731v1200h725v-205h-456v-278h389v-199h-389v-311h462v-207zM330 1624q60 0 96.5 -36.5t36.5 -96.5q0 -59 -36.5 -95t-96.5 -36q-58 0 -94.5 36t-36.5 95q0 60 36 96.5t95 36.5zM760 1624q59 0 95 -36.5t36 -96.5q0 -59 -36.5 -95t-94.5 -36q-59 0 -96 36.5
t-37 94.5q0 60 37 96.5t96 36.5z" />
    <glyph glyph-name="Igrave.sc" unicode="&#xf7ec;" horiz-adv-x="634" 
d="M453 0h-271v1200h271v-1200zM496 1427l-113 -108l-340 223l152 141z" />
    <glyph glyph-name="Iacute.sc" unicode="&#xf7ed;" horiz-adv-x="634" 
d="M453 0h-271v1200h271v-1200zM588 1542l-346 -223l-109 104l303 260z" />
    <glyph glyph-name="Icircumflex.sc" unicode="&#xf7ee;" horiz-adv-x="634" 
d="M453 0h-271v1200h271v-1200zM633 1446l-86 -123l-234 152l-231 -152l-80 119l313 244z" />
    <glyph glyph-name="Idieresis.sc" unicode="&#xf7ef;" horiz-adv-x="634" 
d="M453 0h-271v1200h271v-1200zM649 1491q0 -57 -36 -94t-93 -37q-59 0 -95 36.5t-36 94.5q0 59 36 96t95 37q57 0 93 -37t36 -96zM246 1491q0 -57 -36.5 -94t-94.5 -37t-93.5 36.5t-35.5 94.5q0 59 35.5 96t93.5 37t94.5 -37t36.5 -96z" />
    <glyph glyph-name="Eth.sc" unicode="&#xf7f0;" horiz-adv-x="1423" 
d="M1282 616q0 -288 -167.5 -452t-465.5 -164h-444v508h-152v188h152v504h481q275 0 435.5 -153t160.5 -431zM1001 602q0 114 -35 199t-116.5 137.5t-204.5 52.5h-170v-295h221v-188h-221v-297h166q360 0 360 391z" />
    <glyph glyph-name="Ntilde.sc" unicode="&#xf7f1;" horiz-adv-x="1443" 
d="M1262 0h-324l-516 848v-848h-240v1200h328l512 -842v842h240v-1200zM1094 1542q-31 -93 -94.5 -143.5t-149.5 -50.5q-49 0 -90.5 13.5t-66 29.5t-57 29.5t-65.5 13.5q-71 0 -116 -99l-119 80q31 94 94.5 144.5t149.5 50.5q62 0 110 -21.5t87 -43t79 -21.5q74 0 119 98z
" />
    <glyph glyph-name="Ograve.sc" unicode="&#xf7f2;" horiz-adv-x="1445" 
d="M1331 612q0 -290 -162.5 -462.5t-453.5 -172.5q-290 0 -444 158t-154 457q0 286 162.5 458.5t449.5 172.5q149 0 264.5 -44.5t189 -125.5t111 -192.5t37.5 -248.5zM1053 592q0 93 -18.5 167.5t-57.5 133t-105 90t-155 31.5q-158 0 -241 -113t-83 -287q0 -426 338 -426
q82 0 145 31.5t101 88t57 128t19 156.5zM877 1427l-113 -108l-340 223l151 141z" />
    <glyph glyph-name="Oacute.sc" unicode="&#xf7f3;" horiz-adv-x="1445" 
d="M1331 612q0 -290 -162.5 -462.5t-453.5 -172.5q-290 0 -444 158t-154 457q0 286 162.5 458.5t449.5 172.5q149 0 264.5 -44.5t189 -125.5t111 -192.5t37.5 -248.5zM1053 592q0 93 -18.5 167.5t-57.5 133t-105 90t-155 31.5q-158 0 -241 -113t-83 -287q0 -426 338 -426
q82 0 145 31.5t101 88t57 128t19 156.5zM1018 1542l-346 -223l-109 104l303 260z" />
    <glyph glyph-name="Ocircumflex.sc" unicode="&#xf7f4;" horiz-adv-x="1445" 
d="M1331 612q0 -290 -162.5 -462.5t-453.5 -172.5q-290 0 -444 158t-154 457q0 286 162.5 458.5t449.5 172.5q149 0 264.5 -44.5t189 -125.5t111 -192.5t37.5 -248.5zM1053 592q0 93 -18.5 167.5t-57.5 133t-105 90t-155 31.5q-158 0 -241 -113t-83 -287q0 -426 338 -426
q82 0 145 31.5t101 88t57 128t19 156.5zM1036 1446l-86 -123l-233 152l-232 -152l-79 119l313 244z" />
    <glyph glyph-name="Otilde.sc" unicode="&#xf7f5;" horiz-adv-x="1445" 
d="M1331 612q0 -290 -162.5 -462.5t-453.5 -172.5q-290 0 -444 158t-154 457q0 286 162.5 458.5t449.5 172.5q149 0 264.5 -44.5t189 -125.5t111 -192.5t37.5 -248.5zM1053 592q0 93 -18.5 167.5t-57.5 133t-105 90t-155 31.5q-158 0 -241 -113t-83 -287q0 -426 338 -426
q82 0 145 31.5t101 88t57 128t19 156.5zM1094 1542q-31 -93 -94.5 -143.5t-149.5 -50.5q-49 0 -90.5 13.5t-66 29.5t-57 29.5t-65.5 13.5q-71 0 -116 -99l-119 80q31 94 94.5 144.5t149.5 50.5q62 0 110 -21.5t87 -43t79 -21.5q74 0 119 98z" />
    <glyph glyph-name="Odieresis.sc" unicode="&#xf7f6;" horiz-adv-x="1445" 
d="M1331 612q0 -290 -162.5 -462.5t-453.5 -172.5q-290 0 -444 158t-154 457q0 286 162.5 458.5t449.5 172.5q149 0 264.5 -44.5t189 -125.5t111 -192.5t37.5 -248.5zM1053 592q0 93 -18.5 167.5t-57.5 133t-105 90t-155 31.5q-158 0 -241 -113t-83 -287q0 -426 338 -426
q82 0 145 31.5t101 88t57 128t19 156.5zM512 1624q60 0 96.5 -36.5t36.5 -96.5q0 -59 -36.5 -95t-96.5 -36q-58 0 -94.5 36t-36.5 95q0 60 36 96.5t95 36.5zM942 1624q59 0 95 -36.5t36 -96.5q0 -59 -36.5 -95t-94.5 -36q-59 0 -96 36.5t-37 94.5q0 60 37 96.5t96 36.5z" />
    <glyph glyph-name="Oslash.sc" unicode="&#xf7f8;" horiz-adv-x="1445" 
d="M1331 612q0 -290 -162.5 -462.5t-453.5 -172.5q-110 0 -205 29l-121 -221l-168 76l119 215q-223 154 -223 516q0 286 162.5 458.5t449.5 172.5q122 0 215 -37l103 194l167 -75l-102 -191q109 -77 164 -206t55 -296zM1069 592q0 183 -82 293l-375 -682q50 -21 119 -21
q85 0 151 32t106 89t60.5 130t20.5 159zM844 995q-50 23 -127 23q-112 0 -189.5 -55.5t-113 -144.5t-35.5 -204q0 -203 86 -307z" />
    <glyph glyph-name="Ugrave.sc" unicode="&#xf7f9;" horiz-adv-x="1402" 
d="M1225 506q0 -252 -142.5 -388t-388.5 -136t-380 125t-134 374v719h271v-706q0 -152 65.5 -228t188.5 -76q128 0 189.5 79.5t61.5 224.5v706h269v-694zM821 1427l-112 -108l-340 223l151 141z" />
    <glyph glyph-name="Uacute.sc" unicode="&#xf7fa;" horiz-adv-x="1402" 
d="M1225 506q0 -252 -142.5 -388t-388.5 -136t-380 125t-134 374v719h271v-706q0 -152 65.5 -228t188.5 -76q128 0 189.5 79.5t61.5 224.5v706h269v-694zM1036 1542l-346 -223l-108 104l303 260z" />
    <glyph glyph-name="Ucircumflex.sc" unicode="&#xf7fb;" horiz-adv-x="1402" 
d="M1225 506q0 -252 -142.5 -388t-388.5 -136t-380 125t-134 374v719h271v-706q0 -152 65.5 -228t188.5 -76q128 0 189.5 79.5t61.5 224.5v706h269v-694zM1016 1446l-86 -123l-234 152l-231 -152l-80 119l313 244z" />
    <glyph glyph-name="Udieresis.sc" unicode="&#xf7fc;" horiz-adv-x="1402" 
d="M1225 506q0 -252 -142.5 -388t-388.5 -136t-380 125t-134 374v719h271v-706q0 -152 65.5 -228t188.5 -76q128 0 189.5 79.5t61.5 224.5v706h269v-694zM496 1624q60 0 96.5 -36.5t36.5 -96.5q0 -59 -36.5 -95t-96.5 -36q-58 0 -94.5 36t-36.5 95q0 60 36 96.5t95 36.5z
M926 1624q59 0 95 -36.5t36 -96.5q0 -59 -36.5 -95t-94.5 -36q-59 0 -96 36.5t-37 94.5q0 60 37 96.5t96 36.5z" />
    <glyph glyph-name="Yacute.sc" unicode="&#xf7fd;" horiz-adv-x="1177" 
d="M1149 1200q-203 -416 -420 -719v-481h-272v481q-212 290 -428 719h305q157 -333 270 -504q119 194 248 504h297zM936 1542l-346 -223l-109 104l303 260z" />
    <glyph glyph-name="Thorn.sc" unicode="&#xf7fe;" horiz-adv-x="1150" 
d="M1061 629q0 -190 -133.5 -300t-352.5 -110h-122v-219h-271v1200h271v-190h153q210 0 332.5 -99.5t122.5 -281.5zM774 616q0 87 -48 138t-142 51h-131v-381h135q88 0 137 52.5t49 139.5z" />
    <glyph glyph-name="Ydieresis.sc" unicode="&#xf7ff;" horiz-adv-x="1177" 
d="M1149 1200q-203 -416 -420 -719v-481h-272v481q-212 290 -428 719h305q157 -333 270 -504q119 194 248 504h297zM383 1624q60 0 96.5 -36.5t36.5 -96.5q0 -59 -36.5 -95t-96.5 -36q-59 0 -95 36t-36 95q0 60 36 96.5t95 36.5zM813 1624q59 0 95 -36.5t36 -96.5
q0 -59 -36 -95t-95 -36t-96 36.5t-37 94.5q0 60 37 96.5t96 36.5z" />
    <glyph glyph-name="ff.alt1" horiz-adv-x="1374" 
d="M995 1507q85 54 211 54q87 0 164 -17v-186h-84q-54 0 -89 -14.5t-51.5 -44.5t-22 -62t-5.5 -80v-108h219v-199h-219v-850h-262v850h-397v-850h-262v850h-156v199h156v67q0 196 130.5 313t362.5 117q149 0 305 -39zM879 1321q-120 29 -201 29q-112 0 -165.5 -58.5
t-53.5 -152.5v-90h397v92q0 95 23 180z" />
    <glyph glyph-name="ffi.alt1" horiz-adv-x="1931" 
d="M1118 1049h664v-1049h-262v850h-402v-850h-262v850h-397v-850h-262v850h-156v199h156v67q0 196 130.5 313t362.5 117q149 0 305 -39q85 54 211 54q87 0 164 -17v-186h-84q-54 0 -89 -14.5t-51.5 -44.5t-22 -62t-5.5 -80v-108zM879 1321q-120 29 -201 29
q-112 0 -165.5 -58.5t-53.5 -152.5v-90h397v92q0 95 23 180zM1812 1366q0 -71 -44.5 -114.5t-116.5 -43.5q-71 0 -115.5 44t-44.5 114t44.5 114t115.5 44q72 0 116.5 -43.5t44.5 -114.5z" />
    <glyph glyph-name="ffl.alt1" horiz-adv-x="1970" 
d="M1026 1503q126 60 320 60q159 0 434 -33v-1237q0 -55 18 -80t64 -25h69v-188q-85 -23 -164 -23q-118 0 -183.5 57t-65.5 191v1123q-92 10 -187 10q-120 0 -166.5 -57t-46.5 -168v-84h211v-199h-211v-850h-262v850h-397v-850h-262v850h-156v199h156v65q0 199 128.5 315.5
t358.5 116.5q148 0 342 -43zM891 1323q-111 27 -209 27q-118 0 -170.5 -59.5t-52.5 -160.5v-81h397v75q0 128 35 199z" />
    <glyph glyph-name="dieresis.narrow" horiz-adv-x="843" 
d="M670 1382q0 -60 -37.5 -97.5t-97.5 -37.5t-98 37.5t-38 97.5q0 59 38 96.5t98 37.5t97.5 -37.5t37.5 -96.5zM268 1382q0 -61 -36 -98t-97 -37t-98 37.5t-37 97.5q0 59 37 96.5t98 37.5t97 -37.5t36 -96.5z" />
    <glyph glyph-name="dieresis.sc.narrow" horiz-adv-x="874" 
d="M664 1491q0 -57 -36 -94t-93 -37q-59 0 -95.5 36.5t-36.5 94.5q0 59 36 96t96 37q57 0 93 -37t36 -96zM260 1491q0 -57 -36.5 -94t-94.5 -37t-93.5 36.5t-35.5 94.5q0 59 35.5 96t93.5 37t94.5 -37t36.5 -96z" />
    <glyph glyph-name="dieresis.cap.narrow" horiz-adv-x="921" 
d="M655 1657q0 -56 -36 -91.5t-93 -35.5q-56 0 -91.5 36t-35.5 91q0 57 35.5 93t91.5 36q57 0 93 -36t36 -93zM256 1657q0 -56 -36 -91.5t-93 -35.5q-55 0 -91 36t-36 91q0 57 35.5 93t91.5 36q57 0 93 -36t36 -93z" />
    <glyph glyph-name="breve.cap" horiz-adv-x="645" 
d="M635 1876q0 -159 -81 -249.5t-239 -90.5t-236.5 91t-78.5 249h168q0 -75 38 -119.5t111 -44.5t111.5 41.5t38.5 122.5h168z" />
    <glyph glyph-name="ring.cap" horiz-adv-x="602" 
d="M487 1757q0 -101 -65 -161t-182 -60q-120 0 -180 56t-60 155q0 103 65 162t183 59q117 0 178 -55.5t61 -155.5zM336 1749q0 109 -94 109q-44 0 -67 -28t-23 -75q0 -55 22 -81.5t72 -26.5q45 0 67.5 27.5t22.5 74.5z" />
    <glyph glyph-name="dotaccent.cap" horiz-adv-x="602" 
d="M455 1675q0 -64 -43.5 -103.5t-110.5 -39.5t-110.5 39.5t-43.5 103.5q0 65 43.5 105.5t110.5 40.5t110.5 -40.5t43.5 -105.5z" />
    <glyph glyph-name="at.alt2" horiz-adv-x="1806" 
d="M1204 219q119 282 119 522q0 137 -25 237.5t-80.5 174t-150.5 110.5t-231 37q-159 0 -322 -67l-45 205q191 69 416 69q185 0 319.5 -55t213 -157t115 -232.5t36.5 -296.5q0 -172 -54.5 -372t-158.5 -394h-357q-53 176 -67 219h-479q-41 -105 -74 -219h-270
q179 509 436 1085h338q181 -442 319 -866h2zM705 883q-138 -338 -183 -461h344q-92 281 -161 461z" />
    <glyph glyph-name="zero.oldstyle" horiz-adv-x="1300" 
d="M1219 561q0 -128 -37 -235.5t-108 -187t-181.5 -123.5t-249.5 -44q-149 0 -259.5 44.5t-175.5 125.5t-95.5 184.5t-30.5 231.5q0 129 37 236t107.5 186.5t180.5 123.5t250 44q149 0 260 -44.5t175.5 -125.5t95.5 -184.5t31 -231.5zM940 551q0 389 -295 389
q-144 0 -214.5 -98.5t-70.5 -272.5q0 -389 295 -389q145 0 215 98t70 273z" />
    <glyph glyph-name="one.oldstyle" horiz-adv-x="782" 
d="M625 0h-273v889l-264 -131l-55 184l356 176h236v-1118z" />
    <glyph glyph-name="two.oldstyle" horiz-adv-x="1036" 
d="M975 0h-920l-2 213l289 221q152 113 205 182t53 146q0 83 -51.5 126.5t-151.5 43.5q-115 0 -270 -64l-43 207q196 72 377 72q216 0 331 -86t115 -248q0 -120 -74 -224t-260 -237l-178 -131h580v-221z" />
    <glyph glyph-name="three.oldstyle" horiz-adv-x="1036" 
d="M944 86q0 -228 -158 -353.5t-432 -125.5q-175 0 -325 31v196q143 -14 301 -14q149 0 225 71.5t76 186.5q0 235 -332 235h-111v201h117q146 0 222.5 63t76.5 162q0 90 -51.5 141.5t-161.5 51.5q-131 0 -282 -64l-43 203q203 76 387 76q211 0 329.5 -98.5t118.5 -264.5
q0 -125 -76.5 -222.5t-203.5 -127.5v-4q145 -9 234 -106t89 -238z" />
    <glyph glyph-name="four.oldstyle" horiz-adv-x="1183" 
d="M1163 0h-229v-373h-264v373h-647v209l561 897h350v-895h229v-211zM670 211v666h-4l-420 -666h424z" />
    <glyph glyph-name="five.oldstyle" horiz-adv-x="1030" 
d="M969 115q0 -236 -156 -372t-422 -136q-136 0 -309 28v199q136 -14 293 -14q143 0 223 70t80 200q0 242 -287 242q-84 0 -256 -21l23 807h716v-229h-487l-16 -354q61 6 127 6q224 0 347.5 -110.5t123.5 -315.5z" />
    <glyph glyph-name="six.oldstyle" horiz-adv-x="1230" 
d="M1135 479q0 -221 -143 -364.5t-380 -143.5q-267 0 -384 175t-117 518q0 100 10 190t33 177t58.5 159t88 133t120 103.5t156.5 66t195 23.5q164 0 307 -52l-43 -184q-122 39 -268 39q-94 0 -168.5 -39.5t-120.5 -107.5t-70 -152.5t-26 -179.5v-11q140 95 311 95
q113 0 199 -34.5t138 -96t78 -140.5t26 -174zM858 463q0 256 -223 256q-126 0 -246 -78q0 -250 54.5 -357.5t183.5 -107.5q111 0 171 80t60 207z" />
    <glyph glyph-name="seven.oldstyle" horiz-adv-x="1036" 
d="M983 885l-432 -895q-108 -224 -240 -385l-198 88q85 137 223 440l348 756h-641v229h940v-233z" />
    <glyph glyph-name="eight.oldstyle" horiz-adv-x="1173" 
d="M1085 391q0 -198 -131.5 -309t-375.5 -111q-233 0 -361.5 98t-128.5 283q0 122 72 221t217 185q-252 147 -252 375q0 167 126 276t345 109q223 0 338 -99.5t115 -259.5q0 -217 -258 -366q294 -167 294 -402zM786 1133q0 85 -52.5 135.5t-147.5 50.5q-92 0 -145.5 -52.5
t-53.5 -129.5t48.5 -134.5t162.5 -119.5q92 58 140 118.5t48 131.5zM815 371q0 85 -56.5 149t-191.5 137q-106 -69 -157.5 -135.5t-51.5 -146.5q0 -92 60.5 -146.5t177.5 -54.5q103 0 161 54.5t58 142.5z" />
    <glyph glyph-name="nine.oldstyle" horiz-adv-x="1220" 
d="M1108 461q0 -146 -22 -271.5t-71.5 -234t-124.5 -185t-187 -120t-252 -43.5q-146 0 -336 33l18 192q205 -29 324 -29q91 0 163 39t116.5 106.5t69 152.5t28.5 184v4q-58 -41 -141 -66.5t-163 -25.5q-221 0 -330.5 119t-109.5 325q0 144 63 259t181.5 181t271.5 66
q136 0 233 -46t156 -136t86 -214t27 -290zM829 479q0 134 -15 225t-46 143.5t-71.5 74.5t-98.5 22q-109 0 -170 -80t-61 -207q0 -120 54.5 -189t164.5 -69q55 0 121.5 22t121.5 58z" />
    <glyph glyph-name="one.oldstyle.alt" horiz-adv-x="958" 
d="M868 0h-778v213h252v694h-252v211h778v-211h-254v-694h254v-213z" />
    <glyph glyph-name="zero.LP" horiz-adv-x="1361" 
d="M1278 721q0 -128 -20.5 -237.5t-66.5 -205t-115.5 -163t-173 -106t-232.5 -38.5q-157 0 -271 50.5t-183 148t-101.5 230t-32.5 305.5q0 127 19.5 236t65 205.5t114 164.5t172.5 107.5t235 39.5q101 0 185 -21.5t144 -59t106.5 -93t75.5 -117.5t47 -138t25 -150t7 -158z
M989 709q0 129 -16 225t-51 169t-97 110.5t-149 37.5q-305 0 -305 -528q0 -289 77 -416t242 -127q86 0 145.5 36.5t92.5 109.5t47 165t14 218z" />
    <glyph glyph-name="one.LP" horiz-adv-x="782" 
d="M625 0h-273v1200l-264 -131l-55 184l356 177h236v-1430z" />
    <glyph glyph-name="two.LP" horiz-adv-x="1067" 
d="M1008 0h-955v213l289 287q163 163 229 279t66 235q0 217 -215 217q-126 0 -289 -72l-49 217q193 80 403 80q226 0 342.5 -103t116.5 -288q0 -166 -95 -322t-296 -344l-176 -170h629v-229z" />
    <glyph glyph-name="three.LP" horiz-adv-x="1028" 
d="M938 426q0 -213 -157.5 -329.5t-432.5 -116.5q-170 0 -315 30v199q136 -16 291 -16q147 0 223 63t76 162q0 223 -330 223h-111v201h117q145 0 221 61t76 152q0 87 -51 137.5t-160 50.5q-133 0 -287 -65l-43 202q205 78 391 78q211 0 329 -97t118 -261q0 -118 -76 -212
t-203 -126v-4q143 -9 233.5 -103.5t90.5 -228.5z" />
    <glyph glyph-name="four.LP" horiz-adv-x="1183" 
d="M1163 324h-229v-324h-264v324h-647v208l561 898h350v-898h229v-208zM670 532v668h-4l-420 -668h424z" />
    <glyph glyph-name="five.LP" horiz-adv-x="1030" 
d="M975 467q0 -227 -157 -357t-423 -130q-136 0 -309 28v199q136 -14 293 -14q143 0 223 64t80 185q0 234 -287 234q-86 0 -254 -21l17 775h716v-230h-489l-12 -321q61 6 129 6q225 0 349 -109t124 -309z" />
    <glyph glyph-name="six.LP" horiz-adv-x="1230" 
d="M1135 473q0 -220 -142.5 -361t-380.5 -141q-267 0 -384 175t-117 518q0 132 19 244.5t65.5 216t119 175.5t186.5 115t261 43q170 0 307 -53l-45 -184q-128 41 -266 41q-95 0 -168 -35.5t-117 -98t-66 -141t-24 -170.5v-10q138 94 311 94q222 0 331.5 -116.5t109.5 -311.5
zM858 455q0 119 -53 180t-170 61q-126 0 -246 -78q0 -233 55 -337.5t183 -104.5q112 0 171.5 77t59.5 202z" />
    <glyph glyph-name="seven.LP" horiz-adv-x="1036" 
d="M983 1196l-401 -836q-103 -215 -240 -385l-199 88q100 168 224 441l317 696h-641v230h940v-234z" />
    <glyph glyph-name="eight.LP" horiz-adv-x="1173" 
d="M1092 377q0 -193 -133 -299.5t-381 -106.5q-238 0 -367 94t-129 275q0 117 72 210.5t221 176.5q-256 141 -256 360q0 161 127.5 266t349.5 105q226 0 342.5 -95.5t116.5 -250.5q0 -205 -260 -352q297 -154 297 -383zM791 1087q0 79 -54 126t-151 47q-94 0 -148.5 -48
t-54.5 -120q0 -74 49 -128.5t166 -113.5q95 56 144 113t49 124zM821 356q0 80 -58 141.5t-196 131.5q-111 -67 -163 -130t-52 -139q0 -88 62 -138t182 -50q107 0 166 50t59 134z" />
    <glyph glyph-name="nine.LP" horiz-adv-x="1222" 
d="M1114 772q0 -139 -22.5 -257t-72.5 -219t-126 -171.5t-187.5 -110t-252.5 -39.5q-163 0 -338 35l18 193q205 -29 326 -29q181 0 278 122t105 322l-2 5q-130 -93 -308 -93q-224 0 -333 109.5t-109 312.5q0 224 141.5 365t376.5 141q138 0 236.5 -46t157.5 -137
t85.5 -214.5t26.5 -288.5zM838 813q0 238 -58 340t-180 102q-112 0 -172.5 -75t-60.5 -211q0 -236 223 -236q122 0 248 80z" />
    <glyph glyph-name="minusinferior" horiz-adv-x="778" 
d="M721 301h-664v188h664v-188z" />
    <glyph glyph-name="zeroinferior.mono" horiz-adv-x="757" 
d="M717 356q0 -196 -92.5 -290.5t-253.5 -94.5q-330 0 -330 385q0 187 91 288t253 101q332 0 332 -389zM512 356q0 127 -33.5 178.5t-99.5 51.5q-69 0 -101 -57.5t-32 -172.5q0 -122 33 -173.5t102 -51.5q131 0 131 225z" />
    <glyph glyph-name="oneinferior.mono" horiz-adv-x="757" 
d="M678 0h-565v164h180v371l-148 -64l-47 141l248 107h174v-555h158v-164z" />
    <glyph glyph-name="twoinferior.mono" horiz-adv-x="757" 
d="M688 0h-614v158l178 137q82 60 111.5 104t29.5 88q0 86 -114 86q-91 0 -156 -32l-41 153q121 51 270 51q157 0 229 -58t72 -159q0 -78 -42.5 -144t-159.5 -146l-78 -56h315v-182z" />
    <glyph glyph-name="threeinferior.mono" horiz-adv-x="757" 
d="M664 205q0 -64 -26.5 -111t-74 -73t-104 -38t-125.5 -12q-116 0 -244 23v139q98 -10 186 -10q144 0 144 86q0 51 -39 70.5t-117 19.5h-88v139h92q68 0 105 23t37 65q0 33 -27 52.5t-78 19.5q-88 0 -186 -29l-33 140q127 36 272 36q136 0 209.5 -50.5t73.5 -145.5
q0 -128 -139 -168q81 -8 121.5 -57.5t40.5 -118.5z" />
    <glyph glyph-name="fourinferior.mono" horiz-adv-x="757" 
d="M723 133h-111v-133h-204v133h-381v166l284 418h301v-426h111v-158zM408 291v293h-2l-199 -293h201z" />
    <glyph glyph-name="fiveinferior.mono" horiz-adv-x="757" 
d="M328 424q28 4 86 4q121 0 194.5 -55t73.5 -158q0 -119 -90 -181.5t-250 -62.5q-113 0 -238 25v133q102 -12 170 -12q77 0 118.5 24.5t41.5 71.5q0 41 -37.5 63.5t-107.5 22.5q-80 0 -162 -10l8 428h494v-158h-295z" />
    <glyph glyph-name="sixinferior.mono" horiz-adv-x="757" 
d="M694 233q0 -119 -83.5 -190.5t-223.5 -71.5q-317 0 -317 369q0 197 102 301t285 104q122 0 213 -36l-37 -140q-91 33 -184 33q-75 0 -125.5 -46t-51.5 -132q79 35 156 35q118 0 192 -61.5t74 -164.5zM492 229q0 44 -29.5 70.5t-81.5 26.5q-49 0 -109 -31q0 -178 121 -178
q43 0 71 31t28 81z" />
    <glyph glyph-name="seveninferior.mono" horiz-adv-x="757" 
d="M668 551l-176 -365q-61 -121 -127 -215l-203 56q66 111 121 225l135 291h-342v174h592v-166z" />
    <glyph glyph-name="eightinferior.mono" horiz-adv-x="757" 
d="M688 193q0 -104 -85.5 -163t-227.5 -59q-146 0 -226.5 55t-80.5 160q0 57 41 103t112 76q-139 57 -139 180q0 89 81 144.5t216 55.5q137 0 215 -48.5t78 -139.5q0 -111 -140 -176q156 -61 156 -188zM477 530q0 34 -27.5 55t-72.5 21t-71.5 -21t-26.5 -55q0 -60 106 -96
q92 35 92 96zM489 203q0 35 -28.5 59.5t-91.5 46.5q-101 -46 -101 -110q0 -39 33 -62.5t78 -23.5q46 0 78 24.5t32 65.5z" />
    <glyph glyph-name="nineinferior.mono" horiz-adv-x="757" 
d="M305 -29q-109 0 -213 23l17 151q105 -24 196 -24q77 0 125.5 44.5t52.5 133.5q-76 -39 -149 -39q-128 0 -195 57.5t-67 167.5q0 119 80 189.5t217 70.5q319 0 319 -368q0 -197 -101.5 -301.5t-281.5 -104.5zM270 492q0 -49 27.5 -76t81.5 -27q43 0 104 33
q0 97 -29.5 138.5t-84.5 41.5q-43 0 -71 -29.5t-28 -80.5z" />
    </font>
</defs>
</svg>
