<?xml version="1.0" standalone="no"?>
<!DOCTYPE svg PUBLIC "-//W3C//DTD SVG 1.1//EN" "http://www.w3.org/Graphics/SVG/1.1/DTD/svg11.dtd" >
<svg xmlns="http://www.w3.org/2000/svg" xmlns:xlink="http://www.w3.org/1999/xlink" version="1.1">
<metadata>
Created by FontForge 20170731 at Tue Jan  3 11:33:25 2023
 By Aleksey,,,
Copyright [c] 1997, 2003 Luc[as] de Groot, published by LucasFonts. www.LucasFonts.com
</metadata>
<defs>
<font id="CorpidCd" horiz-adv-x="921" >
  <font-face 
    font-family="Corpid Cd"
    font-weight="400"
    font-stretch="normal"
    units-per-em="2048"
    panose-1="2 11 5 6 4 5 2 2 2 4"
    ascent="1638"
    descent="-410"
    x-height="1042"
    cap-height="1430"
    bbox="-156 -453 1884 1827"
    underline-thickness="126"
    underline-position="-515"
    unicode-range="U+000D-F739"
  />
<missing-glyph horiz-adv-x="1126" 
d="M205 205h717v717h-717v-717zM717 717h-205v102h307v-512h-102v205h-205v102h205v103zM1024 102h-922v922h922v-922zM614 307h-307v512h103v-409h204v-103z" />
    <glyph glyph-name="fi" unicode="fi" horiz-adv-x="972" 
d="M864 1372q0 -49 -31.5 -82t-78.5 -33t-79 33t-32 82t32 82t79 33t78.5 -33t31.5 -82zM844 0h-164v913h-348v-913h-164v913h-131v129h131v109q0 77 7.5 136.5t26.5 111t50 85t78.5 52t111.5 18.5t111 -12v-121h-74q-41 0 -69.5 -15t-43.5 -36.5t-23 -60.5t-9.5 -70.5
t-1.5 -83.5v-113h512v-1042z" />
    <glyph glyph-name="fl" unicode="fl" horiz-adv-x="1001" 
d="M971 0q-54 -12 -109 -12q-186 0 -186 211v1208q-83 14 -156 14q-46 0 -79.5 -14.5t-54 -38.5t-33 -61t-17 -77t-4.5 -91v-97h188v-129h-188v-913h-164v913h-131v129h131v88q0 210 79 317t273 107q141 0 320 -28v-1286q0 -58 15 -87.5t54 -29.5h62v-123z" />
    <glyph glyph-name=".notdef" horiz-adv-x="1126" 
d="M205 205h717v717h-717v-717zM717 717h-205v102h307v-512h-102v205h-205v102h205v103zM1024 102h-922v922h922v-922zM614 307h-307v512h103v-409h204v-103z" />
    <glyph glyph-name=".null" horiz-adv-x="0" 
 />
    <glyph glyph-name=".null" horiz-adv-x="0" 
 />
    <glyph glyph-name="nonmarkingreturn" horiz-adv-x="682" 
 />
    <glyph glyph-name="CR" unicode="&#xd;" horiz-adv-x="0" 
 />
    <glyph glyph-name="space" unicode=" " horiz-adv-x="442" 
 />
    <glyph glyph-name="space" unicode="&#xa0;" horiz-adv-x="442" 
 />
    <glyph glyph-name="exclam" unicode="!" horiz-adv-x="589" 
d="M420 1536l-23 -1165h-139l-22 1165h184zM442 98q0 -51 -33 -84.5t-81 -33.5t-81.5 33.5t-33.5 82.5q0 52 33.5 86.5t81.5 34.5t81 -34t33 -85z" />
    <glyph glyph-name="quotedbl" unicode="&#x22;" horiz-adv-x="729" 
d="M610 1536l-22 -567h-121l-25 567h168zM287 1536l-25 -567h-121l-22 567h168z" />
    <glyph glyph-name="numbersign" unicode="#" 
d="M858 920h-139l-41 -385h135v-125h-145l-43 -410h-131l41 410h-209l-43 -410h-131l41 410h-130v125h142l41 385h-137v122h147l41 388h131l-39 -388h211l39 388h131l-39 -388h127v-122zM586 920h-209l-39 -385h209z" />
    <glyph glyph-name="dollar" unicode="$" 
d="M813 383q0 -148 -78 -241t-203 -126v-254h-129v242q-144 0 -284 64l31 145q137 -70 270 -70q97 0 157 60t60 155q0 47 -9.5 81.5t-26 61t-53 51.5t-76.5 45.5t-110 51.5q-125 56 -184 138t-59 206q0 129 77.5 223.5t206.5 114.5v215h129v-209q124 -11 205 -53l-32 -133
q-104 49 -218 49q-94 0 -143 -53.5t-49 -136.5q0 -93 51 -143.5t195 -112.5q137 -62 204.5 -146t67.5 -225z" />
    <glyph glyph-name="percent" unicode="%" horiz-adv-x="1345" 
d="M596 1085q0 -176 -71 -273t-199 -97q-256 0 -256 364q0 175 69.5 273t198.5 98q258 0 258 -365zM1133 1432l-830 -1493l-106 59l829 1493zM1276 350q0 -178 -71 -274t-199 -96q-256 0 -256 364q0 174 70 272.5t200 98.5q256 0 256 -365zM457 1081q0 147 -31.5 204.5
t-93.5 57.5q-67 0 -95 -65.5t-28 -194.5q0 -140 29.5 -200t93.5 -60q67 0 96 65.5t29 192.5zM1137 344q0 148 -31.5 205t-93.5 57q-66 0 -94.5 -65t-28.5 -193q0 -140 30.5 -201t94.5 -61q66 0 94.5 65.5t28.5 192.5z" />
    <glyph glyph-name="ampersand" unicode="&#x26;" horiz-adv-x="1191" 
d="M1151 98l-90 -123q-21 19 -97 86t-114 105q-69 -87 -164.5 -138t-208.5 -51q-174 0 -275.5 101.5t-101.5 261.5q0 130 53 230t160 186q-133 200 -133 368q0 148 83 238t222 90q125 0 205 -79t80 -210q0 -116 -57 -208t-207 -205q146 -199 319 -363q70 171 70 410h152
q0 -296 -111 -510q28 -27 61.5 -56.5t83.5 -72.5t70 -60zM614 1149q0 76 -34.5 127t-102.5 51q-66 0 -101.5 -54t-35.5 -134q0 -115 96 -283q97 77 137.5 145t40.5 148zM748 256q-240 237 -353 389q-127 -124 -127 -278q0 -120 64 -187t170 -67q74 0 138 39.5t108 103.5z
" />
    <glyph glyph-name="quotesingle" unicode="'" horiz-adv-x="407" 
d="M289 1536l-23 -567h-125l-22 567h170z" />
    <glyph glyph-name="parenleft" unicode="(" horiz-adv-x="557" 
d="M449 -344l-127 -49q-209 471 -209 985q0 521 209 989l127 -49q-173 -458 -173 -936q0 -476 173 -940z" />
    <glyph glyph-name="parenright" unicode=")" horiz-adv-x="557" 
d="M444 596q0 -520 -211 -989l-127 49q173 461 173 936q0 479 -173 940l127 49q211 -466 211 -985z" />
    <glyph glyph-name="asterisk" unicode="*" 
d="M809 1030l-82 -135l-221 186l35 -307h-160l37 307l-223 -186l-82 135l260 123l-260 127l82 135l223 -188l-37 309h160l-37 -309l223 188l82 -135l-260 -123z" />
    <glyph glyph-name="plus" unicode="+" 
d="M842 567h-307v-377h-148v377h-307v138h307v380h148v-380h307v-138z" />
    <glyph glyph-name="comma" unicode="," horiz-adv-x="454" 
d="M227 236q68 0 99 -63q45 -92 -24 -245q-55 -122 -177 -258l-82 62q111 153 111 243q0 28 -20.5 68t-20.5 70q0 53 31 88t83 35z" />
    <glyph glyph-name="hyphen" unicode="-" horiz-adv-x="489" 
d="M485 504h-422v139h422v-139z" />
    <glyph glyph-name="hyphen" unicode="&#xad;" horiz-adv-x="489" 
d="M485 504h-422v139h422v-139z" />
    <glyph glyph-name="period" unicode="." horiz-adv-x="454" 
d="M344 111q0 -53 -33 -88t-84 -35t-83.5 35t-32.5 88t33 89t83 36q51 0 84 -36t33 -89z" />
    <glyph glyph-name="slash" unicode="/" horiz-adv-x="716" 
d="M705 1585l-553 -1890l-148 43l551 1890z" />
    <glyph glyph-name="zero" unicode="0" 
d="M864 723q0 -366 -96.5 -556t-310.5 -190q-220 0 -310 173t-90 571q0 731 408 731q95 0 165.5 -36t115 -97.5t71.5 -156.5t37 -199.5t10 -239.5zM690 711q0 155 -10.5 261.5t-36 186.5t-71 118t-113.5 38q-123 0 -176.5 -144t-53.5 -444q0 -236 25.5 -370.5t76 -188
t136.5 -53.5q48 0 83.5 18t60 56t40.5 86t24.5 119t11.5 144.5t3 172.5z" />
    <glyph glyph-name="one" unicode="1" 
d="M819 0h-657v137h266v1116l-240 -174l-49 103l310 252h149v-1297h221v-137z" />
    <glyph glyph-name="two" unicode="2" 
d="M834 0h-742v131l230 318q146 201 210 349t64 275q0 238 -221 238q-103 0 -234 -56l-24 131q161 66 301 66q179 0 270.5 -94.5t91.5 -267.5q0 -152 -78 -319.5t-229 -377.5l-182 -254h543v-139z" />
    <glyph glyph-name="three" unicode="3" 
d="M799 395q0 -195 -125.5 -306.5t-339.5 -111.5q-137 0 -256 31v123q112 -14 244 -14q139 0 212.5 71t73.5 199q0 78 -25.5 134.5t-69.5 87t-94.5 44t-109.5 13.5h-94v135h82q139 0 215 74.5t76 199.5q0 109 -52 174.5t-155 65.5q-116 0 -242 -60l-26 131q171 66 305 66
q166 0 258 -97t92 -261q0 -123 -65.5 -218t-172.5 -124v-4q122 -17 195.5 -113t73.5 -240z" />
    <glyph glyph-name="four" unicode="4" 
d="M864 342h-151v-342h-166v342h-502v135l430 953h238v-949h151v-139zM547 481v801h-2l-355 -801h357z" />
    <glyph glyph-name="five" unicode="5" 
d="M821 461q0 -230 -123.5 -357t-339.5 -127q-125 0 -264 29v125q107 -14 246 -14q299 0 299 327q0 147 -69.5 216t-217.5 69q-41 0 -209 -16l9 717h585v-146h-436l-6 -424q49 8 131 8q190 0 292.5 -112t102.5 -295z" />
    <glyph glyph-name="six" unicode="6" 
d="M850 467q0 -95 -24 -181.5t-70.5 -156t-122 -111t-170.5 -41.5q-103 0 -176 46.5t-115 138.5t-61 214t-19 288q0 103 9 194.5t29 183t56.5 163.5t87.5 129t125.5 87.5t167.5 30.5q55 0 118 -13.5t108 -33.5l-29 -123q-93 41 -205 41q-77 0 -135.5 -44t-93 -121.5
t-52.5 -171.5t-20 -206q51 50 120 77.5t142 27.5q90 0 157 -37.5t103 -100t53 -132.5t17 -148zM678 444q0 142 -46.5 224t-148.5 82q-54 0 -116.5 -27t-106.5 -70q0 -207 26 -328t71 -166.5t116 -45.5q97 0 151 97.5t54 233.5z" />
    <glyph glyph-name="seven" unicode="7" 
d="M834 1286l-312 -952q-60 -183 -174 -359l-121 64q89 162 170 424l254 821h-559v146h742v-144z" />
    <glyph glyph-name="eight" unicode="8" 
d="M850 356q0 -175 -105.5 -277t-291.5 -102q-181 0 -283 88t-102 257q0 93 33.5 169.5t87 130t137.5 107.5q-110 73 -165 162t-55 209q0 149 95 250.5t270 101.5q163 0 251.5 -93t88.5 -231q0 -119 -56 -210t-171 -168q130 -79 198 -171t68 -223zM645 1110q0 100 -50 157.5
t-136 57.5q-90 0 -138.5 -60.5t-48.5 -154.5q0 -87 44.5 -155t144.5 -134q92 62 138 129t46 160zM682 336q0 100 -56 168.5t-182 146.5q-49 -36 -80 -63.5t-63 -66t-47.5 -83t-15.5 -96.5q0 -115 59.5 -176.5t165.5 -61.5q99 0 159 66.5t60 165.5z" />
    <glyph glyph-name="nine" unicode="9" 
d="M827 766q0 -137 -15 -252t-50 -216t-89 -171t-136 -110t-187 -40q-131 0 -252 37l11 127q110 -28 249 -28q149 0 218.5 136t82.5 402q-50 -50 -119 -78t-141 -28q-87 0 -152.5 35t-103 96t-55.5 134.5t-18 160.5q0 92 24.5 176.5t71 153.5t122 110t169.5 41q85 0 149 -32
t105.5 -89t67.5 -144t37 -189t11 -232zM657 776q0 203 -24 323.5t-69 169t-118 48.5q-65 0 -113.5 -49t-70.5 -121.5t-22 -155.5q0 -305 194 -305q54 0 115 24.5t108 65.5z" />
    <glyph glyph-name="colon" unicode=":" horiz-adv-x="487" 
d="M377 893q0 -53 -33 -89t-84 -36q-50 0 -83.5 35.5t-33.5 87.5q0 54 33 89.5t84 35.5t84 -35t33 -88zM377 111q0 -53 -33 -88t-84 -35t-84 35t-33 88t33 89t84 36t84 -36t33 -89z" />
    <glyph glyph-name="semicolon" unicode=";" horiz-adv-x="487" 
d="M377 893q0 -53 -33 -89t-84 -36q-50 0 -83.5 35.5t-33.5 87.5q0 54 33 89.5t84 35.5t84 -35t33 -88zM262 236q68 0 99 -64q44 -92 -26 -247q-55 -121 -175 -255l-82 62q108 152 108 243q0 28 -19.5 68t-19.5 70q0 54 31 88.5t84 34.5z" />
    <glyph glyph-name="semicolon" unicode="&#x37e;" horiz-adv-x="487" 
d="M377 893q0 -53 -33 -89t-84 -36q-50 0 -83.5 35.5t-33.5 87.5q0 54 33 89.5t84 35.5t84 -35t33 -88zM262 236q68 0 99 -64q44 -92 -26 -247q-55 -121 -175 -255l-82 62q108 152 108 243q0 28 -19.5 68t-19.5 70q0 54 31 88.5t84 34.5z" />
    <glyph glyph-name="less" unicode="&#x3c;" 
d="M817 98l-737 467v144l737 465v-166l-598 -369l598 -371v-170z" />
    <glyph glyph-name="equal" unicode="=" 
d="M823 780h-725v135h725v-135zM823 358h-725v136h725v-136z" />
    <glyph glyph-name="greater" unicode="&#x3e;" 
d="M842 565l-738 -467v166l598 371l-598 371v168l738 -467v-142z" />
    <glyph glyph-name="question" unicode="?" horiz-adv-x="761" 
d="M676 1204q0 -68 -16.5 -131.5t-43 -115t-58 -102.5t-61.5 -103.5t-53.5 -108t-35 -125.5t-5.5 -147h-145q-9 91 -1 159t29 131.5t47.5 112t55.5 100.5t53.5 96.5t40 100t15.5 111.5q0 229 -217 229q-79 0 -172 -14v131q95 24 198 24q98 0 170.5 -26.5t115 -74.5
t63 -109.5t20.5 -137.5zM449 98q0 -50 -33.5 -84t-79.5 -34q-48 0 -81.5 33.5t-33.5 82.5q0 52 33.5 86.5t81.5 34.5t80.5 -34t32.5 -85z" />
    <glyph glyph-name="at" unicode="@" horiz-adv-x="1435" 
d="M1270 -137q-200 -113 -436 -113q-205 0 -363 105.5t-243 291t-85 420.5q0 205 54 372t149.5 278t225.5 171t282 60q196 0 297.5 -101.5t101.5 -273.5v-731h-127l-12 121q-115 -144 -268 -144q-130 0 -204.5 79.5t-74.5 219.5q0 162 107 244t291 82h127v96
q0 132 -59.5 205.5t-198.5 73.5q-111 0 -208.5 -49.5t-171.5 -140.5t-116.5 -230.5t-42.5 -310.5q0 -200 64.5 -358.5t193.5 -253.5t303 -95q197 0 369 103zM1094 592v235h-146q-106 0 -160.5 -52t-54.5 -148q0 -83 38 -130.5t110 -47.5q58 0 106.5 36.5t106.5 106.5z" />
    <glyph glyph-name="A" unicode="A" horiz-adv-x="1093" 
d="M1051 0h-193q-40 183 -92 385h-457q-55 -226 -88 -385h-178q188 796 399 1430h199q219 -661 410 -1430zM735 524q-96 375 -200 719h-3q-95 -321 -194 -719h397z" />
    <glyph glyph-name="B" unicode="B" horiz-adv-x="968" 
d="M895 420q0 -201 -115.5 -310.5t-300.5 -109.5h-332v1430h302q185 0 279.5 -92t94.5 -261q0 -233 -161 -309q101 -22 167 -118.5t66 -229.5zM649 1055q0 239 -213 239h-123v-483h148q188 0 188 244zM715 408q0 128 -63 199t-189 71h-150v-539h176q106 0 166 69t60 200z
" />
    <glyph glyph-name="C" unicode="C" horiz-adv-x="940" 
d="M901 61q-131 -79 -293 -79q-250 0 -385 184.5t-135 529.5q0 349 138.5 550.5t389.5 201.5q156 0 279 -76l-53 -133q-114 64 -224 64q-116 0 -195.5 -76t-116 -205.5t-36.5 -306.5q0 -286 94 -436t273 -150q108 0 219 68z" />
    <glyph glyph-name="D" unicode="D" horiz-adv-x="1140" 
d="M1059 735q0 -358 -150.5 -546.5t-425.5 -188.5h-336v1430h359q265 0 409 -185.5t144 -509.5zM879 727q0 167 -38.5 290t-126.5 198t-220 75h-177v-1149h175q196 0 291.5 144t95.5 442z" />
    <glyph glyph-name="E" unicode="E" horiz-adv-x="892" 
d="M788 0h-641v1430h633v-140h-465v-475h406v-137h-406v-537h473v-141z" />
    <glyph glyph-name="F" unicode="F" horiz-adv-x="823" 
d="M756 1290h-439v-508h392v-137h-392v-645h-170v1430h609v-140z" />
    <glyph glyph-name="G" unicode="G" horiz-adv-x="1120" 
d="M997 1335l-59 -135q-151 100 -297 100q-125 0 -211 -77t-125 -206t-39 -302q0 -283 97.5 -435.5t275.5 -152.5q79 0 180 33v583h170v-690q-169 -73 -356 -73q-178 0 -302 89t-184.5 249t-60.5 382q0 343 148 544.5t411 201.5q185 0 352 -111z" />
    <glyph glyph-name="H" unicode="H" horiz-adv-x="1134" 
d="M989 0h-170v672h-502v-672h-170v1430h170v-611h502v611h170v-1430z" />
    <glyph glyph-name="I" unicode="I" horiz-adv-x="462" 
d="M317 0h-170v1430h170v-1430z" />
    <glyph glyph-name="J" unicode="J" horiz-adv-x="565" 
d="M422 393q0 -205 -65 -304t-205 -99q-66 0 -119 12v137h100q62 0 90.5 55.5t28.5 200.5v1035h170v-1037z" />
    <glyph glyph-name="K" unicode="K" horiz-adv-x="1003" 
d="M971 0h-207l-375 707l-72 -95v-612h-170v1430h170v-613l439 613h207l-457 -590z" />
    <glyph glyph-name="L" unicode="L" horiz-adv-x="761" 
d="M739 0h-592v1430h170v-1285h422v-145z" />
    <glyph glyph-name="M" unicode="M" horiz-adv-x="1517" 
d="M1391 0h-172q-6 689 -60 1231h-2l-317 -1231h-176l-320 1231h-2q-52 -617 -55 -1231h-160q9 715 86 1430h250l301 -1162h2l297 1162h244q75 -684 84 -1430z" />
    <glyph glyph-name="N" unicode="N" horiz-adv-x="1177" 
d="M1032 0h-231l-498 1202h-2v-1202h-154v1430h244l486 -1170h2v1170h153v-1430z" />
    <glyph glyph-name="O" unicode="O" horiz-adv-x="1234" 
d="M1147 725q0 -225 -60 -392t-182 -261.5t-295 -94.5q-255 0 -388.5 196t-133.5 536q0 222 60.5 388t183 260.5t293.5 94.5q253 0 387.5 -196.5t134.5 -530.5zM965 707q0 279 -88.5 440.5t-262.5 161.5q-91 0 -159.5 -47.5t-108.5 -131t-59 -185t-19 -220.5
q0 -184 37.5 -317.5t118 -210t197.5 -76.5q91 0 159 47.5t107.5 130.5t58.5 185.5t19 222.5z" />
    <glyph glyph-name="P" unicode="P" horiz-adv-x="946" 
d="M872 1016q0 -215 -110 -337t-311 -122h-134v-557h-170v1430h302q88 0 159 -19q122 -32 193 -137.5t71 -257.5zM692 1004q0 101 -38 175.5t-101 96.5q-44 16 -117 16h-119v-596h148q110 0 168.5 82.5t58.5 225.5z" />
    <glyph glyph-name="Q" unicode="Q" horiz-adv-x="1234" 
d="M1217 -37l-101 -100l-194 229q-125 -115 -312 -115q-255 0 -388.5 196t-133.5 536q0 222 60.5 388t183 260.5t293.5 94.5q253 0 387.5 -196.5t134.5 -530.5q0 -330 -129 -528zM967 707q0 183 -37 315.5t-117.5 209.5t-198.5 77q-91 0 -159.5 -47.5t-108.5 -131t-59 -185
t-19 -220.5q0 -281 88.5 -442.5t264.5 -161.5q117 0 200 90l-219 258l100 100l197 -233q68 142 68 371z" />
    <glyph glyph-name="R" unicode="R" horiz-adv-x="950" 
d="M913 0h-194l-273 649h-131v-649h-168v1430h314q186 0 286.5 -101.5t100.5 -271.5q0 -148 -66.5 -240.5t-173.5 -130.5zM668 1038q0 50 -11.5 93.5t-36.5 80.5t-70 58.5t-106 21.5h-129v-508h125q113 0 170.5 71t57.5 183z" />
    <glyph glyph-name="S" unicode="S" horiz-adv-x="825" 
d="M758 383q0 -189 -115 -297.5t-311 -108.5q-121 0 -252 43l26 150q115 -45 232 -45q116 0 178 65t62 170q0 100 -51.5 164.5t-188.5 159.5q-139 95 -194.5 182.5t-55.5 212.5q0 167 108.5 270t280.5 103q107 0 207 -35l-27 -143q-85 35 -180 35q-99 0 -155 -61t-56 -150
q0 -67 28 -120.5t74 -94t132 -99.5q145 -98 201.5 -189.5t56.5 -211.5z" />
    <glyph glyph-name="T" unicode="T" horiz-adv-x="872" 
d="M854 1288h-332v-1288h-172v1288h-332v142h836v-142z" />
    <glyph glyph-name="U" unicode="U" horiz-adv-x="1163" 
d="M1020 514q0 -270 -118.5 -402t-326.5 -132q-205 0 -318.5 129t-113.5 385v936h170v-924q0 -195 71.5 -290t199.5 -95q127 0 198.5 96t71.5 289v924h166v-916z" />
    <glyph glyph-name="V" unicode="V" horiz-adv-x="1060" 
d="M1038 1430q-179 -762 -401 -1430h-197q-232 665 -411 1430h194q118 -580 324 -1244l2 2q172 578 309 1242h180z" />
    <glyph glyph-name="W" unicode="W" horiz-adv-x="1656" 
d="M1606 1430q-119 -670 -318 -1430h-223l-238 1192h-4l-227 -1192h-225q-201 772 -316 1430h193q95 -591 246 -1231h2l235 1231h205l250 -1231h2q165 701 239 1231h179z" />
    <glyph glyph-name="X" unicode="X" horiz-adv-x="1013" 
d="M993 0h-207l-284 612l-283 -612h-201l381 739l-346 691h203l256 -556l254 556h195l-345 -682z" />
    <glyph glyph-name="Y" unicode="Y" horiz-adv-x="954" 
d="M944 1430q-193 -479 -381 -809v-621h-172v621q-207 365 -383 809h195q120 -353 286 -656q139 278 265 656h190z" />
    <glyph glyph-name="Z" unicode="Z" horiz-adv-x="847" 
d="M795 0h-746v139l549 1151h-528v140h714v-138l-553 -1151h564v-141z" />
    <glyph glyph-name="bracketleft" unicode="[" horiz-adv-x="563" 
d="M479 -350h-319v1896h319v-121h-166v-1652h166v-123z" />
    <glyph glyph-name="backslash" unicode="\" horiz-adv-x="716" 
d="M713 -262l-148 -43l-553 1890l150 43z" />
    <glyph glyph-name="bracketright" unicode="]" horiz-adv-x="563" 
d="M401 -350h-317v123h166v1652h-166v121h317v-1896z" />
    <glyph glyph-name="asciicircum" unicode="^" 
d="M842 721h-170l-207 582l-193 -582h-168l263 709h202z" />
    <glyph glyph-name="underscore" unicode="_" 
d="M922 -453h-922v127h922v-127z" />
    <glyph glyph-name="grave" unicode="`" horiz-adv-x="450" 
d="M317 1262l-88 -62l-229 264l127 86z" />
    <glyph glyph-name="a" unicode="a" horiz-adv-x="888" 
d="M764 0h-131l-10 121q-119 -144 -271 -144q-128 0 -203 79t-75 218q0 162 107 245t292 83h129v96q0 124 -42.5 180t-147.5 56q-119 0 -246 -62l-33 125q152 68 303 68q89 0 154 -26t102 -73t54.5 -105.5t17.5 -129.5v-731zM602 250v235h-147q-106 0 -160.5 -52.5
t-54.5 -149.5q0 -82 38 -129.5t111 -47.5q58 0 106 36.5t107 107.5z" />
    <glyph glyph-name="b" unicode="b" horiz-adv-x="960" 
d="M883 557q0 -95 -15.5 -178.5t-49 -156.5t-83 -125.5t-121.5 -82.5t-161 -30q-161 0 -324 59v1493h164v-633q63 87 126.5 124.5t145.5 37.5q84 0 146.5 -40t99.5 -111t54.5 -160.5t17.5 -196.5zM709 545q0 383 -183 383q-57 0 -105.5 -37.5t-127.5 -149.5v-585
q74 -39 172 -39q122 0 183 111.5t61 316.5z" />
    <glyph glyph-name="c" unicode="c" horiz-adv-x="741" 
d="M692 35q-101 -53 -235 -53q-192 0 -286.5 138.5t-94.5 385.5q0 266 107.5 411.5t291.5 145.5q118 0 213 -53l-37 -129q-85 45 -168 45q-120 0 -177.5 -107t-57.5 -295q0 -403 237 -403q100 0 179 43z" />
    <glyph glyph-name="d" unicode="d" horiz-adv-x="960" 
d="M831 0h-129l-14 158q-69 -97 -135.5 -139t-151.5 -42q-86 0 -150 40t-101 111.5t-54.5 160.5t-17.5 198q0 117 24.5 217.5t73 180.5t130.5 126t188 46q90 0 174 -19v498h163v-1536zM668 301v588q-75 37 -174 37q-121 0 -181.5 -111.5t-60.5 -316.5q0 -383 182 -383
q58 0 106.5 37t127.5 149z" />
    <glyph glyph-name="e" unicode="e" horiz-adv-x="905" 
d="M821 602q0 -9 -1 -45t-1 -53h-571q0 -194 58 -291.5t198 -97.5q128 0 270 49l23 -131q-156 -56 -318 -56q-204 0 -302.5 135t-98.5 406q0 257 102 402t297 145q344 0 344 -463zM653 625q5 148 -43.5 231.5t-142.5 83.5q-56 0 -98.5 -27t-67.5 -73.5t-38 -100t-15 -114.5
h405z" />
    <glyph glyph-name="f" unicode="f" horiz-adv-x="561" 
d="M555 1421h-76q-41 0 -69.5 -15t-43.5 -36.5t-23 -60.5t-9.5 -70.5t-1.5 -83.5v-113h194v-129h-194v-913h-164v913h-131v129h131v109q0 77 7.5 136.5t26.5 111t50 85t78.5 52t111.5 18.5q66 0 113 -12v-121z" />
    <glyph glyph-name="g" unicode="g" horiz-adv-x="960" 
d="M831 20q0 -248 -91.5 -356t-309.5 -108q-124 0 -240 22l7 121q96 -8 223 -8q141 0 194.5 67.5t53.5 259.5v134q-61 -86 -126 -124t-147 -38q-84 0 -146.5 39.5t-99 110t-54 158.5t-17.5 194q0 118 25 218.5t75.5 179.5t135 124t194.5 45q76 0 167 -16t156 -42v-981z
M668 313v576q-75 37 -172 37q-122 0 -183 -109.5t-61 -312.5q0 -377 182 -377q58 0 106.5 37t127.5 149z" />
    <glyph glyph-name="h" unicode="h" horiz-adv-x="976" 
d="M852 0h-164v651q0 134 -35.5 205.5t-120.5 71.5q-63 0 -114.5 -42t-124.5 -145v-741h-164v1536h164v-637q58 83 123.5 124.5t150.5 41.5q76 0 132.5 -30.5t89 -84.5t48 -121t15.5 -147v-682z" />
    <glyph glyph-name="i" unicode="i" horiz-adv-x="460" 
d="M352 1372q0 -50 -30.5 -82.5t-79.5 -32.5t-80 32.5t-31 82.5t31 82.5t80 32.5t79.5 -32.5t30.5 -82.5zM332 0h-164v913h-131v129h295v-1042z" />
    <glyph glyph-name="j" unicode="j" horiz-adv-x="432" 
d="M334 1372q0 -50 -32 -82.5t-81 -32.5q-47 0 -78.5 33t-31.5 82t31.5 82t78.5 33q49 0 81 -32.5t32 -82.5zM303 -53q0 -115 -16.5 -192t-50 -120.5t-78 -61t-107.5 -17.5q-50 0 -108 14l4 123h86q55 0 80.5 55t25.5 184v1110h164v-1095z" />
    <glyph glyph-name="k" unicode="k" horiz-adv-x="868" 
d="M850 0h-195l-303 528l-59 -71v-457h-164v1536h164v-899l319 405h203l-340 -391z" />
    <glyph glyph-name="l" unicode="l" horiz-adv-x="456" 
d="M424 -2q-50 -12 -109 -12q-186 0 -186 211v1339h164v-1298q0 -117 67 -117h64v-123z" />
    <glyph glyph-name="m" unicode="m" horiz-adv-x="1468" 
d="M1343 0h-163v651q0 136 -31 206.5t-109 70.5q-57 0 -103.5 -40.5t-119.5 -146.5v-741h-162v649q0 136 -30.5 207.5t-108.5 71.5q-56 0 -102 -40.5t-121 -146.5v-741h-164v1042h129l16 -153q65 91 128.5 133.5t144.5 42.5q186 0 241 -191q73 101 137.5 146t147.5 45
q74 0 127.5 -30.5t84 -85t44.5 -120.5t14 -147v-682z" />
    <glyph glyph-name="n" unicode="n" horiz-adv-x="976" 
d="M852 0h-164v651q0 134 -35.5 205.5t-120.5 71.5q-63 0 -114.5 -42t-124.5 -145v-741h-164v1042h129l16 -153q65 90 133.5 133t157.5 43q76 0 133 -30.5t90 -84.5t48.5 -121t15.5 -147v-682z" />
    <glyph glyph-name="o" unicode="o" horiz-adv-x="958" 
d="M883 530q0 -260 -108.5 -406.5t-301.5 -146.5q-192 0 -294.5 139.5t-102.5 393.5q0 263 108 409t301 146q191 0 294.5 -140t103.5 -395zM709 510q0 201 -59 310.5t-175 109.5q-112 0 -169.5 -107.5t-57.5 -290.5q0 -201 58 -310t175 -109q112 0 170 107t58 290z" />
    <glyph glyph-name="p" unicode="p" horiz-adv-x="960" 
d="M883 557q0 -93 -15 -176t-47.5 -156t-80.5 -125.5t-117.5 -83t-155.5 -30.5q-88 0 -174 22v-434h-164v1468h129l14 -157q68 97 134.5 138.5t152.5 41.5t150.5 -40t101.5 -111.5t54.5 -160t17.5 -196.5zM709 545q0 383 -183 383q-57 0 -105.5 -37.5t-127.5 -149.5v-585
q74 -39 174 -39q121 0 181.5 111.5t60.5 316.5z" />
    <glyph glyph-name="q" unicode="q" horiz-adv-x="960" 
d="M831 -426h-163v567q-61 -87 -126 -125.5t-147 -38.5q-84 0 -146.5 40t-99 111t-54 161t-17.5 198q0 94 15.5 177.5t49 156.5t83 125.5t121.5 82.5t161 30q76 0 167 -16t156 -42v-1427zM668 301v588q-75 37 -172 37q-122 0 -183 -111.5t-61 -316.5q0 -383 182 -383
q58 0 106.5 37t127.5 149z" />
    <glyph glyph-name="r" unicode="r" horiz-adv-x="624" 
d="M600 1047l-25 -150q-50 16 -81 16q-40 0 -81 -46.5t-120 -172.5v-694h-164v1042h129l16 -190q70 119 118 166t108 47q48 0 100 -18z" />
    <glyph glyph-name="s" unicode="s" horiz-adv-x="706" 
d="M641 270q0 -134 -87.5 -213.5t-240.5 -79.5q-127 0 -233 41l22 140q113 -45 205 -45q77 0 119.5 38t42.5 103q0 62 -36 109t-136 112q-111 70 -160 141t-49 166q0 127 82.5 205t224.5 78q104 0 195 -31l-23 -135q-86 35 -164 35q-70 0 -108.5 -38.5t-38.5 -94.5
q0 -61 30 -105t117 -100q132 -80 185 -152t53 -174z" />
    <glyph glyph-name="t" unicode="t" horiz-adv-x="591" 
d="M530 2q-67 -18 -145 -18q-108 0 -164.5 57.5t-56.5 206.5v665h-127v129h125l39 304h127v-304h202v-129h-202v-616q0 -59 7 -94.5t25 -53t39 -23t58 -5.5h73v-119z" />
    <glyph glyph-name="u" unicode="u" horiz-adv-x="976" 
d="M848 0h-129l-17 154q-65 -91 -133.5 -134t-156.5 -43q-77 0 -134 30.5t-89.5 85t-48 121t-15.5 146.5v682h164v-649q0 -134 35 -206t120 -72q62 0 114.5 42t125.5 144v741h164v-1042z" />
    <glyph glyph-name="v" unicode="v" horiz-adv-x="823" 
d="M786 1042q-114 -549 -286 -1042h-178q-176 520 -285 1042h172q88 -429 213 -856h2q113 381 199 856h163z" />
    <glyph glyph-name="w" unicode="w" horiz-adv-x="1337" 
d="M1292 1042q-96 -525 -248 -1042h-192l-186 840h-2l-177 -840h-190q-151 504 -250 1042h172q70 -421 180 -876h2l189 876h174l194 -876h3q108 434 167 876h164z" />
    <glyph glyph-name="x" unicode="x" horiz-adv-x="860" 
d="M821 0h-192l-201 430l-201 -430h-188l283 530l-267 512h191l188 -403l187 403h176l-256 -497z" />
    <glyph glyph-name="y" unicode="y" horiz-adv-x="823" 
d="M786 1042q-139 -681 -282 -1042q-70 -179 -125.5 -274.5t-107.5 -132.5t-121 -37q-55 0 -109 16l6 121h90q49 0 91.5 62t107.5 241q-191 538 -299 1046h172q75 -363 221 -849h2q120 409 191 849h163z" />
    <glyph glyph-name="z" unicode="z" horiz-adv-x="737" 
d="M674 0h-608v131l403 776h-379v135h559v-131l-401 -774h426v-137z" />
    <glyph glyph-name="braceleft" unicode="{" horiz-adv-x="581" 
d="M518 -346q-36 -8 -86 -8q-118 0 -162.5 87t-44.5 281v283q0 135 -36.5 197.5t-112.5 64.5v129q76 2 112.5 65t36.5 197v232q0 193 45 281.5t162 88.5q32 0 86 -8v-119h-59q-31 0 -47.5 -18.5t-25.5 -73.5t-9 -159v-213q0 -130 -39.5 -222t-126.5 -112q59 -14 98 -67
t53.5 -121t14.5 -152v-264q0 -103 9 -158t26 -73.5t47 -18.5h59v-119z" />
    <glyph glyph-name="bar" unicode="|" horiz-adv-x="856" 
d="M506 -426h-156v2019h156v-2019z" />
    <glyph glyph-name="braceright" unicode="}" horiz-adv-x="581" 
d="M551 559q-77 -2 -113.5 -65t-36.5 -197v-283q0 -192 -45.5 -280t-162.5 -88q-53 0 -84 8v119h57q31 0 48 19t25.5 73t8.5 158v264q0 61 9 114t28 99.5t52.5 78t78.5 42.5q-60 14 -99 67t-54 121.5t-15 151.5v213q0 104 -8.5 159t-25 73.5t-46.5 18.5h-59v119q46 8 84 8
q119 0 163.5 -87.5t44.5 -282.5v-232q0 -135 36.5 -197.5t113.5 -64.5v-129z" />
    <glyph glyph-name="asciitilde" unicode="~" 
d="M858 1182q0 -154 -61.5 -246t-165.5 -92q-50 0 -91.5 23t-64.5 50.5t-49 69.5q-5 8 -18 27t-18.5 26.5t-16 22t-18 20.5t-18.5 13.5t-22 10.5t-24 3q-103 0 -103 -219h-125v18q0 152 62 243t166 91q70 0 116.5 -37t88.5 -102q5 -7 17.5 -27t17.5 -27.5t16 -22t18 -20.5
t18 -14t22 -11t24 -3q102 0 102 221h127v-18z" />
    <glyph glyph-name="Euro" 
d="M838 53q-103 -73 -260 -73q-172 0 -275.5 110.5t-136.5 351.5h-127v121h117q-4 43 -4 137q0 93 4 138h-117v118h129q36 251 145.5 372.5t278.5 121.5q125 0 231 -74l-47 -119q-89 54 -182 54q-201 0 -254 -355h309v-118h-323q-2 -33 -2 -123q0 -107 4 -152h321v-121h-305
q46 -319 266 -319q103 0 185 53z" />
    <glyph glyph-name="Euro" unicode="&#x20ac;" 
d="M838 53q-103 -73 -260 -73q-172 0 -275.5 110.5t-136.5 351.5h-127v121h117q-4 43 -4 137q0 93 4 138h-117v118h129q36 251 145.5 372.5t278.5 121.5q125 0 231 -74l-47 -119q-89 54 -182 54q-201 0 -254 -355h309v-118h-323q-2 -33 -2 -123q0 -107 4 -152h321v-121h-305
q46 -319 266 -319q103 0 185 53z" />
    <glyph glyph-name="Euro" unicode="&#x20a0;" 
d="M838 53q-103 -73 -260 -73q-172 0 -275.5 110.5t-136.5 351.5h-127v121h117q-4 43 -4 137q0 93 4 138h-117v118h129q36 251 145.5 372.5t278.5 121.5q125 0 231 -74l-47 -119q-89 54 -182 54q-201 0 -254 -355h309v-118h-323q-2 -33 -2 -123q0 -107 4 -152h321v-121h-305
q46 -319 266 -319q103 0 185 53z" />
    <glyph glyph-name="exclamdown" unicode="&#xa1;" horiz-adv-x="589" 
d="M377 1106q0 -52 -33.5 -86.5t-81.5 -34.5t-81.5 34t-33.5 85t33.5 85t81.5 34t81.5 -34t33.5 -83zM354 -334h-184l23 1165h139z" />
    <glyph glyph-name="cent" unicode="&#xa2;" 
d="M809 266q-117 -60 -211 -69v-197h-129v197q-166 17 -255 153.5t-89 364.5q0 229 95 367t249 157v191h129v-187q103 -7 205 -67l-47 -125q-101 59 -197 59q-126 0 -193 -101t-67 -282q0 -199 67.5 -298t192.5 -99q107 0 213 57z" />
    <glyph glyph-name="sterling" unicode="&#xa3;" 
d="M825 0h-712v133q85 109 117 232t12 294h-158v127h135q-20 160 -20 277q0 190 90 286.5t260 96.5q106 0 217 -27v-135q-140 23 -197 23q-107 0 -155.5 -58t-48.5 -174q0 -91 22 -289h328v-127h-307q30 -327 -117 -516h534v-143z" />
    <glyph glyph-name="currency" unicode="&#xa4;" 
d="M844 113l-121 -70l-115 215q-58 -43 -155 -43q-86 0 -144 39l-112 -211l-119 68l127 225q-78 106 -78 299t82 311l-131 232l121 69l116 -215q62 41 152 41q85 0 143 -39l113 213l121 -67l-127 -228q78 -119 78 -303q0 -191 -82 -307zM645 635q0 148 -47 231.5t-139 83.5
q-89 0 -136 -81t-47 -216q0 -150 46.5 -231.5t138.5 -81.5q90 0 137 79.5t47 215.5z" />
    <glyph glyph-name="yen" unicode="&#xa5;" 
d="M874 1430q-151 -393 -331 -699v-61h254v-119h-254v-201h254v-119h-254v-231h-166v231h-252v119h252v201h-252v119h252v61q-184 321 -330 699h182q103 -298 244 -568q122 252 223 568h178z" />
    <glyph glyph-name="brokenbar" unicode="&#xa6;" 
d="M539 811h-156v784h156v-784zM539 -426h-156v801h156v-801z" />
    <glyph glyph-name="section" unicode="&#xa7;" horiz-adv-x="933" 
d="M807 254q0 -132 -43 -270.5t-117 -231.5q-112 -141 -293 -141q-68 0 -127 18l9 129q56 -16 137 -16q74 0 112.5 45.5t38.5 126.5q0 61 -30 127.5t-74.5 124t-97 131t-97 145.5t-74.5 170.5t-30 202.5q0 128 44 269t116 235q110 145 282 145q68 0 129 -14l-8 -125
q-79 14 -131 14q-154 0 -154 -192q0 -50 22.5 -102.5t58.5 -102t79.5 -103t87 -115.5t79.5 -130t58.5 -156t22.5 -184zM668 223q0 111 -36 210t-88.5 173t-106.5 143.5t-97 152.5t-53 169q-27 -131 -27 -211q0 -82 18.5 -156.5t49.5 -133t68.5 -113t76.5 -107t73 -104.5
t59.5 -115.5t33.5 -130.5q29 107 29 223z" />
    <glyph glyph-name="dieresis" unicode="&#xa8;" horiz-adv-x="630" 
d="M518 1372q0 -44 -27.5 -72t-70.5 -28t-69.5 28t-26.5 72t26.5 72.5t69.5 28.5t70.5 -28.5t27.5 -72.5zM195 1372q0 -44 -28 -72t-71 -28q-42 0 -69 28t-27 72t27.5 72.5t68.5 28.5q43 0 71 -28.5t28 -72.5z" />
    <glyph glyph-name="copyright" unicode="&#xa9;" horiz-adv-x="1249" 
d="M1184 692q0 -190 -72.5 -348.5t-201.5 -251t-287 -92.5q-162 0 -291.5 92t-201 249.5t-71.5 348.5q0 190 73 348t202.5 250t288.5 92t288 -90.5t201 -248t72 -349.5zM1061 690q0 157 -56 289.5t-157 210.5t-225 78q-127 0 -228.5 -76.5t-158 -208t-56.5 -291.5
q0 -157 56.5 -289t159 -210t227.5 -78q126 0 226.5 76.5t156 207.5t55.5 291zM801 367q-84 -41 -170 -41q-131 0 -202 87t-71 267q0 183 80.5 281t212.5 98q79 0 144 -35l-33 -109q-56 27 -109 27q-73 0 -111 -68t-38 -180q0 -248 149 -248q62 0 125 29z" />
    <glyph glyph-name="ordfeminine" unicode="&#xaa;" horiz-adv-x="735" 
d="M604 694h-108l-11 86q-44 -57 -90.5 -80.5t-105.5 -23.5q-92 0 -148.5 57t-56.5 160q0 118 78.5 174.5t218.5 56.5h86v62q0 79 -30 114t-105 35q-85 0 -176 -41l-25 103q106 47 223 47q130 0 190 -65t60 -179v-506zM604 387h-498v125h498v-125zM467 883v143h-94
q-148 0 -148 -125q0 -56 26 -87.5t73 -31.5q40 0 69 22.5t74 78.5z" />
    <glyph glyph-name="guillemotleft" unicode="&#xab;" horiz-adv-x="937" 
d="M774 203l-121 -56l-231 426l231 426l121 -55l-182 -371zM444 180l-122 -55l-236 448l236 449l122 -55l-184 -394z" />
    <glyph glyph-name="logicalnot" unicode="&#xac;" 
d="M827 338h-143v229h-614v138h757v-367z" />
    <glyph glyph-name="registered" unicode="&#xae;" horiz-adv-x="960" 
d="M860 1098q0 -169 -111 -288.5t-270 -119.5q-162 0 -271.5 118t-109.5 292q0 169 111 289t270 120q162 0 271.5 -118.5t109.5 -292.5zM764 1096q0 137 -84.5 231t-200.5 94q-123 0 -203.5 -94.5t-80.5 -224.5q0 -138 84 -232t200 -94q123 0 204 95t81 225zM631 1217
q0 -48 -20 -85t-52 -51l86 -211h-106l-68 193h-31v-193h-92v469h144q63 0 101 -33.5t38 -88.5zM532 1208q0 58 -61 58h-31v-129h27q65 0 65 71z" />
    <glyph glyph-name="macron" unicode="&#xaf;" horiz-adv-x="530" 
d="M457 1313h-457v121h457v-121z" />
    <glyph glyph-name="macron" unicode="&#x2c9;" horiz-adv-x="530" 
d="M457 1313h-457v121h457v-121z" />
    <glyph glyph-name="degree" unicode="&#xb0;" horiz-adv-x="616" 
d="M535 1257q0 -104 -65.5 -171.5t-164.5 -67.5q-101 0 -163 64.5t-62 168.5q0 103 66.5 171.5t164.5 68.5q100 0 162 -65t62 -169zM416 1253q0 59 -30.5 96t-78.5 37q-46 0 -76 -36.5t-30 -94.5q0 -60 30 -96.5t78 -36.5q46 0 76.5 36.5t30.5 94.5z" />
    <glyph glyph-name="plusminus" unicode="&#xb1;" 
d="M840 717h-305v-375h-148v375h-305v139h305v377h148v-377h305v-139zM836 0h-750v137h750v-137z" />
    <glyph glyph-name="twosuperior" unicode="&#xb2;" horiz-adv-x="692" 
d="M582 737h-473v101l163 178q69 74 93 120.5t24 98.5q0 100 -106 100q-73 0 -138 -35l-26 105q92 45 203 45q117 0 174 -54.5t57 -146.5q0 -75 -33 -137t-131 -162l-92 -94h285v-119z" />
    <glyph glyph-name="threesuperior" unicode="&#xb3;" horiz-adv-x="692" 
d="M555 932q0 -110 -73.5 -163.5t-184.5 -53.5q-70 0 -162 18v96q41 -8 133 -8q65 0 100 27.5t35 79.5q0 67 -36.5 93t-106.5 26h-49v104h53q62 0 95.5 28.5t33.5 80.5q0 41 -22.5 63.5t-65.5 22.5q-70 0 -137 -31l-25 96q98 39 195 39q99 0 150 -47t51 -133
q0 -64 -30.5 -106.5t-86.5 -55.5q64 -7 98.5 -58t34.5 -118z" />
    <glyph glyph-name="acute" unicode="&#xb4;" horiz-adv-x="491" 
d="M317 1464l-229 -264l-88 62l190 288z" />
    <glyph glyph-name="mu" unicode="&#xb5;" horiz-adv-x="1030" 
d="M985 0q-63 -14 -100 -14q-157 0 -183 164q-62 -88 -125 -128t-141 -40q-95 0 -141 77v-485h-164v1468h164v-649q0 -134 36 -206t122 -72q62 0 113.5 42t123.5 144v741h164v-804q0 -115 68 -115h63v-123z" />
    <glyph glyph-name="mu" unicode="&#x3bc;" horiz-adv-x="1030" 
d="M985 0q-63 -14 -100 -14q-157 0 -183 164q-62 -88 -125 -128t-141 -40q-95 0 -141 77v-485h-164v1468h164v-649q0 -134 36 -206t122 -72q62 0 113.5 42t123.5 144v741h164v-804q0 -115 68 -115h63v-123z" />
    <glyph glyph-name="paragraph" unicode="&#xb6;" horiz-adv-x="995" 
d="M858 -238h-139v1524h-166v-1524h-143v834q-167 -3 -272 112.5t-105 301.5q0 180 111 300t300 120h414v-1668z" />
    <glyph glyph-name="periodcentered" unicode="&#xb7;" horiz-adv-x="454" 
d="M344 637q0 -53 -33 -89t-84 -36q-50 0 -83 35.5t-33 87.5q0 53 33 89t83 36t83.5 -35.5t33.5 -87.5z" />
    <glyph glyph-name="periodcentered" unicode="&#x22c5;" horiz-adv-x="454" 
d="M344 637q0 -53 -33 -89t-84 -36q-50 0 -83 35.5t-33 87.5q0 53 33 89t83 36t83.5 -35.5t33.5 -87.5z" />
    <glyph glyph-name="periodcentered" unicode="&#x2219;" horiz-adv-x="454" 
d="M344 637q0 -53 -33 -89t-84 -36q-50 0 -83 35.5t-33 87.5q0 53 33 89t83 36t83.5 -35.5t33.5 -87.5z" />
    <glyph glyph-name="cedilla" unicode="&#xb8;" horiz-adv-x="483" 
d="M412 -221q0 -49 -45.5 -83t-139.5 -34q-86 0 -157 23v100h151q28 0 38.5 6t10.5 23q0 20 -10 45l-49 141h131l41 -106q29 -83 29 -115z" />
    <glyph glyph-name="onesuperior" unicode="&#xb9;" horiz-adv-x="604" 
d="M418 737h-154v539l-139 -88l-47 94l213 150h127v-695z" />
    <glyph glyph-name="ordmasculine" unicode="&#xba;" horiz-adv-x="770" 
d="M686 1067q0 -187 -79.5 -289t-231.5 -102q-299 0 -299 373q0 191 78.5 293t232.5 102q146 0 222.5 -99t76.5 -278zM637 387h-514v125h514v-125zM539 1051q0 130 -39 205t-121 75q-79 0 -118.5 -70.5t-39.5 -193.5q0 -279 164 -279q77 0 115.5 71.5t38.5 191.5z" />
    <glyph glyph-name="guillemotright" unicode="&#xbb;" horiz-adv-x="937" 
d="M852 573l-236 -448l-122 55l186 393l-186 394l122 55zM516 573l-231 -426l-121 56l182 370l-182 371l121 55z" />
    <glyph glyph-name="onequarter" unicode="&#xbc;" horiz-adv-x="1308" 
d="M393 737h-153v539l-142 -88l-45 94l213 150h127v-695zM1055 1432l-832 -1493l-104 59l829 1493zM1202 139h-104v-139h-146v139h-295v101l226 452h215v-440h104v-113zM954 250v340h-2l-164 -340h166z" />
    <glyph glyph-name="onehalf" unicode="&#xbd;" horiz-adv-x="1325" 
d="M1212 0h-473v102l164 177q68 75 91.5 122t23.5 97q0 102 -105 102q-71 0 -137 -37l-26 105q92 47 202 47q115 0 172.5 -55.5t57.5 -147.5q0 -74 -33 -136.5t-129 -160.5l-92 -94h284v-121zM393 737h-153v539l-142 -88l-45 94l213 150h127v-695zM1055 1432l-832 -1493
l-104 59l829 1493z" />
    <glyph glyph-name="threequarters" unicode="&#xbe;" horiz-adv-x="1300" 
d="M520 932q0 -110 -73.5 -163.5t-184.5 -53.5q-70 0 -162 18v96q39 -8 133 -8q65 0 100.5 27.5t35.5 79.5q0 67 -37.5 93t-106.5 26h-49v104h53q61 0 95 28.5t34 80.5q0 41 -23.5 63.5t-64.5 22.5q-70 0 -137 -31l-24 96q98 39 192 39q100 0 151.5 -47t51.5 -133
q0 -63 -31 -106t-86 -56q64 -7 98.5 -58t34.5 -118zM1110 1432l-829 -1493l-105 59l830 1493zM1227 139h-105v-139h-145v139h-295v101l225 452h215v-440h105v-113zM979 250v340h-2l-164 -340h166z" />
    <glyph glyph-name="questiondown" unicode="&#xbf;" horiz-adv-x="761" 
d="M541 1106q0 -52 -33.5 -86.5t-81.5 -34.5t-80.5 34t-32.5 85q0 50 33.5 84.5t79.5 34.5q48 0 81.5 -34t33.5 -83zM653 -326q-95 -24 -198 -24q-98 0 -170.5 26.5t-115 74.5t-63 109.5t-20.5 137.5q0 92 31 177.5t74 154t84.5 139.5t66.5 164t16 198h146q9 -91 1 -159
t-29 -131.5t-47.5 -112t-55.5 -100.5t-53.5 -96.5t-40 -100t-15.5 -111.5q0 -110 50 -169.5t167 -59.5q79 0 172 14v-131z" />
    <glyph glyph-name="Agrave" unicode="&#xc0;" horiz-adv-x="1093" 
d="M1051 0h-193q-40 183 -92 385h-457q-55 -226 -88 -385h-178q188 796 399 1430h199q219 -661 410 -1430zM735 524q-96 375 -200 719h-3q-95 -321 -194 -719h397zM643 1636l-51 -92l-303 160l69 123z" />
    <glyph glyph-name="Aacute" unicode="&#xc1;" horiz-adv-x="1093" 
d="M1051 0h-193q-40 183 -92 385h-457q-55 -226 -88 -385h-178q188 796 399 1430h199q219 -661 410 -1430zM735 524q-96 375 -200 719h-3q-95 -321 -194 -719h397zM768 1704l-303 -160l-51 92l284 191z" />
    <glyph glyph-name="Acircumflex" unicode="&#xc2;" horiz-adv-x="1093" 
d="M1051 0h-193q-40 183 -92 385h-457q-55 -226 -88 -385h-178q188 796 399 1430h199q219 -661 410 -1430zM735 524q-96 375 -200 719h-3q-95 -321 -194 -719h397zM778 1638l-53 -94l-186 133l-185 -133l-51 92l240 189z" />
    <glyph glyph-name="Atilde" unicode="&#xc3;" horiz-adv-x="1093" 
d="M1051 0h-193q-40 183 -92 385h-457q-55 -226 -88 -385h-178q188 796 399 1430h199q219 -661 410 -1430zM735 524q-96 375 -200 719h-3q-95 -321 -194 -719h397zM831 1702q-27 -70 -76.5 -111t-111.5 -41q-40 0 -73.5 14t-52 30t-43 30t-48.5 14q-58 0 -104 -94l-80 66
q29 70 77.5 109.5t112.5 39.5q39 0 72 -13.5t51.5 -29.5t43 -29.5t48.5 -13.5q60 0 105 92z" />
    <glyph glyph-name="Adieresis" unicode="&#xc4;" horiz-adv-x="1093" 
d="M1051 0h-193q-40 183 -92 385h-457q-55 -226 -88 -385h-178q188 796 399 1430h199q219 -661 410 -1430zM735 524q-96 375 -200 719h-3q-95 -321 -194 -719h397zM811 1651q0 -43 -27 -71t-67 -28t-67 28t-27 71q0 42 27 70t67 28t67 -28t27 -70zM457 1651q0 -43 -27 -71
t-68 -28q-40 0 -67 28t-27 71q0 42 27 70t67 28q41 0 68 -27.5t27 -70.5z" />
    <glyph glyph-name="Aring" unicode="&#xc5;" horiz-adv-x="1093" 
d="M1051 0h-193q-40 183 -92 385h-457q-55 -226 -88 -385h-178q188 796 399 1430h199q219 -661 410 -1430zM735 524q-96 375 -200 719h-3q-95 -321 -194 -719h397zM727 1649q0 -84 -49.5 -136.5t-138.5 -52.5q-91 0 -136 49t-45 131q0 86 49 136.5t140 50.5q88 0 134 -47.5
t46 -130.5zM618 1642q0 46 -20 74.5t-57 28.5q-34 0 -54 -26.5t-20 -73.5q0 -103 78 -103q35 0 54 27.5t19 72.5z" />
    <glyph glyph-name="AE" unicode="&#xc6;" horiz-adv-x="1433" 
d="M1327 0h-641v338h-397q-66 -172 -125 -338h-176q266 712 606 1430h717v-140h-455v-475h404v-137h-404v-537h471v-141zM686 475v813h-4q-248 -555 -348 -813h352z" />
    <glyph glyph-name="Ccedilla" unicode="&#xc7;" horiz-adv-x="940" 
d="M711 -221q0 -49 -45.5 -83t-139.5 -34q-86 0 -157 23v100h151q28 0 38.5 6t10.5 23q0 20 -10 45l-45 131q-206 32 -316 213.5t-110 492.5q0 349 138.5 550.5t389.5 201.5q156 0 279 -76l-53 -133q-114 64 -224 64q-116 0 -195.5 -76t-116 -205.5t-36.5 -306.5
q0 -286 94 -436t273 -150q108 0 219 68l45 -136q-117 -68 -254 -77l35 -90q29 -83 29 -115z" />
    <glyph glyph-name="Egrave" unicode="&#xc8;" horiz-adv-x="892" 
d="M788 0h-641v1430h633v-140h-465v-475h406v-137h-406v-537h473v-141zM518 1636l-51 -92l-303 160l69 123z" />
    <glyph glyph-name="Eacute" unicode="&#xc9;" horiz-adv-x="892" 
d="M788 0h-641v1430h633v-140h-465v-475h406v-137h-406v-537h473v-141zM702 1704l-303 -160l-51 92l285 191z" />
    <glyph glyph-name="Ecircumflex" unicode="&#xca;" horiz-adv-x="892" 
d="M788 0h-641v1430h633v-140h-465v-475h406v-137h-406v-537h473v-141zM698 1638l-53 -94l-186 133l-185 -133l-51 92l240 189z" />
    <glyph glyph-name="Edieresis" unicode="&#xcb;" horiz-adv-x="892" 
d="M788 0h-641v1430h633v-140h-465v-475h406v-137h-406v-537h473v-141zM729 1651q0 -43 -27 -71t-67 -28t-67 28t-27 71q0 42 27 70t67 28t67 -28t27 -70zM375 1651q0 -43 -26.5 -71t-67.5 -28q-40 0 -67.5 28.5t-27.5 70.5t27.5 70t67.5 28q41 0 67.5 -27.5t26.5 -70.5z
" />
    <glyph glyph-name="Igrave" unicode="&#xcc;" horiz-adv-x="462" 
d="M317 0h-170v1430h170v-1430zM354 1636l-51 -92l-303 160l70 123z" />
    <glyph glyph-name="Iacute" unicode="&#xcd;" horiz-adv-x="462" 
d="M317 0h-170v1430h170v-1430zM457 1704l-303 -160l-52 92l285 191z" />
    <glyph glyph-name="Icircumflex" unicode="&#xce;" horiz-adv-x="462" 
d="M317 0h-170v1430h170v-1430zM469 1638l-53 -94l-187 133l-184 -133l-51 92l239 189z" />
    <glyph glyph-name="Idieresis" unicode="&#xcf;" horiz-adv-x="462" 
d="M317 0h-170v1430h170v-1430zM504 1651q0 -43 -27 -71t-67 -28t-67.5 28.5t-27.5 70.5t27.5 70t67.5 28t67 -28t27 -70zM150 1651q0 -43 -27 -71t-68 -28q-40 0 -67 28t-27 71q0 42 27 70t67 28q41 0 68 -27.5t27 -70.5z" />
    <glyph glyph-name="Eth" unicode="&#xd0;" horiz-adv-x="1161" 
d="M1079 735q0 -359 -150.5 -547t-424.5 -188h-336v678h-139v137h139v615h358q265 0 409 -185.5t144 -509.5zM899 727q0 167 -38.5 290t-126.5 198t-220 75h-176v-475h221v-137h-221v-537h174q196 0 291.5 144t95.5 442z" />
    <glyph glyph-name="Ntilde" unicode="&#xd1;" horiz-adv-x="1177" 
d="M1032 0h-231l-498 1202h-2v-1202h-154v1430h244l486 -1170h2v1170h153v-1430zM874 1702q-27 -70 -76.5 -111t-111.5 -41q-40 0 -73.5 14t-52 30t-43 30t-48.5 14q-58 0 -104 -94l-80 66q29 70 77.5 109.5t112.5 39.5q39 0 72 -13.5t51.5 -29.5t43 -29.5t48.5 -13.5
q60 0 105 92z" />
    <glyph glyph-name="Ograve" unicode="&#xd2;" horiz-adv-x="1234" 
d="M1147 725q0 -225 -60 -392t-182 -261.5t-295 -94.5q-255 0 -388.5 196t-133.5 536q0 222 60.5 388t183 260.5t293.5 94.5q253 0 387.5 -196.5t134.5 -530.5zM965 707q0 279 -88.5 440.5t-262.5 161.5q-91 0 -159.5 -47.5t-108.5 -131t-59 -185t-19 -220.5
q0 -184 37.5 -317.5t118 -210t197.5 -76.5q91 0 159 47.5t107.5 130.5t58.5 185.5t19 222.5zM688 1636l-51 -92l-303 160l69 123z" />
    <glyph glyph-name="Oacute" unicode="&#xd3;" horiz-adv-x="1234" 
d="M1147 725q0 -225 -60 -392t-182 -261.5t-295 -94.5q-255 0 -388.5 196t-133.5 536q0 222 60.5 388t183 260.5t293.5 94.5q253 0 387.5 -196.5t134.5 -530.5zM965 707q0 279 -88.5 440.5t-262.5 161.5q-91 0 -159.5 -47.5t-108.5 -131t-59 -185t-19 -220.5
q0 -184 37.5 -317.5t118 -210t197.5 -76.5q91 0 159 47.5t107.5 130.5t58.5 185.5t19 222.5zM899 1704l-303 -160l-51 92l284 191z" />
    <glyph glyph-name="Ocircumflex" unicode="&#xd4;" horiz-adv-x="1234" 
d="M1147 725q0 -225 -60 -392t-182 -261.5t-295 -94.5q-255 0 -388.5 196t-133.5 536q0 222 60.5 388t183 260.5t293.5 94.5q253 0 387.5 -196.5t134.5 -530.5zM965 707q0 279 -88.5 440.5t-262.5 161.5q-91 0 -159.5 -47.5t-108.5 -131t-59 -185t-19 -220.5
q0 -184 37.5 -317.5t118 -210t197.5 -76.5q91 0 159 47.5t107.5 130.5t58.5 185.5t19 222.5zM854 1638l-53 -94l-187 133l-184 -133l-51 92l239 189z" />
    <glyph glyph-name="Otilde" unicode="&#xd5;" horiz-adv-x="1234" 
d="M1147 725q0 -225 -60 -392t-182 -261.5t-295 -94.5q-255 0 -388.5 196t-133.5 536q0 222 60.5 388t183 260.5t293.5 94.5q253 0 387.5 -196.5t134.5 -530.5zM965 707q0 279 -88.5 440.5t-262.5 161.5q-91 0 -159.5 -47.5t-108.5 -131t-59 -185t-19 -220.5
q0 -184 37.5 -317.5t118 -210t197.5 -76.5q91 0 159 47.5t107.5 130.5t58.5 185.5t19 222.5zM911 1702q-27 -70 -76.5 -111t-111.5 -41q-40 0 -73.5 14t-52 30t-43 30t-48.5 14q-59 0 -105 -94l-79 66q29 70 77.5 109.5t112.5 39.5q39 0 72 -13.5t51.5 -29.5t43 -29.5
t48.5 -13.5q59 0 104 92z" />
    <glyph glyph-name="Odieresis" unicode="&#xd6;" horiz-adv-x="1234" 
d="M1147 725q0 -225 -60 -392t-182 -261.5t-295 -94.5q-255 0 -388.5 196t-133.5 536q0 222 60.5 388t183 260.5t293.5 94.5q253 0 387.5 -196.5t134.5 -530.5zM965 707q0 279 -88.5 440.5t-262.5 161.5q-91 0 -159.5 -47.5t-108.5 -131t-59 -185t-19 -220.5
q0 -184 37.5 -317.5t118 -210t197.5 -76.5q91 0 159 47.5t107.5 130.5t58.5 185.5t19 222.5zM893 1651q0 -43 -27 -71t-67 -28t-67 28t-27 71q0 42 27 70t67 28t67 -28t27 -70zM539 1651q0 -43 -27 -71t-68 -28q-40 0 -67 28t-27 71q0 42 27 70t67 28q41 0 68 -27.5
t27 -70.5z" />
    <glyph glyph-name="multiply" unicode="&#xd7;" 
d="M842 301l-105 -98l-278 327l-279 -327l-100 96l289 338l-289 338l104 98l279 -328l278 328l101 -96l-289 -336z" />
    <glyph glyph-name="Oslash" unicode="&#xd8;" horiz-adv-x="1234" 
d="M1147 741q0 -358 -139.5 -561t-405.5 -203q-120 0 -201 43l-88 -219l-116 45l94 234q-203 167 -203 612q0 233 60 402t183.5 263.5t301.5 94.5q110 0 201 -43l86 219l116 -45l-94 -235q105 -85 155 -243.5t50 -363.5zM975 733q0 139 -23.5 259.5t-72.5 185.5l-424 -1018
q64 -43 157 -43q97 0 168.5 47.5t113 133t61.5 194t20 241.5zM780 1270q-67 43 -157 43q-97 0 -169 -47.5t-113.5 -133.5t-61 -193.5t-19.5 -238.5q0 -311 96 -448z" />
    <glyph glyph-name="Ugrave" unicode="&#xd9;" horiz-adv-x="1163" 
d="M1020 514q0 -270 -118.5 -402t-326.5 -132q-205 0 -318.5 129t-113.5 385v936h170v-924q0 -195 71.5 -290t199.5 -95q127 0 198.5 96t71.5 289v924h166v-916zM653 1636l-51 -92l-303 160l70 123z" />
    <glyph glyph-name="Uacute" unicode="&#xda;" horiz-adv-x="1163" 
d="M1020 514q0 -270 -118.5 -402t-326.5 -132q-205 0 -318.5 129t-113.5 385v936h170v-924q0 -195 71.5 -290t199.5 -95q127 0 198.5 96t71.5 289v924h166v-916zM881 1704l-303 -160l-52 92l285 191z" />
    <glyph glyph-name="Ucircumflex" unicode="&#xdb;" horiz-adv-x="1163" 
d="M1020 514q0 -270 -118.5 -402t-326.5 -132q-205 0 -318.5 129t-113.5 385v936h170v-924q0 -195 71.5 -290t199.5 -95q127 0 198.5 96t71.5 289v924h166v-916zM819 1638l-53 -94l-186 133l-185 -133l-51 92l240 189z" />
    <glyph glyph-name="Udieresis" unicode="&#xdc;" horiz-adv-x="1163" 
d="M1020 514q0 -270 -118.5 -402t-326.5 -132q-205 0 -318.5 129t-113.5 385v936h170v-924q0 -195 71.5 -290t199.5 -95q127 0 198.5 96t71.5 289v924h166v-916zM854 1651q0 -43 -27 -71t-67 -28t-67 28t-27 71q0 42 27 70t67 28t67 -28t27 -70zM500 1651q0 -43 -26.5 -71
t-67.5 -28q-40 0 -67.5 28.5t-27.5 70.5t27.5 70t67.5 28q41 0 67.5 -27.5t26.5 -70.5z" />
    <glyph glyph-name="Yacute" unicode="&#xdd;" horiz-adv-x="954" 
d="M944 1430q-193 -479 -381 -809v-621h-172v621q-207 365 -383 809h195q120 -353 286 -656q139 278 265 656h190zM760 1704l-303 -160l-51 92l284 191z" />
    <glyph glyph-name="Thorn" unicode="&#xde;" horiz-adv-x="946" 
d="M872 770q0 -215 -110 -336t-311 -121h-134v-313h-170v1430h170v-246h132q88 0 159 -19q122 -32 193 -137.5t71 -257.5zM692 760q0 100 -38 174t-101 96q-47 17 -117 17h-119v-596h148q110 0 168.5 82.5t58.5 226.5z" />
    <glyph glyph-name="germandbls" unicode="&#xdf;" horiz-adv-x="968" 
d="M924 295q0 -143 -87.5 -229t-224.5 -86q-88 0 -161 24l22 133q62 -26 133 -26q70 0 109 45t39 118q0 69 -30.5 117.5t-111.5 112.5q-90 70 -128 135.5t-38 155.5q0 55 15.5 101.5t38.5 76.5t50.5 61.5t50.5 58t38.5 66t15.5 84.5q0 76 -41 128t-122 52
q-96 0 -147.5 -91.5t-51.5 -272.5v-1059h-164v1085q0 216 101.5 342.5t275.5 126.5q78 0 140.5 -26t100 -69t57 -93.5t19.5 -103.5q0 -58 -15.5 -106t-39 -78.5t-51 -61.5t-51 -56.5t-39 -62t-15.5 -78.5q0 -65 29 -108.5t113 -108.5q87 -67 128.5 -140.5t41.5 -166.5z" />
    <glyph glyph-name="agrave" unicode="&#xe0;" horiz-adv-x="888" 
d="M764 0h-131l-10 121q-119 -144 -271 -144q-128 0 -203 79t-75 218q0 162 107 245t292 83h129v96q0 124 -42.5 180t-147.5 56q-119 0 -246 -62l-33 125q152 68 303 68q89 0 154 -26t102 -73t54.5 -105.5t17.5 -129.5v-731zM602 250v235h-147q-106 0 -160.5 -52.5
t-54.5 -149.5q0 -82 38 -129.5t111 -47.5q58 0 106 36.5t107 107.5zM530 1262l-88 -62l-229 264l127 86z" />
    <glyph glyph-name="aacute" unicode="&#xe1;" horiz-adv-x="888" 
d="M764 0h-131l-10 121q-119 -144 -271 -144q-128 0 -203 79t-75 218q0 162 107 245t292 83h129v96q0 124 -42.5 180t-147.5 56q-119 0 -246 -62l-33 125q152 68 303 68q89 0 154 -26t102 -73t54.5 -105.5t17.5 -129.5v-731zM602 250v235h-147q-106 0 -160.5 -52.5
t-54.5 -149.5q0 -82 38 -129.5t111 -47.5q58 0 106 36.5t107 107.5zM655 1464l-229 -264l-88 62l190 288z" />
    <glyph glyph-name="acircumflex" unicode="&#xe2;" horiz-adv-x="888" 
d="M764 0h-131l-10 121q-119 -144 -271 -144q-128 0 -203 79t-75 218q0 162 107 245t292 83h129v96q0 124 -42.5 180t-147.5 56q-119 0 -246 -62l-33 125q152 68 303 68q89 0 154 -26t102 -73t54.5 -105.5t17.5 -129.5v-731zM602 250v235h-147q-106 0 -160.5 -52.5
t-54.5 -149.5q0 -82 38 -129.5t111 -47.5q58 0 106 36.5t107 107.5zM680 1282l-68 -82l-174 174l-170 -174l-67 80l241 274z" />
    <glyph glyph-name="atilde" unicode="&#xe3;" horiz-adv-x="888" 
d="M764 0h-131l-10 121q-119 -144 -271 -144q-128 0 -203 79t-75 218q0 162 107 245t292 83h129v96q0 124 -42.5 180t-147.5 56q-119 0 -246 -62l-33 125q152 68 303 68q89 0 154 -26t102 -73t54.5 -105.5t17.5 -129.5v-731zM602 250v235h-147q-106 0 -160.5 -52.5
t-54.5 -149.5q0 -82 38 -129.5t111 -47.5q58 0 106 36.5t107 107.5zM719 1421q-27 -71 -74.5 -112t-109.5 -41q-38 0 -70 14t-50 30t-41.5 30t-47.5 14q-59 0 -101 -92l-78 65q27 71 75.5 112.5t109.5 41.5q38 0 70 -13.5t50 -30.5t41.5 -30.5t47.5 -13.5q57 0 102 92z" />
    <glyph glyph-name="adieresis" unicode="&#xe4;" horiz-adv-x="888" 
d="M764 0h-131l-10 121q-119 -144 -271 -144q-128 0 -203 79t-75 218q0 162 107 245t292 83h129v96q0 124 -42.5 180t-147.5 56q-119 0 -246 -62l-33 125q152 68 303 68q89 0 154 -26t102 -73t54.5 -105.5t17.5 -129.5v-731zM602 250v235h-147q-106 0 -160.5 -52.5
t-54.5 -149.5q0 -82 38 -129.5t111 -47.5q58 0 106 36.5t107 107.5zM702 1372q0 -44 -27.5 -72t-70.5 -28t-69.5 28t-26.5 72t26.5 72.5t69.5 28.5t70.5 -28.5t27.5 -72.5zM379 1372q0 -44 -27.5 -72t-70.5 -28q-42 0 -69.5 28t-27.5 72t27.5 72.5t69.5 28.5
q43 0 70.5 -28.5t27.5 -72.5z" />
    <glyph glyph-name="aring" unicode="&#xe5;" horiz-adv-x="888" 
d="M764 0h-131l-10 121q-119 -144 -271 -144q-128 0 -203 79t-75 218q0 162 107 245t292 83h129v96q0 124 -42.5 180t-147.5 56q-119 0 -246 -62l-33 125q152 68 303 68q89 0 154 -26t102 -73t54.5 -105.5t17.5 -129.5v-731zM602 250v235h-147q-106 0 -160.5 -52.5
t-54.5 -149.5q0 -82 38 -129.5t111 -47.5q58 0 106 36.5t107 107.5zM612 1378q0 -89 -49 -145.5t-133 -56.5q-87 0 -130.5 53t-43.5 141q0 90 47.5 145.5t134.5 55.5q82 0 128 -52.5t46 -140.5zM506 1370q0 50 -18.5 81.5t-55.5 31.5q-33 0 -51.5 -29t-18.5 -76
q0 -114 74 -114q33 0 51.5 30t18.5 76z" />
    <glyph glyph-name="ae" unicode="&#xe6;" horiz-adv-x="1419" 
d="M1335 604q0 -75 -2 -110h-571q0 -185 59 -282t197 -97q128 0 270 49l23 -131q-153 -56 -318 -56q-119 0 -204.5 51t-120.5 142q-127 -193 -314 -193q-131 0 -205.5 80.5t-74.5 229.5q0 161 105.5 243t283.5 82h139v86q0 124 -42.5 180t-147.5 56q-119 0 -246 -62l-33 125
q152 68 303 68q202 0 269 -158q92 158 286 158q178 0 261 -121.5t83 -339.5zM1169 612q5 156 -44 242t-144 86q-56 0 -99 -27.5t-68 -75.5t-37.5 -104t-14.5 -121h407zM602 268v226h-147q-106 0 -160.5 -51.5t-54.5 -149.5q0 -89 37.5 -138t109.5 -49q62 0 112.5 39.5
t102.5 122.5z" />
    <glyph glyph-name="ccedilla" unicode="&#xe7;" horiz-adv-x="741" 
d="M588 -221q0 -49 -45.5 -83t-139.5 -34q-86 0 -157 23v100h151q28 0 38.5 6t10.5 23q0 20 -10 45l-45 127q-160 23 -237.5 158.5t-77.5 361.5q0 266 107.5 411.5t291.5 145.5q118 0 213 -53l-37 -129q-85 45 -168 45q-120 0 -177.5 -107t-57.5 -295q0 -403 237 -403
q100 0 179 43l28 -129q-70 -38 -168 -49l35 -92q29 -83 29 -115z" />
    <glyph glyph-name="egrave" unicode="&#xe8;" horiz-adv-x="905" 
d="M821 602q0 -9 -1 -45t-1 -53h-571q0 -194 58 -291.5t198 -97.5q128 0 270 49l23 -131q-156 -56 -318 -56q-204 0 -302.5 135t-98.5 406q0 257 102 402t297 145q344 0 344 -463zM653 625q5 148 -43.5 231.5t-142.5 83.5q-56 0 -98.5 -27t-67.5 -73.5t-38 -100t-15 -114.5
h405zM565 1262l-88 -62l-229 264l127 86z" />
    <glyph glyph-name="eacute" unicode="&#xe9;" horiz-adv-x="905" 
d="M821 602q0 -9 -1 -45t-1 -53h-571q0 -194 58 -291.5t198 -97.5q128 0 270 49l23 -131q-156 -56 -318 -56q-204 0 -302.5 135t-98.5 406q0 257 102 402t297 145q344 0 344 -463zM653 625q5 148 -43.5 231.5t-142.5 83.5q-56 0 -98.5 -27t-67.5 -73.5t-38 -100t-15 -114.5
h405zM702 1464l-229 -264l-88 62l190 288z" />
    <glyph glyph-name="ecircumflex" unicode="&#xea;" horiz-adv-x="905" 
d="M821 602q0 -9 -1 -45t-1 -53h-571q0 -194 58 -291.5t198 -97.5q128 0 270 49l23 -131q-156 -56 -318 -56q-204 0 -302.5 135t-98.5 406q0 257 102 402t297 145q344 0 344 -463zM653 625q5 148 -43.5 231.5t-142.5 83.5q-56 0 -98.5 -27t-67.5 -73.5t-38 -100t-15 -114.5
h405zM709 1282l-68 -82l-174 174l-170 -174l-68 80l242 274z" />
    <glyph glyph-name="edieresis" unicode="&#xeb;" horiz-adv-x="905" 
d="M821 602q0 -9 -1 -45t-1 -53h-571q0 -194 58 -291.5t198 -97.5q128 0 270 49l23 -131q-156 -56 -318 -56q-204 0 -302.5 135t-98.5 406q0 257 102 402t297 145q344 0 344 -463zM653 625q5 148 -43.5 231.5t-142.5 83.5q-56 0 -98.5 -27t-67.5 -73.5t-38 -100t-15 -114.5
h405zM729 1372q0 -44 -27.5 -72t-70.5 -28t-69.5 28t-26.5 72t26.5 72.5t69.5 28.5t70.5 -28.5t27.5 -72.5zM406 1372q0 -44 -28 -72t-71 -28q-42 0 -69 28t-27 72t27.5 72.5t68.5 28.5q43 0 71 -28.5t28 -72.5z" />
    <glyph glyph-name="igrave" unicode="&#xec;" horiz-adv-x="460" 
d="M332 0h-164v913h-131v129h295v-1042zM350 1262l-88 -62l-229 264l127 86z" />
    <glyph glyph-name="iacute" unicode="&#xed;" horiz-adv-x="460" 
d="M332 0h-164v913h-131v129h295v-1042zM444 1464l-229 -264l-88 62l190 288z" />
    <glyph glyph-name="icircumflex" unicode="&#xee;" horiz-adv-x="460" 
d="M332 0h-164v913h-131v129h295v-1042zM471 1282l-68 -82l-174 174l-170 -174l-67 80l241 274z" />
    <glyph glyph-name="idieresis" unicode="&#xef;" horiz-adv-x="460" 
d="M332 0h-164v913h-131v129h295v-1042zM498 1372q0 -44 -28 -72t-71 -28t-69.5 28t-26.5 72t26.5 72.5t69.5 28.5t71 -28.5t28 -72.5zM174 1372q0 -44 -27.5 -72t-70.5 -28q-42 0 -69 28t-27 72t27.5 72.5t68.5 28.5q43 0 70.5 -28.5t27.5 -72.5z" />
    <glyph glyph-name="eth" unicode="&#xf0;" horiz-adv-x="1003" 
d="M889 563q0 -285 -109.5 -435.5t-306.5 -150.5q-191 0 -294 144.5t-103 384.5q0 244 107 395.5t288 151.5q83 0 147 -47q-54 134 -120 239l-189 -84l-53 105l176 77q-49 69 -131 158l170 60q67 -70 125 -152l197 86l53 -104l-184 -82q113 -190 170 -387t57 -359zM717 545
q0 138 -39 291q-104 88 -205 88q-76 0 -128.5 -57t-74.5 -143t-22 -194q0 -196 58 -306.5t177 -110.5q234 0 234 432z" />
    <glyph glyph-name="ntilde" unicode="&#xf1;" horiz-adv-x="976" 
d="M852 0h-164v651q0 134 -35.5 205.5t-120.5 71.5q-63 0 -114.5 -42t-124.5 -145v-741h-164v1042h129l16 -153q65 90 133.5 133t157.5 43q76 0 133 -30.5t90 -84.5t48.5 -121t15.5 -147v-682zM780 1421q-27 -71 -74.5 -112t-109.5 -41q-38 0 -70 14t-50 30t-41.5 30
t-47.5 14q-58 0 -100 -92l-78 65q27 71 75 112.5t109 41.5q38 0 70 -13.5t50 -30.5t41.5 -30.5t47.5 -13.5q58 0 103 92z" />
    <glyph glyph-name="ograve" unicode="&#xf2;" horiz-adv-x="958" 
d="M883 530q0 -260 -108.5 -406.5t-301.5 -146.5q-192 0 -294.5 139.5t-102.5 393.5q0 263 108 409t301 146q191 0 294.5 -140t103.5 -395zM709 510q0 201 -59 310.5t-175 109.5q-112 0 -169.5 -107.5t-57.5 -290.5q0 -201 58 -310t175 -109q112 0 170 107t58 290zM571 1262
l-88 -62l-229 264l127 86z" />
    <glyph glyph-name="oacute" unicode="&#xf3;" horiz-adv-x="958" 
d="M883 530q0 -260 -108.5 -406.5t-301.5 -146.5q-192 0 -294.5 139.5t-102.5 393.5q0 263 108 409t301 146q191 0 294.5 -140t103.5 -395zM709 510q0 201 -59 310.5t-175 109.5q-112 0 -169.5 -107.5t-57.5 -290.5q0 -201 58 -310t175 -109q112 0 170 107t58 290zM692 1464
l-229 -264l-88 62l190 288z" />
    <glyph glyph-name="ocircumflex" unicode="&#xf4;" horiz-adv-x="958" 
d="M883 530q0 -260 -108.5 -406.5t-301.5 -146.5q-192 0 -294.5 139.5t-102.5 393.5q0 263 108 409t301 146q191 0 294.5 -140t103.5 -395zM709 510q0 201 -59 310.5t-175 109.5q-112 0 -169.5 -107.5t-57.5 -290.5q0 -201 58 -310t175 -109q112 0 170 107t58 290zM719 1282
l-68 -82l-174 174l-170 -174l-67 80l241 274z" />
    <glyph glyph-name="otilde" unicode="&#xf5;" horiz-adv-x="958" 
d="M883 530q0 -260 -108.5 -406.5t-301.5 -146.5q-192 0 -294.5 139.5t-102.5 393.5q0 263 108 409t301 146q191 0 294.5 -140t103.5 -395zM709 510q0 201 -59 310.5t-175 109.5q-112 0 -169.5 -107.5t-57.5 -290.5q0 -201 58 -310t175 -109q112 0 170 107t58 290zM764 1421
q-27 -71 -74.5 -112t-109.5 -41q-38 0 -70 14t-50 30t-41.5 30t-47.5 14q-59 0 -101 -92l-77 65q27 71 75 112.5t109 41.5q38 0 70 -13.5t50 -30.5t41.5 -30.5t47.5 -13.5q57 0 102 92z" />
    <glyph glyph-name="odieresis" unicode="&#xf6;" horiz-adv-x="958" 
d="M883 530q0 -260 -108.5 -406.5t-301.5 -146.5q-192 0 -294.5 139.5t-102.5 393.5q0 263 108 409t301 146q191 0 294.5 -140t103.5 -395zM709 510q0 201 -59 310.5t-175 109.5q-112 0 -169.5 -107.5t-57.5 -290.5q0 -201 58 -310t175 -109q112 0 170 107t58 290zM739 1372
q0 -44 -27.5 -72t-70.5 -28t-69.5 28t-26.5 72t26.5 72.5t69.5 28.5t70.5 -28.5t27.5 -72.5zM416 1372q0 -44 -28 -72t-71 -28q-42 0 -69 28t-27 72t27.5 72.5t68.5 28.5q43 0 71 -28.5t28 -72.5z" />
    <glyph glyph-name="divide" unicode="&#xf7;" 
d="M573 1040q0 -49 -33 -82.5t-79 -33.5t-79.5 33.5t-33.5 82.5t33.5 82t79.5 33t79 -33t33 -82zM842 567h-762v138h762v-138zM573 238q0 -50 -33 -83.5t-79 -33.5q-47 0 -80 33.5t-33 83.5q0 49 33 81.5t80 32.5q46 0 79 -32.5t33 -81.5z" />
    <glyph glyph-name="oslash" unicode="&#xf8;" horiz-adv-x="958" 
d="M883 530q0 -260 -108.5 -406.5t-301.5 -146.5q-76 0 -125 19l-69 -199l-107 33l74 207q-170 116 -170 473q0 263 108 409t301 146q73 0 123 -16l72 196l106 -33l-73 -206q170 -116 170 -476zM725 516q0 236 -72 330l-260 -725q34 -17 90 -17q118 0 180 112t62 300z
M565 922q-33 16 -92 16q-118 0 -179 -112.5t-61 -299.5q0 -239 72 -329z" />
    <glyph glyph-name="ugrave" unicode="&#xf9;" horiz-adv-x="976" 
d="M848 0h-129l-17 154q-65 -91 -133.5 -134t-156.5 -43q-77 0 -134 30.5t-89.5 85t-48 121t-15.5 146.5v682h164v-649q0 -134 35 -206t120 -72q62 0 114.5 42t125.5 144v741h164v-1042zM561 1262l-88 -62l-229 264l127 86z" />
    <glyph glyph-name="uacute" unicode="&#xfa;" horiz-adv-x="976" 
d="M848 0h-129l-17 154q-65 -91 -133.5 -134t-156.5 -43q-77 0 -134 30.5t-89.5 85t-48 121t-15.5 146.5v682h164v-649q0 -134 35 -206t120 -72q62 0 114.5 42t125.5 144v741h164v-1042zM705 1464l-230 -264l-88 62l191 288z" />
    <glyph glyph-name="ucircumflex" unicode="&#xfb;" horiz-adv-x="976" 
d="M848 0h-129l-17 154q-65 -91 -133.5 -134t-156.5 -43q-77 0 -134 30.5t-89.5 85t-48 121t-15.5 146.5v682h164v-649q0 -134 35 -206t120 -72q62 0 114.5 42t125.5 144v741h164v-1042zM725 1282l-68 -82l-174 174l-170 -174l-67 80l241 274z" />
    <glyph glyph-name="udieresis" unicode="&#xfc;" horiz-adv-x="976" 
d="M848 0h-129l-17 154q-65 -91 -133.5 -134t-156.5 -43q-77 0 -134 30.5t-89.5 85t-48 121t-15.5 146.5v682h164v-649q0 -134 35 -206t120 -72q62 0 114.5 42t125.5 144v741h164v-1042zM745 1372q0 -44 -27.5 -72t-70.5 -28t-69.5 28t-26.5 72t26.5 72.5t69.5 28.5
t70.5 -28.5t27.5 -72.5zM422 1372q0 -44 -27.5 -72t-70.5 -28q-42 0 -69.5 28t-27.5 72t27.5 72.5t69.5 28.5q43 0 70.5 -28.5t27.5 -72.5z" />
    <glyph glyph-name="yacute" unicode="&#xfd;" horiz-adv-x="823" 
d="M786 1042q-139 -681 -282 -1042q-70 -179 -125.5 -274.5t-107.5 -132.5t-121 -37q-55 0 -109 16l6 121h90q49 0 91.5 62t107.5 241q-191 538 -299 1046h172q75 -363 221 -849h2q120 409 191 849h163zM662 1464l-230 -264l-88 62l191 288z" />
    <glyph glyph-name="thorn" unicode="&#xfe;" horiz-adv-x="960" 
d="M883 557q0 -93 -15 -176t-47.5 -156t-80.5 -125.5t-117.5 -83t-155.5 -30.5q-82 0 -174 20v-432h-164v1962h164v-633q63 87 126.5 124.5t145.5 37.5q84 0 146.5 -40t99.5 -111t54.5 -160.5t17.5 -196.5zM709 545q0 383 -183 383q-57 0 -105.5 -37.5t-127.5 -149.5v-585
q74 -39 174 -39q121 0 181.5 111.5t60.5 316.5z" />
    <glyph glyph-name="ydieresis" unicode="&#xff;" horiz-adv-x="823" 
d="M786 1042q-139 -681 -282 -1042q-70 -179 -125.5 -274.5t-107.5 -132.5t-121 -37q-55 0 -109 16l6 121h90q49 0 91.5 62t107.5 241q-191 538 -299 1046h172q75 -363 221 -849h2q120 409 191 849h163zM674 1372q0 -44 -28 -72t-71 -28t-69.5 28t-26.5 72t26.5 72.5
t69.5 28.5t71 -28.5t28 -72.5zM350 1372q0 -44 -27.5 -72t-70.5 -28q-42 0 -69 28t-27 72t27.5 72.5t68.5 28.5q43 0 70.5 -28.5t27.5 -72.5z" />
    <glyph glyph-name="dotlessi" unicode="&#x131;" horiz-adv-x="460" 
d="M332 0h-164v913h-131v129h295v-1042z" />
    <glyph glyph-name="Lslash" unicode="&#x141;" horiz-adv-x="778" 
d="M756 0h-592v756l-113 -86l-43 112l156 115v533h170v-420l194 143l43 -113l-237 -174v-721h422v-145z" />
    <glyph glyph-name="lslash" unicode="&#x142;" horiz-adv-x="485" 
d="M451 1106l-140 -102v-766q0 -58 15 -87.5t53 -29.5h63v-123q-54 -12 -110 -12q-185 0 -185 211v700l-90 -70l-41 113l131 96v500h164v-393l99 74z" />
    <glyph glyph-name="OE" unicode="&#x152;" horiz-adv-x="1517" 
d="M1413 0h-629q-102 -20 -174 -20q-255 0 -388.5 194.5t-133.5 534.5q0 222 60.5 387.5t182.5 259.5t294 94q76 0 168 -20h614v-140h-467v-475h406v-137h-406v-537h473v-141zM772 158v1112q-76 37 -156 37q-92 0 -161 -47.5t-109 -130t-59 -184t-19 -220.5
q0 -281 88.5 -441.5t264.5 -160.5q76 0 151 35z" />
    <glyph glyph-name="oe" unicode="&#x153;" horiz-adv-x="1536" 
d="M1452 602q0 -9 -1 -45t-1 -53h-571q0 -194 58 -291.5t198 -97.5q128 0 270 49l22 -131q-156 -56 -317 -56q-233 0 -322 197q-104 -197 -317 -197q-191 0 -293 139.5t-102 393.5q0 262 107.5 408.5t299.5 146.5q214 0 314 -195q95 195 311 195q344 0 344 -463zM1284 625
q5 148 -43.5 231.5t-142.5 83.5q-56 0 -98.5 -27t-67.5 -73.5t-38 -100t-15 -114.5h405zM709 510q0 201 -59 310.5t-175 109.5q-112 0 -169.5 -107.5t-57.5 -290.5q0 -201 58 -310t175 -109q112 0 170 107t58 290z" />
    <glyph glyph-name="Scaron" unicode="&#x160;" horiz-adv-x="825" 
d="M758 383q0 -189 -115 -297.5t-311 -108.5q-121 0 -252 43l26 150q115 -45 232 -45q116 0 178 65t62 170q0 100 -51.5 164.5t-188.5 159.5q-139 95 -194.5 182.5t-55.5 212.5q0 167 108.5 270t280.5 103q107 0 207 -35l-27 -143q-85 35 -180 35q-99 0 -155 -61t-56 -150
q0 -67 28 -120.5t74 -94t132 -99.5q145 -98 201.5 -189.5t56.5 -211.5zM662 1733l-240 -189l-236 187l54 94l186 -133l184 133z" />
    <glyph glyph-name="scaron" unicode="&#x161;" horiz-adv-x="706" 
d="M641 270q0 -134 -87.5 -213.5t-240.5 -79.5q-127 0 -233 41l22 140q113 -45 205 -45q77 0 119.5 38t42.5 103q0 62 -36 109t-136 112q-111 70 -160 141t-49 166q0 127 82.5 205t224.5 78q104 0 195 -31l-23 -135q-86 35 -164 35q-70 0 -108.5 -38.5t-38.5 -94.5
q0 -61 30 -105t117 -100q132 -80 185 -152t53 -174zM602 1475l-242 -275l-237 273l67 81l175 -174l170 174z" />
    <glyph glyph-name="Ydieresis" unicode="&#x178;" horiz-adv-x="954" 
d="M944 1430q-193 -479 -381 -809v-621h-172v621q-207 365 -383 809h195q120 -353 286 -656q139 278 265 656h190zM752 1651q0 -42 -27.5 -70.5t-67.5 -28.5t-67 28t-27 71q0 42 27 70t67 28t67.5 -28t27.5 -70zM397 1651q0 -43 -26.5 -71t-67.5 -28q-40 0 -67 28t-27 71
q0 42 27 70t67 28q41 0 67.5 -27.5t26.5 -70.5z" />
    <glyph glyph-name="Zcaron" unicode="&#x17d;" horiz-adv-x="847" 
d="M795 0h-746v139l549 1151h-528v140h714v-138l-553 -1151h564v-141zM670 1733l-240 -189l-235 187l53 94l186 -133l184 133z" />
    <glyph glyph-name="zcaron" unicode="&#x17e;" horiz-adv-x="737" 
d="M674 0h-608v131l403 776h-379v135h559v-131l-401 -774h426v-137zM612 1475l-241 -275l-238 273l68 81l174 -174l170 174z" />
    <glyph glyph-name="florin" unicode="&#x192;" 
d="M817 1440l-8 -119h-80q-45 0 -78.5 -15t-53.5 -38.5t-33.5 -62t-19 -74.5t-9.5 -87l-19 -247h244v-131h-254l-39 -478q-6 -79 -17 -139.5t-35 -120.5t-59.5 -99t-93 -63t-133.5 -24q-52 0 -113 14l11 119h79q45 0 78 14.5t53 37.5t33 60.5t19 73t10 86.5l43 519h-217v131
h227l19 237q5 71 15.5 126.5t34.5 112.5t59 95t93 62t134 24q52 0 110 -14z" />
    <glyph glyph-name="circumflex" unicode="&#x2c6;" horiz-adv-x="589" 
d="M479 1282l-67 -82l-174 174l-170 -174l-68 80l242 274z" />
    <glyph glyph-name="caron" unicode="&#x2c7;" horiz-adv-x="589" 
d="M479 1475l-241 -275l-238 273l68 81l174 -174l170 174z" />
    <glyph glyph-name="breve" unicode="&#x2d8;" horiz-adv-x="514" 
d="M469 1524q0 -56 -13 -105.5t-39.5 -91t-73.5 -66t-110 -24.5q-64 0 -111 24.5t-72.5 67t-37.5 91t-12 104.5h111q0 -75 32 -123.5t95 -48.5q60 0 91 44t31 128h109z" />
    <glyph glyph-name="dotaccent" unicode="&#x2d9;" horiz-adv-x="464" 
d="M342 1372q0 -49 -32 -82t-79 -33t-78.5 33t-31.5 82t31.5 82t78.5 33t79 -33t32 -82z" />
    <glyph glyph-name="ring" unicode="&#x2da;" horiz-adv-x="450" 
d="M356 1378q0 -89 -49 -145.5t-133 -56.5q-87 0 -130.5 53t-43.5 141q0 90 47.5 145.5t134.5 55.5q82 0 128 -52.5t46 -140.5zM250 1370q0 50 -18.5 81.5t-55.5 31.5q-33 0 -51.5 -29t-18.5 -76q0 -114 74 -114q33 0 51.5 30t18.5 76z" />
    <glyph glyph-name="ogonek" unicode="&#x2db;" horiz-adv-x="483" 
d="M457 -344q-71 -74 -170 -74q-81 0 -124.5 46t-43.5 118q0 126 102 254h133q-98 -112 -98 -223q0 -84 68 -84q46 0 88 39z" />
    <glyph glyph-name="tilde" unicode="&#x2dc;" horiz-adv-x="675" 
d="M571 1421q-27 -71 -74.5 -112t-109.5 -41q-38 0 -70 14t-50 30t-41.5 30t-47.5 14q-58 0 -100 -92l-78 65q27 71 75 112.5t109 41.5q38 0 70 -13.5t50 -30.5t41.5 -30.5t47.5 -13.5q58 0 103 92z" />
    <glyph glyph-name="hungarumlaut" unicode="&#x2dd;" horiz-adv-x="647" 
d="M631 1464l-228 -264l-88 55l193 291zM303 1466l-217 -266l-86 55l182 293z" />
    <glyph glyph-name="Delta" unicode="&#x394;" horiz-adv-x="1093" 
d="M1051 0h-1008q191 803 399 1430h199q219 -661 410 -1430zM831 141q-128 533 -296 1100h-3q-157 -533 -284 -1100h583z" />
    <glyph glyph-name="Delta" unicode="&#x2206;" horiz-adv-x="1093" 
d="M1051 0h-1008q191 803 399 1430h199q219 -661 410 -1430zM831 141q-128 533 -296 1100h-3q-157 -533 -284 -1100h583z" />
    <glyph glyph-name="Omega" unicode="&#x3a9;" horiz-adv-x="1253" 
d="M1188 0h-449v131q112 93 180 258.5t68 374.5q0 114 -21 210.5t-63.5 172t-112.5 118t-161 42.5q-93 0 -164 -47t-111.5 -126t-60 -172t-19.5 -196q0 -201 67.5 -370t180.5 -265v-131h-448v131h278q-114 97 -186 268t-72 369q0 143 35.5 266.5t102.5 217t171.5 147
t235.5 53.5q129 0 231 -51.5t166 -142.5t97.5 -210.5t33.5 -259.5q0 -201 -74 -380t-190 -277h285v-131z" />
    <glyph glyph-name="Omega" unicode="&#x2126;" horiz-adv-x="1253" 
d="M1188 0h-449v131q112 93 180 258.5t68 374.5q0 114 -21 210.5t-63.5 172t-112.5 118t-161 42.5q-93 0 -164 -47t-111.5 -126t-60 -172t-19.5 -196q0 -201 67.5 -370t180.5 -265v-131h-448v131h278q-114 97 -186 268t-72 369q0 143 35.5 266.5t102.5 217t171.5 147
t235.5 53.5q129 0 231 -51.5t166 -142.5t97.5 -210.5t33.5 -259.5q0 -201 -74 -380t-190 -277h285v-131z" />
    <glyph glyph-name="pi" unicode="&#x3c0;" horiz-adv-x="1087" 
d="M995 0q-40 -16 -133 -16q-97 0 -150 58t-53 206v665h-331v-913h-164v913h-127v129h958v-129h-172v-616q0 -60 6.5 -96.5t23 -54t35 -22.5t50.5 -5h57v-119z" />
    <glyph glyph-name="endash" unicode="&#x2013;" 
d="M922 555h-922v139h922v-139z" />
    <glyph glyph-name="emdash" unicode="&#x2014;" horiz-adv-x="1843" 
d="M1661 555h-1479v139h1479v-139z" />
    <glyph glyph-name="quoteleft" unicode="&#x2018;" horiz-adv-x="450" 
d="M406 1487q-109 -151 -109 -242q0 -29 19.5 -67t19.5 -66q0 -53 -30.5 -87t-80.5 -34q-69 0 -99 63q-44 93 29 248q56 117 171 246z" />
    <glyph glyph-name="quoteright" unicode="&#x2019;" horiz-adv-x="450" 
d="M227 1495q67 0 98 -63q44 -92 -28 -247q-55 -117 -170 -247l-82 61q109 151 109 240q0 29 -19.5 68t-19.5 67q0 53 30 87t82 34z" />
    <glyph glyph-name="quotesinglbase" unicode="&#x201a;" horiz-adv-x="450" 
d="M225 231q67 0 98 -63q44 -92 -28 -247q-55 -117 -170 -247l-80 62q107 154 107 241q0 28 -19.5 67t-19.5 69q0 52 30 85t82 33z" />
    <glyph glyph-name="quotedblleft" unicode="&#x201c;" horiz-adv-x="768" 
d="M721 1473q-107 -155 -107 -230q0 -29 19.5 -67.5t19.5 -65.5q0 -50 -28.5 -81.5t-77.5 -31.5q-46 0 -77.5 37t-31.5 99q0 74 50 176t157 223zM406 1485q-117 -163 -117 -242q0 -29 19.5 -67.5t19.5 -65.5q0 -50 -29 -81.5t-78 -31.5q-46 0 -77 36t-31 100q0 76 52 181
t165 230z" />
    <glyph glyph-name="quotedblright" unicode="&#x201d;" horiz-adv-x="768" 
d="M655 1354q0 -77 -52 -182.5t-165 -229.5l-76 59q115 157 115 242q0 29 -18.5 66.5t-18.5 64.5q0 50 29 82.5t78 32.5q46 0 77 -35.5t31 -99.5zM330 1354q0 -168 -207 -400l-76 58q105 152 105 231q0 29 -18.5 66.5t-18.5 64.5q0 51 28 83t78 32q46 0 77.5 -36.5
t31.5 -98.5z" />
    <glyph glyph-name="quotedblbase" unicode="&#x201e;" horiz-adv-x="772" 
d="M659 94q0 -172 -219 -413l-75 59q116 161 116 242q0 30 -19.5 68t-19.5 65q0 52 29.5 83t79.5 31q46 0 77 -35.5t31 -99.5zM332 94q0 -76 -50.5 -178.5t-158.5 -222.5l-76 59q107 155 107 230q0 30 -19.5 68t-19.5 65q0 52 29 83t79 31q46 0 77.5 -36.5t31.5 -98.5z" />
    <glyph glyph-name="dagger" unicode="&#x2020;" 
d="M807 1042h-285l33 -266q1 -69 1.5 -104.5t-6 -106t-11 -109.5t-13.5 -114.5t-14 -122.5h-102q-5 47 -14 122.5t-13.5 114.5t-11 109.5t-6 106t1.5 104.5l32 266h-284v123h284q-21 183 -30 371h184q-15 -230 -31 -371h285v-123z" />
    <glyph glyph-name="daggerdbl" unicode="&#x2021;" 
d="M807 371h-285q16 -141 31 -371h-184q9 188 30 371h-284v123h284q-32 101 -32 278q0 158 32 270h-284v123h284q-21 183 -30 371h184q-15 -230 -31 -371h285v-123h-285q33 -115 33 -270q0 -174 -33 -278h285v-123z" />
    <glyph glyph-name="bullet" unicode="&#x2022;" 
d="M764 711q0 -132 -88.5 -223t-214.5 -91t-214.5 91t-88.5 223t88.5 222.5t214.5 90.5t214.5 -90.5t88.5 -222.5z" />
    <glyph glyph-name="ellipsis" unicode="&#x2026;" horiz-adv-x="1298" 
d="M1182 111q0 -53 -34 -88t-85 -35t-84 35t-33 88t33.5 89t85.5 36q51 0 84 -36t33 -89zM764 111q0 -53 -34 -88t-85 -35t-84 35t-33 88t33 89t84 36q52 0 85.5 -36t33.5 -89zM344 111q0 -53 -33 -88t-84 -35t-83.5 35t-32.5 88t33 89t83 36q51 0 84 -36t33 -89z" />
    <glyph glyph-name="perthousand" unicode="&#x2030;" horiz-adv-x="1957" 
d="M1884 348q0 -177 -70 -272.5t-198 -95.5q-254 0 -254 362q0 174 69.5 271.5t198.5 97.5q254 0 254 -363zM592 1087q0 -177 -70 -272.5t-198 -95.5q-254 0 -254 362q0 174 69.5 271.5t198.5 97.5q254 0 254 -363zM1124 1432l-829 -1493l-107 59l832 1493zM1260 348
q0 -176 -71 -272t-198 -96q-256 0 -256 362q0 174 70 271.5t199 97.5q256 0 256 -363zM1747 344q0 100 -16 159t-41.5 80t-65.5 21q-68 0 -96.5 -65t-28.5 -193q0 -140 30.5 -200t94.5 -60q66 0 94.5 65.5t28.5 192.5zM455 1083q0 146 -31.5 203t-93.5 57q-66 0 -94.5 -65
t-28.5 -193q0 -140 30.5 -200t94.5 -60q66 0 94.5 65.5t28.5 192.5zM1120 344q0 100 -16 159t-41.5 80t-65.5 21q-67 0 -95 -64.5t-28 -193.5q0 -140 29.5 -200t93.5 -60q66 0 94.5 65.5t28.5 192.5z" />
    <glyph glyph-name="guilsinglleft" unicode="&#x2039;" horiz-adv-x="616" 
d="M446 180l-122 -55l-238 448l238 449l122 -55l-186 -394z" />
    <glyph glyph-name="guilsinglright" unicode="&#x203a;" horiz-adv-x="616" 
d="M528 573l-237 -448l-121 55l184 393l-184 394l121 55z" />
    <glyph glyph-name="fraction" unicode="&#x2044;" horiz-adv-x="616" 
d="M778 1432l-829 -1493l-105 59l830 1493z" />
    <glyph glyph-name="fraction" unicode="&#x2215;" horiz-adv-x="616" 
d="M778 1432l-829 -1493l-105 59l830 1493z" />
    <glyph glyph-name="trademark" unicode="&#x2122;" horiz-adv-x="1163" 
d="M1057 831h-109q0 261 -6 472l-121 -472h-112l-121 472q-6 -212 -6 -472h-101q0 217 19 599h159l111 -459l111 459h157q19 -382 19 -599zM422 1331h-127v-500h-111v500h-127v99h365v-99z" />
    <glyph glyph-name="partialdiff" unicode="&#x2202;" horiz-adv-x="964" 
d="M874 676q0 -344 -103 -521.5t-306 -177.5q-98 0 -174 40t-121.5 110t-68.5 159.5t-23 194.5q0 266 111 421t300 155q103 0 183 -53q-34 223 -121.5 317t-241.5 92l10 139q146 2 253 -56t173 -172.5t97.5 -275t31.5 -372.5zM702 653q0 75 -8 207q-109 64 -192 64
q-127 0 -189.5 -118t-62.5 -323q0 -110 21.5 -191t72.5 -131t127 -50q119 0 175 127.5t56 414.5z" />
    <glyph glyph-name="product" unicode="&#x220f;" horiz-adv-x="1388" 
d="M1296 1303h-184v-1729h-170v1729h-493v-1729h-170v1729h-185v149h1202v-149z" />
    <glyph glyph-name="summation" unicode="&#x2211;" horiz-adv-x="983" 
d="M913 -426h-831v143l483 813l-461 785v137h785v-143h-592l457 -774l-480 -814h639v-147z" />
    <glyph glyph-name="minus" unicode="&#x2212;" 
d="M842 567h-762v138h762v-138z" />
    <glyph glyph-name="radical" unicode="&#x221a;" 
d="M893 1430l-315 -1430h-211l-234 913h-108v127h251l162 -653q30 -135 43 -237l2 -3q3 58 33 222l213 1061h164z" />
    <glyph glyph-name="infinity" unicode="&#x221e;" horiz-adv-x="1564" 
d="M1479 719q0 -141 -79 -235.5t-218 -94.5q-39 0 -82.5 14t-78 32t-83.5 54t-77.5 59.5t-82.5 69.5q-122 -107 -218.5 -168t-182.5 -61q-140 0 -214.5 90t-74.5 230t79 234.5t216 94.5q86 0 182.5 -59.5t222.5 -169.5q119 106 218 167.5t186 61.5q137 0 212 -90t75 -229z
M1325 709q0 94 -39.5 143t-107.5 49q-29 0 -60.5 -12t-75.5 -45t-69.5 -54t-85.5 -73q57 -50 86 -74.5t72 -56.5t76 -45t63 -13q66 0 103.5 50t37.5 131zM680 713q-56 48 -85.5 72.5t-73 56.5t-77.5 45.5t-63 13.5q-65 0 -102 -51.5t-37 -132.5q0 -92 37 -140.5t108 -48.5
q53 0 121 46t172 139z" />
    <glyph glyph-name="integral" unicode="&#x222b;" horiz-adv-x="661" 
d="M612 1421h-77q-41 0 -69.5 -15t-43.5 -36.5t-23 -60t-10 -70.5t-2 -84v-1194q0 -98 -12.5 -168.5t-42.5 -126t-84 -83t-133 -27.5q-65 0 -115 12v121h78q41 0 69 15t43 36t22.5 61t9 70.5t1.5 83.5v1196q0 97 13 167.5t43.5 125.5t85 82.5t133.5 27.5q64 0 114 -12v-121z
" />
    <glyph glyph-name="approxequal" unicode="&#x2248;" 
d="M842 838q-94 -121 -219 -121q-56 0 -105 20.5t-78.5 45t-70.5 45t-82 20.5q-65 0 -144 -86l-63 96q92 121 219 121q56 0 105 -20.5t78.5 -45t70.5 -45t82 -20.5q66 0 141 86zM842 416q-92 -121 -219 -121q-56 0 -105 20.5t-78.5 45t-70.5 45t-82 20.5q-65 0 -144 -86
l-63 96q94 121 219 121q56 0 105 -20.5t78.5 -45t70.5 -45t82 -20.5q66 0 141 86z" />
    <glyph glyph-name="notequal" unicode="&#x2260;" 
d="M823 352h-422l-127 -284l-108 47l106 237h-174v144h236l127 282h-363v144h424l127 282l109 -45l-107 -237h172v-144h-235l-123 -282h358v-144z" />
    <glyph glyph-name="lessequal" unicode="&#x2264;" 
d="M831 256l-743 459v143l743 459v-166l-591 -363l591 -364v-168zM831 0h-743v137h743v-137z" />
    <glyph glyph-name="greaterequal" unicode="&#x2265;" 
d="M834 715l-744 -459v166l592 362l-592 365v168l744 -459v-143zM834 0h-744v137h744v-137z" />
    <glyph glyph-name="diamondrhombsolid" unicode="&#x25c6;" 
d="M791 713l-330 -330l-330 330l330 329z" />
    <glyph glyph-name="lozenge" unicode="&#x25ca;" horiz-adv-x="933" 
d="M868 721l-323 -721h-160l-332 729l326 721h160zM711 717l-254 567l-246 -551l254 -567z" />
    <glyph glyph-name="Circumflex" unicode="&#xe013;" horiz-adv-x="737" 
d="M475 1638l-53 -94l-186 133l-185 -133l-51 92l240 189z" />
    <glyph glyph-name="Tilde" unicode="&#xe014;" horiz-adv-x="819" 
d="M590 1702q-27 -70 -77 -111t-112 -41q-40 0 -73.5 14t-52 30t-43 30t-48.5 14q-58 0 -104 -94l-80 66q29 70 77.5 109.5t112.5 39.5q39 0 72.5 -13.5t52 -29.5t43 -29.5t48.5 -13.5q59 0 104 92z" />
    <glyph glyph-name="nbspace" unicode="&#xe0ca;" horiz-adv-x="442" 
 />
    <glyph glyph-name="apple" unicode="&#xf000;" horiz-adv-x="1572" 
d="M1442 1169q0 -8 -4 -8q-17 1 -23 1t-22.5 -2t-22.5 -3q-110 -6 -147 -14q-9 -10 -12 -35.5t-5 -32.5q0 -1 6 -31q5 -9 23 -14q27 4 39 27q0 12 -12 24q-4 4 -16.5 5.5t-16.5 9.5q3 6 8 7.5t15.5 0t13.5 -1.5q14 -5 24 -33q-3 -31 -30 -55q-5 -2 -17.5 -5t-17.5 -5
q-18 6 -28 9.5t-24.5 14.5t-21.5 25q-3 21 -2.5 31t4 29t4.5 30q-3 5 -7 7t-8 1t-9 0l-56 -2q0 2 -1 4t-1 4q4 4 13 5t10 1q9 -2 19.5 -2t23 1t18.5 1q8 8 8 35q3 7 6.5 30.5t10.5 31.5q7 2 9 1t7 -8t6 -8q5 -10 4.5 -35t3.5 -39q4 -7 10.5 -8.5t12.5 0.5t12 0q3 0 70 3
t117 10q5 -5 6 -7zM1067 1032l-6 -4q-57 0 -82 -10q-2 1 -6 2.5t-6.5 2.5t-5.5 4t-5 7q12 71 2 115q-1 2 -3 2.5t-5 -1t-5 -3t-5 -3.5t-4 -3q-63 -47 -68 -99q-15 -19 -30 -10q-7 10 -6 31t-1 33v63q-4 4 -13.5 3.5t-16.5 0.5q-1 1 -10 2.5t-9 8.5q12 -1 43 2.5t43 -0.5
q5 -6 5 -29t10 -27q15 8 42.5 29.5t43.5 28.5q3 -3 20 -3t19 -16q2 -17 2.5 -47.5t1.5 -40.5q1 -3 1 -8t1 -9t4 -7q15 -4 20 0q4 0 13 -2.5t16 -2.5q3 -3 0 -10zM733 1145q3 -43 -12 -64q-7 -6 -20.5 -20t-25 -22.5t-24.5 -10.5q-6 3 -10 -6t-10 -4q-3 6 -20.5 4t-20.5 -2
q-23 0 -35 6q-29 33 -31 53q-1 10 2 21q10 41 39 61q3 2 14 9t14.5 9t15.5 7t16.5 3.5t17.5 -1.5q73 -4 90 -43zM741 1360q-9 -12 -23 -17t-26 0q-2 3 -8.5 14.5t-9.5 19.5t-4 16q-9 19 -26 32.5t-29.5 18.5t-37.5 12t-34 10l-51 4q-2 -3 -9.5 -2.5t-11.5 -1.5
q-52 -19 -90 -43q-1 -2 -22 -22.5t-23 -38.5q-15 -52 -19 -143q4 -4 10.5 -5t14.5 0t12 0q38 5 142 5q2 -1 2 -6.5t-2 -8.5q-7 -9 -25 -1t-25 5q-12 1 -34.5 -1t-32.5 -1q-6 -1 -19.5 -2.5t-23.5 -4t-17 -7.5l-4 -8q-3 -42 0 -129q1 -4 1.5 -25.5t7.5 -32.5q31 -2 61.5 2
t50.5 5q5 2 6.5 2.5t7.5 -2.5t7 -3q1 -1 1 -4t1 -4l-6 -4q-20 7 -64.5 0t-75.5 -4q-60 -5 -75 -4q-73 -4 -105 6l-4 6q8 8 14 11q10 -6 66 -15q4 1 13.5 1t16.5 1.5t11 5.5q0 38 8 98.5t10 92.5l-4 8q-9 1 -29.5 0t-35 1t-27.5 9q-1 4 0.5 7.5t3.5 3.5q34 -11 92 -7l4 7
q8 90 25 135v6q76 112 195 127q47 7 114 -27q4 -2 15.5 -3.5t17.5 -4.5q70 -19 102 -72v-18zM1264 -119l-7 -8q-22 2 -78.5 -5t-80.5 -3q-51 3 -171 -7t-186 -1q-15 -3 -30.5 -4t-33.5 0t-28.5 2t-33 4t-29.5 4q-30 3 -61.5 3.5t-75.5 -0.5t-62 -1q-109 0 -164 -17
q-19 -5 -24 9q0 10 -1 40.5t-0.5 52t5.5 40.5q1 20 1 77t5 87q-4 30 -1 91t-1 91q0 38 10 268q2 54 1.5 146.5t0.5 146.5q5 14 19.5 13.5t23.5 0.5q8 -5 19 -5t24 2t19 1q18 23 20 2q2 -2 0.5 -12t3.5 -12q-3 -66 -1.5 -112t7 -151.5t6.5 -148.5q36 14 97 57.5t94 57.5
q2 1 14 10.5t21 13.5l2 3q2 3 3.5 3.5t5 2t5.5 -1.5q5 -3 5.5 -8.5t-0.5 -14.5t-1 -12q-15 -55 -8 -125q2 -5 6 -5.5t9.5 1.5t7.5 2q9 9 28 23t27 22q53 37 67 43q5 4 15.5 13.5t16.5 14t15 11.5t17 12t16 8l33 33q0 6 8 14q7 0 19 -12q0 -19 5 -58t5 -59q1 -4 5 -4.5
t5 -3.5q6 -11 -4 -41l4 -4q38 10 100.5 65t98.5 66q4 6 17 13t18 14q8 1 20.5 13.5t19.5 16.5t23 -6q7 0 10 -8q-1 -6 3 -14.5t4 -9.5q-2 -8 0 -29.5t-3 -26.5q1 -19 0 -34.5t1 -33t8 -30.5q-2 -8 3 -25t-1 -22q1 -6 1 -18.5t1.5 -21t5.5 -15.5q0 -3 0.5 -9t1 -10.5
t-0.5 -9.5t-3 -8q1 -8 3 -42.5t7 -52.5q-2 -4 -2 -9.5t1 -12.5t1 -10q0 -53 10 -152.5t11 -148.5q0 -1 1.5 -8t0.5 -11zM696 1104q-9 63 -43 70q-1 -6 -5 -7.5t-9.5 0t-7.5 0.5q-11 6 -23 2.5t-20 -14.5q-4 -7 -6 -15.5t-3 -14.5t1 -15.5t2.5 -14t5 -15t6 -13.5t7.5 -14
t7 -13q1 -4 4 -5.5t7 -0.5t8 0q11 -1 15 0t13.5 7.5t12.5 7.5q3 3 11.5 11t11 11.5t6.5 14t-1 18.5zM995 367q-4 21 -18 30q-13 13 -16 0q-8 -13 -11 -30.5t4 -30.5q1 -10 11.5 -11.5t19.5 3.5q14 11 10 39zM1210 -20q-17 48 -28 65q-3 7 -13.5 26t-16 32.5t-7.5 29.5
q-1 3 -4.5 10.5t-5 13.5t-0.5 11q8 12 28 27.5t27 25.5l-14 35q-9 -1 -18 -4.5t-19 -8.5t-15 -7q-2 -1 -6.5 -6t-8 -7.5t-8 -2.5t-7.5 5v160l-2 6q-10 0 -45 15q-1 -9 -3.5 -32t-2.5 -33.5t1 -33.5q-3 -11 -1.5 -40t-2.5 -40q3 -26 0.5 -106t-2.5 -105v-14h39q2 1 10 -2t9 2
v57q0 5 -3.5 20.5t-1.5 24.5t13 13q6 -3 9 -15.5t5 -15.5q-1 -10 7.5 -26t9.5 -21q10 -8 23.5 -33.5t23.5 -34.5q3 1 9.5 -2.5t10.5 -1.5q10 0 10 13zM999 31q0 27 -2 79t-2 76q0 6 1 17.5t1 20.5t-2 16q-9 6 -14.5 5.5t-15 -3.5t-15.5 -2q-8 -18 -7.5 -50t-0.5 -53
q-4 -14 -4 -53q1 -6 0.5 -45t7.5 -45q26 0 49 10q4 8 4 27zM918 252q-1 0 -6 -0.5t-7 -1t-6.5 -1.5t-7 -2t-6.5 -3t-6.5 -4.5t-5.5 -6t-5 -8.5q-3 -3 -5 -14t-6 -17.5t-13 -3.5q-4 20 -4 60q-4 3 -12.5 0t-12.5 0q-12 -9 -16 -27q0 -149 6 -227l4 -8q6 -6 20.5 -2.5
t18.5 0.5q-4 16 -2 43t-2 41q8 59 26 90q6 6 21 12.5t22 13.5q0 8 3.5 30.5t1.5 35.5zM750 61q5 11 7.5 24.5t3.5 22.5t-0.5 26.5t-2.5 24t-4 27.5t-4 25q2 7 -6.5 14.5t-20.5 15t-14 9.5q-2 4 -7 4t-6 -6q-17 3 -30 -8q-7 -4 -13.5 -16t-9.5 -15q-8 -6 -16 6q8 49 -4 152
l-5 14h-12q-9 -4 -11.5 -13.5t-1.5 -19t-1 -18.5q-3 -22 -3 -69.5t-3 -70.5q1 -20 -0.5 -67t0.5 -64q0 -10 -2.5 -34t-1.5 -39q15 -11 51 10q12 3 16.5 0t11.5 -14.5t11 -14.5q12 0 20 2q21 14 40 41.5t18 50.5zM545 -10v80q-6 24 -4.5 90t-12.5 84q-18 15 -36 24l-13 11
q-10 -2 -18.5 -1t-19 -1t-17.5 -9q-6 -5 -8.5 -12t-3 -22.5t-0.5 -18.5q13 -6 25.5 -2t26.5 1.5t21 -17.5q-1 -4 2.5 -12.5t-0.5 -12.5q-5 -11 0 -16q3 -4 1.5 -11t-5.5 -8q-8 -3 -23 -3.5t-22 -2.5q-18 -8 -28.5 -30t-12.5 -46q-4 -7 -2 -22t-2 -21q0 -22 25 -35q9 9 12 5
q8 -3 16 2t18 16t15 14q10 3 11.5 -5t-0.5 -18.5t4 -17.5q3 -5 13 -0.5t13 4.5q2 1 7.5 3t9.5 4t8 6zM406 371q-20 5 -84 0q-30 -4 -46 -17q-1 -22 -5 -66.5t-5 -66.5q2 -40 1.5 -112t0.5 -113q2 0 12 2.5t11 -0.5q6 2 19.5 -1.5t19.5 1.5q2 43 2 129q5 13 26 25q3 2 13 0.5
t12 5.5l-2 57q-3 4 -7.5 6t-7.5 2.5t-9.5 0t-8.5 -0.5q-8 -8 -12 -8q-7 2 -9.5 9.5t-3 19.5t-1.5 16q-3 7 6 21q17 7 63 16l10 8q-2 14 1.5 36t3.5 30zM705 158q10 -30 5.5 -60t-20.5 -53q-2 -3 -5 -5.5t-5 -3.5l-5 -2.5l-5 -2.5q-8 1 -13 5.5t-8 13t-4 15t-2 17.5t-2 16
q0 2 3 28.5t9 37.5q5 3 15 20t20 17l4 -6q-2 -10 5 -21t8 -16zM483 86q0 -21 -22 -47q-3 -1 -8.5 -5t-9.5 -5t-11 2q-6 2 -7 7t2 18l3 12q0 13 14 20q9 0 17 8q2 -1 5.5 -1t6.5 -0.5t6 -2.5t4 -6z" />
    <glyph glyph-name="apple" unicode="&#xf8ff;" horiz-adv-x="1572" 
d="M1442 1169q0 -8 -4 -8q-17 1 -23 1t-22.5 -2t-22.5 -3q-110 -6 -147 -14q-9 -10 -12 -35.5t-5 -32.5q0 -1 6 -31q5 -9 23 -14q27 4 39 27q0 12 -12 24q-4 4 -16.5 5.5t-16.5 9.5q3 6 8 7.5t15.5 0t13.5 -1.5q14 -5 24 -33q-3 -31 -30 -55q-5 -2 -17.5 -5t-17.5 -5
q-18 6 -28 9.5t-24.5 14.5t-21.5 25q-3 21 -2.5 31t4 29t4.5 30q-3 5 -7 7t-8 1t-9 0l-56 -2q0 2 -1 4t-1 4q4 4 13 5t10 1q9 -2 19.5 -2t23 1t18.5 1q8 8 8 35q3 7 6.5 30.5t10.5 31.5q7 2 9 1t7 -8t6 -8q5 -10 4.5 -35t3.5 -39q4 -7 10.5 -8.5t12.5 0.5t12 0q3 0 70 3
t117 10q5 -5 6 -7zM1067 1032l-6 -4q-57 0 -82 -10q-2 1 -6 2.5t-6.5 2.5t-5.5 4t-5 7q12 71 2 115q-1 2 -3 2.5t-5 -1t-5 -3t-5 -3.5t-4 -3q-63 -47 -68 -99q-15 -19 -30 -10q-7 10 -6 31t-1 33v63q-4 4 -13.5 3.5t-16.5 0.5q-1 1 -10 2.5t-9 8.5q12 -1 43 2.5t43 -0.5
q5 -6 5 -29t10 -27q15 8 42.5 29.5t43.5 28.5q3 -3 20 -3t19 -16q2 -17 2.5 -47.5t1.5 -40.5q1 -3 1 -8t1 -9t4 -7q15 -4 20 0q4 0 13 -2.5t16 -2.5q3 -3 0 -10zM733 1145q3 -43 -12 -64q-7 -6 -20.5 -20t-25 -22.5t-24.5 -10.5q-6 3 -10 -6t-10 -4q-3 6 -20.5 4t-20.5 -2
q-23 0 -35 6q-29 33 -31 53q-1 10 2 21q10 41 39 61q3 2 14 9t14.5 9t15.5 7t16.5 3.5t17.5 -1.5q73 -4 90 -43zM741 1360q-9 -12 -23 -17t-26 0q-2 3 -8.5 14.5t-9.5 19.5t-4 16q-9 19 -26 32.5t-29.5 18.5t-37.5 12t-34 10l-51 4q-2 -3 -9.5 -2.5t-11.5 -1.5
q-52 -19 -90 -43q-1 -2 -22 -22.5t-23 -38.5q-15 -52 -19 -143q4 -4 10.5 -5t14.5 0t12 0q38 5 142 5q2 -1 2 -6.5t-2 -8.5q-7 -9 -25 -1t-25 5q-12 1 -34.5 -1t-32.5 -1q-6 -1 -19.5 -2.5t-23.5 -4t-17 -7.5l-4 -8q-3 -42 0 -129q1 -4 1.5 -25.5t7.5 -32.5q31 -2 61.5 2
t50.5 5q5 2 6.5 2.5t7.5 -2.5t7 -3q1 -1 1 -4t1 -4l-6 -4q-20 7 -64.5 0t-75.5 -4q-60 -5 -75 -4q-73 -4 -105 6l-4 6q8 8 14 11q10 -6 66 -15q4 1 13.5 1t16.5 1.5t11 5.5q0 38 8 98.5t10 92.5l-4 8q-9 1 -29.5 0t-35 1t-27.5 9q-1 4 0.5 7.5t3.5 3.5q34 -11 92 -7l4 7
q8 90 25 135v6q76 112 195 127q47 7 114 -27q4 -2 15.5 -3.5t17.5 -4.5q70 -19 102 -72v-18zM1264 -119l-7 -8q-22 2 -78.5 -5t-80.5 -3q-51 3 -171 -7t-186 -1q-15 -3 -30.5 -4t-33.5 0t-28.5 2t-33 4t-29.5 4q-30 3 -61.5 3.5t-75.5 -0.5t-62 -1q-109 0 -164 -17
q-19 -5 -24 9q0 10 -1 40.5t-0.5 52t5.5 40.5q1 20 1 77t5 87q-4 30 -1 91t-1 91q0 38 10 268q2 54 1.5 146.5t0.5 146.5q5 14 19.5 13.5t23.5 0.5q8 -5 19 -5t24 2t19 1q18 23 20 2q2 -2 0.5 -12t3.5 -12q-3 -66 -1.5 -112t7 -151.5t6.5 -148.5q36 14 97 57.5t94 57.5
q2 1 14 10.5t21 13.5l2 3q2 3 3.5 3.5t5 2t5.5 -1.5q5 -3 5.5 -8.5t-0.5 -14.5t-1 -12q-15 -55 -8 -125q2 -5 6 -5.5t9.5 1.5t7.5 2q9 9 28 23t27 22q53 37 67 43q5 4 15.5 13.5t16.5 14t15 11.5t17 12t16 8l33 33q0 6 8 14q7 0 19 -12q0 -19 5 -58t5 -59q1 -4 5 -4.5
t5 -3.5q6 -11 -4 -41l4 -4q38 10 100.5 65t98.5 66q4 6 17 13t18 14q8 1 20.5 13.5t19.5 16.5t23 -6q7 0 10 -8q-1 -6 3 -14.5t4 -9.5q-2 -8 0 -29.5t-3 -26.5q1 -19 0 -34.5t1 -33t8 -30.5q-2 -8 3 -25t-1 -22q1 -6 1 -18.5t1.5 -21t5.5 -15.5q0 -3 0.5 -9t1 -10.5
t-0.5 -9.5t-3 -8q1 -8 3 -42.5t7 -52.5q-2 -4 -2 -9.5t1 -12.5t1 -10q0 -53 10 -152.5t11 -148.5q0 -1 1.5 -8t0.5 -11zM696 1104q-9 63 -43 70q-1 -6 -5 -7.5t-9.5 0t-7.5 0.5q-11 6 -23 2.5t-20 -14.5q-4 -7 -6 -15.5t-3 -14.5t1 -15.5t2.5 -14t5 -15t6 -13.5t7.5 -14
t7 -13q1 -4 4 -5.5t7 -0.5t8 0q11 -1 15 0t13.5 7.5t12.5 7.5q3 3 11.5 11t11 11.5t6.5 14t-1 18.5zM995 367q-4 21 -18 30q-13 13 -16 0q-8 -13 -11 -30.5t4 -30.5q1 -10 11.5 -11.5t19.5 3.5q14 11 10 39zM1210 -20q-17 48 -28 65q-3 7 -13.5 26t-16 32.5t-7.5 29.5
q-1 3 -4.5 10.5t-5 13.5t-0.5 11q8 12 28 27.5t27 25.5l-14 35q-9 -1 -18 -4.5t-19 -8.5t-15 -7q-2 -1 -6.5 -6t-8 -7.5t-8 -2.5t-7.5 5v160l-2 6q-10 0 -45 15q-1 -9 -3.5 -32t-2.5 -33.5t1 -33.5q-3 -11 -1.5 -40t-2.5 -40q3 -26 0.5 -106t-2.5 -105v-14h39q2 1 10 -2t9 2
v57q0 5 -3.5 20.5t-1.5 24.5t13 13q6 -3 9 -15.5t5 -15.5q-1 -10 7.5 -26t9.5 -21q10 -8 23.5 -33.5t23.5 -34.5q3 1 9.5 -2.5t10.5 -1.5q10 0 10 13zM999 31q0 27 -2 79t-2 76q0 6 1 17.5t1 20.5t-2 16q-9 6 -14.5 5.5t-15 -3.5t-15.5 -2q-8 -18 -7.5 -50t-0.5 -53
q-4 -14 -4 -53q1 -6 0.5 -45t7.5 -45q26 0 49 10q4 8 4 27zM918 252q-1 0 -6 -0.5t-7 -1t-6.5 -1.5t-7 -2t-6.5 -3t-6.5 -4.5t-5.5 -6t-5 -8.5q-3 -3 -5 -14t-6 -17.5t-13 -3.5q-4 20 -4 60q-4 3 -12.5 0t-12.5 0q-12 -9 -16 -27q0 -149 6 -227l4 -8q6 -6 20.5 -2.5
t18.5 0.5q-4 16 -2 43t-2 41q8 59 26 90q6 6 21 12.5t22 13.5q0 8 3.5 30.5t1.5 35.5zM750 61q5 11 7.5 24.5t3.5 22.5t-0.5 26.5t-2.5 24t-4 27.5t-4 25q2 7 -6.5 14.5t-20.5 15t-14 9.5q-2 4 -7 4t-6 -6q-17 3 -30 -8q-7 -4 -13.5 -16t-9.5 -15q-8 -6 -16 6q8 49 -4 152
l-5 14h-12q-9 -4 -11.5 -13.5t-1.5 -19t-1 -18.5q-3 -22 -3 -69.5t-3 -70.5q1 -20 -0.5 -67t0.5 -64q0 -10 -2.5 -34t-1.5 -39q15 -11 51 10q12 3 16.5 0t11.5 -14.5t11 -14.5q12 0 20 2q21 14 40 41.5t18 50.5zM545 -10v80q-6 24 -4.5 90t-12.5 84q-18 15 -36 24l-13 11
q-10 -2 -18.5 -1t-19 -1t-17.5 -9q-6 -5 -8.5 -12t-3 -22.5t-0.5 -18.5q13 -6 25.5 -2t26.5 1.5t21 -17.5q-1 -4 2.5 -12.5t-0.5 -12.5q-5 -11 0 -16q3 -4 1.5 -11t-5.5 -8q-8 -3 -23 -3.5t-22 -2.5q-18 -8 -28.5 -30t-12.5 -46q-4 -7 -2 -22t-2 -21q0 -22 25 -35q9 9 12 5
q8 -3 16 2t18 16t15 14q10 3 11.5 -5t-0.5 -18.5t4 -17.5q3 -5 13 -0.5t13 4.5q2 1 7.5 3t9.5 4t8 6zM406 371q-20 5 -84 0q-30 -4 -46 -17q-1 -22 -5 -66.5t-5 -66.5q2 -40 1.5 -112t0.5 -113q2 0 12 2.5t11 -0.5q6 2 19.5 -1.5t19.5 1.5q2 43 2 129q5 13 26 25q3 2 13 0.5
t12 5.5l-2 57q-3 4 -7.5 6t-7.5 2.5t-9.5 0t-8.5 -0.5q-8 -8 -12 -8q-7 2 -9.5 9.5t-3 19.5t-1.5 16q-3 7 6 21q17 7 63 16l10 8q-2 14 1.5 36t3.5 30zM705 158q10 -30 5.5 -60t-20.5 -53q-2 -3 -5 -5.5t-5 -3.5l-5 -2.5l-5 -2.5q-8 1 -13 5.5t-8 13t-4 15t-2 17.5t-2 16
q0 2 3 28.5t9 37.5q5 3 15 20t20 17l4 -6q-2 -10 5 -21t8 -16zM483 86q0 -21 -22 -47q-3 -1 -8.5 -5t-9.5 -5t-11 2q-6 2 -7 7t2 18l3 12q0 13 14 20q9 0 17 8q2 -1 5.5 -1t6.5 -0.5t6 -2.5t4 -6z" />
    <glyph glyph-name="Acute" unicode="&#xf6c9;" horiz-adv-x="573" 
d="M354 1704l-303 -160l-51 92l285 191z" />
    <glyph glyph-name="Caron" unicode="&#xf6ca;" horiz-adv-x="737" 
d="M475 1733l-239 -189l-236 187l53 94l187 -133l184 133z" />
    <glyph glyph-name="Dieresis" unicode="&#xf6cb;" horiz-adv-x="747" 
d="M543 1651q0 -43 -27 -71t-67 -28t-67.5 28.5t-27.5 70.5t27.5 70t67.5 28t67 -28t27 -70zM188 1651q0 -43 -26.5 -71t-67.5 -28q-40 0 -67 28t-27 71q0 42 27 70t67 28q41 0 67.5 -27.5t26.5 -70.5z" />
    <glyph glyph-name="Grave" unicode="&#xf6ce;" horiz-adv-x="573" 
d="M354 1636l-51 -92l-303 160l70 123z" />
    <glyph glyph-name="onefitted" unicode="&#xf6dc;" horiz-adv-x="610" 
d="M449 0h-170v1245l-199 -168l-55 101l276 256h148v-1434z" />
    <glyph glyph-name="zerooldstyle" unicode="&#xf730;" 
d="M864 608q0 -107 -14 -199t-45 -172.5t-77.5 -137.5t-115.5 -89.5t-155 -32.5q-110 0 -187.5 41.5t-124 124t-67.5 196t-21 267.5q0 98 13 185.5t44 167.5t77 138t116 92t158 34q94 0 165.5 -36t115 -93.5t71 -140t37.5 -165.5t10 -180zM690 596q0 108 -10.5 191.5
t-35.5 153t-71.5 107t-113.5 37.5q-81 0 -134 -64.5t-74.5 -167t-21.5 -241.5q0 -263 56.5 -380t181.5 -117q47 0 83.5 18t60.5 53t40 77.5t24 100t11.5 111.5t3.5 121z" />
    <glyph glyph-name="oneoldstyle" unicode="&#xf731;" 
d="M819 0h-657v137h266v885l-240 -174l-49 102l310 252h149v-1065h221v-137z" />
    <glyph glyph-name="twooldstyle" unicode="&#xf732;" 
d="M825 0h-733v131l234 244q152 159 204 263.5t52 219.5q0 101 -50 164t-153 63q-106 0 -238 -59l-24 133q164 64 305 64q171 0 260.5 -96t89.5 -253q0 -142 -65 -263.5t-218 -280.5l-182 -191h518v-139z" />
    <glyph glyph-name="threeoldstyle" unicode="&#xf733;" 
d="M799 166q0 -197 -126 -310.5t-339 -113.5q-128 0 -256 29v125q120 -15 244 -15q139 0 212.5 73.5t73.5 203.5q0 78 -25.5 134.5t-69.5 87t-94.5 44.5t-109.5 14h-94v137h82q139 0 215 74t76 199q0 109 -52 174t-155 65q-118 0 -242 -59l-26 131q166 64 305 64
q166 0 258 -96.5t92 -260.5q0 -123 -65.5 -218t-172.5 -124v-4q122 -19 195.5 -114.5t73.5 -239.5z" />
    <glyph glyph-name="fouroldstyle" unicode="&#xf734;" 
d="M864 113h-151v-349h-166v349h-502v135l430 952h238v-948h151v-139zM547 252v801h-2l-355 -801h357z" />
    <glyph glyph-name="fiveoldstyle" unicode="&#xf735;" 
d="M821 231q0 -230 -124 -359.5t-339 -129.5q-125 0 -264 29v125q114 -15 246 -15q143 0 221 83t78 251q0 147 -69.5 216t-217.5 69q-35 0 -69.5 -2.5t-80 -8t-59.5 -6.5l9 717h585v-145h-436l-6 -422q55 6 131 6q189 0 292 -112.5t103 -295.5z" />
    <glyph glyph-name="sixoldstyle" unicode="&#xf736;" 
d="M850 467q0 -95 -24 -181.5t-70.5 -156t-122 -111t-170.5 -41.5q-103 0 -176 46.5t-115 138.5t-61 214t-19 288q0 103 9 194t29 182t56.5 163t87.5 128t125.5 86.5t167.5 30.5q123 0 226 -45l-29 -123q-95 39 -205 39q-77 0 -135.5 -43.5t-93 -120t-52.5 -170.5t-20 -205
q52 48 121 76.5t141 28.5q90 0 157 -37.5t103 -100t53 -132.5t17 -148zM678 444q0 142 -46.5 225t-148.5 83q-54 0 -116 -28t-107 -71q0 -207 26 -328t71 -166.5t116 -45.5q97 0 151 97.5t54 233.5z" />
    <glyph glyph-name="sevenoldstyle" unicode="&#xf737;" 
d="M834 1057l-312 -953q-54 -165 -176 -364l-119 61q95 189 170 432l254 822h-559v145h742v-143z" />
    <glyph glyph-name="eightoldstyle" unicode="&#xf738;" 
d="M850 356q0 -175 -105.5 -277t-291.5 -102q-181 0 -283 88t-102 257q0 93 33.5 169.5t87 130t137.5 107.5q-110 73 -165 162t-55 209q0 149 95 250.5t270 101.5q163 0 251.5 -93t88.5 -231q0 -119 -56 -210t-171 -168q130 -79 198 -171t68 -223zM645 1110q0 100 -50 157.5
t-136 57.5q-90 0 -138.5 -60.5t-48.5 -154.5q0 -87 44.5 -155t144.5 -134q92 62 138 129t46 160zM682 336q0 100 -56 168.5t-182 146.5q-49 -36 -80 -63.5t-63 -66t-47.5 -83t-15.5 -96.5q0 -115 59.5 -176.5t165.5 -61.5q99 0 159 66.5t60 165.5z" />
    <glyph glyph-name="nineoldstyle" unicode="&#xf739;" 
d="M827 535q0 -137 -15 -252.5t-50 -217.5t-89 -173t-136 -111.5t-187 -40.5q-111 0 -252 31l11 127q129 -23 249 -23q148 0 218 139t83 406q-51 -48 -120.5 -77.5t-139.5 -29.5q-87 0 -152.5 35t-103 96.5t-55.5 135.5t-18 161q0 92 24.5 177t71 154t122 110t169.5 41
q105 0 178.5 -48t114.5 -141.5t59 -214.5t18 -284zM657 545q0 203 -24 323.5t-69 169.5t-118 49q-65 0 -113.5 -48.5t-70.5 -121t-22 -155.5q0 -307 194 -307q54 0 115 24.5t108 65.5z" />
    <glyph glyph-name="uniF639" horiz-adv-x="1024" 
d="M928 717q0 -740 -420 -740q-97 0 -170 36t-118.5 98.5t-73.5 158t-39 202t-11 243.5q0 737 420 737q97 0 170 -36t118.5 -98t73.5 -157.5t39 -201.5t11 -242zM754 705q0 317 -52 463.5t-190 146.5q-135 0 -188.5 -144.5t-53.5 -447.5q0 -317 52 -462.5t190 -145.5
q135 0 188.5 144t53.5 446z" />
    <glyph glyph-name="uniF63A" horiz-adv-x="856" 
d="M786 0h-731v135l224 314q145 203 208.5 350.5t63.5 273.5q0 238 -221 238q-103 0 -228 -54l-24 132q162 63 297 63q177 0 268.5 -94.5t91.5 -267.5q0 -152 -77.5 -319t-227.5 -378l-182 -254h538v-139z" />
    <glyph glyph-name="uniF63B" horiz-adv-x="866" 
d="M770 395q0 -195 -125.5 -306.5t-339.5 -111.5q-139 0 -252 31v123q106 -14 240 -14q139 0 213 71t74 199q0 78 -25.5 134.5t-69.5 87t-94.5 44t-109.5 13.5h-88v135h75q139 0 215 74.5t76 199.5q0 109 -52 174.5t-155 65.5q-117 0 -237 -60l-27 131q164 66 301 66
q166 0 258 -97t92 -261q0 -124 -65 -218.5t-172 -123.5v-4q122 -17 195 -113t73 -240z" />
    <glyph glyph-name="uniF63C" horiz-adv-x="952" 
d="M891 342h-154v-342h-168v342h-522v135l451 953h239v-949h154v-139zM569 481v801h-2l-374 -801h376z" />
    <glyph glyph-name="uniF63D" horiz-adv-x="911" 
d="M834 461q0 -230 -123.5 -357t-337.5 -127q-125 0 -267 29v125q107 -14 246 -14q299 0 299 327q0 147 -69.5 216t-214.5 69q-36 0 -70 -2.5t-80.5 -7.5t-60.5 -6l10 717h582v-146h-433l-8 -424q52 8 131 8q189 0 292.5 -112.5t103.5 -294.5z" />
    <glyph glyph-name="uniF63E" horiz-adv-x="929" 
d="M856 467q0 -95 -24 -181.5t-70.5 -156t-122.5 -111t-172 -41.5q-104 0 -177.5 46.5t-115.5 138.5t-61 214t-19 288q0 88 6 167t21.5 160t39.5 148t62 126t86.5 99.5t115.5 64t148 23.5q121 0 228 -47l-29 -123q-93 41 -209 41q-78 0 -137 -44t-93.5 -121.5t-52.5 -171.5
t-20 -206h2q108 105 262 105q74 0 132.5 -25t95 -66t61 -97t34 -112.5t9.5 -117.5zM686 444q0 141 -47.5 223.5t-149.5 82.5q-56 0 -118.5 -27t-108.5 -70q0 -207 26 -328t71.5 -166.5t117.5 -45.5q67 0 116 48.5t71 122t22 160.5z" />
    <glyph glyph-name="uniF63F" horiz-adv-x="868" 
d="M797 1286l-312 -952q-67 -196 -176 -359l-121 64q90 159 170 424l256 821h-561v146h744v-144z" />
    <glyph glyph-name="uniF640" horiz-adv-x="956" 
d="M872 356q0 -175 -106.5 -277t-294.5 -102q-183 0 -286 88t-103 257q0 136 65.5 230.5t192.5 176.5q-110 72 -163.5 161.5t-53.5 209.5q0 149 94.5 250.5t269.5 101.5q165 0 254.5 -93t89.5 -231q0 -119 -56.5 -210.5t-172.5 -167.5q87 -53 143 -105t91.5 -125.5
t35.5 -163.5zM666 1110q0 100 -50.5 157.5t-138.5 57.5q-91 0 -139.5 -60.5t-48.5 -154.5q0 -88 44 -154.5t146 -132.5q93 63 140 129t47 158zM700 336q0 100 -55.5 169t-181.5 146q-50 -36 -81.5 -63.5t-64 -66t-48 -83t-15.5 -96.5q0 -116 59.5 -177t167.5 -61
q100 0 159.5 66t59.5 166z" />
    <glyph glyph-name="uniF641" horiz-adv-x="931" 
d="M834 766q0 -173 -25 -311t-79.5 -248t-149.5 -170t-226 -60q-132 0 -256 37l11 127q112 -28 253 -28q150 0 220.5 136t83.5 402q-50 -50 -120 -78t-143 -28q-88 0 -154 35t-103.5 96t-55.5 134.5t-18 160.5q0 92 24.5 176.5t71 153.5t122.5 110t171 41q85 0 149.5 -32
t106.5 -89t68.5 -144t37.5 -189t11 -232zM664 776q0 203 -24 323t-69.5 169t-119.5 49q-66 0 -115 -49t-71.5 -121.5t-22.5 -155.5q0 -305 196 -305q56 0 117.5 24.5t108.5 65.5z" />
    <glyph glyph-name="Ring" horiz-adv-x="1093" 
d="M727 1649q0 -84 -49.5 -136.5t-138.5 -52.5q-91 0 -136 49t-45 131q0 86 49 136.5t140 50.5q88 0 134 -47.5t46 -130.5zM618 1642q0 46 -20 74.5t-57 28.5q-34 0 -54 -26.5t-20 -73.5q0 -103 78 -103q35 0 54 27.5t19 72.5z" />
    </font>
</defs>
</svg>
