<?xml version="1.0" standalone="no"?>
<!DOCTYPE svg PUBLIC "-//W3C//DTD SVG 1.1//EN" "http://www.w3.org/Graphics/SVG/1.1/DTD/svg11.dtd" >
<svg xmlns="http://www.w3.org/2000/svg" xmlns:xlink="http://www.w3.org/1999/xlink" version="1.1">
<metadata>
Created by FontForge 20170731 at Tue Jan  3 11:33:25 2023
 By Aleksey,,,
Copyright [c] 1997, 2003 Luc[as] de Groot, published by LucasFonts. www.LucasFonts.com
</metadata>
<defs>
<font id="CorpidCd-BoldItalic" horiz-adv-x="921" >
  <font-face 
    font-family="Corpid Cd"
    font-weight="700"
    font-style="italic"
    font-stretch="normal"
    units-per-em="2048"
    panose-1="2 11 8 6 4 5 2 9 2 4"
    ascent="1638"
    descent="-410"
    x-height="1051"
    cap-height="1430"
    bbox="-248 -453 1831 1831"
    underline-thickness="172"
    underline-position="-538"
    slope="-9"
    unicode-range="U+000D-F739"
  />
<missing-glyph horiz-adv-x="1126" 
d="M205 205h717v717h-717v-717zM717 717h-205v102h307v-512h-102v205h-205v102h205v103zM1024 102h-922v922h922v-922zM614 307h-307v512h103v-409h204v-103z" />
    <glyph glyph-name="fi" unicode="fi" horiz-adv-x="1001" 
d="M1038 1376q0 -67 -40 -110t-101 -43q-60 0 -96.5 39t-36.5 96q0 68 40.5 110.5t102.5 42.5q59 0 95 -39t36 -96zM969 1051l-168 -1051h-223l137 872h-297l-148 -925q-30 -189 -108 -288t-230 -99q-82 0 -129 14l27 166h61q33 0 58 11.5t40.5 29.5t27.5 49t18.5 59.5
t13.5 71.5l144 911h-117l28 179h117l19 118q15 93 39.5 161.5t64 121.5t98 80t136.5 27t131 -17l-25 -164h-66q-33 0 -58 -12t-40.5 -30t-27.5 -49.5t-18 -59.5t-13 -72l-15 -104h523z" />
    <glyph glyph-name="fl" unicode="fl" horiz-adv-x="1026" 
d="M1038 1522l-196 -1248q-10 -56 -0.5 -81t45.5 -25h53l-27 -170q-70 -16 -141 -16q-96 0 -141 55t-23 186l180 1141q-79 14 -135 14q-91 0 -134 -59.5t-58 -169.5l-15 -98h160l-28 -179h-160l-148 -925q-30 -189 -108 -288t-230 -99q-82 0 -129 14l27 166h61q33 0 58 11.5
t40.5 29.5t27.5 49t18.5 59.5t13.5 71.5l144 911h-117l28 179h117l17 100q15 100 44.5 172t81 126.5t131.5 82t191 27.5q160 0 352 -37z" />
    <glyph glyph-name=".notdef" horiz-adv-x="1126" 
d="M205 205h717v717h-717v-717zM717 717h-205v102h307v-512h-102v205h-205v102h205v103zM1024 102h-922v922h922v-922zM614 307h-307v512h103v-409h204v-103z" />
    <glyph glyph-name=".null" horiz-adv-x="0" 
 />
    <glyph glyph-name=".null" horiz-adv-x="0" 
 />
    <glyph glyph-name="nonmarkingreturn" horiz-adv-x="682" 
 />
    <glyph glyph-name="CR" unicode="&#xd;" horiz-adv-x="0" 
 />
    <glyph glyph-name="space" unicode=" " horiz-adv-x="442" 
 />
    <glyph glyph-name="space" unicode="&#xa0;" horiz-adv-x="442" 
 />
    <glyph glyph-name="exclam" unicode="!" horiz-adv-x="577" 
d="M596 1536l-207 -1135h-192l151 1135h248zM387 135q0 -69 -41.5 -113.5t-101.5 -44.5q-58 0 -95.5 40t-37.5 96q0 70 41.5 113.5t101.5 43.5q58 0 95.5 -39.5t37.5 -95.5z" />
    <glyph glyph-name="quotedbl" unicode="&#x22;" horiz-adv-x="757" 
d="M807 1536l-113 -567h-164l68 567h209zM465 1536l-115 -567h-162l66 567h211z" />
    <glyph glyph-name="numbersign" unicode="#" 
d="M903 891h-131l-51 -330h113v-160h-140l-63 -401h-172l65 401h-182l-66 -401h-170l64 401h-109v160h136l51 330h-117v160h143l60 379h172l-62 -379h183l61 379h170l-59 -379h104v-160zM602 891h-182l-53 -330h182z" />
    <glyph glyph-name="dollar" unicode="$" 
d="M868 1284l-65 -176q-100 49 -209 49q-90 0 -139 -52t-49 -128q0 -60 33.5 -102t129.5 -93q123 -64 180.5 -145.5t57.5 -196.5q0 -158 -95.5 -270t-248.5 -150l-39 -258h-174l37 240q-149 3 -271 61l64 191q121 -64 256 -64q94 0 158.5 55.5t64.5 153.5q0 67 -38.5 111.5
t-145.5 103.5q-111 59 -164 135.5t-53 188.5q0 150 93 258.5t247 134.5l34 215h175l-35 -209q111 -9 196 -53z" />
    <glyph glyph-name="percent" unicode="%" horiz-adv-x="1325" 
d="M690 1200q0 -48 -8 -104t-32 -124.5t-59.5 -122.5t-98 -91t-140.5 -37q-225 0 -225 252q0 48 7 102.5t29.5 124.5t57.5 124t98.5 92t145.5 38q225 0 225 -254zM1266 1407l-1063 -1473l-115 89l1065 1472zM1239 455q0 -48 -7 -102t-29.5 -124t-57.5 -124t-98.5 -92
t-145.5 -38q-225 0 -225 252q0 39 6 85t19.5 102.5t39.5 107t61 93.5t90 68.5t122 25.5q225 0 225 -254zM518 1212q0 59 -18 82t-54 23q-41 0 -72.5 -44t-46 -107.5t-21.5 -116t-7 -88.5q0 -59 18 -82t54 -23q41 0 72.5 44t46 107.5t21.5 116t7 88.5zM1065 469
q0 59 -17 81.5t-53 22.5q-41 0 -72.5 -44t-46 -107.5t-21.5 -116t-7 -88.5q0 -58 18 -81t54 -23q41 0 72 44t45.5 108t21 116t6.5 88z" />
    <glyph glyph-name="ampersand" unicode="&#x26;" horiz-adv-x="1187" 
d="M1096 797q-46 -295 -176 -500q113 -117 165 -166l-141 -158q-19 19 -53 53.5t-60 62t-49 52.5q-176 -168 -391 -168q-165 0 -257.5 88t-92.5 236q0 272 272 467q-71 161 -71 295q0 173 96.5 285t271.5 112q126 0 201.5 -66t75.5 -178q0 -145 -77.5 -253.5t-240.5 -223.5
q93 -160 215 -299q79 147 115 361h197zM684 1186q0 47 -23 76.5t-71 29.5q-62 0 -100.5 -61t-38.5 -154q0 -88 41 -190q97 71 144.5 141.5t47.5 157.5zM659 270q-159 183 -249 332q-142 -123 -142 -276q0 -82 43.5 -127t124.5 -45q61 0 119.5 32t103.5 84z" />
    <glyph glyph-name="quotesingle" unicode="'" horiz-adv-x="421" 
d="M471 1536l-115 -567h-168l66 567h217z" />
    <glyph glyph-name="parenleft" unicode="(" horiz-adv-x="561" 
d="M616 1518q-173 -359 -254 -715t-81 -680q0 -239 43 -461l-183 -63q-80 291 -80 596q0 317 93 682t299 714z" />
    <glyph glyph-name="parenright" unicode=")" horiz-adv-x="561" 
d="M506 995q0 -317 -92.5 -682t-298.5 -714l-166 73q173 359 254.5 715.5t81.5 679.5q0 239 -43 461l182 63q82 -288 82 -596z" />
    <glyph glyph-name="asterisk" unicode="*" 
d="M936 1257l-270 -112l235 -119l-125 -160l-182 185l-6 -297h-199l90 295l-237 -183l-76 168l270 113l-235 117l123 161l186 -184l4 295h197l-90 -295l239 184z" />
    <glyph glyph-name="plus" unicode="+" 
d="M879 727l-29 -182h-299l-57 -367h-193l57 367h-299l29 182h299l59 369h193l-59 -369h299z" />
    <glyph glyph-name="comma" unicode="," horiz-adv-x="460" 
d="M295 133q0 -100 -76 -224t-231 -251l-82 92q84 89 115.5 144.5t31.5 101.5q0 20 -15 58t-15 75q0 62 38.5 108t100.5 46q63 0 98 -41t35 -109z" />
    <glyph glyph-name="hyphen" unicode="-" horiz-adv-x="491" 
d="M498 672l-31 -193h-424l31 193h424z" />
    <glyph glyph-name="hyphen" unicode="&#xad;" horiz-adv-x="491" 
d="M498 672l-31 -193h-424l31 193h424z" />
    <glyph glyph-name="period" unicode="." horiz-adv-x="460" 
d="M301 141q0 -68 -43 -112.5t-104 -44.5q-59 0 -97.5 41t-38.5 100q0 69 42.5 113.5t105.5 44.5q59 0 97 -41t38 -101z" />
    <glyph glyph-name="slash" unicode="/" horiz-adv-x="770" 
d="M901 1567l-835 -1893l-191 80l836 1891z" />
    <glyph glyph-name="zero" unicode="0" 
d="M930 1036q0 -139 -35 -352q-28 -172 -70 -300t-103.5 -222t-147 -141.5t-195.5 -47.5q-191 0 -267.5 103.5t-76.5 316.5q0 139 35 352q58 351 181 531t337 180q190 0 266 -104t76 -316zM702 1055q0 119 -30.5 165t-102.5 46q-94 0 -157.5 -127.5t-108.5 -419.5
q-39 -236 -39 -344q0 -119 30 -165t101 -46q95 0 158.5 127t110.5 420q38 230 38 344z" />
    <glyph glyph-name="one" unicode="1" 
d="M772 188l-29 -188h-698l31 188h246l157 1002l-231 -152l-41 148l342 248h209l-199 -1246h213z" />
    <glyph glyph-name="two" unicode="2" 
d="M889 1141q0 -153 -90 -330t-303 -412l-183 -204h475l-30 -195h-774l28 180l262 299q347 389 347 621q0 74 -41 115.5t-123 41.5q-98 0 -221 -55l-17 187q95 35 167.5 51t158.5 16q163 0 253.5 -82.5t90.5 -232.5z" />
    <glyph glyph-name="three" unicode="3" 
d="M879 1151q0 -146 -81.5 -258t-207.5 -148v-4q99 -17 155 -90.5t56 -183.5q0 -38 -6.5 -79t-24 -90.5t-44 -94t-71 -87.5t-100.5 -74t-136 -50t-175 -19q-150 0 -269 31l27 174q118 -14 221 -14q70 0 124.5 20.5t87 51t53.5 71.5t28.5 77.5t7.5 72.5q0 96 -61.5 140
t-165.5 44h-98l28 182h84q80 0 141.5 27.5t95 72.5t50 93.5t16.5 97.5q0 152 -155 152q-101 0 -234 -62l-14 180q184 72 336 72q159 0 245.5 -80t86.5 -225z" />
    <glyph glyph-name="four" unicode="4" 
d="M868 518l-28 -192h-131l-54 -326h-231l53 326h-483l31 190l522 914h336l-144 -912h129zM616 1223l-401 -705h293l113 705h-5z" />
    <glyph glyph-name="five" unicode="5" 
d="M897 1430l-33 -203h-428l-63 -357q68 7 104 7q175 0 263.5 -85.5t88.5 -244.5q0 -85 -20.5 -166t-64.5 -155.5t-106.5 -130t-154 -89t-200.5 -33.5q-152 0 -291 29l28 176q122 -16 234 -16q74 0 132.5 25t92 62.5t55.5 87.5t29.5 94t7.5 87q0 87 -51 129.5t-158 42.5
q-89 0 -225 -20l131 760h629z" />
    <glyph glyph-name="six" unicode="6" 
d="M926 1407l-54 -168q-90 41 -198 41q-66 0 -124 -39t-99 -106t-70 -148t-45 -174v-4q118 96 248 96t202 -83.5t72 -239.5q0 -71 -15 -148.5t-52 -161t-90.5 -149t-138.5 -108t-189 -42.5q-164 0 -240 102.5t-76 307.5q0 53 5 124t22 177t43.5 207t75 206t110.5 182.5
t156 127t207 49.5q139 0 250 -49zM623 569q0 150 -117 150q-43 0 -98 -22.5t-99 -57.5q-28 -181 -28 -287t30 -150t90 -44q52 0 96 46t70.5 112.5t41 134t14.5 118.5z" />
    <glyph glyph-name="seven" unicode="7" 
d="M985 1430l-33 -203l-430 -881q-99 -197 -250 -375l-172 95q137 195 246 432l334 729h-502l33 203h774z" />
    <glyph glyph-name="eight" unicode="8" 
d="M928 1186q0 -257 -266 -438q90 -69 134 -142t44 -174q0 -60 -13.5 -120t-48.5 -122.5t-87 -109.5t-136.5 -77t-189.5 -30q-172 0 -266.5 72.5t-94.5 216.5q0 282 305 469q-72 62 -111.5 131.5t-39.5 165.5q0 186 115.5 307t326.5 121q160 0 244 -75.5t84 -194.5z
M694 1153q0 60 -32.5 93.5t-90.5 33.5q-85 0 -132.5 -67t-47.5 -156q0 -111 117 -201q186 140 186 297zM600 391q0 63 -33.5 113t-111.5 110q-103 -73 -158 -147.5t-55 -173.5q0 -71 39 -107t112 -36q93 0 150 73t57 168z" />
    <glyph glyph-name="nine" unicode="9" 
d="M905 1049q0 -55 -5 -126t-21.5 -178t-43 -208t-75 -205.5t-111 -182t-157.5 -127t-209 -49.5q-144 0 -281 35l35 172q127 -26 250 -26q246 0 340 467v2q-116 -97 -248 -97q-139 0 -207 87.5t-68 234.5q0 60 11 124.5t34 134t62.5 131t91 111t125 78.5t160.5 29
q165 0 241 -102.5t76 -304.5zM680 1079q0 104 -30 148.5t-91 44.5q-53 0 -97 -45.5t-69.5 -112.5t-39 -133t-13.5 -117q0 -153 117 -153q44 0 96.5 22t95.5 58q31 200 31 288z" />
    <glyph glyph-name="colon" unicode=":" horiz-adv-x="491" 
d="M451 893q0 -69 -42.5 -113.5t-105.5 -44.5q-59 0 -96 41t-37 101q0 69 42 113t105 44q58 0 96 -41t38 -100zM332 141q0 -68 -43 -112.5t-105 -44.5q-59 0 -96 40.5t-37 100.5q0 69 42.5 113.5t105.5 44.5q58 0 95.5 -41.5t37.5 -100.5z" />
    <glyph glyph-name="semicolon" unicode=";" horiz-adv-x="491" 
d="M451 893q0 -69 -42.5 -113.5t-105.5 -44.5q-59 0 -96 41t-37 101q0 69 42 113t105 44q58 0 96 -41t38 -100zM328 133q0 -100 -76.5 -224t-231.5 -251l-83 92q85 89 117 144.5t32 101.5q0 20 -16.5 58t-16.5 75q0 62 39.5 108t102.5 46t98 -41t35 -109z" />
    <glyph glyph-name="semicolon" unicode="&#x37e;" horiz-adv-x="491" 
d="M451 893q0 -69 -42.5 -113.5t-105.5 -44.5q-59 0 -96 41t-37 101q0 69 42 113t105 44q58 0 96 -41t38 -100zM328 133q0 -100 -76.5 -224t-231.5 -251l-83 92q85 89 117 144.5t32 101.5q0 20 -16.5 58t-16.5 75q0 62 39.5 108t102.5 46t98 -41t35 -109z" />
    <glyph glyph-name="less" unicode="&#x3c;" 
d="M913 1190l-34 -227l-609 -332l502 -336l-33 -211l-665 459l30 188z" />
    <glyph glyph-name="equal" unicode="=" 
d="M887 944l-29 -180h-737l29 180h737zM817 510l-29 -180h-735l27 180h737z" />
    <glyph glyph-name="greater" unicode="&#x3e;" 
d="M866 731l-30 -190l-809 -457l34 225l609 334l-504 334l35 213z" />
    <glyph glyph-name="question" unicode="?" horiz-adv-x="755" 
d="M791 1266q0 -76 -20 -145t-52 -124t-71.5 -107.5t-80.5 -106t-76 -108.5t-60 -126t-32 -148h-198q3 90 23.5 169.5t51 138t66.5 111t72 99.5t65.5 92.5t47.5 100t18 113.5q0 68 -37.5 104.5t-122.5 36.5q-77 0 -166 -14l27 174q105 30 203 30q173 0 257.5 -76.5
t84.5 -213.5zM401 135q0 -69 -42.5 -113.5t-102.5 -44.5q-57 0 -94 40t-37 96q0 71 41 114t102 43q58 0 95.5 -39.5t37.5 -95.5z" />
    <glyph glyph-name="at" unicode="@" horiz-adv-x="1411" 
d="M1341 1130q0 -42 -10 -100l-110 -702h-170l10 149q-38 -79 -115 -127.5t-164 -48.5q-110 0 -177.5 69t-67.5 185q0 57 12 110t43 106.5t79.5 92.5t128.5 63.5t183 24.5h119l12 90q8 54 8 76q0 80 -46.5 123t-157.5 43q-109 0 -208 -50.5t-172.5 -137t-128 -197.5
t-82.5 -236t-28 -249q0 -231 112 -368.5t320 -137.5q190 0 381 102l41 -160q-213 -118 -453 -118q-280 0 -439 179t-159 480q0 204 62.5 397t171 341.5t268 238.5t340.5 90q201 0 299 -86t98 -242zM1077 801h-98q-110 0 -166.5 -59t-56.5 -162q0 -49 23 -78t69 -29
q78 0 139 71.5t78 180.5z" />
    <glyph glyph-name="A" unicode="A" horiz-adv-x="1105" 
d="M983 0h-254q-2 116 -18 352h-402q-15 -43 -60.5 -166.5t-66.5 -185.5h-243q287 769 600 1430h295q103 -682 149 -1430zM705 539q-22 295 -64 653h-2q-162 -377 -266 -653h332z" />
    <glyph glyph-name="B" unicode="B" horiz-adv-x="983" 
d="M940 1145q0 -131 -59 -233.5t-150 -145.5q79 -22 125.5 -94t46.5 -178q0 -72 -17.5 -141t-57 -133.5t-96.5 -113t-143.5 -77.5t-191.5 -29h-370l227 1430h342q160 0 252 -72t92 -213zM702 1104q0 145 -135 145h-112l-66 -422h121q63 0 108 44t64.5 104.5t19.5 128.5z
M659 483q0 168 -165 168h-134l-73 -465h151q102 0 161.5 87t59.5 210z" />
    <glyph glyph-name="C" unicode="C" horiz-adv-x="911" 
d="M997 1376l-90 -184q-80 57 -184 57q-91 0 -163.5 -58.5t-115 -144t-71 -191.5t-39 -191.5t-10.5 -153.5q0 -328 237 -328q95 0 205 60l39 -187q-61 -35 -141.5 -56.5t-161.5 -21.5q-208 0 -318 128.5t-110 379.5q0 82 10 169.5t33.5 182.5t58 182.5t87.5 167t118.5 138
t155 93t192.5 34.5q158 0 268 -76z" />
    <glyph glyph-name="D" unicode="D" horiz-adv-x="1132" 
d="M1104 911q0 -64 -7.5 -135.5t-28.5 -162t-53.5 -174t-88 -165t-126 -141t-173.5 -96.5t-226 -37h-374l227 1430h377q228 0 350.5 -133.5t122.5 -385.5zM860 913q0 152 -63 239t-199 87h-139l-166 -1049h133q75 0 138 29.5t106.5 77.5t78 113t55 132t33.5 138.5t18 127.5
t5 105z" />
    <glyph glyph-name="E" unicode="E" horiz-adv-x="878" 
d="M920 1430l-31 -191h-432l-64 -403h371l-31 -187h-371l-71 -459h436l-29 -190h-671l227 1430h666z" />
    <glyph glyph-name="F" unicode="F" horiz-adv-x="804" 
d="M881 1430l-31 -191h-391l-68 -432h346l-28 -189h-349l-98 -618h-235l227 1430h627z" />
    <glyph glyph-name="G" unicode="G" horiz-adv-x="1114" 
d="M1126 1341l-90 -184q-135 96 -280 96q-72 0 -133.5 -29t-105.5 -77.5t-79 -113.5t-57 -133.5t-36.5 -142t-20 -135.5t-5.5 -116q0 -161 63 -245.5t185 -84.5q71 0 144 25l88 559h233l-110 -709q-168 -76 -377 -76q-231 0 -351 133.5t-120 391.5q0 85 10.5 173.5
t35.5 182.5t62 179.5t93 162.5t125.5 132.5t164 88.5t203.5 33q198 0 358 -111z" />
    <glyph glyph-name="H" unicode="H" horiz-adv-x="1130" 
d="M1147 1430l-227 -1430h-236l100 637h-422l-100 -637h-235l227 1430h235l-92 -584h420l94 584h236z" />
    <glyph glyph-name="I" unicode="I" horiz-adv-x="477" 
d="M489 1430l-227 -1430h-235l227 1430h235z" />
    <glyph glyph-name="J" unicode="J" horiz-adv-x="579" 
d="M594 1430l-162 -1020q-36 -215 -122 -318.5t-240 -103.5q-81 0 -136 16l29 189h88q58 0 92 47.5t54 169.5l163 1020h234z" />
    <glyph glyph-name="K" unicode="K" horiz-adv-x="1026" 
d="M1135 1430l-498 -584l272 -846h-262l-201 668l-94 -109l-90 -559h-235l227 1430h235l-92 -584l455 584h283z" />
    <glyph glyph-name="L" unicode="L" horiz-adv-x="751" 
d="M670 195l-31 -195h-612l227 1430h235l-196 -1235h377z" />
    <glyph glyph-name="M" unicode="M" horiz-adv-x="1536" 
d="M1497 1430q-50 -719 -158 -1430h-233q101 662 141 1169h-2l-459 -1169h-243l-86 1169h-2q-143 -633 -228 -1169h-215q120 727 301 1430h342l80 -1065h2l414 1065h346z" />
    <glyph glyph-name="N" unicode="N" horiz-adv-x="1179" 
d="M1194 1430l-227 -1430h-314l-241 1104h-2l-177 -1104h-206l227 1430h326l233 -1082h2l172 1082h207z" />
    <glyph glyph-name="O" unicode="O" horiz-adv-x="1214" 
d="M1182 936q0 -82 -9.5 -168.5t-32.5 -182t-57.5 -182t-88.5 -166t-121 -137.5t-159.5 -92.5t-199.5 -34.5q-215 0 -327.5 134t-112.5 387q0 78 9.5 162.5t32 179.5t56.5 182t88 168t121 140t160 94.5t202 35.5q212 0 325.5 -134t113.5 -386zM938 938q0 151 -55 235
t-168 84q-87 0 -158.5 -60t-114 -148.5t-72 -197.5t-40.5 -199t-11 -160q0 -320 224 -320q84 0 153.5 57t113 143t73.5 192.5t42.5 201t12.5 172.5z" />
    <glyph glyph-name="P" unicode="P" horiz-adv-x="958" 
d="M975 1079q0 -55 -10 -113t-32 -122.5t-62 -120.5t-94.5 -102t-135 -72.5t-178.5 -26.5h-119l-82 -522h-235l227 1430h332q82 0 153 -19q112 -27 174 -111.5t62 -220.5zM727 1069q0 124 -78 158q-32 14 -80 14h-110l-84 -530h117q52 0 94 26t67.5 65.5t43 89.5t24 94
t6.5 83z" />
    <glyph glyph-name="Q" unicode="Q" horiz-adv-x="1214" 
d="M1182 936q0 -219 -63 -422.5t-161 -323.5l158 -225l-141 -117l-154 224q-132 -99 -307 -99q-215 0 -327.5 134t-112.5 387q0 78 9.5 162.5t32 179.5t56.5 182t88 168t121 140t160 94.5t202 35.5q212 0 325.5 -134t113.5 -386zM938 938q0 151 -55 235t-168 84
q-87 0 -158.5 -60t-114 -148.5t-72 -197.5t-40.5 -199t-11 -160q0 -320 224 -320q88 0 159 68l-157 227l141 117l131 -191q41 74 81 231t40 314z" />
    <glyph glyph-name="R" unicode="R" horiz-adv-x="974" 
d="M971 1112q0 -92 -29 -178.5t-95.5 -161.5t-160.5 -108l172 -664h-256l-135 610h-109l-96 -610h-235l227 1430h354q172 0 267.5 -82t95.5 -236zM721 1083q0 71 -35.5 114.5t-116.5 43.5h-110l-72 -446h96q63 0 111.5 28.5t74.5 73.5t39 92.5t13 93.5z" />
    <glyph glyph-name="S" unicode="S" horiz-adv-x="839" 
d="M842 1413l-54 -190q-87 43 -188 43t-152 -63t-51 -156q0 -63 37 -117t127 -125q199 -158 199 -352q0 -68 -18 -134t-57.5 -129t-97 -111t-143.5 -77t-190 -29q-136 0 -266 47l49 199q107 -47 225 -47q122 0 185 69.5t63 172.5q0 63 -37 117t-135 133q-191 157 -191 346
q0 88 29.5 167.5t85.5 142t144.5 99.5t197.5 37q141 0 238 -43z" />
    <glyph glyph-name="T" unicode="T" horiz-adv-x="868" 
d="M989 1430l-33 -197h-301l-194 -1233h-238l197 1233h-299l31 197h837z" />
    <glyph glyph-name="U" unicode="U" horiz-adv-x="1157" 
d="M1174 1430l-148 -932q-41 -262 -182.5 -392.5t-354.5 -130.5q-467 0 -380 545l143 910h237l-147 -926q-27 -166 18 -249t152 -83q108 0 183.5 86t103.5 260l145 912h230z" />
    <glyph glyph-name="V" unicode="V" horiz-adv-x="1073" 
d="M1196 1430q-282 -752 -602 -1430h-289q-116 711 -151 1430h252q11 -535 90 -1176h4q259 610 446 1176h250z" />
    <glyph glyph-name="W" unicode="W" horiz-adv-x="1640" 
d="M1731 1430q-208 -690 -494 -1430h-313l-23 1092h-4l-360 -1092h-320q-53 774 -33 1430h254q-26 -549 -2 -1164h2l391 1164h267l30 -1164h2q222 629 365 1164h238z" />
    <glyph glyph-name="X" unicode="X" horiz-adv-x="1032" 
d="M1120 1430l-415 -682l223 -748h-275l-141 565l-315 -565h-277l461 741l-201 689h266l125 -508l283 508h266z" />
    <glyph glyph-name="Y" unicode="Y" horiz-adv-x="960" 
d="M1090 1430q-255 -488 -486 -818l-98 -612h-236l97 612q-134 366 -228 818h256q39 -281 135 -590q172 279 310 590h250z" />
    <glyph glyph-name="Z" unicode="Z" horiz-adv-x="851" 
d="M926 1430l-31 -189l-647 -1048h493l-30 -193h-760l31 188l643 1049h-457l31 193h727z" />
    <glyph glyph-name="bracketleft" unicode="[" horiz-adv-x="579" 
d="M653 1559l-26 -168h-158l-252 -1586h158l-27 -167h-366l305 1921h366z" />
    <glyph glyph-name="backslash" unicode="\" horiz-adv-x="770" 
d="M629 -287l-213 -39l-234 1932l215 39z" />
    <glyph glyph-name="bracketright" unicode="]" horiz-adv-x="579" 
d="M602 1559l-305 -1921h-367l27 167h158l252 1586h-158l27 168h366z" />
    <glyph glyph-name="asciicircum" unicode="^" 
d="M885 725h-223l-87 528l-243 -528h-232l363 705h276z" />
    <glyph glyph-name="underscore" unicode="_" 
d="M786 -281l-28 -172h-922l29 172h921z" />
    <glyph glyph-name="grave" unicode="`" horiz-adv-x="485" 
d="M485 1266l-114 -76l-242 276l166 107z" />
    <glyph glyph-name="a" unicode="a" horiz-adv-x="960" 
d="M922 1006l-160 -1006h-172l16 213q-51 -109 -131 -174.5t-174 -65.5q-134 0 -199 96.5t-65 258.5q0 81 11.5 162.5t35.5 167t66 158.5t98.5 131t138 91t178.5 33q179 0 357 -65zM672 854q-57 31 -129 31t-128 -56t-86 -143.5t-44.5 -175.5t-14.5 -168q0 -178 99 -178
q54 0 110.5 68t96.5 170.5t57 209.5z" />
    <glyph glyph-name="b" unicode="b" horiz-adv-x="960" 
d="M907 723q0 -81 -11.5 -162.5t-35.5 -167t-66 -158.5t-98.5 -131t-138 -91t-178.5 -33q-189 0 -356 67l237 1489h225l-73 -457q-17 -102 -43 -219q42 95 115.5 156t162.5 61q131 0 195.5 -96t64.5 -258zM674 709q0 178 -99 178q-54 0 -110.5 -68t-97 -170.5t-58.5 -210.5
l-37 -239q53 -33 129 -33q72 0 128 56t86 143.5t44.5 175.5t14.5 168z" />
    <glyph glyph-name="c" unicode="c" horiz-adv-x="718" 
d="M743 1022l-65 -176q-70 41 -141 41q-60 0 -109 -40t-77.5 -99t-47.5 -132t-26 -132.5t-7 -106.5q0 -207 152 -207q86 0 162 43l18 -178q-111 -58 -246 -58q-159 0 -238 96t-79 277q0 69 9.5 142.5t31 157.5t60.5 157.5t91.5 134t132 96t175.5 35.5q125 0 204 -51z" />
    <glyph glyph-name="d" unicode="d" horiz-adv-x="960" 
d="M1006 1536l-244 -1536h-172l16 213q-51 -109 -131 -174.5t-174 -65.5q-134 0 -199 96.5t-65 258.5q0 68 8 137.5t26 142.5t45 139t68.5 124.5t92.5 101t120.5 67.5t149.5 25q98 0 155 -14l78 485h226zM672 854q-57 31 -129 31t-128 -56t-86 -143.5t-44.5 -175.5
t-14.5 -168q0 -178 99 -178q54 0 110.5 68t96.5 170.5t57 209.5z" />
    <glyph glyph-name="e" unicode="e" horiz-adv-x="897" 
d="M844 819q0 -364 -572 -364q-8 -49 -8 -103q0 -99 40 -147.5t134 -48.5q124 0 275 51l8 -174q-165 -60 -334 -60q-350 0 -350 371q0 47 4.5 100.5t18.5 127t36 141t61.5 135.5t90.5 117.5t127.5 80.5t167.5 31q143 0 222 -69t79 -189zM623 803q0 53 -29.5 80.5t-77.5 27.5
q-87 0 -141.5 -82.5t-79.5 -218.5q178 0 253 48.5t75 144.5z" />
    <glyph glyph-name="f" unicode="f" horiz-adv-x="567" 
d="M715 1542l-25 -164h-72q-33 0 -58 -12t-40.5 -30t-27.5 -49.5t-18 -59.5t-13 -72l-15 -104h168l-28 -179h-168l-148 -925q-30 -189 -108 -288t-230 -99q-82 0 -129 14l27 166h61q33 0 58 11.5t40.5 29.5t27.5 49t18.5 59.5t13.5 71.5l144 911h-117l28 179h117l19 118
q15 93 39.5 161.5t64 121.5t98 80t136.5 27q67 0 137 -17z" />
    <glyph glyph-name="g" unicode="g" horiz-adv-x="960" 
d="M922 1006l-156 -975q-39 -252 -153.5 -361.5t-327.5 -109.5q-150 0 -267 24l33 168q101 -8 225 -8q123 0 180 55t81 207q24 123 43 199q-44 -95 -117.5 -155t-163.5 -60q-130 0 -195 95.5t-65 258.5q0 77 11.5 156t35 162.5t65.5 155.5t98 129.5t137.5 90.5t178.5 33
q186 0 357 -65zM672 854q-57 31 -129 31t-128 -56t-85 -141.5t-43.5 -170t-14.5 -159.5q0 -178 99 -178q54 0 110 64.5t96.5 164.5t57.5 207z" />
    <glyph glyph-name="h" unicode="h" horiz-adv-x="966" 
d="M887 788q0 -54 -15 -153l-100 -635h-225l98 623q14 96 14 133q0 131 -84 131q-53 0 -109.5 -67t-97.5 -170t-59 -212l-67 -438h-226l244 1536h225l-75 -461q-12 -86 -48 -221q52 101 128.5 162t164.5 61q114 0 173 -74.5t59 -214.5z" />
    <glyph glyph-name="i" unicode="i" horiz-adv-x="479" 
d="M516 1376q0 -67 -39.5 -110t-101.5 -43q-60 0 -96.5 39t-36.5 96q0 68 40.5 110.5t102.5 42.5q59 0 95 -39t36 -96zM446 1051l-167 -1051h-224l138 872h-117l28 179h342z" />
    <glyph glyph-name="j" unicode="j" horiz-adv-x="450" 
d="M494 1376q0 -67 -41 -110t-103 -43q-59 0 -95 39t-36 96q0 69 40 111t103 42q59 0 95.5 -39t36.5 -96zM418 1051l-172 -1086q-34 -218 -116.5 -311.5t-223.5 -93.5q-55 0 -123 14l33 172h75q47 0 78 47t49 156l175 1102h225z" />
    <glyph glyph-name="k" unicode="k" horiz-adv-x="894" 
d="M932 1051l-359 -379l218 -672h-256l-156 496l-72 -80l-67 -416h-224l244 1536h223l-137 -870l318 385h268z" />
    <glyph glyph-name="l" unicode="l" horiz-adv-x="471" 
d="M483 1536l-198 -1262q-10 -56 -0.5 -81t45.5 -25h53l-27 -170q-70 -16 -141 -16q-96 0 -141 55t-23 186l209 1313h223z" />
    <glyph glyph-name="m" unicode="m" horiz-adv-x="1464" 
d="M1384 788q0 -47 -16 -153l-100 -635h-224l99 623q14 93 14 133q0 66 -18 98.5t-58 32.5q-51 0 -105.5 -67t-94.5 -170t-58 -212l-69 -438h-224l99 623q14 93 14 133q0 67 -17.5 99t-58.5 32q-51 0 -105.5 -67t-94.5 -170t-58 -212l-67 -438h-226l166 1051h172l-12 -213
q51 105 131 172t176 67q99 0 151.5 -64.5t55.5 -174.5q49 105 129 172t176 67q110 0 166.5 -74.5t56.5 -214.5z" />
    <glyph glyph-name="n" unicode="n" horiz-adv-x="966" 
d="M887 788q0 -54 -15 -153l-100 -635h-225l98 623q14 96 14 133q0 131 -84 131q-53 0 -109.5 -67t-97.5 -170t-59 -212l-67 -438h-226l166 1051h172l-12 -213q51 105 132.5 172t180.5 67q114 0 173 -74.5t59 -214.5z" />
    <glyph glyph-name="o" unicode="o" horiz-adv-x="954" 
d="M897 682q0 -64 -9.5 -133.5t-30 -152.5t-60 -156t-93.5 -134t-136.5 -97t-182.5 -36q-170 0 -258 101.5t-88 294.5q0 53 6.5 112t23 129t41.5 134.5t65.5 126t92 106.5t124 72.5t157.5 27.5q171 0 259.5 -101t88.5 -294zM666 682q0 209 -142 209q-66 0 -118 -59.5
t-80 -147t-42 -170.5t-14 -147q0 -207 142 -207q53 0 98 40t73 100t47.5 133.5t27.5 136.5t8 112z" />
    <glyph glyph-name="p" unicode="p" horiz-adv-x="960" 
d="M907 723q0 -80 -11.5 -161.5t-35 -166t-64.5 -156.5t-95.5 -129.5t-133.5 -90.5t-172 -33q-98 0 -153 14l-66 -420h-227l233 1471h172l-12 -213q53 109 131 174t170 65q134 0 199 -96t65 -258zM674 709q0 178 -99 178q-54 0 -110.5 -68t-97 -170.5t-58.5 -210.5l-37 -239
q50 -33 129 -33q72 0 128 56t86 143.5t44.5 175.5t14.5 168z" />
    <glyph glyph-name="q" unicode="q" horiz-adv-x="960" 
d="M922 1006l-226 -1426h-225l61 391q24 141 43 219q-44 -96 -117 -156.5t-161 -60.5q-131 0 -195.5 96.5t-64.5 258.5q0 81 11.5 162.5t35.5 167t66 158.5t98.5 131t138 91t178.5 33q186 0 357 -65zM672 854q-57 31 -129 31t-128 -56t-86 -143.5t-44.5 -175.5t-14.5 -168
q0 -178 99 -178q54 0 110.5 68t96.5 170.5t57 209.5z" />
    <glyph glyph-name="r" unicode="r" horiz-adv-x="622" 
d="M680 1063l-53 -215q-50 16 -80 16q-67 0 -140.5 -136t-97.5 -294l-67 -434h-226l166 1051h172l-12 -222q51 103 116 175.5t132 72.5q39 0 90 -14z" />
    <glyph glyph-name="s" unicode="s" horiz-adv-x="690" 
d="M659 1044l-43 -178q-72 35 -153 35q-65 0 -102 -37.5t-37 -97.5q0 -40 20 -73.5t72 -71.5q98 -74 140 -137.5t42 -151.5q0 -157 -104.5 -258t-284.5 -101q-134 0 -229 39l47 187q92 -45 184 -45q71 0 112.5 39t41.5 104q0 41 -24 76t-85 82q-82 65 -121 130.5t-39 147.5
q0 155 102.5 249.5t262.5 94.5q111 0 198 -33z" />
    <glyph glyph-name="t" unicode="t" horiz-adv-x="600" 
d="M623 1051l-29 -179h-180l-84 -530q-7 -49 -8 -81.5t3 -51.5t17.5 -28.5t28 -12t41.5 -2.5h69l-26 -164q-61 -22 -166 -22q-56 0 -95.5 14.5t-69 49t-35.5 92.5t5 145l94 591h-112l28 179h113l100 303h172l-47 -303h181z" />
    <glyph glyph-name="u" unicode="u" horiz-adv-x="966" 
d="M934 1051l-168 -1051h-172l12 213q-51 -106 -132.5 -173t-180.5 -67q-114 0 -173 74.5t-59 214.5q0 55 15 154l100 635h225l-98 -623q-14 -96 -14 -133q0 -131 84 -131q54 0 110.5 67t97 169.5t58.5 211.5l68 439h227z" />
    <glyph glyph-name="v" unicode="v" horiz-adv-x="833" 
d="M887 1051q-212 -596 -430 -1051h-264q-83 504 -95 1051h226q9 -432 45 -818h2q146 360 286 818h230z" />
    <glyph glyph-name="w" unicode="w" horiz-adv-x="1345" 
d="M1389 1051q-164 -516 -396 -1051h-264l-29 768h-2l-260 -768h-262q-69 546 -72 1051h232q-5 -361 12 -828h2l285 828h237l29 -828h2q151 414 264 828h222z" />
    <glyph glyph-name="x" unicode="x" horiz-adv-x="874" 
d="M901 1051l-301 -500l160 -551h-250l-96 403l-224 -403h-262l336 539l-151 512h245l93 -377l208 377h242z" />
    <glyph glyph-name="y" unicode="y" horiz-adv-x="833" 
d="M885 1051q-237 -698 -430 -1051q-94 -172 -174.5 -270.5t-146 -134t-142.5 -35.5q-72 0 -117 20l35 168h92q47 0 91.5 50.5t117.5 193.5q-47 216 -77 497t-38 562h228q5 -383 53 -803h4q149 373 276 803h228z" />
    <glyph glyph-name="z" unicode="z" horiz-adv-x="737" 
d="M735 1051l-28 -185l-449 -680h365l-31 -186h-629l29 182l452 682h-323l31 187h583z" />
    <glyph glyph-name="braceleft" unicode="{" horiz-adv-x="614" 
d="M700 1554l-26 -163h-56q-47 0 -70 -44.5t-46 -183.5l-33 -194q-20 -132 -80 -225.5t-158 -118.5q90 -25 120.5 -121.5t8.5 -227.5l-38 -243q-21 -141 -11 -184.5t56 -43.5h55l-25 -163q-52 -15 -110 -15q-133 0 -169.5 97t-4.5 305l41 254q36 243 -109 249l29 179
q147 9 186 252l33 204q32 207 100.5 304.5t200.5 97.5q60 0 106 -15z" />
    <glyph glyph-name="bar" unicode="|" horiz-adv-x="866" 
d="M694 1591l-317 -2011h-213l317 2011h213z" />
    <glyph glyph-name="braceright" unicode="}" horiz-adv-x="614" 
d="M610 711l-28 -179q-148 -6 -187 -249l-39 -254q-32 -206 -101.5 -304t-201.5 -98q-63 0 -106 15l26 163h56q45 0 69 45t47 183l39 243q20 131 80.5 225.5t159.5 119.5q-92 25 -122.5 120t-8.5 228l33 194q21 141 11 184.5t-56 43.5h-56l27 163q46 15 106 15
q134 0 171.5 -97t5.5 -305l-31 -204q-20 -126 6.5 -186.5t99.5 -65.5z" />
    <glyph glyph-name="asciitilde" unicode="~" 
d="M940 1231l-2 -35q-3 -166 -71.5 -261t-176.5 -95q-66 0 -110 33t-82 90q-10 14 -25.5 37.5t-23.5 33.5t-20 23t-23.5 17.5t-26.5 4.5q-80 0 -86 -196h-166l2 32q1 165 70 260t176 95q66 0 109.5 -31.5t84.5 -89.5q12 -16 31.5 -45t28.5 -40.5t25 -22.5t34 -11
q77 0 84 201h168z" />
    <glyph glyph-name="Euro" 
d="M958 1380l-73 -161q-76 49 -166 49q-178 0 -268 -295h272l-25 -152h-290q-21 -102 -37 -233h291l-23 -152h-274q0 -145 44.5 -208.5t135.5 -63.5q96 0 186 51l39 -164q-121 -76 -274 -76q-189 0 -277 111t-88 350h-123l23 152h110q6 67 35 233h-108l24 152h121
q147 481 506 481q140 0 239 -74z" />
    <glyph glyph-name="Euro" unicode="&#x20ac;" 
d="M958 1380l-73 -161q-76 49 -166 49q-178 0 -268 -295h272l-25 -152h-290q-21 -102 -37 -233h291l-23 -152h-274q0 -145 44.5 -208.5t135.5 -63.5q96 0 186 51l39 -164q-121 -76 -274 -76q-189 0 -277 111t-88 350h-123l23 152h110q6 67 35 233h-108l24 152h121
q147 481 506 481q140 0 239 -74z" />
    <glyph glyph-name="Euro" unicode="&#x20a0;" 
d="M958 1380l-73 -161q-76 49 -166 49q-178 0 -268 -295h272l-25 -152h-290q-21 -102 -37 -233h291l-23 -152h-274q0 -145 44.5 -208.5t135.5 -63.5q96 0 186 51l39 -164q-121 -76 -274 -76q-189 0 -277 111t-88 350h-123l23 152h110q6 67 35 233h-108l24 152h121
q147 481 506 481q140 0 239 -74z" />
    <glyph glyph-name="exclamdown" unicode="&#xa1;" horiz-adv-x="577" 
d="M475 1092q0 -69 -42 -113.5t-103 -44.5q-57 0 -95 40t-38 97q0 69 42.5 112.5t102.5 43.5q58 0 95.5 -39.5t37.5 -95.5zM389 803l-153 -1135h-248l209 1135h192z" />
    <glyph glyph-name="cent" unicode="&#xa2;" 
d="M905 1176l-82 -170q-77 57 -172 57q-66 0 -119 -34t-84 -85t-51 -116t-27.5 -121t-7.5 -107q0 -225 175 -225q100 0 206 63l39 -168q-116 -63 -221 -77l-33 -193h-172l33 195q-127 19 -196.5 118t-69.5 265q0 83 15 167.5t48.5 169t82.5 153t123 116.5t163 61l29 185h172
l-29 -185q97 -11 178 -69z" />
    <glyph glyph-name="sterling" unicode="&#xa3;" 
d="M915 1423l-28 -182q-109 23 -189 23q-97 0 -149.5 -50t-67.5 -153q-12 -85 -16 -250h299l-27 -174h-268q-18 -274 -170 -442h477l-31 -195h-743l27 172q108 104 154.5 210.5t52.5 254.5h-156l26 174h123q3 141 23 262q29 179 136 279t294 100q123 0 233 -29z" />
    <glyph glyph-name="currency" unicode="&#xa4;" 
d="M958 1167l-159 -225q39 -76 39 -182q0 -111 -36 -228.5t-104 -197.5l93 -230l-187 -84l-65 213q-58 -30 -142 -30q-71 0 -118 26l-132 -209l-163 99l157 223q-37 70 -37 174q0 109 35 229.5t103 204.5l-90 230l184 82l70 -211q58 30 137 30q74 0 119 -28l131 209z
M629 743q0 172 -119 172q-48 0 -87.5 -37.5t-63 -95.5t-36 -122t-12.5 -123q0 -166 119 -166q49 0 88.5 37t62.5 94.5t35.5 120t12.5 120.5z" />
    <glyph glyph-name="yen" unicode="&#xa5;" 
d="M1024 1430q-183 -372 -424 -691l-6 -51h229l-24 -153h-230l-28 -179h229l-25 -153h-229l-33 -203h-231l33 203h-230l27 153h227l29 179h-229l24 153h229l7 51q-135 332 -201 691h242q38 -254 114 -508q123 199 262 508h238z" />
    <glyph glyph-name="brokenbar" unicode="&#xa6;" 
d="M729 1595l-123 -784h-217l123 784h217zM539 381l-127 -801h-217l127 801h217z" />
    <glyph glyph-name="section" unicode="&#xa7;" horiz-adv-x="950" 
d="M854 1479l-35 -181q-73 17 -127 17q-71 0 -114 -51t-43 -136q0 -55 28.5 -115.5t69.5 -120t82 -126.5t69.5 -160t28.5 -196q0 -143 -60 -318t-188 -315q-156 -176 -364 -176q-73 0 -129 18l34 182q53 -18 134 -18q72 0 115.5 47.5t43.5 126.5q0 58 -28.5 122.5t-69 127
t-81 131.5t-69 161.5t-28.5 192.5q0 162 76 339t176 284q161 178 348 178q63 0 131 -14zM618 350q0 86 -25.5 163t-62 135t-72.5 114.5t-60.5 126.5t-22.5 147q-58 -169 -58 -288q0 -84 25.5 -160t61 -134.5t71 -116t60 -130t22.5 -152.5q61 162 61 295z" />
    <glyph glyph-name="dieresis" unicode="&#xa8;" horiz-adv-x="679" 
d="M702 1374q0 -59 -34.5 -95t-89.5 -36q-51 0 -82 33t-31 84q0 59 34 95t89 36q53 0 83.5 -33t30.5 -84zM362 1374q0 -59 -34.5 -95t-89.5 -36q-51 0 -82 33t-31 84q0 59 34 95t89 36q53 0 83.5 -33t30.5 -84z" />
    <glyph glyph-name="copyright" unicode="&#xa9;" horiz-adv-x="1239" 
d="M1198 748q0 -194 -76 -365.5t-215 -278t-309 -106.5q-154 0 -275 85.5t-187 233.5t-66 330q0 194 75.5 364.5t215.5 277t311 106.5q153 0 273.5 -84.5t186.5 -232t66 -330.5zM1040 741q0 214 -105.5 358t-270.5 144q-96 0 -179 -49t-139 -131t-87.5 -187.5t-31.5 -218.5
q0 -215 106.5 -360t274.5 -145q125 0 225.5 83.5t153.5 217.5t53 288zM858 1032l-51 -141q-43 24 -90 24q-42 0 -76.5 -30.5t-54 -78t-29.5 -98t-10 -96.5q0 -129 98 -129q51 0 107 27l18 -141q-88 -43 -176 -43q-115 0 -176.5 66t-61.5 196q0 61 10.5 123t37 128t65.5 116
t103.5 82t144.5 32t141 -37z" />
    <glyph glyph-name="ordfeminine" unicode="&#xaa;" horiz-adv-x="768" 
d="M784 1403l-112 -713h-137l10 141q-86 -161 -226 -161q-92 0 -140 66.5t-48 183.5q0 74 11.5 144t40 140.5t71 123t111.5 85.5t155 33q126 0 264 -43zM655 535l-24 -164h-563l26 164h561zM588 1284q-43 19 -88 19q-48 0 -86 -39t-58 -98.5t-30 -119.5t-9 -112
q0 -115 60 -115q53 0 109 96.5t75 214.5z" />
    <glyph glyph-name="guillemotleft" unicode="&#xab;" horiz-adv-x="958" 
d="M868 944l-223 -375l103 -376l-162 -62l-162 447l291 438zM524 969l-235 -400l108 -401l-168 -62l-168 472l306 462z" />
    <glyph glyph-name="logicalnot" unicode="&#xac;" 
d="M858 727l-70 -444h-186l43 262h-592l29 182h776z" />
    <glyph glyph-name="registered" unicode="&#xae;" horiz-adv-x="940" 
d="M948 1112q-6 -188 -129.5 -317t-292.5 -129q-165 0 -270 120t-100 299q2 93 36.5 175.5t90.5 141.5t132 93.5t158 34.5q165 0 272.5 -120t102.5 -298zM831 1106q4 136 -71.5 227.5t-190.5 91.5q-122 0 -208 -98t-91 -237q-4 -136 71.5 -228t190.5 -92q123 0 208.5 98
t90.5 238zM737 1227q0 -55 -24.5 -94.5t-63.5 -55.5l41 -209h-125l-20 179h-33l-29 -179h-110l76 473h151q64 0 100.5 -31.5t36.5 -82.5zM618 1214q0 19 -9.5 29t-35.5 10h-26l-21 -114h25q32 0 49.5 20.5t17.5 54.5z" />
    <glyph glyph-name="macron" unicode="&#xaf;" horiz-adv-x="538" 
d="M602 1454l-24 -158h-465l24 158h465z" />
    <glyph glyph-name="macron" unicode="&#x2c9;" horiz-adv-x="538" 
d="M602 1454l-24 -158h-465l24 158h465z" />
    <glyph glyph-name="degree" unicode="&#xb0;" horiz-adv-x="612" 
d="M657 1272q0 -122 -74.5 -199.5t-183.5 -77.5q-108 0 -170.5 67.5t-62.5 174.5q0 120 74.5 198t185.5 78q107 0 169 -67.5t62 -173.5zM506 1260q0 53 -23.5 85.5t-64.5 32.5q-44 0 -72.5 -35t-28.5 -94q0 -53 24.5 -86t66.5 -33t70 35.5t28 94.5z" />
    <glyph glyph-name="plusminus" unicode="&#xb1;" 
d="M903 905l-31 -180h-292l-58 -365h-192l57 365h-295l31 180h293l57 367h193l-56 -367h293zM780 180l-28 -180h-766l30 180h764z" />
    <glyph glyph-name="twosuperior" unicode="&#xb2;" horiz-adv-x="677" 
d="M668 1282q0 -76 -36.5 -140t-133.5 -149l-101 -92h234l-25 -158h-483l20 136l158 149q79 76 108 121.5t29 93.5q0 62 -69 62q-50 0 -121 -31l-21 131q107 49 219 49t167 -49.5t55 -122.5z" />
    <glyph glyph-name="threesuperior" unicode="&#xb3;" horiz-adv-x="677" 
d="M651 1303q0 -72 -36 -126t-97 -71q45 -7 71.5 -43.5t26.5 -89.5q0 -114 -76.5 -183t-209.5 -69q-104 0 -183 18l19 119q43 -6 119 -6q62 0 96.5 31t34.5 86q0 37 -25 53t-78 16h-53l21 125h51q54 0 89.5 28t35.5 83q0 53 -64 53q-57 0 -121 -31l-18 117q112 41 203 41
q97 0 145.5 -42.5t48.5 -108.5z" />
    <glyph glyph-name="acute" unicode="&#xb4;" horiz-adv-x="509" 
d="M492 1466l-261 -276l-108 76l209 307z" />
    <glyph glyph-name="mu" unicode="&#xb5;" horiz-adv-x="1026" 
d="M944 1051l-123 -777q-10 -51 -0.5 -78.5t43.5 -27.5h56l-27 -168q-66 -20 -121 -20q-194 0 -156 231q-53 -106 -127 -167.5t-151 -61.5q-66 0 -90 53l-72 -455h-221l231 1471h226l-103 -643q-42 -244 76 -244q53 0 109.5 67t97 169.5t57.5 211.5l70 439h225z" />
    <glyph glyph-name="mu" unicode="&#x3bc;" horiz-adv-x="1026" 
d="M944 1051l-123 -777q-10 -51 -0.5 -78.5t43.5 -27.5h56l-27 -168q-66 -20 -121 -20q-194 0 -156 231q-53 -106 -127 -167.5t-151 -61.5q-66 0 -90 53l-72 -455h-221l231 1471h226l-103 -643q-42 -244 76 -244q53 0 109.5 67t97 169.5t57.5 211.5l70 439h225z" />
    <glyph glyph-name="paragraph" unicode="&#xb6;" horiz-adv-x="1015" 
d="M1028 1430l-264 -1663h-170l235 1484h-147l-236 -1484h-170l127 808q-145 0 -228 97.5t-83 253.5q0 95 32.5 184.5t91 161t150 115t199.5 43.5h463z" />
    <glyph glyph-name="periodcentered" unicode="&#xb7;" horiz-adv-x="460" 
d="M381 645q0 -69 -43.5 -113.5t-104.5 -44.5q-59 0 -97 41t-38 101q0 68 43 112.5t105 44.5q59 0 97 -41t38 -100z" />
    <glyph glyph-name="periodcentered" unicode="&#x22c5;" horiz-adv-x="460" 
d="M381 645q0 -69 -43.5 -113.5t-104.5 -44.5q-59 0 -97 41t-38 101q0 68 43 112.5t105 44.5q59 0 97 -41t38 -100z" />
    <glyph glyph-name="periodcentered" unicode="&#x2219;" horiz-adv-x="460" 
d="M381 645q0 -69 -43.5 -113.5t-104.5 -44.5q-59 0 -97 41t-38 101q0 68 43 112.5t105 44.5q59 0 97 -41t38 -100z" />
    <glyph glyph-name="cedilla" unicode="&#xb8;" horiz-adv-x="505" 
d="M301 -197q0 -76 -53.5 -119.5t-159.5 -43.5q-89 0 -166 24l23 133h137q49 0 49 35q0 9 -4 33l-25 135h164l19 -94q16 -69 16 -103z" />
    <glyph glyph-name="onesuperior" unicode="&#xb9;" horiz-adv-x="616" 
d="M575 1434l-110 -691h-201l76 480l-131 -74l-31 137l238 148h159z" />
    <glyph glyph-name="ordmasculine" unicode="&#xba;" horiz-adv-x="774" 
d="M782 1161q0 -41 -4.5 -83.5t-17 -92t-31 -93.5t-49 -85.5t-69.5 -72t-94 -48.5t-120 -18q-131 0 -199.5 73.5t-68.5 210.5q0 39 4.5 80t16.5 90.5t30 94.5t48.5 88t69.5 74t94.5 50t121.5 19q132 0 200 -74t68 -213zM643 535l-27 -164h-538l26 164h539zM594 1153
q0 150 -100 150q-49 0 -86 -38.5t-55.5 -96t-27 -110.5t-8.5 -97q0 -148 101 -148q49 0 86 39.5t55 98t26.5 110t8.5 92.5z" />
    <glyph glyph-name="guillemotright" unicode="&#xbb;" horiz-adv-x="958" 
d="M895 569l-305 -463l-158 72l236 400l-109 401l168 61zM532 569l-292 -438l-152 72l223 375l-102 376l162 62z" />
    <glyph glyph-name="onequarter" unicode="&#xbc;" horiz-adv-x="1294" 
d="M551 1434l-111 -691h-202l75 480l-131 -74l-30 137l239 148h160zM1198 1407l-1063 -1473l-112 89l1062 1472zM1161 268l-22 -141h-90l-19 -127h-186l20 127h-291l23 135l266 424h275l-66 -418h90zM938 567h-2l-184 -303h137z" />
    <glyph glyph-name="onehalf" unicode="&#xbd;" horiz-adv-x="1306" 
d="M551 1434l-111 -691h-202l75 480l-131 -74l-30 137l239 148h160zM1198 1407l-1063 -1473l-112 89l1062 1472zM1184 537q0 -76 -36.5 -139.5t-133.5 -147.5l-99 -92h234l-27 -158h-483l23 135l157 150q79 76 108 121.5t29 91.5q0 63 -69 63q-57 0 -121 -33l-21 134
q107 47 220 47q112 0 165.5 -48.5t53.5 -123.5z" />
    <glyph glyph-name="threequarters" unicode="&#xbe;" horiz-adv-x="1298" 
d="M621 1303q0 -72 -36.5 -126t-97.5 -71q45 -7 72 -43.5t27 -89.5q0 -114 -77 -183t-210 -69q-103 0 -182 18l18 119q44 -6 119 -6q61 0 95 30.5t34 86.5q0 37 -24 53t-76 16h-54l21 125h51q54 0 89.5 28t35.5 83q0 53 -64 53q-56 0 -120 -31l-19 117q112 41 203 41
q97 0 146 -42.5t49 -108.5zM1249 1407l-1063 -1473l-114 89l1063 1472zM1190 268l-23 -141h-90l-18 -127h-187l21 127h-291l21 135l268 424h274l-65 -418h90zM967 567h-2l-185 -303h138z" />
    <glyph glyph-name="questiondown" unicode="&#xbf;" horiz-adv-x="755" 
d="M639 1092q0 -69 -42 -113.5t-103 -44.5q-57 0 -94.5 39.5t-37.5 97.5q0 69 42 112.5t102 43.5q58 0 95.5 -39.5t37.5 -95.5zM561 803q-3 -90 -23.5 -169.5t-51 -137.5t-66.5 -111t-72 -99.5t-65.5 -92t-47.5 -100t-18 -113.5q0 -142 160 -142q69 0 168 15l-29 -175
q-95 -28 -203 -28q-173 0 -257.5 76.5t-84.5 214.5q0 76 20 144.5t52 123t71.5 107t80.5 105.5t76.5 108t61 126t32.5 148h196z" />
    <glyph glyph-name="Agrave" unicode="&#xc0;" horiz-adv-x="1105" 
d="M983 0h-254q-2 116 -18 352h-402q-15 -43 -60.5 -166.5t-66.5 -185.5h-243q287 769 600 1430h295q103 -682 149 -1430zM705 539q-22 295 -64 653h-2q-162 -377 -266 -653h332zM817 1647l-61 -117l-320 143l82 158z" />
    <glyph glyph-name="Aacute" unicode="&#xc1;" horiz-adv-x="1105" 
d="M983 0h-254q-2 116 -18 352h-402q-15 -43 -60.5 -166.5t-66.5 -185.5h-243q287 769 600 1430h295q103 -682 149 -1430zM705 539q-22 295 -64 653h-2q-162 -377 -266 -653h332zM956 1673l-333 -143l-50 117l310 184z" />
    <glyph glyph-name="Acircumflex" unicode="&#xc2;" horiz-adv-x="1105" 
d="M983 0h-254q-2 116 -18 352h-402q-15 -43 -60.5 -166.5t-66.5 -185.5h-243q287 769 600 1430h295q103 -682 149 -1430zM705 539q-22 295 -64 653h-2q-162 -377 -266 -653h332zM969 1649l-68 -117l-178 123l-217 -123l-45 115l278 182z" />
    <glyph glyph-name="Atilde" unicode="&#xc3;" horiz-adv-x="1105" 
d="M983 0h-254q-2 116 -18 352h-402q-15 -43 -60.5 -166.5t-66.5 -185.5h-243q287 769 600 1430h295q103 -682 149 -1430zM705 539q-22 295 -64 653h-2q-162 -377 -266 -653h332zM1024 1712q-28 -83 -80 -129.5t-123 -46.5q-41 0 -75 13.5t-53 29.5t-43.5 29.5t-47.5 13.5
q-54 0 -100 -90l-96 74q62 174 204 174q40 0 74 -13.5t53 -29.5t43 -29.5t47 -13.5q53 0 99 90z" />
    <glyph glyph-name="Adieresis" unicode="&#xc4;" horiz-adv-x="1105" 
d="M983 0h-254q-2 116 -18 352h-402q-15 -43 -60.5 -166.5t-66.5 -185.5h-243q287 769 600 1430h295q103 -682 149 -1430zM705 539q-22 295 -64 653h-2q-162 -377 -266 -653h332zM1014 1661q0 -57 -33 -91t-86 -34q-49 0 -79 32.5t-30 80.5q0 56 33.5 90.5t85.5 34.5
q50 0 79.5 -32t29.5 -81zM655 1661q0 -57 -32.5 -91t-85.5 -34q-49 0 -79 32.5t-30 80.5q0 56 32.5 90.5t84.5 34.5q50 0 80 -32.5t30 -80.5z" />
    <glyph glyph-name="Aring" unicode="&#xc5;" horiz-adv-x="1105" 
d="M983 0h-254q-2 116 -18 352h-402q-15 -43 -60.5 -166.5t-66.5 -185.5h-243q287 769 600 1430h295q103 -682 149 -1430zM705 539q-22 295 -64 653h-2q-162 -377 -266 -653h332zM684 1458q-182 0 -182 144q0 103 59 166t178 63q185 0 185 -145q0 -102 -59.5 -165
t-180.5 -63zM784 1675q0 64 -59 64q-39 0 -62.5 -35.5t-23.5 -89.5q0 -66 59 -66q39 0 62.5 36t23.5 91z" />
    <glyph glyph-name="AE" unicode="&#xc6;" horiz-adv-x="1406" 
d="M1450 1430l-31 -193h-420l-63 -401h367l-29 -191h-367l-73 -452h432l-31 -193h-664l50 313h-338q-101 -203 -152 -313h-244q363 743 768 1430h795zM766 1237h-4q-294 -527 -400 -735h289z" />
    <glyph glyph-name="Ccedilla" unicode="&#xc7;" horiz-adv-x="911" 
d="M590 -197q0 -76 -53.5 -119.5t-159.5 -43.5q-89 0 -166 24l22 133h138q49 0 49 35q0 9 -4 33l-23 123q-157 31 -238 156t-81 341q0 82 10 169.5t33.5 182.5t58 182.5t87.5 167t118.5 138t155 93t192.5 34.5q158 0 268 -76l-90 -184q-80 57 -184 57q-91 0 -163.5 -58.5
t-115 -144t-71 -191.5t-39 -191.5t-10.5 -153.5q0 -328 237 -328q95 0 205 60l39 -187q-109 -61 -246 -73l14 -76q17 -73 17 -103z" />
    <glyph glyph-name="Egrave" unicode="&#xc8;" horiz-adv-x="878" 
d="M920 1430l-31 -191h-432l-64 -403h371l-31 -187h-371l-71 -459h436l-29 -190h-671l227 1430h666zM692 1647l-61 -117l-320 143l82 158z" />
    <glyph glyph-name="Eacute" unicode="&#xc9;" horiz-adv-x="878" 
d="M920 1430l-31 -191h-432l-64 -403h371l-31 -187h-371l-71 -459h436l-29 -190h-671l227 1430h666zM901 1673l-334 -143l-49 117l309 184z" />
    <glyph glyph-name="Ecircumflex" unicode="&#xca;" horiz-adv-x="878" 
d="M920 1430l-31 -191h-432l-64 -403h371l-31 -187h-371l-71 -459h436l-29 -190h-671l227 1430h666zM868 1649l-67 -117l-178 123l-217 -123l-46 115l279 182z" />
    <glyph glyph-name="Edieresis" unicode="&#xcb;" horiz-adv-x="878" 
d="M920 1430l-31 -191h-432l-64 -403h371l-31 -187h-371l-71 -459h436l-29 -190h-671l227 1430h666zM911 1661q0 -57 -32.5 -91t-85.5 -34q-49 0 -79 32.5t-30 80.5q0 56 33.5 90.5t85.5 34.5q50 0 79 -32t29 -81zM553 1661q0 -57 -33 -91t-86 -34q-48 0 -78 32.5t-30 80.5
q0 57 32.5 91t83.5 34q50 0 80.5 -32.5t30.5 -80.5z" />
    <glyph glyph-name="Igrave" unicode="&#xcc;" horiz-adv-x="477" 
d="M489 1430l-227 -1430h-235l227 1430h235zM545 1647l-62 -117l-319 143l82 158z" />
    <glyph glyph-name="Iacute" unicode="&#xcd;" horiz-adv-x="477" 
d="M489 1430l-227 -1430h-235l227 1430h235zM641 1673l-334 -143l-49 117l309 184z" />
    <glyph glyph-name="Icircumflex" unicode="&#xce;" horiz-adv-x="477" 
d="M489 1430l-227 -1430h-235l227 1430h235zM653 1649l-67 -117l-178 123l-218 -123l-45 115l279 182z" />
    <glyph glyph-name="Idieresis" unicode="&#xcf;" horiz-adv-x="477" 
d="M489 1430l-227 -1430h-235l227 1430h235zM698 1661q0 -57 -32.5 -91t-85.5 -34q-49 0 -79 32.5t-30 80.5q0 56 33.5 90.5t85.5 34.5q50 0 79 -32t29 -81zM340 1661q0 -57 -33 -91t-86 -34q-48 0 -78 32.5t-30 80.5q0 57 32.5 91t83.5 34q50 0 80.5 -32.5t30.5 -80.5z" />
    <glyph glyph-name="Eth" unicode="&#xd0;" horiz-adv-x="1153" 
d="M1124 911q0 -64 -7.5 -135.5t-28.5 -162t-53 -174t-87.5 -165t-126 -141t-173.5 -96.5t-226 -37h-375l105 649h-121l30 187h119l94 594h377q228 0 350.5 -133.5t122.5 -385.5zM881 913q0 151 -63.5 238.5t-199.5 87.5h-139l-63 -403h192l-30 -187h-193l-72 -459h133
q75 0 138 29.5t106.5 77.5t78 113t55 132t34 138.5t18.5 127.5t5 105z" />
    <glyph glyph-name="Ntilde" unicode="&#xd1;" horiz-adv-x="1179" 
d="M1194 1430l-227 -1430h-314l-241 1104h-2l-177 -1104h-206l227 1430h326l233 -1082h2l172 1082h207zM1077 1712q-28 -83 -80 -129.5t-123 -46.5q-41 0 -75 13.5t-53 29.5t-43.5 29.5t-47.5 13.5q-54 0 -100 -90l-96 74q62 174 205 174q40 0 74 -13.5t53 -29.5t43 -29.5
t47 -13.5q52 0 98 90z" />
    <glyph glyph-name="Ograve" unicode="&#xd2;" horiz-adv-x="1214" 
d="M1182 936q0 -82 -9.5 -168.5t-32.5 -182t-57.5 -182t-88.5 -166t-121 -137.5t-159.5 -92.5t-199.5 -34.5q-215 0 -327.5 134t-112.5 387q0 78 9.5 162.5t32 179.5t56.5 182t88 168t121 140t160 94.5t202 35.5q212 0 325.5 -134t113.5 -386zM938 938q0 151 -55 235
t-168 84q-87 0 -158.5 -60t-114 -148.5t-72 -197.5t-40.5 -199t-11 -160q0 -320 224 -320q84 0 153.5 57t113 143t73.5 192.5t42.5 201t12.5 172.5zM858 1647l-61 -117l-320 143l82 158z" />
    <glyph glyph-name="Oacute" unicode="&#xd3;" horiz-adv-x="1214" 
d="M1182 936q0 -82 -9.5 -168.5t-32.5 -182t-57.5 -182t-88.5 -166t-121 -137.5t-159.5 -92.5t-199.5 -34.5q-215 0 -327.5 134t-112.5 387q0 78 9.5 162.5t32 179.5t56.5 182t88 168t121 140t160 94.5t202 35.5q212 0 325.5 -134t113.5 -386zM938 938q0 151 -55 235
t-168 84q-87 0 -158.5 -60t-114 -148.5t-72 -197.5t-40.5 -199t-11 -160q0 -320 224 -320q84 0 153.5 57t113 143t73.5 192.5t42.5 201t12.5 172.5zM1083 1673l-333 -143l-50 117l310 184z" />
    <glyph glyph-name="Ocircumflex" unicode="&#xd4;" horiz-adv-x="1214" 
d="M1182 936q0 -82 -9.5 -168.5t-32.5 -182t-57.5 -182t-88.5 -166t-121 -137.5t-159.5 -92.5t-199.5 -34.5q-215 0 -327.5 134t-112.5 387q0 78 9.5 162.5t32 179.5t56.5 182t88 168t121 140t160 94.5t202 35.5q212 0 325.5 -134t113.5 -386zM938 938q0 151 -55 235
t-168 84q-87 0 -158.5 -60t-114 -148.5t-72 -197.5t-40.5 -199t-11 -160q0 -320 224 -320q84 0 153.5 57t113 143t73.5 192.5t42.5 201t12.5 172.5zM1030 1649l-67 -117l-179 123l-217 -123l-45 115l279 182z" />
    <glyph glyph-name="Otilde" unicode="&#xd5;" horiz-adv-x="1214" 
d="M1182 936q0 -82 -9.5 -168.5t-32.5 -182t-57.5 -182t-88.5 -166t-121 -137.5t-159.5 -92.5t-199.5 -34.5q-215 0 -327.5 134t-112.5 387q0 78 9.5 162.5t32 179.5t56.5 182t88 168t121 140t160 94.5t202 35.5q212 0 325.5 -134t113.5 -386zM938 938q0 151 -55 235
t-168 84q-87 0 -158.5 -60t-114 -148.5t-72 -197.5t-40.5 -199t-11 -160q0 -320 224 -320q84 0 153.5 57t113 143t73.5 192.5t42.5 201t12.5 172.5zM1092 1712q-28 -83 -80 -129.5t-123 -46.5q-41 0 -75 13.5t-53 29.5t-43.5 29.5t-47.5 13.5q-55 0 -101 -90l-96 74
q62 174 205 174q40 0 74 -13.5t53 -29.5t43 -29.5t47 -13.5q52 0 98 90z" />
    <glyph glyph-name="Odieresis" unicode="&#xd6;" horiz-adv-x="1214" 
d="M1182 936q0 -82 -9.5 -168.5t-32.5 -182t-57.5 -182t-88.5 -166t-121 -137.5t-159.5 -92.5t-199.5 -34.5q-215 0 -327.5 134t-112.5 387q0 78 9.5 162.5t32 179.5t56.5 182t88 168t121 140t160 94.5t202 35.5q212 0 325.5 -134t113.5 -386zM938 938q0 151 -55 235
t-168 84q-87 0 -158.5 -60t-114 -148.5t-72 -197.5t-40.5 -199t-11 -160q0 -320 224 -320q84 0 153.5 57t113 143t73.5 192.5t42.5 201t12.5 172.5zM1077 1661q0 -57 -33 -91t-86 -34q-48 0 -78 32.5t-30 80.5q0 56 33.5 90.5t85.5 34.5q50 0 79 -32t29 -81zM719 1661
q0 -57 -33 -91t-86 -34q-48 0 -78 32.5t-30 80.5q0 57 32.5 91t83.5 34q50 0 80.5 -32.5t30.5 -80.5z" />
    <glyph glyph-name="multiply" unicode="&#xd7;" 
d="M922 958l-328 -325l225 -326l-155 -119l-213 306l-308 -306l-125 127l328 326l-227 326l157 118l211 -305l310 305z" />
    <glyph glyph-name="Oslash" unicode="&#xd8;" horiz-adv-x="1214" 
d="M1182 954q0 -83 -9 -170t-32 -184.5t-57 -186t-87.5 -170t-120.5 -140.5t-160 -94.5t-202 -35.5q-115 0 -176 37l-125 -241l-135 61l129 248q-133 124 -133 397q0 83 9.5 169.5t32 184t56.5 186t88 170t121 141t160 95t202 35.5q102 0 175 -37l126 242l136 -62l-129 -249
q131 -123 131 -396zM932 1116l-504 -921q39 -31 115 -31q77 0 143.5 44t111.5 116.5t79 163t51 186t24 183t1 156t-21 103.5zM829 1235q-39 31 -114 31q-91 0 -166 -60t-121 -153.5t-77.5 -206t-41.5 -219t-6 -191.5t23 -123z" />
    <glyph glyph-name="Ugrave" unicode="&#xd9;" horiz-adv-x="1157" 
d="M1174 1430l-148 -932q-41 -262 -182.5 -392.5t-354.5 -130.5q-467 0 -380 545l143 910h237l-147 -926q-27 -166 18 -249t152 -83q108 0 183.5 86t103.5 260l145 912h230zM838 1647l-62 -117l-319 143l82 158z" />
    <glyph glyph-name="Uacute" unicode="&#xda;" horiz-adv-x="1157" 
d="M1174 1430l-148 -932q-41 -262 -182.5 -392.5t-354.5 -130.5q-467 0 -380 545l143 910h237l-147 -926q-27 -166 18 -249t152 -83q108 0 183.5 86t103.5 260l145 912h230zM1063 1673l-334 -143l-49 117l309 184z" />
    <glyph glyph-name="Ucircumflex" unicode="&#xdb;" horiz-adv-x="1157" 
d="M1174 1430l-148 -932q-41 -262 -182.5 -392.5t-354.5 -130.5q-467 0 -380 545l143 910h237l-147 -926q-27 -166 18 -249t152 -83q108 0 183.5 86t103.5 260l145 912h230zM999 1649l-67 -117l-178 123l-217 -123l-45 115l278 182z" />
    <glyph glyph-name="Udieresis" unicode="&#xdc;" horiz-adv-x="1157" 
d="M1174 1430l-148 -932q-41 -262 -182.5 -392.5t-354.5 -130.5q-467 0 -380 545l143 910h237l-147 -926q-27 -166 18 -249t152 -83q108 0 183.5 86t103.5 260l145 912h230zM1044 1661q0 -57 -32.5 -91t-85.5 -34q-49 0 -79 32.5t-30 80.5q0 56 33.5 90.5t85.5 34.5
q50 0 79 -32t29 -81zM686 1661q0 -57 -33 -91t-86 -34q-48 0 -78 32.5t-30 80.5q0 57 32.5 91t83.5 34q50 0 80.5 -32.5t30.5 -80.5z" />
    <glyph glyph-name="Yacute" unicode="&#xdd;" horiz-adv-x="960" 
d="M1090 1430q-255 -488 -486 -818l-98 -612h-236l97 612q-134 366 -228 818h256q39 -281 135 -590q172 279 310 590h250zM969 1673l-334 -143l-49 117l309 184z" />
    <glyph glyph-name="Thorn" unicode="&#xde;" horiz-adv-x="937" 
d="M938 844q0 -67 -13.5 -137t-50 -147.5t-92 -137t-148 -98.5t-208.5 -39h-119l-45 -285h-235l227 1430h235l-38 -236h96q87 0 155 -18q112 -27 174 -112t62 -220zM690 834q0 123 -78 157q-35 15 -80 15h-110l-84 -533h119q51 0 93 26.5t67 66t42.5 90t24 95t6.5 83.5z" />
    <glyph glyph-name="germandbls" unicode="&#xdf;" horiz-adv-x="991" 
d="M969 1294q0 -79 -27 -142t-65.5 -103t-77 -76.5t-65.5 -82t-27 -99.5q0 -38 20 -71.5t66 -78.5q127 -127 127 -285q0 -100 -45.5 -186t-135.5 -140.5t-207 -54.5q-102 0 -170 29l56 176q57 -26 117 -26q66 0 108.5 45.5t42.5 115.5q0 58 -20.5 101t-71.5 94
q-113 113 -113 244q0 78 26 140t63.5 103.5t75 79.5t63.5 86.5t26 106.5q0 108 -112 108q-77 0 -132 -78.5t-81 -238.5l-179 -1114q-30 -190 -107.5 -288.5t-229.5 -98.5q-83 0 -130 14l25 166h64q33 0 58 11.5t40.5 29.5t27 49t17.5 59.5t12 71.5l182 1143
q33 210 154 332.5t309 122.5q149 0 232.5 -77t83.5 -188z" />
    <glyph glyph-name="agrave" unicode="&#xe0;" horiz-adv-x="960" 
d="M922 1006l-160 -1006h-172l16 213q-51 -109 -131 -174.5t-174 -65.5q-134 0 -199 96.5t-65 258.5q0 81 11.5 162.5t35.5 167t66 158.5t98.5 131t138 91t178.5 33q179 0 357 -65zM672 854q-57 31 -129 31t-128 -56t-86 -143.5t-44.5 -175.5t-14.5 -168q0 -178 99 -178
q54 0 110.5 68t96.5 170.5t57 209.5zM711 1266l-115 -76l-242 276l166 107z" />
    <glyph glyph-name="aacute" unicode="&#xe1;" horiz-adv-x="960" 
d="M922 1006l-160 -1006h-172l16 213q-51 -109 -131 -174.5t-174 -65.5q-134 0 -199 96.5t-65 258.5q0 81 11.5 162.5t35.5 167t66 158.5t98.5 131t138 91t178.5 33q179 0 357 -65zM672 854q-57 31 -129 31t-128 -56t-86 -143.5t-44.5 -175.5t-14.5 -168q0 -178 99 -178
q54 0 110.5 68t96.5 170.5t57 209.5zM860 1466l-260 -276l-108 76l208 307z" />
    <glyph glyph-name="acircumflex" unicode="&#xe2;" horiz-adv-x="960" 
d="M922 1006l-160 -1006h-172l16 213q-51 -109 -131 -174.5t-174 -65.5q-134 0 -199 96.5t-65 258.5q0 81 11.5 162.5t35.5 167t66 158.5t98.5 131t138 91t178.5 33q179 0 357 -65zM672 854q-57 31 -129 31t-128 -56t-86 -143.5t-44.5 -175.5t-14.5 -168q0 -178 99 -178
q54 0 110.5 68t96.5 170.5t57 209.5zM864 1296l-92 -106l-154 170l-202 -170l-66 106l295 281z" />
    <glyph glyph-name="atilde" unicode="&#xe3;" horiz-adv-x="960" 
d="M922 1006l-160 -1006h-172l16 213q-51 -109 -131 -174.5t-174 -65.5q-134 0 -199 96.5t-65 258.5q0 81 11.5 162.5t35.5 167t66 158.5t98.5 131t138 91t178.5 33q179 0 357 -65zM672 854q-57 31 -129 31t-128 -56t-86 -143.5t-44.5 -175.5t-14.5 -168q0 -178 99 -178
q54 0 110.5 68t96.5 170.5t57 209.5zM922 1432q-28 -85 -78.5 -133t-118.5 -48q-40 0 -73 13.5t-52 30.5t-42.5 30.5t-45.5 13.5q-52 0 -94 -92l-96 76q28 86 78 133t118 47q40 0 73 -13.5t52 -30.5t42.5 -30.5t45.5 -13.5q51 0 96 92z" />
    <glyph glyph-name="adieresis" unicode="&#xe4;" horiz-adv-x="960" 
d="M922 1006l-160 -1006h-172l16 213q-51 -109 -131 -174.5t-174 -65.5q-134 0 -199 96.5t-65 258.5q0 81 11.5 162.5t35.5 167t66 158.5t98.5 131t138 91t178.5 33q179 0 357 -65zM672 854q-57 31 -129 31t-128 -56t-86 -143.5t-44.5 -175.5t-14.5 -168q0 -178 99 -178
q54 0 110.5 68t96.5 170.5t57 209.5zM905 1374q0 -59 -35 -95t-90 -36q-51 0 -81.5 33t-30.5 84q0 59 34 95t89 36q53 0 83.5 -33t30.5 -84zM565 1374q0 -59 -35 -95t-90 -36q-51 0 -81.5 33t-30.5 84q0 59 34 95t89 36q53 0 83.5 -33t30.5 -84z" />
    <glyph glyph-name="aring" unicode="&#xe5;" horiz-adv-x="960" 
d="M922 1006l-160 -1006h-172l16 213q-51 -109 -131 -174.5t-174 -65.5q-134 0 -199 96.5t-65 258.5q0 81 11.5 162.5t35.5 167t66 158.5t98.5 131t138 91t178.5 33q179 0 357 -65zM672 854q-57 31 -129 31t-128 -56t-86 -143.5t-44.5 -175.5t-14.5 -168q0 -178 99 -178
q54 0 110.5 68t96.5 170.5t57 209.5zM807 1425q0 -34 -6.5 -67.5t-23.5 -67.5t-42.5 -60t-66.5 -42.5t-93 -16.5q-84 0 -128 42t-44 122q0 47 12.5 90t38.5 81.5t73.5 61.5t109.5 23q83 0 126.5 -42t43.5 -124zM676 1417q0 70 -55 70q-42 0 -64 -45t-22 -96q0 -70 55 -70
q29 0 49.5 24.5t28.5 55t8 61.5z" />
    <glyph glyph-name="ae" unicode="&#xe6;" horiz-adv-x="1390" 
d="M1339 819q0 -180 -140.5 -269t-430.5 -89q-8 -44 -8 -109q0 -99 40 -147.5t134 -48.5q123 0 274 51l9 -174q-165 -60 -332 -60q-124 0 -203.5 51t-101.5 142q-44 -89 -124.5 -141t-183.5 -52q-120 0 -192 68.5t-72 194.5q0 380 565 380l15 82q6 40 6 78q0 65 -32.5 96
t-108.5 31q-128 0 -267 -63l-4 172q162 65 316 65q199 0 252 -133q113 133 290 133q141 0 220 -70t79 -188zM1120 803q0 54 -29.5 81t-78.5 27q-59 0 -104.5 -41.5t-72.5 -105t-42 -148.5q179 0 253 46t74 141zM549 463q-165 0 -242.5 -48.5t-77.5 -154.5q0 -115 103 -115
q85 0 139 76.5t70 194.5z" />
    <glyph glyph-name="ccedilla" unicode="&#xe7;" horiz-adv-x="718" 
d="M469 -197q0 -76 -53.5 -119.5t-159.5 -43.5q-89 0 -166 24l23 133h137q49 0 49 35q0 9 -4 33l-23 121q-233 46 -233 364q0 69 9.5 142.5t31 157.5t60.5 157.5t91.5 134t132 96t175.5 35.5q125 0 204 -51l-65 -176q-70 41 -141 41q-60 0 -109 -40t-77.5 -99t-47.5 -132
t-26 -132.5t-7 -106.5q0 -207 152 -207q86 0 162 43l18 -178q-79 -41 -166 -51l17 -78q16 -69 16 -103z" />
    <glyph glyph-name="egrave" unicode="&#xe8;" horiz-adv-x="897" 
d="M844 819q0 -364 -572 -364q-8 -49 -8 -103q0 -99 40 -147.5t134 -48.5q124 0 275 51l8 -174q-165 -60 -334 -60q-350 0 -350 371q0 47 4.5 100.5t18.5 127t36 141t61.5 135.5t90.5 117.5t127.5 80.5t167.5 31q143 0 222 -69t79 -189zM623 803q0 53 -29.5 80.5t-77.5 27.5
q-87 0 -141.5 -82.5t-79.5 -218.5q178 0 253 48.5t75 144.5zM684 1266l-115 -76l-241 276l166 107z" />
    <glyph glyph-name="eacute" unicode="&#xe9;" horiz-adv-x="897" 
d="M844 819q0 -364 -572 -364q-8 -49 -8 -103q0 -99 40 -147.5t134 -48.5q124 0 275 51l8 -174q-165 -60 -334 -60q-350 0 -350 371q0 47 4.5 100.5t18.5 127t36 141t61.5 135.5t90.5 117.5t127.5 80.5t167.5 31q143 0 222 -69t79 -189zM623 803q0 53 -29.5 80.5t-77.5 27.5
q-87 0 -141.5 -82.5t-79.5 -218.5q178 0 253 48.5t75 144.5zM842 1466l-260 -276l-109 76l209 307z" />
    <glyph glyph-name="ecircumflex" unicode="&#xea;" horiz-adv-x="897" 
d="M844 819q0 -364 -572 -364q-8 -49 -8 -103q0 -99 40 -147.5t134 -48.5q124 0 275 51l8 -174q-165 -60 -334 -60q-350 0 -350 371q0 47 4.5 100.5t18.5 127t36 141t61.5 135.5t90.5 117.5t127.5 80.5t167.5 31q143 0 222 -69t79 -189zM623 803q0 53 -29.5 80.5t-77.5 27.5
q-87 0 -141.5 -82.5t-79.5 -218.5q178 0 253 48.5t75 144.5zM829 1296l-92 -106l-153 170l-203 -170l-66 106l295 281z" />
    <glyph glyph-name="edieresis" unicode="&#xeb;" horiz-adv-x="897" 
d="M844 819q0 -364 -572 -364q-8 -49 -8 -103q0 -99 40 -147.5t134 -48.5q124 0 275 51l8 -174q-165 -60 -334 -60q-350 0 -350 371q0 47 4.5 100.5t18.5 127t36 141t61.5 135.5t90.5 117.5t127.5 80.5t167.5 31q143 0 222 -69t79 -189zM623 803q0 53 -29.5 80.5t-77.5 27.5
q-87 0 -141.5 -82.5t-79.5 -218.5q178 0 253 48.5t75 144.5zM877 1374q0 -59 -35 -95t-90 -36q-51 0 -82 33t-31 84q0 59 34 95t89 36q53 0 84 -33t31 -84zM537 1374q0 -59 -35 -95t-90 -36q-51 0 -82 33t-31 84q0 59 34 95t89 36q53 0 84 -33t31 -84z" />
    <glyph glyph-name="igrave" unicode="&#xec;" horiz-adv-x="479" 
d="M446 1051l-167 -1051h-224l138 872h-117l28 179h342zM494 1266l-115 -76l-242 276l166 107z" />
    <glyph glyph-name="iacute" unicode="&#xed;" horiz-adv-x="479" 
d="M446 1051l-167 -1051h-224l138 872h-117l28 179h342zM596 1466l-260 -276l-109 76l209 307z" />
    <glyph glyph-name="icircumflex" unicode="&#xee;" horiz-adv-x="479" 
d="M446 1051l-167 -1051h-224l138 872h-117l28 179h342zM608 1296l-92 -106l-154 170l-202 -170l-66 106l295 281z" />
    <glyph glyph-name="idieresis" unicode="&#xef;" horiz-adv-x="479" 
d="M446 1051l-167 -1051h-224l138 872h-117l28 179h342zM657 1374q0 -59 -35 -95t-90 -36q-51 0 -81.5 33t-30.5 84q0 59 34 95t89 36q53 0 83.5 -33t30.5 -84zM317 1374q0 -59 -34.5 -95t-89.5 -36q-51 0 -82 33t-31 84q0 59 34 95t89 36q53 0 83.5 -33t30.5 -84z" />
    <glyph glyph-name="eth" unicode="&#xf0;" horiz-adv-x="987" 
d="M971 1376l-180 -73q114 -268 114 -558q0 -67 -6 -134t-22 -145t-41 -146.5t-66 -133.5t-93.5 -111t-127.5 -74t-164 -28q-171 0 -257.5 103.5t-86.5 296.5q0 94 17 188t54 184.5t90.5 159.5t132.5 111.5t173 42.5q103 0 143 -76q-22 129 -78 244l-180 -74l-53 131l172 70
q-40 75 -88 137l217 74q55 -72 88 -135l186 77zM670 676q0 93 -37.5 152t-110.5 59q-61 0 -112.5 -57.5t-80.5 -142t-45 -169.5t-16 -151q0 -207 144 -207q59 0 106.5 43.5t75 106t45.5 138t24.5 132.5t6.5 96z" />
    <glyph glyph-name="ntilde" unicode="&#xf1;" horiz-adv-x="966" 
d="M887 788q0 -54 -15 -153l-100 -635h-225l98 623q14 96 14 133q0 131 -84 131q-53 0 -109.5 -67t-97.5 -170t-59 -212l-67 -438h-226l166 1051h172l-12 -213q51 105 132.5 172t180.5 67q114 0 173 -74.5t59 -214.5zM909 1432q-28 -85 -78.5 -133t-117.5 -48
q-40 0 -73 13.5t-52 30.5t-42.5 30.5t-45.5 13.5q-52 0 -94 -92l-97 76q28 86 78.5 133t118.5 47q40 0 73 -13.5t52 -30.5t42.5 -30.5t45.5 -13.5q51 0 96 92z" />
    <glyph glyph-name="ograve" unicode="&#xf2;" horiz-adv-x="954" 
d="M897 682q0 -64 -9.5 -133.5t-30 -152.5t-60 -156t-93.5 -134t-136.5 -97t-182.5 -36q-170 0 -258 101.5t-88 294.5q0 53 6.5 112t23 129t41.5 134.5t65.5 126t92 106.5t124 72.5t157.5 27.5q171 0 259.5 -101t88.5 -294zM666 682q0 209 -142 209q-66 0 -118 -59.5
t-80 -147t-42 -170.5t-14 -147q0 -207 142 -207q53 0 98 40t73 100t47.5 133.5t27.5 136.5t8 112zM715 1266l-115 -76l-242 276l166 107z" />
    <glyph glyph-name="oacute" unicode="&#xf3;" horiz-adv-x="954" 
d="M897 682q0 -64 -9.5 -133.5t-30 -152.5t-60 -156t-93.5 -134t-136.5 -97t-182.5 -36q-170 0 -258 101.5t-88 294.5q0 53 6.5 112t23 129t41.5 134.5t65.5 126t92 106.5t124 72.5t157.5 27.5q171 0 259.5 -101t88.5 -294zM666 682q0 209 -142 209q-66 0 -118 -59.5
t-80 -147t-42 -170.5t-14 -147q0 -207 142 -207q53 0 98 40t73 100t47.5 133.5t27.5 136.5t8 112zM848 1466l-260 -276l-109 76l209 307z" />
    <glyph glyph-name="ocircumflex" unicode="&#xf4;" horiz-adv-x="954" 
d="M897 682q0 -64 -9.5 -133.5t-30 -152.5t-60 -156t-93.5 -134t-136.5 -97t-182.5 -36q-170 0 -258 101.5t-88 294.5q0 53 6.5 112t23 129t41.5 134.5t65.5 126t92 106.5t124 72.5t157.5 27.5q171 0 259.5 -101t88.5 -294zM666 682q0 209 -142 209q-66 0 -118 -59.5
t-80 -147t-42 -170.5t-14 -147q0 -207 142 -207q53 0 98 40t73 100t47.5 133.5t27.5 136.5t8 112zM850 1296l-92 -106l-154 170l-203 -170l-65 106l295 281z" />
    <glyph glyph-name="otilde" unicode="&#xf5;" horiz-adv-x="954" 
d="M897 682q0 -64 -9.5 -133.5t-30 -152.5t-60 -156t-93.5 -134t-136.5 -97t-182.5 -36q-170 0 -258 101.5t-88 294.5q0 53 6.5 112t23 129t41.5 134.5t65.5 126t92 106.5t124 72.5t157.5 27.5q171 0 259.5 -101t88.5 -294zM666 682q0 209 -142 209q-66 0 -118 -59.5
t-80 -147t-42 -170.5t-14 -147q0 -207 142 -207q53 0 98 40t73 100t47.5 133.5t27.5 136.5t8 112zM905 1432q-28 -85 -78.5 -133t-117.5 -48q-40 0 -73 13.5t-52 30.5t-42.5 30.5t-45.5 13.5q-53 0 -95 -92l-96 76q28 86 78.5 133t118.5 47q40 0 73 -13.5t52 -30.5
t42.5 -30.5t45.5 -13.5q51 0 96 92z" />
    <glyph glyph-name="odieresis" unicode="&#xf6;" horiz-adv-x="954" 
d="M897 682q0 -64 -9.5 -133.5t-30 -152.5t-60 -156t-93.5 -134t-136.5 -97t-182.5 -36q-170 0 -258 101.5t-88 294.5q0 53 6.5 112t23 129t41.5 134.5t65.5 126t92 106.5t124 72.5t157.5 27.5q171 0 259.5 -101t88.5 -294zM666 682q0 209 -142 209q-66 0 -118 -59.5
t-80 -147t-42 -170.5t-14 -147q0 -207 142 -207q53 0 98 40t73 100t47.5 133.5t27.5 136.5t8 112zM893 1374q0 -59 -35 -95t-90 -36q-51 0 -82 33t-31 84q0 59 34 95t89 36q53 0 84 -33t31 -84zM553 1374q0 -59 -35 -95t-90 -36q-51 0 -82 33t-31 84q0 59 34 95t89 36
q53 0 84 -33t31 -84z" />
    <glyph glyph-name="divide" unicode="&#xf7;" 
d="M668 1049q0 -65 -41.5 -107.5t-98.5 -42.5q-56 0 -91.5 38.5t-35.5 94.5q0 65 40.5 107.5t99.5 42.5q55 0 91 -38.5t36 -94.5zM879 727l-29 -182h-791l29 182h791zM539 242q0 -65 -41 -106.5t-99 -41.5q-56 0 -91.5 37.5t-35.5 93.5q0 65 40.5 107.5t99.5 42.5
q55 0 91 -38.5t36 -94.5z" />
    <glyph glyph-name="oslash" unicode="&#xf8;" horiz-adv-x="954" 
d="M897 694q0 -57 -6 -117.5t-22 -132.5t-41 -137t-66 -127t-92.5 -107t-125.5 -72.5t-161 -27.5q-58 0 -111 17l-106 -211l-127 49l111 217q-113 95 -113 313q0 56 6.5 117t23 132t41.5 136.5t66.5 127t93.5 106.5t125.5 72.5t159.5 27.5q57 0 111 -16l108 211l125 -49
l-111 -217q111 -97 111 -312zM586 899q-23 10 -64 10q-62 0 -113 -40t-82 -102t-51.5 -138t-27 -148t-3 -131.5t16.5 -89.5zM352 152q22 -11 58 -11q63 0 114.5 39.5t83.5 102t53 138t27.5 148t3.5 132t-16 90.5z" />
    <glyph glyph-name="ugrave" unicode="&#xf9;" horiz-adv-x="966" 
d="M934 1051l-168 -1051h-172l12 213q-51 -106 -132.5 -173t-180.5 -67q-114 0 -173 74.5t-59 214.5q0 55 15 154l100 635h225l-98 -623q-14 -96 -14 -133q0 -131 84 -131q54 0 110.5 67t97 169.5t58.5 211.5l68 439h227zM686 1266l-115 -76l-241 276l166 107z" />
    <glyph glyph-name="uacute" unicode="&#xfa;" horiz-adv-x="966" 
d="M934 1051l-168 -1051h-172l12 213q-51 -106 -132.5 -173t-180.5 -67q-114 0 -173 74.5t-59 214.5q0 55 15 154l100 635h225l-98 -623q-14 -96 -14 -133q0 -131 84 -131q54 0 110.5 67t97 169.5t58.5 211.5l68 439h227zM844 1466l-260 -276l-109 76l209 307z" />
    <glyph glyph-name="ucircumflex" unicode="&#xfb;" horiz-adv-x="966" 
d="M934 1051l-168 -1051h-172l12 213q-51 -106 -132.5 -173t-180.5 -67q-114 0 -173 74.5t-59 214.5q0 55 15 154l100 635h225l-98 -623q-14 -96 -14 -133q0 -131 84 -131q54 0 110.5 67t97 169.5t58.5 211.5l68 439h227zM850 1296l-92 -106l-154 170l-203 -170l-65 106
l295 281z" />
    <glyph glyph-name="udieresis" unicode="&#xfc;" horiz-adv-x="966" 
d="M934 1051l-168 -1051h-172l12 213q-51 -106 -132.5 -173t-180.5 -67q-114 0 -173 74.5t-59 214.5q0 55 15 154l100 635h225l-98 -623q-14 -96 -14 -133q0 -131 84 -131q54 0 110.5 67t97 169.5t58.5 211.5l68 439h227zM893 1374q0 -59 -35 -95t-90 -36q-51 0 -82 33
t-31 84q0 59 34 95t89 36q53 0 84 -33t31 -84zM553 1374q0 -59 -35 -95t-90 -36q-51 0 -82 33t-31 84q0 59 34 95t89 36q53 0 84 -33t31 -84z" />
    <glyph glyph-name="yacute" unicode="&#xfd;" horiz-adv-x="833" 
d="M885 1051q-237 -698 -430 -1051q-94 -172 -174.5 -270.5t-146 -134t-142.5 -35.5q-72 0 -117 20l35 168h92q47 0 91.5 50.5t117.5 193.5q-47 216 -77 497t-38 562h228q5 -383 53 -803h4q149 373 276 803h228zM811 1466l-260 -276l-109 76l209 307z" />
    <glyph glyph-name="thorn" unicode="&#xfe;" horiz-adv-x="960" 
d="M907 723q0 -80 -11.5 -161.5t-35 -166t-64.5 -156.5t-95.5 -129.5t-133.5 -90.5t-172 -33q-98 0 -153 14l-66 -420h-227l311 1956h225l-73 -457q-17 -102 -43 -219q42 95 115.5 156t162.5 61q131 0 195.5 -96t64.5 -258zM674 709q0 178 -99 178q-54 0 -110.5 -68
t-97 -170.5t-58.5 -210.5l-37 -239q50 -33 129 -33q72 0 128 56t86 143.5t44.5 175.5t14.5 168z" />
    <glyph glyph-name="ydieresis" unicode="&#xff;" horiz-adv-x="833" 
d="M885 1051q-237 -698 -430 -1051q-94 -172 -174.5 -270.5t-146 -134t-142.5 -35.5q-72 0 -117 20l35 168h92q47 0 91.5 50.5t117.5 193.5q-47 216 -77 497t-38 562h228q5 -383 53 -803h4q149 373 276 803h228zM827 1374q0 -59 -35 -95t-90 -36q-51 0 -81.5 33t-30.5 84
q0 59 34 95t89 36q53 0 83.5 -33t30.5 -84zM487 1374q0 -59 -35 -95t-90 -36q-51 0 -81.5 33t-30.5 84q0 59 34 95t89 36q53 0 83.5 -33t30.5 -84z" />
    <glyph glyph-name="dotlessi" unicode="&#x131;" horiz-adv-x="479" 
d="M446 1051l-167 -1051h-224l138 872h-117l28 179h342z" />
    <glyph glyph-name="Lslash" unicode="&#x141;" horiz-adv-x="768" 
d="M686 195l-29 -195h-612l115 713l-99 -64l-26 164l155 100l82 517h236l-59 -373l182 119l28 -164l-243 -154l-105 -663h375z" />
    <glyph glyph-name="lslash" unicode="&#x142;" horiz-adv-x="497" 
d="M553 1081l-137 -88l-115 -719q-10 -56 -0.5 -81t45.5 -25h53l-26 -170q-66 -16 -142 -16q-96 0 -140.5 55t-22.5 186l102 635l-80 -51l-18 162l129 82l75 485h226l-58 -352l91 59z" />
    <glyph glyph-name="OE" unicode="&#x152;" horiz-adv-x="1511" 
d="M1552 1430l-30 -191h-432l-64 -405h371l-31 -187h-371l-71 -457h436l-29 -190h-633q-100 -27 -184 -27q-215 0 -327.5 134t-112.5 387q0 78 9.5 162.5t32 179.5t56.5 182t88 168t121 140t160 94.5t202 35.5q81 0 183 -26h626zM852 1217q-64 40 -137 40q-87 0 -158.5 -60
t-114 -148.5t-72 -197.5t-40.5 -199t-11 -160q0 -320 224 -320q71 0 151 39z" />
    <glyph glyph-name="oe" unicode="&#x153;" horiz-adv-x="1492" 
d="M1440 819q0 -364 -572 -364q-8 -49 -8 -103q0 -99 40 -147.5t134 -48.5q124 0 275 51l8 -174q-165 -60 -332 -60q-217 0 -283 168q-123 -168 -317 -168q-170 0 -258 101.5t-88 294.5q0 53 6.5 112t23 129t41.5 134.5t65.5 126t92 106.5t124 72.5t157.5 27.5
q200 0 272 -168q120 168 318 168q143 0 222 -69t79 -189zM1221 803q0 53 -30 80.5t-79 27.5q-87 0 -141 -82.5t-78 -218.5q178 0 253 48.5t75 144.5zM666 682q0 209 -142 209q-66 0 -118 -59.5t-80 -147t-42 -170.5t-14 -147q0 -207 142 -207q53 0 98 40t73 100t47.5 133.5
t27.5 136.5t8 112z" />
    <glyph glyph-name="Scaron" unicode="&#x160;" horiz-adv-x="839" 
d="M842 1413l-54 -190q-87 43 -188 43t-152 -63t-51 -156q0 -63 37 -117t127 -125q199 -158 199 -352q0 -68 -18 -134t-57.5 -129t-97 -111t-143.5 -77t-190 -29q-136 0 -266 47l49 199q107 -47 225 -47q122 0 185 69.5t63 172.5q0 63 -37 117t-135 133q-191 157 -191 346
q0 88 29.5 167.5t85.5 142t144.5 99.5t197.5 37q141 0 238 -43zM864 1714l-278 -182l-228 182l66 115l180 -123l215 123z" />
    <glyph glyph-name="scaron" unicode="&#x161;" horiz-adv-x="690" 
d="M659 1044l-43 -178q-72 35 -153 35q-65 0 -102 -37.5t-37 -97.5q0 -40 20 -73.5t72 -71.5q98 -74 140 -137.5t42 -151.5q0 -157 -104.5 -258t-284.5 -101q-134 0 -229 39l47 187q92 -45 184 -45q71 0 112.5 39t41.5 104q0 41 -24 76t-85 82q-82 65 -121 130.5t-39 147.5
q0 155 102.5 249.5t262.5 94.5q111 0 198 -33zM750 1468l-295 -278l-219 280l92 107l151 -170l205 170z" />
    <glyph glyph-name="Ydieresis" unicode="&#x178;" horiz-adv-x="960" 
d="M1090 1430q-255 -488 -486 -818l-98 -612h-236l97 612q-134 366 -228 818h256q39 -281 135 -590q172 279 310 590h250zM948 1661q0 -57 -33 -91t-86 -34q-48 0 -78 32.5t-30 80.5q0 56 33.5 90.5t85.5 34.5q50 0 79 -32t29 -81zM590 1661q0 -57 -33 -91t-86 -34
q-49 0 -79 32.5t-30 80.5q0 56 32.5 90.5t84.5 34.5q50 0 80.5 -32.5t30.5 -80.5z" />
    <glyph glyph-name="Zcaron" unicode="&#x17d;" horiz-adv-x="851" 
d="M926 1430l-31 -189l-647 -1048h493l-30 -193h-760l31 188l643 1049h-457l31 193h727zM864 1714l-278 -182l-228 182l66 115l180 -123l215 123z" />
    <glyph glyph-name="zcaron" unicode="&#x17e;" horiz-adv-x="737" 
d="M735 1051l-28 -185l-449 -680h365l-31 -186h-629l29 182l452 682h-323l31 187h583zM766 1468l-295 -278l-219 280l92 107l152 -170l204 170z" />
    <glyph glyph-name="florin" unicode="&#x192;" 
d="M936 1440l-37 -166h-76q-48 0 -82.5 -16.5t-55.5 -50t-33 -69.5t-23 -91l-49 -236h223l-27 -178h-235l-95 -449q-16 -80 -37 -142t-54 -119.5t-76 -95t-103.5 -59.5t-136.5 -22q-73 0 -135 16l37 164h75q48 0 82 16t55.5 49.5t33.5 69.5t24 91l100 481h-194l24 178h211
l45 225q15 74 35 133t53 113.5t75.5 91t104 58.5t136.5 22q67 0 135 -14z" />
    <glyph glyph-name="circumflex" unicode="&#x2c6;" horiz-adv-x="595" 
d="M629 1296l-92 -106l-154 170l-203 -170l-65 106l295 281z" />
    <glyph glyph-name="caron" unicode="&#x2c7;" horiz-adv-x="595" 
d="M655 1468l-295 -278l-219 280l92 107l152 -170l205 170z" />
    <glyph glyph-name="breve" unicode="&#x2d8;" horiz-adv-x="548" 
d="M664 1528q-24 -144 -100.5 -230t-198.5 -86q-126 0 -181.5 87t-33.5 229h141q-11 -74 10.5 -118t77.5 -44t92.5 42t50.5 120h142z" />
    <glyph glyph-name="dotaccent" unicode="&#x2d9;" horiz-adv-x="479" 
d="M500 1376q0 -67 -40.5 -110t-101.5 -43q-60 0 -96.5 39t-36.5 96q0 68 41 110.5t103 42.5q59 0 95 -39t36 -96z" />
    <glyph glyph-name="ring" unicode="&#x2da;" horiz-adv-x="485" 
d="M526 1425q0 -34 -6.5 -67.5t-23 -67.5t-42 -60t-66.5 -42.5t-93 -16.5q-84 0 -128 42t-44 122q0 47 12.5 90t38.5 81.5t73 61.5t109 23q83 0 126.5 -42t43.5 -124zM395 1417q0 70 -55 70q-42 0 -64 -45t-22 -96q0 -70 55 -70q29 0 49.5 24.5t28.5 55t8 61.5z" />
    <glyph glyph-name="ogonek" unicode="&#x2db;" horiz-adv-x="505" 
d="M324 -350q-91 -74 -197 -74q-76 0 -119 39.5t-43 110.5q0 133 135 274h181q-66 -61 -98.5 -121.5t-32.5 -107.5q0 -50 45 -50q37 0 88 33z" />
    <glyph glyph-name="tilde" unicode="&#x2dc;" horiz-adv-x="686" 
d="M725 1432q-28 -85 -78.5 -133t-118.5 -48q-40 0 -73 13.5t-52 30.5t-42.5 30.5t-45.5 13.5q-52 0 -94 -92l-96 76q28 86 78.5 133t118.5 47q40 0 73 -13.5t52 -30.5t42.5 -30.5t45.5 -13.5q51 0 96 92z" />
    <glyph glyph-name="hungarumlaut" unicode="&#x2dd;" horiz-adv-x="696" 
d="M803 1464l-254 -274l-107 61l207 312zM467 1470l-240 -280l-106 61l196 318z" />
    <glyph glyph-name="Delta" unicode="&#x394;" horiz-adv-x="1107" 
d="M981 0h-1042q280 752 598 1430h294q102 -662 150 -1430zM729 190q-30 497 -88 1000h-2q-219 -510 -397 -1000h487z" />
    <glyph glyph-name="Delta" unicode="&#x2206;" horiz-adv-x="1107" 
d="M981 0h-1042q280 752 598 1430h294q102 -662 150 -1430zM729 190q-30 497 -88 1000h-2q-219 -510 -397 -1000h487z" />
    <glyph glyph-name="Omega" unicode="&#x3a9;" horiz-adv-x="1230" 
d="M1202 946q0 -231 -94.5 -441t-241.5 -327h248l-29 -178h-467l27 178q141 117 226 339t85 419q0 147 -56.5 233t-174.5 86q-79 0 -146 -49t-111 -125.5t-75.5 -171t-45 -182t-13.5 -162.5q0 -120 34 -221t95 -166l-29 -178h-467l27 178h254q-71 72 -111.5 186.5
t-40.5 253.5q0 89 16 181.5t48 187.5t86 178.5t124 149t169 103.5t215 38q216 0 332 -134t116 -376z" />
    <glyph glyph-name="Omega" unicode="&#x2126;" horiz-adv-x="1230" 
d="M1202 946q0 -231 -94.5 -441t-241.5 -327h248l-29 -178h-467l27 178q141 117 226 339t85 419q0 147 -56.5 233t-174.5 86q-79 0 -146 -49t-111 -125.5t-75.5 -171t-45 -182t-13.5 -162.5q0 -120 34 -221t95 -166l-29 -178h-467l27 178h254q-71 72 -111.5 186.5
t-40.5 253.5q0 89 16 181.5t48 187.5t86 178.5t124 149t169 103.5t215 38q216 0 332 -134t116 -376z" />
    <glyph glyph-name="pi" unicode="&#x3c0;" horiz-adv-x="1095" 
d="M1096 1051l-29 -179h-160l-84 -530q-8 -49 -9 -81.5t2.5 -51.5t16 -28.5t26 -12t38.5 -2.5h57l-24 -166q-55 -20 -156 -20q-112 0 -161 69t-25 225l94 598h-268l-140 -872h-223l137 872h-112l28 179h992z" />
    <glyph glyph-name="endash" unicode="&#x2013;" 
d="M944 721l-31 -189h-921l31 189h921z" />
    <glyph glyph-name="emdash" unicode="&#x2014;" horiz-adv-x="1843" 
d="M1694 721l-31 -189h-1497l29 189h1499z" />
    <glyph glyph-name="quoteleft" unicode="&#x2018;" horiz-adv-x="450" 
d="M559 1487q-83 -87 -114 -141.5t-31 -100.5q0 -19 15 -56t15 -73q0 -60 -38 -104.5t-99 -44.5q-60 0 -94.5 40.5t-34.5 104.5q0 97 74.5 218t226.5 247z" />
    <glyph glyph-name="quoteright" unicode="&#x2019;" horiz-adv-x="450" 
d="M481 1378q0 -97 -74 -218t-225 -247l-80 91q82 88 114 142.5t32 98.5q0 19 -15.5 56t-15.5 73q0 61 37.5 105.5t99.5 44.5q60 0 93.5 -40t33.5 -106z" />
    <glyph glyph-name="quotesinglbase" unicode="&#x201a;" horiz-adv-x="450" 
d="M287 133q0 -97 -74.5 -218t-226.5 -247l-80 88q83 88 114 143.5t31 100.5q0 19 -15.5 56t-15.5 73q0 61 38 105.5t100 44.5q60 0 94.5 -40t34.5 -106z" />
    <glyph glyph-name="quotedblleft" unicode="&#x201c;" horiz-adv-x="780" 
d="M885 1475q-79 -85 -109.5 -137.5t-30.5 -94.5q0 -18 14.5 -54t14.5 -69q0 -57 -35.5 -98t-93.5 -41q-56 0 -88.5 37.5t-32.5 99.5q0 91 71 205.5t214 232.5zM547 1483q-86 -91 -118 -144.5t-32 -95.5q0 -18 15.5 -54t15.5 -69q0 -57 -35.5 -98t-93.5 -41t-89.5 37
t-31.5 100q0 91 71.5 207.5t221.5 241.5z" />
    <glyph glyph-name="quotedblright" unicode="&#x201d;" horiz-adv-x="780" 
d="M813 1374q0 -92 -72 -208t-221 -242l-78 84q86 90 118 144t32 95q0 19 -14.5 54.5t-14.5 68.5q0 57 35.5 98t93.5 41q57 0 89 -37t32 -98zM467 1374q0 -92 -70.5 -206.5t-214.5 -233.5l-76 84q78 84 109 136.5t31 92.5q0 19 -14.5 54.5t-14.5 68.5q0 57 35.5 98t93.5 41
q56 0 88.5 -37t32.5 -98z" />
    <glyph glyph-name="quotedblbase" unicode="&#x201e;" horiz-adv-x="788" 
d="M625 135q0 -94 -72.5 -210.5t-224.5 -243.5l-78 83q86 92 118.5 146.5t32.5 97.5q0 18 -15 54t-15 69q0 58 36.5 99.5t94.5 41.5t90.5 -37.5t32.5 -99.5zM272 135q0 -94 -70.5 -209t-215.5 -235l-78 84q80 85 110.5 137.5t30.5 95.5q0 18 -14.5 54t-14.5 69q0 58 36 99.5
t94 41.5q59 0 90.5 -37t31.5 -100z" />
    <glyph glyph-name="dagger" unicode="&#x2020;" 
d="M918 1184l-27 -168h-275l7 -246q-7 -60 -23.5 -133t-32 -126t-43.5 -146.5t-43 -145.5h-153q0 35 0.5 117t1 120.5t3 101t9 113t16.5 99.5l84 246h-272l27 168h272q0 176 12 352h262q-58 -221 -100 -352h275z" />
    <glyph glyph-name="daggerdbl" unicode="&#x2021;" 
d="M918 1184l-27 -168h-283q29 -44 29 -90q0 -72 -25 -195t-67 -211h266l-27 -168h-272q0 -177 -12 -352h-260q48 195 98 352h-275l27 168h281q-29 44 -29 94q0 73 26.5 195.5t65.5 206.5h-264l27 168h272q0 188 14 352h260q-67 -254 -100 -352h275z" />
    <glyph glyph-name="bullet" unicode="&#x2022;" 
d="M817 725q0 -154 -102 -257t-244 -103q-137 0 -231.5 95.5t-94.5 235.5q0 154 102.5 257.5t244.5 103.5q137 0 231 -95.5t94 -236.5z" />
    <glyph glyph-name="ellipsis" unicode="&#x2026;" horiz-adv-x="1333" 
d="M1167 141q0 -68 -42.5 -112.5t-104.5 -44.5q-58 0 -95.5 41t-37.5 100q0 69 42.5 113.5t104.5 44.5q58 0 95.5 -41.5t37.5 -100.5zM735 141q0 -68 -43 -112.5t-104 -44.5q-59 0 -97 41t-38 100q0 69 42.5 113.5t104.5 44.5q59 0 97 -41t38 -101zM301 141
q0 -68 -43 -112.5t-104 -44.5q-59 0 -97.5 41t-38.5 100q0 69 42.5 113.5t105.5 44.5q59 0 97 -41t38 -101z" />
    <glyph glyph-name="perthousand" unicode="&#x2030;" horiz-adv-x="1918" 
d="M1831 453q0 -48 -7 -102t-29 -123.5t-57 -123.5t-97.5 -91.5t-143.5 -37.5q-225 0 -225 250q0 33 4 70.5t15 84.5t27 91t43 86.5t60.5 74t81.5 51t105 19.5q223 0 223 -249zM686 1202q0 -32 -4 -69.5t-15 -84.5t-27 -91t-43 -86t-60.5 -73.5t-81.5 -51t-105 -19.5
q-223 0 -223 250q0 48 7 102t29 123.5t57 123t97.5 91t143.5 37.5q225 0 225 -252zM1253 1407l-1063 -1473l-114 89l1063 1472zM1214 453q0 -39 -5 -83t-17.5 -100.5t-37.5 -106.5t-60 -93.5t-90.5 -69t-124.5 -25.5q-224 0 -224 250q0 33 4 70.5t15 84.5t27 91t43 86.5
t60.5 74t81.5 51t105 19.5q223 0 223 -249zM1659 465q0 57 -18 80.5t-52 23.5q-41 0 -72 -44t-45.5 -107.5t-21 -115.5t-6.5 -87q0 -58 17 -81t52 -23q34 0 61 30t42 73t25.5 95t14 90.5t3.5 65.5zM514 1214q0 58 -17.5 81.5t-52.5 23.5q-41 0 -72 -43.5t-45.5 -107
t-21 -115.5t-6.5 -88q0 -57 18 -81t52 -24q41 0 72 44t45.5 107.5t21 115.5t6.5 87zM1042 465q0 57 -17.5 80.5t-51.5 23.5q-41 0 -72.5 -44t-46 -107.5t-21 -115.5t-6.5 -87q0 -58 17.5 -81t52.5 -23q41 0 72 43.5t45.5 107t21 115.5t6.5 88z" />
    <glyph glyph-name="guilsinglleft" unicode="&#x2039;" horiz-adv-x="612" 
d="M526 969l-237 -402l110 -401l-168 -60l-170 474l312 460z" />
    <glyph glyph-name="guilsinglright" unicode="&#x203a;" horiz-adv-x="612" 
d="M545 567l-309 -461l-154 72l237 402l-112 401l168 59z" />
    <glyph glyph-name="fraction" unicode="&#x2044;" horiz-adv-x="632" 
d="M928 1407l-1063 -1473l-113 89l1063 1472z" />
    <glyph glyph-name="fraction" unicode="&#x2215;" horiz-adv-x="632" 
d="M928 1407l-1063 -1473l-113 89l1063 1472z" />
    <glyph glyph-name="trademark" unicode="&#x2122;" horiz-adv-x="1159" 
d="M1184 1430q-36 -357 -76 -599h-131q30 179 63 435l-174 -435h-133l-35 435q-23 -128 -71 -435h-121q50 300 115 599h188l25 -408l155 408h195zM551 1430l-21 -125h-110l-78 -474h-141l75 474h-112l20 125h367z" />
    <glyph glyph-name="partialdiff" unicode="&#x2202;" horiz-adv-x="974" 
d="M928 971q0 -52 -3.5 -114.5t-17 -163.5t-35.5 -193.5t-64 -191.5t-97 -170.5t-140.5 -118t-189.5 -46.5q-174 0 -258 102t-84 281q0 81 14 168.5t51 186t91.5 175t145 127t202.5 50.5q93 0 141 -39q-1 103 -21.5 173t-62 107.5t-93.5 53t-124 14.5l39 184
q259 6 382.5 -145t123.5 -440zM686 829q-71 52 -137 52q-62 0 -112.5 -40t-80.5 -100t-51 -133.5t-29 -136t-8 -113.5q0 -202 133 -202q47 0 86.5 29t68 82t51 116.5t38 143.5t25 151.5t16.5 150.5z" />
    <glyph glyph-name="product" unicode="&#x220f;" horiz-adv-x="1351" 
d="M1417 1477l-35 -209h-161l-267 -1688h-235l266 1688h-401l-267 -1688h-235l266 1688h-162l35 209h1196z" />
    <glyph glyph-name="summation" unicode="&#x2211;" horiz-adv-x="978" 
d="M1020 1477l-31 -199h-526l313 -733l-549 -758h551l-33 -207h-829l33 205l563 764l-311 733l30 195h789z" />
    <glyph glyph-name="minus" unicode="&#x2212;" 
d="M879 727l-29 -182h-791l29 182h791z" />
    <glyph glyph-name="radical" unicode="&#x221a;" 
d="M1049 1430l-529 -1430h-293l-67 872h-97l29 177h289l37 -576q5 -124 -2 -260h2q22 94 71 242l340 975h220z" />
    <glyph glyph-name="infinity" unicode="&#x221e;" horiz-adv-x="1540" 
d="M1497 793q0 -54 -12 -109.5t-40.5 -112t-69.5 -100t-105 -71t-142 -27.5q-88 0 -172 56.5t-182 158.5q-128 -100 -232.5 -157.5t-191.5 -57.5q-129 0 -195.5 76t-66.5 190q0 54 12.5 110.5t41 112.5t70 99.5t104.5 70.5t139 27q88 0 172 -56.5t182 -158.5
q131 100 235 157.5t189 57.5q129 0 196.5 -76.5t67.5 -189.5zM1294 764q0 53 -25 83t-69 30q-45 0 -108 -41t-166 -125q71 -77 121.5 -116.5t95.5 -39.5q53 0 88.5 35.5t49 80.5t13.5 93zM655 719q-136 158 -215 158q-53 0 -89 -36.5t-49 -82t-13 -92.5q0 -52 24 -81.5
t70 -29.5q45 0 109.5 41.5t162.5 122.5z" />
    <glyph glyph-name="integral" unicode="&#x222b;" horiz-adv-x="657" 
d="M758 1542l-25 -164h-71q-41 0 -69 -17t-45 -51.5t-25.5 -68t-16.5 -86.5l-187 -1188q-31 -199 -113.5 -304t-236.5 -105q-73 0 -129 16l25 164h72q33 0 58.5 12.5t40.5 30.5t27 51t18 59t13 70l189 1188q31 199 112.5 304.5t233.5 105.5q73 0 129 -17z" />
    <glyph glyph-name="approxequal" unicode="&#x2248;" 
d="M893 840q-101 -133 -240 -133q-54 0 -101.5 19t-76 42t-66.5 42t-75 19t-69 -21t-70 -63l-82 127q105 134 241 134q53 0 100.5 -19t76.5 -42.5t66.5 -42.5t74.5 -19q38 0 70.5 21.5t68.5 62.5zM823 401q-101 -133 -239 -133q-53 0 -100.5 19t-76.5 42.5t-67.5 42.5
t-75.5 19t-69 -21.5t-68 -62.5l-84 127q101 133 242 133q44 0 82.5 -12.5t66.5 -31t54 -36.5t55.5 -30.5t60.5 -12.5q37 0 69 21.5t68 62.5z" />
    <glyph glyph-name="notequal" unicode="&#x2260;" 
d="M887 948l-29 -184h-223l-152 -254h334l-29 -184h-413l-158 -267l-135 72l119 195h-150l29 184h225l152 254h-336l29 184h415l158 266l135 -73l-119 -193h148z" />
    <glyph glyph-name="lessequal" unicode="&#x2264;" 
d="M956 1356l-34 -228l-596 -319l495 -320l-35 -210l-682 444l33 188zM770 180l-29 -180h-749l28 180h750z" />
    <glyph glyph-name="greaterequal" unicode="&#x2265;" 
d="M891 911l-31 -188l-821 -444l35 227l596 317l-494 320l35 213zM776 180l-31 -180h-749l29 180h751z" />
    <glyph glyph-name="diamondrhombsolid" unicode="&#x25c6;" 
d="M850 713l-369 -369l-368 369l368 368z" />
    <glyph glyph-name="lozenge" unicode="&#x25ca;" horiz-adv-x="950" 
d="M928 725l-432 -725h-226l-204 745l432 728h225zM713 735l-133 516l-301 -514l135 -516z" />
    <glyph glyph-name="Circumflex" unicode="&#xe013;" horiz-adv-x="722" 
d="M676 1649l-68 -117l-178 123l-217 -123l-45 115l278 182z" />
    <glyph glyph-name="Tilde" unicode="&#xe014;" horiz-adv-x="802" 
d="M788 1712q-28 -84 -79.5 -130t-122.5 -46q-41 0 -75 13.5t-53 29.5t-43.5 29.5t-47.5 13.5q-55 0 -101 -90l-96 74q62 174 205 174q40 0 74 -13.5t53 -29.5t43 -29.5t47 -13.5q52 0 98 90z" />
    <glyph glyph-name="nbspace" unicode="&#xe0ca;" horiz-adv-x="442" 
 />
    <glyph glyph-name="Acute" unicode="&#xf6c9;" horiz-adv-x="561" 
d="M557 1673l-334 -143l-49 117l309 184z" />
    <glyph glyph-name="Caron" unicode="&#xf6ca;" horiz-adv-x="722" 
d="M684 1714l-278 -182l-228 182l66 115l180 -123l215 123z" />
    <glyph glyph-name="Dieresis" unicode="&#xf6cb;" horiz-adv-x="745" 
d="M756 1661q0 -57 -33 -91t-86 -34q-49 0 -79 32.5t-30 80.5q0 56 33.5 90.5t85.5 34.5q50 0 79.5 -32t29.5 -81zM397 1661q0 -57 -32.5 -91t-85.5 -34q-49 0 -79 32.5t-30 80.5q0 56 32.5 90.5t84.5 34.5q50 0 80 -32.5t30 -80.5z" />
    <glyph glyph-name="Grave" unicode="&#xf6ce;" horiz-adv-x="561" 
d="M555 1647l-61 -117l-320 143l82 158z" />
    <glyph glyph-name="onefitted" unicode="&#xf6dc;" horiz-adv-x="612" 
d="M387 0h-233l186 1182l-188 -142l-46 142l310 252h198z" />
    <glyph glyph-name="zerooldstyle" unicode="&#xf730;" 
d="M899 827q0 -66 -6.5 -137t-23 -156t-42 -162.5t-67.5 -151.5t-94.5 -127.5t-128 -86.5t-164.5 -33q-180 0 -262 101t-82 299q0 65 6 136t22.5 156t42 162.5t67 151.5t94.5 128t128 87t164 33q181 0 263.5 -101t82.5 -299zM668 836q0 104 -33.5 152t-102.5 48
q-57 0 -104.5 -53t-77.5 -132t-51 -174t-30 -174.5t-9 -137.5q0 -105 32.5 -153t102.5 -48q56 0 103.5 53t78 131.5t52 173t30.5 175t9 139.5z" />
    <glyph glyph-name="oneoldstyle" unicode="&#xf731;" 
d="M772 188l-29 -188h-698l31 188h246l120 773l-231 -152l-41 147l342 246h209l-162 -1014h213z" />
    <glyph glyph-name="twooldstyle" unicode="&#xf732;" 
d="M846 926q0 -69 -14.5 -128.5t-51.5 -129.5t-106 -148.5t-174 -171.5l-170 -153h448l-30 -195h-764l28 180l281 254q157 141 216.5 248t59.5 209q0 65 -34.5 103t-106.5 38q-97 0 -229 -59l-17 186q97 35 169 51.5t159 16.5q160 0 248 -78.5t88 -222.5z" />
    <glyph glyph-name="threeoldstyle" unicode="&#xf733;" 
d="M842 924q0 -146 -81.5 -258t-207.5 -148v-4q99 -15 155 -88.5t56 -183.5q0 -58 -13 -118t-51 -131t-97 -124.5t-161.5 -90t-234.5 -36.5q-149 0 -268 31l26 174q126 -15 223 -15q70 0 124.5 20.5t87 52t53.5 73t28.5 79t7.5 74.5q0 96 -62 139.5t-167 43.5h-96l29 182h83
q64 0 116.5 18.5t86.5 48.5t57 69t32.5 77.5t9.5 77.5q0 149 -154 149q-104 0 -236 -59l-14 178q187 72 340 72q156 0 242 -79.5t86 -223.5z" />
    <glyph glyph-name="fouroldstyle" unicode="&#xf734;" 
d="M831 289l-28 -193h-131l-54 -327h-231l53 327h-483l31 191l522 913h336l-144 -911h129zM584 993h-4l-402 -704h293z" />
    <glyph glyph-name="fiveoldstyle" unicode="&#xf735;" 
d="M860 1200l-33 -203h-428l-63 -354q58 6 104 6q175 0 265 -86t90 -244q0 -107 -33.5 -207t-98.5 -184t-173 -135t-244 -51q-149 0 -291 29l29 176q130 -17 235 -17q74 0 132.5 25.5t92.5 64t56 89t29.5 95t7.5 87.5q0 86 -52 128t-159 42q-62 0 -224 -19l129 758h629z" />
    <glyph glyph-name="sixoldstyle" unicode="&#xf736;" 
d="M926 1405l-54 -168q-92 39 -198 39q-66 0 -123 -38.5t-98 -105.5t-69.5 -146.5t-47.5 -172.5v-4q118 96 248 96t202 -83.5t72 -239.5q0 -71 -15 -148.5t-52 -161t-90.5 -149t-138.5 -108t-189 -42.5q-164 0 -240 102.5t-76 307.5q0 39 3 90t12 126.5t23.5 151.5t39.5 161
t57 161t79.5 146.5t104.5 121t134 81t166 30.5q144 0 250 -47zM623 569q0 150 -117 150q-43 0 -98 -22.5t-99 -57.5q-28 -181 -28 -287t30 -150t90 -44q52 0 96 46t70.5 112.5t41 134t14.5 118.5z" />
    <glyph glyph-name="sevenoldstyle" unicode="&#xf737;" 
d="M948 1200l-33 -203l-430 -880q-96 -191 -247 -377l-172 94q130 190 243 434l334 729h-502l33 203h774z" />
    <glyph glyph-name="eightoldstyle" unicode="&#xf738;" 
d="M928 1186q0 -257 -266 -438q90 -69 134 -142t44 -174q0 -60 -13.5 -120t-48.5 -122.5t-87 -109.5t-136.5 -77t-189.5 -30q-172 0 -266.5 72.5t-94.5 216.5q0 282 305 469q-72 62 -111.5 131.5t-39.5 165.5q0 186 115.5 307t326.5 121q160 0 244 -75.5t84 -194.5z
M694 1153q0 60 -32.5 93.5t-90.5 33.5q-85 0 -132.5 -67t-47.5 -156q0 -111 117 -201q186 140 186 297zM600 391q0 63 -33.5 113t-111.5 110q-103 -73 -158 -147.5t-55 -173.5q0 -71 39 -107t112 -36q93 0 150 73t57 168z" />
    <glyph glyph-name="nineoldstyle" unicode="&#xf739;" 
d="M868 819q0 -41 -3 -92.5t-12 -127.5t-23 -153t-39 -163t-57 -162.5t-80 -147t-105.5 -121.5t-135.5 -81.5t-167 -30.5q-132 0 -281 33l35 172q132 -27 250 -27q129 0 209.5 122.5t130.5 346.5v4q-115 -96 -248 -96q-139 0 -206.5 87t-67.5 234q0 72 15.5 151t52.5 162
t90.5 148.5t138.5 107.5t188 42q165 0 240 -103t75 -305zM643 850q0 104 -29 148t-90 44q-43 0 -80.5 -30.5t-62.5 -77.5t-43 -103t-26.5 -107.5t-8.5 -90.5q0 -154 117 -154q45 0 96.5 22t95.5 58q31 203 31 291z" />
    <glyph glyph-name="uniF639" horiz-adv-x="1003" 
d="M416 -27q-190 0 -268 107.5t-78 327.5q0 132 30 335q59 350 187 531.5t342 181.5q190 0 268 -107t78 -327q0 -127 -31 -336q-58 -349 -185.5 -531t-342.5 -182zM745 1036q0 132 -32 181t-105 49q-96 0 -162.5 -127t-111.5 -412q-35 -221 -35 -334q0 -132 31.5 -180.5
t105.5 -48.5q97 0 163.5 126.5t111.5 411.5q34 197 34 334z" />
    <glyph glyph-name="uniF63A" horiz-adv-x="843" 
d="M692 0h-739l31 190l243 291q191 228 264.5 371.5t73.5 251.5q0 153 -157 153q-91 0 -207 -51l-15 185q168 65 299 65q167 0 254.5 -81t87.5 -236q0 -149 -88 -324t-299 -414l-180 -206h463z" />
    <glyph glyph-name="uniF63B" horiz-adv-x="854" 
d="M207 -27q-131 0 -252 31l27 174q95 -14 206 -14q69 0 123 20.5t85.5 51t52.5 71.5t28.5 77.5t7.5 72.5q0 96 -62 140t-165 44h-82l29 182h69q64 0 116.5 18.5t85.5 48.5t55.5 69t32 77.5t9.5 77.5q0 152 -151 152q-106 0 -219 -58l-15 178q166 70 318 70q158 0 244 -80
t86 -225q0 -146 -81.5 -258t-207.5 -148v-4q99 -17 154 -90.5t55 -183.5q0 -56 -13 -115t-50.5 -129t-96 -124t-159.5 -90t-230 -36z" />
    <glyph glyph-name="uniF63C" horiz-adv-x="942" 
d="M852 326h-133l-53 -326h-228l51 326h-491l29 190l536 914h330l-143 -912h133zM522 518l111 705h-2l-416 -705h307z" />
    <glyph glyph-name="uniF63D" horiz-adv-x="890" 
d="M283 -27q-152 0 -287 29l29 176q118 -16 229 -16q70 0 125.5 25t88.5 62.5t54.5 87t29 94t7.5 87.5q0 172 -199 172q-87 0 -219 -20l129 760h613l-33 -203h-414l-63 -357q68 7 102 7q168 0 253 -85.5t85 -244.5q0 -84 -20 -165.5t-63 -155.5t-104 -130t-149.5 -89.5
t-193.5 -33.5z" />
    <glyph glyph-name="uniF63E" 
d="M375 -27q-163 0 -237.5 102.5t-74.5 301.5q0 55 5 126t21.5 178.5t42.5 208.5t74 206.5t110 183t155.5 127t206.5 49.5q139 0 246 -49l-52 -168q-90 41 -196 41q-68 0 -125.5 -39t-98.5 -106t-69 -147.5t-45 -174.5v-4q118 96 246 96q134 0 203 -82.5t69 -240.5
q0 -73 -15.5 -151.5t-52.5 -161.5t-90.5 -148t-137.5 -106.5t-185 -41.5zM625 569q0 150 -117 150q-97 0 -195 -80q-28 -181 -28 -287q0 -107 27.5 -150.5t90.5 -43.5q51 0 95.5 46t70.5 112.5t41 134t15 118.5z" />
    <glyph glyph-name="uniF63F" horiz-adv-x="860" 
d="M905 1227l-428 -885q-93 -184 -246 -371l-168 92q139 203 240 426l336 738h-492l33 203h758z" />
    <glyph glyph-name="uniF640" horiz-adv-x="950" 
d="M522 852q189 140 189 301q0 60 -32.5 93.5t-90.5 33.5q-87 0 -134.5 -66.5t-47.5 -156.5q0 -63 30 -111t86 -94zM676 748q40 -32 66.5 -58.5t54 -64.5t41.5 -85.5t14 -103.5q0 -62 -13.5 -122.5t-48 -123.5t-86.5 -110t-136 -77t-189 -30q-170 0 -263 72.5t-93 216.5
q0 280 303 469q-148 126 -148 297q0 186 114 307t322 121q160 0 243 -75.5t83 -194.5q0 -260 -264 -438zM471 616q-105 -75 -160 -149.5t-55 -173.5q0 -143 150 -143q96 0 152 72.5t56 168.5q0 68 -36 118t-107 107z" />
    <glyph glyph-name="uniF641" horiz-adv-x="923" 
d="M283 -27q-145 0 -279 35l35 172q127 -26 244 -26q132 0 213.5 120t130.5 347v2q-119 -97 -248 -97q-137 0 -203.5 87.5t-66.5 234.5q0 60 11 124.5t33.5 134t61 131t89 111t123.5 78.5t159 29q164 0 239.5 -102.5t75.5 -304.5q0 -57 -5 -128.5t-21.5 -179t-42.5 -208
t-74 -205t-110.5 -181t-156.5 -125.5t-208 -49zM649 791q31 200 31 288q0 104 -29.5 148.5t-91.5 44.5q-54 0 -98.5 -45.5t-70 -112.5t-39 -133t-13.5 -117q0 -153 119 -153q44 0 96.5 22t95.5 58z" />
    <glyph glyph-name="Ring" horiz-adv-x="1105" 
d="M684 1458q-182 0 -182 144q0 103 59 166t178 63q185 0 185 -145q0 -102 -59.5 -165t-180.5 -63zM784 1675q0 64 -59 64q-39 0 -62.5 -35.5t-23.5 -89.5q0 -66 59 -66q39 0 62.5 36t23.5 91z" />
    <glyph glyph-name="apple" horiz-adv-x="1572" 
d="M1442 1169q0 -8 -4 -8q-17 1 -23 1t-22.5 -2t-22.5 -3q-110 -6 -147 -14q-9 -10 -12 -35.5t-5 -32.5q0 -1 6 -31q5 -9 23 -14q27 4 39 27q0 12 -12 24q-4 4 -16.5 5.5t-16.5 9.5q3 6 8 7.5t15.5 0t13.5 -1.5q14 -5 24 -33q-3 -31 -30 -55q-5 -2 -17.5 -5t-17.5 -5
q-18 6 -28 9.5t-24.5 14.5t-21.5 25q-3 21 -2.5 31t4 29t4.5 30q-3 5 -7 7t-8 1t-9 0l-56 -2q0 2 -1 4t-1 4q4 4 13 5t10 1q9 -2 19.5 -2t23 1t18.5 1q8 8 8 35q3 7 6.5 30.5t10.5 31.5q7 2 9 1t7 -8t6 -8q5 -10 4.5 -35t3.5 -39q4 -7 10.5 -8.5t12.5 0.5t12 0q3 0 70 3
t117 10q5 -5 6 -7zM1067 1032l-6 -4q-57 0 -82 -10q-2 1 -6 2.5t-6.5 2.5t-5.5 4t-5 7q12 71 2 115q-1 2 -3 2.5t-5 -1t-5 -3t-5 -3.5t-4 -3q-63 -47 -68 -99q-15 -19 -30 -10q-7 10 -6 31t-1 33v63q-4 4 -13.5 3.5t-16.5 0.5q-1 1 -10 2.5t-9 8.5q12 -1 43 2.5t43 -0.5
q5 -6 5 -29t10 -27q15 8 42.5 29.5t43.5 28.5q3 -3 20 -3t19 -16q2 -17 2.5 -47.5t1.5 -40.5q1 -3 1 -8t1 -9t4 -7q15 -4 20 0q4 0 13 -2.5t16 -2.5q3 -3 0 -10zM733 1145q3 -43 -12 -64q-7 -6 -20.5 -20t-25 -22.5t-24.5 -10.5q-6 3 -10 -6t-10 -4q-3 6 -20.5 4t-20.5 -2
q-23 0 -35 6q-29 33 -31 53q-1 10 2 21q10 41 39 61q3 2 14 9t14.5 9t15.5 7t16.5 3.5t17.5 -1.5q73 -4 90 -43zM741 1360q-9 -12 -23 -17t-26 0q-2 3 -8.5 14.5t-9.5 19.5t-4 16q-9 19 -26 32.5t-29.5 18.5t-37.5 12t-34 10l-51 4q-2 -3 -9.5 -2.5t-11.5 -1.5
q-52 -19 -90 -43q-1 -2 -22 -22.5t-23 -38.5q-15 -52 -19 -143q4 -4 10.5 -5t14.5 0t12 0q38 5 142 5q2 -1 2 -6.5t-2 -8.5q-7 -9 -25 -1t-25 5q-12 1 -34.5 -1t-32.5 -1q-6 -1 -19.5 -2.5t-23.5 -4t-17 -7.5l-4 -8q-3 -42 0 -129q1 -4 1.5 -25.5t7.5 -32.5q31 -2 61.5 2
t50.5 5q5 2 6.5 2.5t7.5 -2.5t7 -3q1 -1 1 -4t1 -4l-6 -4q-20 7 -64.5 0t-75.5 -4q-60 -5 -75 -4q-73 -4 -105 6l-4 6q8 8 14 11q10 -6 66 -15q4 1 13.5 1t16.5 1.5t11 5.5q0 38 8 98.5t10 92.5l-4 8q-9 1 -29.5 0t-35 1t-27.5 9q-1 4 0.5 7.5t3.5 3.5q34 -11 92 -7l4 7
q8 90 25 135v6q76 112 195 127q47 7 114 -27q4 -2 15.5 -3.5t17.5 -4.5q70 -19 102 -72v-18zM1264 -119l-7 -8q-22 2 -78.5 -5t-80.5 -3q-51 3 -171 -7t-186 -1q-15 -3 -30.5 -4t-33.5 0t-28.5 2t-33 4t-29.5 4q-30 3 -61.5 3.5t-75.5 -0.5t-62 -1q-109 0 -164 -17
q-19 -5 -24 9q0 10 -1 40.5t-0.5 52t5.5 40.5q1 20 1 77t5 87q-4 30 -1 91t-1 91q0 38 10 268q2 54 1.5 146.5t0.5 146.5q5 14 19.5 13.5t23.5 0.5q8 -5 19 -5t24 2t19 1q18 23 20 2q2 -2 0.5 -12t3.5 -12q-3 -66 -1.5 -112t7 -151.5t6.5 -148.5q36 14 97 57.5t94 57.5
q2 1 14 10.5t21 13.5l2 3q2 3 3.5 3.5t5 2t5.5 -1.5q5 -3 5.5 -8.5t-0.5 -14.5t-1 -12q-15 -55 -8 -125q2 -5 6 -5.5t9.5 1.5t7.5 2q9 9 28 23t27 22q53 37 67 43q5 4 15.5 13.5t16.5 14t15 11.5t17 12t16 8l33 33q0 6 8 14q7 0 19 -12q0 -19 5 -58t5 -59q1 -4 5 -4.5
t5 -3.5q6 -11 -4 -41l4 -4q38 10 100.5 65t98.5 66q4 6 17 13t18 14q8 1 20.5 13.5t19.5 16.5t23 -6q7 0 10 -8q-1 -6 3 -14.5t4 -9.5q-2 -8 0 -29.5t-3 -26.5q1 -19 0 -34.5t1 -33t8 -30.5q-2 -8 3 -25t-1 -22q1 -6 1 -18.5t1.5 -21t5.5 -15.5q0 -3 0.5 -9t1 -10.5
t-0.5 -9.5t-3 -8q1 -8 3 -42.5t7 -52.5q-2 -4 -2 -9.5t1 -12.5t1 -10q0 -53 10 -152.5t11 -148.5q0 -1 1.5 -8t0.5 -11zM696 1104q-9 63 -43 70q-1 -6 -5 -7.5t-9.5 0t-7.5 0.5q-11 6 -23 2.5t-20 -14.5q-4 -7 -6 -15.5t-3 -14.5t1 -15.5t2.5 -14t5 -15t6 -13.5t7.5 -14
t7 -13q1 -4 4 -5.5t7 -0.5t8 0q11 -1 15 0t13.5 7.5t12.5 7.5q3 3 11.5 11t11 11.5t6.5 14t-1 18.5zM995 367q-4 21 -18 30q-13 13 -16 0q-8 -13 -11 -30.5t4 -30.5q1 -10 11.5 -11.5t19.5 3.5q14 11 10 39zM1210 -20q-17 48 -28 65q-3 7 -13.5 26t-16 32.5t-7.5 29.5
q-1 3 -4.5 10.5t-5 13.5t-0.5 11q8 12 28 27.5t27 25.5l-14 35q-9 -1 -18 -4.5t-19 -8.5t-15 -7q-2 -1 -6.5 -6t-8 -7.5t-8 -2.5t-7.5 5v160l-2 6q-10 0 -45 15q-1 -9 -3.5 -32t-2.5 -33.5t1 -33.5q-3 -11 -1.5 -40t-2.5 -40q3 -26 0.5 -106t-2.5 -105v-14h39q2 1 10 -2t9 2
v57q0 5 -3.5 20.5t-1.5 24.5t13 13q6 -3 9 -15.5t5 -15.5q-1 -10 7.5 -26t9.5 -21q10 -8 23.5 -33.5t23.5 -34.5q3 1 9.5 -2.5t10.5 -1.5q10 0 10 13zM999 31q0 27 -2 79t-2 76q0 6 1 17.5t1 20.5t-2 16q-9 6 -14.5 5.5t-15 -3.5t-15.5 -2q-8 -18 -7.5 -50t-0.5 -53
q-4 -14 -4 -53q1 -6 0.5 -45t7.5 -45q26 0 49 10q4 8 4 27zM918 252q-1 0 -6 -0.5t-7 -1t-6.5 -1.5t-7 -2t-6.5 -3t-6.5 -4.5t-5.5 -6t-5 -8.5q-3 -3 -5 -14t-6 -17.5t-13 -3.5q-4 20 -4 60q-4 3 -12.5 0t-12.5 0q-12 -9 -16 -27q0 -149 6 -227l4 -8q6 -6 20.5 -2.5
t18.5 0.5q-4 16 -2 43t-2 41q8 59 26 90q6 6 21 12.5t22 13.5q0 8 3.5 30.5t1.5 35.5zM750 61q5 11 7.5 24.5t3.5 22.5t-0.5 26.5t-2.5 24t-4 27.5t-4 25q2 7 -6.5 14.5t-20.5 15t-14 9.5q-2 4 -7 4t-6 -6q-17 3 -30 -8q-7 -4 -13.5 -16t-9.5 -15q-8 -6 -16 6q8 49 -4 152
l-5 14h-12q-9 -4 -11.5 -13.5t-1.5 -19t-1 -18.5q-3 -22 -3 -69.5t-3 -70.5q1 -20 -0.5 -67t0.5 -64q0 -10 -2.5 -34t-1.5 -39q15 -11 51 10q12 3 16.5 0t11.5 -14.5t11 -14.5q12 0 20 2q21 14 40 41.5t18 50.5zM545 -10v80q-6 24 -4.5 90t-12.5 84q-18 15 -36 24l-13 11
q-10 -2 -18.5 -1t-19 -1t-17.5 -9q-6 -5 -8.5 -12t-3 -22.5t-0.5 -18.5q13 -6 25.5 -2t26.5 1.5t21 -17.5q-1 -4 2.5 -12.5t-0.5 -12.5q-5 -11 0 -16q3 -4 1.5 -11t-5.5 -8q-8 -3 -23 -3.5t-22 -2.5q-18 -8 -28.5 -30t-12.5 -46q-4 -7 -2 -22t-2 -21q0 -22 25 -35q9 9 12 5
q8 -3 16 2t18 16t15 14q10 3 11.5 -5t-0.5 -18.5t4 -17.5q3 -5 13 -0.5t13 4.5q2 1 7.5 3t9.5 4t8 6zM406 371q-20 5 -84 0q-30 -4 -46 -17q-1 -22 -5 -66.5t-5 -66.5q2 -40 1.5 -112t0.5 -113q2 0 12 2.5t11 -0.5q6 2 19.5 -1.5t19.5 1.5q2 43 2 129q5 13 26 25q3 2 13 0.5
t12 5.5l-2 57q-3 4 -7.5 6t-7.5 2.5t-9.5 0t-8.5 -0.5q-8 -8 -12 -8q-7 2 -9.5 9.5t-3 19.5t-1.5 16q-3 7 6 21q17 7 63 16l10 8q-2 14 1.5 36t3.5 30zM705 158q10 -30 5.5 -60t-20.5 -53q-2 -3 -5 -5.5t-5 -3.5l-5 -2.5l-5 -2.5q-8 1 -13 5.5t-8 13t-4 15t-2 17.5t-2 16
q0 2 3 28.5t9 37.5q5 3 15 20t20 17l4 -6q-2 -10 5 -21t8 -16zM483 86q0 -21 -22 -47q-3 -1 -8.5 -5t-9.5 -5t-11 2q-6 2 -7 7t2 18l3 12q0 13 14 20q9 0 17 8q2 -1 5.5 -1t6.5 -0.5t6 -2.5t4 -6z" />
    </font>
</defs>
</svg>
