<?xml version="1.0" standalone="no"?>
<!DOCTYPE svg PUBLIC "-//W3C//DTD SVG 1.1//EN" "http://www.w3.org/Graphics/SVG/1.1/DTD/svg11.dtd" >
<svg xmlns="http://www.w3.org/2000/svg" xmlns:xlink="http://www.w3.org/1999/xlink" version="1.1">
<metadata>
Created by FontForge 20170731 at Tue Jan  3 11:33:25 2023
 By Aleksey,,,
Copr. by FSI 1993, designed by Factor Design
</metadata>
<defs>
<font id="FFDingbats-BasicForms" horiz-adv-x="1392" >
  <font-face 
    font-family="FFDingbats BasicForms"
    font-weight="500"
    font-stretch="normal"
    units-per-em="2048"
    panose-1="0 0 0 0 0 0 0 0 0 0"
    ascent="1638"
    descent="-410"
    x-height="1143"
    cap-height="1081"
    bbox="49 -8 6504 1632"
    underline-thickness="40"
    underline-position="-312"
    unicode-range="U+0021-FB01"
  />
<missing-glyph horiz-adv-x="1024" 
 />
    <glyph glyph-name=".notdef" horiz-adv-x="1024" 
 />
    <glyph glyph-name=".null" horiz-adv-x="0" 
 />
    <glyph glyph-name="nonmarkingreturn" horiz-adv-x="682" 
 />
    <glyph glyph-name="exclam" unicode="!" 
d="M1120 688q0 -177 -124.5 -301.5t-301.5 -124.5t-301.5 124.5t-124.5 301.5t124.5 301.5t301.5 124.5t301.5 -124.5t124.5 -301.5zM1036 688q0 141 -100.5 241.5t-241.5 100.5t-241.5 -100.5t-100.5 -241.5t100.5 -241.5t241.5 -100.5t241.5 100.5t100.5 241.5z" />
    <glyph glyph-name="dollar" unicode="$" 
d="M1247 688q0 -76 -73 -143.5t-201 -108.5t-279 -41t-279 41t-201 108.5t-73 143.5t73 143.5t201 108.5t279 41t279 -41t201 -108.5t73 -143.5zM1159 688q0 58 -64 106t-170.5 74.5t-230.5 26.5t-230.5 -26.5t-170.5 -74.5t-64 -106t64 -106t170.5 -74.5t230.5 -26.5
t230.5 26.5t170.5 74.5t64 106z" />
    <glyph glyph-name="percent" unicode="%" 
d="M987 688q0 -151 -41 -279t-108.5 -201t-143.5 -73t-143.5 73t-108.5 201t-41 279t41 279t108.5 201t143.5 73t143.5 -73t108.5 -201t41 -279zM901 688q0 124 -26.5 230.5t-74.5 170.5t-106 64t-106 -64t-74.5 -170.5t-26.5 -230.5t26.5 -230.5t74.5 -170.5t106 -64
t106 64t74.5 170.5t26.5 230.5z" />
    <glyph glyph-name="one" unicode="1" 
d="M1120 688q0 -177 -124.5 -301.5t-301.5 -124.5t-301.5 124.5t-124.5 301.5t124.5 301.5t301.5 124.5t301.5 -124.5t124.5 -301.5z" />
    <glyph glyph-name="four" unicode="4" 
d="M1247 688q0 -76 -73 -143.5t-201 -108.5t-279 -41t-279 41t-201 108.5t-73 143.5t73 143.5t201 108.5t279 41t279 -41t201 -108.5t73 -143.5z" />
    <glyph glyph-name="five" unicode="5" 
d="M987 688q0 -151 -41 -279t-108.5 -201t-143.5 -73t-143.5 73t-108.5 201t-41 279t41 279t108.5 201t143.5 73t143.5 -73t108.5 -201t41 -279z" />
    <glyph glyph-name="A" unicode="A" 
d="M1141 696q0 -36 -4 -85.5t-10.5 -100.5t-12 -91t-11.5 -79.5t-7 -44.5q-263 -49 -400 -49q-123 0 -397 51q-49 263 -49 395q0 141 49 404q3 0 43.5 6.5t78.5 11.5t89 11.5t99.5 10t84.5 3.5q94 0 402 -43q1 -5 7 -44.5t11.5 -80t12 -91.5t10.5 -100t4 -84zM1055 696
q0 45 -5.5 100.5t-17.5 138t-12 85.5q-9 1 -66.5 9t-90 12t-83 8t-86.5 4t-87 -4.5t-81.5 -8t-90.5 -11.5t-64 -9q-35 -228 -35 -328q0 -101 35 -323q234 -37 325 -37q96 0 324 35q2 13 9.5 66.5t12 89t9 86t4.5 87.5z" />
    <glyph glyph-name="B" unicode="B" 
d="M1298 842l-372 -271l141 -436l-369 271l-376 -269l143 434l-377 271h467l141 440l142 -440h460zM1059 764l-287 -8l-80 250l-80 -252l-282 10l231 -162l-90 -266l221 176l223 -174l-90 264z" />
    <glyph glyph-name="C" unicode="C" 
d="M1133 510l-261 -260h-358l-260 260v358l258 258h356l265 -262v-354zM1044 543v286l-210 211h-287l-209 -209v-286l211 -209h289z" />
    <glyph glyph-name="D" unicode="D" 
d="M1315 696l-613 -329l-622 329l612 312zM1133 692l-441 217l-434 -217l440 -233z" />
    <glyph glyph-name="E" unicode="E" 
d="M1118 604h-852q0 177 124.5 301.5t301.5 124.5t301.5 -124.5t124.5 -301.5zM1024 690q-30 112 -121.5 184t-210.5 72t-210.5 -72t-121.5 -184h664z" />
    <glyph glyph-name="F" unicode="F" 
d="M1018 694l-330 -622l-311 612l311 623zM926 690l-234 434l-217 -440l217 -434z" />
    <glyph glyph-name="G" unicode="G" 
d="M1311 692q-12 -10 -34 -26t-91 -57t-138.5 -72.5t-167 -57.5t-186.5 -26t-184.5 24.5t-168 59.5t-133 70.5t-92.5 60.5l-32 24q12 10 33.5 26t89.5 57t136 72.5t165 57t186 25.5t185 -24.5t170 -59.5t135 -70t94 -60zM1167 692q-86 57 -210 104.5t-263 47.5t-263 -47.5
t-210 -104.5q52 -34 112 -64.5t162 -59.5t199 -29t199 29t162 59.5t112 64.5z" />
    <glyph glyph-name="H" unicode="H" 
d="M932 690q0 -89 -24.5 -184.5t-60 -168t-71 -133t-60.5 -92.5l-24 -32q-10 12 -26 33.5t-56.5 89.5t-72 136t-57 165t-25.5 186t24.5 185t59.5 170t69.5 135t59.5 94l24 33q10 -12 26 -34t57.5 -91t73 -138.5t57.5 -167t26 -186.5zM846 690q0 139 -48 262t-106 211
q-57 -86 -104 -210t-47 -263t47 -263t104 -210q58 88 106 211t48 262z" />
    <glyph glyph-name="I" unicode="I" 
d="M1155 287h-917l458 794zM1006 373l-314 536l-309 -536h623z" />
    <glyph glyph-name="J" unicode="J" 
d="M1225 467h-1059v451h1059v-451zM1141 553v278h-891v-278h891z" />
    <glyph glyph-name="K" unicode="K" 
d="M920 164h-451v1059h451v-1059zM834 248v891h-279v-891h279z" />
    <glyph glyph-name="L" unicode="L" 
d="M1200 807l-194 -592h-621l-190 592l505 367zM1098 772l-402 295l-403 -295l153 -471h494z" />
    <glyph glyph-name="M" unicode="M" 
d="M1319 688l-346 -115l157 -315l-317 152l-115 -340l-120 338l-316 -154l154 315l-340 121l338 115l-154 319l318 -157l118 344l115 -344l319 157l-155 -317zM1051 688l-191 70l90 186l-188 -90l-68 190l-63 -192l-191 90l92 -186l-194 -68l194 -65l-94 -191l193 94
l63 -194l68 194l190 -94l-92 195z" />
    <glyph glyph-name="N" unicode="N" 
d="M1192 975l-168 -285l166 -280h-326l-168 -283l-166 283h-331l166 284l-166 283h327l166 285l168 -287h332zM1042 891h-233l-117 196l-114 -194h-230l119 -195l-119 -204h234l114 -197l117 197h227l-114 196z" />
    <glyph glyph-name="O" unicode="O" 
d="M1083 229l-794 459l794 459v-918zM997 375v622l-536 -313z" />
    <glyph glyph-name="P" unicode="P" 
d="M1120 260h-852v852h852v-852zM1034 346v680h-680v-680h680z" />
    <glyph glyph-name="Q" unicode="Q" 
d="M1118 874q0 -177 -124.5 -301t-301.5 -124t-301.5 124t-124.5 301h852zM1024 788h-664q30 -112 121.5 -184t210.5 -72t210.5 72t121.5 184z" />
    <glyph glyph-name="R" unicode="R" 
d="M942 291q-177 0 -301.5 124.5t-124.5 301.5t124.5 301.5t301.5 124.5v-852zM856 385v664q-112 -30 -184 -121.5t-72 -210.5t72 -210.5t184 -121.5z" />
    <glyph glyph-name="S" unicode="S" 
d="M1235 686l-541 -541l-540 541l540 541zM1114 686l-420 420l-420 -420l420 -420z" />
    <glyph glyph-name="T" unicode="T" 
d="M1151 1079l-459 -794l-459 794h918zM1006 993h-623l313 -536z" />
    <glyph glyph-name="U" unicode="U" 
d="M1087 684l-794 -459v918zM915 688l-536 309v-622z" />
    <glyph glyph-name="V" unicode="V" 
d="M1346 684l-482 -168l-164 -483l-168 479l-483 170l479 162l170 487l162 -483zM1077 684l-284 96l-95 283l-102 -287l-281 -94l285 -102l100 -281l97 285z" />
    <glyph glyph-name="W" unicode="W" 
d="M1001 717q0 -177 -124.5 -301.5t-301.5 -124.5v852q177 0 301.5 -124.5t124.5 -301.5zM918 717q0 119 -72 210.5t-184 121.5v-664q112 30 184 121.5t72 210.5z" />
    <glyph glyph-name="X" unicode="X" 
d="M1135 434l-437 -250l-448 252v502l452 254l433 -254v-504zM1051 479v412l-355 203l-358 -201v-412l360 -202z" />
    <glyph glyph-name="a" unicode="a" 
d="M1141 696q0 -36 -4 -85.5t-10.5 -100.5t-12 -91t-11.5 -79.5t-7 -44.5q-263 -49 -400 -49q-123 0 -397 51q-49 263 -49 395q0 141 49 404q3 0 43.5 6.5t78.5 11.5t89 11.5t99.5 10t84.5 3.5q94 0 402 -43q1 -5 7 -44.5t11.5 -80t12 -91.5t10.5 -100t4 -84z" />
    <glyph glyph-name="b" unicode="b" 
d="M1298 842l-372 -271l141 -436l-369 271l-376 -269l143 434l-377 271h467l141 440l142 -440h460z" />
    <glyph glyph-name="c" unicode="c" 
d="M1133 510l-261 -260h-358l-260 260v358l258 258h356l265 -262v-354z" />
    <glyph glyph-name="d" unicode="d" 
d="M1315 696l-613 -329l-622 329l612 312z" />
    <glyph glyph-name="e" unicode="e" 
d="M1118 604h-852q0 177 124.5 301.5t301.5 124.5t301.5 -124.5t124.5 -301.5z" />
    <glyph glyph-name="f" unicode="f" 
d="M1018 694l-330 -622l-311 612l311 623z" />
    <glyph glyph-name="g" unicode="g" 
d="M1311 692q-12 -10 -34 -26t-91 -57t-138.5 -72.5t-167 -57.5t-186.5 -26t-184.5 24.5t-168 59.5t-133 70.5t-92.5 60.5l-32 24q12 10 33.5 26t89.5 57t136 72.5t165 57t186 25.5t185 -24.5t170 -59.5t135 -70t94 -60z" />
    <glyph glyph-name="h" unicode="h" 
d="M932 690q0 -89 -24.5 -184.5t-60 -168t-71 -133t-60.5 -92.5l-24 -32q-10 12 -26 33.5t-56.5 89.5t-72 136t-57 165t-25.5 186t24.5 185t59.5 170t69.5 135t59.5 94l24 33q10 -12 26 -34t57.5 -91t73 -138.5t57.5 -167t26 -186.5z" />
    <glyph glyph-name="i" unicode="i" 
d="M1155 287h-917l458 794z" />
    <glyph glyph-name="j" unicode="j" 
d="M1225 467h-1059v451h1059v-451z" />
    <glyph glyph-name="k" unicode="k" 
d="M920 164h-451v1059h451v-1059z" />
    <glyph glyph-name="l" unicode="l" 
d="M1200 807l-194 -592h-621l-190 592l505 367z" />
    <glyph glyph-name="m" unicode="m" 
d="M1319 688l-346 -115l157 -315l-317 152l-115 -340l-120 338l-316 -154l154 315l-340 121l338 115l-154 319l318 -157l118 344l115 -344l319 157l-155 -317z" />
    <glyph glyph-name="n" unicode="n" 
d="M1192 975l-168 -285l166 -280h-326l-168 -283l-166 283h-331l166 284l-166 283h327l166 285l168 -287h332z" />
    <glyph glyph-name="o" unicode="o" 
d="M1083 229l-794 459l794 459v-918z" />
    <glyph glyph-name="p" unicode="p" 
d="M1120 260h-852v852h852v-852z" />
    <glyph glyph-name="q" unicode="q" 
d="M1118 874q0 -177 -124.5 -301t-301.5 -124t-301.5 124t-124.5 301h852z" />
    <glyph glyph-name="r" unicode="r" 
d="M942 291q-177 0 -301.5 124.5t-124.5 301.5t124.5 301.5t301.5 124.5v-852z" />
    <glyph glyph-name="s" unicode="s" 
d="M1237 686l-543 -543l-542 543l542 543z" />
    <glyph glyph-name="t" unicode="t" 
d="M1151 1079l-459 -794l-459 794h918z" />
    <glyph glyph-name="u" unicode="u" 
d="M1087 684l-794 -459v918z" />
    <glyph glyph-name="v" unicode="v" 
d="M1346 684l-482 -168l-164 -483l-168 479l-483 170l479 162l170 487l162 -483z" />
    <glyph glyph-name="w" unicode="w" 
d="M1001 717q0 -177 -124.5 -301.5t-301.5 -124.5v852q177 0 301.5 -124.5t124.5 -301.5z" />
    <glyph glyph-name="x" unicode="x" 
d="M1135 434l-437 -250l-448 252v502l452 254l433 -254v-504z" />
    <glyph glyph-name="exclamdown" unicode="&#xa1;" horiz-adv-x="2007" 
d="M1821 813q0 -167 -65 -318.5t-174.5 -261t-261.5 -174.5t-319 -65t-318.5 65t-261 174.5t-174.5 261t-65 318.5t65 318.5t174.5 260.5t261 173.5t318.5 64.5t319 -64.5t261.5 -173.5t174.5 -260.5t65 -318.5zM1745 813q0 202 -100 372.5t-271 269.5t-373 99
q-150 0 -287.5 -58.5t-236.5 -157.5t-158 -236.5t-59 -288.5t59 -288.5t158 -237t236.5 -158.5t287.5 -59q202 0 373 99.5t271 270.5t100 373zM1624 815q-257 -273 -563 -305q-78 -8 -157.5 5t-144 39t-125 59.5t-105 68.5t-78.5 64.5t-51 47.5l-17 19q270 280 586 305
q187 6 346 -73.5t309 -229.5zM1516 813q-186 168 -388 215q45 -28 76.5 -70.5t40.5 -87.5q17 -83 -14.5 -156t-102.5 -114q205 47 388 213zM877 600q-105 60 -121 178q-11 76 21.5 143.5t99.5 106.5q-201 -46 -388 -215q184 -167 388 -213zM1182 815q0 75 -52.5 125.5
t-130.5 50.5q-75 0 -126.5 -50.5t-51.5 -125.5q0 -73 52 -127.5t126 -54.5q77 0 130 54.5t53 127.5zM1100 813q0 -40 -29 -68t-70 -28q-40 0 -68 28t-28 68t28 68t68 28q41 0 70 -28t29 -68z" />
    <glyph glyph-name="cent" unicode="&#xa2;" horiz-adv-x="2007" 
d="M1825 815q0 -167 -65 -318.5t-174.5 -261t-261 -174.5t-318.5 -65q-166 0 -318 65t-262 174.5t-175 261t-65 318.5q0 134 41.5 258.5t117.5 225t177 176t226 116.5t258 41q167 0 318.5 -64.5t261 -173.5t174.5 -260.5t65 -318.5zM1749 815q0 150 -59 288t-158.5 237.5
t-237 159t-288.5 59.5t-288.5 -59.5t-236.5 -159t-158 -237.5t-59 -288q0 -202 99.5 -372.5t270 -269.5t372.5 -99q151 0 288.5 58.5t237 157.5t158.5 236.5t59 288.5zM1217 764q-39 -60 -119 -107q-10 -12 -30 -40.5t-33.5 -46.5t-37 -37t-47.5 -27q-40 -3 -69 4t-43 18.5
t-22 28.5t-9.5 26t-1.5 17l78 6q-3 -7 -0.5 -12t15 -10t42.5 0q23 18 47.5 52.5t50 64t56.5 44.5q102 71 86 205q-8 46 -33.5 87t-65.5 65q-30 15 -73.5 14.5t-73.5 -18.5q-49 -29 -68 -72q-13 6 -36.5 22t-28.5 19q37 65 103 99t140 24q105 -16 166 -111q44 -67 45.5 -159
t-38.5 -156zM1378 1176q69 -114 60 -267.5t-92 -257.5q-56 -82 -183 -143q-31 -20 -45.5 -81.5t-30.5 -80.5q-35 -51 -87.5 -74.5t-114.5 -17.5q-46 9 -80.5 31.5t-51 46t-26.5 52t-12 43.5t-2 28l73 2q0 -34 19 -65t51 -50q30 -14 66.5 -13t60.5 19q26 16 39 40t21.5 58.5
t15.5 49.5q9 21 23.5 38.5t39.5 34t36 23t42 22.5q103 72 142.5 191.5t7.5 245.5q-21 87 -91.5 161t-154.5 91q-67 11 -126.5 -1.5t-96.5 -38.5t-64.5 -53.5t-38.5 -47.5l-12 -21l-64 39q59 101 157.5 157.5t211.5 46.5q97 -9 179 -64.5t128 -143.5z" />
    <glyph glyph-name="copyright" unicode="&#xa9;" horiz-adv-x="2048" 
d="M1821 815q0 -167 -65 -318.5t-174.5 -261t-261.5 -174.5t-319 -65q-166 0 -317.5 65t-261 174.5t-174 261t-64.5 318.5q0 111 29.5 217t82 195.5t128 165t165 128t195.5 82t217 29.5q134 0 259 -41.5t226 -117t176.5 -176t117 -225t41.5 -257.5zM1688 840
q-148 141 -394 241l-104 31q-33 5 -64 -5.5t-63.5 -29t-52.5 -24.5q-28 4 -61.5 22.5t-65.5 30.5t-66 6q-272 -75 -491 -272l71 -78q317 -300 647 -287q344 27 644 365zM1501 868q-153 -29 -317.5 -38.5t-302.5 -1t-221 17.5t-148 20q156 107 330 154q14 -4 70 -33t100 -29
q43 3 94 30.5t65 31.5q163 -45 330 -152zM1483 768q-329 -263 -629 -180q-159 47 -324 180l236 -31q85 -10 173.5 -12t185 4.5t172.5 15t186 23.5z" />
    <glyph glyph-name="registered" unicode="&#xae;" horiz-adv-x="2007" 
d="M1821 813q0 -167 -65 -318.5t-174.5 -261t-261.5 -174.5t-319 -65q-166 0 -317.5 65t-261 174.5t-174 261t-64.5 318.5q0 112 29.5 218t82 195.5t128 165t165 128t195.5 81.5t217 29q167 0 319 -64.5t261.5 -173.5t174.5 -260.5t65 -318.5zM1745 813q0 202 -100 373
t-271 270.5t-373 99.5q-151 0 -288.5 -59t-236.5 -158.5t-157.5 -237t-58.5 -288.5t58.5 -288.5t157.5 -236.5t236.5 -157.5t288.5 -58.5q202 0 373 99t271 269.5t100 372.5zM1616 840q-266 -299 -578 -324q-164 -8 -306 59.5t-279 196.5l-66 68q198 175 444 243
q30 7 60 -4.5t61 -28.5t54 -20q19 6 49 23t57.5 26t56.5 4l97 -26q211 -86 350 -217zM1466 862q-155 107 -313 148q-18 -3 -62.5 -28t-82.5 -28q-39 1 -87.5 26t-68.5 30q-160 -41 -313 -148q19 -4 53.5 -9t140 -15.5t210.5 -14t250 5t273 33.5zM1450 782q-94 -14 -166 -22
t-160 -14.5t-173 -4t-165 12.5l-231 28q151 -128 307 -174q291 -80 588 174z" />
    <glyph glyph-name="aring" unicode="&#xe5;" horiz-adv-x="2048" 
d="M1821 815q0 -167 -65 -318.5t-174.5 -261t-261.5 -174.5t-319 -65t-318.5 65t-261 174.5t-174.5 261t-65 318.5t65 318.5t174.5 260.5t261 173.5t318.5 64.5t319 -64.5t261.5 -173.5t174.5 -260.5t65 -318.5zM1694 819q-167 167 -345.5 255.5t-381.5 82.5
q-358 -28 -652 -340q14 -15 33 -34t63 -57.5t91 -72.5t114.5 -71t135 -62t151 -38t164.5 -5q338 32 627 342zM819 1022q-54 -46 -78.5 -111t-15.5 -137q17 -102 90 -164l-6 -8q-188 59 -365 213q175 158 369 215zM1563 815q-183 -160 -369 -215l-6 8q55 49 77.5 120.5
t8.5 150.5q-17 85 -84 143l6 8q189 -60 367 -215zM1192 815q0 -77 -55 -134.5t-136 -57.5q-76 0 -133 58t-57 134q0 79 56.5 134t133.5 55q83 0 137 -54.5t54 -134.5zM1092 815q0 37 -26 62.5t-65 25.5q-37 0 -63.5 -25.5t-26.5 -62.5t26.5 -64.5t63.5 -27.5q39 0 65 27
t26 65z" />
    <glyph glyph-name="ccedilla" unicode="&#xe7;" horiz-adv-x="2007" 
d="M1821 813q0 -167 -65 -318.5t-175 -261t-262 -174.5t-318 -65q-167 0 -318.5 65t-261 174.5t-174.5 261t-65 318.5q0 166 65 317.5t174.5 261.5t261 175t318.5 65q166 0 318 -65t262 -175t175 -261.5t65 -317.5zM1298 596q-70 113 -247 96l14 -94q65 14 115 -12
q22 -12 36.5 -32.5t14.5 -41.5q0 -64 -49 -96q-28 -20 -70 -20t-70 20q-98 56 -256 -21q-58 -13 -114 43q-22 28 -27.5 66t8.5 69l551 809l-78 54l-551 -811q-18 -31 -26 -95q0 -67 35 -126.5t94 -88.5q95 -40 229 25q19 11 44.5 7.5t41.5 -10.5l40 -17.5t40 -14.5
q63 -9 120 12.5t93 71.5q32 38 35.5 100t-23.5 107z" />
    <glyph glyph-name="oslash" unicode="&#xf8;" horiz-adv-x="2007" 
d="M1821 813q0 -167 -65 -318.5t-174.5 -261t-261.5 -174.5t-319 -65t-318.5 65t-260.5 174.5t-173.5 261t-64.5 318.5t64.5 318.5t173.5 261t260.5 174.5t318.5 65t319 -65t261.5 -174.5t174.5 -261t65 -318.5zM1149 1161q-3 3 -19 18t-20.5 18.5t-18.5 15t-22 15.5
t-20.5 11t-25 10t-26.5 4q-27 -3 -55.5 -19t-43 -29.5t-44.5 -43.5q3 -93 22.5 -163t69.5 -128q23 -23 51 -26q35 3 58 26q50 58 69.5 127t24.5 164zM1743 813q0 202 -99.5 371.5t-270 267.5t-372.5 98q-201 0 -372 -98t-271 -268t-100 -371q0 -227 130.5 -414t334.5 -274
l2 319l51 748q41 41 69 65t72 47t84 23q31 0 60.5 -10.5t63 -35.5t49.5 -39.5t53 -49.5l51 -748l4 -319q205 85 333 272t128 416zM1206 102v265l-8 219l-22 317q-22 -55 -69 -96t-103 -41t-105.5 41.5t-73.5 95.5l-22 -317l-10 -219v-265q109 -32 208 -32q104 0 205 32z
M1118 635q-7 -23 -14 -68q-107 25 -213 0q-1 14 -5 36.5t-5 31.5q118 26 237 0zM1145 438h-295v70h295v-70zM1118 317q-119 -29 -237 0q1 11 5 32t5 34q99 -23 213 0q8 -48 14 -66z" />
    <glyph glyph-name="florin" unicode="&#x192;" horiz-adv-x="2048" 
d="M1821 811q0 -133 -41.5 -257.5t-117 -225t-176.5 -176t-226 -117t-259 -41.5q-166 0 -317.5 64.5t-261.5 174t-175 261t-65 317.5t65 317.5t175 261.5t261.5 175t317.5 65q167 0 319 -65t261.5 -175t174.5 -261.5t65 -317.5zM1235 754q46 74 44.5 175.5t-48.5 178.5
q-70 105 -187 125q-83 9 -155.5 -28.5t-118.5 -112.5l80 -52q26 51 76 82q31 20 76.5 20.5t76.5 -18.5q44 -25 71.5 -68.5t33.5 -92.5q12 -68 -11.5 -126t-78.5 -96q-35 -17 -61.5 -50.5t-51.5 -73.5t-49 -60q-38 -9 -55.5 1t-12.5 32l-88 -6q0 -127 164 -117q34 13 61 40.5
t57 72.5t42 59l27 18t32.5 22.5t26 20.5t29 27t20.5 27zM1415 1212q-52 99 -144 161t-198 73q-126 10 -233 -52.5t-178 -179.5l81 -51q8 16 21 36t45 52.5t70.5 55.5t98.5 35t126 1q93 -18 169 -98t97 -172q37 -136 -5 -265.5t-157 -209.5q-2 -1 -20.5 -11.5t-23.5 -13.5
t-21 -12.5t-22.5 -15t-19 -16t-19 -19.5t-13.5 -21t-12 -24q-10 -18 -19 -54.5t-23.5 -63t-43.5 -42.5q-26 -18 -63.5 -18.5t-67.5 14.5q-33 15 -54 49t-22 76l-90 -4q0 -18 2.5 -37.5t14 -51.5t30.5 -58t57 -49.5t88 -32.5q68 -6 128.5 20.5t99.5 81.5q16 19 23.5 56.5
t19.5 70.5t41 51q134 65 200 158q91 114 101 285t-64 296z" />
    <glyph glyph-name="dagger" unicode="&#x2020;" horiz-adv-x="2007" 
d="M1823 809q0 -167 -65 -318.5t-174.5 -260.5t-261 -173.5t-318.5 -64.5t-318.5 64.5t-261 173.5t-174 260.5t-64.5 318.5t64.5 318.5t174 261t261 174.5t318.5 65t318.5 -65t261 -174.5t174.5 -261t65 -318.5zM1747 809q0 151 -59 288.5t-158.5 237t-237 158.5t-288.5 59
q-150 0 -287.5 -59t-237 -158.5t-158.5 -237t-59 -288.5q0 -150 59 -287.5t158.5 -236.5t237 -158t287.5 -59q151 0 288.5 59t237 158t158.5 236.5t59 287.5zM1270 588q23 -40 19.5 -93.5t-32.5 -88.5q-34 -43 -83 -62.5t-105 -11.5q-15 4 -37.5 13.5t-37.5 16t-39 10
t-42 -6.5q-110 -63 -200 -21q-54 25 -85.5 76.5t-31.5 111.5q7 53 25 82l522 781l63 -43l-524 -779q-11 -28 -7 -65t25 -59q43 -52 111 -43q143 67 225 20q28 -19 67 -19t68 19q46 34 46 88q0 47 -48 72q-52 27 -104 14l-12 76q158 18 217 -88z" />
    <glyph glyph-name="lozenge" unicode="&#x25ca;" horiz-adv-x="6717" 
d="M5765 264h-231l-121 221h-66v-221h-198v643h319q107 0 160 -20q57 -28 81.5 -80t24.5 -107q0 -80 -45 -129q-32 -35 -82 -45zM4868 588q0 -51 -11.5 -99t-38.5 -93.5t-66.5 -79t-99 -54t-132.5 -20.5q-75 0 -134.5 21t-97 55.5t-62 80.5t-34.5 92.5t-10 96.5
q0 67 21 127.5t62 109.5t109 78t154 29q91 0 159.5 -31.5t106.5 -83.5t56 -109.5t18 -119.5zM3967 752h-160v-488h-207v488h-161v155h528v-155zM3191 424q-24 -47 -62 -82q-85 -100 -245 -100q-83 0 -149.5 29.5t-106.5 78t-61 107t-21 121.5q0 92 36.5 171t115 131
t186.5 52q150 0 251 -107q38 -38 56 -73l-166 -88q-10 21 -17.5 33t-23.5 31.5t-38.5 29.5t-51.5 10q-66 0 -88 -27q-53 -55 -53 -145q0 -85 33.5 -135.5t107.5 -50.5q31 0 55 10.5t40.5 32t21.5 30t14 27.5zM2331 264h-217l-29 84h-221l-33 -84h-219l252 637h229zM1421 762
h-309v-113h285v-139h-285v-246h-197v637h506v-139zM6504 2h-284v102h125v936h-125v99h284v-1137zM408 2h-277v1137h277v-99h-125v-936h125v-102zM5534 694q0 21 -7 36t-15.5 22t-24.5 11t-25.5 4.5t-26.5 0.5h-88v-147h88q18 0 27 0.5t25 4t24.5 10.5t15.5 22t7 36z
M2046 492l-70 233l-69 -233h139zM4665 588q0 36 -16 86q-29 88 -121 88q-63 0 -104 -42t-41 -132q0 -185 145 -185q59 0 98 50.5t39 134.5z" />
    <glyph glyph-name="fi" unicode="&#xfb01;" horiz-adv-x="2007" 
d="M1137 1157q-7 -91 -26.5 -158t-66.5 -122q-16 -19 -49 -23q-28 4 -45 23q-83 98 -90 280q2 2 17.5 16t19 17t16.5 14t20 14.5t18.5 10t22 9.5t21.5 5q12 -2 23.5 -5t23 -9t19.5 -10.5t20.5 -14.5l17.5 -14t19.5 -17t18.5 -16zM1806 811q0 -257 -147 -466t-375 -288v387
l-53 750q-63 65 -119 103t-115 38q-60 0 -114.5 -37.5t-118.5 -103.5l-53 -750v-387q-230 87 -374 293t-144 461q0 164 63.5 314t171 258.5t256.5 172.5t313 64t314 -64t258.5 -172.5t172.5 -258.5t64 -314zM1194 29q-98 -25 -197 -25q-100 0 -198 25v338l8 217l22 282
q30 -48 75 -80t95 -32t93.5 31t72.5 77l21 -278l8 -217v-338zM1114 641q-119 18 -235 0q1 -17 5.5 -39.5t6.5 -38.5q105 24 207 0q2 17 16 78zM1145 428v88h-293v-88h293zM1112 311q0 3 -5.5 29.5t-6.5 48.5q-106 -27 -209 0q-9 -53 -17 -76q117 -27 238 -2z" />
  </font>
</defs>
</svg>
