<?xml version="1.0" standalone="no"?>
<!DOCTYPE svg PUBLIC "-//W3C//DTD SVG 1.1//EN" "http://www.w3.org/Graphics/SVG/1.1/DTD/svg11.dtd" >
<svg xmlns="http://www.w3.org/2000/svg" xmlns:xlink="http://www.w3.org/1999/xlink" version="1.1">
<metadata>
Created by FontForge 20170731 at Mon Aug 13 20:04:54 2012
 By Aleksey,,,
Copyright (c) 2012 by Brian J. Bonislawsky DBA Astigmatic (AOETI) (astigma@astigmatic.com), with ReservedFont Name "McLaren"
</metadata>
<defs>
<font id="McLaren-Regular" horiz-adv-x="514" >
  <font-face 
    font-family="McLaren"
    font-weight="400"
    font-stretch="normal"
    units-per-em="2048"
    panose-1="2 0 5 3 0 0 0 2 0 4"
    ascent="1638"
    descent="-410"
    x-height="1014"
    cap-height="1425"
    bbox="-174 -722.196 2482 2216"
    underline-thickness="41"
    underline-position="-312"
    unicode-range="U+0020-FB02"
  />
<missing-glyph horiz-adv-x="537" 
 />
    <glyph glyph-name="fi" unicode="fi" horiz-adv-x="1460" 
d="M281 1014q11 105 42.5 202.5t89 172.5t144.5 120t209 45q66 0 139.5 -22.5t145.5 -85.5l-99 -168q-54 38 -105 53.5t-91 19.5q-47 4 -88 -3q-40 -10 -71 -31.5t-54 -60.5t-38 -98.5t-24 -145.5h834q-7 -287 -10.5 -485t-4.5 -321q-2 -144 -2 -233h-204q1 90 4 215
q2 107 4.5 262.5t5.5 362.5l-639 6v-88q-1 -132 -1 -270q0 -59 -0.5 -125.5t-0.5 -135.5t-0.5 -139.5t-1.5 -136.5l-207 -4q3 218 5 374t4 259q2 120 3 199v69l-227 4v191zM1364 1333q0 -29 -11 -55t-30.5 -45t-45.5 -30t-56 -11q-29 0 -55 11t-45.5 30t-30.5 45t-11 55
q0 30 11 56t30.5 45.5t45.5 31t55 11.5q30 0 56 -11.5t45.5 -31t30.5 -45.5t11 -56z" />
    <glyph glyph-name="fl" unicode="fl" horiz-adv-x="1483" 
d="M1448 -49q-71 1 -125.5 24t-95.5 59.5t-70.5 83.5t-49.5 95q-47 114 -60 258l14 678q-21 38 -54 77.5t-81 70t-111.5 46t-146.5 5.5q-40 -10 -71 -31.5t-54 -60.5t-38 -98.5t-24 -145.5l424 -2l-22 -197l-414 6v-88q-1 -132 -1 -270q0 -59 -0.5 -125.5t-0.5 -135.5
t-0.5 -139.5t-1.5 -136.5l-207 -4q3 218 5 374t4 259q2 120 3 199v69l-227 4v191l238 -2q11 105 42.5 202.5t89 172.5t144.5 120t209 45q23 0 58 -6t75.5 -19.5t84 -37t83.5 -57.5l6 305h209q-5 -178 -9.5 -326.5t-7.5 -270t-5.5 -217.5t-4.5 -169q-4 -172 -6 -271
q2 -93 27 -166q10 -31 26.5 -61t40.5 -54t56.5 -38.5t75.5 -15.5z" />
    <glyph glyph-name=".notdef" horiz-adv-x="537" 
 />
    <glyph glyph-name=".null" horiz-adv-x="0" 
 />
    <glyph glyph-name="nonmarkingreturn" horiz-adv-x="537" 
 />
    <glyph glyph-name="space" unicode=" " horiz-adv-x="537" 
 />
    <glyph glyph-name="exclam" unicode="!" horiz-adv-x="547" 
d="M399 1532l-51 -1233l-155 -4l-37 1229zM383 31q0 -23 -9 -43.5t-24.5 -35.5t-36 -23.5t-43.5 -8.5t-43 8.5t-35 23.5t-23.5 35.5t-8.5 43.5t8.5 43.5t23.5 35.5t35 24t43 9t43.5 -9t36 -24t24.5 -35.5t9 -43.5z" />
    <glyph glyph-name="quotedbl" unicode="&#x22;" horiz-adv-x="791" 
d="M690 1415l-69 -465h-134l-53 465h256zM362 1436l-69 -465h-133l-54 465h256z" />
    <glyph glyph-name="numbersign" unicode="#" horiz-adv-x="1190" 
d="M471 803h252l4 360l188 11l-6 -369h156l-4 -162h-156l-2 -194l168 4l-6 -156l-166 -4l-4 -322h-178l2 318l-244 -6l4 -324l-188 -4v324l-172 -5l6 158l166 4v203h-172l10 162h162v368l176 11zM475 440l246 4l2 197h-250z" />
    <glyph glyph-name="dollar" unicode="$" horiz-adv-x="911" 
d="M575 1579l-26 -428q57 -6 102 -21t77.5 -31.5t51.5 -30t23 -17.5l-58 -172q-5 4 -28.5 17.5t-58 29t-76 28.5t-82.5 15q-107 6 -165.5 -25t-58.5 -94q0 -31 13 -48.5t45.5 -28.5t88.5 -19.5t142 -20.5q78 -12 128 -38.5t79.5 -61.5t41 -76.5t11.5 -83.5q0 -35 -6 -65
q-15 -94 -84.5 -154t-183.5 -76l27 -471l-193 -6l23 475q-71 8 -129.5 30t-101.5 47t-69 46t-30 27l80 141q34 -18 74 -40t84.5 -41t92.5 -31.5t99 -12.5q57 0 93.5 21t47.5 59q8 37 -8 63t-44.5 41.5t-64.5 23t-67 9.5q-338 15 -356 234q-7 69 9.5 128t53 105t91.5 77
t126 44l-27 426z" />
    <glyph glyph-name="percent" unicode="%" horiz-adv-x="1540" 
d="M700 1036q0 -78 -24 -147t-66 -120t-99 -80.5t-122 -29.5q-67 0 -123.5 29.5t-98 80.5t-64.5 120t-23 147t23 147t64 120t97.5 80.5t124.5 29.5q70 0 127 -29.5t98 -80.5t63.5 -120t22.5 -147zM553 1036q0 47 -11 88.5t-32 73t-51.5 50t-69.5 18.5q-37 0 -67 -18.5
t-51 -50t-32.5 -73t-11.5 -88.5q0 -48 11.5 -90t32.5 -73.5t51 -49.5t67 -18t67.5 18t52 49.5t33 73.5t11.5 90zM1255 1395l-796 -1413l-146 32l768 1411zM1460 350q0 -78 -24 -147t-66 -120t-99 -80.5t-122 -29.5q-67 0 -123.5 29.5t-98 80.5t-64.5 120t-23 147t23 147
t64 120t97.5 80.5t124.5 29.5q70 0 127 -29.5t98 -80.5t63.5 -120t22.5 -147zM1313 350q0 47 -11.5 88.5t-32.5 73t-51.5 50t-68.5 18.5q-37 0 -67 -18.5t-51 -50t-32.5 -73t-11.5 -88.5q0 -48 11.5 -90t32.5 -73.5t51 -49.5t67 -18t67.5 18t52 49.5t33 73.5t11.5 90z" />
    <glyph glyph-name="ampersand" unicode="&#x26;" horiz-adv-x="1284" 
d="M1251 530q-51 -108 -106.5 -190t-112.5 -147q25 -31 49 -61.5t45 -58t38.5 -49.5t29.5 -36l-145 -99l-140 183q-69 -57 -129.5 -89.5t-106.5 -49.5q-54 -20 -100 -27q-105 -11 -191 15.5t-147.5 78t-95 123.5t-33.5 153q0 76 28 142.5t72.5 126t99.5 111.5t110 100
q-62 97 -86.5 171.5t-24.5 131.5q0 60 22.5 110t62 86t92.5 56t114 20q44 0 87.5 -11t80 -34.5t63 -60.5t37.5 -90q12 -63 -2 -118.5t-46 -106t-78.5 -97.5t-98.5 -92q68 -102 140.5 -198.5t150.5 -196.5q45 55 91.5 123t94.5 153zM293 258q0 -44 19 -80t50.5 -62t72 -40.5
t83.5 -14.5q63 0 136.5 32t158.5 108q-106 142 -183.5 250t-115.5 165q-32 -26 -70.5 -66t-72 -88t-56 -100.5t-22.5 -103.5zM485 1059q3 -42 20 -89.5t46 -103.5q34 28 61 54t46 51t28 51t6 55q-3 25 -12.5 42.5t-23.5 29t-31 17t-35 5.5q-21 0 -40.5 -7t-34.5 -21
t-23.5 -35t-6.5 -49z" />
    <glyph glyph-name="quotesingle" unicode="'" horiz-adv-x="469" 
d="M367 1436l-70 -465h-133l-53 465h256z" />
    <glyph glyph-name="parenleft" unicode="(" horiz-adv-x="770" 
d="M766 1614q-92 -47 -162.5 -110t-122.5 -134.5t-87.5 -147.5t-58.5 -148q-55 -169 -61 -353q7 -174 55 -340q21 -71 52.5 -147.5t77.5 -151t108.5 -144t145.5 -126.5l-113 -146q-100 60 -176 137.5t-132.5 163t-95 174.5t-63.5 173q-59 196 -67 407q9 210 75 407
q28 84 71.5 173.5t106.5 175.5t148.5 164t198.5 139z" />
    <glyph glyph-name="parenright" unicode=")" horiz-adv-x="770" 
d="M705 721q-8 -211 -67 -407q-25 -84 -64 -173t-95 -174.5t-132.5 -163t-176.5 -137.5l-113 146q82 57 144.5 126.5t109 144t78 151t52.5 147.5q48 166 55 340q-8 184 -62 353q-23 72 -58.5 148t-87.5 147.5t-122 134.5t-162 110l102 166q112 -61 197.5 -139t148.5 -164
t106.5 -175.5t71.5 -173.5q66 -197 75 -407z" />
    <glyph glyph-name="asterisk" unicode="*" horiz-adv-x="1069" 
d="M969 995l-310 -73l277 -228l-166 -135l-240 291l-149 -305l-199 86l201 295l-297 69l76 187l264 -119l-61 334l235 14l-18 -360l327 153z" />
    <glyph glyph-name="plus" unicode="+" horiz-adv-x="991" 
d="M895 621l-307 -11l-8 -325l-189 6l8 315l-295 -8l-6 188l305 9l9 292l188 -10l-8 -278l303 10v-188z" />
    <glyph glyph-name="comma" unicode="," horiz-adv-x="510" 
d="M383 57q-2 -56 -19 -113q-14 -49 -44.5 -107.5t-86.5 -110.5l-112 38q15 20 29 47q12 23 24.5 56t20.5 78q-31 17 -49.5 46t-18.5 66q0 27 10 50.5t27 41t40.5 27.5t49.5 10q27 0 50.5 -10t41 -27.5t27.5 -41t10 -50.5z" />
    <glyph glyph-name="hyphen" unicode="-" horiz-adv-x="1057" 
d="M928 600l-791 -22l-6 208l797 23v-209z" />
    <glyph glyph-name="period" unicode="." horiz-adv-x="510" 
d="M383 57q0 -26 -10 -49t-27.5 -40.5t-40.5 -27.5t-49 -10q-27 0 -50.5 10t-41 27.5t-27.5 40.5t-10 49q0 27 10 50.5t27.5 41t41 27.5t50.5 10q26 0 49 -10t40.5 -27.5t27.5 -41t10 -50.5z" />
    <glyph glyph-name="slash" unicode="/" horiz-adv-x="1075" 
d="M1012 1395l-756 -1413l-186 32l727 1411z" />
    <glyph glyph-name="zero" unicode="0" horiz-adv-x="1444" 
d="M1348 709q0 -107 -22 -206t-62.5 -185t-97.5 -157t-127 -121.5t-150.5 -78t-167.5 -27.5q-90 0 -171 27.5t-150.5 78t-125.5 121.5t-95.5 157t-61 185t-21.5 206t21 206t60 185t94.5 156.5t125 121t151.5 78t173 27.5q95 0 178 -27.5t153 -78t125 -121t93 -156.5t58 -185
t20 -206zM1149 709q0 119 -29 223.5t-84.5 182.5t-135 123.5t-179.5 45.5q-98 0 -176.5 -45.5t-134 -123.5t-85.5 -182.5t-30 -223.5t30.5 -224t86.5 -183t134.5 -123.5t174.5 -45.5q97 0 176 45.5t135 123.5t86.5 183t30.5 224z" />
    <glyph glyph-name="one" unicode="1" horiz-adv-x="803" 
d="M623 1446l-17 -1466l-221 -9l39 1315l-281 -223l-112 145l366 265z" />
    <glyph glyph-name="two" unicode="2" horiz-adv-x="1217" 
d="M1126 954q-10 -77 -38 -143t-84 -127t-144.5 -120t-218.5 -120q-62 -33 -117 -75q-24 -18 -48.5 -40.5t-47 -48.5t-42 -56t-32.5 -64l705 26l10 -204l-956 -19q-3 76 11.5 142.5t40.5 123.5t61 104.5t71 85.5q85 89 197 152q125 64 210 115.5t135.5 103t69 110
t11.5 136.5q-6 69 -34 120.5t-72 84.5t-101.5 47t-122.5 8q-61 -5 -112 -36.5t-90.5 -83t-65 -119.5t-35.5 -146l-197 27q6 97 31 170.5t62 128.5t82 93t91 63q108 58 242 69q115 3 200 -22.5t145.5 -69t98.5 -99t58.5 -113t25.5 -111.5t0 -93z" />
    <glyph glyph-name="three" unicode="3" horiz-adv-x="1249" 
d="M1133 381q0 -45 -9.5 -93.5t-33.5 -95t-63.5 -88.5t-100 -73.5t-143.5 -49t-193 -16.5q-116 8 -218 53q-44 19 -88.5 48.5t-85 71.5t-74 99t-54.5 132l206 55q13 -61 48.5 -111t81.5 -86.5t96.5 -57.5t93.5 -24q52 -3 110 5t107 34t82.5 72.5t36.5 120.5q2 59 -13.5 102
t-42.5 73.5t-62 49.5t-69.5 29.5t-66 14t-51.5 1.5q-24 0 -54 -1q-26 -1 -60.5 -3t-74.5 -6l2 178q39 -3 70.5 -4.5t54.5 -2.5q26 -1 47 -1q58 -3 104.5 9t82 34t61.5 51t42.5 59t24 59.5t7.5 51.5q0 34 -12 75t-44 77t-89 60t-148 24q-82 -4 -148 -34q-28 -13 -55.5 -32.5
t-50 -48t-37.5 -67t-18 -89.5l-185 23q22 87 54.5 151.5t71.5 110t83.5 74t91 45.5t93.5 24t92 9q50 1 106.5 -4t111.5 -21t105 -44.5t88.5 -73t61 -107t22.5 -146.5q-4 -77 -30 -145q-11 -29 -29 -59t-43.5 -58t-60.5 -51t-80 -39q61 -21 107.5 -58t78 -83t47 -98.5
t15.5 -104.5z" />
    <glyph glyph-name="four" unicode="4" horiz-adv-x="1245" 
d="M1067 1446l-16 -715l100 4l-2 -174l-102 -4l-15 -592l-201 -2l15 584l-750 -33l-53 133l346 770l195 -35l-303 -686l569 25l20 721z" />
    <glyph glyph-name="five" unicode="5" horiz-adv-x="1206" 
d="M1122 461q-4 -116 -46 -207.5t-115.5 -155.5t-175.5 -98t-226 -35q-95 4 -185 35q-38 13 -79 33.5t-80.5 50t-76 70t-64.5 94.5l147 100q54 -74 114.5 -115.5t112.5 -60.5q60 -23 119 -27q85 -2 153 25.5t116 74t74 105.5t26 121q0 61 -24.5 117.5t-68 100.5t-103 71.5
t-130.5 30.5q-44 0 -95 -11q-44 -9 -100.5 -30.5t-119.5 -61.5l-160 113l166 622l741 -6l-10 -200l-614 6l-92 -324q58 26 116.5 37t105.5 15q55 4 105 1q91 -8 176.5 -41t151.5 -93t105 -148.5t36 -208.5z" />
    <glyph glyph-name="six" unicode="6" horiz-adv-x="1303" 
d="M1212 494q6 -55 -0.5 -115.5t-28 -120t-59.5 -114t-94.5 -96t-133 -66t-175.5 -25.5q-105 -1 -191.5 26t-155.5 75t-120 114t-85 142.5t-51.5 161t-17.5 169.5q-1 93 15.5 186.5t50.5 180t86 162t121 131.5t155.5 88.5t190.5 33.5q94 -1 180 -26q36 -11 74.5 -27
t74.5 -40.5t67 -58t54 -77.5l-143 -100q-16 33 -38 57t-47.5 41.5t-52 29t-51.5 18.5q-60 17 -124 16q-99 -6 -177.5 -56t-133.5 -131t-84 -186t-29 -221v-31q33 60 82 110t109 86t129 56t141 20q101 0 183 -34t141 -91t94.5 -132t43.5 -156zM705 735q-74 -10 -140 -55
q-28 -19 -57.5 -47.5t-56 -69t-49 -94.5t-37.5 -123q57 -102 146 -160.5t204 -58.5q62 0 109.5 15t81.5 40.5t56.5 58.5t35.5 69t18 72.5t4 68.5q-2 64 -26 117.5t-65.5 92t-98.5 58.5t-125 16z" />
    <glyph glyph-name="seven" unicode="7" horiz-adv-x="1001" 
d="M969 1389l-6 -154q-45 -45 -85.5 -95t-76.5 -101t-67 -101.5t-56 -96.5q-60 -107 -105 -214q-42 -107 -77 -219q-15 -48 -30 -101t-28.5 -108t-23.5 -111t-15 -108l-196 45q12 74 27.5 144.5t33 135.5t36 123t36.5 107q41 115 86 213q33 76 78 155q38 67 93.5 147
t127.5 152l-627 -14l-22 190z" />
    <glyph glyph-name="eight" unicode="8" horiz-adv-x="1145" 
d="M1040 385q0 -91 -37 -170.5t-101 -138.5t-150 -93t-183 -34q-98 0 -184.5 34t-150.5 93t-101 138.5t-37 170.5q0 59 16 114t45 102.5t70 87.5t92 69q-69 54 -109 131t-40 168q0 81 33 151.5t90 123.5t133.5 83.5t163.5 30.5t163.5 -30.5t133.5 -83.5t90 -123.5t33 -151.5
q0 -48 -12 -93.5t-34.5 -85.5t-54 -74.5t-69.5 -60.5q45 -30 82 -69t63.5 -84.5t40.5 -97.5t14 -107zM840 397q0 55 -21 102.5t-57.5 83t-85.5 56t-105 20.5q-57 0 -106.5 -20.5t-86 -56t-58 -83t-21.5 -102.5q0 -54 21.5 -102t58 -84t86 -57t106.5 -21q56 0 105 21t85.5 57
t57.5 84t21 102zM817 1049q0 47 -19 88.5t-52 73t-77 49.5t-94 18q-49 0 -88.5 -18t-67 -49.5t-42.5 -73t-15 -88.5q0 -45 13 -84t39 -69t65 -49t90 -24q45 0 89.5 15t80 44t57 71t21.5 96z" />
    <glyph glyph-name="nine" unicode="9" horiz-adv-x="1309" 
d="M1208 760q1 -93 -15.5 -186.5t-50.5 -180t-85.5 -161.5t-120.5 -131t-155.5 -89t-190.5 -35q-95 2 -180 27q-36 10 -74.5 27t-74.5 41.5t-67 57.5t-53 77l142 100q16 -33 38.5 -57t47.5 -41.5t51.5 -29t51.5 -18.5q59 -17 124 -16q85 5 155 43t123 100.5t87.5 145.5
t48.5 178q-24 -32 -53.5 -56.5t-61 -43.5t-64 -32t-62.5 -22q-71 -21 -146 -26q-109 -4 -202.5 26.5t-163 92t-112 152.5t-49.5 208q-3 55 4.5 116t29 120.5t58.5 113.5t93 95.5t132 66.5t175 25q105 1 191.5 -26t155.5 -75t120 -114t85 -142.5t50.5 -161t17.5 -169.5z
M948 952q0 73 -29.5 133t-79 103t-113.5 66.5t-132 23.5q-93 0 -153 -32.5t-94 -81t-47 -105.5t-11 -105q2 -90 26 -155t65.5 -107t98.5 -60.5t125 -13.5q104 6 170.5 39t105 80t53.5 104t15 111z" />
    <glyph glyph-name="colon" unicode=":" 
d="M385 57q0 -26 -10 -49t-27.5 -40.5t-40.5 -27.5t-49 -10q-27 0 -50.5 10t-41 27.5t-27.5 40.5t-10 49q0 27 10 50.5t27.5 41t41 27.5t50.5 10q26 0 49 -10t40.5 -27.5t27.5 -41t10 -50.5zM385 733q0 -26 -10 -49t-27.5 -40.5t-40.5 -27.5t-49 -10q-27 0 -50.5 10
t-41 27.5t-27.5 40.5t-10 49q0 27 10 50.5t27.5 41t41 27.5t50.5 10q26 0 49 -10t40.5 -27.5t27.5 -41t10 -50.5z" />
    <glyph glyph-name="semicolon" unicode=";" horiz-adv-x="522" 
d="M391 57q-2 -56 -19 -113q-14 -49 -44 -107.5t-86 -110.5l-113 38q15 20 29 47q12 23 24.5 56t20.5 78q-31 17 -49.5 46t-18.5 66q0 27 10 50.5t27.5 41t40.5 27.5t49 10q27 0 50.5 -10t41 -27.5t27.5 -41t10 -50.5zM385 733q0 -26 -10 -49t-27.5 -40.5t-40.5 -27.5
t-49 -10q-27 0 -50.5 10t-41 27.5t-27.5 40.5t-10 49q0 27 10 50.5t27.5 41t41 27.5t50.5 10q26 0 49 -10t40.5 -27.5t27.5 -41t10 -50.5z" />
    <glyph glyph-name="less" unicode="&#x3c;" horiz-adv-x="1075" 
d="M975 193l-125 -183l-780 647l733 658l129 -160l-580 -487z" />
    <glyph glyph-name="equal" unicode="=" horiz-adv-x="1071" 
d="M932 805l-791 -23l-6 189l797 22v-188zM932 571l-4 -194l-783 -10v208z" />
    <glyph glyph-name="greater" unicode="&#x3e;" horiz-adv-x="1075" 
d="M1006 657l-783 -647l-123 183l621 475l-578 487l129 160z" />
    <glyph glyph-name="question" unicode="?" horiz-adv-x="1141" 
d="M565 1573q105 0 195 -37.5t155.5 -104.5t102.5 -159t37 -201q0 -51 -8.5 -102.5t-29 -102t-56 -99t-89.5 -93.5q-47 -39 -101.5 -76t-99 -81t-69.5 -101t-12 -137h-180q-11 44 -11 81q0 61 20 109t52.5 88.5t74 75t85 68.5t85 70t74 78.5t52.5 93.5t20 116t-22 127
t-62.5 110t-98.5 77.5t-130 29.5q-67 0 -119.5 -26.5t-89 -71.5t-55.5 -103.5t-19 -122.5q0 -23 1.5 -48.5t6.5 -53.5l-178 -27q-11 35 -14.5 68t-3.5 65q0 100 35.5 189t99.5 156t154 106t198 39zM629 31q0 -23 -8.5 -43.5t-23.5 -35.5t-35.5 -23.5t-43.5 -8.5t-43.5 8.5
t-35.5 23.5t-24 35.5t-9 43.5t9 43.5t24 35.5t35.5 24t43.5 9t43.5 -9t35.5 -24t23.5 -35.5t8.5 -43.5z" />
    <glyph glyph-name="at" unicode="@" horiz-adv-x="1634" 
d="M1554 762q-4 -114 -41 -197t-91.5 -136t-118.5 -76.5t-121 -18.5q-32 3 -63 11t-58 22t-49.5 35.5t-38.5 50.5q-31 -28 -64 -45t-60 -27q-33 -11 -63 -16q-68 -10 -124.5 6t-98 53t-66 93t-28.5 126t17.5 129t61 102.5t95.5 68t121 24.5q34 -1 67 -6q29 -5 62.5 -15
t64.5 -28l11 73l159 -4q-6 -110 -8.5 -184.5t-3.5 -120.5q-1 -54 0 -86q-2 -37 8.5 -58t25.5 -31.5t32.5 -12t31.5 1.5q9 1 25 5.5t35 15.5t38.5 30t35.5 50.5t26 77.5t10 109q0 94 -42.5 175t-118.5 140.5t-181 92t-229 31.5q-78 -1 -148 -26.5t-130.5 -69.5t-109 -102.5
t-82.5 -124.5t-52.5 -136t-18.5 -137q0 -101 23 -180.5t80 -139.5t153 -101t242 -63l-45 -159q-128 9 -223 43.5t-162.5 84.5t-111 110t-68.5 122q-61 144 -51 322q14 130 55 232.5t100.5 180t132.5 132t150.5 89.5t153.5 51.5t143 18.5q72 3 154 -11.5t162 -46.5t153 -82
t128 -118.5t86 -155.5t27 -194zM942 612q0 35 1 72.5t3 77.5q-26 21 -52.5 33t-48.5 17q-26 6 -50 7q-40 0 -69 -17t-47.5 -42.5t-27 -54.5t-8.5 -52q0 -24 6.5 -48.5t22 -44.5t43 -33t69.5 -13q24 2 50 13q23 9 51 29t57 56z" />
    <glyph glyph-name="A" unicode="A" horiz-adv-x="1575" 
d="M1290 -57q-29 102 -60 202.5t-65 202.5l-805 -35q-37 -96 -71 -191t-66 -192l-227 31q141 378 312.5 744t365.5 725l280 -5q172 -347 314 -707.5t258 -740.5zM793 1264q-101 -192 -191 -385.5t-172 -391.5l676 29q-68 192 -146 377t-167 371z" />
    <glyph glyph-name="B" unicode="B" horiz-adv-x="1516" 
d="M1438 391q3 -106 -34 -182t-100.5 -127.5t-148 -83t-177 -48t-186.5 -21.5t-176 -5q-83 0 -184.5 4.5t-222.5 14.5l-43 1456q104 19 202 28.5t175 13.5q90 4 170 3q76 -2 153 -9t147.5 -23.5t131.5 -45.5t106 -74t71 -108.5t26 -149.5q0 -112 -41 -191.5t-107 -131.5
q42 -14 75 -34.5t57.5 -45.5t42 -52.5t29.5 -54.5q27 -62 34 -133zM717 1262q-47 0 -102 -3q-47 -2 -107.5 -8t-128.5 -16l16 -510q86 2 156.5 5.5t121.5 6.5q60 4 107 8q74 4 141.5 24.5t117.5 56.5t77.5 88t20.5 120q-6 50 -27.5 87.5t-54 64t-74 43t-86 25t-90.5 10
t-88 -1.5zM907 584q-25 -2 -43.5 -3.5t-32 -2.5t-24 -2t-19.5 -1q-55 -5 -118 -9q-54 -4 -124 -8.5t-145 -8.5l15 -443q28 -2 55 -2h53q47 0 118.5 0.5t150 7t157 23t141 48t100 81.5t34.5 125q-9 54 -46 97q-16 18 -39.5 36t-56.5 31.5t-76.5 22t-99.5 8.5z" />
    <glyph glyph-name="C" unicode="C" horiz-adv-x="1503" 
d="M1452 262q-51 -74 -118 -133.5t-145.5 -101.5t-167 -65t-183.5 -23q-105 0 -201.5 27.5t-180.5 78t-153 121t-118 156.5t-76 185t-27 206t27 206t76 185t118 156.5t153 121t181 78t201 27.5q89 0 172 -20t158 -57t140 -90t117 -118l-153 -125q-78 97 -189.5 154
t-244.5 57q-116 0 -217 -45.5t-177 -123.5t-119.5 -182.5t-43.5 -223.5t43.5 -224t119.5 -183t177 -123.5t217 -45.5q70 0 135 17t122.5 48t107 75t87.5 98z" />
    <glyph glyph-name="D" unicode="D" horiz-adv-x="1546" 
d="M1460 735q0 -140 -48.5 -252.5t-131 -199.5t-192.5 -149.5t-232 -102.5t-249 -59t-245 -19q-40 0 -79 2t-74 8l-39 1485q78 6 150 9t135 3q111 0 229 -8.5t229.5 -35t211 -75.5t174 -129.5t118 -197.5t43.5 -279zM1272 745q-3 97 -33 175.5t-81.5 138.5t-120.5 103.5
t-149 71.5t-168 41t-177 13q-38 0 -80.5 -2.5t-87.5 -7.5l31 -1131q17 -2 34.5 -2h34.5q100 0 199 18t188.5 53t165.5 86.5t131 118t85.5 148t27.5 176.5z" />
    <glyph glyph-name="E" unicode="E" horiz-adv-x="1350" 
d="M977 539l-594 -29l4 -313l864 49l4 -197l-1056 -57l-23 1425l1086 17l-7 -191l-882 -14l6 -522l594 24z" />
    <glyph glyph-name="F" unicode="F" horiz-adv-x="1290" 
d="M977 539l-594 -29l8 -510l-192 -8l-23 1425l1086 17l-7 -191l-882 -14l8 -522l592 24z" />
    <glyph glyph-name="G" unicode="G" horiz-adv-x="1548" 
d="M1452 262q-51 -74 -118 -133.5t-145.5 -101.5t-167 -65t-183.5 -23q-105 0 -201.5 27.5t-180.5 78t-153 121t-118 156.5t-76 185t-27 206t27 206t76 185t118 156.5t153 121t181 78t201 27.5q89 0 172 -20t158 -57t140 -90t117 -118l-153 -125q-78 97 -189.5 154
t-244.5 57q-116 0 -217 -45.5t-177 -123.5t-119.5 -182.5t-43.5 -223.5t43.5 -224t119.5 -183t177 -123.5t217 -45.5q121 0 225.5 48.5t181.5 133.5l-4 213l-612 -24v209l807 26z" />
    <glyph glyph-name="H" unicode="H" horiz-adv-x="1686" 
d="M399 639l881 43l-10 743l223 -16l12 -1374l-215 -17l-6 478l-883 -39l7 -449l-209 -8l-19 1430l211 10z" />
    <glyph glyph-name="I" unicode="I" horiz-adv-x="590" 
d="M408 35h-201l-35 1390l223 -8z" />
    <glyph glyph-name="J" unicode="J" horiz-adv-x="1356" 
d="M1192 516q0 -124 -43 -226.5t-119.5 -177t-180.5 -118.5t-226 -51q-141 -9 -247.5 37t-179 132t-110.5 205t-41 258l211 23q-3 -91 10.5 -159t38 -117t57.5 -81t68 -52q82 -47 188 -46q78 6 136.5 29.5t100 59.5t68.5 82.5t42.5 99t21.5 109t6 112.5q0 58 -2.5 139.5
t-6 170.5t-8 177t-9 157.5t-8.5 112t-7 42.5l217 4q2 -1 4.5 -48t5 -124t5 -174.5t4.5 -200t3 -200.5t1 -175z" />
    <glyph glyph-name="K" unicode="K" horiz-adv-x="1440" 
d="M408 573l757 861l224 -29l-469 -535l489 -862l-235 -35l-386 748l-374 -428l8 -297l-223 -4l-23 1417l211 16z" />
    <glyph glyph-name="L" unicode="L" horiz-adv-x="1323" 
d="M1280 -23l-1090 -75l-6 1521l207 11l-6 -1313l885 69z" />
    <glyph glyph-name="M" unicode="M" horiz-adv-x="1880" 
d="M1815 -43l-207 -41l-201 1255l-330 -1087l-248 -29l-374 1055l-181 -1147l-211 29l277 1458h207l403 -1153l359 1141l235 6z" />
    <glyph glyph-name="N" unicode="N" horiz-adv-x="1686" 
d="M1286 332l-16 1093l223 -16l12 -1374l-215 -17l-895 1069l13 -1079l-209 -8l-19 1430l211 10z" />
    <glyph glyph-name="O" unicode="O" horiz-adv-x="1677" 
d="M1595 707q0 -107 -27 -205.5t-76.5 -184.5t-118.5 -157t-153.5 -121.5t-181 -78.5t-200.5 -28q-105 0 -201.5 28t-180.5 78.5t-153 121.5t-118 157t-76 184.5t-27 205.5t27 206t76 185t118 156.5t153 121t181 78t201 27.5t200.5 -27.5t181 -78t153.5 -121t118.5 -156.5
t76.5 -185t27 -206zM1397 707q0 79 -20 152.5t-56.5 137.5t-87.5 116.5t-113 90t-133.5 58t-148.5 20.5q-116 0 -217 -45.5t-177 -123.5t-119.5 -182.5t-43.5 -223.5t43.5 -224t119.5 -183t177 -123.5t217 -45.5q77 0 148.5 20.5t133.5 58t113 90t87.5 116.5t56.5 137.5
t20 153.5z" />
    <glyph glyph-name="P" unicode="P" horiz-adv-x="1479" 
d="M1430 899q-4 -95 -38.5 -170.5t-91 -133.5t-130.5 -99t-157.5 -67.5t-172.5 -39t-174 -12.5q-56 0 -125 4t-148 18l4 -401l-211 -8v1415q106 35 203.5 53t172.5 27q88 10 165 12q65 0 143.5 -10.5t158.5 -36.5t154.5 -70t131 -110.5t88.5 -158t27 -212.5zM727 1276
q-57 0 -115 -4q-51 -4 -110 -14.5t-115 -30.5l4 -623q62 -12 122.5 -16t113.5 -4q57 0 122 5.5t129 20t123 40.5t104 66.5t72 97.5t27 134t-33.5 137t-96 101.5t-150.5 64.5t-197 25z" />
    <glyph glyph-name="Q" unicode="Q" horiz-adv-x="1677" 
d="M1430 -258l-242 258q-79 -42 -167.5 -65t-182.5 -23q-105 0 -201.5 27.5t-180.5 78t-153 121.5t-118 157t-76 185t-27 205q0 107 27 206t76 185t118 156.5t153 121t181 78t201 27.5t200.5 -27.5t181 -78t153.5 -121t118.5 -156.5t76.5 -185t27 -206q0 -85 -17.5 -165.5
t-50 -154t-79.5 -138t-105 -117.5l230 -242zM1397 686q0 79 -20 153t-56.5 138t-87.5 116.5t-113 90t-133.5 58t-148.5 20.5q-116 0 -217 -45.5t-177 -123.5t-119.5 -183t-43.5 -224t43.5 -223.5t119.5 -182.5t177 -123.5t217 -45.5q110 0 206 41l-188 202l135 131l217 -231
q87 80 138 191t51 241z" />
    <glyph glyph-name="R" unicode="R" horiz-adv-x="1462" 
d="M1378 899q-3 -77 -31 -141t-74 -115.5t-107 -92t-130 -69.5l291 -458l-207 -68l-280 467q-48 -9 -99.5 -15t-113.5 -6q-50 0 -109.5 4.5t-124.5 16.5l4 -424l-211 -8v1415q86 26 172 39t157 20q82 7 159 9q65 0 144 -9t158.5 -32t154 -64t131 -104.5t88.5 -153.5t28 -211
zM674 1272q-46 0 -95 -4q-42 -3 -93 -8.5t-99 -16.5l4 -637q47 -9 94.5 -12.5t92.5 -3.5q120 0 227.5 27.5t188.5 75.5t129 113.5t48 141.5q0 77 -36.5 137t-102.5 101.5t-157.5 63.5t-200.5 22z" />
    <glyph glyph-name="S" unicode="S" horiz-adv-x="1321" 
d="M1247 236q-10 -70 -39.5 -124.5t-73.5 -94.5t-98.5 -67.5t-114 -44.5t-120.5 -24.5t-117 -7.5q-77 0 -152 16.5t-147.5 46t-143 70.5t-139.5 90l146 172q78 -69 154.5 -108.5t137.5 -59.5q71 -24 136 -32q72 -4 134 11t108.5 43.5t74.5 68t33 83.5q3 37 -13 67.5t-47 56
t-73 45t-89.5 35t-98 27t-97.5 19.5q-57 10 -120 26.5t-124 43.5t-115 67t-93.5 96.5t-60 131.5t-13.5 172q6 80 33.5 144.5t71 115.5t100 87.5t120.5 60.5t132.5 34.5t136.5 9.5q94 -5 189 -29q40 -10 84.5 -25.5t89.5 -37t89 -51t84 -67.5l-112 -177q-32 36 -68 63
t-72.5 47t-72.5 34t-68 23q-77 21 -151 24q-91 0 -162 -27.5t-119.5 -71t-74 -97t-25.5 -105.5q0 -51 30.5 -99t84.5 -87t127 -66.5t157 -38.5q73 -8 145.5 -26t138.5 -46t121.5 -67.5t93.5 -91t55.5 -116t6.5 -142.5z" />
    <glyph glyph-name="T" unicode="T" horiz-adv-x="1233" 
d="M1196 1444l-4 -191l-467 -18l14 -1262l-221 -4v1258l-473 -19l-4 211z" />
    <glyph glyph-name="U" unicode="U" horiz-adv-x="1427" 
d="M1290 686q1 -93 -13.5 -183.5t-46.5 -172t-81.5 -150t-117 -119t-154 -78.5t-191.5 -28q-106 0 -186 33.5t-139.5 91t-100 132.5t-65 158t-36.5 168.5t-14 163.5q-2 99 4 217q5 101 18.5 235t41.5 286l217 -31q-23 -99 -37 -191t-22 -173t-10.5 -148t-2.5 -115
q0 -56 4.5 -125t18 -140.5t38 -139t64.5 -120t98 -84.5t138 -32q83 0 150 38t114 109t71.5 172t22.5 226q-2 100 -12 216q-8 100 -25 229t-47 274l213 29q32 -165 49 -301.5t26 -236.5q10 -116 13 -210z" />
    <glyph glyph-name="V" unicode="V" horiz-adv-x="1575" 
d="M1579 1440q-141 -378 -312 -744.5t-366 -724.5l-278 4q-343 694 -574 1448l236 35q48 -170 101 -332t113 -321t128.5 -317t146.5 -318q170 304 316.5 630t261.5 670z" />
    <glyph glyph-name="W" unicode="W" horiz-adv-x="1882" 
d="M1815 1458l-271 -1487l-235 6l-359 1141l-403 -1153h-207l-277 1458l211 29l181 -1147l374 1055l248 -29l330 -1087l201 1255z" />
    <glyph glyph-name="X" unicode="X" horiz-adv-x="1219" 
d="M1149 1395l-422 -664l477 -733l-215 -39l-381 584l-372 -584l-211 39l464 727l-438 674l225 24l332 -510l324 506z" />
    <glyph glyph-name="Y" unicode="Y" horiz-adv-x="1298" 
d="M1255 1423l-499 -977v-479l-207 -12l16 496l-559 952l236 27l424 -768l362 768z" />
    <glyph glyph-name="Z" unicode="Z" horiz-adv-x="1251" 
d="M1176 1438l-5 -172l-839 -1086l827 8l-8 -211l-1069 -4l-8 189l831 1089l-796 -43l-13 215z" />
    <glyph glyph-name="bracketleft" unicode="[" horiz-adv-x="739" 
d="M680 -268h-512v2001h512v-193h-303v-1622h303v-186z" />
    <glyph glyph-name="backslash" unicode="\" horiz-adv-x="1075" 
d="M1006 14l-189 -32l-754 1413l216 30z" />
    <glyph glyph-name="bracketright" unicode="]" horiz-adv-x="739" 
d="M571 -268h-512v186h303v1622h-303v193h512v-2001z" />
    <glyph glyph-name="asciicircum" unicode="^" horiz-adv-x="956" 
d="M844 467l-174 -41l-164 582l-236 -559l-168 51l306 657l241 -10z" />
    <glyph glyph-name="underscore" unicode="_" horiz-adv-x="1059" 
d="M926 -295l-791 -22l-6 208l797 23v-209z" />
    <glyph glyph-name="grave" unicode="`" horiz-adv-x="397" 
d="M397 1260l-127 -72l-270 268l188 164z" />
    <glyph glyph-name="a" unicode="a" horiz-adv-x="1278" 
d="M924 -63l14 141q-122 -78 -239.5 -113t-219.5 -35q-72 0 -139.5 18.5t-119 57t-83 98t-31.5 140.5t24 145t66 113t99 84t122.5 57t137.5 32.5t143 10.5q66 0 123 -5t101 -13q-13 50 -32 98.5t-48.5 87t-72.5 62.5t-103 24q-39 0 -89 -11.5t-110 -41.5t-131 -82.5
t-152 -134.5l-121 147q96 90 184 147t165.5 89.5t144 44.5t119.5 12q92 0 164 -31.5t126.5 -86t92 -128t61.5 -158t34.5 -175.5t10.5 -181q0 -96 -11 -206t-34 -240zM952 301q2 50 3 99t-5 102q-49 15 -103 24t-108 9q-90 0 -174.5 -21t-145.5 -61t-91.5 -98t-12.5 -132
q14 -60 54.5 -84t97.5 -24q58 0 125.5 19.5t134 48t125.5 60.5t100 58z" />
    <glyph glyph-name="b" unicode="b" horiz-adv-x="1321" 
d="M362 1499l-6 -590q58 56 120.5 86.5t115.5 44.5q62 17 121 19q68 0 135 -19.5t127 -55t110.5 -85.5t87 -111.5t55.5 -132.5t17 -149q-3 -86 -26 -162t-60.5 -139.5t-87.5 -114.5t-106.5 -86t-117.5 -53.5t-120 -18.5q-61 2 -126 19q-56 14 -123 45t-132 88v-131l-186 -4
l-17 1542zM1030 487q5 75 -18.5 144.5t-69 122.5t-110 84t-140.5 30q-62 -1 -116.5 -21t-98 -54t-75.5 -79t-50 -96l-2 -239q18 -62 51 -109.5t76.5 -80t94 -49t102.5 -17.5q73 -2 136.5 26t111 77.5t76 116.5t32.5 144z" />
    <glyph glyph-name="c" unicode="c" horiz-adv-x="1241" 
d="M1184 750l-166 -101l-2 6q-26 51 -63 91.5t-83 69t-98.5 43.5t-109.5 15q-82 0 -153.5 -31t-125 -85t-84.5 -126.5t-31 -154.5q0 -81 31 -153t84.5 -126t125 -85t153.5 -31q53 0 103 14t94.5 39.5t81.5 62t63 81.5l4 6l174 -99l-2 -6q-39 -65 -95 -117t-123.5 -89.5
t-144 -57.5t-155.5 -20q-113 0 -218.5 44t-188 122t-132 184t-49.5 231q0 75 20.5 147.5t58 137.5t91 120t118.5 94.5t141 62t159 22.5q87 0 165.5 -21t145.5 -60.5t120 -96.5t89 -129z" />
    <glyph glyph-name="d" unicode="d" horiz-adv-x="1354" 
d="M1202 1434l-4 -1475h-205l2 127q-30 -28 -61.5 -49t-63 -36.5t-61.5 -26t-57 -17.5q-63 -16 -125 -18q-116 0 -216 40.5t-174 116t-116.5 183.5t-42.5 243q0 136 47 242.5t123.5 179.5t173 111.5t194.5 38.5q67 -1 136 -18q59 -14 127 -46.5t127 -93.5l8 512zM627 123
q62 0 121 20t108.5 56.5t86.5 87.5t56 112l2 213q-18 64 -56 117.5t-89 91.5t-111.5 59t-123.5 21q-74 0 -136 -30.5t-107 -83.5t-70 -125t-25 -156t25.5 -154t71 -121t109 -79.5t138.5 -28.5z" />
    <glyph glyph-name="e" unicode="e" horiz-adv-x="1214" 
d="M625 92q53 0 105 16.5t96 48t76.5 78.5t47.5 109l193 -39q-28 -91 -79 -165t-119 -127t-149.5 -82t-170.5 -29q-132 0 -234 40t-172 113t-106.5 176t-36.5 230q0 125 42.5 233.5t116.5 188.5t174 126t216 46q104 0 196 -40.5t163 -112t117 -168.5t58 -210l-866 -129
q7 -71 35 -127.5t71.5 -95.5t101 -59.5t124.5 -20.5zM901 653l-6 19q-38 99 -104.5 155t-165.5 56q-42 0 -92 -14.5t-97 -49.5t-84.5 -93.5t-52.5 -145.5z" />
    <glyph glyph-name="f" unicode="f" horiz-adv-x="907" 
d="M281 1014q11 105 42.5 202.5t89 172.5t144.5 120t209 45q66 0 139.5 -22.5t145.5 -85.5l-99 -168q-54 38 -105 53.5t-91 19.5q-47 4 -88 -3q-40 -10 -71 -31.5t-54 -60.5t-38 -98.5t-24 -145.5l424 -2l-22 -197l-414 6v-88q-1 -132 -1 -270q0 -59 -0.5 -125.5
t-0.5 -135.5t-0.5 -139.5t-1.5 -136.5l-207 -4q3 218 5 374t4 259q2 120 3 199v69l-227 4v191z" />
    <glyph glyph-name="g" unicode="g" horiz-adv-x="1352" 
d="M1204 1108l-6 -1149q-1 -65 -17 -129.5t-47.5 -125t-78 -114t-107 -95t-135.5 -68t-164 -33.5q-121 -4 -228 25q-46 12 -93.5 33t-91.5 53.5t-81 78t-61 107.5l193 84q19 -43 46 -74t58 -52t63.5 -34t63.5 -19q73 -16 154 -6q70 14 121.5 43t87.5 64.5t58.5 75t35.5 75.5
t17.5 65.5t4.5 45.5v131q-60 -57 -124.5 -87.5t-119.5 -44.5q-64 -17 -126 -19q-116 0 -216 40.5t-174 116t-116.5 183.5t-42.5 243q0 136 47 242.5t123.5 179.5t173 111.5t194.5 38.5q68 -8 137 -30q59 -19 127 -54t126 -95l2 199zM627 131q66 0 128 23t112.5 64.5t85.5 99
t48 126.5v131q-11 71 -47 129.5t-88 100.5t-115.5 65t-129.5 23q-72 0 -133 -29.5t-104.5 -81.5t-68 -123t-24.5 -153t25 -151t69.5 -118.5t106 -77.5t135.5 -28z" />
    <glyph glyph-name="h" unicode="h" horiz-adv-x="1346" 
d="M373 1499l-6 -608q55 60 117 94.5t116 52.5q62 20 123 27q112 0 204 -40t158 -115t104.5 -182.5t43.5 -242.5q0 -71 -1.5 -145t-7 -145t-15 -135t-25.5 -115l-228 16q29 96 41.5 187t17.5 163q5 84 3 160q-5 107 -37 182t-78.5 122.5t-102.5 69t-110 21.5
q-57 -5 -115 -33q-50 -24 -107 -74.5t-106 -142.5l-6 -663l-196 -4l-17 1542z" />
    <glyph glyph-name="i" unicode="i" horiz-adv-x="512" 
d="M416 1333q0 -29 -11.5 -55t-31 -45t-45.5 -30t-56 -11q-29 0 -54.5 11t-45 30t-30.5 45t-11 55q0 30 11 56t30.5 45.5t45 31t54.5 11.5q30 0 56 -11.5t45.5 -31t31 -45.5t11.5 -56zM369 981q-3 -143 -5.5 -262.5t-4.5 -217.5t-3.5 -175.5t-2.5 -135.5q-3 -138 -3 -217
h-205q2 108 5 257q2 128 5.5 313t6.5 430z" />
    <glyph glyph-name="j" unicode="j" 
d="M420 1333q0 -29 -11 -55t-30.5 -45t-45 -30t-54.5 -11t-55.5 11t-46 30t-31 45t-11.5 55q0 30 11.5 56t31 45.5t46 31t55.5 11.5t54.5 -11.5t45 -31t30.5 -45.5t11 -56zM365 977q-2 -154 -3.5 -279.5t-2 -227t-1.5 -179.5t-1 -136q-1 -136 -1 -208q-1 -53 -8.5 -113.5
t-28.5 -120t-57.5 -114.5t-95.5 -97t-142.5 -66.5t-197.5 -23.5l12 226q57 -6 100.5 4.5t76 31.5t55.5 49.5t38 59.5q35 72 42 168q2 107 4 258q2 130 3 323t1 453z" />
    <glyph glyph-name="k" unicode="k" horiz-adv-x="1135" 
d="M410 1516l-37 -949l522 525l154 -123l-373 -369l430 -559l-176 -129l-402 541l-166 -162l-10 -301l-215 -13l51 1543z" />
    <glyph glyph-name="l" unicode="l" horiz-adv-x="575" 
d="M541 -49q-71 1 -125.5 24t-96 59.5t-71 83.5t-49.5 95q-48 114 -60 258l27 1268h209q-5 -178 -9.5 -326.5t-7.5 -270t-5.5 -217.5t-4.5 -169q-4 -172 -6 -271q2 -93 27 -166q10 -31 26.5 -61t40 -54t56 -38.5t75.5 -15.5z" />
    <glyph glyph-name="m" unicode="m" horiz-adv-x="1659" 
d="M354 774q32 40 67.5 82.5t77 77.5t90 57.5t107.5 22.5q42 0 81 -13.5t71 -41.5t54 -71.5t28 -103.5q31 39 65.5 79.5t75 74t87.5 55t104 21.5q44 0 86 -15t74.5 -46.5t53.5 -81t23 -117.5q6 -73 11 -184q5 -95 8.5 -241.5t3.5 -351.5l-209 -10q0 182 -1 311.5t-2 214.5
q-2 99 -3 164q-3 82 -26.5 122t-61.5 40q-25 0 -50.5 -15t-51 -39t-50 -55t-46.5 -63t-42 -62t-35 -53q2 -44 4 -97t3.5 -120t2 -150t0.5 -188l-194 -10q0 182 -3.5 311.5t-7.5 214.5q-4 99 -10 164q-3 82 -26.5 122t-61.5 40q-26 0 -53 -17t-54.5 -44t-53.5 -61.5
t-50 -69.5t-45 -67t-37 -56l9 -527l-199 -10l-27 1075l209 23z" />
    <glyph glyph-name="n" unicode="n" horiz-adv-x="1266" 
d="M174 -74q-6 172 -11 311.5t-9 249.5t-6.5 194t-4.5 145q-4 143 -6 212l228 4l4 -288q33 57 75 107.5t91 89.5t104.5 63t116.5 28q76 5 132.5 -13t96.5 -50t66 -75.5t41 -90t21.5 -92.5t8.5 -84q6 -172 3 -346t-7 -361l-205 7q8 161 14.5 322t-1.5 325q0 18 -2.5 46.5
t-11 60.5t-23.5 63.5t-39 55t-58.5 35.5t-80.5 5q-79 -12 -160.5 -115.5t-175.5 -302.5q4 -161 6.5 -256.5t4.5 -144.5q2 -58 3 -78z" />
    <glyph glyph-name="o" unicode="o" horiz-adv-x="1225" 
d="M1149 485q0 -126 -42 -233t-115 -186t-171 -123.5t-209 -44.5t-208 42t-169.5 119.5t-114.5 185.5t-42 240q0 133 42 241.5t114.5 185.5t169.5 119t208 42t209 -44.5t171 -123t115 -186t42 -234.5zM938 487q0 72 -18 145.5t-57 132t-101 95.5t-150 37q-85 0 -146 -37
t-100 -95.5t-57 -132t-18 -145.5t19.5 -145t59.5 -131.5t100.5 -95.5t141.5 -37q85 0 146.5 37t101.5 95.5t59 131.5t19 145z" />
    <glyph glyph-name="p" unicode="p" horiz-adv-x="1325" 
d="M367 1049l-2 -146q57 56 119 86.5t114 46.5q61 18 119 23q68 0 135 -19.5t127 -55t111 -85.5t87 -111.5t55.5 -132.5t16.5 -149q-3 -86 -26 -162t-60.5 -139.5t-87.5 -114.5t-106.5 -86t-117 -53.5t-120.5 -18.5q-61 2 -124 18q-55 14 -121 43.5t-130 84.5l-6 -678
l-186 -4l-17 1644zM1024 487q4 73 -18.5 140.5t-67 118.5t-106.5 81t-136 29q-62 -1 -116.5 -22.5t-98 -57t-74 -82.5t-45.5 -98l-2 -190q15 -66 47 -116t75.5 -83.5t94.5 -51t103 -18.5q70 -2 131.5 25t107.5 75t73.5 112t31.5 138z" />
    <glyph glyph-name="q" unicode="q" horiz-adv-x="1352" 
d="M1202 1085l-4 -1679h-211l8 680q-30 -28 -61.5 -49t-63 -36.5t-61.5 -26t-57 -17.5q-63 -16 -125 -18q-116 0 -216 40.5t-174 116t-116.5 183.5t-42.5 243q0 136 47 242.5t123.5 179.5t173 111.5t194.5 38.5q67 -4 136 -22q59 -15 126.5 -46t127.5 -86l2 160zM627 131
q64 0 125 22t111 61.5t86 95t50 122.5l2 152q-14 69 -50.5 126t-88 97.5t-114 63t-127.5 22.5q-72 0 -133 -29.5t-104.5 -81.5t-68 -123t-24.5 -153t25 -151t69.5 -118.5t106 -77.5t135.5 -28z" />
    <glyph glyph-name="r" unicode="r" horiz-adv-x="1116" 
d="M899 563q-1 49 -8.5 85t-19 62t-26 43t-29.5 28q-35 25 -79 24q-28 -4 -59.5 -23.5t-64.5 -50t-66.5 -69t-64.5 -79t-59 -80.5t-50 -73q1 -75 3 -147.5t3.5 -135t4 -113t5.5 -81.5l-215 -27q-6 172 -11 311.5t-9 249.5t-6.5 194t-4.5 145q-4 143 -6 212l228 4
q1 -61 1.5 -124.5t1.5 -116.5q1 -62 1 -121q29 46 70.5 101t94 104t115 85.5t133.5 45.5q80 4 146 -34q28 -16 55.5 -42.5t51 -68t39.5 -99t22 -135.5z" />
    <glyph glyph-name="s" unicode="s" horiz-adv-x="1135" 
d="M1065 219q0 -95 -38.5 -159.5t-103 -105t-148 -60t-173.5 -23.5q-92 1 -186 19q-40 7 -84.5 19.5t-90.5 30.5t-92 43t-88 58l97 152q55 -29 112.5 -56t117.5 -47.5t123 -32.5t130 -12q55 0 93 10.5t62.5 26t38 35t19.5 37.5q5 16 4 35.5t-10.5 39.5t-29 39.5t-51.5 35
t-78 25.5t-109 13q-90 4 -173.5 18.5t-149 45.5t-108 81.5t-51.5 126.5q-7 72 9.5 131.5t50 106.5t82.5 82.5t107 59t122.5 35t130.5 11.5q39 0 92 -4t111 -16t117 -34.5t110 -59.5l-69 -183q-66 35 -125.5 54.5t-105.5 30.5q-54 12 -101 16q-157 9 -244.5 -33t-87.5 -127
q0 -60 33 -87.5t90 -39.5t133 -16t162 -17q98 -15 165 -45t108 -70t59 -88.5t18 -101.5z" />
    <glyph glyph-name="t" unicode="t" horiz-adv-x="971" 
d="M580 1440l-7 -447l388 13l-15 -187l-375 -10l-8 -872l-211 -5l17 871l-346 -8l4 184l346 10l8 438z" />
    <glyph glyph-name="u" unicode="u" horiz-adv-x="1280" 
d="M915 -72l-4 287q-33 -59 -75 -111.5t-91 -92t-104.5 -62.5t-116.5 -21q-90 3 -154.5 34t-108.5 82.5t-70.5 119t-40.5 142.5t-18.5 153.5t-4.5 152.5q0 104 9 210.5t26 217.5l205 -6q-16 -124 -21.5 -223t-5.5 -174q0 -34 1 -86t7.5 -110.5t20.5 -115.5t39.5 -101.5
t64.5 -68.5t96 -16q77 11 160.5 106t175.5 292q-3 159 -5.5 254t-3.5 145q-2 59 -3 82l215 24q6 -172 10.5 -310.5t8.5 -249t6.5 -194t4.5 -144.5q4 -143 5 -212z" />
    <glyph glyph-name="v" unicode="v" horiz-adv-x="1130" 
d="M1087 1014l-393 -1053l-282 4l-351 1010l203 31l299 -859l318 895z" />
    <glyph glyph-name="w" unicode="w" horiz-adv-x="1538" 
d="M1475 1010l-199 -1045l-297 -8l-176 735l-242 -700l-299 -23l-194 1037l206 16l152 -840l297 840l192 -12l203 -850l135 858z" />
    <glyph glyph-name="x" unicode="x" horiz-adv-x="1106" 
d="M555 647l303 385l189 -74l-365 -466l385 -472l-184 -75l-322 391l-301 -387l-211 57l383 488l-395 483l209 49z" />
    <glyph glyph-name="y" unicode="y" horiz-adv-x="1124" 
d="M1071 1012q-53 -156 -96.5 -285t-78.5 -233t-63 -185t-49 -142q-49 -143 -77 -220q-20 -59 -46.5 -125.5t-65 -132.5t-90 -127.5t-120 -110t-156.5 -79.5t-198 -36l-39 195q62 -8 116.5 3.5t101 36t86 59.5t72 74t57.5 79.5t44 75.5l-422 1120l229 31l295 -881
q24 74 56.5 174.5t69 216.5t75.5 242.5t76 251.5z" />
    <glyph glyph-name="z" unicode="z" horiz-adv-x="1139" 
d="M1055 -35l-965 -41l-27 207l717 686l-659 -24l-2 200l903 25l16 -217l-719 -676l728 39z" />
    <glyph glyph-name="braceleft" unicode="{" horiz-adv-x="793" 
d="M756 -274q-66 -36 -126.5 -51t-113.5 -15q-88 0 -155.5 36.5t-112.5 91.5t-65.5 120t-14.5 123q7 60 21.5 108t31.5 89t34 76t28.5 68t14.5 66t-7 70q-12 32 -42 58q-26 22 -72 40.5t-122 18.5v182q76 0 122 18t72 40q30 26 42 59q10 37 7 70t-14.5 66t-28.5 68t-34 75.5
t-31.5 89t-21.5 108.5q-6 57 14.5 122.5t65.5 120.5t112.5 91.5t155.5 36.5q53 0 113.5 -15.5t126.5 -50.5l-70 -186q-42 31 -78 42t-65 11q-33 0 -62 -11.5t-50 -32.5t-33.5 -50t-12.5 -64q0 -56 16.5 -108t37 -104t37 -105t16.5 -111q0 -35 -8.5 -73.5t-32.5 -75.5
t-66.5 -69.5t-110.5 -53.5q68 -22 110.5 -54t66.5 -69t32.5 -76t8.5 -74q0 -55 -16.5 -107t-37 -103.5t-37 -104.5t-16.5 -111q0 -33 11.5 -61.5t32.5 -50t50 -33.5t64 -12q29 0 65 11t78 42z" />
    <glyph glyph-name="bar" unicode="|" horiz-adv-x="547" 
d="M395 1731l-37 -1985l-198 -10l16 1995h219z" />
    <glyph glyph-name="braceright" unicode="}" horiz-adv-x="793" 
d="M737 625q-76 0 -122 -18.5t-71 -40.5q-30 -26 -42 -58q-10 -37 -6.5 -70t15.5 -66t28.5 -68t33.5 -76t31.5 -89t20.5 -108q6 -58 -14.5 -123t-65.5 -120t-113 -91.5t-156 -36.5q-52 0 -112.5 15t-126.5 51l69 186q42 -31 78.5 -42t65.5 -11q33 0 62 11.5t50 32t33.5 49.5
t12.5 64q0 55 -16.5 107.5t-37 104.5t-37 104.5t-16.5 109.5q0 35 8.5 74t32.5 76t66 69t110 54q-68 21 -110 53.5t-66 69.5t-32.5 75.5t-8.5 73.5q0 55 16.5 107.5t37 104.5t37 105.5t16.5 110.5q0 33 -11.5 62t-32.5 50t-50 33.5t-64 12.5q-29 0 -65.5 -11t-78.5 -42
l-69 186q66 35 126.5 50.5t112.5 15.5q88 0 156 -36.5t113 -91.5t65.5 -120.5t14.5 -122.5q-6 -60 -20.5 -108.5t-31.5 -89t-33.5 -75.5t-28.5 -68t-15.5 -66t6.5 -70q12 -33 42 -59q25 -22 71 -40t122 -18v-182z" />
    <glyph glyph-name="asciitilde" unicode="~" horiz-adv-x="1184" 
d="M1075 950q1 -66 -10.5 -118.5t-30.5 -93t-44 -70.5t-50 -51q-61 -49 -137 -68q-55 -10 -97 3t-74.5 38t-58.5 55.5t-49.5 56.5t-46 41t-49.5 9q-30 -11 -52 -39q-9 -12 -18 -29t-15 -40.5t-8 -53.5t1 -68l-203 21q1 69 12.5 123t30 96.5t42 73.5t47.5 53q57 52 130 72
q55 11 95 -2.5t71.5 -39.5t57.5 -58.5t52.5 -59.5t56.5 -42t69 -7q22 7 40 27q15 17 27.5 51t12.5 94q0 15 -1.5 33t-3.5 36z" />
    <glyph glyph-name="DEL" horiz-adv-x="2048" 
 />
    <glyph glyph-name="nonbreakingspace" unicode="&#xa0;" horiz-adv-x="537" 
 />
    <glyph glyph-name="exclamdown" unicode="&#xa1;" horiz-adv-x="543" 
d="M145 -408l52 1233l155 4l37 -1228zM162 1094q0 23 9 43t24 35t35.5 23.5t43.5 8.5t43.5 -8.5t35.5 -23.5t23.5 -35t8.5 -43t-8.5 -43.5t-23.5 -36t-35.5 -24.5t-43.5 -9t-43.5 9t-35.5 24.5t-24 36t-9 43.5z" />
    <glyph glyph-name="cent" unicode="&#xa2;" horiz-adv-x="909" 
d="M600 1579l-33 -524q79 -14 145.5 -55t112.5 -103l-131 -125q-15 22 -37 43.5t-48 39t-55 28t-58 10.5q-46 0 -86.5 -16.5t-70.5 -48t-47.5 -77.5t-17.5 -106q0 -57 17.5 -102.5t47.5 -77.5t70.5 -49t86.5 -17q29 0 59 10t58 26.5t51 38t38 44.5l123 -127
q-48 -60 -112 -100t-140 -55l31 -529l-192 -6l24 532q-75 11 -140 47t-113 90.5t-75.5 125t-27.5 149.5q0 77 26 145.5t72 123t108.5 91.5t135.5 50l-35 518z" />
    <glyph glyph-name="sterling" unicode="&#xa3;" horiz-adv-x="1241" 
d="M311 664q-15 46 -35 95t-37.5 100t-29.5 103.5t-12 106.5q0 70 25.5 143.5t77.5 134t131.5 99.5t186.5 39q114 0 198.5 -36t141 -101.5t84 -156t27.5 -198.5v-30.5t-2 -32.5l-176 -4q2 17 3 32.5t1 30.5q0 76 -21.5 135t-59 99t-87 61t-106.5 21q-62 0 -109 -22.5
t-76.5 -60.5t-40.5 -90t0 -110q10 -58 24.5 -104.5t30.5 -88t31 -80.5t27 -81l350 8l-16 -172l-310 -12v-52q-5 -50 -16 -99q-10 -42 -29 -89.5t-51 -85.5l713 14l6 -186l-983 -4l-4 176q68 37 105.5 84.5t55.5 89.5q21 49 25 100v22.5t-2 22.5l-258 -8l-10 182z" />
    <glyph glyph-name="currency" unicode="&#xa4;" horiz-adv-x="846" 
d="M555 836q0 24 -9 45.5t-25 37t-37 24.5t-46 9q-24 0 -46 -9t-38 -24.5t-25.5 -37t-9.5 -45.5q0 -25 9.5 -46.5t25.5 -37.5t38 -25.5t46 -9.5q25 0 46 9.5t37 25.5t25 37.5t9 46.5zM770 1024l-86 -82q9 -23 15 -48.5t6 -51.5q0 -61 -25 -113l94 -88l-127 -129l-96 88
q-26 -12 -54 -18.5t-59 -6.5q-61 0 -114 25l-127 -121l-125 131l125 119q-25 49 -25 113q0 53 18 100l-118 115l123 131l114 -111q29 16 61.5 24.5t67.5 8.5q34 0 66 -8.5t61 -24.5l86 82z" />
    <glyph glyph-name="yen" unicode="&#xa5;" horiz-adv-x="1393" 
d="M631 350l4 94l-338 -8l-6 209l225 6l-440 752l235 27l424 -768l363 768l227 -7l-389 -761l192 6v-209l-301 -8l-2 -5v-98h303l-4 -194l-299 -4v-183l-207 -12l7 192l-324 -4v209z" />
    <glyph glyph-name="brokenbar" unicode="&#xa6;" horiz-adv-x="553" 
d="M399 1731l-16 -904h-211l8 904h219zM377 575l-15 -829l-198 -10l6 839h207z" />
    <glyph glyph-name="section" unicode="&#xa7;" horiz-adv-x="1362" 
d="M1266 440q-16 -91 -62 -157q37 -50 55 -112.5t7 -139.5q-10 -70 -40 -124.5t-73.5 -94.5t-98.5 -67.5t-114 -44.5t-120.5 -24.5t-117.5 -7.5q-77 0 -151.5 16.5t-147.5 46t-143.5 70.5t-138.5 90l135 162q78 -69 156 -106.5t141 -56.5q74 -22 141 -27q72 -4 134 11.5
t108.5 44t74.5 67.5t33 84q4 37 -12.5 67.5t-47 55.5t-72.5 44.5t-90 35t-98 27t-97 19.5q-57 10 -120 26.5t-124 43.5t-115.5 67t-94 96.5t-60 131.5t-13.5 172q3 45 13.5 86t27.5 76q-24 49 -35.5 110.5t-5.5 137.5q6 80 34 144.5t71.5 115t100 87.5t120 60.5t132 34.5
t136.5 10q94 -5 189 -29q40 -10 85 -25.5t90 -37.5t89 -51.5t84 -67.5l-113 -176q-32 36 -68 63t-72.5 47t-72.5 34t-68 23q-77 21 -151 24q-91 0 -162 -27.5t-119.5 -71t-74 -97t-25.5 -105.5t30.5 -101.5t84.5 -90.5t127 -70t158 -39q72 -8 145 -25t139 -44.5t121.5 -65.5
t93.5 -88.5t55.5 -114.5t6.5 -142zM627 729q-76 12 -161 37t-161 72v-27q0 -51 30.5 -100.5t84.5 -90.5t127 -70t158 -40q85 -9 168 -31t155 -57q6 14 10 28t6 29q4 37 -12.5 67.5t-47 55.5t-72.5 45t-90 35.5t-98 27t-97 19.5z" />
    <glyph glyph-name="dieresis" unicode="&#xa8;" horiz-adv-x="727" 
d="M727 1327q0 -24 -9 -46t-25 -38t-37 -25.5t-46 -9.5q-24 0 -45.5 9.5t-37.5 25.5t-25.5 38t-9.5 46q0 25 9.5 46t25.5 37t37.5 25t45.5 9q25 0 46 -9t37 -25t25 -37t9 -46zM236 1327q0 -24 -9.5 -46t-25.5 -38t-38 -25.5t-46 -9.5t-45.5 9.5t-37 25.5t-25 38t-9.5 46
q0 25 9.5 46t25 37t37 25t45.5 9t46 -9t38 -25t25.5 -37t9.5 -46z" />
    <glyph glyph-name="copyright" unicode="&#xa9;" horiz-adv-x="1053" 
d="M754 565q-41 -59 -99.5 -94t-124.5 -35q-54 0 -101 21t-82 57t-55 84.5t-20 103.5t20 103t55 84t82 57t101 21q62 0 118.5 -31t94.5 -84l-79 -64q-26 35 -61 54.5t-73 19.5q-32 0 -59.5 -12.5t-48.5 -34t-33 -51t-12 -62.5q0 -34 12 -63.5t33 -51t48.5 -34t59.5 -12.5
q41 0 77 22t61 60zM940 705q0 -87 -32.5 -164t-89 -134t-132.5 -90.5t-162 -33.5q-85 0 -160 33.5t-130.5 90.5t-88 134t-32.5 164q0 88 32.5 165t88 134.5t130.5 90.5t160 33q86 0 162 -33t132.5 -90.5t89 -134.5t32.5 -165zM829 705q0 65 -24 122.5t-65 100t-96.5 67.5
t-119.5 25q-63 0 -118 -25t-96.5 -67.5t-65 -100t-23.5 -122.5t23.5 -122t65 -100t96.5 -67.5t118 -24.5q64 0 119.5 24.5t96.5 67.5t65 100t24 122z" />
    <glyph glyph-name="ordfeminine" unicode="&#xaa;" horiz-adv-x="973" 
d="M639 666l10 65q-68 -38 -132 -55t-120 -17q-47 0 -91 13t-77.5 38.5t-54 64.5t-20.5 91q0 75 32 129t84.5 89t119.5 52t136 17q34 0 64 -2.5t55 -5.5q-8 24 -19 46t-27 38t-37 25.5t-48 9.5q-23 0 -52.5 -7.5t-66.5 -26.5t-81 -52.5t-95 -85.5l-100 118q65 58 125 95
t113 58t97 28.5t78 7.5q82 0 139 -43t92 -110.5t50.5 -150.5t15.5 -163q0 -115 -30 -293zM817 436l-688 -22l-6 147l694 23v-148zM672 969v16.5t-2 18.5q-31 9 -60.5 12.5t-54.5 3.5q-50 0 -96.5 -11t-80.5 -31.5t-51 -50.5t-8 -69q7 -26 25.5 -37.5t44.5 -11.5q33 0 73 12
t79.5 28t73.5 32.5t55 25.5q2 17 2 32.5v29.5z" />
    <glyph glyph-name="guillemotleft" unicode="&#xab;" horiz-adv-x="1313" 
d="M1235 221l-135 -158l-543 451l500 449l129 -148l-346 -291zM743 221l-135 -158l-542 451l499 449l129 -148l-346 -291z" />
    <glyph glyph-name="logicalnot" unicode="&#xac;" horiz-adv-x="1090" 
d="M946 414l-190 -4l8 286l-629 -6l8 184l791 -6z" />
    <glyph glyph-name="uni00AD" unicode="&#xad;" horiz-adv-x="1057" 
d="M928 600l-791 -22l-6 208l797 23v-209z" />
    <glyph glyph-name="registered" unicode="&#xae;" horiz-adv-x="1020" 
d="M924 985q0 -87 -33 -163.5t-89.5 -134t-132 -91t-161.5 -33.5q-85 0 -160 33.5t-131 91t-88.5 134t-32.5 163.5q0 88 32.5 165.5t88.5 135t131 90.5t160 33q86 0 161.5 -33t132 -90.5t89.5 -135t33 -165.5zM813 985q0 65 -24 122.5t-65 100t-96.5 67.5t-119.5 25
q-63 0 -118 -25t-96.5 -67.5t-65 -100t-23.5 -122.5q0 -74 30 -137t82 -107v473q34 11 66 16.5t56 8.5q28 4 53 4q34 0 76.5 -8t79.5 -29.5t61.5 -61t23.5 -102.5v-2q-3 -49 -30.5 -83t-67.5 -56l88 -137q42 42 66 99t24 122zM324 735q78 -63 184 -63q59 0 109.5 20t91.5 58
l-93 -29l-90 147q-9 -5 -23.5 -4.5t-31.5 0.5h-23t-26 2q2 -34 2 -66v-63zM422 975q20 -6 43 -5t45 3q59 9 86 35t27 49q0 38 -36.5 57t-94.5 19q-9 1 -20 0q-10 -1 -23 -2.5t-27 -4.5v-151z" />
    <glyph glyph-name="macron" unicode="&#xaf;" horiz-adv-x="793" 
d="M793 1438l-7 -209l-786 -4v202z" />
    <glyph glyph-name="degree" unicode="&#xb0;" horiz-adv-x="721" 
d="M627 1169q0 -54 -21 -102.5t-57 -85t-85 -57.5t-104 -21t-103.5 21t-84.5 57.5t-57 85t-21 102.5q0 55 21 104t57 86t84.5 58t103.5 21t104 -21t85 -58t57 -86t21 -104zM477 1163q0 25 -9 46t-25 37t-37 25t-46 9q-24 0 -45.5 -9t-37.5 -25t-25.5 -37t-9.5 -46
q0 -24 9.5 -46t25.5 -38t37.5 -25.5t45.5 -9.5q25 0 46 9.5t37 25.5t25 38t9 46z" />
    <glyph glyph-name="plusminus" unicode="&#xb1;" horiz-adv-x="1049" 
d="M922 600l-287 -8l-8 -307l-209 6l6 295l-293 -8l-6 208l305 9l8 292l209 -10l-8 -276l283 8v-209zM922 -16l-791 -2l-6 208l797 3v-209z" />
    <glyph glyph-name="twosuperior" unicode="&#xb2;" horiz-adv-x="768" 
d="M647 1139q-11 -75 -67 -135.5t-168 -116.5q-1 -1 -8.5 -5.5t-19 -13.5t-25.5 -22t-27 -31l284 10l5 -149l-486 -8q-2 51 10.5 99t37 90t60 77.5t79.5 60.5q51 25 85.5 45.5t55 41t28.5 43t5 51.5q-5 49 -38 72t-79 20q-43 -5 -74.5 -54.5t-40.5 -123.5l-143 20
q3 53 16 94t32 71t42 51t47 35q55 33 123 38q86 2 139.5 -27t82.5 -71t38 -87t6 -75z" />
    <glyph glyph-name="threesuperior" unicode="&#xb3;" horiz-adv-x="743" 
d="M629 874q0 -35 -12 -73.5t-42.5 -70.5t-84 -53t-136.5 -20q-57 5 -109 31q-22 11 -45 28t-44 41t-39.5 56.5t-30.5 75.5l150 41q6 -29 20 -53t32 -41.5t37 -27.5t35 -11q19 -2 39.5 1t38 11.5t29 23.5t12.5 39q1 31 -11 50t-29 29t-35.5 12.5t-28.5 1.5q-14 0 -32 -1
q-34 -2 -85 -6v142q26 -2 46 -3t34 -2q16 -1 27 -1q31 -1 53.5 9t36 24.5t20 30t6.5 26.5t-4 24.5t-15.5 25.5t-31.5 20t-51 8q-30 -2 -54 -15q-20 -11 -38 -36.5t-21 -71.5l-147 14q19 77 48.5 124t64 72.5t71 34.5t70.5 11q38 1 82.5 -7t82.5 -30.5t63.5 -63.5t25.5 -106
q-3 -29 -13 -58q-9 -25 -26 -52.5t-49 -49.5q45 -29 67.5 -70.5t22.5 -83.5z" />
    <glyph glyph-name="acute" unicode="&#xb4;" horiz-adv-x="379" 
d="M379 1491l-252 -303l-127 72l178 342z" />
    <glyph glyph-name="mu" unicode="&#xb5;" horiz-adv-x="1253" 
d="M936 -72l-4 287q-33 -59 -75 -111.5t-91 -92t-104.5 -62.5t-116.5 -21q-51 2 -92.5 12.5t-75.5 28.5q6 -179 10 -294.5t6 -182.5q3 -78 4 -119l-227 -4q-4 214 -7.5 379.5t-6 290t-4 213t-2.5 149t-1.5 98t-1 59.5t-0.5 33.5v20.5q0 104 9 210.5t26 217.5l205 -6
q-15 -124 -21 -223t-6 -174q0 -34 1 -86t8 -110.5t20.5 -115.5t39.5 -101.5t65 -68.5t96 -16q76 11 160 106t176 292q-3 159 -6 254t-4 145q-2 59 -3 82l215 24q6 -172 10.5 -310.5t8.5 -249t6.5 -194t4.5 -144.5q4 -143 5 -212z" />
    <glyph glyph-name="paragraph" unicode="&#xb6;" horiz-adv-x="1511" 
d="M1323 -10l-193 8l3 405q-69 -14 -131.5 -19t-114.5 -7l-6 -412l-211 8l8 414q-71 10 -142 28.5t-136.5 48t-122.5 70t-100 94t-69.5 121t-29.5 150.5q-5 121 27 212.5t88.5 158t131 110.5t154.5 70t159 36.5t144 10.5q77 -2 165 -12q75 -9 172.5 -27t203.5 -53v-1415z
M285 948q0 -65 23 -124.5t71 -108.5t123 -84.5t180 -52.5l14 712q-91 -11 -166.5 -39.5t-130 -72.5t-84.5 -102.5t-30 -127.5zM891 563q54 0 117.5 5.5t126.5 19.5l6 659q-57 20 -120.5 30t-117.5 15z" />
    <glyph glyph-name="periodcentered" unicode="&#xb7;" 
d="M385 733q0 -26 -10 -49t-27.5 -40.5t-40.5 -27.5t-49 -10q-27 0 -50.5 10t-41 27.5t-27.5 40.5t-10 49q0 27 10 50.5t27.5 41t41 27.5t50.5 10q26 0 49 -10t40.5 -27.5t27.5 -41t10 -50.5z" />
    <glyph glyph-name="cedilla" unicode="&#xb8;" horiz-adv-x="481" 
d="M479 -410q-8 -51 -32.5 -85.5t-58.5 -55.5t-73.5 -30t-78.5 -9q-67 0 -122 23.5t-114 60.5l57 129q34 -29 66.5 -44.5t58.5 -23.5q30 -9 58 -10q40 0 63 26t23 60q0 41 -27.5 66.5t-66.5 38.5t-82.5 15.5t-75.5 -1.5l137 301l92 -22l-65 -183q52 -3 90 -15.5t65 -31
t43.5 -41.5t26.5 -46q22 -55 16 -122z" />
    <glyph glyph-name="onesuperior" unicode="&#xb9;" horiz-adv-x="537" 
d="M393 1374l-8 -715l-156 -2l17 560l-101 -80l-88 108l201 148z" />
    <glyph glyph-name="ordmasculine" unicode="&#xba;" horiz-adv-x="948" 
d="M817 997q0 -80 -26.5 -148t-73 -118t-108.5 -78t-134 -28q-71 0 -132.5 27t-108 75.5t-73 117t-26.5 152.5q0 85 26.5 153.5t73 117.5t108 75.5t132.5 26.5q72 0 134 -28t108.5 -78t73 -118t26.5 -149zM655 997q0 41 -9.5 81.5t-31 73t-56 53t-83.5 20.5
q-48 0 -81.5 -20.5t-55 -53t-31.5 -73t-10 -81.5t11 -81t33.5 -72t55.5 -52t78 -20q47 0 81 20t56 52t32.5 72t10.5 81zM799 436l-654 -22l-6 147l660 23v-148z" />
    <glyph glyph-name="guillemotright" unicode="&#xbb;" horiz-adv-x="1311" 
d="M1245 514l-543 -451l-135 158l396 303l-345 291l127 148zM754 514l-543 -451l-135 158l395 303l-344 291l127 148z" />
    <glyph glyph-name="onequarter" unicode="&#xbc;" horiz-adv-x="1296" 
d="M1094 1395l-797 -1413l-145 32l768 1411zM821 346l183 8l8 324l145 2l-8 -320l57 2v-145l-59 -4l-6 -258h-148l6 252l-327 -14l-35 100l168 377l149 -25zM416 1374l-8 -715l-156 -2l16 560l-100 -80l-88 108l201 148z" />
    <glyph glyph-name="onehalf" unicode="&#xbd;" horiz-adv-x="1305" 
d="M416 1374l-8 -715l-156 -2l16 560l-100 -80l-88 108l201 148zM1094 1395l-797 -1413l-145 32l768 1411zM1219 438q-11 -74 -67 -135t-169 -117q-1 -1 -8.5 -5.5t-19 -13t-25.5 -21.5t-27 -31l285 10l4 -150l-485 -8q-3 51 9.5 99t37 90.5t60 77.5t79.5 61
q51 25 85.5 45.5t55 40.5t28.5 42.5t5 51.5q-5 50 -37.5 72.5t-79.5 19.5q-43 -5 -74 -54.5t-40 -123.5l-144 21q3 53 16 93.5t32 70.5t42 51t47 35q55 32 123 38q57 2 100 -11t73.5 -35.5t49.5 -51t29.5 -58t13.5 -57t1 -47.5z" />
    <glyph glyph-name="threequarters" unicode="&#xbe;" horiz-adv-x="1436" 
d="M1229 1395l-797 -1413l-145 32l768 1411zM621 874q0 -35 -12 -73.5t-42.5 -70.5t-84 -53t-136.5 -20q-58 5 -110 31q-22 11 -45 28t-44 41t-39 56.5t-30 75.5l149 41q6 -29 20.5 -53t32.5 -41.5t37 -27.5t35 -11q18 -2 39 1t38.5 11.5t29 23.5t12.5 39q1 31 -11 50
t-29 29t-35.5 12.5t-28.5 1.5q-15 0 -33 -1q-16 -1 -37 -2.5t-47 -3.5v142q26 -2 45.5 -3t33.5 -2q16 -1 27 -1q31 -1 53.5 9t36.5 24.5t20.5 30t6.5 26.5t-4 24.5t-15.5 25.5t-31.5 20t-51 8q-30 -2 -54 -15q-20 -11 -38 -36.5t-21 -71.5l-147 14q19 77 48.5 124t63.5 72.5
t71 34.5t71 11q38 1 82.5 -7t82.5 -30.5t63 -63.5t25 -106q-3 -29 -13 -58q-9 -25 -26 -52.5t-49 -49.5q45 -29 68 -70.5t23 -83.5zM956 346l183 6l8 326l145 2l-8 -322l62 4v-145l-64 -4l-6 -258h-148l7 252l-328 -14l-35 100l168 377l150 -25z" />
    <glyph glyph-name="questiondown" unicode="&#xbf;" horiz-adv-x="1139" 
d="M573 -375q-67 0 -129 17t-116 49t-99 77t-77.5 100.5t-50 121t-17.5 137.5q0 51 8.5 102.5t29 102.5t55.5 99.5t89 92.5q31 26 66.5 51t70 51t65 55.5t51.5 64.5t30 78t0 96h180q5 -22 7.5 -43t2.5 -39q0 -61 -20 -109t-52.5 -88.5t-74 -75t-85 -68.5t-85 -70t-74 -78.5
t-52.5 -93.5t-20 -116t22 -127t62.5 -110t99 -77.5t130.5 -29.5q67 0 119.5 26.5t88.5 71.5t55 103.5t19 122.5q0 23 -1.5 48.5t-6.5 53.5l178 27q11 -35 15 -68t4 -65q0 -100 -35.5 -189t-100 -156t-154.5 -106t-198 -39zM510 1167q0 23 8.5 43.5t23.5 35.5t35.5 23.5
t43.5 8.5t43.5 -8.5t35.5 -23.5t24 -35.5t9 -43.5t-9 -43.5t-24 -35.5t-35.5 -24t-43.5 -9t-43.5 9t-35.5 24t-23.5 35.5t-8.5 43.5z" />
    <glyph glyph-name="Agrave" unicode="&#xc0;" horiz-adv-x="1575" 
d="M1290 -57q-29 102 -60 202.5t-65 202.5l-805 -35q-37 -96 -71 -191t-66 -192l-227 31q141 378 312.5 744t365.5 725l280 -5q172 -347 314 -707.5t258 -740.5zM793 1264q-101 -192 -191 -385.5t-172 -391.5l676 29q-68 192 -146 377t-167 371zM856 1563l-127 -72l-270 268
l188 164z" />
    <glyph glyph-name="Aacute" unicode="&#xc1;" horiz-adv-x="1575" 
d="M1290 -57q-29 102 -60 202.5t-65 202.5l-805 -35q-37 -96 -71 -191t-66 -192l-227 31q141 378 312.5 744t365.5 725l280 -5q172 -347 314 -707.5t258 -740.5zM793 1264q-101 -192 -191 -385.5t-172 -391.5l676 29q-68 192 -146 377t-167 371zM1122 1827l-252 -303
l-127 72l178 342z" />
    <glyph glyph-name="Acircumflex" unicode="&#xc2;" horiz-adv-x="1575" 
d="M1290 -57q-29 102 -60 202.5t-65 202.5l-805 -35q-37 -96 -71 -191t-66 -192l-227 31q141 378 312.5 744t365.5 725l280 -5q172 -347 314 -707.5t258 -740.5zM793 1264q-101 -192 -191 -385.5t-172 -391.5l676 29q-68 192 -146 377t-167 371zM1129 1632l-111 -127
l-227 199l-185 -209l-139 88l313 338z" />
    <glyph glyph-name="Atilde" unicode="&#xc3;" horiz-adv-x="1575" 
d="M1290 -57q-29 102 -60 202.5t-65 202.5l-805 -35q-37 -96 -71 -191t-66 -192l-227 31q141 378 312.5 744t365.5 725l280 -5q172 -347 314 -707.5t258 -740.5zM793 1264q-101 -192 -191 -385.5t-172 -391.5l676 29q-68 192 -146 377t-167 371zM1202 1890q3 -23 5.5 -44.5
t2.5 -41.5q0 -56 -18 -108.5t-52 -93.5t-83 -66t-111 -25q-43 0 -75.5 12.5t-58 32t-46 41.5t-39.5 41t-38 31.5t-42 11.5q-25 -3 -44 -21q-17 -15 -31.5 -47.5t-16.5 -91.5l-168 29q5 51 16.5 92t27 72.5t33.5 55t36 40.5q42 39 92 55q56 13 98 3.5t74.5 -31t57.5 -49.5
t47 -52t43.5 -39t45.5 -10q22 5 40 21q15 14 27.5 38.5t12.5 67.5q0 16 -1.5 34t-6.5 38z" />
    <glyph glyph-name="Adieresis" unicode="&#xc4;" horiz-adv-x="1575" 
d="M1290 -57q-29 102 -60 202.5t-65 202.5l-805 -35q-37 -96 -71 -191t-66 -192l-227 31q141 378 312.5 744t365.5 725l280 -5q172 -347 314 -707.5t258 -740.5zM793 1264q-101 -192 -191 -385.5t-172 -391.5l676 29q-68 192 -146 377t-167 371zM1167 1618q0 -24 -9 -46
t-25 -38t-37 -25.5t-46 -9.5q-24 0 -45.5 9.5t-37.5 25.5t-25.5 38t-9.5 46q0 25 9.5 46t25.5 37t37.5 25t45.5 9q25 0 46 -9t37 -25t25 -37t9 -46zM676 1618q0 -24 -9.5 -46t-25.5 -38t-38 -25.5t-46 -9.5t-45.5 9.5t-37 25.5t-25 38t-9.5 46q0 25 9.5 46t25 37t37 25
t45.5 9t46 -9t38 -25t25.5 -37t9.5 -46z" />
    <glyph glyph-name="Aring" unicode="&#xc5;" horiz-adv-x="1575" 
d="M1063 1561q0 -57 -22 -106.5t-60 -84.5q323 -667 545 -1393l-236 -34q-29 102 -60 202.5t-65 202.5l-805 -35q-37 -96 -71 -191t-66 -192l-227 31q133 356 293 703.5t342 687.5q-47 37 -74 91.5t-27 117.5q0 55 21 104t57 85.5t84.5 57.5t104.5 21q55 0 103.5 -21
t84.5 -57.5t57 -85.5t21 -104zM793 1264q-101 -192 -191 -385.5t-172 -391.5l676 29q-68 192 -146 377t-167 371zM913 1554q0 25 -9 46t-24.5 37t-37 25t-45.5 9q-25 0 -46.5 -9t-37.5 -25t-25.5 -37t-9.5 -46q0 -24 9.5 -45.5t25.5 -37.5t37.5 -25.5t46.5 -9.5
q24 0 45.5 9.5t37 25.5t24.5 37.5t9 45.5z" />
    <glyph glyph-name="AE" unicode="&#xc6;" horiz-adv-x="2144" 
d="M1772 539l-594 -29l4 -313l864 49l4 -197l-1057 -57l-6 348l-581 -27q-54 -100 -103.5 -196.5t-91.5 -186.5l-211 31q43 95 100 206t121.5 228.5t133 236t134.5 229t126 208t106.5 172.5t77 122.5t37.5 57.5l1220 13l-6 -191l-883 -14l7 -522l593 24zM973 1266
q-113 -171 -234.5 -370t-236.5 -407l483 19z" />
    <glyph glyph-name="Ccedilla" unicode="&#xc7;" horiz-adv-x="1505" 
d="M989 -410q-8 -51 -32.5 -85.5t-58.5 -55.5t-74 -30t-79 -9q-66 0 -121 23.5t-114 60.5l57 129q34 -29 66.5 -44.5t58.5 -23.5q30 -9 58 -10q40 0 63 26t23 60q0 26 -15.5 51t-50.5 42q-27 11 -58 19q-26 7 -59.5 10t-68.5 -3l94 207q-128 28 -236.5 97.5t-188 169.5
t-124.5 225t-45 264q0 107 27 206t76 185t118 156.5t153 121t181 78t201 27.5q89 0 172 -20t158 -57t140 -90t117 -118l-153 -125q-78 97 -189.5 154t-244.5 57q-116 0 -217 -45.5t-177 -123.5t-119.5 -182.5t-43.5 -223.5t43.5 -224t119.5 -183t177 -123.5t217 -45.5
q70 0 135 17t122.5 48t107 75t87.5 98l162 -113q-51 -74 -118 -133.5t-145.5 -101.5t-167 -65t-183.5 -23q-16 0 -30 1t-30 3l-32 -97q52 -3 90 -15.5t65 -31t43.5 -41.5t26.5 -46q22 -55 16 -122z" />
    <glyph glyph-name="Egrave" unicode="&#xc8;" horiz-adv-x="1350" 
d="M977 539l-594 -29l4 -313l864 49l4 -197l-1056 -57l-23 1425l1086 17l-7 -191l-882 -14l6 -522l594 24zM776 1567l-127 -72l-270 268l188 164z" />
    <glyph glyph-name="Eacute" unicode="&#xc9;" horiz-adv-x="1350" 
d="M977 539l-594 -29l4 -313l864 49l4 -197l-1056 -57l-23 1425l1086 17l-7 -191l-882 -14l6 -522l594 24zM1004 1794l-252 -303l-127 72l178 342z" />
    <glyph glyph-name="Ecircumflex" unicode="&#xca;" horiz-adv-x="1350" 
d="M977 539l-594 -29l4 -313l864 49l4 -197l-1056 -57l-23 1425l1086 17l-7 -191l-882 -14l6 -522l594 24zM1049 1636l-111 -127l-227 199l-185 -209l-139 88l313 338z" />
    <glyph glyph-name="Edieresis" unicode="&#xcb;" horiz-adv-x="1350" 
d="M977 539l-594 -29l4 -313l864 49l4 -197l-1056 -57l-23 1425l1086 17l-7 -191l-882 -14l6 -522l594 24zM1075 1634q0 -24 -9 -46t-25 -38t-37 -25.5t-46 -9.5q-24 0 -45.5 9.5t-37.5 25.5t-25.5 38t-9.5 46q0 25 9.5 46t25.5 37t37.5 25t45.5 9q25 0 46 -9t37 -25t25 -37
t9 -46zM584 1634q0 -24 -9.5 -46t-25.5 -38t-38 -25.5t-46 -9.5t-45.5 9.5t-37 25.5t-25 38t-9.5 46q0 25 9.5 46t25 37t37 25t45.5 9t46 -9t38 -25t25.5 -37t9.5 -46z" />
    <glyph glyph-name="Igrave" unicode="&#xcc;" horiz-adv-x="590" 
d="M408 35h-201l-35 1390l223 -8zM349 1569l-127 -72l-270 268l188 164z" />
    <glyph glyph-name="Iacute" unicode="&#xcd;" horiz-adv-x="590" 
d="M408 35h-201l-35 1390l223 -8zM615 1810l-252 -303l-127 72l178 342z" />
    <glyph glyph-name="Icircumflex" unicode="&#xce;" horiz-adv-x="590" 
d="M408 35h-201l-35 1390l223 -8zM616 1636l-111 -127l-227 199l-185 -209l-139 88l313 338z" />
    <glyph glyph-name="Idieresis" unicode="&#xcf;" horiz-adv-x="590" 
d="M592 1657q0 -25 -9 -46.5t-25 -37.5t-37 -25.5t-46 -9.5q-24 0 -46 9.5t-38 25.5t-25.5 37.5t-9.5 46.5q0 24 9.5 45.5t25.5 37.5t38 25t46 9q25 0 46 -9t37 -25t25 -37.5t9 -45.5zM223 1657q0 -25 -9.5 -46.5t-25.5 -37.5t-37.5 -25.5t-46.5 -9.5q-24 0 -45 9.5
t-36.5 25.5t-25 37.5t-9.5 46.5q0 24 9.5 45.5t25 37.5t36.5 25t45 9q25 0 46.5 -9t37.5 -25t25.5 -37.5t9.5 -45.5zM408 35h-201l-35 1390l223 -8z" />
    <glyph glyph-name="Eth" unicode="&#xd0;" horiz-adv-x="1569" 
d="M1483 735q0 -140 -48.5 -252.5t-131.5 -199.5t-192.5 -149.5t-231.5 -102.5t-249 -59t-245 -19q-40 0 -79 2t-75 8l-16 662l-182 -4l-6 208l182 5l-16 614q156 12 284 12q112 0 230 -8.5t229.5 -35t211 -75.5t174 -129.5t118 -197.5t43.5 -279zM823 643l-407 -12l12 -484
q17 -2 35 -2h35q100 0 199 18t188 53t165.5 86.5t131.5 118t85 148t27 176.5q-3 97 -33 175.5t-81 138.5t-120 103.5t-149.5 71.5t-168.5 41t-177 13q-38 0 -80.5 -2.5t-87.5 -7.5l13 -438l413 12v-209z" />
    <glyph glyph-name="Ntilde" unicode="&#xd1;" horiz-adv-x="1686" 
d="M1286 332l-16 1093l223 -16l12 -1374l-215 -17l-895 1069l13 -1079l-209 -8l-19 1430l211 10zM1208 1852q3 -23 5.5 -44.5t2.5 -41.5q0 -56 -18 -108.5t-52 -93.5t-83 -66t-111 -25q-43 0 -75.5 12.5t-58 32t-46 41.5t-39.5 41t-38 31.5t-42 11.5q-25 -3 -44 -21
q-17 -15 -31.5 -47.5t-16.5 -91.5l-168 29q5 51 16.5 92t27 72.5t33.5 55t36 40.5q42 39 92 55q56 13 98 3.5t74.5 -31t57.5 -49.5t47 -52t43.5 -39t45.5 -10q22 5 40 21q15 14 27.5 38.5t12.5 67.5q0 16 -1.5 34t-6.5 38z" />
    <glyph glyph-name="Ograve" unicode="&#xd2;" horiz-adv-x="1677" 
d="M1595 707q0 -107 -27 -205.5t-76.5 -184.5t-118.5 -157t-153.5 -121.5t-181 -78.5t-200.5 -28q-105 0 -201.5 28t-180.5 78.5t-153 121.5t-118 157t-76 184.5t-27 205.5t27 206t76 185t118 156.5t153 121t181 78t201 27.5t200.5 -27.5t181 -78t153.5 -121t118.5 -156.5
t76.5 -185t27 -206zM1397 707q0 79 -20 152.5t-56.5 137.5t-87.5 116.5t-113 90t-133.5 58t-148.5 20.5q-116 0 -217 -45.5t-177 -123.5t-119.5 -182.5t-43.5 -223.5t43.5 -224t119.5 -183t177 -123.5t217 -45.5q77 0 148.5 20.5t133.5 58t113 90t87.5 116.5t56.5 137.5
t20 153.5zM792 1610l-127 -72l-270 268l188 164z" />
    <glyph glyph-name="Oacute" unicode="&#xd3;" horiz-adv-x="1677" 
d="M1595 707q0 -107 -27 -205.5t-76.5 -184.5t-118.5 -157t-153.5 -121.5t-181 -78.5t-200.5 -28q-105 0 -201.5 28t-180.5 78.5t-153 121.5t-118 157t-76 184.5t-27 205.5t27 206t76 185t118 156.5t153 121t181 78t201 27.5t200.5 -27.5t181 -78t153.5 -121t118.5 -156.5
t76.5 -185t27 -206zM1397 707q0 79 -20 152.5t-56.5 137.5t-87.5 116.5t-113 90t-133.5 58t-148.5 20.5q-116 0 -217 -45.5t-177 -123.5t-119.5 -182.5t-43.5 -223.5t43.5 -224t119.5 -183t177 -123.5t217 -45.5q77 0 148.5 20.5t133.5 58t113 90t87.5 116.5t56.5 137.5
t20 153.5zM1170 1841l-252 -303l-127 72l178 342z" />
    <glyph glyph-name="Ocircumflex" unicode="&#xd4;" horiz-adv-x="1677" 
d="M1595 707q0 -107 -27 -205.5t-76.5 -184.5t-118.5 -157t-153.5 -121.5t-181 -78.5t-200.5 -28q-105 0 -201.5 28t-180.5 78.5t-153 121.5t-118 157t-76 184.5t-27 205.5t27 206t76 185t118 156.5t153 121t181 78t201 27.5t200.5 -27.5t181 -78t153.5 -121t118.5 -156.5
t76.5 -185t27 -206zM1397 707q0 79 -20 152.5t-56.5 137.5t-87.5 116.5t-113 90t-133.5 58t-148.5 20.5q-116 0 -217 -45.5t-177 -123.5t-119.5 -182.5t-43.5 -223.5t43.5 -224t119.5 -183t177 -123.5t217 -45.5q77 0 148.5 20.5t133.5 58t113 90t87.5 116.5t56.5 137.5
t20 153.5zM1170 1683l-111 -127l-227 199l-185 -209l-139 88l313 338z" />
    <glyph glyph-name="Otilde" unicode="&#xd5;" horiz-adv-x="1677" 
d="M1595 707q0 -107 -27 -205.5t-76.5 -184.5t-118.5 -157t-153.5 -121.5t-181 -78.5t-200.5 -28q-105 0 -201.5 28t-180.5 78.5t-153 121.5t-118 157t-76 184.5t-27 205.5t27 206t76 185t118 156.5t153 121t181 78t201 27.5t200.5 -27.5t181 -78t153.5 -121t118.5 -156.5
t76.5 -185t27 -206zM1397 707q0 79 -20 152.5t-56.5 137.5t-87.5 116.5t-113 90t-133.5 58t-148.5 20.5q-116 0 -217 -45.5t-177 -123.5t-119.5 -182.5t-43.5 -223.5t43.5 -224t119.5 -183t177 -123.5t217 -45.5q77 0 148.5 20.5t133.5 58t113 90t87.5 116.5t56.5 137.5
t20 153.5zM1231 1927q3 -23 5.5 -44.5t2.5 -41.5q0 -56 -18 -108.5t-52 -93.5t-83 -66t-111 -25q-43 0 -75.5 12.5t-58 32t-46 41.5t-39.5 41t-38 31.5t-42 11.5q-25 -3 -44 -21q-17 -15 -31.5 -47.5t-16.5 -91.5l-168 29q5 51 16.5 92t27 72.5t33.5 55t36 40.5q42 39 92 55
q56 13 98 3.5t74.5 -31t57.5 -49.5t47 -52t43.5 -39t45.5 -10q22 5 40 21q15 14 27.5 38.5t12.5 67.5q0 16 -1.5 34t-6.5 38z" />
    <glyph glyph-name="Odieresis" unicode="&#xd6;" horiz-adv-x="1677" 
d="M1595 707q0 -107 -27 -205.5t-76.5 -184.5t-118.5 -157t-153.5 -121.5t-181 -78.5t-200.5 -28q-105 0 -201.5 28t-180.5 78.5t-153 121.5t-118 157t-76 184.5t-27 205.5t27 206t76 185t118 156.5t153 121t181 78t201 27.5t200.5 -27.5t181 -78t153.5 -121t118.5 -156.5
t76.5 -185t27 -206zM1397 707q0 79 -20 152.5t-56.5 137.5t-87.5 116.5t-113 90t-133.5 58t-148.5 20.5q-116 0 -217 -45.5t-177 -123.5t-119.5 -182.5t-43.5 -223.5t43.5 -224t119.5 -183t177 -123.5t217 -45.5q77 0 148.5 20.5t133.5 58t113 90t87.5 116.5t56.5 137.5
t20 153.5zM1202 1683q0 -24 -9 -46t-25 -38t-37 -25.5t-46 -9.5q-24 0 -45.5 9.5t-37.5 25.5t-25.5 38t-9.5 46q0 25 9.5 46t25.5 37t37.5 25t45.5 9q25 0 46 -9t37 -25t25 -37t9 -46zM711 1683q0 -24 -9.5 -46t-25.5 -38t-38 -25.5t-46 -9.5t-45.5 9.5t-37 25.5t-25 38
t-9.5 46q0 25 9.5 46t25 37t37 25t45.5 9t46 -9t38 -25t25.5 -37t9.5 -46z" />
    <glyph glyph-name="multiply" unicode="&#xd7;" horiz-adv-x="954" 
d="M836 887l-201 -191l205 -192l-127 -129l-209 196l-242 -229l-125 131l236 223l-236 224l123 131l244 -232l213 203z" />
    <glyph glyph-name="Oslash" unicode="&#xd8;" horiz-adv-x="1677" 
d="M1470 1479l-129 -195q58 -53 105 -117.5t80 -138t51 -154.5t18 -167q0 -107 -27 -205.5t-76.5 -184.5t-118.5 -157t-153.5 -121.5t-181 -78.5t-200.5 -28q-94 0 -181.5 22t-164.5 64l-80 -118l-187 32l121 187q-61 53 -109.5 118t-83 140t-53 158t-18.5 172q0 107 27 206
t76 185t118 156.5t153 121t181 78t201 27.5q93 0 179 -22t165 -62l73 112zM281 707q0 -125 47 -232.5t129 -187.5l614 942q-54 25 -112 39t-121 14q-116 0 -217 -45.5t-177 -123.5t-119.5 -182.5t-43.5 -223.5zM1397 707q0 120 -45.5 225.5t-122.5 183.5l-627 -932
q54 -26 113.5 -39.5t122.5 -13.5q77 0 148.5 20.5t133.5 58t113 90t87.5 116.5t56.5 137.5t20 153.5z" />
    <glyph glyph-name="Ugrave" unicode="&#xd9;" horiz-adv-x="1427" 
d="M1290 686q1 -93 -13.5 -183.5t-46.5 -172t-81.5 -150t-117 -119t-154 -78.5t-191.5 -28q-106 0 -186 33.5t-139.5 91t-100 132.5t-65 158t-36.5 168.5t-14 163.5q-2 99 4 217q5 101 18.5 235t41.5 286l217 -31q-23 -99 -37 -191t-22 -173t-10.5 -148t-2.5 -115
q0 -56 4.5 -125t18 -140.5t38 -139t64.5 -120t98 -84.5t138 -32q83 0 150 38t114 109t71.5 172t22.5 226q-2 100 -12 216q-8 100 -25 229t-47 274l213 29q32 -165 49 -301.5t26 -236.5q10 -116 13 -210zM792 1498l-127 -72l-270 268l188 164z" />
    <glyph glyph-name="Uacute" unicode="&#xda;" horiz-adv-x="1427" 
d="M1290 686q1 -93 -13.5 -183.5t-46.5 -172t-81.5 -150t-117 -119t-154 -78.5t-191.5 -28q-106 0 -186 33.5t-139.5 91t-100 132.5t-65 158t-36.5 168.5t-14 163.5q-2 99 4 217q5 101 18.5 235t41.5 286l217 -31q-23 -99 -37 -191t-22 -173t-10.5 -148t-2.5 -115
q0 -56 4.5 -125t18 -140.5t38 -139t64.5 -120t98 -84.5t138 -32q83 0 150 38t114 109t71.5 172t22.5 226q-2 100 -12 216q-8 100 -25 229t-47 274l213 29q32 -165 49 -301.5t26 -236.5q10 -116 13 -210zM1006 1722l-252 -303l-127 72l178 342z" />
    <glyph glyph-name="Ucircumflex" unicode="&#xdb;" horiz-adv-x="1427" 
d="M1290 686q1 -93 -13.5 -183.5t-46.5 -172t-81.5 -150t-117 -119t-154 -78.5t-191.5 -28q-106 0 -186 33.5t-139.5 91t-100 132.5t-65 158t-36.5 168.5t-14 163.5q-2 99 4 217q5 101 18.5 235t41.5 286l217 -31q-23 -99 -37 -191t-22 -173t-10.5 -148t-2.5 -115
q0 -56 4.5 -125t18 -140.5t38 -139t64.5 -120t98 -84.5t138 -32q83 0 150 38t114 109t71.5 172t22.5 226q-2 100 -12 216q-8 100 -25 229t-47 274l213 29q32 -165 49 -301.5t26 -236.5q10 -116 13 -210zM1049 1601l-111 -127l-227 199l-185 -209l-139 88l313 338z" />
    <glyph glyph-name="Udieresis" unicode="&#xdc;" horiz-adv-x="1427" 
d="M1290 686q1 -93 -13.5 -183.5t-46.5 -172t-81.5 -150t-117 -119t-154 -78.5t-191.5 -28q-106 0 -186 33.5t-139.5 91t-100 132.5t-65 158t-36.5 168.5t-14 163.5q-2 99 4 217q5 101 18.5 235t41.5 286l217 -31q-23 -99 -37 -191t-22 -173t-10.5 -148t-2.5 -115
q0 -56 4.5 -125t18 -140.5t38 -139t64.5 -120t98 -84.5t138 -32q83 0 150 38t114 109t71.5 172t22.5 226q-2 100 -12 216q-8 100 -25 229t-47 274l213 29q32 -165 49 -301.5t26 -236.5q10 -116 13 -210zM1071 1640q0 -24 -9 -46t-25 -38t-37 -25.5t-46 -9.5q-24 0 -45.5 9.5
t-37.5 25.5t-25.5 38t-9.5 46q0 25 9.5 46t25.5 37t37.5 25t45.5 9q25 0 46 -9t37 -25t25 -37t9 -46zM580 1640q0 -24 -9.5 -46t-25.5 -38t-38 -25.5t-46 -9.5t-45.5 9.5t-37 25.5t-25 38t-9.5 46q0 25 9.5 46t25 37t37 25t45.5 9t46 -9t38 -25t25.5 -37t9.5 -46z" />
    <glyph glyph-name="Yacute" unicode="&#xdd;" horiz-adv-x="1298" 
d="M1255 1423l-499 -977v-479l-207 -12l16 496l-559 952l236 27l424 -768l362 768zM936 1643l-252 -303l-127 72l178 342z" />
    <glyph glyph-name="Thorn" unicode="&#xde;" horiz-adv-x="1464" 
d="M397 1239q62 13 118 20t101 10q51 4 97 3q65 0 142.5 -8.5t155.5 -31t150.5 -61t129 -98.5t90.5 -143t34 -195q0 -94 -34 -167.5t-91.5 -129.5t-133.5 -95t-161 -63.5t-173.5 -35.5t-170.5 -11q-49 0 -112.5 4t-132.5 15l2 -299h-201l-35 1534l223 -8zM713 1051
q-28 0 -64 -1t-77 -4t-85 -9t-88 -15l4 -565q54 -10 107.5 -13.5t99.5 -3.5q47 0 108 4t125.5 16t126.5 32.5t111 54.5t79 82t30 114q0 77 -33.5 133.5t-96 94.5t-150.5 57.5t-197 22.5z" />
    <glyph glyph-name="germandbls" unicode="&#xdf;" horiz-adv-x="1671" 
d="M281 1012q10 106 39.5 203t85.5 170.5t141 117t207 43.5q75 0 146 -26.5t125.5 -75t88 -116t33.5 -148.5q0 -58 -20.5 -109t-51 -96t-66 -84.5t-66 -75.5t-51 -68.5t-20.5 -62.5q0 -40 15 -65t42.5 -39.5t65.5 -21.5t84.5 -11.5t100 -9t110.5 -13.5q99 -16 169.5 -53.5
t113 -88.5t57 -113t2.5 -126q-11 -61 -46 -110.5t-92 -85t-136.5 -55.5t-179.5 -21q-92 1 -186 19q-40 7 -85 19.5t-91 30.5t-91.5 43t-87.5 58l96 152q55 -29 112.5 -56t117.5 -47.5t123.5 -32.5t130.5 -12q55 0 93 10.5t62.5 26t38 35t19.5 37.5q7 24 0.5 55t-36 59.5
t-87.5 49t-152 24.5q-90 4 -173 18.5t-148 45.5t-107.5 81.5t-52.5 126.5q-8 63 8.5 115t46 96.5t66 84t69 78.5t54.5 80t22 89q0 42 -16 78.5t-44.5 63.5t-67 42t-83.5 15q-69 0 -115 -31t-74.5 -82.5t-42.5 -117.5t-20 -135.5t-6.5 -137t-1.5 -121.5q-1 -132 -1 -270
q0 -59 -0.5 -125.5t-0.5 -135.5t-0.5 -139.5t-1.5 -136.5l-207 -4q3 218 5 374t4 259q2 120 3 199v65l-227 8v191z" />
    <glyph glyph-name="agrave" unicode="&#xe0;" horiz-adv-x="1278" 
d="M924 -63l14 141q-122 -78 -239.5 -113t-219.5 -35q-72 0 -139.5 18.5t-119 57t-83 98t-31.5 140.5t24 145t66 113t99 84t122.5 57t137.5 32.5t143 10.5q66 0 123 -5t101 -13q-13 50 -32 98.5t-48.5 87t-72.5 62.5t-103 24q-39 0 -89 -11.5t-110 -41.5t-131 -82.5
t-152 -134.5l-121 147q96 90 184 147t165.5 89.5t144 44.5t119.5 12q92 0 164 -31.5t126.5 -86t92 -128t61.5 -158t34.5 -175.5t10.5 -181q0 -96 -11 -206t-34 -240zM952 301q2 50 3 99t-5 102q-49 15 -103 24t-108 9q-90 0 -174.5 -21t-145.5 -61t-91.5 -98t-12.5 -132
q14 -60 54.5 -84t97.5 -24q58 0 125.5 19.5t134 48t125.5 60.5t100 58zM667 1232l-127 -72l-270 268l188 164z" />
    <glyph glyph-name="aacute" unicode="&#xe1;" horiz-adv-x="1278" 
d="M924 -63l14 141q-122 -78 -239.5 -113t-219.5 -35q-72 0 -139.5 18.5t-119 57t-83 98t-31.5 140.5t24 145t66 113t99 84t122.5 57t137.5 32.5t143 10.5q66 0 123 -5t101 -13q-13 50 -32 98.5t-48.5 87t-72.5 62.5t-103 24q-39 0 -89 -11.5t-110 -41.5t-131 -82.5
t-152 -134.5l-121 147q96 90 184 147t165.5 89.5t144 44.5t119.5 12q92 0 164 -31.5t126.5 -86t92 -128t61.5 -158t34.5 -175.5t10.5 -181q0 -96 -11 -206t-34 -240zM952 301q2 50 3 99t-5 102q-49 15 -103 24t-108 9q-90 0 -174.5 -21t-145.5 -61t-91.5 -98t-12.5 -132
q14 -60 54.5 -84t97.5 -24q58 0 125.5 19.5t134 48t125.5 60.5t100 58zM868 1488l-252 -303l-127 72l178 342z" />
    <glyph glyph-name="acircumflex" unicode="&#xe2;" horiz-adv-x="1278" 
d="M924 -63l14 141q-122 -78 -239.5 -113t-219.5 -35q-72 0 -139.5 18.5t-119 57t-83 98t-31.5 140.5t24 145t66 113t99 84t122.5 57t137.5 32.5t143 10.5q66 0 123 -5t101 -13q-13 50 -32 98.5t-48.5 87t-72.5 62.5t-103 24q-39 0 -89 -11.5t-110 -41.5t-131 -82.5
t-152 -134.5l-121 147q96 90 184 147t165.5 89.5t144 44.5t119.5 12q92 0 164 -31.5t126.5 -86t92 -128t61.5 -158t34.5 -175.5t10.5 -181q0 -96 -11 -206t-34 -240zM952 301q2 50 3 99t-5 102q-49 15 -103 24t-108 9q-90 0 -174.5 -21t-145.5 -61t-91.5 -98t-12.5 -132
q14 -60 54.5 -84t97.5 -24q58 0 125.5 19.5t134 48t125.5 60.5t100 58zM938 1319l-111 -127l-227 199l-185 -209l-139 88l313 338z" />
    <glyph glyph-name="atilde" unicode="&#xe3;" horiz-adv-x="1278" 
d="M924 -63l14 141q-122 -78 -239.5 -113t-219.5 -35q-72 0 -139.5 18.5t-119 57t-83 98t-31.5 140.5t24 145t66 113t99 84t122.5 57t137.5 32.5t143 10.5q66 0 123 -5t101 -13q-13 50 -32 98.5t-48.5 87t-72.5 62.5t-103 24q-39 0 -89 -11.5t-110 -41.5t-131 -82.5
t-152 -134.5l-121 147q96 90 184 147t165.5 89.5t144 44.5t119.5 12q92 0 164 -31.5t126.5 -86t92 -128t61.5 -158t34.5 -175.5t10.5 -181q0 -96 -11 -206t-34 -240zM952 301q2 50 3 99t-5 102q-49 15 -103 24t-108 9q-90 0 -174.5 -21t-145.5 -61t-91.5 -98t-12.5 -132
q14 -60 54.5 -84t97.5 -24q58 0 125.5 19.5t134 48t125.5 60.5t100 58zM995 1571q3 -23 5.5 -44.5t2.5 -41.5q0 -56 -18 -108.5t-52 -93.5t-83 -66t-111 -25q-43 0 -75.5 12.5t-58 32t-46 41.5t-39.5 41t-38 31.5t-42 11.5q-25 -3 -44 -21q-17 -15 -31.5 -47.5t-16.5 -91.5
l-168 29q5 51 16.5 92t27 72.5t33.5 55t36 40.5q42 39 92 55q56 13 98 3.5t74.5 -31t57.5 -49.5t47 -52t43.5 -39t45.5 -10q22 5 40 21q15 14 27.5 38.5t12.5 67.5q0 16 -1.5 34t-6.5 38z" />
    <glyph glyph-name="adieresis" unicode="&#xe4;" horiz-adv-x="1278" 
d="M924 -63l14 141q-122 -78 -239.5 -113t-219.5 -35q-72 0 -139.5 18.5t-119 57t-83 98t-31.5 140.5t24 145t66 113t99 84t122.5 57t137.5 32.5t143 10.5q66 0 123 -5t101 -13q-13 50 -32 98.5t-48.5 87t-72.5 62.5t-103 24q-39 0 -89 -11.5t-110 -41.5t-131 -82.5
t-152 -134.5l-121 147q96 90 184 147t165.5 89.5t144 44.5t119.5 12q92 0 164 -31.5t126.5 -86t92 -128t61.5 -158t34.5 -175.5t10.5 -181q0 -96 -11 -206t-34 -240zM952 301q2 50 3 99t-5 102q-49 15 -103 24t-108 9q-90 0 -174.5 -21t-145.5 -61t-91.5 -98t-12.5 -132
q14 -60 54.5 -84t97.5 -24q58 0 125.5 19.5t134 48t125.5 60.5t100 58zM977 1301q0 -24 -9 -46t-25 -38t-37 -25.5t-46 -9.5q-24 0 -45.5 9.5t-37.5 25.5t-25.5 38t-9.5 46q0 25 9.5 46t25.5 37t37.5 25t45.5 9q25 0 46 -9t37 -25t25 -37t9 -46zM486 1301q0 -24 -9.5 -46
t-25.5 -38t-38 -25.5t-46 -9.5t-45.5 9.5t-37 25.5t-25 38t-9.5 46q0 25 9.5 46t25 37t37 25t45.5 9t46 -9t38 -25t25.5 -37t9.5 -46z" />
    <glyph glyph-name="aring" unicode="&#xe5;" horiz-adv-x="1278" 
d="M924 -63l14 141q-122 -78 -239.5 -113t-219.5 -35q-72 0 -139.5 18.5t-119 57t-83 98t-31.5 140.5t24 145t66 113t99 84t122.5 57t137.5 32.5t143 10.5q66 0 123 -5t101 -13q-13 50 -32 98.5t-48.5 87t-72.5 62.5t-103 24q-39 0 -89 -11.5t-110 -41.5t-131 -82.5
t-152 -134.5l-121 147q96 90 184 147t165.5 89.5t144 44.5t119.5 12q92 0 164 -31.5t126.5 -86t92 -128t61.5 -158t34.5 -175.5t10.5 -181q0 -96 -11 -206t-34 -240zM952 301q2 50 3 99t-5 102q-49 15 -103 24t-108 9q-90 0 -174.5 -21t-145.5 -61t-91.5 -98t-12.5 -132
q14 -60 54.5 -84t97.5 -24q58 0 125.5 19.5t134 48t125.5 60.5t100 58zM880 1429q0 -54 -21 -102.5t-57 -85t-84.5 -57.5t-103.5 -21t-103.5 21t-84.5 57.5t-57 85t-21 102.5q0 55 21 104t57 86t84.5 58t103.5 21t103.5 -21t84.5 -58t57 -86t21 -104zM731 1423q0 25 -9 46
t-25 37t-37 25t-46 9q-24 0 -46 -9t-38 -25t-25.5 -37t-9.5 -46q0 -24 9.5 -46t25.5 -38t38 -25.5t46 -9.5q25 0 46 9.5t37 25.5t25 38t9 46z" />
    <glyph glyph-name="ae" unicode="&#xe6;" horiz-adv-x="2120" 
d="M924 -63l20 145q-124 -81 -243 -116.5t-222 -35.5q-72 0 -139.5 18.5t-119 57t-83 98t-31.5 140.5t24 145t66 113t99 84t122.5 57t137.5 32.5t143 10.5q73 0 134 -6t104 -14q-14 52 -33 101.5t-49 87.5t-73.5 61.5t-106.5 23.5q-41 0 -92 -11.5t-112.5 -41.5t-133 -82.5
t-152.5 -134.5l-121 147q98 88 189.5 142.5t173.5 85t152 41t124 10.5q73 0 129 -17.5t101 -52.5t81 -88t70 -125q38 55 86.5 100t105.5 76.5t121.5 48.5t133.5 17q104 0 196 -40.5t163 -112t117 -168.5t58 -210l-866 -129q8 -71 36 -134t71.5 -109.5t100.5 -73.5t124 -27
q53 0 105 16.5t96 48t77 78.5t47 109l193 -39q-28 -90 -79 -164.5t-119 -127.5t-149.5 -82t-170.5 -29q-112 0 -211 44.5t-176 129.5h-2l-21 -131zM967 309q3 45 3.5 91.5t-5.5 97.5q-53 18 -111 27.5t-115 9.5q-90 0 -174.5 -21t-145.5 -61t-91.5 -98t-12.5 -132
q14 -60 54.5 -84t97.5 -24q40 0 85.5 10t92 26t93 36.5t88.5 42t78.5 42.5t62.5 37zM1530 883q-42 0 -92 -14.5t-97 -49.5t-84.5 -93.5t-52.5 -145.5l602 73l-6 19q-38 99 -104.5 155t-165.5 56zM981 319q0 2 -1 2t-1 -4z" />
    <glyph glyph-name="ccedilla" unicode="&#xe7;" horiz-adv-x="1245" 
d="M854 -410q-9 -51 -33.5 -85.5t-58 -55.5t-73.5 -30t-79 -9q-66 0 -121 23.5t-114 60.5l57 129q34 -29 66.5 -44.5t58.5 -23.5q30 -9 57 -10q41 0 63.5 26t22.5 60q0 26 -15 51t-50 42q-27 11 -58 19q-26 7 -59.5 10t-68.5 -3l73 166q-90 24 -171 75.5t-141.5 124.5
t-96 165t-35.5 196q0 75 20.5 147.5t58 137.5t91 120t118.5 94.5t141 62t159 22.5q87 0 165.5 -21t145.5 -60.5t120.5 -96.5t88.5 -129l2 -4l-166 -101l-2 6q-26 51 -63 91.5t-83 69t-98.5 43.5t-109.5 15q-81 0 -153 -31t-125.5 -85t-84.5 -126.5t-31 -154.5q0 -81 31 -153
t84.5 -126t125.5 -85t153 -31q53 0 103 14t94.5 39.5t81.5 62t63 81.5l4 6l174 -99l-2 -6q-39 -65 -94.5 -117t-123 -89.5t-144 -57.5t-156.5 -20h-18.5t-16.5 2l-19 -52q52 -3 90 -15.5t65 -31t44 -41.5t27 -46q23 -55 16 -122z" />
    <glyph glyph-name="egrave" unicode="&#xe8;" horiz-adv-x="1214" 
d="M625 92q53 0 105 16.5t96 48t76.5 78.5t47.5 109l193 -39q-28 -91 -79 -165t-119 -127t-149.5 -82t-170.5 -29q-132 0 -234 40t-172 113t-106.5 176t-36.5 230q0 125 42.5 233.5t116.5 188.5t174 126t216 46q104 0 196 -40.5t163 -112t117 -168.5t58 -210l-866 -129
q7 -71 35 -127.5t71.5 -95.5t101 -59.5t124.5 -20.5zM901 653l-6 19q-38 99 -104.5 155t-165.5 56q-42 0 -92 -14.5t-97 -49.5t-84.5 -93.5t-52.5 -145.5zM620 1173l-127 -72l-270 268l188 164z" />
    <glyph glyph-name="eacute" unicode="&#xe9;" horiz-adv-x="1214" 
d="M625 92q53 0 105 16.5t96 48t76.5 78.5t47.5 109l193 -39q-28 -91 -79 -165t-119 -127t-149.5 -82t-170.5 -29q-132 0 -234 40t-172 113t-106.5 176t-36.5 230q0 125 42.5 233.5t116.5 188.5t174 126t216 46q104 0 196 -40.5t163 -112t117 -168.5t58 -210l-866 -129
q7 -71 35 -127.5t71.5 -95.5t101 -59.5t124.5 -20.5zM901 653l-6 19q-38 99 -104.5 155t-165.5 56q-42 0 -92 -14.5t-97 -49.5t-84.5 -93.5t-52.5 -145.5zM844 1404l-252 -303l-127 72l178 342z" />
    <glyph glyph-name="ecircumflex" unicode="&#xea;" horiz-adv-x="1214" 
d="M625 92q53 0 105 16.5t96 48t76.5 78.5t47.5 109l193 -39q-28 -91 -79 -165t-119 -127t-149.5 -82t-170.5 -29q-132 0 -234 40t-172 113t-106.5 176t-36.5 230q0 125 42.5 233.5t116.5 188.5t174 126t216 46q104 0 196 -40.5t163 -112t117 -168.5t58 -210l-866 -129
q7 -71 35 -127.5t71.5 -95.5t101 -59.5t124.5 -20.5zM901 653l-6 19q-38 99 -104.5 155t-165.5 56q-42 0 -92 -14.5t-97 -49.5t-84.5 -93.5t-52.5 -145.5zM900 1248l-111 -127l-227 199l-185 -209l-139 88l313 338z" />
    <glyph glyph-name="edieresis" unicode="&#xeb;" horiz-adv-x="1214" 
d="M625 92q53 0 105 16.5t96 48t76.5 78.5t47.5 109l193 -39q-28 -91 -79 -165t-119 -127t-149.5 -82t-170.5 -29q-132 0 -234 40t-172 113t-106.5 176t-36.5 230q0 125 42.5 233.5t116.5 188.5t174 126t216 46q104 0 196 -40.5t163 -112t117 -168.5t58 -210l-866 -129
q7 -71 35 -127.5t71.5 -95.5t101 -59.5t124.5 -20.5zM901 653l-6 19q-38 99 -104.5 155t-165.5 56q-42 0 -92 -14.5t-97 -49.5t-84.5 -93.5t-52.5 -145.5zM915 1252q0 -24 -9 -46t-25 -38t-37 -25.5t-46 -9.5q-24 0 -45.5 9.5t-37.5 25.5t-25.5 38t-9.5 46q0 25 9.5 46
t25.5 37t37.5 25t45.5 9q25 0 46 -9t37 -25t25 -37t9 -46zM424 1252q0 -24 -9.5 -46t-25.5 -38t-38 -25.5t-46 -9.5t-45.5 9.5t-37 25.5t-25 38t-9.5 46q0 25 9.5 46t25 37t37 25t45.5 9t46 -9t38 -25t25.5 -37t9.5 -46z" />
    <glyph glyph-name="igrave" unicode="&#xec;" 
d="M371 981q-3 -143 -5.5 -262.5t-4.5 -217.5t-3.5 -175.5t-2.5 -135.5q-3 -138 -3 -217h-205q2 108 5 257q2 128 5.5 313t6.5 430zM330 1152l-127 -72l-270 268l188 164z" />
    <glyph glyph-name="iacute" unicode="&#xed;" 
d="M371 981q-3 -143 -5.5 -262.5t-4.5 -217.5t-3.5 -175.5t-2.5 -135.5q-3 -138 -3 -217h-205q2 108 5 257q2 128 5.5 313t6.5 430zM594 1383l-252 -303l-127 72l178 342z" />
    <glyph glyph-name="icircumflex" unicode="&#xee;" 
d="M371 981q-3 -143 -5.5 -262.5t-4.5 -217.5t-3.5 -175.5t-2.5 -135.5q-3 -138 -3 -217h-205q2 108 5 257q2 128 5.5 313t6.5 430zM591 1201l-111 -127l-227 199l-185 -209l-139 88l313 338z" />
    <glyph glyph-name="idieresis" unicode="&#xef;" 
d="M545 1186q0 -25 -9 -46.5t-25 -37.5t-37 -25.5t-46 -9.5t-46.5 9.5t-37.5 25.5t-25.5 37.5t-9.5 46.5q0 24 9.5 45.5t25.5 37.5t37.5 25t46.5 9t46 -9t37 -25t25 -37.5t9 -45.5zM217 1186q0 -25 -9.5 -46.5t-25.5 -37.5t-37.5 -25.5t-46.5 -9.5q-24 0 -45 9.5t-36.5 25.5
t-25 37.5t-9.5 46.5q0 24 9.5 45.5t25 37.5t36.5 25t45 9q25 0 46.5 -9t37.5 -25t25.5 -37.5t9.5 -45.5zM371 981q-3 -143 -5.5 -262.5t-4.5 -217.5t-3.5 -175.5t-2.5 -135.5q-3 -138 -3 -217h-205q2 108 5 257q2 128 5.5 313t6.5 430z" />
    <glyph glyph-name="eth" unicode="&#xf0;" horiz-adv-x="1229" 
d="M1001 1466l-251 -137q38 -50 82.5 -112t88.5 -132.5t84.5 -146t72 -153t51 -153.5t20.5 -147q0 -126 -42 -233t-115 -186t-171 -123.5t-209 -44.5t-208 42t-169.5 119.5t-114.5 185.5t-42 240q0 133 42 241.5t114.5 185.5t169.5 119t208 42q23 0 47.5 -1.5t47.5 -6.5
q-31 45 -63 87.5t-66 84.5l-271 -147l-90 163l236 129q-28 31 -51.5 56.5t-40.5 43.5q-20 21 -37 38l155 116q40 -42 77 -81.5t71 -77.5l291 157zM946 485q0 75 -18 148.5t-58 132t-103.5 95t-154.5 36.5q-88 0 -151 -36.5t-103 -95t-58.5 -132t-18.5 -148.5
q0 -74 20.5 -147t61.5 -131t103 -94.5t146 -36.5q87 0 150 36.5t104 94.5t60.5 131t19.5 147z" />
    <glyph glyph-name="ntilde" unicode="&#xf1;" horiz-adv-x="1266" 
d="M174 -74q-6 172 -11 311.5t-9 249.5t-6.5 194t-4.5 145q-4 143 -6 212l228 4l4 -288q33 57 75 107.5t91 89.5t104.5 63t116.5 28q76 5 132.5 -13t96.5 -50t66 -75.5t41 -90t21.5 -92.5t8.5 -84q6 -172 3 -346t-7 -361l-205 7q8 161 14.5 322t-1.5 325q0 18 -2.5 46.5
t-11 60.5t-23.5 63.5t-39 55t-58.5 35.5t-80.5 5q-79 -12 -160.5 -115.5t-175.5 -302.5q4 -161 6.5 -256.5t4.5 -144.5q2 -58 3 -78zM1012 1523q3 -23 5.5 -44.5t2.5 -41.5q0 -56 -18 -108.5t-52 -93.5t-83 -66t-111 -25q-43 0 -75.5 12.5t-58 32t-46 41.5t-39.5 41
t-38 31.5t-42 11.5q-25 -3 -44 -21q-17 -15 -31.5 -47.5t-16.5 -91.5l-168 29q5 51 16.5 92t27 72.5t33.5 55t36 40.5q42 39 92 55q56 13 98 3.5t74.5 -31t57.5 -49.5t47 -52t43.5 -39t45.5 -10q22 5 40 21q15 14 27.5 38.5t12.5 67.5q0 16 -1.5 34t-6.5 38z" />
    <glyph glyph-name="ograve" unicode="&#xf2;" horiz-adv-x="1225" 
d="M1149 485q0 -126 -42 -233t-115 -186t-171 -123.5t-209 -44.5t-208 42t-169.5 119.5t-114.5 185.5t-42 240q0 133 42 241.5t114.5 185.5t169.5 119t208 42t209 -44.5t171 -123t115 -186t42 -234.5zM938 487q0 72 -18 145.5t-57 132t-101 95.5t-150 37q-85 0 -146 -37
t-100 -95.5t-57 -132t-18 -145.5t19.5 -145t59.5 -131.5t100.5 -95.5t141.5 -37q85 0 146.5 37t101.5 95.5t59 131.5t19 145zM655 1224l-127 -72l-270 268l188 164z" />
    <glyph glyph-name="oacute" unicode="&#xf3;" horiz-adv-x="1225" 
d="M1149 485q0 -126 -42 -233t-115 -186t-171 -123.5t-209 -44.5t-208 42t-169.5 119.5t-114.5 185.5t-42 240q0 133 42 241.5t114.5 185.5t169.5 119t208 42t209 -44.5t171 -123t115 -186t42 -234.5zM938 487q0 72 -18 145.5t-57 132t-101 95.5t-150 37q-85 0 -146 -37
t-100 -95.5t-57 -132t-18 -145.5t19.5 -145t59.5 -131.5t100.5 -95.5t141.5 -37q85 0 146.5 37t101.5 95.5t59 131.5t19 145zM926 1459l-252 -303l-127 72l178 342z" />
    <glyph glyph-name="ocircumflex" unicode="&#xf4;" horiz-adv-x="1225" 
d="M1149 485q0 -126 -42 -233t-115 -186t-171 -123.5t-209 -44.5t-208 42t-169.5 119.5t-114.5 185.5t-42 240q0 133 42 241.5t114.5 185.5t169.5 119t208 42t209 -44.5t171 -123t115 -186t42 -234.5zM938 487q0 72 -18 145.5t-57 132t-101 95.5t-150 37q-85 0 -146 -37
t-100 -95.5t-57 -132t-18 -145.5t19.5 -145t59.5 -131.5t100.5 -95.5t141.5 -37q85 0 146.5 37t101.5 95.5t59 131.5t19 145zM938 1300l-111 -127l-227 199l-185 -209l-139 88l313 338z" />
    <glyph glyph-name="otilde" unicode="&#xf5;" horiz-adv-x="1225" 
d="M1149 485q0 -126 -42 -233t-115 -186t-171 -123.5t-209 -44.5t-208 42t-169.5 119.5t-114.5 185.5t-42 240q0 133 42 241.5t114.5 185.5t169.5 119t208 42t209 -44.5t171 -123t115 -186t42 -234.5zM938 487q0 72 -18 145.5t-57 132t-101 95.5t-150 37q-85 0 -146 -37
t-100 -95.5t-57 -132t-18 -145.5t19.5 -145t59.5 -131.5t100.5 -95.5t141.5 -37q85 0 146.5 37t101.5 95.5t59 131.5t19 145zM995 1539q3 -23 5.5 -44.5t2.5 -41.5q0 -56 -18 -108.5t-52 -93.5t-83 -66t-111 -25q-43 0 -75.5 12.5t-58 32t-46 41.5t-39.5 41t-38 31.5
t-42 11.5q-25 -3 -44 -21q-17 -15 -31.5 -47.5t-16.5 -91.5l-168 29q5 51 16.5 92t27 72.5t33.5 55t36 40.5q42 39 92 55q56 13 98 3.5t74.5 -31t57.5 -49.5t47 -52t43.5 -39t45.5 -10q22 5 40 21q15 14 27.5 38.5t12.5 67.5q0 16 -1.5 34t-6.5 38z" />
    <glyph glyph-name="odieresis" unicode="&#xf6;" horiz-adv-x="1225" 
d="M1149 485q0 -126 -42 -233t-115 -186t-171 -123.5t-209 -44.5t-208 42t-169.5 119.5t-114.5 185.5t-42 240q0 133 42 241.5t114.5 185.5t169.5 119t208 42t209 -44.5t171 -123t115 -186t42 -234.5zM938 487q0 72 -18 145.5t-57 132t-101 95.5t-150 37q-85 0 -146 -37
t-100 -95.5t-57 -132t-18 -145.5t19.5 -145t59.5 -131.5t100.5 -95.5t141.5 -37q85 0 146.5 37t101.5 95.5t59 131.5t19 145zM983 1246q0 -24 -9 -46t-25 -38t-37 -25.5t-46 -9.5q-24 0 -45.5 9.5t-37.5 25.5t-25.5 38t-9.5 46q0 25 9.5 46t25.5 37t37.5 25t45.5 9
q25 0 46 -9t37 -25t25 -37t9 -46zM492 1246q0 -24 -9.5 -46t-25.5 -38t-38 -25.5t-46 -9.5t-45.5 9.5t-37 25.5t-25 38t-9.5 46q0 25 9.5 46t25 37t37 25t45.5 9t46 -9t38 -25t25.5 -37t9.5 -46z" />
    <glyph glyph-name="divide" unicode="&#xf7;" horiz-adv-x="1034" 
d="M915 600l-790 -22l-6 208l796 23v-209zM645 330q0 -26 -10 -49.5t-27.5 -40.5t-40.5 -27t-49 -10q-27 0 -50.5 10t-41 27t-27.5 40.5t-10 49.5q0 27 10 50.5t27.5 41t41 27.5t50.5 10q26 0 49 -10t40.5 -27.5t27.5 -41t10 -50.5zM655 1030q0 -26 -10 -49t-27.5 -40.5
t-40.5 -27.5t-49 -10q-27 0 -50.5 10t-41 27.5t-27.5 40.5t-10 49q0 27 10 50.5t27.5 41t41 27.5t50.5 10q26 0 49 -10t40.5 -27.5t27.5 -41t10 -50.5z" />
    <glyph glyph-name="oslash" unicode="&#xf8;" horiz-adv-x="1225" 
d="M1071 1122l-106 -190q85 -79 134.5 -193t49.5 -254q0 -126 -42 -233t-115 -186t-171 -123.5t-209 -44.5q-108 0 -204 41l-54 -99l-186 33l88 164q-84 77 -131 191t-47 257q0 133 42 241.5t114.5 185.5t169.5 119t208 42q95 0 183 -35l61 115zM946 485q0 75 -17.5 147.5
t-58.5 131.5l-372 -668q24 -11 53 -15.5t61 -4.5q87 0 150 36.5t104 94.5t60.5 131t19.5 147zM281 485q0 -71 18 -140t55 -126l357 664q-22 8 -47.5 11t-51.5 3q-88 0 -151 -36.5t-103 -95t-58.5 -132t-18.5 -148.5z" />
    <glyph glyph-name="ugrave" unicode="&#xf9;" horiz-adv-x="1280" 
d="M915 -72l-4 287q-33 -59 -75 -111.5t-91 -92t-104.5 -62.5t-116.5 -21q-90 3 -154.5 34t-108.5 82.5t-70.5 119t-40.5 142.5t-18.5 153.5t-4.5 152.5q0 104 9 210.5t26 217.5l205 -6q-16 -124 -21.5 -223t-5.5 -174q0 -34 1 -86t7.5 -110.5t20.5 -115.5t39.5 -101.5
t64.5 -68.5t96 -16q77 11 160.5 106t175.5 292q-3 159 -5.5 254t-3.5 145q-2 59 -3 82l215 24q6 -172 10.5 -310.5t8.5 -249t6.5 -194t4.5 -144.5q4 -143 5 -212zM702 1142l-127 -72l-270 268l188 164z" />
    <glyph glyph-name="uacute" unicode="&#xfa;" horiz-adv-x="1280" 
d="M915 -72l-4 287q-33 -59 -75 -111.5t-91 -92t-104.5 -62.5t-116.5 -21q-90 3 -154.5 34t-108.5 82.5t-70.5 119t-40.5 142.5t-18.5 153.5t-4.5 152.5q0 104 9 210.5t26 217.5l205 -6q-16 -124 -21.5 -223t-5.5 -174q0 -34 1 -86t7.5 -110.5t20.5 -115.5t39.5 -101.5
t64.5 -68.5t96 -16q77 11 160.5 106t175.5 292q-3 159 -5.5 254t-3.5 145q-2 59 -3 82l215 24q6 -172 10.5 -310.5t8.5 -249t6.5 -194t4.5 -144.5q4 -143 5 -212zM932 1379l-252 -303l-127 72l178 342z" />
    <glyph glyph-name="ucircumflex" unicode="&#xfb;" horiz-adv-x="1280" 
d="M915 -72l-4 287q-33 -59 -75 -111.5t-91 -92t-104.5 -62.5t-116.5 -21q-90 3 -154.5 34t-108.5 82.5t-70.5 119t-40.5 142.5t-18.5 153.5t-4.5 152.5q0 104 9 210.5t26 217.5l205 -6q-16 -124 -21.5 -223t-5.5 -174q0 -34 1 -86t7.5 -110.5t20.5 -115.5t39.5 -101.5
t64.5 -68.5t96 -16q77 11 160.5 106t175.5 292q-3 159 -5.5 254t-3.5 145q-2 59 -3 82l215 24q6 -172 10.5 -310.5t8.5 -249t6.5 -194t4.5 -144.5q4 -143 5 -212zM965 1253l-111 -127l-227 199l-185 -209l-139 88l313 338z" />
    <glyph glyph-name="udieresis" unicode="&#xfc;" horiz-adv-x="1280" 
d="M915 -72l-4 287q-33 -59 -75 -111.5t-91 -92t-104.5 -62.5t-116.5 -21q-90 3 -154.5 34t-108.5 82.5t-70.5 119t-40.5 142.5t-18.5 153.5t-4.5 152.5q0 104 9 210.5t26 217.5l205 -6q-16 -124 -21.5 -223t-5.5 -174q0 -34 1 -86t7.5 -110.5t20.5 -115.5t39.5 -101.5
t64.5 -68.5t96 -16q77 11 160.5 106t175.5 292q-3 159 -5.5 254t-3.5 145q-2 59 -3 82l215 24q6 -172 10.5 -310.5t8.5 -249t6.5 -194t4.5 -144.5q4 -143 5 -212zM997 1275q0 -24 -9 -46t-25 -38t-37 -25.5t-46 -9.5q-24 0 -45.5 9.5t-37.5 25.5t-25.5 38t-9.5 46
q0 25 9.5 46t25.5 37t37.5 25t45.5 9q25 0 46 -9t37 -25t25 -37t9 -46zM506 1275q0 -24 -9.5 -46t-25.5 -38t-38 -25.5t-46 -9.5t-45.5 9.5t-37 25.5t-25 38t-9.5 46q0 25 9.5 46t25 37t37 25t45.5 9t46 -9t38 -25t25.5 -37t9.5 -46z" />
    <glyph glyph-name="yacute" unicode="&#xfd;" horiz-adv-x="1124" 
d="M1071 1012q-53 -156 -96.5 -285t-78.5 -233t-63 -185t-49 -142q-49 -143 -77 -220q-20 -59 -46.5 -125.5t-65 -132.5t-90 -127.5t-120 -110t-156.5 -79.5t-198 -36l-39 195q62 -8 116.5 3.5t101 36t86 59.5t72 74t57.5 79.5t44 75.5l-422 1120l229 31l295 -881
q24 74 56.5 174.5t69 216.5t75.5 242.5t76 251.5zM862 1293l-252 -303l-127 72l178 342z" />
    <glyph glyph-name="thorn" unicode="&#xfe;" horiz-adv-x="1323" 
d="M375 1442l-4 -522q57 52 117.5 80.5t111.5 41.5q59 15 115 17q68 0 135 -19.5t127 -55t110.5 -85.5t87 -111.5t55.5 -132.5t17 -149q-3 -86 -26 -162t-60.5 -139.5t-87.5 -114.5t-106.5 -86t-117.5 -53.5t-120 -18.5q-58 1 -120 17q-54 13 -118.5 41.5t-128.5 81.5
l-4 -672l-196 -4l-17 2038zM1022 487q4 73 -18.5 140.5t-67 118.5t-106.5 81t-136 29q-59 -1 -111 -20t-94 -51t-73 -74t-49 -90l-2 -244q18 -59 50 -103.5t74 -74.5t90.5 -45.5t98.5 -16.5q70 -2 131.5 25t107.5 75t73.5 112t31.5 138z" />
    <glyph glyph-name="ydieresis" unicode="&#xff;" horiz-adv-x="1124" 
d="M1071 1012q-53 -156 -96.5 -285t-78.5 -233t-63 -185t-49 -142q-49 -143 -77 -220q-20 -59 -46.5 -125.5t-65 -132.5t-90 -127.5t-120 -110t-156.5 -79.5t-198 -36l-39 195q62 -8 116.5 3.5t101 36t86 59.5t72 74t57.5 79.5t44 75.5l-422 1120l229 31l295 -881
q24 74 56.5 174.5t69 216.5t75.5 242.5t76 251.5zM915 1226q0 -24 -9 -46t-25 -38t-37 -25.5t-46 -9.5q-24 0 -45.5 9.5t-37.5 25.5t-25.5 38t-9.5 46q0 25 9.5 46t25.5 37t37.5 25t45.5 9q25 0 46 -9t37 -25t25 -37t9 -46zM424 1226q0 -24 -9.5 -46t-25.5 -38t-38 -25.5
t-46 -9.5t-45.5 9.5t-37 25.5t-25 38t-9.5 46q0 25 9.5 46t25 37t37 25t45.5 9t46 -9t38 -25t25.5 -37t9.5 -46z" />
    <glyph glyph-name="Amacron" unicode="&#x100;" horiz-adv-x="1575" 
d="M1290 -57q-29 102 -60 202.5t-65 202.5l-805 -35q-37 -96 -71 -191t-66 -192l-227 31q141 378 312.5 744t365.5 725l280 -5q172 -347 314 -707.5t258 -740.5zM793 1264q-101 -192 -191 -385.5t-172 -391.5l676 29q-68 192 -146 377t-167 371zM1199 1743l-7 -209l-786 -4
v202z" />
    <glyph glyph-name="amacron" unicode="&#x101;" horiz-adv-x="1278" 
d="M924 -63l14 141q-122 -78 -239.5 -113t-219.5 -35q-72 0 -139.5 18.5t-119 57t-83 98t-31.5 140.5t24 145t66 113t99 84t122.5 57t137.5 32.5t143 10.5q66 0 123 -5t101 -13q-13 50 -32 98.5t-48.5 87t-72.5 62.5t-103 24q-39 0 -89 -11.5t-110 -41.5t-131 -82.5
t-152 -134.5l-121 147q96 90 184 147t165.5 89.5t144 44.5t119.5 12q92 0 164 -31.5t126.5 -86t92 -128t61.5 -158t34.5 -175.5t10.5 -181q0 -96 -11 -206t-34 -240zM952 301q2 50 3 99t-5 102q-49 15 -103 24t-108 9q-90 0 -174.5 -21t-145.5 -61t-91.5 -98t-12.5 -132
q14 -60 54.5 -84t97.5 -24q58 0 125.5 19.5t134 48t125.5 60.5t100 58zM1035 1438l-7 -209l-786 -4v202z" />
    <glyph glyph-name="Abreve" unicode="&#x102;" horiz-adv-x="1575" 
d="M1290 -57q-29 102 -60 202.5t-65 202.5l-805 -35q-37 -96 -71 -191t-66 -192l-227 31q141 378 312.5 744t365.5 725l280 -5q172 -347 314 -707.5t258 -740.5zM793 1264q-101 -192 -191 -385.5t-172 -391.5l676 29q-68 192 -146 377t-167 371zM1137 1895q1 -69 -13 -122
t-37 -93t-53 -67.5t-61 -45.5q-73 -43 -166 -51q-95 2 -171 41q-32 16 -63 42t-55.5 64.5t-40 91.5t-16.5 123l178 11q0 -42 7.5 -73t19 -53.5t26 -37t29.5 -23.5q35 -21 80 -20q44 6 77 32q14 11 27 27t22 39.5t13 54t0 70.5z" />
    <glyph glyph-name="abreve" unicode="&#x103;" horiz-adv-x="1278" 
d="M924 -63l14 141q-122 -78 -239.5 -113t-219.5 -35q-72 0 -139.5 18.5t-119 57t-83 98t-31.5 140.5t24 145t66 113t99 84t122.5 57t137.5 32.5t143 10.5q66 0 123 -5t101 -13q-13 50 -32 98.5t-48.5 87t-72.5 62.5t-103 24q-39 0 -89 -11.5t-110 -41.5t-131 -82.5
t-152 -134.5l-121 147q96 90 184 147t165.5 89.5t144 44.5t119.5 12q92 0 164 -31.5t126.5 -86t92 -128t61.5 -158t34.5 -175.5t10.5 -181q0 -96 -11 -206t-34 -240zM952 301q2 50 3 99t-5 102q-49 15 -103 24t-108 9q-90 0 -174.5 -21t-145.5 -61t-91.5 -98t-12.5 -132
q14 -60 54.5 -84t97.5 -24q58 0 125.5 19.5t134 48t125.5 60.5t100 58zM975 1569q1 -69 -13 -122t-37 -93t-53 -67.5t-61 -45.5q-73 -43 -166 -51q-95 2 -171 41q-32 16 -63 42t-55.5 64.5t-40 91.5t-16.5 123l178 11q0 -42 7.5 -73t19 -53.5t26 -37t29.5 -23.5
q35 -21 80 -20q44 6 77 32q14 11 27 27t22 39.5t13 54t0 70.5z" />
    <glyph glyph-name="Aogonek" unicode="&#x104;" horiz-adv-x="1575" 
d="M1593 -377q-32 -38 -64 -64t-62 -42t-58.5 -22.5t-54.5 -6.5q-45 0 -86.5 15t-74 43t-52 68t-19.5 89q0 28 6.5 62t23.5 72.5t45.5 81.5t72.5 91q-25 85 -51 169t-54 169l-805 -35q-37 -96 -71 -191t-66 -192l-227 31q141 378 312.5 744t365.5 725l280 -5
q172 -347 314 -707.5t258 -740.5q-57 -23 -97 -48t-67 -50.5t-42 -50t-22 -46.5q-17 -53 0 -104q7 -9 17 -15q8 -6 20 -10.5t29 -4.5q26 0 61.5 18.5t81.5 69.5zM793 1264q-101 -192 -191 -385.5t-172 -391.5l676 29q-68 192 -146 377t-167 371z" />
    <glyph glyph-name="aogonek" unicode="&#x105;" horiz-adv-x="1278" 
d="M1266 -430q-32 -38 -64 -64t-62 -42t-59 -22.5t-55 -6.5q-45 0 -86.5 15t-73.5 43t-51.5 68t-19.5 89q0 26 5.5 57.5t20 67.5t39.5 76.5t64 85.5l14 141q-122 -78 -239.5 -113t-219.5 -35q-72 0 -139.5 18.5t-119 57t-83 98t-31.5 140.5t24 145t66 113t99 84t122.5 57
t137.5 32.5t143 10.5q66 0 123 -5t101 -13q-13 50 -32 98.5t-48.5 87t-72.5 62.5t-103 24q-39 0 -89 -11.5t-110 -41.5t-131 -82.5t-152 -134.5l-121 147q96 90 184 147t165.5 89.5t144 44.5t119.5 12q92 0 164 -31.5t126.5 -86t92 -128t61.5 -158t34.5 -175.5t10.5 -181
q0 -96 -11 -206t-34 -240q-37 -25 -63 -50t-43 -49.5t-27 -47t-15 -42.5q-11 -47 -1 -90q6 -9 16 -16q8 -6 20 -10.5t29 -4.5q26 0 61.5 19t82.5 70zM952 301q2 50 3 99t-5 102q-49 15 -103 24t-108 9q-90 0 -174.5 -21t-145.5 -61t-91.5 -98t-12.5 -132q14 -60 54.5 -84
t97.5 -24q58 0 125.5 19.5t134 48t125.5 60.5t100 58z" />
    <glyph glyph-name="Cacute" unicode="&#x106;" horiz-adv-x="1503" 
d="M1452 262q-51 -74 -118 -133.5t-145.5 -101.5t-167 -65t-183.5 -23q-105 0 -201.5 27.5t-180.5 78t-153 121t-118 156.5t-76 185t-27 206t27 206t76 185t118 156.5t153 121t181 78t201 27.5q89 0 172 -20t158 -57t140 -90t117 -118l-153 -125q-78 97 -189.5 154
t-244.5 57q-116 0 -217 -45.5t-177 -123.5t-119.5 -182.5t-43.5 -223.5t43.5 -224t119.5 -183t177 -123.5t217 -45.5q70 0 135 17t122.5 48t107 75t87.5 98zM1118 1880l-252 -303l-127 72l178 342z" />
    <glyph glyph-name="cacute" unicode="&#x107;" horiz-adv-x="1241" 
d="M1184 750l-166 -101l-2 6q-26 51 -63 91.5t-83 69t-98.5 43.5t-109.5 15q-82 0 -153.5 -31t-125 -85t-84.5 -126.5t-31 -154.5q0 -81 31 -153t84.5 -126t125 -85t153.5 -31q53 0 103 14t94.5 39.5t81.5 62t63 81.5l4 6l174 -99l-2 -6q-39 -65 -95 -117t-123.5 -89.5
t-144 -57.5t-155.5 -20q-113 0 -218.5 44t-188 122t-132 184t-49.5 231q0 75 20.5 147.5t58 137.5t91 120t118.5 94.5t141 62t159 22.5q87 0 165.5 -21t145.5 -60.5t120 -96.5t89 -129zM993 1463l-252 -303l-127 72l178 342z" />
    <glyph glyph-name="Ccircumflex" unicode="&#x108;" horiz-adv-x="1503" 
d="M1452 262q-51 -74 -118 -133.5t-145.5 -101.5t-167 -65t-183.5 -23q-105 0 -201.5 27.5t-180.5 78t-153 121t-118 156.5t-76 185t-27 206t27 206t76 185t118 156.5t153 121t181 78t201 27.5q89 0 172 -20t158 -57t140 -90t117 -118l-153 -125q-78 97 -189.5 154
t-244.5 57q-116 0 -217 -45.5t-177 -123.5t-119.5 -182.5t-43.5 -223.5t43.5 -224t119.5 -183t177 -123.5t217 -45.5q70 0 135 17t122.5 48t107 75t87.5 98zM1145 1656l-111 -127l-227 199l-185 -209l-139 88l313 338z" />
    <glyph glyph-name="ccircumflex" unicode="&#x109;" horiz-adv-x="1241" 
d="M1184 750l-166 -101l-2 6q-26 51 -63 91.5t-83 69t-98.5 43.5t-109.5 15q-82 0 -153.5 -31t-125 -85t-84.5 -126.5t-31 -154.5q0 -81 31 -153t84.5 -126t125 -85t153.5 -31q53 0 103 14t94.5 39.5t81.5 62t63 81.5l4 6l174 -99l-2 -6q-39 -65 -95 -117t-123.5 -89.5
t-144 -57.5t-155.5 -20q-113 0 -218.5 44t-188 122t-132 184t-49.5 231q0 75 20.5 147.5t58 137.5t91 120t118.5 94.5t141 62t159 22.5q87 0 165.5 -21t145.5 -60.5t120 -96.5t89 -129zM951 1253l-111 -127l-227 199l-185 -209l-139 88l313 338z" />
    <glyph glyph-name="Cdotaccent" unicode="&#x10a;" horiz-adv-x="1503" 
d="M1452 262q-51 -74 -118 -133.5t-145.5 -101.5t-167 -65t-183.5 -23q-105 0 -201.5 27.5t-180.5 78t-153 121t-118 156.5t-76 185t-27 206t27 206t76 185t118 156.5t153 121t181 78t201 27.5q89 0 172 -20t158 -57t140 -90t117 -118l-153 -125q-78 97 -189.5 154
t-244.5 57q-116 0 -217 -45.5t-177 -123.5t-119.5 -182.5t-43.5 -223.5t43.5 -224t119.5 -183t177 -123.5t217 -45.5q70 0 135 17t122.5 48t107 75t87.5 98zM930 1708q0 -24 -9.5 -46t-25.5 -38t-38 -25.5t-46 -9.5t-45.5 9.5t-37 25.5t-25 38t-9.5 46q0 25 9.5 46t25 37
t37 25t45.5 9t46 -9t38 -25t25.5 -37t9.5 -46z" />
    <glyph glyph-name="cdotaccent" unicode="&#x10b;" horiz-adv-x="1241" 
d="M1184 750l-166 -101l-2 6q-26 51 -63 91.5t-83 69t-98.5 43.5t-109.5 15q-82 0 -153.5 -31t-125 -85t-84.5 -126.5t-31 -154.5q0 -81 31 -153t84.5 -126t125 -85t153.5 -31q53 0 103 14t94.5 39.5t81.5 62t63 81.5l4 6l174 -99l-2 -6q-39 -65 -95 -117t-123.5 -89.5
t-144 -57.5t-155.5 -20q-113 0 -218.5 44t-188 122t-132 184t-49.5 231q0 75 20.5 147.5t58 137.5t91 120t118.5 94.5t141 62t159 22.5q87 0 165.5 -21t145.5 -60.5t120 -96.5t89 -129zM762 1260q0 -24 -9.5 -46t-25.5 -38t-38 -25.5t-46 -9.5t-45.5 9.5t-37 25.5t-25 38
t-9.5 46q0 25 9.5 46t25 37t37 25t45.5 9t46 -9t38 -25t25.5 -37t9.5 -46z" />
    <glyph glyph-name="Ccaron" unicode="&#x10c;" horiz-adv-x="1503" 
d="M1452 262q-51 -74 -118 -133.5t-145.5 -101.5t-167 -65t-183.5 -23q-105 0 -201.5 27.5t-180.5 78t-153 121t-118 156.5t-76 185t-27 206t27 206t76 185t118 156.5t153 121t181 78t201 27.5q89 0 172 -20t158 -57t140 -90t117 -118l-153 -125q-78 97 -189.5 154
t-244.5 57q-116 0 -217 -45.5t-177 -123.5t-119.5 -182.5t-43.5 -223.5t43.5 -224t119.5 -183t177 -123.5t217 -45.5q70 0 135 17t122.5 48t107 75t87.5 98zM1130 1850l-344 -291l-309 334l139 112l191 -223l202 182z" />
    <glyph glyph-name="ccaron" unicode="&#x10d;" horiz-adv-x="1241" 
d="M1184 750l-166 -101l-2 6q-26 51 -63 91.5t-83 69t-98.5 43.5t-109.5 15q-82 0 -153.5 -31t-125 -85t-84.5 -126.5t-31 -154.5q0 -81 31 -153t84.5 -126t125 -85t153.5 -31q53 0 103 14t94.5 39.5t81.5 62t63 81.5l4 6l174 -99l-2 -6q-39 -65 -95 -117t-123.5 -89.5
t-144 -57.5t-155.5 -20q-113 0 -218.5 44t-188 122t-132 184t-49.5 231q0 75 20.5 147.5t58 137.5t91 120t118.5 94.5t141 62t159 22.5q87 0 165.5 -21t145.5 -60.5t120 -96.5t89 -129zM979 1432l-344 -291l-309 334l139 112l191 -223l202 182z" />
    <glyph glyph-name="Dcaron" unicode="&#x10e;" horiz-adv-x="1546" 
d="M1460 735q0 -140 -48.5 -252.5t-131 -199.5t-192.5 -149.5t-232 -102.5t-249 -59t-245 -19q-40 0 -79 2t-74 8l-39 1485q78 6 150 9t135 3q111 0 229 -8.5t229.5 -35t211 -75.5t174 -129.5t118 -197.5t43.5 -279zM1272 745q-3 97 -33 175.5t-81.5 138.5t-120.5 103.5
t-149 71.5t-168 41t-177 13q-38 0 -80.5 -2.5t-87.5 -7.5l31 -1131q17 -2 34.5 -2h34.5q100 0 199 18t188.5 53t165.5 86.5t131 118t85.5 148t27.5 176.5zM1099 1835l-344 -291l-309 334l139 112l191 -223l202 182z" />
    <glyph glyph-name="dcaron" unicode="&#x10f;" horiz-adv-x="1616" 
d="M1202 1434l-4 -1475h-205l2 127q-30 -28 -61.5 -49t-63 -36.5t-61.5 -26t-57 -17.5q-63 -16 -125 -18q-116 0 -216 40.5t-174 116t-116.5 183.5t-42.5 243q0 136 47 242.5t123.5 179.5t173 111.5t194.5 38.5q67 -1 136 -18q59 -14 127 -46.5t127 -93.5l8 512zM627 123
q62 0 121 20t108.5 56.5t86.5 87.5t56 112l2 213q-18 64 -56 117.5t-89 91.5t-111.5 59t-123.5 21q-74 0 -136 -30.5t-107 -83.5t-70 -125t-25 -156t25.5 -154t71 -121t109 -79.5t138.5 -28.5zM1590 1415q-2 -45 -15 -91q-11 -39 -35 -86t-69 -89l-90 33q12 15 23 36
q10 18 20 45t16 62q-25 12 -40 36.5t-15 53.5q0 22 8 40.5t22 32.5t32.5 22t39.5 8t40 -8t33 -22t22 -32.5t8 -40.5z" />
    <glyph glyph-name="Dcroat" unicode="&#x110;" horiz-adv-x="1569" 
d="M1483 735q0 -140 -48.5 -252.5t-131.5 -199.5t-192.5 -149.5t-231.5 -102.5t-249 -59t-245 -19q-40 0 -79 2t-75 8l-16 662l-182 -4l-6 208l182 5l-16 614q156 12 284 12q112 0 230 -8.5t229.5 -35t211 -75.5t174 -129.5t118 -197.5t43.5 -279zM823 643l-407 -12l12 -484
q17 -2 35 -2h35q100 0 199 18t188 53t165.5 86.5t131.5 118t85 148t27 176.5q-3 97 -33 175.5t-81 138.5t-120 103.5t-149.5 71.5t-168.5 41t-177 13q-38 0 -80.5 -2.5t-87.5 -7.5l13 -438l413 12v-209z" />
    <glyph glyph-name="dcroat" unicode="&#x111;" horiz-adv-x="1354" 
d="M1202 1434v-80l207 8v-168l-209 -8l-2 -1227h-205l2 127q-30 -28 -61.5 -49t-63 -36.5t-61.5 -26t-57 -17.5q-63 -16 -125 -18q-116 0 -216 40.5t-174 116t-116.5 183.5t-42.5 243q0 136 47 242.5t123.5 179.5t173 111.5t194.5 38.5q67 -1 136 -18q59 -14 127 -46.5
t127 -93.5l4 244l-228 -9l-6 168l236 9l2 100zM627 123q62 0 121 20t108.5 56.5t86.5 87.5t56 112l2 213q-18 64 -56 117.5t-89 91.5t-111.5 59t-123.5 21q-74 0 -136 -30.5t-107 -83.5t-70 -125t-25 -156t25.5 -154t71 -121t109 -79.5t138.5 -28.5z" />
    <glyph glyph-name="Emacron" unicode="&#x112;" horiz-adv-x="1350" 
d="M977 539l-594 -29l4 -313l864 49l4 -197l-1056 -57l-23 1425l1086 17l-7 -191l-882 -14l6 -522l594 24zM1072 1745l-7 -209l-786 -4v202z" />
    <glyph glyph-name="emacron" unicode="&#x113;" horiz-adv-x="1214" 
d="M625 92q53 0 105 16.5t96 48t76.5 78.5t47.5 109l193 -39q-28 -91 -79 -165t-119 -127t-149.5 -82t-170.5 -29q-132 0 -234 40t-172 113t-106.5 176t-36.5 230q0 125 42.5 233.5t116.5 188.5t174 126t216 46q104 0 196 -40.5t163 -112t117 -168.5t58 -210l-866 -129
q7 -71 35 -127.5t71.5 -95.5t101 -59.5t124.5 -20.5zM901 653l-6 19q-38 99 -104.5 155t-165.5 56q-42 0 -92 -14.5t-97 -49.5t-84.5 -93.5t-52.5 -145.5zM1004 1371l-7 -209l-786 -4v202z" />
    <glyph glyph-name="Ebreve" unicode="&#x114;" horiz-adv-x="1350" 
d="M977 539l-594 -29l4 -313l864 49l4 -197l-1056 -57l-23 1425l1086 17l-7 -191l-882 -14l6 -522l594 24zM1010 1909q1 -69 -13 -122t-37 -93t-53 -67.5t-61 -45.5q-73 -43 -166 -51q-95 2 -171 41q-32 16 -63 42t-55.5 64.5t-40 91.5t-16.5 123l178 11q0 -42 7.5 -73
t19 -53.5t26 -37t29.5 -23.5q35 -21 80 -20q44 6 77 32q14 11 27 27t22 39.5t13 54t0 70.5z" />
    <glyph glyph-name="ebreve" unicode="&#x115;" horiz-adv-x="1214" 
d="M625 92q53 0 105 16.5t96 48t76.5 78.5t47.5 109l193 -39q-28 -91 -79 -165t-119 -127t-149.5 -82t-170.5 -29q-132 0 -234 40t-172 113t-106.5 176t-36.5 230q0 125 42.5 233.5t116.5 188.5t174 126t216 46q104 0 196 -40.5t163 -112t117 -168.5t58 -210l-866 -129
q7 -71 35 -127.5t71.5 -95.5t101 -59.5t124.5 -20.5zM901 653l-6 19q-38 99 -104.5 155t-165.5 56q-42 0 -92 -14.5t-97 -49.5t-84.5 -93.5t-52.5 -145.5zM942 1527q1 -69 -13 -122t-37 -93t-53 -67.5t-61 -45.5q-73 -43 -166 -51q-95 2 -171 41q-32 16 -63 42t-55.5 64.5
t-40 91.5t-16.5 123l178 11q0 -42 7.5 -73t19 -53.5t26 -37t29.5 -23.5q35 -21 80 -20q44 6 77 32q14 11 27 27t22 39.5t13 54t0 70.5z" />
    <glyph glyph-name="Edotaccent" unicode="&#x116;" horiz-adv-x="1350" 
d="M977 539l-594 -29l4 -313l864 49l4 -197l-1056 -57l-23 1425l1086 17l-7 -191l-882 -14l6 -522l594 24zM793 1649q0 -24 -9.5 -46t-25.5 -38t-38 -25.5t-46 -9.5t-45.5 9.5t-37 25.5t-25 38t-9.5 46q0 25 9.5 46t25 37t37 25t45.5 9t46 -9t38 -25t25.5 -37t9.5 -46z" />
    <glyph glyph-name="edotaccent" unicode="&#x117;" horiz-adv-x="1214" 
d="M625 92q53 0 105 16.5t96 48t76.5 78.5t47.5 109l193 -39q-28 -91 -79 -165t-119 -127t-149.5 -82t-170.5 -29q-132 0 -234 40t-172 113t-106.5 176t-36.5 230q0 125 42.5 233.5t116.5 188.5t174 126t216 46q104 0 196 -40.5t163 -112t117 -168.5t58 -210l-866 -129
q7 -71 35 -127.5t71.5 -95.5t101 -59.5t124.5 -20.5zM901 653l-6 19q-38 99 -104.5 155t-165.5 56q-42 0 -92 -14.5t-97 -49.5t-84.5 -93.5t-52.5 -145.5zM715 1265q0 -24 -9.5 -46t-25.5 -38t-38 -25.5t-46 -9.5t-45.5 9.5t-37 25.5t-25 38t-9.5 46q0 25 9.5 46t25 37
t37 25t45.5 9t46 -9t38 -25t25.5 -37t9.5 -46z" />
    <glyph glyph-name="Eogonek" unicode="&#x118;" horiz-adv-x="1350" 
d="M1309 -324q-32 -38 -64 -64t-62 -42t-59 -22.5t-55 -6.5q-45 0 -86.5 15t-73.5 43t-51.5 68t-19.5 89q0 25 5.5 55.5t19 65.5t37 74t58.5 82l-759 -41l-23 1425l1086 17l-7 -191l-882 -14l6 -522l594 24l4 -192l-594 -29l4 -313l864 49l4 -197q-56 -17 -96 -39.5
t-67.5 -48t-43.5 -52.5t-25 -52q-20 -60 -9 -125q6 -9 16 -16q8 -6 20 -10.5t29 -4.5q26 0 61.5 18.5t82.5 69.5z" />
    <glyph glyph-name="eogonek" unicode="&#x119;" horiz-adv-x="1214" 
d="M1174 -356q-65 -77 -126.5 -106.5t-113.5 -29.5q-45 0 -86.5 15t-74 43.5t-52 68t-19.5 89.5q0 30 8 68t29 83q-28 -6 -56.5 -10t-57.5 -4q-112 0 -211 44.5t-176 129.5q-79 85 -120.5 194.5t-41.5 231.5q0 125 42.5 233.5t116.5 188.5t174 126t216 46q104 0 196 -40.5
t163 -112t117 -168.5t58 -210l-866 -129q7 -71 35 -134t71.5 -109.5t101 -73.5t124.5 -27q53 0 105 16.5t96 48t76.5 78.5t47.5 109l193 -39q-26 -85 -71 -154t-105 -120q-56 -78 -77 -133t-23 -90q-3 -41 12 -68q6 -9 16 -16q8 -6 20 -10.5t29 -4.5q26 0 61.5 18.5
t81.5 69.5zM901 653l-6 19q-38 99 -104.5 155t-165.5 56q-42 0 -92 -14.5t-97 -49.5t-84.5 -93.5t-52.5 -145.5z" />
    <glyph glyph-name="Ecaron" unicode="&#x11a;" horiz-adv-x="1350" 
d="M977 539l-594 -29l4 -313l864 49l4 -197l-1056 -57l-23 1425l1086 17l-7 -191l-882 -14l6 -522l594 24zM1001 1792l-344 -291l-309 334l139 112l191 -223l202 182z" />
    <glyph glyph-name="ecaron" unicode="&#x11b;" horiz-adv-x="1214" 
d="M625 92q53 0 105 16.5t96 48t76.5 78.5t47.5 109l193 -39q-28 -91 -79 -165t-119 -127t-149.5 -82t-170.5 -29q-132 0 -234 40t-172 113t-106.5 176t-36.5 230q0 125 42.5 233.5t116.5 188.5t174 126t216 46q104 0 196 -40.5t163 -112t117 -168.5t58 -210l-866 -129
q7 -71 35 -127.5t71.5 -95.5t101 -59.5t124.5 -20.5zM901 653l-6 19q-38 99 -104.5 155t-165.5 56q-42 0 -92 -14.5t-97 -49.5t-84.5 -93.5t-52.5 -145.5zM934 1432l-344 -291l-309 334l139 112l191 -223l202 182z" />
    <glyph glyph-name="Gcircumflex" unicode="&#x11c;" horiz-adv-x="1548" 
d="M1452 262q-51 -74 -118 -133.5t-145.5 -101.5t-167 -65t-183.5 -23q-105 0 -201.5 27.5t-180.5 78t-153 121t-118 156.5t-76 185t-27 206t27 206t76 185t118 156.5t153 121t181 78t201 27.5q89 0 172 -20t158 -57t140 -90t117 -118l-153 -125q-78 97 -189.5 154
t-244.5 57q-116 0 -217 -45.5t-177 -123.5t-119.5 -182.5t-43.5 -223.5t43.5 -224t119.5 -183t177 -123.5t217 -45.5q121 0 225.5 48.5t181.5 133.5l-4 213l-612 -24v209l807 26zM1104 1656l-111 -127l-227 199l-185 -209l-139 88l313 338z" />
    <glyph glyph-name="gcircumflex" unicode="&#x11d;" horiz-adv-x="1352" 
d="M1204 1108l-6 -1149q-1 -65 -17 -129.5t-47.5 -125t-78 -114t-107 -95t-135.5 -68t-164 -33.5q-121 -4 -228 25q-46 12 -93.5 33t-91.5 53.5t-81 78t-61 107.5l193 84q19 -43 46 -74t58 -52t63.5 -34t63.5 -19q73 -16 154 -6q70 14 121.5 43t87.5 64.5t58.5 75t35.5 75.5
t17.5 65.5t4.5 45.5v131q-60 -57 -124.5 -87.5t-119.5 -44.5q-64 -17 -126 -19q-116 0 -216 40.5t-174 116t-116.5 183.5t-42.5 243q0 136 47 242.5t123.5 179.5t173 111.5t194.5 38.5q68 -8 137 -30q59 -19 127 -54t126 -95l2 199zM627 131q66 0 128 23t112.5 64.5t85.5 99
t48 126.5v131q-11 71 -47 129.5t-88 100.5t-115.5 65t-129.5 23q-72 0 -133 -29.5t-104.5 -81.5t-68 -123t-24.5 -153t25 -151t69.5 -118.5t106 -77.5t135.5 -28zM943 1261l-111 -127l-227 199l-185 -209l-139 88l313 338z" />
    <glyph glyph-name="Gbreve" unicode="&#x11e;" horiz-adv-x="1548" 
d="M1452 262q-51 -74 -118 -133.5t-145.5 -101.5t-167 -65t-183.5 -23q-105 0 -201.5 27.5t-180.5 78t-153 121t-118 156.5t-76 185t-27 206t27 206t76 185t118 156.5t153 121t181 78t201 27.5q89 0 172 -20t158 -57t140 -90t117 -118l-153 -125q-78 97 -189.5 154
t-244.5 57q-116 0 -217 -45.5t-177 -123.5t-119.5 -182.5t-43.5 -223.5t43.5 -224t119.5 -183t177 -123.5t217 -45.5q121 0 225.5 48.5t181.5 133.5l-4 213l-612 -24v209l807 26zM1116 1944q1 -69 -13 -122t-37 -93t-53 -67.5t-61 -45.5q-73 -43 -166 -51q-95 2 -171 41
q-32 16 -63 42t-55.5 64.5t-40 91.5t-16.5 123l178 11q0 -42 7.5 -73t19 -53.5t26 -37t29.5 -23.5q35 -21 80 -20q44 6 77 32q14 11 27 27t22 39.5t13 54t0 70.5z" />
    <glyph glyph-name="gbreve" unicode="&#x11f;" horiz-adv-x="1352" 
d="M1204 1108l-6 -1149q-1 -65 -17 -129.5t-47.5 -125t-78 -114t-107 -95t-135.5 -68t-164 -33.5q-121 -4 -228 25q-46 12 -93.5 33t-91.5 53.5t-81 78t-61 107.5l193 84q19 -43 46 -74t58 -52t63.5 -34t63.5 -19q73 -16 154 -6q70 14 121.5 43t87.5 64.5t58.5 75t35.5 75.5
t17.5 65.5t4.5 45.5v131q-60 -57 -124.5 -87.5t-119.5 -44.5q-64 -17 -126 -19q-116 0 -216 40.5t-174 116t-116.5 183.5t-42.5 243q0 136 47 242.5t123.5 179.5t173 111.5t194.5 38.5q68 -8 137 -30q59 -19 127 -54t126 -95l2 199zM627 131q66 0 128 23t112.5 64.5t85.5 99
t48 126.5v131q-11 71 -47 129.5t-88 100.5t-115.5 65t-129.5 23q-72 0 -133 -29.5t-104.5 -81.5t-68 -123t-24.5 -153t25 -151t69.5 -118.5t106 -77.5t135.5 -28zM940 1556q1 -69 -13 -122t-37 -93t-53 -67.5t-61 -45.5q-73 -43 -166 -51q-95 2 -171 41q-32 16 -63 42
t-55.5 64.5t-40 91.5t-16.5 123l178 11q0 -42 7.5 -73t19 -53.5t26 -37t29.5 -23.5q35 -21 80 -20q44 6 77 32q14 11 27 27t22 39.5t13 54t0 70.5z" />
    <glyph glyph-name="Gdotaccent" unicode="&#x120;" horiz-adv-x="1548" 
d="M1452 262q-51 -74 -118 -133.5t-145.5 -101.5t-167 -65t-183.5 -23q-105 0 -201.5 27.5t-180.5 78t-153 121t-118 156.5t-76 185t-27 206t27 206t76 185t118 156.5t153 121t181 78t201 27.5q89 0 172 -20t158 -57t140 -90t117 -118l-153 -125q-78 97 -189.5 154
t-244.5 57q-116 0 -217 -45.5t-177 -123.5t-119.5 -182.5t-43.5 -223.5t43.5 -224t119.5 -183t177 -123.5t217 -45.5q121 0 225.5 48.5t181.5 133.5l-4 213l-612 -24v209l807 26zM906 1692q0 -24 -9.5 -46t-25.5 -38t-38 -25.5t-46 -9.5t-45.5 9.5t-37 25.5t-25 38t-9.5 46
q0 25 9.5 46t25 37t37 25t45.5 9t46 -9t38 -25t25.5 -37t9.5 -46z" />
    <glyph glyph-name="gdotaccent" unicode="&#x121;" horiz-adv-x="1352" 
d="M1204 1108l-6 -1149q-1 -65 -17 -129.5t-47.5 -125t-78 -114t-107 -95t-135.5 -68t-164 -33.5q-121 -4 -228 25q-46 12 -93.5 33t-91.5 53.5t-81 78t-61 107.5l193 84q19 -43 46 -74t58 -52t63.5 -34t63.5 -19q73 -16 154 -6q70 14 121.5 43t87.5 64.5t58.5 75t35.5 75.5
t17.5 65.5t4.5 45.5v131q-60 -57 -124.5 -87.5t-119.5 -44.5q-64 -17 -126 -19q-116 0 -216 40.5t-174 116t-116.5 183.5t-42.5 243q0 136 47 242.5t123.5 179.5t173 111.5t194.5 38.5q68 -8 137 -30q59 -19 127 -54t126 -95l2 199zM627 131q66 0 128 23t112.5 64.5t85.5 99
t48 126.5v131q-11 71 -47 129.5t-88 100.5t-115.5 65t-129.5 23q-72 0 -133 -29.5t-104.5 -81.5t-68 -123t-24.5 -153t25 -151t69.5 -118.5t106 -77.5t135.5 -28zM709 1303q0 -24 -9.5 -46t-25.5 -38t-38 -25.5t-46 -9.5t-45.5 9.5t-37 25.5t-25 38t-9.5 46q0 25 9.5 46
t25 37t37 25t45.5 9t46 -9t38 -25t25.5 -37t9.5 -46z" />
    <glyph glyph-name="Gcommaaccent" unicode="&#x122;" horiz-adv-x="1548" 
d="M1452 262q-51 -74 -118 -133.5t-145.5 -101.5t-167 -65t-183.5 -23q-105 0 -201.5 27.5t-180.5 78t-153 121t-118 156.5t-76 185t-27 206t27 206t76 185t118 156.5t153 121t181 78t201 27.5q89 0 172 -20t158 -57t140 -90t117 -118l-153 -125q-78 97 -189.5 154
t-244.5 57q-116 0 -217 -45.5t-177 -123.5t-119.5 -182.5t-43.5 -223.5t43.5 -224t119.5 -183t177 -123.5t217 -45.5q121 0 225.5 48.5t181.5 133.5l-4 213l-612 -24v209l807 26zM960 -248q-2 -45 -15 -91q-11 -39 -34.5 -86t-68.5 -89l-91 33q13 15 24 36q10 18 19.5 45
t16.5 62q-25 14 -40 37.5t-15 52.5q0 22 8 40.5t22 32.5t32.5 22t39.5 8q43 0 72.5 -29.5t29.5 -73.5z" />
    <glyph glyph-name="gcommaaccent" unicode="&#x123;" horiz-adv-x="1352" 
d="M1204 1108l-6 -1149q-1 -65 -17 -129.5t-47.5 -125t-78 -114t-107 -95t-135.5 -68t-164 -33.5q-121 -4 -228 25q-46 12 -93.5 33t-91.5 53.5t-81 78t-61 107.5l193 84q19 -43 46 -74t58 -52t63.5 -34t63.5 -19q73 -16 154 -6q70 14 121.5 43t87.5 64.5t58.5 75t35.5 75.5
t17.5 65.5t4.5 45.5v131q-60 -57 -124.5 -87.5t-119.5 -44.5q-64 -17 -126 -19q-116 0 -216 40.5t-174 116t-116.5 183.5t-42.5 243q0 136 47 242.5t123.5 179.5t173 111.5t194.5 38.5q68 -8 137 -30q59 -19 127 -54t126 -95l2 199zM627 131q66 0 128 23t112.5 64.5t85.5 99
t48 126.5v131q-11 71 -47 129.5t-88 100.5t-115.5 65t-129.5 23q-72 0 -133 -29.5t-104.5 -81.5t-68 -123t-24.5 -153t25 -151t69.5 -118.5t106 -77.5t135.5 -28zM469 1295q0 10 3.5 37t16 63.5t36 77.5t63.5 78l90 -31q-13 -16 -24 -37q-10 -18 -19.5 -44.5t-15.5 -61.5
q24 -14 39.5 -38.5t15.5 -52.5q0 -21 -8 -40t-22 -33.5t-32.5 -22.5t-39.5 -8q-22 0 -40.5 8t-32.5 22.5t-22 33.5t-8 40v9z" />
    <glyph glyph-name="Hcircumflex" unicode="&#x124;" horiz-adv-x="1686" 
d="M399 639l881 43l-10 743l223 -16l12 -1374l-215 -17l-6 478l-883 -39l7 -449l-209 -8l-19 1430l211 10zM1174 1544l-111 -127l-227 199l-185 -209l-139 88l313 338z" />
    <glyph glyph-name="hcircumflex" unicode="&#x125;" horiz-adv-x="1346" 
d="M373 1499l-6 -608q55 60 117 94.5t116 52.5q62 20 123 27q112 0 204 -40t158 -115t104.5 -182.5t43.5 -242.5q0 -71 -1.5 -145t-7 -145t-15 -135t-25.5 -115l-228 16q29 96 41.5 187t17.5 163q5 84 3 160q-5 107 -37 182t-78.5 122.5t-102.5 69t-110 21.5
q-57 -5 -115 -33q-50 -24 -107 -74.5t-106 -142.5l-6 -663l-196 -4l-17 1542zM1086 1271l-111 -127l-227 199l-185 -209l-139 88l313 338z" />
    <glyph glyph-name="Hbar" unicode="&#x126;" horiz-adv-x="1686" 
d="M395 1016l879 24l-4 385l223 -16l2 -362l86 2v-170l-84 -2l8 -842l-215 -17l-6 478l-883 -39l7 -449l-209 -8l-13 840l-82 -2v170l80 2l-4 420l211 10zM1276 870l-879 -24l2 -207l881 43z" />
    <glyph glyph-name="hbar" unicode="&#x127;" horiz-adv-x="1346" 
d="M373 1499l-2 -156l356 13v-182l-358 -13l-2 -270q55 60 117 94.5t116 52.5q62 20 123 27q112 0 204 -40t158 -115t104.5 -182.5t43.5 -242.5q0 -71 -1.5 -145t-7 -145t-15 -135t-25.5 -115l-228 16q29 96 41.5 187t17.5 163q5 84 3 160q-5 107 -37 182t-78.5 122.5
t-102.5 69t-110 21.5q-57 -5 -115 -33q-50 -24 -107 -74.5t-106 -142.5l-6 -663l-196 -4l-13 1206l-180 -6v182l178 6l-2 154z" />
    <glyph glyph-name="Itilde" unicode="&#x128;" horiz-adv-x="590" 
d="M408 35h-201l-35 1390l223 -8zM699 1974q3 -23 5.5 -44.5t2.5 -41.5q0 -56 -18 -108.5t-52 -93.5t-83 -66t-111 -25q-43 0 -75.5 12.5t-58 32t-46 41.5t-39.5 41t-38 31.5t-42 11.5q-25 -3 -44 -21q-17 -15 -31.5 -47.5t-16.5 -91.5l-168 29q5 51 16.5 92t27 72.5
t33.5 55t36 40.5q42 39 92 55q56 13 98 3.5t74.5 -31t57.5 -49.5t47 -52t43.5 -39t45.5 -10q22 5 40 21q15 14 27.5 38.5t12.5 67.5q0 16 -1.5 34t-6.5 38z" />
    <glyph glyph-name="itilde" unicode="&#x129;" 
d="M371 981q-3 -143 -5.5 -262.5t-4.5 -217.5t-3.5 -175.5t-2.5 -135.5q-3 -138 -3 -217h-205q2 108 5 257q2 128 5.5 313t6.5 430zM662 1571q3 -23 5.5 -44.5t2.5 -41.5q0 -56 -18 -108.5t-52 -93.5t-83 -66t-111 -25q-43 0 -75.5 12.5t-58 32t-46 41.5t-39.5 41t-38 31.5
t-42 11.5q-25 -3 -44 -21q-17 -15 -31.5 -47.5t-16.5 -91.5l-168 29q5 51 16.5 92t27 72.5t33.5 55t36 40.5q42 39 92 55q56 13 98 3.5t74.5 -31t57.5 -49.5t47 -52t43.5 -39t45.5 -10q22 5 40 21q15 14 27.5 38.5t12.5 67.5q0 16 -1.5 34t-6.5 38z" />
    <glyph glyph-name="Imacron" unicode="&#x12a;" horiz-adv-x="590" 
d="M408 35h-201l-35 1390l223 -8zM694 1770l-7 -209l-786 -4v202z" />
    <glyph glyph-name="imacron" unicode="&#x12b;" 
d="M371 981q-3 -143 -5.5 -262.5t-4.5 -217.5t-3.5 -175.5t-2.5 -135.5q-3 -138 -3 -217h-205q2 108 5 257q2 128 5.5 313t6.5 430zM655 1300l-7 -209l-786 -4v202z" />
    <glyph glyph-name="Ibreve" unicode="&#x12c;" horiz-adv-x="590" 
d="M408 35h-201l-35 1390l223 -8zM632 1909q1 -69 -13 -122t-37 -93t-53 -67.5t-61 -45.5q-73 -43 -166 -51q-95 2 -171 41q-32 16 -63 42t-55.5 64.5t-40 91.5t-16.5 123l178 11q0 -42 7.5 -73t19 -53.5t26 -37t29.5 -23.5q35 -21 80 -20q44 6 77 32q14 11 27 27t22 39.5
t13 54t0 70.5z" />
    <glyph glyph-name="ibreve" unicode="&#x12d;" 
d="M371 981q-3 -143 -5.5 -262.5t-4.5 -217.5t-3.5 -175.5t-2.5 -135.5q-3 -138 -3 -217h-205q2 108 5 257q2 128 5.5 313t6.5 430zM595 1488q1 -69 -13 -122t-37 -93t-53 -67.5t-61 -45.5q-73 -43 -166 -51q-95 2 -171 41q-32 16 -63 42t-55.5 64.5t-40 91.5t-16.5 123
l178 11q0 -42 7.5 -73t19 -53.5t26 -37t29.5 -23.5q35 -21 80 -20q44 6 77 32q14 11 27 27t22 39.5t13 54t0 70.5z" />
    <glyph glyph-name="Iogonek" unicode="&#x12e;" horiz-adv-x="590" 
d="M571 -309q-65 -77 -126 -106t-113 -29q-45 0 -86.5 15t-74 43t-52 68t-19.5 89q0 24 5 53t18 62.5t34.5 70.5t53.5 78h-4l-35 1390l223 -8l13 -1382q-36 -30 -61 -58.5t-41 -54.5t-24.5 -49.5t-11.5 -42.5q-8 -46 6 -84q7 -9 17 -16q8 -6 20 -10.5t29 -4.5
q26 0 61.5 18.5t81.5 69.5z" />
    <glyph glyph-name="iogonek" unicode="&#x12f;" horiz-adv-x="512" 
d="M492 -377q-32 -38 -64 -64t-62 -42t-59 -22.5t-55 -6.5q-45 0 -86.5 15t-74 43t-52 68t-19.5 89q0 26 5.5 57t20 66.5t38.5 75.5t61 84q0 34 5.5 284t11.5 703l207 8q-3 -143 -5.5 -262.5t-4.5 -217.5t-3.5 -175.5t-2.5 -135.5q-3 -138 -3 -217q-39 -30 -65.5 -59
t-44.5 -55t-28 -50t-15 -44q-11 -48 0 -87q6 -9 16 -15q8 -6 20 -10.5t29 -4.5q26 0 61.5 18.5t82.5 69.5zM416 1333q0 -29 -11.5 -55t-31 -45t-45.5 -30t-56 -11q-29 0 -54.5 11t-45 30t-30.5 45t-11 55q0 30 11 56t30.5 45.5t45 31t54.5 11.5q30 0 56 -11.5t45.5 -31
t31 -45.5t11.5 -56z" />
    <glyph glyph-name="Idotaccent" unicode="&#x130;" horiz-adv-x="590" 
d="M408 35h-201l-35 1390l223 -8zM398 1663q0 -24 -9.5 -46t-25.5 -38t-38 -25.5t-46 -9.5t-45.5 9.5t-37 25.5t-25 38t-9.5 46q0 25 9.5 46t25 37t37 25t45.5 9t46 -9t38 -25t25.5 -37t9.5 -46z" />
    <glyph glyph-name="dotlessi" unicode="&#x131;" 
d="M371 981q-3 -143 -5.5 -262.5t-4.5 -217.5t-3.5 -175.5t-2.5 -135.5q-3 -138 -3 -217h-205q2 108 5 257q2 128 5.5 313t6.5 430z" />
    <glyph glyph-name="IJ" unicode="&#x132;" horiz-adv-x="1946" 
d="M408 35h-201l-35 1390l223 -8zM1782 516q0 -124 -43 -226.5t-119.5 -177t-180.5 -118.5t-226 -51q-141 -9 -247.5 37t-179 132t-110.5 205t-41 258l211 23q-3 -91 10.5 -159t38 -117t57.5 -81t68 -52q82 -47 188 -46q78 6 136.5 29.5t100 59.5t68.5 82.5t42.5 99
t21.5 109t6 112.5q0 58 -2.5 139.5t-6 170.5t-8 177t-9 157.5t-8.5 112t-7 42.5l217 4q2 -1 4.5 -48t5 -124t5 -174.5t4.5 -200t3 -200.5t1 -175z" />
    <glyph glyph-name="ij" unicode="&#x133;" horiz-adv-x="1026" 
d="M416 1333q0 -29 -11.5 -55t-31 -45t-45.5 -30t-56 -11q-29 0 -54.5 11t-45 30t-30.5 45t-11 55q0 30 11 56t30.5 45.5t45 31t54.5 11.5q30 0 56 -11.5t45.5 -31t31 -45.5t11.5 -56zM369 981q-3 -143 -5.5 -262.5t-4.5 -217.5t-3.5 -175.5t-2.5 -135.5q-3 -138 -3 -217
h-205q2 108 5 257q2 128 5.5 313t6.5 430zM932 1333q0 -29 -11 -55t-30.5 -45t-45 -30t-54.5 -11t-55.5 11t-46 30t-31 45t-11.5 55q0 30 11.5 56t31 45.5t46 31t55.5 11.5t54.5 -11.5t45 -31t30.5 -45.5t11 -56zM877 977q-2 -154 -3.5 -279.5t-2 -227t-1.5 -179.5t-1 -136
q-1 -136 -1 -208q-1 -53 -8.5 -113.5t-28.5 -120t-57.5 -114.5t-95.5 -97t-142.5 -66.5t-197.5 -23.5l12 226q57 -6 100.5 4.5t76 31.5t55.5 49.5t38 59.5q35 72 42 168q2 107 4 258q2 130 3 323t1 453z" />
    <glyph glyph-name="Jcircumflex" unicode="&#x134;" horiz-adv-x="1356" 
d="M1192 516q0 -124 -43 -226.5t-119.5 -177t-180.5 -118.5t-226 -51q-141 -9 -247.5 37t-179 132t-110.5 205t-41 258l211 23q-3 -91 10.5 -159t38 -117t57.5 -81t68 -52q82 -47 188 -46q78 6 136.5 29.5t100 59.5t68.5 82.5t42.5 99t21.5 109t6 112.5q0 58 -2.5 139.5
t-6 170.5t-8 177t-9 157.5t-8.5 112t-7 42.5l217 4q2 -1 4.5 -48t5 -124t5 -174.5t4.5 -200t3 -200.5t1 -175zM1362 1632l-111 -127l-227 199l-185 -209l-139 88l313 338z" />
    <glyph glyph-name="jcircumflex" unicode="&#x135;" 
d="M365 977q-2 -154 -3.5 -279.5t-2 -227t-1.5 -179.5t-1 -136q-1 -136 -1 -208q-1 -53 -8.5 -113.5t-28.5 -120t-57.5 -114.5t-95.5 -97t-142.5 -66.5t-197.5 -23.5l12 226q57 -6 100.5 4.5t76 31.5t55.5 49.5t38 59.5q35 72 42 168q2 107 4 258q2 130 3 323t1 453z
M589 1253l-111 -127l-227 199l-185 -209l-139 88l313 338z" />
    <glyph glyph-name="Kcommaaccent" unicode="&#x136;" horiz-adv-x="1440" 
d="M408 573l757 861l224 -29l-469 -535l489 -862l-235 -35l-386 748l-374 -428l8 -297l-223 -4l-23 1417l211 16zM823 -156q-2 -45 -15 -91q-11 -39 -34.5 -86t-68.5 -89l-91 33q13 15 24 36q10 18 19.5 45t16.5 62q-25 14 -40 37.5t-15 52.5q0 22 8 40.5t22 32.5t32.5 22
t39.5 8q43 0 72.5 -29.5t29.5 -73.5z" />
    <glyph glyph-name="kcommaaccent" unicode="&#x137;" horiz-adv-x="1135" 
d="M410 1516l-37 -949l522 525l154 -123l-373 -369l430 -559l-176 -129l-402 541l-166 -162l-10 -301l-215 -13l51 1543zM671 -195q-2 -45 -15 -91q-11 -39 -34.5 -86t-68.5 -89l-91 33q13 15 24 36q10 18 19.5 45t16.5 62q-25 14 -40 37.5t-15 52.5q0 22 8 40.5t22 32.5
t32.5 22t39.5 8q43 0 72.5 -29.5t29.5 -73.5z" />
    <glyph glyph-name="kgreenlandic" unicode="&#x138;" horiz-adv-x="1135" 
d="M393 1065l-20 -498l522 525l154 -123l-373 -369l430 -559l-176 -129l-402 541l-166 -162l-10 -301l-215 -13l35 1092z" />
    <glyph glyph-name="Lacute" unicode="&#x139;" horiz-adv-x="1323" 
d="M1280 -23l-1090 -75l-6 1521l207 11l-6 -1313l885 69zM641 1827l-252 -303l-127 72l178 342z" />
    <glyph glyph-name="lacute" unicode="&#x13a;" horiz-adv-x="575" 
d="M541 -49q-71 1 -125.5 24t-96 59.5t-71 83.5t-49.5 95q-48 114 -60 258l27 1268h209q-5 -178 -9.5 -326.5t-7.5 -270t-5.5 -217.5t-4.5 -169q-4 -172 -6 -271q2 -93 27 -166q10 -31 26.5 -61t40 -54t56 -38.5t75.5 -15.5zM604 2105l-252 -303l-127 72l178 342z" />
    <glyph glyph-name="Lcommaaccent" unicode="&#x13b;" horiz-adv-x="1323" 
d="M1280 -23l-1090 -75l-6 1521l207 11l-6 -1313l885 69zM766 -248q-2 -45 -15 -91q-11 -39 -34.5 -86t-68.5 -89l-91 33q13 15 24 36q10 18 19.5 45t16.5 62q-25 14 -40 37.5t-15 52.5q0 22 8 40.5t22 32.5t32.5 22t39.5 8q43 0 72.5 -29.5t29.5 -73.5z" />
    <glyph glyph-name="lcommaaccent" unicode="&#x13c;" horiz-adv-x="575" 
d="M541 -49q-71 1 -125.5 24t-96 59.5t-71 83.5t-49.5 95q-48 114 -60 258l27 1268h209q-5 -178 -9.5 -326.5t-7.5 -270t-5.5 -217.5t-4.5 -169q-4 -172 -6 -271q2 -93 27 -166q10 -31 26.5 -61t40 -54t56 -38.5t75.5 -15.5zM391 -248q-2 -45 -15 -91q-11 -39 -34.5 -86
t-68.5 -89l-91 33q13 15 24 36q10 18 19.5 45t16.5 62q-25 14 -40 37.5t-15 52.5q0 22 8 40.5t22 32.5t32.5 22t39.5 8q43 0 72.5 -29.5t29.5 -73.5z" />
    <glyph glyph-name="Lcaron" unicode="&#x13d;" horiz-adv-x="1323" 
d="M1280 -23l-1090 -75l-6 1521l207 11l-6 -1313l885 69zM766 1513q-2 -45 -15 -91q-11 -39 -35 -86t-69 -89l-90 33q12 15 23 36q10 18 20 45t16 62q-25 12 -40 36.5t-15 53.5q0 22 8 40.5t22 32.5t32.5 22t39.5 8t40 -8t33 -22t22 -32.5t8 -40.5z" />
    <glyph glyph-name="lcaron" unicode="&#x13e;" horiz-adv-x="838" 
d="M541 -49q-71 1 -125.5 24t-96 59.5t-71 83.5t-49.5 95q-48 114 -60 258l27 1268h209q-5 -178 -9.5 -326.5t-7.5 -270t-5.5 -217.5t-4.5 -169q-4 -172 -6 -271q2 -93 27 -166q10 -31 26.5 -61t40 -54t56 -38.5t75.5 -15.5zM744 1415q-2 -45 -15 -91q-11 -39 -35 -86
t-69 -89l-90 33q12 15 23 36q10 18 20 45t16 62q-25 12 -40 36.5t-15 53.5q0 22 8 40.5t22 32.5t32.5 22t39.5 8t40 -8t33 -22t22 -32.5t8 -40.5z" />
    <glyph glyph-name="Ldot" unicode="&#x13f;" horiz-adv-x="1356" 
d="M1280 -23l-1090 -75l-6 1521l207 11l-6 -1313l885 69zM1227 733q0 -26 -10 -49t-27.5 -40.5t-40.5 -27.5t-49 -10q-27 0 -50.5 10t-41 27.5t-27.5 40.5t-10 49q0 27 10 50.5t27.5 41t41 27.5t50.5 10q26 0 49 -10t40.5 -27.5t27.5 -41t10 -50.5z" />
    <glyph glyph-name="ldotaccent" unicode="&#x140;" horiz-adv-x="930" 
d="M541 -49q-71 1 -125.5 24t-96 59.5t-71 83.5t-49.5 95q-48 114 -60 258l27 1268h209q-5 -178 -9.5 -326.5t-7.5 -270t-5.5 -217.5t-4.5 -169q-4 -172 -6 -271q2 -93 27 -166q10 -31 26.5 -61t40 -54t56 -38.5t75.5 -15.5zM766 733q0 -26 -10 -49t-27.5 -40.5t-40.5 -27.5
t-49 -10q-27 0 -50.5 10t-41 27.5t-27.5 40.5t-10 49q0 27 10 50.5t27.5 41t41 27.5t50.5 10q26 0 49 -10t40.5 -27.5t27.5 -41t10 -50.5z" />
    <glyph glyph-name="Lslash" unicode="&#x141;" horiz-adv-x="1346" 
d="M762 838l-350 -191l-2 -526l884 69l11 -213l-1090 -75l-2 637l-145 -78l-91 164l234 127l-2 671l207 11l-4 -574l266 146z" />
    <glyph glyph-name="lslash" unicode="&#x142;" horiz-adv-x="717" 
d="M762 1006l-344 -187q-2 -90 -3 -152.5t-2 -103.5q-1 -48 -1 -78q2 -93 27 -166q10 -31 26.5 -61t40 -54t56 -38.5t75.5 -15.5l-27 -199q-70 1 -124.5 24t-96 59.5t-71 83.5t-49.5 95q-48 114 -60 258l4 238l-145 -80l-91 164l240 131l19 815h208l-20 -703l254 138z" />
    <glyph glyph-name="Nacute" unicode="&#x143;" horiz-adv-x="1686" 
d="M1286 332l-16 1093l223 -16l12 -1374l-215 -17l-895 1069l13 -1079l-209 -8l-19 1430l211 10zM1124 1772l-252 -303l-127 72l178 342z" />
    <glyph glyph-name="nacute" unicode="&#x144;" horiz-adv-x="1266" 
d="M174 -74q-6 172 -11 311.5t-9 249.5t-6.5 194t-4.5 145q-4 143 -6 212l228 4l4 -288q33 57 75 107.5t91 89.5t104.5 63t116.5 28q76 5 132.5 -13t96.5 -50t66 -75.5t41 -90t21.5 -92.5t8.5 -84q6 -172 3 -346t-7 -361l-205 7q8 161 14.5 322t-1.5 325q0 18 -2.5 46.5
t-11 60.5t-23.5 63.5t-39 55t-58.5 35.5t-80.5 5q-79 -12 -160.5 -115.5t-175.5 -302.5q4 -161 6.5 -256.5t4.5 -144.5q2 -58 3 -78zM981 1457l-252 -303l-127 72l178 342z" />
    <glyph glyph-name="Ncommaaccent" unicode="&#x145;" horiz-adv-x="1686" 
d="M1286 332l-16 1093l223 -16l12 -1374l-215 -17l-895 1069l13 -1079l-209 -8l-19 1430l211 10zM946 -160q-2 -45 -15 -91q-11 -39 -34.5 -86t-68.5 -89l-91 33q13 15 24 36q10 18 19.5 45t16.5 62q-25 14 -40 37.5t-15 52.5q0 22 8 40.5t22 32.5t32.5 22t39.5 8
q43 0 72.5 -29.5t29.5 -73.5z" />
    <glyph glyph-name="ncommaaccent" unicode="&#x146;" horiz-adv-x="1266" 
d="M174 -74q-6 172 -11 311.5t-9 249.5t-6.5 194t-4.5 145q-4 143 -6 212l228 4l4 -288q33 57 75 107.5t91 89.5t104.5 63t116.5 28q76 5 132.5 -13t96.5 -50t66 -75.5t41 -90t21.5 -92.5t8.5 -84q6 -172 3 -346t-7 -361l-205 7q8 161 14.5 322t-1.5 325q0 18 -2.5 46.5
t-11 60.5t-23.5 63.5t-39 55t-58.5 35.5t-80.5 5q-79 -12 -160.5 -115.5t-175.5 -302.5q4 -161 6.5 -256.5t4.5 -144.5q2 -58 3 -78zM737 -189q-2 -45 -15 -91q-11 -39 -34.5 -86t-68.5 -89l-91 33q13 15 24 36q10 18 19.5 45t16.5 62q-25 14 -40 37.5t-15 52.5q0 22 8 40.5
t22 32.5t32.5 22t39.5 8q43 0 72.5 -29.5t29.5 -73.5z" />
    <glyph glyph-name="Ncaron" unicode="&#x147;" horiz-adv-x="1686" 
d="M1286 332l-16 1093l223 -16l12 -1374l-215 -17l-895 1069l13 -1079l-209 -8l-19 1430l211 10zM1169 1725l-344 -291l-309 334l139 112l191 -223l202 182z" />
    <glyph glyph-name="ncaron" unicode="&#x148;" horiz-adv-x="1266" 
d="M174 -74q-6 172 -11 311.5t-9 249.5t-6.5 194t-4.5 145q-4 143 -6 212l228 4l4 -288q33 57 75 107.5t91 89.5t104.5 63t116.5 28q76 5 132.5 -13t96.5 -50t66 -75.5t41 -90t21.5 -92.5t8.5 -84q6 -172 3 -346t-7 -361l-205 7q8 161 14.5 322t-1.5 325q0 18 -2.5 46.5
t-11 60.5t-23.5 63.5t-39 55t-58.5 35.5t-80.5 5q-79 -12 -160.5 -115.5t-175.5 -302.5q4 -161 6.5 -256.5t4.5 -144.5q2 -58 3 -78zM958 1432l-344 -291l-309 334l139 112l191 -223l202 182z" />
    <glyph glyph-name="napostrophe" unicode="&#x149;" horiz-adv-x="1446" 
d="M236 1415q-2 -45 -15 -91q-11 -39 -35 -86t-69 -89l-90 33q12 15 23 36q10 18 20 45t16 62q-25 12 -40 36.5t-15 53.5q0 22 8 40.5t22 32.5t32.5 22t39.5 8t40 -8t33 -22t22 -32.5t8 -40.5zM354 -74q-6 172 -11 311.5t-9 249.5t-6.5 194t-4.5 145q-4 143 -6 212l228 4
l4 -288q33 57 75 107.5t91 89.5t104.5 63t116.5 28q76 5 132.5 -13t96.5 -50t66 -75.5t41 -90t21.5 -92.5t8.5 -84q6 -172 3 -346t-7 -361l-205 7q8 161 14.5 322t-1.5 325q0 18 -2.5 46.5t-11 60.5t-23.5 63.5t-39 55t-58.5 35.5t-80.5 5q-79 -12 -160.5 -115.5
t-175.5 -302.5q4 -161 6.5 -256.5t4.5 -144.5q2 -58 3 -78z" />
    <glyph glyph-name="Eng" unicode="&#x14a;" horiz-adv-x="1686" 
d="M1501 -147q0 -124 -43 -226.5t-119.5 -177.5t-180.5 -119t-226 -51q-141 -8 -247.5 37.5t-179 131.5t-110.5 205.5t-41 258.5l211 22q-3 -91 10.5 -159t38.5 -117t58 -81t68 -52q82 -47 188 -45q117 9 190.5 55.5t114.5 115.5t55.5 152.5t14.5 167.5q0 1 -2 5t-12.5 18.5
t-34 44.5t-66 83t-108.5 134t-161.5 197.5t-224.5 272.5t-299 361l13 -1079l-209 -8l-19 1430l211 10l895 -1108l-16 1093l223 -16l12 -1374h-4v-182z" />
    <glyph glyph-name="eng" unicode="&#x14b;" horiz-adv-x="1266" 
d="M174 -74q-6 172 -11 311.5t-9 249.5t-6.5 194t-4.5 145q-4 143 -6 212l228 4l4 -288q33 57 75 107.5t91 89.5t104.5 63t116.5 28q76 5 132.5 -13t96.5 -50t66 -75.5t41 -90t21.5 -92.5t8.5 -84q6 -169 2.5 -338.5t-6.5 -351.5q-1 -53 -9 -113.5t-29 -120t-57.5 -114.5
t-95 -97t-142 -66.5t-197.5 -23.5l12 226q66 -7 114.5 8t83 43t56.5 64t35 71.5t18 66t6 46.5q11 161 13 322t0 325q0 18 -3 46.5t-11.5 60.5t-23.5 63.5t-38.5 55t-58 35.5t-80.5 5q-79 -12 -160.5 -115.5t-175.5 -302.5q4 -161 6.5 -256.5t4.5 -144.5q2 -58 3 -78z" />
    <glyph glyph-name="Omacron" unicode="&#x14c;" horiz-adv-x="1677" 
d="M1595 707q0 -107 -27 -205.5t-76.5 -184.5t-118.5 -157t-153.5 -121.5t-181 -78.5t-200.5 -28q-105 0 -201.5 28t-180.5 78.5t-153 121.5t-118 157t-76 184.5t-27 205.5t27 206t76 185t118 156.5t153 121t181 78t201 27.5t200.5 -27.5t181 -78t153.5 -121t118.5 -156.5
t76.5 -185t27 -206zM1397 707q0 79 -20 152.5t-56.5 137.5t-87.5 116.5t-113 90t-133.5 58t-148.5 20.5q-116 0 -217 -45.5t-177 -123.5t-119.5 -182.5t-43.5 -223.5t43.5 -224t119.5 -183t177 -123.5t217 -45.5q77 0 148.5 20.5t133.5 58t113 90t87.5 116.5t56.5 137.5
t20 153.5zM1235 1788l-7 -209l-786 -4v202z" />
    <glyph glyph-name="omacron" unicode="&#x14d;" horiz-adv-x="1225" 
d="M1149 485q0 -126 -42 -233t-115 -186t-171 -123.5t-209 -44.5t-208 42t-169.5 119.5t-114.5 185.5t-42 240q0 133 42 241.5t114.5 185.5t169.5 119t208 42t209 -44.5t171 -123t115 -186t42 -234.5zM938 487q0 72 -18 145.5t-57 132t-101 95.5t-150 37q-85 0 -146 -37
t-100 -95.5t-57 -132t-18 -145.5t19.5 -145t59.5 -131.5t100.5 -95.5t141.5 -37q85 0 146.5 37t101.5 95.5t59 131.5t19 145zM1008 1390l-7 -209l-786 -4v202z" />
    <glyph glyph-name="Obreve" unicode="&#x14e;" horiz-adv-x="1677" 
d="M1595 707q0 -107 -27 -205.5t-76.5 -184.5t-118.5 -157t-153.5 -121.5t-181 -78.5t-200.5 -28q-105 0 -201.5 28t-180.5 78.5t-153 121.5t-118 157t-76 184.5t-27 205.5t27 206t76 185t118 156.5t153 121t181 78t201 27.5t200.5 -27.5t181 -78t153.5 -121t118.5 -156.5
t76.5 -185t27 -206zM1397 707q0 79 -20 152.5t-56.5 137.5t-87.5 116.5t-113 90t-133.5 58t-148.5 20.5q-116 0 -217 -45.5t-177 -123.5t-119.5 -182.5t-43.5 -223.5t43.5 -224t119.5 -183t177 -123.5t217 -45.5q77 0 148.5 20.5t133.5 58t113 90t87.5 116.5t56.5 137.5
t20 153.5zM1174 1944q1 -69 -13 -122t-37 -93t-53 -67.5t-61 -45.5q-73 -43 -166 -51q-95 2 -171 41q-32 16 -63 42t-55.5 64.5t-40 91.5t-16.5 123l178 11q0 -42 7.5 -73t19 -53.5t26 -37t29.5 -23.5q35 -21 80 -20q44 6 77 32q14 11 27 27t22 39.5t13 54t0 70.5z" />
    <glyph glyph-name="obreve" unicode="&#x14f;" horiz-adv-x="1225" 
d="M1149 485q0 -126 -42 -233t-115 -186t-171 -123.5t-209 -44.5t-208 42t-169.5 119.5t-114.5 185.5t-42 240q0 133 42 241.5t114.5 185.5t169.5 119t208 42t209 -44.5t171 -123t115 -186t42 -234.5zM938 487q0 72 -18 145.5t-57 132t-101 95.5t-150 37q-85 0 -146 -37
t-100 -95.5t-57 -132t-18 -145.5t19.5 -145t59.5 -131.5t100.5 -95.5t141.5 -37q85 0 146.5 37t101.5 95.5t59 131.5t19 145zM948 1552q1 -69 -13 -122t-37 -93t-53 -67.5t-61 -45.5q-73 -43 -166 -51q-95 2 -171 41q-32 16 -63 42t-55.5 64.5t-40 91.5t-16.5 123l178 11
q0 -42 7.5 -73t19 -53.5t26 -37t29.5 -23.5q35 -21 80 -20q44 6 77 32q14 11 27 27t22 39.5t13 54t0 70.5z" />
    <glyph glyph-name="Ohungarumlaut" unicode="&#x150;" horiz-adv-x="1677" 
d="M1595 707q0 -107 -27 -205.5t-76.5 -184.5t-118.5 -157t-153.5 -121.5t-181 -78.5t-200.5 -28q-105 0 -201.5 28t-180.5 78.5t-153 121.5t-118 157t-76 184.5t-27 205.5t27 206t76 185t118 156.5t153 121t181 78t201 27.5t200.5 -27.5t181 -78t153.5 -121t118.5 -156.5
t76.5 -185t27 -206zM1397 707q0 79 -20 152.5t-56.5 137.5t-87.5 116.5t-113 90t-133.5 58t-148.5 20.5q-116 0 -217 -45.5t-177 -123.5t-119.5 -182.5t-43.5 -223.5t43.5 -224t119.5 -183t177 -123.5t217 -45.5q77 0 148.5 20.5t133.5 58t113 90t87.5 116.5t56.5 137.5
t20 153.5zM1532 1934l-408 -381l-127 72l297 436zM1091 1958l-356 -405l-127 72l262 460z" />
    <glyph glyph-name="ohungarumlaut" unicode="&#x151;" horiz-adv-x="1225" 
d="M1149 485q0 -126 -42 -233t-115 -186t-171 -123.5t-209 -44.5t-208 42t-169.5 119.5t-114.5 185.5t-42 240q0 133 42 241.5t114.5 185.5t169.5 119t208 42t209 -44.5t171 -123t115 -186t42 -234.5zM938 487q0 72 -18 145.5t-57 132t-101 95.5t-150 37q-85 0 -146 -37
t-100 -95.5t-57 -132t-18 -145.5t19.5 -145t59.5 -131.5t100.5 -95.5t141.5 -37q85 0 146.5 37t101.5 95.5t59 131.5t19 145zM1262 1511l-408 -381l-127 72l297 436zM821 1535l-356 -405l-127 72l262 460z" />
    <glyph glyph-name="OE" unicode="&#x152;" horiz-adv-x="2570" 
d="M2198 539l-594 -29l4 -313l864 49l4 -197l-1057 -57l-4 215q-52 -63 -116.5 -114t-138 -86.5t-154.5 -55t-168 -19.5q-105 0 -201.5 28t-180.5 78.5t-153 121.5t-118 157t-76 184.5t-27 205.5t27 206t76 185t118 156.5t153 121t181 78t201 27.5q83 0 161.5 -18t150 -51
t134.5 -80.5t115 -106.5l-2 192l1085 17l-6 -191l-883 -14l6 -522l594 24zM1397 707q0 79 -20 152.5t-56.5 137.5t-87.5 116.5t-113 90t-133.5 58t-148.5 20.5q-116 0 -217 -45.5t-177 -123.5t-119.5 -182.5t-43.5 -223.5t43.5 -224t119.5 -183t177 -123.5t217 -45.5
q77 0 148.5 20.5t133.5 58t113 90t87.5 116.5t56.5 137.5t20 153.5z" />
    <glyph glyph-name="oe" unicode="&#x153;" horiz-adv-x="2097" 
d="M612 1073q71 0 136.5 -18t123.5 -52t106 -82t83 -108q37 55 85.5 100t105.5 76.5t121.5 48.5t133.5 17q105 0 197 -40.5t163 -112t117 -168.5t58 -210l-866 -129q7 -71 35 -134t71.5 -109.5t100.5 -73.5t124 -27q53 0 105 16.5t96.5 48t77 78.5t47.5 109l192 -39
q-27 -90 -78 -164.5t-119 -127.5t-150 -82t-171 -29q-111 0 -210 44.5t-177 129.5q-43 47 -76 98q-36 -54 -83 -97t-102 -74t-117.5 -47.5t-129.5 -16.5q-111 0 -208 42t-169.5 119.5t-114.5 185.5t-42 240q0 133 42 241.5t114.5 185.5t169.5 119t208 42zM946 485
q0 75 -18 148.5t-58 132t-103.5 95t-154.5 36.5q-88 0 -151 -36.5t-103 -95t-58.5 -132t-18.5 -148.5q0 -74 20.5 -147t61.5 -131t103 -94.5t146 -36.5q87 0 150 36.5t104 94.5t60.5 131t19.5 147zM1507 883q-41 0 -91.5 -14.5t-97 -49.5t-84 -93.5t-52.5 -145.5l602 73
l-6 19q-39 99 -105.5 155t-165.5 56z" />
    <glyph glyph-name="Racute" unicode="&#x154;" horiz-adv-x="1462" 
d="M1378 899q-3 -77 -31 -141t-74 -115.5t-107 -92t-130 -69.5l291 -458l-207 -68l-280 467q-48 -9 -99.5 -15t-113.5 -6q-50 0 -109.5 4.5t-124.5 16.5l4 -424l-211 -8v1415q86 26 172 39t157 20q82 7 159 9q65 0 144 -9t158.5 -32t154 -64t131 -104.5t88.5 -153.5t28 -211
zM674 1272q-46 0 -95 -4q-42 -3 -93 -8.5t-99 -16.5l4 -637q47 -9 94.5 -12.5t92.5 -3.5q120 0 227.5 27.5t188.5 75.5t129 113.5t48 141.5q0 77 -36.5 137t-102.5 101.5t-157.5 63.5t-200.5 22zM1051 1833l-252 -303l-127 72l178 342z" />
    <glyph glyph-name="racute" unicode="&#x155;" horiz-adv-x="1116" 
d="M899 563q-1 49 -8.5 85t-19 62t-26 43t-29.5 28q-35 25 -79 24q-28 -4 -59.5 -23.5t-64.5 -50t-66.5 -69t-64.5 -79t-59 -80.5t-50 -73q1 -75 3 -147.5t3.5 -135t4 -113t5.5 -81.5l-215 -27q-6 172 -11 311.5t-9 249.5t-6.5 194t-4.5 145q-4 143 -6 212l228 4
q1 -61 1.5 -124.5t1.5 -116.5q1 -62 1 -121q29 46 70.5 101t94 104t115 85.5t133.5 45.5q80 4 146 -34q28 -16 55.5 -42.5t51 -68t39.5 -99t22 -135.5zM891 1435l-252 -303l-127 72l178 342z" />
    <glyph glyph-name="Rcommaaccent" unicode="&#x156;" horiz-adv-x="1462" 
d="M1378 899q-3 -77 -31 -141t-74 -115.5t-107 -92t-130 -69.5l291 -458l-207 -68l-280 467q-48 -9 -99.5 -15t-113.5 -6q-50 0 -109.5 4.5t-124.5 16.5l4 -424l-211 -8v1415q86 26 172 39t157 20q82 7 159 9q65 0 144 -9t158.5 -32t154 -64t131 -104.5t88.5 -153.5t28 -211
zM674 1272q-46 0 -95 -4q-42 -3 -93 -8.5t-99 -16.5l4 -637q47 -9 94.5 -12.5t92.5 -3.5q120 0 227.5 27.5t188.5 75.5t129 113.5t48 141.5q0 77 -36.5 137t-102.5 101.5t-157.5 63.5t-200.5 22zM835 -156q-2 -45 -15 -91q-11 -39 -34.5 -86t-68.5 -89l-91 33q13 15 24 36
q10 18 19.5 45t16.5 62q-25 14 -40 37.5t-15 52.5q0 22 8 40.5t22 32.5t32.5 22t39.5 8q43 0 72.5 -29.5t29.5 -73.5z" />
    <glyph glyph-name="rcommaaccent" unicode="&#x157;" horiz-adv-x="1116" 
d="M899 563q-1 49 -8.5 85t-19 62t-26 43t-29.5 28q-35 25 -79 24q-28 -4 -59.5 -23.5t-64.5 -50t-66.5 -69t-64.5 -79t-59 -80.5t-50 -73q1 -75 3 -147.5t3.5 -135t4 -113t5.5 -81.5l-215 -27q-6 172 -11 311.5t-9 249.5t-6.5 194t-4.5 145q-4 143 -6 212l228 4
q1 -61 1.5 -124.5t1.5 -116.5q1 -62 1 -121q29 46 70.5 101t94 104t115 85.5t133.5 45.5q80 4 146 -34q28 -16 55.5 -42.5t51 -68t39.5 -99t22 -135.5zM415 -248q-2 -45 -15 -91q-11 -39 -34.5 -86t-68.5 -89l-91 33q13 15 24 36q10 18 19.5 45t16.5 62q-25 14 -40 37.5
t-15 52.5q0 22 8 40.5t22 32.5t32.5 22t39.5 8q43 0 72.5 -29.5t29.5 -73.5z" />
    <glyph glyph-name="Rcaron" unicode="&#x158;" horiz-adv-x="1462" 
d="M1378 899q-3 -77 -31 -141t-74 -115.5t-107 -92t-130 -69.5l291 -458l-207 -68l-280 467q-48 -9 -99.5 -15t-113.5 -6q-50 0 -109.5 4.5t-124.5 16.5l4 -424l-211 -8v1415q86 26 172 39t157 20q82 7 159 9q65 0 144 -9t158.5 -32t154 -64t131 -104.5t88.5 -153.5t28 -211
zM674 1272q-46 0 -95 -4q-42 -3 -93 -8.5t-99 -16.5l4 -637q47 -9 94.5 -12.5t92.5 -3.5q120 0 227.5 27.5t188.5 75.5t129 113.5t48 141.5q0 77 -36.5 137t-102.5 101.5t-157.5 63.5t-200.5 22zM1056 1835l-344 -291l-309 334l139 112l191 -223l202 182z" />
    <glyph glyph-name="rcaron" unicode="&#x159;" horiz-adv-x="1116" 
d="M899 563q-1 49 -8.5 85t-19 62t-26 43t-29.5 28q-35 25 -79 24q-28 -4 -59.5 -23.5t-64.5 -50t-66.5 -69t-64.5 -79t-59 -80.5t-50 -73q1 -75 3 -147.5t3.5 -135t4 -113t5.5 -81.5l-215 -27q-6 172 -11 311.5t-9 249.5t-6.5 194t-4.5 145q-4 143 -6 212l228 4
q1 -61 1.5 -124.5t1.5 -116.5q1 -62 1 -121q29 46 70.5 101t94 104t115 85.5t133.5 45.5q80 4 146 -34q28 -16 55.5 -42.5t51 -68t39.5 -99t22 -135.5zM942 1359l-344 -291l-309 334l139 112l191 -223l202 182z" />
    <glyph glyph-name="Sacute" unicode="&#x15a;" horiz-adv-x="1321" 
d="M1247 236q-10 -70 -39.5 -124.5t-73.5 -94.5t-98.5 -67.5t-114 -44.5t-120.5 -24.5t-117 -7.5q-77 0 -152 16.5t-147.5 46t-143 70.5t-139.5 90l146 172q78 -69 154.5 -108.5t137.5 -59.5q71 -24 136 -32q72 -4 134 11t108.5 43.5t74.5 68t33 83.5q3 37 -13 67.5t-47 56
t-73 45t-89.5 35t-98 27t-97.5 19.5q-57 10 -120 26.5t-124 43.5t-115 67t-93.5 96.5t-60 131.5t-13.5 172q6 80 33.5 144.5t71 115.5t100 87.5t120.5 60.5t132.5 34.5t136.5 9.5q94 -5 189 -29q40 -10 84.5 -25.5t89.5 -37t89 -51t84 -67.5l-112 -177q-32 36 -68 63
t-72.5 47t-72.5 34t-68 23q-77 21 -151 24q-91 0 -162 -27.5t-119.5 -71t-74 -97t-25.5 -105.5q0 -51 30.5 -99t84.5 -87t127 -66.5t157 -38.5q73 -8 145.5 -26t138.5 -46t121.5 -67.5t93.5 -91t55.5 -116t6.5 -142.5zM850 1894l-252 -303l-127 72l178 342z" />
    <glyph glyph-name="sacute" unicode="&#x15b;" horiz-adv-x="1135" 
d="M1065 219q0 -95 -38.5 -159.5t-103 -105t-148 -60t-173.5 -23.5q-92 1 -186 19q-40 7 -84.5 19.5t-90.5 30.5t-92 43t-88 58l97 152q55 -29 112.5 -56t117.5 -47.5t123 -32.5t130 -12q55 0 93 10.5t62.5 26t38 35t19.5 37.5q5 16 4 35.5t-10.5 39.5t-29 39.5t-51.5 35
t-78 25.5t-109 13q-90 4 -173.5 18.5t-149 45.5t-108 81.5t-51.5 126.5q-7 72 9.5 131.5t50 106.5t82.5 82.5t107 59t122.5 35t130.5 11.5q39 0 92 -4t111 -16t117 -34.5t110 -59.5l-69 -183q-66 35 -125.5 54.5t-105.5 30.5q-54 12 -101 16q-157 9 -244.5 -33t-87.5 -127
q0 -60 33 -87.5t90 -39.5t133 -16t162 -17q98 -15 165 -45t108 -70t59 -88.5t18 -101.5zM866 1449l-252 -303l-127 72l178 342z" />
    <glyph glyph-name="Scircumflex" unicode="&#x15c;" horiz-adv-x="1321" 
d="M1247 236q-10 -70 -39.5 -124.5t-73.5 -94.5t-98.5 -67.5t-114 -44.5t-120.5 -24.5t-117 -7.5q-77 0 -152 16.5t-147.5 46t-143 70.5t-139.5 90l146 172q78 -69 154.5 -108.5t137.5 -59.5q71 -24 136 -32q72 -4 134 11t108.5 43.5t74.5 68t33 83.5q3 37 -13 67.5t-47 56
t-73 45t-89.5 35t-98 27t-97.5 19.5q-57 10 -120 26.5t-124 43.5t-115 67t-93.5 96.5t-60 131.5t-13.5 172q6 80 33.5 144.5t71 115.5t100 87.5t120.5 60.5t132.5 34.5t136.5 9.5q94 -5 189 -29q40 -10 84.5 -25.5t89.5 -37t89 -51t84 -67.5l-112 -177q-32 36 -68 63
t-72.5 47t-72.5 34t-68 23q-77 21 -151 24q-91 0 -162 -27.5t-119.5 -71t-74 -97t-25.5 -105.5q0 -51 30.5 -99t84.5 -87t127 -66.5t157 -38.5q73 -8 145.5 -26t138.5 -46t121.5 -67.5t93.5 -91t55.5 -116t6.5 -142.5zM992 1714l-111 -127l-227 199l-185 -209l-139 88
l313 338z" />
    <glyph glyph-name="scircumflex" unicode="&#x15d;" horiz-adv-x="1135" 
d="M1065 219q0 -95 -38.5 -159.5t-103 -105t-148 -60t-173.5 -23.5q-92 1 -186 19q-40 7 -84.5 19.5t-90.5 30.5t-92 43t-88 58l97 152q55 -29 112.5 -56t117.5 -47.5t123 -32.5t130 -12q55 0 93 10.5t62.5 26t38 35t19.5 37.5q5 16 4 35.5t-10.5 39.5t-29 39.5t-51.5 35
t-78 25.5t-109 13q-90 4 -173.5 18.5t-149 45.5t-108 81.5t-51.5 126.5q-7 72 9.5 131.5t50 106.5t82.5 82.5t107 59t122.5 35t130.5 11.5q39 0 92 -4t111 -16t117 -34.5t110 -59.5l-69 -183q-66 35 -125.5 54.5t-105.5 30.5q-54 12 -101 16q-157 9 -244.5 -33t-87.5 -127
q0 -60 33 -87.5t90 -39.5t133 -16t162 -17q98 -15 165 -45t108 -70t59 -88.5t18 -101.5zM898 1225l-111 -127l-227 199l-185 -209l-139 88l313 338z" />
    <glyph glyph-name="Scedilla" unicode="&#x15e;" horiz-adv-x="1321" 
d="M881 -422q-9 -51 -33.5 -85.5t-58 -55.5t-73.5 -30t-79 -9q-66 0 -121.5 23.5t-114.5 60.5l58 129q34 -29 66.5 -44.5t58.5 -23.5q30 -9 57 -10q40 0 63 26t23 60q0 41 -27.5 66.5t-66.5 38.5t-82.5 15.5t-75.5 -1.5l68 149q-116 23 -225.5 78.5t-215.5 130.5l146 172
q78 -69 154.5 -108.5t137.5 -59.5q71 -24 136 -32q72 -4 134 11t108.5 43.5t74.5 68t33 83.5q3 37 -13 67.5t-47 56t-73 45t-89.5 35t-98 27t-97.5 19.5q-57 10 -120 26.5t-124 43.5t-115 67t-93.5 96.5t-60 131.5t-13.5 172q6 80 33.5 144.5t71 115.5t100 87.5t120.5 60.5
t132.5 34.5t136.5 9.5q94 -5 189 -29q40 -10 84.5 -25.5t89.5 -37t89 -51t84 -67.5l-112 -177q-32 36 -68 63t-72.5 47t-72.5 34t-68 23q-77 21 -151 24q-91 0 -162 -27.5t-119.5 -71t-74 -97t-25.5 -105.5q0 -51 30.5 -99t84.5 -87t127 -66.5t157 -38.5q73 -8 145.5 -26
t138.5 -46t121.5 -67.5t93.5 -91t55.5 -116t6.5 -142.5q-10 -70 -39.5 -124.5t-73.5 -94.5t-98.5 -67.5t-114 -44.5t-120.5 -24.5t-117 -7.5q-8 0 -15.5 1t-15.5 1l-14 -41q52 -3 90 -15.5t65 -31t44 -41.5t27 -46q23 -55 16 -122z" />
    <glyph glyph-name="scedilla" unicode="&#x15f;" horiz-adv-x="1135" 
d="M788 -422q-8 -51 -32.5 -85.5t-58.5 -55.5t-73.5 -30t-78.5 -9q-66 0 -121.5 23.5t-114.5 60.5l58 129q34 -29 66.5 -44.5t58.5 -23.5q30 -9 57 -10q40 0 63 26t23 60q0 41 -27.5 66.5t-66.5 38.5t-82.5 15.5t-75.5 -1.5l66 147q-42 6 -90 18t-98.5 30.5t-101.5 45
t-98 62.5l97 152q55 -29 112.5 -56t117.5 -47.5t123 -32.5t130 -12q55 0 93 10.5t62.5 26t38 35t19.5 37.5q5 16 4 35.5t-10.5 39.5t-29 39.5t-51.5 35t-78 25.5t-109 13q-90 4 -173.5 18.5t-149 45.5t-108 81.5t-51.5 126.5q-7 72 9.5 131.5t50 106.5t82.5 82.5t107 59
t122.5 35t130.5 11.5q39 0 92 -4t111 -16t117 -34.5t110 -59.5l-69 -183q-66 35 -125.5 54.5t-105.5 30.5q-54 12 -101 16q-157 9 -244.5 -33t-87.5 -127q0 -60 33 -87.5t90 -39.5t133 -16t162 -17q98 -15 165 -45t108 -70t59 -88.5t18 -101.5q0 -95 -38.5 -159.5t-103 -105
t-148 -60t-173.5 -23.5h-11q-5 0 -13.5 0.5t-18.5 1.5l-12 -39q52 -3 90 -15.5t65 -31t43.5 -41.5t26.5 -46q22 -55 16 -122z" />
    <glyph glyph-name="Scaron" unicode="&#x160;" horiz-adv-x="1321" 
d="M1247 236q-10 -70 -39.5 -124.5t-73.5 -94.5t-98.5 -67.5t-114 -44.5t-120.5 -24.5t-117 -7.5q-77 0 -152 16.5t-147.5 46t-143 70.5t-139.5 90l146 172q78 -69 154.5 -108.5t137.5 -59.5q71 -24 136 -32q72 -4 134 11t108.5 43.5t74.5 68t33 83.5q3 37 -13 67.5t-47 56
t-73 45t-89.5 35t-98 27t-97.5 19.5q-57 10 -120 26.5t-124 43.5t-115 67t-93.5 96.5t-60 131.5t-13.5 172q6 80 33.5 144.5t71 115.5t100 87.5t120.5 60.5t132.5 34.5t136.5 9.5q94 -5 189 -29q40 -10 84.5 -25.5t89.5 -37t89 -51t84 -67.5l-112 -177q-32 36 -68 63
t-72.5 47t-72.5 34t-68 23q-77 21 -151 24q-91 0 -162 -27.5t-119.5 -71t-74 -97t-25.5 -105.5q0 -51 30.5 -99t84.5 -87t127 -66.5t157 -38.5q73 -8 145.5 -26t138.5 -46t121.5 -67.5t93.5 -91t55.5 -116t6.5 -142.5zM1001 1852l-344 -291l-309 334l139 112l191 -223
l202 182z" />
    <glyph glyph-name="scaron" unicode="&#x161;" horiz-adv-x="1135" 
d="M1065 219q0 -95 -38.5 -159.5t-103 -105t-148 -60t-173.5 -23.5q-92 1 -186 19q-40 7 -84.5 19.5t-90.5 30.5t-92 43t-88 58l97 152q55 -29 112.5 -56t117.5 -47.5t123 -32.5t130 -12q55 0 93 10.5t62.5 26t38 35t19.5 37.5q5 16 4 35.5t-10.5 39.5t-29 39.5t-51.5 35
t-78 25.5t-109 13q-90 4 -173.5 18.5t-149 45.5t-108 81.5t-51.5 126.5q-7 72 9.5 131.5t50 106.5t82.5 82.5t107 59t122.5 35t130.5 11.5q39 0 92 -4t111 -16t117 -34.5t110 -59.5l-69 -183q-66 35 -125.5 54.5t-105.5 30.5q-54 12 -101 16q-157 9 -244.5 -33t-87.5 -127
q0 -60 33 -87.5t90 -39.5t133 -16t162 -17q98 -15 165 -45t108 -70t59 -88.5t18 -101.5zM895 1394l-344 -291l-309 334l139 112l191 -223l202 182z" />
    <glyph glyph-name="Tcommaaccent" unicode="&#x162;" horiz-adv-x="1233" 
d="M1196 1444l-4 -191l-467 -18l14 -1262l-221 -4v1258l-473 -19l-4 211zM721 -248q-2 -45 -15 -91q-11 -39 -34.5 -86t-68.5 -89l-91 33q13 15 24 36q10 18 19.5 45t16.5 62q-25 14 -40 37.5t-15 52.5q0 22 8 40.5t22 32.5t32.5 22t39.5 8q43 0 72.5 -29.5t29.5 -73.5z" />
    <glyph glyph-name="tcommaaccent" unicode="&#x163;" horiz-adv-x="971" 
d="M580 1440l-7 -447l388 13l-15 -187l-375 -10l-8 -872l-211 -5l17 871l-346 -8l4 184l346 10l8 438zM544 -248q-2 -45 -15 -91q-11 -39 -34.5 -86t-68.5 -89l-91 33q13 15 24 36q10 18 19.5 45t16.5 62q-25 14 -40 37.5t-15 52.5q0 22 8 40.5t22 32.5t32.5 22t39.5 8
q43 0 72.5 -29.5t29.5 -73.5z" />
    <glyph glyph-name="Tcaron" unicode="&#x164;" horiz-adv-x="1233" 
d="M1196 1444l-4 -191l-467 -18l14 -1262l-221 -4v1258l-473 -19l-4 211zM942 1835l-344 -291l-309 334l139 112l191 -223l202 182z" />
    <glyph glyph-name="tcaron" unicode="&#x165;" horiz-adv-x="1233" 
d="M580 1440l-7 -447l388 13l-15 -187l-375 -10l-8 -872l-211 -5l17 871l-346 -8l4 184l346 10l8 438zM1207 1415q-2 -45 -15 -91q-11 -39 -35 -86t-69 -89l-90 33q12 15 23 36q10 18 20 45t16 62q-25 12 -40 36.5t-15 53.5q0 22 8 40.5t22 32.5t32.5 22t39.5 8t40 -8
t33 -22t22 -32.5t8 -40.5z" />
    <glyph glyph-name="Tbar" unicode="&#x166;" horiz-adv-x="1233" 
d="M1026 618h-295l8 -645l-221 -4v649h-313v211h313v398l-473 -19l-4 211l1155 25l-4 -191l-467 -18l4 -406h297v-211z" />
    <glyph glyph-name="tbar" unicode="&#x167;" horiz-adv-x="971" 
d="M883 403h-316l-4 -466l-211 -5l8 471h-299v211h304l4 189l-346 -8l4 184l346 10l8 438l199 13l-7 -447l388 13l-15 -187l-375 -10l-2 -195h314v-211z" />
    <glyph glyph-name="Utilde" unicode="&#x168;" horiz-adv-x="1427" 
d="M1290 686q1 -93 -13.5 -183.5t-46.5 -172t-81.5 -150t-117 -119t-154 -78.5t-191.5 -28q-106 0 -186 33.5t-139.5 91t-100 132.5t-65 158t-36.5 168.5t-14 163.5q-2 99 4 217q5 101 18.5 235t41.5 286l217 -31q-23 -99 -37 -191t-22 -173t-10.5 -148t-2.5 -115
q0 -56 4.5 -125t18 -140.5t38 -139t64.5 -120t98 -84.5t138 -32q83 0 150 38t114 109t71.5 172t22.5 226q-2 100 -12 216q-8 100 -25 229t-47 274l213 29q32 -165 49 -301.5t26 -236.5q10 -116 13 -210zM1116 1893q3 -23 5.5 -44.5t2.5 -41.5q0 -56 -18 -108.5t-52 -93.5
t-83 -66t-111 -25q-43 0 -75.5 12.5t-58 32t-46 41.5t-39.5 41t-38 31.5t-42 11.5q-25 -3 -44 -21q-17 -15 -31.5 -47.5t-16.5 -91.5l-168 29q5 51 16.5 92t27 72.5t33.5 55t36 40.5q42 39 92 55q56 13 98 3.5t74.5 -31t57.5 -49.5t47 -52t43.5 -39t45.5 -10q22 5 40 21
q15 14 27.5 38.5t12.5 67.5q0 16 -1.5 34t-6.5 38z" />
    <glyph glyph-name="utilde" unicode="&#x169;" horiz-adv-x="1280" 
d="M915 -72l-4 287q-33 -59 -75 -111.5t-91 -92t-104.5 -62.5t-116.5 -21q-90 3 -154.5 34t-108.5 82.5t-70.5 119t-40.5 142.5t-18.5 153.5t-4.5 152.5q0 104 9 210.5t26 217.5l205 -6q-16 -124 -21.5 -223t-5.5 -174q0 -34 1 -86t7.5 -110.5t20.5 -115.5t39.5 -101.5
t64.5 -68.5t96 -16q77 11 160.5 106t175.5 292q-3 159 -5.5 254t-3.5 145q-2 59 -3 82l215 24q6 -172 10.5 -310.5t8.5 -249t6.5 -194t4.5 -144.5q4 -143 5 -212zM1042 1519q3 -23 5.5 -44.5t2.5 -41.5q0 -56 -18 -108.5t-52 -93.5t-83 -66t-111 -25q-43 0 -75.5 12.5
t-58 32t-46 41.5t-39.5 41t-38 31.5t-42 11.5q-25 -3 -44 -21q-17 -15 -31.5 -47.5t-16.5 -91.5l-168 29q5 51 16.5 92t27 72.5t33.5 55t36 40.5q42 39 92 55q56 13 98 3.5t74.5 -31t57.5 -49.5t47 -52t43.5 -39t45.5 -10q22 5 40 21q15 14 27.5 38.5t12.5 67.5
q0 16 -1.5 34t-6.5 38z" />
    <glyph glyph-name="Umacron" unicode="&#x16a;" horiz-adv-x="1427" 
d="M1290 686q1 -93 -13.5 -183.5t-46.5 -172t-81.5 -150t-117 -119t-154 -78.5t-191.5 -28q-106 0 -186 33.5t-139.5 91t-100 132.5t-65 158t-36.5 168.5t-14 163.5q-2 99 4 217q5 101 18.5 235t41.5 286l217 -31q-23 -99 -37 -191t-22 -173t-10.5 -148t-2.5 -115
q0 -56 4.5 -125t18 -140.5t38 -139t64.5 -120t98 -84.5t138 -32q83 0 150 38t114 109t71.5 172t22.5 226q-2 100 -12 216q-8 100 -25 229t-47 274l213 29q32 -165 49 -301.5t26 -236.5q10 -116 13 -210zM1110 1760l-7 -209l-786 -4v202z" />
    <glyph glyph-name="umacron" unicode="&#x16b;" horiz-adv-x="1280" 
d="M915 -72l-4 287q-33 -59 -75 -111.5t-91 -92t-104.5 -62.5t-116.5 -21q-90 3 -154.5 34t-108.5 82.5t-70.5 119t-40.5 142.5t-18.5 153.5t-4.5 152.5q0 104 9 210.5t26 217.5l205 -6q-16 -124 -21.5 -223t-5.5 -174q0 -34 1 -86t7.5 -110.5t20.5 -115.5t39.5 -101.5
t64.5 -68.5t96 -16q77 11 160.5 106t175.5 292q-3 159 -5.5 254t-3.5 145q-2 59 -3 82l215 24q6 -172 10.5 -310.5t8.5 -249t6.5 -194t4.5 -144.5q4 -143 5 -212zM1037 1378l-7 -209l-786 -4v202z" />
    <glyph glyph-name="Ubreve" unicode="&#x16c;" horiz-adv-x="1427" 
d="M1290 686q1 -93 -13.5 -183.5t-46.5 -172t-81.5 -150t-117 -119t-154 -78.5t-191.5 -28q-106 0 -186 33.5t-139.5 91t-100 132.5t-65 158t-36.5 168.5t-14 163.5q-2 99 4 217q5 101 18.5 235t41.5 286l217 -31q-23 -99 -37 -191t-22 -173t-10.5 -148t-2.5 -115
q0 -56 4.5 -125t18 -140.5t38 -139t64.5 -120t98 -84.5t138 -32q83 0 150 38t114 109t71.5 172t22.5 226q-2 100 -12 216q-8 100 -25 229t-47 274l213 29q32 -165 49 -301.5t26 -236.5q10 -116 13 -210zM1049 1886q1 -69 -13 -122t-37 -93t-53 -67.5t-61 -45.5
q-73 -43 -166 -51q-95 2 -171 41q-32 16 -63 42t-55.5 64.5t-40 91.5t-16.5 123l178 11q0 -42 7.5 -73t19 -53.5t26 -37t29.5 -23.5q35 -21 80 -20q44 6 77 32q14 11 27 27t22 39.5t13 54t0 70.5z" />
    <glyph glyph-name="ubreve" unicode="&#x16d;" horiz-adv-x="1280" 
d="M915 -72l-4 287q-33 -59 -75 -111.5t-91 -92t-104.5 -62.5t-116.5 -21q-90 3 -154.5 34t-108.5 82.5t-70.5 119t-40.5 142.5t-18.5 153.5t-4.5 152.5q0 104 9 210.5t26 217.5l205 -6q-16 -124 -21.5 -223t-5.5 -174q0 -34 1 -86t7.5 -110.5t20.5 -115.5t39.5 -101.5
t64.5 -68.5t96 -16q77 11 160.5 106t175.5 292q-3 159 -5.5 254t-3.5 145q-2 59 -3 82l215 24q6 -172 10.5 -310.5t8.5 -249t6.5 -194t4.5 -144.5q4 -143 5 -212zM975 1511q1 -69 -13 -122t-37 -93t-53 -67.5t-61 -45.5q-73 -43 -166 -51q-95 2 -171 41q-32 16 -63 42
t-55.5 64.5t-40 91.5t-16.5 123l178 11q0 -42 7.5 -73t19 -53.5t26 -37t29.5 -23.5q35 -21 80 -20q44 6 77 32q14 11 27 27t22 39.5t13 54t0 70.5z" />
    <glyph glyph-name="Uring" unicode="&#x16e;" horiz-adv-x="1427" 
d="M1290 686q1 -93 -13.5 -183.5t-46.5 -172t-81.5 -150t-117 -119t-154 -78.5t-191.5 -28q-106 0 -186 33.5t-139.5 91t-100 132.5t-65 158t-36.5 168.5t-14 163.5q-2 99 4 217q5 101 18.5 235t41.5 286l217 -31q-23 -99 -37 -191t-22 -173t-10.5 -148t-2.5 -115
q0 -56 4.5 -125t18 -140.5t38 -139t64.5 -120t98 -84.5t138 -32q83 0 150 38t114 109t71.5 172t22.5 226q-2 100 -12 216q-8 100 -25 229t-47 274l213 29q32 -165 49 -301.5t26 -236.5q10 -116 13 -210zM978 1704q0 -54 -21 -102.5t-57 -85t-84.5 -57.5t-103.5 -21
t-103.5 21t-84.5 57.5t-57 85t-21 102.5q0 55 21 104t57 86t84.5 58t103.5 21t103.5 -21t84.5 -58t57 -86t21 -104zM829 1698q0 25 -9 46t-25 37t-37 25t-46 9q-24 0 -46 -9t-38 -25t-25.5 -37t-9.5 -46q0 -24 9.5 -46t25.5 -38t38 -25.5t46 -9.5q25 0 46 9.5t37 25.5t25 38
t9 46z" />
    <glyph glyph-name="uring" unicode="&#x16f;" horiz-adv-x="1280" 
d="M915 -72l-4 287q-33 -59 -75 -111.5t-91 -92t-104.5 -62.5t-116.5 -21q-90 3 -154.5 34t-108.5 82.5t-70.5 119t-40.5 142.5t-18.5 153.5t-4.5 152.5q0 104 9 210.5t26 217.5l205 -6q-16 -124 -21.5 -223t-5.5 -174q0 -34 1 -86t7.5 -110.5t20.5 -115.5t39.5 -101.5
t64.5 -68.5t96 -16q77 11 160.5 106t175.5 292q-3 159 -5.5 254t-3.5 145q-2 59 -3 82l215 24q6 -172 10.5 -310.5t8.5 -249t6.5 -194t4.5 -144.5q4 -143 5 -212zM905 1333q0 -54 -21 -102.5t-57 -85t-84.5 -57.5t-103.5 -21t-103.5 21t-84.5 57.5t-57 85t-21 102.5
q0 55 21 104t57 86t84.5 58t103.5 21t103.5 -21t84.5 -58t57 -86t21 -104zM756 1327q0 25 -9 46t-25 37t-37 25t-46 9q-24 0 -46 -9t-38 -25t-25.5 -37t-9.5 -46q0 -24 9.5 -46t25.5 -38t38 -25.5t46 -9.5q25 0 46 9.5t37 25.5t25 38t9 46z" />
    <glyph glyph-name="Uhungarumlaut" unicode="&#x170;" horiz-adv-x="1427" 
d="M1290 686q1 -93 -13.5 -183.5t-46.5 -172t-81.5 -150t-117 -119t-154 -78.5t-191.5 -28q-106 0 -186 33.5t-139.5 91t-100 132.5t-65 158t-36.5 168.5t-14 163.5q-2 99 4 217q5 101 18.5 235t41.5 286l217 -31q-23 -99 -37 -191t-22 -173t-10.5 -148t-2.5 -115
q0 -56 4.5 -125t18 -140.5t38 -139t64.5 -120t98 -84.5t138 -32q83 0 150 38t114 109t71.5 172t22.5 226q-2 100 -12 216q-8 100 -25 229t-47 274l213 29q32 -165 49 -301.5t26 -236.5q10 -116 13 -210zM1364 1876l-408 -381l-127 72l297 436zM923 1900l-356 -405l-127 72
l262 460z" />
    <glyph glyph-name="uhungarumlaut" unicode="&#x171;" horiz-adv-x="1280" 
d="M915 -72l-4 287q-33 -59 -75 -111.5t-91 -92t-104.5 -62.5t-116.5 -21q-90 3 -154.5 34t-108.5 82.5t-70.5 119t-40.5 142.5t-18.5 153.5t-4.5 152.5q0 104 9 210.5t26 217.5l205 -6q-16 -124 -21.5 -223t-5.5 -174q0 -34 1 -86t7.5 -110.5t20.5 -115.5t39.5 -101.5
t64.5 -68.5t96 -16q77 11 160.5 106t175.5 292q-3 159 -5.5 254t-3.5 145q-2 59 -3 82l215 24q6 -172 10.5 -310.5t8.5 -249t6.5 -194t4.5 -144.5q4 -143 5 -212zM1260 1488l-408 -381l-127 72l297 436zM819 1512l-356 -405l-127 72l262 460z" />
    <glyph glyph-name="Uogonek" unicode="&#x172;" horiz-adv-x="1427" 
d="M995 -383q-32 -38 -64 -64t-62 -42t-58.5 -22.5t-54.5 -6.5q-45 0 -86.5 15t-74 43t-52 68t-19.5 89t23 114t86 146q-95 9 -167 46.5t-125.5 95.5t-90 131.5t-59 153.5t-33.5 161.5t-13 156.5q-2 99 4 217q5 101 18.5 235t41.5 286l217 -31q-23 -99 -37 -191t-22 -173
t-10.5 -148t-2.5 -115q0 -56 4.5 -125t18 -140.5t38 -139t64.5 -120t98 -84.5t138 -32q83 0 150 38t114 109t71.5 172t22.5 226q-2 100 -12 216q-8 100 -25 229t-47 274l213 29q32 -165 49 -301.5t26 -236.5q10 -116 13 -210q1 -128 -27.5 -249.5t-90 -220t-157 -166
t-227.5 -87.5q-56 -77 -77 -132t-23 -90q-3 -41 12 -69q7 -9 17 -15q8 -6 20 -10.5t29 -4.5q26 0 61.5 18.5t81.5 69.5z" />
    <glyph glyph-name="uogonek" unicode="&#x173;" horiz-adv-x="1280" 
d="M1257 -430q-32 -38 -64 -64t-62 -42t-58.5 -22.5t-54.5 -6.5q-45 0 -86.5 15t-74 43t-52 68t-19.5 89q0 26 6 57.5t20.5 67.5t39.5 76.5t63 85.5l-4 278q-33 -59 -75 -111.5t-91 -92t-104.5 -62.5t-116.5 -21q-90 3 -154.5 34t-108.5 82.5t-70.5 119t-40.5 142.5
t-18.5 153.5t-4.5 152.5q0 104 9 210.5t26 217.5l205 -6q-16 -124 -21.5 -223t-5.5 -174q0 -34 1 -86t7.5 -110.5t20.5 -115.5t39.5 -101.5t64.5 -68.5t96 -16q77 11 160.5 106t175.5 292q-3 159 -5.5 254t-3.5 145q-2 59 -3 82l215 24q6 -172 10.5 -310.5t8.5 -249
t6.5 -194t4.5 -144.5q4 -143 5 -212q-47 -28 -79.5 -56t-54 -55t-33.5 -51.5t-17 -46.5q-12 -51 4 -98q6 -9 16 -16q8 -6 20 -10.5t29 -4.5q26 0 61.5 19t81.5 70z" />
    <glyph glyph-name="Wcircumflex" unicode="&#x174;" horiz-adv-x="1882" 
d="M1815 1458l-271 -1487l-235 6l-359 1141l-403 -1153h-207l-277 1458l211 29l181 -1147l374 1055l248 -29l330 -1087l201 1255zM1280 1579l-111 -127l-227 199l-185 -209l-139 88l313 338z" />
    <glyph glyph-name="wcircumflex" unicode="&#x175;" horiz-adv-x="1538" 
d="M1475 1010l-199 -1045l-297 -8l-176 735l-242 -700l-299 -23l-194 1037l206 16l152 -840l297 840l192 -12l203 -850l135 858zM1139 1201l-111 -127l-227 199l-185 -209l-139 88l313 338z" />
    <glyph glyph-name="Ycircumflex" unicode="&#x176;" horiz-adv-x="1298" 
d="M1255 1423l-499 -977v-479l-207 -12l16 496l-559 952l236 27l424 -768l362 768zM979 1593l-111 -127l-227 199l-185 -209l-139 88l313 338z" />
    <glyph glyph-name="ycircumflex" unicode="&#x177;" horiz-adv-x="1124" 
d="M1071 1012q-53 -156 -96.5 -285t-78.5 -233t-63 -185t-49 -142q-49 -143 -77 -220q-20 -59 -46.5 -125.5t-65 -132.5t-90 -127.5t-120 -110t-156.5 -79.5t-198 -36l-39 195q62 -8 116.5 3.5t101 36t86 59.5t72 74t57.5 79.5t44 75.5l-422 1120l229 31l295 -881
q24 74 56.5 174.5t69 216.5t75.5 242.5t76 251.5zM893 1215l-111 -127l-227 199l-185 -209l-139 88l313 338z" />
    <glyph glyph-name="Ydieresis" unicode="&#x178;" horiz-adv-x="1298" 
d="M1255 1423l-499 -977v-479l-207 -12l16 496l-559 952l236 27l424 -768l362 768zM1003 1634q0 -24 -9 -46t-25 -38t-37 -25.5t-46 -9.5q-24 0 -45.5 9.5t-37.5 25.5t-25.5 38t-9.5 46q0 25 9.5 46t25.5 37t37.5 25t45.5 9q25 0 46 -9t37 -25t25 -37t9 -46zM512 1634
q0 -24 -9.5 -46t-25.5 -38t-38 -25.5t-46 -9.5t-45.5 9.5t-37 25.5t-25 38t-9.5 46q0 25 9.5 46t25 37t37 25t45.5 9t46 -9t38 -25t25.5 -37t9.5 -46z" />
    <glyph glyph-name="Zacute" unicode="&#x179;" horiz-adv-x="1251" 
d="M1176 1438l-5 -172l-839 -1086l827 8l-8 -211l-1069 -4l-8 189l831 1089l-796 -43l-13 215zM907 1802l-252 -303l-127 72l178 342z" />
    <glyph glyph-name="zacute" unicode="&#x17a;" horiz-adv-x="1139" 
d="M1055 -35l-965 -41l-27 207l717 686l-659 -24l-2 200l903 25l16 -217l-719 -676l728 39zM836 1390l-252 -303l-127 72l178 342z" />
    <glyph glyph-name="Zdotaccent" unicode="&#x17b;" horiz-adv-x="1251" 
d="M1176 1438l-5 -172l-839 -1086l827 8l-8 -211l-1069 -4l-8 189l831 1089l-796 -43l-13 215zM744 1663q0 -24 -9.5 -46t-25.5 -38t-38 -25.5t-46 -9.5t-45.5 9.5t-37 25.5t-25 38t-9.5 46q0 25 9.5 46t25 37t37 25t45.5 9t46 -9t38 -25t25.5 -37t9.5 -46z" />
    <glyph glyph-name="zdotaccent" unicode="&#x17c;" horiz-adv-x="1139" 
d="M1055 -35l-965 -41l-27 207l717 686l-659 -24l-2 200l903 25l16 -217l-719 -676l728 39zM687 1240q0 -24 -9.5 -46t-25.5 -38t-38 -25.5t-46 -9.5t-45.5 9.5t-37 25.5t-25 38t-9.5 46q0 25 9.5 46t25 37t37 25t45.5 9t46 -9t38 -25t25.5 -37t9.5 -46z" />
    <glyph glyph-name="Zcaron" unicode="&#x17d;" horiz-adv-x="1251" 
d="M1176 1438l-5 -172l-839 -1086l827 8l-8 -211l-1069 -4l-8 189l831 1089l-796 -43l-13 215zM987 1778l-344 -291l-309 334l139 112l191 -223l202 182z" />
    <glyph glyph-name="zcaron" unicode="&#x17e;" horiz-adv-x="1139" 
d="M1055 -35l-965 -41l-27 207l717 686l-659 -24l-2 200l903 25l16 -217l-719 -676l728 39zM913 1384l-344 -291l-309 334l139 112l191 -223l202 182z" />
    <glyph glyph-name="florin" unicode="&#x192;" horiz-adv-x="1255" 
d="M455 1014q11 105 42.5 202.5t89 172.5t144.5 120t209 45q66 0 139.5 -22.5t145.5 -85.5l-99 -168q-54 38 -105 53.5t-91 19.5q-47 4 -88 -3q-40 -10 -71 -31.5t-54 -60.5t-38 -98.5t-24 -145.5l424 -2l-22 -197l-414 6v-84t-0.5 -126t-1.5 -176t-2 -234
q-2 -85 -7.5 -177.5t-22.5 -182t-49 -169.5t-86.5 -141t-135.5 -97t-195 -36q-66 0 -139.5 22.5t-144.5 85.5l98 168q54 -38 105 -54t91 -19q47 -4 89 4q64 28 103.5 89.5t61.5 148.5t30 197t9 236t-1 264.5t-1 282.5l-227 4v191z" />
    <glyph glyph-name="AEacute" unicode="&#x1fc;" horiz-adv-x="2144" 
d="M1772 539l-594 -29l4 -313l864 49l4 -197l-1057 -57l-6 348l-581 -27q-54 -100 -103.5 -196.5t-91.5 -186.5l-211 31q43 95 100 206t121.5 228.5t133 236t134.5 229t126 208t106.5 172.5t77 122.5t37.5 57.5l1220 13l-6 -191l-883 -14l7 -522l593 24zM973 1266
q-113 -171 -234.5 -370t-236.5 -407l483 19zM1362 1835l-252 -303l-127 72l178 342z" />
    <glyph glyph-name="aeacute" unicode="&#x1fd;" horiz-adv-x="2120" 
d="M924 -63l20 145q-124 -81 -243 -116.5t-222 -35.5q-72 0 -139.5 18.5t-119 57t-83 98t-31.5 140.5t24 145t66 113t99 84t122.5 57t137.5 32.5t143 10.5q73 0 134 -6t104 -14q-14 52 -33 101.5t-49 87.5t-73.5 61.5t-106.5 23.5q-41 0 -92 -11.5t-112.5 -41.5t-133 -82.5
t-152.5 -134.5l-121 147q98 88 189.5 142.5t173.5 85t152 41t124 10.5q73 0 129 -17.5t101 -52.5t81 -88t70 -125q38 55 86.5 100t105.5 76.5t121.5 48.5t133.5 17q104 0 196 -40.5t163 -112t117 -168.5t58 -210l-866 -129q8 -71 36 -134t71.5 -109.5t100.5 -73.5t124 -27
q53 0 105 16.5t96 48t77 78.5t47 109l193 -39q-28 -90 -79 -164.5t-119 -127.5t-149.5 -82t-170.5 -29q-112 0 -211 44.5t-176 129.5h-2l-21 -131zM967 309q3 45 3.5 91.5t-5.5 97.5q-53 18 -111 27.5t-115 9.5q-90 0 -174.5 -21t-145.5 -61t-91.5 -98t-12.5 -132
q14 -60 54.5 -84t97.5 -24q40 0 85.5 10t92 26t93 36.5t88.5 42t78.5 42.5t62.5 37zM1530 883q-42 0 -92 -14.5t-97 -49.5t-84.5 -93.5t-52.5 -145.5l602 73l-6 19q-38 99 -104.5 155t-165.5 56zM981 319q0 2 -1 2t-1 -4zM1419 1418l-252 -303l-127 72l178 342z" />
    <glyph glyph-name="Oslashacute" unicode="&#x1fe;" horiz-adv-x="1677" 
d="M1470 1479l-129 -195q58 -53 105 -117.5t80 -138t51 -154.5t18 -167q0 -107 -27 -205.5t-76.5 -184.5t-118.5 -157t-153.5 -121.5t-181 -78.5t-200.5 -28q-94 0 -181.5 22t-164.5 64l-80 -118l-187 32l121 187q-61 53 -109.5 118t-83 140t-53 158t-18.5 172q0 107 27 206
t76 185t118 156.5t153 121t181 78t201 27.5q93 0 179 -22t165 -62l73 112zM281 707q0 -125 47 -232.5t129 -187.5l614 942q-54 25 -112 39t-121 14q-116 0 -217 -45.5t-177 -123.5t-119.5 -182.5t-43.5 -223.5zM1397 707q0 120 -45.5 225.5t-122.5 183.5l-627 -932
q54 -26 113.5 -39.5t122.5 -13.5q77 0 148.5 20.5t133.5 58t113 90t87.5 116.5t56.5 137.5t20 153.5zM1163 1851l-252 -303l-127 72l178 342z" />
    <glyph glyph-name="oslashacute" unicode="&#x1ff;" horiz-adv-x="1225" 
d="M1071 1122l-106 -190q85 -79 134.5 -193t49.5 -254q0 -126 -42 -233t-115 -186t-171 -123.5t-209 -44.5q-108 0 -204 41l-54 -99l-186 33l88 164q-84 77 -131 191t-47 257q0 133 42 241.5t114.5 185.5t169.5 119t208 42q95 0 183 -35l61 115zM946 485q0 75 -17.5 147.5
t-58.5 131.5l-372 -668q24 -11 53 -15.5t61 -4.5q87 0 150 36.5t104 94.5t60.5 131t19.5 147zM281 485q0 -71 18 -140t55 -126l357 664q-22 8 -47.5 11t-51.5 3q-88 0 -151 -36.5t-103 -95t-58.5 -132t-18.5 -148.5zM922 1445l-252 -303l-127 72l178 342z" />
    <glyph glyph-name="dotlessj" unicode="&#x237;" 
d="M365 977q-2 -154 -3.5 -279.5t-2 -227t-1.5 -179.5t-1 -136q-1 -136 -1 -208q-1 -53 -8.5 -113.5t-28.5 -120t-57.5 -114.5t-95.5 -97t-142.5 -66.5t-197.5 -23.5l12 226q57 -6 100.5 4.5t76 31.5t55.5 49.5t38 59.5q35 72 42 168q2 107 4 258q2 130 3 323t1 453z" />
    <glyph glyph-name="circumflex" unicode="&#x2c6;" horiz-adv-x="662" 
d="M662 1253l-111 -127l-227 199l-185 -209l-139 88l313 338z" />
    <glyph glyph-name="caron" unicode="&#x2c7;" horiz-adv-x="653" 
d="M653 1432l-344 -291l-309 334l139 112l191 -223l202 182z" />
    <glyph glyph-name="breve" unicode="&#x2d8;" horiz-adv-x="676" 
d="M676 1569q1 -69 -13 -122t-37 -93t-53 -67.5t-61 -45.5q-73 -43 -166 -51q-95 2 -171 41q-32 16 -63 42t-55.5 64.5t-40 91.5t-16.5 123l178 11q0 -42 7.5 -73t19 -53.5t26 -37t29.5 -23.5q35 -21 80 -20q44 6 77 32q14 11 27 27t22 39.5t13 54t0 70.5z" />
    <glyph glyph-name="dotaccent" unicode="&#x2d9;" horiz-adv-x="236" 
d="M236 1327q0 -24 -9.5 -46t-25.5 -38t-38 -25.5t-46 -9.5t-45.5 9.5t-37 25.5t-25 38t-9.5 46q0 25 9.5 46t25 37t37 25t45.5 9t46 -9t38 -25t25.5 -37t9.5 -46z" />
    <glyph glyph-name="ring" unicode="&#x2da;" horiz-adv-x="532" 
d="M532 1333q0 -54 -21 -102.5t-57 -85t-84.5 -57.5t-103.5 -21t-103.5 21t-84.5 57.5t-57 85t-21 102.5q0 55 21 104t57 86t84.5 58t103.5 21t103.5 -21t84.5 -58t57 -86t21 -104zM383 1327q0 25 -9 46t-25 37t-37 25t-46 9q-24 0 -46 -9t-38 -25t-25.5 -37t-9.5 -46
q0 -24 9.5 -46t25.5 -38t38 -25.5t46 -9.5q25 0 46 9.5t37 25.5t25 38t9 46z" />
    <glyph glyph-name="ogonek" unicode="&#x2db;" horiz-adv-x="471" 
d="M471 -430q-32 -38 -64 -64t-62 -42t-59 -22.5t-55 -6.5q-44 0 -86 15t-74 43t-51.5 68t-19.5 89q0 31 9 70t31.5 84t61 97t97.5 109l98 -51q-36 -45 -60.5 -83t-39.5 -69.5t-22.5 -57.5t-9.5 -46q-5 -48 11 -78q7 -9 17 -16q8 -6 20 -10.5t29 -4.5q26 0 61.5 19t81.5 70z
" />
    <glyph glyph-name="tilde" unicode="&#x2dc;" horiz-adv-x="821" 
d="M815 1571q3 -23 5.5 -44.5t2.5 -41.5q0 -56 -18 -108.5t-52 -93.5t-83 -66t-111 -25q-43 0 -75.5 12.5t-58 32t-46 41.5t-39.5 41t-38 31.5t-42 11.5q-25 -3 -44 -21q-17 -15 -31.5 -47.5t-16.5 -91.5l-168 29q5 51 16.5 92t27 72.5t33.5 55t36 40.5q42 39 92 55
q56 13 98 3.5t74.5 -31t57.5 -49.5t47 -52t43.5 -39t45.5 -10q22 5 40 21q15 14 27.5 38.5t12.5 67.5q0 16 -1.5 34t-6.5 38z" />
    <glyph glyph-name="hungarumlaut" unicode="&#x2dd;" horiz-adv-x="924" 
d="M924 1569l-408 -381l-127 72l297 436zM483 1593l-356 -405l-127 72l262 460z" />
    <glyph glyph-name="uni0312" unicode="&#x312;" horiz-adv-x="477" 
d="M133 1266q0 10 3.5 37t16 63.5t36 77.5t63.5 78l90 -31q-13 -16 -24 -37q-10 -18 -19.5 -44.5t-15.5 -61.5q24 -14 39.5 -38.5t15.5 -52.5q0 -21 -8 -40t-22 -33.5t-32.5 -22.5t-39.5 -8q-22 0 -40.5 8t-32.5 22.5t-22 33.5t-8 40v9z" />
    <glyph glyph-name="uni0315" unicode="&#x315;" horiz-adv-x="262" 
d="M236 1415q-2 -45 -15 -91q-11 -39 -35 -86t-69 -89l-90 33q12 15 23 36q10 18 20 45t16 62q-25 12 -40 36.5t-15 53.5q0 22 8 40.5t22 32.5t32.5 22t39.5 8t40 -8t33 -22t22 -32.5t8 -40.5z" />
    <glyph glyph-name="uni0326" unicode="&#x326;" horiz-adv-x="510" 
d="M356 -248q-2 -45 -15 -91q-11 -39 -34.5 -86t-68.5 -89l-91 33q13 15 24 36q10 18 19.5 45t16.5 62q-25 14 -40 37.5t-15 52.5q0 22 8 40.5t22 32.5t32.5 22t39.5 8q43 0 72.5 -29.5t29.5 -73.5z" />
    <glyph glyph-name="pi" unicode="&#x3c0;" horiz-adv-x="1124" 
d="M1085 1006l-14 -187l-194 -4l-5 -838l-210 -4l14 836l-211 -4l-2 -868l-211 -5l14 867l-221 -4l4 184z" />
    <glyph glyph-name="Wgrave" unicode="&#x1e80;" horiz-adv-x="1882" 
d="M1815 1458l-271 -1487l-235 6l-359 1141l-403 -1153h-207l-277 1458l211 29l181 -1147l374 1055l248 -29l330 -1087l201 1255zM1038 1520l-127 -72l-270 268l188 164z" />
    <glyph glyph-name="wgrave" unicode="&#x1e81;" horiz-adv-x="1538" 
d="M1475 1010l-199 -1045l-297 -8l-176 735l-242 -700l-299 -23l-194 1037l206 16l152 -840l297 840l192 -12l203 -850l135 858zM884 1179l-127 -72l-270 268l188 164z" />
    <glyph glyph-name="Wacute" unicode="&#x1e82;" horiz-adv-x="1882" 
d="M1815 1458l-271 -1487l-235 6l-359 1141l-403 -1153h-207l-277 1458l211 29l181 -1147l374 1055l248 -29l330 -1087l201 1255zM1276 1735l-252 -303l-127 72l178 342z" />
    <glyph glyph-name="wacute" unicode="&#x1e83;" horiz-adv-x="1538" 
d="M1475 1010l-199 -1045l-297 -8l-176 735l-242 -700l-299 -23l-194 1037l206 16l152 -840l297 840l192 -12l203 -850l135 858zM1143 1404l-252 -303l-127 72l178 342z" />
    <glyph glyph-name="Wdieresis" unicode="&#x1e84;" horiz-adv-x="1882" 
d="M1815 1458l-271 -1487l-235 6l-359 1141l-403 -1153h-207l-277 1458l211 29l181 -1147l374 1055l248 -29l330 -1087l201 1255zM1305 1581q0 -24 -9 -46t-25 -38t-37 -25.5t-46 -9.5q-24 0 -45.5 9.5t-37.5 25.5t-25.5 38t-9.5 46q0 25 9.5 46t25.5 37t37.5 25t45.5 9
q25 0 46 -9t37 -25t25 -37t9 -46zM814 1581q0 -24 -9.5 -46t-25.5 -38t-38 -25.5t-46 -9.5t-45.5 9.5t-37 25.5t-25 38t-9.5 46q0 25 9.5 46t25 37t37 25t45.5 9t46 -9t38 -25t25.5 -37t9.5 -46z" />
    <glyph glyph-name="wdieresis" unicode="&#x1e85;" horiz-adv-x="1538" 
d="M1475 1010l-199 -1045l-297 -8l-176 735l-242 -700l-299 -23l-194 1037l206 16l152 -840l297 840l192 -12l203 -850l135 858zM1190 1222q0 -24 -9 -46t-25 -38t-37 -25.5t-46 -9.5q-24 0 -45.5 9.5t-37.5 25.5t-25.5 38t-9.5 46q0 25 9.5 46t25.5 37t37.5 25t45.5 9
q25 0 46 -9t37 -25t25 -37t9 -46zM699 1222q0 -24 -9.5 -46t-25.5 -38t-38 -25.5t-46 -9.5t-45.5 9.5t-37 25.5t-25 38t-9.5 46q0 25 9.5 46t25 37t37 25t45.5 9t46 -9t38 -25t25.5 -37t9.5 -46z" />
    <glyph glyph-name="Ygrave" unicode="&#x1ef2;" horiz-adv-x="1298" 
d="M1255 1423l-499 -977v-479l-207 -12l16 496l-559 952l236 27l424 -768l362 768zM741 1504l-127 -72l-270 268l188 164z" />
    <glyph glyph-name="ygrave" unicode="&#x1ef3;" horiz-adv-x="1124" 
d="M1071 1012q-53 -156 -96.5 -285t-78.5 -233t-63 -185t-49 -142q-49 -143 -77 -220q-20 -59 -46.5 -125.5t-65 -132.5t-90 -127.5t-120 -110t-156.5 -79.5t-198 -36l-39 195q62 -8 116.5 3.5t101 36t86 59.5t72 74t57.5 79.5t44 75.5l-422 1120l229 31l295 -881
q24 74 56.5 174.5t69 216.5t75.5 242.5t76 251.5zM663 1116l-127 -72l-270 268l188 164z" />
    <glyph glyph-name="endash" unicode="&#x2013;" horiz-adv-x="1094" 
d="M956 578h-821v210h821v-210z" />
    <glyph glyph-name="emdash" unicode="&#x2014;" horiz-adv-x="1503" 
d="M1366 578h-1231v210h1231v-210z" />
    <glyph glyph-name="quoteleft" unicode="&#x2018;" horiz-adv-x="477" 
d="M106 1114q0 12 4.5 46.5t20.5 80t45.5 97t79.5 98.5l113 -39q-16 -21 -30 -47q-12 -23 -24.5 -56t-19.5 -77q29 -17 48 -47.5t19 -65.5q0 -27 -10 -50.5t-27 -41t-40 -27.5t-49 -10q-27 0 -50.5 10t-41.5 27.5t-28 41t-10 50.5v10z" />
    <glyph glyph-name="quoteright" unicode="&#x2019;" horiz-adv-x="473" 
d="M379 1307q-2 -56 -19 -114q-14 -50 -44.5 -108t-86.5 -110l-112 39q15 19 29 45q12 23 24 56.5t20 78.5q-30 15 -48.5 45t-18.5 68q0 27 10 50.5t27 41t40.5 27.5t49.5 10q27 0 50.5 -10t41 -27.5t27.5 -41t10 -50.5z" />
    <glyph glyph-name="quotesinglbase" unicode="&#x201a;" horiz-adv-x="510" 
d="M383 57q-2 -56 -19 -113q-14 -49 -44.5 -107.5t-86.5 -110.5l-112 38q15 20 29 47q12 23 24.5 56t20.5 78q-31 17 -49.5 46t-18.5 66q0 27 10 50.5t27 41t40.5 27.5t49.5 10q27 0 50.5 -10t41 -27.5t27.5 -41t10 -50.5z" />
    <glyph glyph-name="quotedblleft" unicode="&#x201c;" horiz-adv-x="803" 
d="M432 1114q0 12 4.5 46.5t20.5 80t45.5 97t79.5 98.5l112 -39q-16 -21 -30 -47q-12 -23 -24 -56t-19 -77q29 -17 48 -47.5t19 -65.5q0 -27 -10 -50.5t-27.5 -41t-40.5 -27.5t-49 -10q-27 0 -50.5 10t-41 27.5t-27.5 41t-10 50.5v10zM367 1397q-16 -21 -30 -47
q-12 -23 -24.5 -56t-19.5 -77q29 -17 48 -47.5t19 -65.5q0 -27 -10 -50.5t-27.5 -41t-40.5 -27.5t-49 -10q-27 0 -50.5 10t-41 27.5t-27.5 41t-10 50.5q2 55 19 113q14 49 44.5 107.5t86.5 111.5z" />
    <glyph glyph-name="quotedblright" unicode="&#x201d;" horiz-adv-x="801" 
d="M379 1307q-2 -56 -19 -114q-14 -50 -44.5 -108t-86.5 -110l-112 39q15 19 29 45q12 23 24 56.5t20 78.5q-30 15 -48.5 45t-18.5 68q0 27 10 50.5t27 41t40.5 27.5t49.5 10q27 0 50.5 -10t41 -27.5t27.5 -41t10 -50.5zM444 1014q15 19 29 45q12 23 24.5 56.5t20.5 78.5
q-31 15 -49 45t-18 68q0 27 10 50.5t27 41t40.5 27.5t49.5 10q27 0 50.5 -10t41 -27.5t27.5 -41t10 -50.5q-2 -56 -19 -114q-14 -50 -44.5 -108t-86.5 -110z" />
    <glyph glyph-name="quotedblbase" unicode="&#x201e;" horiz-adv-x="838" 
d="M383 57q-2 -56 -19 -113q-14 -49 -44.5 -107.5t-86.5 -110.5l-112 38q15 20 29 47q12 23 24.5 56t20.5 78q-31 17 -49.5 46t-18.5 66q0 27 10 50.5t27 41t40.5 27.5t49.5 10q27 0 50.5 -10t41 -27.5t27.5 -41t10 -50.5zM449 -236q15 20 29 47q12 23 24 56t20 78
q-31 17 -49 46t-18 66q0 27 10 50.5t27 41t40.5 27.5t49.5 10q27 0 50.5 -10t41 -27.5t27.5 -41t10 -50.5q-2 -56 -19 -113q-14 -49 -44.5 -107.5t-86.5 -110.5z" />
    <glyph glyph-name="dagger" unicode="&#x2020;" horiz-adv-x="909" 
d="M571 1731l-8 -371l264 2l-4 -193l-264 -2l-27 -1421l-196 -10l10 1429l-262 -2v193l264 2l4 373h219z" />
    <glyph glyph-name="daggerdbl" unicode="&#x2021;" horiz-adv-x="938" 
d="M354 233l6 932l-262 -2v193l264 2l5 373h219l-8 -371l264 2l-4 -193l-265 -2l-16 -931l285 2l-4 -193l-285 -2l-6 -297l-197 -10l2 305h-254v192h256z" />
    <glyph glyph-name="bullet" unicode="&#x2022;" horiz-adv-x="748" 
d="M571 684q0 -41 -15.5 -77t-42 -63t-62.5 -43t-76 -16q-42 0 -78 16t-63 43t-42.5 63t-15.5 77t15.5 77t42.5 63t63 43t78 16q40 0 76 -16t62.5 -43t42 -63t15.5 -77z" />
    <glyph glyph-name="ellipsis" unicode="&#x2026;" horiz-adv-x="1530" 
d="M383 57q0 -26 -10 -49t-27.5 -40.5t-40.5 -27.5t-49 -10q-27 0 -50.5 10t-41 27.5t-27.5 40.5t-10 49q0 27 10 50.5t27.5 41t41 27.5t50.5 10q26 0 49 -10t40.5 -27.5t27.5 -41t10 -50.5zM893 57q0 -26 -10 -49t-27.5 -40.5t-40.5 -27.5t-49 -10q-27 0 -50.5 10t-41 27.5
t-27.5 40.5t-10 49q0 27 10 50.5t27.5 41t41 27.5t50.5 10q26 0 49 -10t40.5 -27.5t27.5 -41t10 -50.5zM1403 57q0 -26 -10 -49t-27.5 -40.5t-40.5 -27.5t-49 -10q-27 0 -50.5 10t-41 27.5t-27.5 40.5t-10 49q0 27 10 50.5t27.5 41t41 27.5t50.5 10q26 0 49 -10t40.5 -27.5
t27.5 -41t10 -50.5z" />
    <glyph glyph-name="perthousand" unicode="&#x2030;" horiz-adv-x="2228" 
d="M702 1036q0 -78 -24 -147t-66 -120t-99 -80.5t-122 -29.5q-67 0 -123.5 29.5t-98 80.5t-64.5 120t-23 147t23 147t64 120t97.5 80.5t124.5 29.5q70 0 127.5 -29.5t98 -80.5t63 -120t22.5 -147zM555 1036q0 47 -11 88.5t-32 73t-51.5 50t-69.5 18.5q-37 0 -67 -18.5
t-51 -50t-32.5 -73t-11.5 -88.5q0 -48 11.5 -90t32.5 -73.5t51 -49.5t67 -18q38 0 68.5 18t51.5 49.5t32.5 73.5t11.5 90zM1257 1395l-796 -1413l-146 32l768 1411zM1462 350q0 -78 -24 -147t-66 -120t-99 -80.5t-122 -29.5q-67 0 -123.5 29.5t-98 80.5t-64.5 120t-23 147
t23 147t64 120t97.5 80.5t124.5 29.5q70 0 127 -29.5t98 -80.5t63.5 -120t22.5 -147zM1315 350q0 47 -11.5 88.5t-32.5 73t-51.5 50t-68.5 18.5q-37 0 -67 -18.5t-51 -50t-32.5 -73t-11.5 -88.5q0 -48 11.5 -90t32.5 -73.5t51 -49.5t67 -18t67.5 18t52 49.5t33 73.5t11.5 90
zM2150 350q0 -78 -24 -146t-66 -117.5t-99 -78t-122 -28.5q-67 0 -123.5 28.5t-98 78t-64.5 117.5t-23 146t23 146t64 118t97.5 78.5t124.5 28.5q70 0 127 -28.5t98 -78.5t63.5 -118t22.5 -146zM2003 350q0 47 -11 87.5t-32 70.5t-51.5 47.5t-69.5 17.5q-37 0 -67 -17.5
t-51 -47.5t-32.5 -70.5t-11.5 -87.5q0 -48 11.5 -89t32.5 -71t51 -47.5t67 -17.5t67.5 17.5t52 47.5t33 71t11.5 89z" />
    <glyph glyph-name="guilsinglleft" unicode="&#x2039;" horiz-adv-x="821" 
d="M743 221l-135 -158l-542 451l499 449l129 -148l-346 -291z" />
    <glyph glyph-name="guilsinglright" unicode="&#x203a;" horiz-adv-x="819" 
d="M754 514l-543 -451l-135 158l395 303l-344 291l127 148z" />
    <glyph glyph-name="fraction" unicode="&#x2044;" horiz-adv-x="963" 
d="M956 1395l-796 -1413l-146 32l768 1411z" />
    <glyph glyph-name="Euro" unicode="&#x20ac;" horiz-adv-x="1886" 
d="M1147 805l-526 -12q-2 -20 -3.5 -40t-1.5 -40q0 -31 3.5 -60.5t9.5 -58.5l471 -2l-58 -174l-346 -4q37 -62 88 -113t112 -87.5t131.5 -56.5t146.5 -20q70 0 135 17t122.5 48t107 75t87.5 98l162 -113q-51 -74 -118 -133.5t-145.5 -101.5t-167 -65t-183.5 -23
q-118 0 -225.5 34.5t-198 97t-160.5 149.5t-113 192l-401 -4l57 188l293 -2q-5 29 -6.5 58.5t-1.5 60.5v37.5t2 37.5l-252 -6l45 168l242 4q37 116 107 214t164 169t208 110.5t240 39.5q89 0 172 -20t158 -57t140 -90t117 -118l-153 -125q-78 97 -189.5 154t-244.5 57
q-83 0 -159.5 -24t-142 -67.5t-117 -103.5t-85.5 -132l528 12z" />
    <glyph glyph-name="trademark" unicode="&#x2122;" horiz-adv-x="1464" 
d="M1339 772l-120 -24l-68 409q-26 -87 -53 -171.5t-51 -168.5l-123 -10l-123 340q-14 -94 -30 -192.5t-30 -188.5l-125 20l113 596h113l139 -395l123 391l125 2zM625 1380v-118l-181 -7l7 -481l-127 -2v479l-183 -6v125z" />
    <glyph glyph-name="partialdiff" unicode="&#x2202;" horiz-adv-x="1239" 
d="M1153 485q0 -126 -42 -233t-115 -186t-171 -123.5t-209 -44.5q-110 0 -207.5 42t-170 119.5t-114.5 185.5t-42 240q0 133 42 241.5t114.5 185.5t170 119t207.5 42q23 0 47.5 -1.5t47.5 -6.5q-30 43 -62.5 86t-65 83t-64.5 77t-60 69q-67 75 -131 140l155 116
q124 -126 216 -243t161 -221.5t118 -195t87 -163.5q18 -35 34 -77.5t28 -85t19 -83.5t7 -73v-9zM950 485q0 75 -18 148.5t-58 132t-103.5 95t-154.5 36.5q-88 0 -151 -36.5t-103 -95t-58.5 -132t-18.5 -148.5q0 -74 20.5 -147t61.5 -131t103 -94.5t146 -36.5q87 0 150 36.5
t104 94.5t60.5 131t19.5 147z" />
    <glyph glyph-name="product" unicode="&#x220f;" horiz-adv-x="1473" 
d="M1395 1444l-4 -201l-263 -10l15 -1219l-221 -4v1217l-306 -10l15 -1244l-221 -4v1239l-330 -10l-4 221z" />
    <glyph glyph-name="minus" unicode="&#x2212;" horiz-adv-x="1067" 
d="M932 600l-791 -22l-6 208l797 23v-209z" />
    <glyph glyph-name="radical" unicode="&#x221a;" horiz-adv-x="1307" 
d="M1278 1454l-27 -182l-397 26l-285 -1298l-262 -16l-276 620l178 43l213 -497l293 1316z" />
    <glyph glyph-name="infinity" unicode="&#x221e;" horiz-adv-x="1546" 
d="M1438 705q-5 -61 -29 -112.5t-66 -89t-100.5 -58.5t-132.5 -21q-43 2 -95 20q-45 15 -105.5 48.5t-131.5 95.5q-62 -60 -127.5 -92.5t-119.5 -47.5q-63 -18 -123 -20q-82 0 -139 27.5t-92.5 70t-51.5 94t-16 99.5q0 69 24 129t66 104t99 69.5t122 25.5q52 -4 111 -26
q51 -19 116 -58t137 -111q52 68 110.5 105t108.5 54q58 20 115 23q88 0 151 -27.5t102 -73.5t55 -105.5t12 -122.5zM680 725q-45 60 -87.5 92.5t-77.5 47.5q-40 18 -77 20q-31 0 -59.5 -12.5t-50 -34t-34.5 -50.5t-13 -63q0 -31 7 -58t25 -47.5t48 -32.5t75 -12q39 2 80 19
q35 14 78.5 44t85.5 87zM1270 725q0 34 -13 63t-35 50.5t-50.5 34t-59.5 12.5q-37 -2 -77 -20q-35 -15 -78 -47.5t-87 -92.5q42 -57 85.5 -87t78.5 -44q41 -17 80 -19q45 0 75 12t48 32.5t25.5 47.5t7.5 58z" />
    <glyph glyph-name="approxequal" unicode="&#x2248;" horiz-adv-x="1241" 
d="M1092 1135q1 -67 -10.5 -119.5t-30.5 -93t-43.5 -70.5t-50.5 -51q-61 -49 -138 -68q-55 -10 -97 3t-74.5 38t-58.5 56t-49.5 57t-46 41t-49.5 8q-30 -11 -52 -39q-19 -24 -32.5 -69t-7.5 -121l-202 20q1 69 12.5 123.5t30 96.5t42 73.5t47.5 53.5q57 52 130 71
q55 11 95 -2.5t71.5 -39.5t57 -58.5t52 -59.5t56 -42t69.5 -7q22 7 40 27q15 17 27.5 51t12.5 94q0 15 -1 33t-3 37zM1092 666q1 -67 -10.5 -119.5t-30.5 -93t-43.5 -70.5t-50.5 -51q-61 -49 -138 -68q-55 -10 -97 3t-74.5 38t-58.5 56t-49.5 57t-46 41t-49.5 8
q-30 -11 -52 -39q-19 -24 -32.5 -69t-7.5 -121l-202 20q1 69 12.5 123.5t30 96.5t42 73.5t47.5 53.5q57 52 130 71q55 11 95 -2.5t71.5 -39.5t57 -58.5t52 -59.5t56 -42t69.5 -7q22 7 40 27q15 17 27.5 51t12.5 94q0 15 -1 33t-3 37z" />
    <glyph glyph-name="notequal" unicode="&#x2260;" horiz-adv-x="1067" 
d="M928 1214l-121 -225l123 4v-188l-225 -6l-119 -226l344 -2l-4 -194l-449 -6l-139 -262l-166 32l115 228l-144 -2v208l248 -2l111 220l-363 -11l-6 189l467 12l133 262z" />
    </font>
</defs>
</svg>
